<?xml version="1.0" encoding="utf-8" standalone="no"?>
<!DOCTYPE svg PUBLIC "-//W3C//DTD SVG 1.1//EN"
  "http://www.w3.org/Graphics/SVG/1.1/DTD/svg11.dtd">
<svg xmlns:xlink="http://www.w3.org/1999/xlink" width="720pt" height="360pt" viewBox="0 0 720 360" xmlns="http://www.w3.org/2000/svg" version="1.1">
 <metadata>
  <rdf:RDF xmlns:dc="http://purl.org/dc/elements/1.1/" xmlns:cc="http://creativecommons.org/ns#" xmlns:rdf="http://www.w3.org/1999/02/22-rdf-syntax-ns#">
   <cc:Work>
    <dc:type rdf:resource="http://purl.org/dc/dcmitype/StillImage"/>
    <dc:date>2023-07-18T10:49:15.174860</dc:date>
    <dc:format>image/svg+xml</dc:format>
    <dc:creator>
     <cc:Agent>
      <dc:title>Matplotlib v3.7.2, https://matplotlib.org/</dc:title>
     </cc:Agent>
    </dc:creator>
   </cc:Work>
  </rdf:RDF>
 </metadata>
 <defs>
  <style type="text/css">*{stroke-linejoin: round; stroke-linecap: butt}</style>
 </defs>
 <g id="figure_1">
  <g id="patch_1">
   <path d="M 0 360 
L 720 360 
L 720 0 
L 0 0 
z
" style="fill: #ffffff"/>
  </g>
  <g id="axes_1">
   <g id="patch_2">
    <path d="M 65.54 304 
L 703.8 304 
L 703.8 16.2 
L 65.54 16.2 
z
" style="fill: #ffffff"/>
   </g>
   <g id="matplotlib.axis_1">
    <g id="xtick_1">
     <g id="line2d_1">
      <defs>
       <path id="m040ca26c0e" d="M 0 0 
L 0 3.5 
" style="stroke: #000000; stroke-width: 0.8"/>
      </defs>
      <g>
       <use xlink:href="#m040ca26c0e" x="93.282154" y="304" style="stroke: #000000; stroke-width: 0.8"/>
      </g>
     </g>
     <g id="text_1">
      <text style="font: 15px 'DejaVu Sans', 'Bitstream Vera Sans', 'Computer Modern Sans Serif', 'Lucida Grande', 'Verdana', 'Geneva', 'Lucid', 'Arial', 'Helvetica', 'Avant Garde', sans-serif; text-anchor: middle" x="93.282154" y="322.397656" transform="rotate(-0 93.282154 322.397656)">0</text>
     </g>
    </g>
    <g id="xtick_2">
     <g id="line2d_2">
      <g>
       <use xlink:href="#m040ca26c0e" x="220.248536" y="304" style="stroke: #000000; stroke-width: 0.8"/>
      </g>
     </g>
     <g id="text_2">
      <text style="font: 15px 'DejaVu Sans', 'Bitstream Vera Sans', 'Computer Modern Sans Serif', 'Lucida Grande', 'Verdana', 'Geneva', 'Lucid', 'Arial', 'Helvetica', 'Avant Garde', sans-serif; text-anchor: middle" x="220.248536" y="322.397656" transform="rotate(-0 220.248536 322.397656)">100</text>
     </g>
    </g>
    <g id="xtick_3">
     <g id="line2d_3">
      <g>
       <use xlink:href="#m040ca26c0e" x="347.214917" y="304" style="stroke: #000000; stroke-width: 0.8"/>
      </g>
     </g>
     <g id="text_3">
      <text style="font: 15px 'DejaVu Sans', 'Bitstream Vera Sans', 'Computer Modern Sans Serif', 'Lucida Grande', 'Verdana', 'Geneva', 'Lucid', 'Arial', 'Helvetica', 'Avant Garde', sans-serif; text-anchor: middle" x="347.214917" y="322.397656" transform="rotate(-0 347.214917 322.397656)">200</text>
     </g>
    </g>
    <g id="xtick_4">
     <g id="line2d_4">
      <g>
       <use xlink:href="#m040ca26c0e" x="474.181299" y="304" style="stroke: #000000; stroke-width: 0.8"/>
      </g>
     </g>
     <g id="text_4">
      <text style="font: 15px 'DejaVu Sans', 'Bitstream Vera Sans', 'Computer Modern Sans Serif', 'Lucida Grande', 'Verdana', 'Geneva', 'Lucid', 'Arial', 'Helvetica', 'Avant Garde', sans-serif; text-anchor: middle" x="474.181299" y="322.397656" transform="rotate(-0 474.181299 322.397656)">300</text>
     </g>
    </g>
    <g id="xtick_5">
     <g id="line2d_5">
      <g>
       <use xlink:href="#m040ca26c0e" x="601.147681" y="304" style="stroke: #000000; stroke-width: 0.8"/>
      </g>
     </g>
     <g id="text_5">
      <text style="font: 15px 'DejaVu Sans', 'Bitstream Vera Sans', 'Computer Modern Sans Serif', 'Lucida Grande', 'Verdana', 'Geneva', 'Lucid', 'Arial', 'Helvetica', 'Avant Garde', sans-serif; text-anchor: middle" x="601.147681" y="322.397656" transform="rotate(-0 601.147681 322.397656)">400</text>
     </g>
    </g>
    <g id="text_6">
     <text style="font: 15px 'DejaVu Sans', 'Bitstream Vera Sans', 'Computer Modern Sans Serif', 'Lucida Grande', 'Verdana', 'Geneva', 'Lucid', 'Arial', 'Helvetica', 'Avant Garde', sans-serif; text-anchor: middle" x="384.67" y="340.914844" transform="rotate(-0 384.67 340.914844)">Epoch</text>
    </g>
   </g>
   <g id="matplotlib.axis_2">
    <g id="ytick_1">
     <g id="line2d_6">
      <defs>
       <path id="m1bcebe968d" d="M 0 0 
L -3.5 0 
" style="stroke: #000000; stroke-width: 0.8"/>
      </defs>
      <g>
       <use xlink:href="#m1bcebe968d" x="65.54" y="265.036562" style="stroke: #000000; stroke-width: 0.8"/>
      </g>
     </g>
     <g id="text_7">
      <text style="font: 15px 'DejaVu Sans', 'Bitstream Vera Sans', 'Computer Modern Sans Serif', 'Lucida Grande', 'Verdana', 'Geneva', 'Lucid', 'Arial', 'Helvetica', 'Avant Garde', sans-serif; text-anchor: end" x="58.54" y="270.73539" transform="rotate(-0 58.54 270.73539)">0.4</text>
     </g>
    </g>
    <g id="ytick_2">
     <g id="line2d_7">
      <g>
       <use xlink:href="#m1bcebe968d" x="65.54" y="222.528664" style="stroke: #000000; stroke-width: 0.8"/>
      </g>
     </g>
     <g id="text_8">
      <text style="font: 15px 'DejaVu Sans', 'Bitstream Vera Sans', 'Computer Modern Sans Serif', 'Lucida Grande', 'Verdana', 'Geneva', 'Lucid', 'Arial', 'Helvetica', 'Avant Garde', sans-serif; text-anchor: end" x="58.54" y="228.227492" transform="rotate(-0 58.54 228.227492)">0.5</text>
     </g>
    </g>
    <g id="ytick_3">
     <g id="line2d_8">
      <g>
       <use xlink:href="#m1bcebe968d" x="65.54" y="180.020767" style="stroke: #000000; stroke-width: 0.8"/>
      </g>
     </g>
     <g id="text_9">
      <text style="font: 15px 'DejaVu Sans', 'Bitstream Vera Sans', 'Computer Modern Sans Serif', 'Lucida Grande', 'Verdana', 'Geneva', 'Lucid', 'Arial', 'Helvetica', 'Avant Garde', sans-serif; text-anchor: end" x="58.54" y="185.719595" transform="rotate(-0 58.54 185.719595)">0.6</text>
     </g>
    </g>
    <g id="ytick_4">
     <g id="line2d_9">
      <g>
       <use xlink:href="#m1bcebe968d" x="65.54" y="137.512869" style="stroke: #000000; stroke-width: 0.8"/>
      </g>
     </g>
     <g id="text_10">
      <text style="font: 15px 'DejaVu Sans', 'Bitstream Vera Sans', 'Computer Modern Sans Serif', 'Lucida Grande', 'Verdana', 'Geneva', 'Lucid', 'Arial', 'Helvetica', 'Avant Garde', sans-serif; text-anchor: end" x="58.54" y="143.211697" transform="rotate(-0 58.54 143.211697)">0.7</text>
     </g>
    </g>
    <g id="ytick_5">
     <g id="line2d_10">
      <g>
       <use xlink:href="#m1bcebe968d" x="65.54" y="95.004972" style="stroke: #000000; stroke-width: 0.8"/>
      </g>
     </g>
     <g id="text_11">
      <text style="font: 15px 'DejaVu Sans', 'Bitstream Vera Sans', 'Computer Modern Sans Serif', 'Lucida Grande', 'Verdana', 'Geneva', 'Lucid', 'Arial', 'Helvetica', 'Avant Garde', sans-serif; text-anchor: end" x="58.54" y="100.7038" transform="rotate(-0 58.54 100.7038)">0.8</text>
     </g>
    </g>
    <g id="ytick_6">
     <g id="line2d_11">
      <g>
       <use xlink:href="#m1bcebe968d" x="65.54" y="52.497074" style="stroke: #000000; stroke-width: 0.8"/>
      </g>
     </g>
     <g id="text_12">
      <text style="font: 15px 'DejaVu Sans', 'Bitstream Vera Sans', 'Computer Modern Sans Serif', 'Lucida Grande', 'Verdana', 'Geneva', 'Lucid', 'Arial', 'Helvetica', 'Avant Garde', sans-serif; text-anchor: end" x="58.54" y="58.195902" transform="rotate(-0 58.54 58.195902)">0.9</text>
     </g>
    </g>
    <g id="text_13">
     <text style="font: 15px 'DejaVu Sans', 'Bitstream Vera Sans', 'Computer Modern Sans Serif', 'Lucida Grande', 'Verdana', 'Geneva', 'Lucid', 'Arial', 'Helvetica', 'Avant Garde', sans-serif; text-anchor: middle" x="27.565781" y="160.1" transform="rotate(-90 27.565781 160.1)">Accuracy</text>
    </g>
   </g>
   <g id="line2d_12">
    <path d="M 94.551818 290.918182 
L 95.821482 250.410048 
L 97.091146 217.33695 
L 98.36081 196.698323 
L 99.630473 179.328533 
L 100.900137 166.829999 
L 102.169801 156.831156 
L 103.439465 154.267338 
L 104.709129 146.575932 
L 105.978793 142.922509 
L 108.51812 130.167568 
L 109.787784 128.5652 
L 111.057448 123.88625 
L 112.327112 120.168725 
L 113.596775 115.87436 
L 114.866439 114.143789 
L 116.136103 109.464839 
L 117.405767 106.388256 
L 118.675431 105.106372 
L 119.945094 105.298652 
L 121.214758 100.17104 
L 122.484422 100.106938 
L 123.754086 98.119985 
L 125.02375 95.10753 
L 126.293414 96.133057 
L 127.563077 93.056475 
L 128.832741 91.325903 
L 130.102405 88.057066 
L 131.372069 89.595332 
L 133.911396 86.390596 
L 135.18106 85.172789 
L 136.450724 85.557349 
L 137.720388 83.249912 
L 138.990052 81.391163 
L 140.259716 82.673072 
L 141.529379 80.301559 
L 142.799043 80.365635 
L 144.068707 79.660591 
L 145.338371 77.93002 
L 147.877698 76.007168 
L 149.147362 76.584034 
L 150.417026 72.417847 
L 151.68669 72.738331 
L 152.956354 74.981641 
L 154.226018 74.020215 
L 155.495681 70.815454 
L 156.765345 72.610128 
L 158.035009 72.097364 
L 159.304673 73.635655 
L 160.574337 73.635655 
L 161.844 68.828527 
L 163.113664 68.572145 
L 164.383328 66.969752 
L 165.652992 68.828527 
L 166.922656 68.379839 
L 168.192319 70.174512 
L 169.461983 65.175104 
L 170.731647 67.931177 
L 172.001311 66.136529 
L 173.270975 66.264708 
L 174.540639 66.969752 
L 175.810302 64.85462 
L 177.079966 65.0469 
L 178.34963 61.393477 
L 179.619294 63.188151 
L 180.888958 66.008326 
L 182.158621 62.803565 
L 183.428285 65.816046 
L 184.697949 61.137095 
L 185.967613 63.124049 
L 187.237277 63.188151 
L 189.776604 61.201197 
L 191.046268 62.354903 
L 192.315932 61.906241 
L 193.585596 60.239772 
L 194.85526 62.99587 
L 196.124923 60.36795 
L 197.394587 60.816612 
L 199.933915 60.111568 
L 201.203579 58.12464 
L 202.473242 58.637379 
L 203.742906 59.406524 
L 205.01257 58.637379 
L 206.282234 57.611876 
L 207.551898 57.291393 
L 208.821562 57.227291 
L 210.091225 55.753101 
L 211.360889 59.214244 
L 212.630553 59.727008 
L 215.169881 57.035011 
L 216.439544 56.394069 
L 217.709208 56.009483 
L 218.978872 57.868258 
L 220.248536 54.535294 
L 222.787864 55.368541 
L 224.057527 55.368541 
L 225.327191 54.983956 
L 226.596855 54.471217 
L 227.866519 53.253384 
L 229.136183 54.407116 
L 230.405846 57.035011 
L 231.67551 53.317486 
L 232.945174 55.176261 
L 234.214838 53.958454 
L 235.484502 52.291959 
L 236.754166 54.663497 
L 238.023829 50.497311 
L 239.293493 53.44569 
L 240.563157 51.522838 
L 241.832821 52.099679 
L 243.102485 52.291959 
L 244.372148 51.586915 
L 245.641812 53.189308 
L 248.18114 53.253384 
L 249.450804 52.997028 
L 250.720467 51.010075 
L 253.259795 52.548341 
L 254.529459 50.881871 
L 255.799123 51.715118 
L 257.068787 50.305031 
L 258.33845 49.984547 
L 259.608114 50.561413 
L 260.877778 49.792267 
L 262.147442 49.728165 
L 263.417106 50.305031 
L 264.686769 49.664063 
L 265.956433 47.613034 
L 267.226097 52.227882 
L 268.495761 49.215402 
L 269.765425 47.548932 
L 271.035089 48.95902 
L 272.304752 49.599962 
L 273.574416 48.638536 
L 274.84408 50.625489 
L 277.383408 46.779786 
L 278.653071 49.215402 
L 279.922735 46.587506 
L 281.192399 49.535885 
L 282.462063 46.202921 
L 283.731727 46.523404 
L 285.00139 46.331124 
L 286.271054 46.715685 
L 287.540718 49.471783 
L 288.810382 46.587506 
L 290.080046 48.510358 
L 291.34971 47.67711 
L 292.619373 46.395226 
L 293.889037 48.95902 
L 295.158701 47.67711 
L 296.428365 48.061696 
L 297.698029 47.741212 
L 298.967692 45.754259 
L 300.237356 45.626081 
L 301.50702 46.395226 
L 302.776684 46.331124 
L 304.046348 44.280069 
L 305.316012 47.548932 
L 306.585675 42.934084 
L 307.855339 44.536451 
L 309.125003 44.664655 
L 310.394667 46.459303 
L 312.933994 43.062262 
L 314.203658 41.652174 
L 315.473322 45.049215 
L 316.742986 46.972066 
L 318.01265 45.754259 
L 319.282314 43.126364 
L 320.551977 45.754259 
L 321.821641 46.459303 
L 323.091305 44.600553 
L 324.360969 43.767306 
L 325.630633 46.267023 
L 326.900296 45.305597 
L 328.16996 43.575026 
L 329.439624 43.639127 
L 330.709288 42.998185 
L 331.978952 43.959611 
L 333.248615 46.202921 
L 334.518279 46.010641 
L 335.787943 44.664655 
L 337.057607 44.408273 
L 338.327271 43.446847 
L 339.596935 43.062262 
L 340.866598 45.818361 
L 342.136262 43.382745 
L 344.67559 43.190465 
L 345.945254 43.510924 
L 347.214917 42.549498 
L 348.484581 43.062262 
L 349.754245 41.780378 
L 351.023909 42.6136 
L 352.293573 41.780378 
L 353.563237 42.869982 
L 354.8329 41.908556 
L 356.102564 45.4338 
L 357.372228 42.164938 
L 358.641892 44.344171 
L 359.911556 43.190465 
L 361.181219 43.895509 
L 362.450883 40.56257 
L 363.720547 42.357218 
L 364.990211 40.306188 
L 366.259875 40.242086 
L 367.529538 40.75485 
L 368.799202 41.780378 
L 370.068866 40.242086 
L 371.33853 41.652174 
L 372.608194 44.151891 
L 373.877858 40.690748 
L 375.147521 41.267614 
L 377.686849 39.344763 
L 378.956513 40.177985 
L 380.226177 40.049806 
L 381.49584 42.677702 
L 382.765504 40.56257 
L 384.035168 37.293708 
L 385.304832 38.383337 
L 386.574496 43.190465 
L 387.84416 39.665221 
L 389.113823 38.767897 
L 390.383487 40.177985 
L 391.653151 37.998751 
L 392.922815 40.177985 
L 394.192479 40.049806 
L 395.462142 40.690748 
L 398.00147 43.062262 
L 399.271134 39.088381 
L 400.540798 39.280661 
L 401.810462 37.93465 
L 403.080125 39.793425 
L 404.349789 41.203512 
L 405.619453 41.395792 
L 406.889117 41.011232 
L 408.158781 39.408839 
L 409.428444 38.383337 
L 410.698108 41.908556 
L 411.967772 40.883028 
L 413.237436 38.383337 
L 414.5071 38.126955 
L 415.776763 38.960177 
L 417.046427 39.280661 
L 418.316091 38.319235 
L 419.585755 39.088381 
L 420.855419 39.280661 
L 422.125083 39.152457 
L 423.394746 39.921603 
L 424.66441 38.255133 
L 425.934074 41.075309 
L 427.203738 39.152457 
L 428.473402 40.370265 
L 429.743065 38.767897 
L 431.012729 39.537043 
L 432.282393 38.703795 
L 433.552057 40.113883 
L 434.821721 37.678268 
L 436.091385 37.870573 
L 437.361048 38.960177 
L 438.630712 38.767897 
L 439.900376 41.395792 
L 441.17004 38.383337 
L 442.439704 38.960177 
L 443.709367 35.499034 
L 444.979031 38.447413 
L 446.248695 38.896075 
L 447.518359 37.806471 
L 448.788023 38.447413 
L 450.057686 37.357809 
L 451.32735 39.985705 
L 452.597014 37.165529 
L 453.866678 37.357809 
L 455.136342 37.293708 
L 456.406006 37.806471 
L 457.675669 35.370856 
L 458.945333 38.767897 
L 460.214997 37.614191 
L 461.484661 37.357809 
L 462.754325 37.229606 
L 464.023988 38.383337 
L 465.293652 37.165529 
L 466.563316 36.26818 
L 467.83298 36.716842 
L 469.102644 36.26818 
L 470.372308 37.870573 
L 471.641971 37.614191 
L 472.911635 38.062853 
L 474.181299 35.499034 
L 475.450963 37.101427 
L 476.720627 35.755416 
L 477.99029 37.678268 
L 479.259954 36.011798 
L 480.529618 36.396384 
L 481.799282 35.434958 
L 483.068946 37.550089 
L 484.33861 36.716842 
L 486.877937 37.165529 
L 488.147601 36.46046 
L 489.417265 37.550089 
L 490.686929 38.062853 
L 491.956592 36.909147 
L 493.226256 37.870573 
L 494.49592 34.986271 
L 495.765584 37.165529 
L 497.035248 37.678268 
L 498.304911 34.281227 
L 499.574575 37.037326 
L 500.844239 37.101427 
L 502.113903 37.357809 
L 503.383567 36.204078 
L 504.653231 37.101427 
L 505.922894 36.396384 
L 507.192558 32.999343 
L 508.462222 36.652766 
L 509.731886 33.576183 
L 511.00155 35.819518 
L 512.271213 37.614191 
L 513.540877 34.40943 
L 514.810541 35.242653 
L 516.080205 35.69134 
L 517.349869 36.973224 
L 518.619533 35.370856 
L 519.889196 34.665812 
L 522.428524 37.485988 
L 524.967852 35.050372 
L 526.237515 36.396384 
L 527.507179 35.947696 
L 528.776843 35.114474 
L 530.046507 35.178576 
L 531.316171 36.332282 
L 532.585834 33.832565 
L 533.855498 33.063419 
L 535.125162 33.896667 
L 536.394826 35.306754 
L 537.66449 37.229606 
L 538.934154 33.512081 
L 540.203817 37.357809 
L 541.473481 34.40943 
L 542.743145 32.614757 
L 545.282473 35.947696 
L 546.552136 36.332282 
L 547.8218 34.729889 
L 549.091464 34.345329 
L 550.361128 36.396384 
L 551.630792 35.755416 
L 552.900456 34.088947 
L 554.170119 34.922194 
L 555.439783 36.780944 
L 559.248775 34.60171 
L 560.518438 32.422477 
L 563.057766 33.832565 
L 564.32743 33.191623 
L 565.597094 34.024845 
L 566.866758 36.140002 
L 568.136421 34.345329 
L 569.406085 36.780944 
L 570.675749 32.742961 
L 571.945413 37.165529 
L 573.215077 33.512081 
L 574.48474 32.999343 
L 575.754404 36.140002 
L 577.024068 34.345329 
L 578.293732 33.704387 
L 579.563396 34.21715 
L 580.833059 33.063419 
L 582.102723 36.396384 
L 583.372387 33.704387 
L 584.642051 35.947696 
L 585.911715 34.21715 
L 587.181379 35.69134 
L 588.451042 35.242653 
L 589.720706 37.357809 
L 590.99037 32.101994 
L 592.260034 33.383903 
L 593.529698 33.896667 
L 594.799361 33.063419 
L 596.069025 36.396384 
L 597.338689 31.58923 
L 598.608353 33.448005 
L 599.878017 34.088947 
L 601.147681 33.576183 
L 602.417344 31.973815 
L 603.687008 32.101994 
L 604.956672 33.448005 
L 606.226336 32.486579 
L 607.496 32.166095 
L 608.765663 31.076466 
L 610.035327 31.268771 
L 611.304991 33.127521 
L 612.574655 32.678859 
L 613.844319 34.986271 
L 615.113982 32.101994 
L 616.383646 34.088947 
L 617.65331 34.024845 
L 618.922974 33.512081 
L 620.192638 33.191623 
L 621.462302 32.486579 
L 622.731965 32.614757 
L 624.001629 34.088947 
L 625.271293 33.640285 
L 626.540957 32.230197 
L 627.810621 32.807037 
L 629.080284 31.845612 
L 630.349948 32.550655 
L 631.619612 34.922194 
L 632.889276 34.665812 
L 634.15894 32.486579 
L 636.698267 34.793991 
L 637.967931 32.166095 
L 639.237595 34.088947 
L 640.507259 31.461051 
L 641.776923 32.486579 
L 643.046586 32.358375 
L 644.31625 29.281818 
L 645.585914 31.909713 
L 646.855578 32.486579 
L 648.125242 32.614757 
L 649.394906 33.127521 
L 650.664569 34.729889 
L 651.934233 32.678859 
L 653.203897 33.063419 
L 654.473561 32.935241 
L 655.743225 32.935241 
L 657.012888 33.960768 
L 658.282552 30.820109 
L 659.552216 31.140568 
L 660.82188 32.678859 
L 662.091544 32.678859 
L 663.361207 34.922194 
L 664.630871 31.39695 
L 665.900535 34.21715 
L 667.170199 31.909713 
L 668.439863 31.461051 
L 669.709527 32.678859 
L 670.97919 29.602302 
L 672.248854 31.332848 
L 673.518518 31.909713 
L 674.788182 30.884186 
L 674.788182 30.884186 
" clip-path="url(#p465c5ddda2)" style="fill: none; stroke: #1f77b4; stroke-width: 1.5; stroke-linecap: square"/>
   </g>
   <g id="line2d_13">
    <path d="M 94.551818 261.652845 
L 97.091146 177.444523 
L 98.36081 157.257598 
L 99.630473 153.604733 
L 100.900137 146.875766 
L 102.169801 131.68749 
L 103.439465 126.496587 
L 104.709129 115.153456 
L 105.978793 109.001228 
L 107.248456 109.578018 
L 108.51812 103.041281 
L 109.787784 94.005232 
L 111.057448 100.734224 
L 113.596775 86.507247 
L 114.866439 81.508573 
L 116.136103 86.314992 
L 117.405767 78.047962 
L 118.675431 78.047962 
L 119.945094 75.35637 
L 121.214758 76.317644 
L 122.484422 72.280269 
L 123.754086 71.126716 
L 125.02375 71.70348 
L 126.293414 70.934461 
L 127.563077 73.241543 
L 128.832741 68.050614 
L 130.102405 68.242869 
L 131.372069 66.320322 
L 132.641733 67.281595 
L 133.911396 67.089341 
L 135.18106 63.051941 
L 136.450724 64.01324 
L 137.720388 62.859686 
L 138.990052 64.397749 
L 140.259716 61.129393 
L 141.529379 64.590004 
L 142.799043 60.552629 
L 144.068707 61.129393 
L 145.338371 57.284248 
L 146.608035 59.399075 
L 147.877698 60.360374 
L 149.147362 56.707484 
L 150.417026 57.284248 
L 151.68669 58.630056 
L 152.956354 55.553955 
L 154.226018 54.400401 
L 155.495681 56.899738 
L 156.765345 55.938465 
L 158.035009 54.592681 
L 159.304673 55.938465 
L 160.574337 55.938465 
L 161.844 57.091993 
L 163.113664 53.439128 
L 164.383328 54.784936 
L 165.652992 53.246873 
L 166.922656 55.74621 
L 168.192319 52.477854 
L 169.461983 51.3243 
L 170.731647 51.132045 
L 172.001311 48.824989 
L 174.540639 52.862363 
L 175.810302 52.285599 
L 177.079966 52.670109 
L 178.34963 50.170772 
L 179.619294 52.862363 
L 180.888958 51.3243 
L 183.428285 49.786262 
L 184.697949 51.132045 
L 185.967613 50.747536 
L 187.237277 54.208147 
L 189.776604 49.786262 
L 191.046268 49.786262 
L 192.315932 52.093344 
L 193.585596 52.862363 
L 194.85526 52.670109 
L 196.124923 49.594008 
L 197.394587 48.055944 
L 198.664251 50.363026 
L 199.933915 48.055944 
L 201.203579 48.632709 
L 202.473242 50.170772 
L 203.742906 48.824989 
L 205.01257 47.671435 
L 206.282234 49.594008 
L 207.551898 49.786262 
L 208.821562 50.363026 
L 210.091225 49.978517 
L 211.360889 48.440454 
L 213.900217 47.286925 
L 215.169881 46.325652 
L 216.439544 47.671435 
L 217.709208 46.325652 
L 218.978872 46.325652 
L 220.248536 48.440454 
L 221.5182 46.710161 
L 222.787864 49.978517 
L 224.057527 46.133397 
L 225.327191 50.939791 
L 226.596855 47.86369 
L 227.866519 47.86369 
L 229.136183 47.671435 
L 230.405846 47.286925 
L 231.67551 47.286925 
L 232.945174 48.055944 
L 234.214838 44.787588 
L 235.484502 47.094671 
L 236.754166 44.403079 
L 238.023829 44.979843 
L 239.293493 47.86369 
L 240.563157 43.63406 
L 241.832821 45.364353 
L 243.102485 45.364353 
L 244.372148 49.594008 
L 245.641812 44.595334 
L 246.911476 47.094671 
L 248.18114 46.133397 
L 249.450804 43.249551 
L 250.720467 43.826315 
L 251.990131 45.748862 
L 253.259795 44.018569 
L 254.529459 44.595334 
L 255.799123 45.364353 
L 257.068787 44.210824 
L 258.33845 45.364353 
L 259.608114 44.210824 
L 260.877778 44.403079 
L 262.147442 45.364353 
L 263.417106 44.595334 
L 264.686769 44.403079 
L 265.956433 45.748862 
L 267.226097 42.672761 
L 268.495761 43.249551 
L 269.765425 45.748862 
L 271.035089 43.441805 
L 272.304752 44.979843 
L 273.574416 44.210824 
L 274.84408 43.63406 
L 276.113744 45.556607 
L 277.383408 44.018569 
L 278.653071 42.288252 
L 279.922735 44.210824 
L 281.192399 42.865016 
L 282.462063 45.556607 
L 283.731727 46.133397 
L 285.00139 44.595334 
L 286.271054 44.787588 
L 287.540718 44.595334 
L 288.810382 44.018569 
L 290.080046 44.787588 
L 291.34971 44.210824 
L 292.619373 44.018569 
L 293.889037 45.941142 
L 295.158701 46.325652 
L 296.428365 44.018569 
L 297.698029 44.018569 
L 298.967692 44.595334 
L 300.237356 46.325652 
L 301.50702 46.325652 
L 302.776684 44.595334 
L 304.046348 46.710161 
L 305.316012 46.325652 
L 306.585675 45.364353 
L 307.855339 44.210824 
L 309.125003 46.902416 
L 310.394667 44.595334 
L 311.664331 44.979843 
L 312.933994 45.748862 
L 314.203658 43.249551 
L 315.473322 43.63406 
L 316.742986 44.979843 
L 318.01265 43.249551 
L 319.282314 44.018569 
L 320.551977 42.672761 
L 321.821641 43.63406 
L 323.091305 46.133397 
L 324.360969 44.595334 
L 325.630633 45.172098 
L 326.900296 45.364353 
L 328.16996 43.63406 
L 329.439624 43.441805 
L 330.709288 42.672761 
L 331.978952 44.403079 
L 333.248615 44.403079 
L 334.518279 44.979843 
L 335.787943 44.787588 
L 337.057607 44.018569 
L 339.596935 44.018569 
L 340.866598 44.787588 
L 342.136262 45.748862 
L 343.405926 42.672761 
L 344.67559 42.672761 
L 347.214917 43.826315 
L 348.484581 43.441805 
L 349.754245 44.018569 
L 351.023909 44.018569 
L 352.293573 43.826315 
L 353.563237 43.249551 
L 354.8329 40.942468 
L 356.102564 43.057296 
L 357.372228 42.095997 
L 358.641892 43.441805 
L 359.911556 43.441805 
L 361.181219 44.403079 
L 362.450883 43.63406 
L 363.720547 42.480506 
L 364.990211 43.249551 
L 366.259875 42.672761 
L 367.529538 43.441805 
L 368.799202 41.903742 
L 370.068866 42.095997 
L 371.33853 41.519233 
L 372.608194 42.865016 
L 373.877858 43.441805 
L 375.147521 42.480506 
L 376.417185 42.865016 
L 377.686849 42.095997 
L 378.956513 43.441805 
L 380.226177 42.288252 
L 381.49584 42.865016 
L 382.765504 42.095997 
L 384.035168 41.519233 
L 385.304832 42.288252 
L 386.574496 42.672761 
L 387.84416 42.865016 
L 389.113823 42.672761 
L 390.383487 44.403079 
L 391.653151 43.057296 
L 392.922815 43.249551 
L 394.192479 43.057296 
L 395.462142 44.595334 
L 396.731806 44.210824 
L 398.00147 42.288252 
L 399.271134 45.556607 
L 400.540798 41.134723 
L 401.810462 42.865016 
L 403.080125 44.018569 
L 404.349789 41.903742 
L 405.619453 42.480506 
L 406.889117 42.480506 
L 408.158781 44.018569 
L 409.428444 40.942468 
L 410.698108 43.249551 
L 411.967772 44.595334 
L 413.237436 43.441805 
L 414.5071 44.210824 
L 415.776763 42.865016 
L 417.046427 42.865016 
L 418.316091 40.365704 
L 419.585755 41.711487 
L 420.855419 40.365704 
L 422.125083 41.519233 
L 423.394746 41.711487 
L 424.66441 44.210824 
L 425.934074 42.480506 
L 427.203738 42.672761 
L 428.473402 43.249551 
L 429.743065 42.865016 
L 431.012729 42.288252 
L 432.282393 43.057296 
L 433.552057 41.134723 
L 434.821721 43.63406 
L 436.091385 42.480506 
L 437.361048 40.942468 
L 439.900376 42.480506 
L 441.17004 43.63406 
L 442.439704 43.63406 
L 443.709367 42.865016 
L 444.979031 42.672761 
L 446.248695 44.210824 
L 447.518359 44.210824 
L 448.788023 43.441805 
L 450.057686 42.865016 
L 451.32735 42.095997 
L 453.866678 42.095997 
L 455.136342 42.865016 
L 456.406006 42.095997 
L 457.675669 40.750214 
L 458.945333 41.134723 
L 460.214997 44.595334 
L 461.484661 43.826315 
L 462.754325 43.249551 
L 464.023988 43.057296 
L 465.293652 42.288252 
L 466.563316 42.480506 
L 467.83298 41.519233 
L 469.102644 41.134723 
L 470.372308 43.057296 
L 471.641971 41.903742 
L 472.911635 42.865016 
L 474.181299 41.711487 
L 475.450963 42.288252 
L 476.720627 43.826315 
L 477.99029 41.519233 
L 479.259954 41.326978 
L 480.529618 41.326978 
L 481.799282 41.711487 
L 483.068946 39.981169 
L 484.33861 41.711487 
L 485.608273 41.326978 
L 486.877937 40.750214 
L 488.147601 41.519233 
L 489.417265 41.326978 
L 490.686929 42.672761 
L 491.956592 40.557959 
L 493.226256 43.057296 
L 495.765584 41.903742 
L 497.035248 40.173449 
L 498.304911 41.326978 
L 499.574575 41.326978 
L 500.844239 40.750214 
L 502.113903 43.441805 
L 503.383567 42.095997 
L 504.653231 41.326978 
L 505.922894 42.865016 
L 507.192558 41.519233 
L 508.462222 41.903742 
L 509.731886 43.057296 
L 511.00155 44.018569 
L 512.271213 40.942468 
L 513.540877 42.480506 
L 514.810541 41.711487 
L 516.080205 42.480506 
L 517.349869 39.788915 
L 518.619533 41.134723 
L 519.889196 39.981169 
L 521.15886 41.519233 
L 522.428524 42.480506 
L 523.698188 42.480506 
L 524.967852 43.441805 
L 526.237515 42.095997 
L 527.507179 41.326978 
L 528.776843 42.288252 
L 530.046507 41.134723 
L 531.316171 40.942468 
L 532.585834 41.134723 
L 533.855498 39.981169 
L 535.125162 40.557959 
L 536.394826 41.903742 
L 537.66449 42.095997 
L 538.934154 43.249551 
L 540.203817 42.288252 
L 541.473481 41.519233 
L 542.743145 42.865016 
L 544.012809 40.173449 
L 545.282473 42.672761 
L 546.552136 41.711487 
L 549.091464 42.480506 
L 550.361128 41.326978 
L 551.630792 41.326978 
L 552.900456 42.865016 
L 554.170119 45.364353 
L 555.439783 40.942468 
L 556.709447 42.865016 
L 557.979111 39.788915 
L 559.248775 40.365704 
L 560.518438 41.326978 
L 561.788102 39.981169 
L 563.057766 43.441805 
L 564.32743 42.865016 
L 565.597094 42.095997 
L 566.866758 40.750214 
L 568.136421 42.865016 
L 569.406085 39.59666 
L 570.675749 43.249551 
L 571.945413 42.672761 
L 573.215077 42.480506 
L 574.48474 40.557959 
L 575.754404 42.865016 
L 577.024068 41.903742 
L 578.293732 43.249551 
L 579.563396 40.557959 
L 580.833059 40.557959 
L 582.102723 40.750214 
L 583.372387 41.134723 
L 584.642051 43.441805 
L 585.911715 40.942468 
L 587.181379 42.480506 
L 588.451042 40.365704 
L 589.720706 41.326978 
L 590.99037 42.672761 
L 592.260034 42.480506 
L 593.529698 41.326978 
L 594.799361 43.826315 
L 596.069025 44.018569 
L 597.338689 40.750214 
L 598.608353 42.288252 
L 599.878017 42.095997 
L 601.147681 39.981169 
L 602.417344 41.711487 
L 603.687008 40.942468 
L 604.956672 40.365704 
L 606.226336 40.173449 
L 607.496 41.903742 
L 608.765663 43.249551 
L 610.035327 41.519233 
L 611.304991 42.672761 
L 612.574655 42.288252 
L 613.844319 41.134723 
L 615.113982 44.210824 
L 616.383646 41.326978 
L 617.65331 40.173449 
L 618.922974 42.095997 
L 620.192638 42.288252 
L 621.462302 41.903742 
L 622.731965 40.173449 
L 624.001629 42.672761 
L 625.271293 40.557959 
L 626.540957 41.326978 
L 627.810621 40.365704 
L 629.080284 41.903742 
L 630.349948 39.59666 
L 632.889276 42.288252 
L 634.15894 41.711487 
L 635.428604 39.404405 
L 636.698267 40.173449 
L 637.967931 41.519233 
L 639.237595 40.750214 
L 640.507259 41.326978 
L 641.776923 41.134723 
L 643.046586 39.981169 
L 644.31625 39.59666 
L 645.585914 42.288252 
L 646.855578 40.557959 
L 648.125242 42.288252 
L 649.394906 41.903742 
L 650.664569 40.365704 
L 651.934233 41.326978 
L 653.203897 42.672761 
L 654.473561 40.173449 
L 655.743225 41.326978 
L 657.012888 41.326978 
L 658.282552 41.711487 
L 659.552216 41.134723 
L 660.82188 41.903742 
L 662.091544 40.365704 
L 663.361207 42.865016 
L 664.630871 41.134723 
L 665.900535 40.557959 
L 667.170199 40.173449 
L 668.439863 40.365704 
L 669.709527 42.095997 
L 670.97919 41.519233 
L 672.248854 43.441805 
L 673.518518 41.903742 
L 674.788182 40.173449 
L 674.788182 40.173449 
" clip-path="url(#p465c5ddda2)" style="fill: none; stroke: #ff7f0e; stroke-width: 1.5; stroke-linecap: square"/>
   </g>
   <g id="patch_3">
    <path d="M 65.54 304 
L 65.54 16.2 
" style="fill: none; stroke: #000000; stroke-width: 0.8; stroke-linejoin: miter; stroke-linecap: square"/>
   </g>
   <g id="patch_4">
    <path d="M 703.8 304 
L 703.8 16.2 
" style="fill: none; stroke: #000000; stroke-width: 0.8; stroke-linejoin: miter; stroke-linecap: square"/>
   </g>
   <g id="patch_5">
    <path d="M 65.54 304 
L 703.8 304 
" style="fill: none; stroke: #000000; stroke-width: 0.8; stroke-linejoin: miter; stroke-linecap: square"/>
   </g>
   <g id="patch_6">
    <path d="M 65.54 16.2 
L 703.8 16.2 
" style="fill: none; stroke: #000000; stroke-width: 0.8; stroke-linejoin: miter; stroke-linecap: square"/>
   </g>
   <g id="legend_1">
    <g id="patch_7">
     <path d="M 497.976563 296.5 
L 693.3 296.5 
Q 696.3 296.5 696.3 293.5 
L 696.3 250.965625 
Q 696.3 247.965625 693.3 247.965625 
L 497.976563 247.965625 
Q 494.976563 247.965625 494.976563 250.965625 
L 494.976563 293.5 
Q 494.976563 296.5 497.976563 296.5 
z
" style="fill: #ffffff; opacity: 0.8; stroke: #cccccc; stroke-linejoin: miter"/>
    </g>
    <g id="line2d_14">
     <path d="M 500.976563 260.113281 
L 515.976563 260.113281 
L 530.976563 260.113281 
" style="fill: none; stroke: #1f77b4; stroke-width: 1.5; stroke-linecap: square"/>
    </g>
    <g id="text_14">
     <text style="font: 15px 'DejaVu Sans', 'Bitstream Vera Sans', 'Computer Modern Sans Serif', 'Lucida Grande', 'Verdana', 'Geneva', 'Lucid', 'Arial', 'Helvetica', 'Avant Garde', sans-serif; text-anchor: start" x="542.976563" y="265.363281" transform="rotate(-0 542.976563 265.363281)">Training Accuracy</text>
    </g>
    <g id="line2d_15">
     <path d="M 500.976563 282.130469 
L 515.976563 282.130469 
L 530.976563 282.130469 
" style="fill: none; stroke: #ff7f0e; stroke-width: 1.5; stroke-linecap: square"/>
    </g>
    <g id="text_15">
     <text style="font: 15px 'DejaVu Sans', 'Bitstream Vera Sans', 'Computer Modern Sans Serif', 'Lucida Grande', 'Verdana', 'Geneva', 'Lucid', 'Arial', 'Helvetica', 'Avant Garde', sans-serif; text-anchor: start" x="542.976563" y="287.380469" transform="rotate(-0 542.976563 287.380469)">Validation Accuracy</text>
    </g>
   </g>
  </g>
 </g>
 <defs>
  <clipPath id="p465c5ddda2">
   <rect x="65.54" y="16.2" width="638.26" height="287.8"/>
  </clipPath>
 </defs>
</svg>
