<?xml version="1.0" encoding="utf-8" standalone="no"?>
<!DOCTYPE svg PUBLIC "-//W3C//DTD SVG 1.1//EN"
  "http://www.w3.org/Graphics/SVG/1.1/DTD/svg11.dtd">
<svg xmlns:xlink="http://www.w3.org/1999/xlink" width="720pt" height="360pt" viewBox="0 0 720 360" xmlns="http://www.w3.org/2000/svg" version="1.1">
 <metadata>
  <rdf:RDF xmlns:dc="http://purl.org/dc/elements/1.1/" xmlns:cc="http://creativecommons.org/ns#" xmlns:rdf="http://www.w3.org/1999/02/22-rdf-syntax-ns#">
   <cc:Work>
    <dc:type rdf:resource="http://purl.org/dc/dcmitype/StillImage"/>
    <dc:date>2023-07-18T10:49:15.308716</dc:date>
    <dc:format>image/svg+xml</dc:format>
    <dc:creator>
     <cc:Agent>
      <dc:title>Matplotlib v3.7.2, https://matplotlib.org/</dc:title>
     </cc:Agent>
    </dc:creator>
   </cc:Work>
  </rdf:RDF>
 </metadata>
 <defs>
  <style type="text/css">*{stroke-linejoin: round; stroke-linecap: butt}</style>
 </defs>
 <g id="figure_1">
  <g id="patch_1">
   <path d="M 0 360 
L 720 360 
L 720 0 
L 0 0 
z
" style="fill: #ffffff"/>
  </g>
  <g id="axes_1">
   <g id="patch_2">
    <path d="M 65.54 304 
L 703.8 304 
L 703.8 21.327134 
L 65.54 21.327134 
z
" style="fill: #ffffff"/>
   </g>
   <g id="matplotlib.axis_1">
    <g id="xtick_1">
     <g id="line2d_1">
      <defs>
       <path id="m8233b32cf7" d="M 0 0 
L 0 3.5 
" style="stroke: #000000; stroke-width: 0.8"/>
      </defs>
      <g>
       <use xlink:href="#m8233b32cf7" x="93.282154" y="304" style="stroke: #000000; stroke-width: 0.8"/>
      </g>
     </g>
     <g id="text_1">
      <text style="font: 15px 'DejaVu Sans', 'Bitstream Vera Sans', 'Computer Modern Sans Serif', 'Lucida Grande', 'Verdana', 'Geneva', 'Lucid', 'Arial', 'Helvetica', 'Avant Garde', sans-serif; text-anchor: middle" x="93.282154" y="322.397656" transform="rotate(-0 93.282154 322.397656)">0</text>
     </g>
    </g>
    <g id="xtick_2">
     <g id="line2d_2">
      <g>
       <use xlink:href="#m8233b32cf7" x="220.248536" y="304" style="stroke: #000000; stroke-width: 0.8"/>
      </g>
     </g>
     <g id="text_2">
      <text style="font: 15px 'DejaVu Sans', 'Bitstream Vera Sans', 'Computer Modern Sans Serif', 'Lucida Grande', 'Verdana', 'Geneva', 'Lucid', 'Arial', 'Helvetica', 'Avant Garde', sans-serif; text-anchor: middle" x="220.248536" y="322.397656" transform="rotate(-0 220.248536 322.397656)">100</text>
     </g>
    </g>
    <g id="xtick_3">
     <g id="line2d_3">
      <g>
       <use xlink:href="#m8233b32cf7" x="347.214917" y="304" style="stroke: #000000; stroke-width: 0.8"/>
      </g>
     </g>
     <g id="text_3">
      <text style="font: 15px 'DejaVu Sans', 'Bitstream Vera Sans', 'Computer Modern Sans Serif', 'Lucida Grande', 'Verdana', 'Geneva', 'Lucid', 'Arial', 'Helvetica', 'Avant Garde', sans-serif; text-anchor: middle" x="347.214917" y="322.397656" transform="rotate(-0 347.214917 322.397656)">200</text>
     </g>
    </g>
    <g id="xtick_4">
     <g id="line2d_4">
      <g>
       <use xlink:href="#m8233b32cf7" x="474.181299" y="304" style="stroke: #000000; stroke-width: 0.8"/>
      </g>
     </g>
     <g id="text_4">
      <text style="font: 15px 'DejaVu Sans', 'Bitstream Vera Sans', 'Computer Modern Sans Serif', 'Lucida Grande', 'Verdana', 'Geneva', 'Lucid', 'Arial', 'Helvetica', 'Avant Garde', sans-serif; text-anchor: middle" x="474.181299" y="322.397656" transform="rotate(-0 474.181299 322.397656)">300</text>
     </g>
    </g>
    <g id="xtick_5">
     <g id="line2d_5">
      <g>
       <use xlink:href="#m8233b32cf7" x="601.147681" y="304" style="stroke: #000000; stroke-width: 0.8"/>
      </g>
     </g>
     <g id="text_5">
      <text style="font: 15px 'DejaVu Sans', 'Bitstream Vera Sans', 'Computer Modern Sans Serif', 'Lucida Grande', 'Verdana', 'Geneva', 'Lucid', 'Arial', 'Helvetica', 'Avant Garde', sans-serif; text-anchor: middle" x="601.147681" y="322.397656" transform="rotate(-0 601.147681 322.397656)">400</text>
     </g>
    </g>
    <g id="text_6">
     <text style="font: 15px 'DejaVu Sans', 'Bitstream Vera Sans', 'Computer Modern Sans Serif', 'Lucida Grande', 'Verdana', 'Geneva', 'Lucid', 'Arial', 'Helvetica', 'Avant Garde', sans-serif; text-anchor: middle" x="384.67" y="340.914844" transform="rotate(-0 384.67 340.914844)">Epochs</text>
    </g>
   </g>
   <g id="matplotlib.axis_2">
    <g id="ytick_1">
     <g id="line2d_6">
      <defs>
       <path id="md051c49484" d="M 0 0 
L -3.5 0 
" style="stroke: #000000; stroke-width: 0.8"/>
      </defs>
      <g>
       <use xlink:href="#md051c49484" x="65.54" y="275.380755" style="stroke: #000000; stroke-width: 0.8"/>
      </g>
     </g>
     <g id="text_7">
      <text style="font: 15px 'DejaVu Sans', 'Bitstream Vera Sans', 'Computer Modern Sans Serif', 'Lucida Grande', 'Verdana', 'Geneva', 'Lucid', 'Arial', 'Helvetica', 'Avant Garde', sans-serif; text-anchor: end" x="58.54" y="281.079584" transform="rotate(-0 58.54 281.079584)">0.2</text>
     </g>
    </g>
    <g id="ytick_2">
     <g id="line2d_7">
      <g>
       <use xlink:href="#md051c49484" x="65.54" y="233.146045" style="stroke: #000000; stroke-width: 0.8"/>
      </g>
     </g>
     <g id="text_8">
      <text style="font: 15px 'DejaVu Sans', 'Bitstream Vera Sans', 'Computer Modern Sans Serif', 'Lucida Grande', 'Verdana', 'Geneva', 'Lucid', 'Arial', 'Helvetica', 'Avant Garde', sans-serif; text-anchor: end" x="58.54" y="238.844873" transform="rotate(-0 58.54 238.844873)">0.4</text>
     </g>
    </g>
    <g id="ytick_3">
     <g id="line2d_8">
      <g>
       <use xlink:href="#md051c49484" x="65.54" y="190.911335" style="stroke: #000000; stroke-width: 0.8"/>
      </g>
     </g>
     <g id="text_9">
      <text style="font: 15px 'DejaVu Sans', 'Bitstream Vera Sans', 'Computer Modern Sans Serif', 'Lucida Grande', 'Verdana', 'Geneva', 'Lucid', 'Arial', 'Helvetica', 'Avant Garde', sans-serif; text-anchor: end" x="58.54" y="196.610163" transform="rotate(-0 58.54 196.610163)">0.6</text>
     </g>
    </g>
    <g id="ytick_4">
     <g id="line2d_9">
      <g>
       <use xlink:href="#md051c49484" x="65.54" y="148.676625" style="stroke: #000000; stroke-width: 0.8"/>
      </g>
     </g>
     <g id="text_10">
      <text style="font: 15px 'DejaVu Sans', 'Bitstream Vera Sans', 'Computer Modern Sans Serif', 'Lucida Grande', 'Verdana', 'Geneva', 'Lucid', 'Arial', 'Helvetica', 'Avant Garde', sans-serif; text-anchor: end" x="58.54" y="154.375453" transform="rotate(-0 58.54 154.375453)">0.8</text>
     </g>
    </g>
    <g id="ytick_5">
     <g id="line2d_10">
      <g>
       <use xlink:href="#md051c49484" x="65.54" y="106.441915" style="stroke: #000000; stroke-width: 0.8"/>
      </g>
     </g>
     <g id="text_11">
      <text style="font: 15px 'DejaVu Sans', 'Bitstream Vera Sans', 'Computer Modern Sans Serif', 'Lucida Grande', 'Verdana', 'Geneva', 'Lucid', 'Arial', 'Helvetica', 'Avant Garde', sans-serif; text-anchor: end" x="58.54" y="112.140743" transform="rotate(-0 58.54 112.140743)">1.0</text>
     </g>
    </g>
    <g id="ytick_6">
     <g id="line2d_11">
      <g>
       <use xlink:href="#md051c49484" x="65.54" y="64.207205" style="stroke: #000000; stroke-width: 0.8"/>
      </g>
     </g>
     <g id="text_12">
      <text style="font: 15px 'DejaVu Sans', 'Bitstream Vera Sans', 'Computer Modern Sans Serif', 'Lucida Grande', 'Verdana', 'Geneva', 'Lucid', 'Arial', 'Helvetica', 'Avant Garde', sans-serif; text-anchor: end" x="58.54" y="69.906033" transform="rotate(-0 58.54 69.906033)">1.2</text>
     </g>
    </g>
    <g id="ytick_7">
     <g id="line2d_12">
      <g>
       <use xlink:href="#md051c49484" x="65.54" y="21.972495" style="stroke: #000000; stroke-width: 0.8"/>
      </g>
     </g>
     <g id="text_13">
      <text style="font: 15px 'DejaVu Sans', 'Bitstream Vera Sans', 'Computer Modern Sans Serif', 'Lucida Grande', 'Verdana', 'Geneva', 'Lucid', 'Arial', 'Helvetica', 'Avant Garde', sans-serif; text-anchor: end" x="58.54" y="27.671323" transform="rotate(-0 58.54 27.671323)">1.4</text>
     </g>
    </g>
    <g id="text_14">
     <text style="font: 15px 'DejaVu Sans', 'Bitstream Vera Sans', 'Computer Modern Sans Serif', 'Lucida Grande', 'Verdana', 'Geneva', 'Lucid', 'Arial', 'Helvetica', 'Avant Garde', sans-serif; text-anchor: middle" x="27.565781" y="162.663567" transform="rotate(-90 27.565781 162.663567)">Loss</text>
    </g>
   </g>
   <g id="line2d_13">
    <path d="M 94.551818 34.175901 
L 95.821482 55.55809 
L 97.091146 81.644868 
L 98.36081 100.564375 
L 99.630473 113.965586 
L 102.169801 137.194025 
L 103.439465 141.313159 
L 105.978793 153.882059 
L 107.248456 159.107646 
L 109.787784 168.238503 
L 111.057448 172.46912 
L 112.327112 176.12722 
L 113.596775 180.729943 
L 114.866439 183.894233 
L 116.136103 188.151106 
L 117.405767 189.741879 
L 118.675431 192.846306 
L 119.945094 194.116465 
L 121.214758 199.288092 
L 122.484422 199.751895 
L 123.754086 201.90076 
L 125.02375 205.508261 
L 126.293414 204.363581 
L 127.563077 207.000113 
L 128.832741 208.413449 
L 130.102405 211.444531 
L 131.372069 212.126283 
L 132.641733 213.242001 
L 135.18106 217.225177 
L 136.450724 217.787762 
L 138.990052 221.426264 
L 140.259716 219.859482 
L 141.529379 223.257555 
L 142.799043 224.764424 
L 144.068707 224.275566 
L 145.338371 225.160106 
L 146.608035 229.432876 
L 147.877698 229.247622 
L 149.147362 227.751439 
L 150.417026 230.531582 
L 151.68669 231.455469 
L 152.956354 231.601175 
L 154.226018 232.467124 
L 155.495681 234.164509 
L 156.765345 234.458577 
L 158.035009 235.097968 
L 159.304673 233.487892 
L 160.574337 233.6781 
L 161.844 238.719276 
L 163.113664 236.561349 
L 164.383328 240.548528 
L 165.652992 238.114286 
L 166.922656 239.405773 
L 168.192319 239.855863 
L 169.461983 242.118079 
L 170.731647 239.98554 
L 172.001311 243.180409 
L 174.540639 240.768037 
L 175.810302 244.762372 
L 177.079966 243.667265 
L 178.34963 247.043079 
L 179.619294 244.790013 
L 180.888958 243.307153 
L 182.158621 245.650562 
L 183.428285 246.36971 
L 184.697949 245.923849 
L 185.967613 246.387552 
L 187.237277 247.231052 
L 188.506941 248.773139 
L 189.776604 248.510255 
L 191.046268 248.700279 
L 192.315932 250.225072 
L 193.585596 250.83078 
L 194.85526 248.855992 
L 196.124923 249.285565 
L 197.394587 250.697019 
L 198.664251 249.238276 
L 199.933915 250.141803 
L 201.203579 252.58901 
L 202.473242 252.921468 
L 203.742906 251.799986 
L 205.01257 252.281247 
L 206.282234 252.887767 
L 207.551898 254.021301 
L 208.821562 254.83013 
L 210.091225 256.270364 
L 211.360889 253.550493 
L 212.630553 251.97787 
L 213.900217 255.333626 
L 215.169881 255.055883 
L 216.439544 256.277268 
L 217.709208 257.187598 
L 218.978872 255.653208 
L 220.248536 256.908685 
L 221.5182 256.861748 
L 222.787864 256.000626 
L 224.057527 256.733059 
L 225.327191 256.995742 
L 226.596855 258.205069 
L 227.866519 257.988926 
L 229.136183 258.686984 
L 230.405846 257.672371 
L 231.67551 260.992248 
L 232.945174 258.63298 
L 235.484502 259.987472 
L 236.754166 257.08752 
L 238.023829 261.738439 
L 239.293493 260.28553 
L 240.563157 261.765576 
L 241.832821 260.512699 
L 243.102485 260.98389 
L 244.372148 262.40542 
L 245.641812 263.447233 
L 246.911476 261.01038 
L 248.18114 259.43668 
L 250.720467 263.815363 
L 253.259795 260.966879 
L 254.529459 264.868061 
L 255.799123 262.084642 
L 257.068787 264.716813 
L 258.33845 265.686614 
L 259.608114 263.024124 
L 260.877778 264.906237 
L 262.147442 265.022518 
L 263.417106 264.21491 
L 265.956433 265.435794 
L 267.226097 262.828655 
L 268.495761 266.222817 
L 269.765425 266.715834 
L 271.035089 266.757698 
L 272.304752 264.938274 
L 274.84408 266.705828 
L 276.113744 265.290676 
L 277.383408 267.178086 
L 278.653071 267.22264 
L 279.922735 267.8422 
L 281.192399 266.936376 
L 282.462063 268.108577 
L 283.731727 266.994575 
L 285.00139 268.544651 
L 286.271054 268.256703 
L 287.540718 264.570088 
L 288.810382 269.800081 
L 290.080046 267.314635 
L 291.34971 267.529189 
L 292.619373 269.534261 
L 293.889037 266.39506 
L 295.158701 268.017813 
L 298.967692 268.452625 
L 300.237356 271.199168 
L 301.50702 269.174463 
L 302.776684 269.556675 
L 304.046348 273.415297 
L 305.316012 270.980926 
L 306.585675 271.03965 
L 307.855339 270.198513 
L 309.125003 270.146882 
L 310.394667 267.485606 
L 311.664331 269.56484 
L 312.933994 273.207056 
L 314.203658 273.600844 
L 315.473322 272.48147 
L 316.742986 268.059287 
L 319.282314 273.2057 
L 320.551977 270.918262 
L 323.091305 270.314993 
L 324.360969 273.069204 
L 325.630633 270.753893 
L 326.900296 270.765897 
L 328.16996 272.89113 
L 329.439624 273.159106 
L 330.709288 273.907694 
L 331.978952 273.000895 
L 333.248615 271.327098 
L 334.518279 270.35169 
L 335.787943 270.484413 
L 337.057607 272.974796 
L 338.327271 273.93385 
L 339.596935 273.571375 
L 340.866598 272.917214 
L 342.136262 273.339225 
L 343.405926 273.916238 
L 344.67559 275.16492 
L 345.945254 273.853445 
L 347.214917 275.604953 
L 348.484581 274.269568 
L 349.754245 273.907707 
L 351.023909 275.302552 
L 352.293573 275.46015 
L 353.563237 274.621826 
L 354.8329 276.009686 
L 356.102564 272.010628 
L 357.372228 274.486573 
L 358.641892 274.151985 
L 359.911556 272.169214 
L 361.181219 273.625581 
L 362.450883 276.970814 
L 363.720547 272.991854 
L 364.990211 274.72114 
L 367.529538 276.348714 
L 368.799202 276.630819 
L 370.068866 276.511485 
L 371.33853 275.227544 
L 372.608194 273.032611 
L 373.877858 276.324746 
L 375.147521 275.52047 
L 376.417185 277.55935 
L 377.686849 278.20797 
L 378.956513 275.726445 
L 380.226177 277.027033 
L 381.49584 274.830476 
L 382.765504 277.011064 
L 384.035168 279.565375 
L 385.304832 278.378894 
L 386.574496 273.383845 
L 387.84416 278.11579 
L 389.113823 276.881003 
L 390.383487 278.933512 
L 391.653151 278.840343 
L 392.922815 276.65525 
L 394.192479 278.614647 
L 395.462142 278.70852 
L 396.731806 274.689909 
L 398.00147 275.500463 
L 399.271134 278.307463 
L 400.540798 279.644418 
L 401.810462 279.470756 
L 403.080125 279.631875 
L 404.349789 276.207668 
L 405.619453 276.706063 
L 406.889117 278.453887 
L 408.158781 278.493045 
L 409.428444 280.251976 
L 410.698108 277.079791 
L 411.967772 279.239298 
L 413.237436 279.485933 
L 414.5071 280.245551 
L 415.776763 277.780455 
L 417.046427 277.950347 
L 418.316091 278.626838 
L 419.585755 279.524166 
L 420.855419 278.727552 
L 422.125083 279.01504 
L 423.394746 278.972229 
L 424.66441 280.431287 
L 425.934074 277.373759 
L 427.203738 277.866399 
L 428.473402 278.005994 
L 429.743065 277.860436 
L 431.012729 279.460473 
L 433.552057 279.006151 
L 434.821721 281.218813 
L 436.091385 278.720022 
L 437.361048 281.539206 
L 438.630712 279.711953 
L 439.900376 276.867994 
L 441.17004 279.738436 
L 442.439704 280.848103 
L 443.709367 281.629253 
L 444.979031 279.290984 
L 446.248695 280.096144 
L 447.518359 280.714524 
L 448.788023 280.108492 
L 450.057686 281.469145 
L 451.32735 279.732108 
L 452.597014 281.801836 
L 453.866678 279.878538 
L 455.136342 281.50031 
L 456.406006 278.726589 
L 457.675669 284.217729 
L 458.945333 280.429553 
L 460.214997 280.662511 
L 461.484661 279.371272 
L 462.754325 281.688188 
L 464.023988 279.18363 
L 466.563316 281.447995 
L 467.83298 282.328806 
L 469.102644 282.118334 
L 470.372308 281.234861 
L 471.641971 281.516994 
L 472.911635 281.934411 
L 474.181299 283.678059 
L 475.450963 281.052747 
L 476.720627 282.946717 
L 477.99029 282.060765 
L 479.259954 282.211506 
L 480.529618 283.074733 
L 481.799282 283.453542 
L 483.068946 281.110565 
L 484.33861 281.781675 
L 485.608273 282.312135 
L 486.877937 281.638788 
L 488.147601 284.326342 
L 489.417265 280.885505 
L 490.686929 281.029763 
L 491.956592 281.400562 
L 493.226256 281.139389 
L 494.49592 284.290891 
L 495.765584 282.108224 
L 497.035248 281.213894 
L 498.304911 283.71705 
L 499.574575 282.958524 
L 500.844239 282.394671 
L 502.113903 281.996722 
L 503.383567 283.274081 
L 504.653231 283.473534 
L 505.922894 283.372508 
L 507.192558 285.984376 
L 508.462222 281.97259 
L 509.731886 283.726855 
L 511.00155 284.43863 
L 512.271213 281.178544 
L 513.540877 284.379232 
L 514.810541 282.942784 
L 517.349869 282.141658 
L 518.619533 284.197225 
L 519.889196 283.288251 
L 521.15886 283.793446 
L 522.428524 281.587298 
L 523.698188 282.312582 
L 524.967852 284.009441 
L 526.237515 282.222164 
L 527.507179 282.28332 
L 528.776843 283.001996 
L 530.046507 283.521556 
L 531.316171 282.034002 
L 533.855498 287.935844 
L 535.125162 285.857538 
L 536.394826 284.350509 
L 537.66449 281.823954 
L 538.934154 284.894651 
L 540.203817 282.159669 
L 541.473481 284.865204 
L 542.743145 286.011278 
L 544.012809 285.722993 
L 545.282473 282.859213 
L 546.552136 283.320143 
L 547.8218 286.670468 
L 549.091464 284.980456 
L 550.361128 283.94301 
L 551.630792 283.471413 
L 552.900456 285.650423 
L 554.170119 284.883741 
L 555.439783 283.449968 
L 556.709447 282.788566 
L 557.979111 283.901728 
L 559.248775 286.706296 
L 560.518438 287.4344 
L 563.057766 285.221593 
L 564.32743 287.266625 
L 565.597094 286.381185 
L 566.866758 283.274563 
L 568.136421 285.416637 
L 569.406085 283.281124 
L 570.675749 286.048365 
L 571.945413 282.913082 
L 573.215077 285.678955 
L 574.48474 286.752106 
L 575.754404 283.500945 
L 577.024068 284.186794 
L 578.293732 286.780547 
L 579.563396 285.331801 
L 580.833059 286.346298 
L 582.102723 282.801817 
L 583.372387 286.370188 
L 584.642051 282.5781 
L 585.911715 285.113279 
L 587.181379 284.249357 
L 588.451042 285.246496 
L 589.720706 283.00029 
L 590.99037 286.883086 
L 592.260034 286.60062 
L 593.529698 286.666575 
L 594.799361 285.892895 
L 596.069025 283.483087 
L 597.338689 288.877182 
L 598.608353 286.991913 
L 599.878017 287.218848 
L 601.147681 286.252931 
L 602.417344 288.001554 
L 603.687008 287.820497 
L 604.956672 286.635806 
L 606.226336 286.312483 
L 607.496 288.586116 
L 608.765663 288.696519 
L 610.035327 287.122634 
L 611.304991 286.998137 
L 612.574655 287.030004 
L 613.844319 284.069537 
L 615.113982 286.696674 
L 616.383646 286.304663 
L 617.65331 285.503027 
L 618.922974 286.012467 
L 620.192638 288.260309 
L 622.731965 286.065068 
L 624.001629 286.549287 
L 625.271293 285.735577 
L 626.540957 286.917826 
L 627.810621 287.689565 
L 629.080284 288.757672 
L 630.349948 288.775162 
L 631.619612 284.548328 
L 632.889276 286.920822 
L 634.15894 286.442578 
L 635.428604 285.441959 
L 636.698267 285.17836 
L 637.967931 287.628304 
L 639.237595 287.49577 
L 640.507259 288.698989 
L 641.776923 287.550917 
L 643.046586 288.284671 
L 644.31625 291.151233 
L 646.855578 286.307738 
L 648.125242 285.857491 
L 649.394906 286.143189 
L 650.664569 285.62467 
L 651.934233 288.265391 
L 653.203897 287.238311 
L 654.473561 286.823449 
L 655.743225 289.083718 
L 657.012888 285.641197 
L 658.282552 289.410333 
L 659.552216 289.991329 
L 660.82188 287.948229 
L 662.091544 287.471279 
L 663.361207 284.455562 
L 664.630871 287.497787 
L 665.900535 285.409145 
L 668.439863 288.428106 
L 669.709527 286.785839 
L 670.97919 290.362282 
L 672.248854 288.427599 
L 673.518518 287.38898 
L 674.788182 288.863799 
L 674.788182 288.863799 
" clip-path="url(#p982cb42b1d)" style="fill: none; stroke: #1f77b4; stroke-width: 1.5; stroke-linecap: square"/>
   </g>
   <g id="line2d_14">
    <path d="M 94.551818 50.074118 
L 97.091146 108.018742 
L 98.36081 128.23333 
L 99.630473 134.716125 
L 100.900137 147.862752 
L 102.169801 159.431004 
L 103.439465 165.891155 
L 105.978793 181.388617 
L 107.248456 183.988925 
L 109.787784 197.603194 
L 111.057448 196.98651 
L 113.596775 209.859057 
L 114.866439 210.759714 
L 117.405767 218.678186 
L 118.675431 219.900263 
L 122.484422 226.709041 
L 123.754086 227.583737 
L 125.02375 229.87649 
L 127.563077 228.697756 
L 128.832741 233.797499 
L 130.102405 233.620949 
L 131.372069 234.680768 
L 132.641733 233.561822 
L 133.911396 238.022968 
L 135.18106 240.236718 
L 136.450724 240.301969 
L 137.720388 240.23753 
L 138.990052 240.292233 
L 140.259716 242.206213 
L 141.529379 242.328249 
L 142.799043 243.552838 
L 144.068707 243.514504 
L 145.338371 245.406854 
L 146.608035 242.638863 
L 147.877698 244.435899 
L 149.147362 247.499524 
L 150.417026 248.91437 
L 151.68669 244.95577 
L 152.956354 248.296768 
L 154.226018 248.630661 
L 155.495681 249.228087 
L 156.765345 249.467006 
L 158.035009 250.405713 
L 159.304673 250.309335 
L 160.574337 248.760319 
L 161.844 248.948896 
L 163.113664 250.721374 
L 164.383328 251.117818 
L 165.652992 251.342967 
L 166.922656 248.853129 
L 168.192319 252.115024 
L 169.461983 251.312035 
L 170.731647 253.818601 
L 172.001311 253.708686 
L 173.270975 254.705205 
L 174.540639 253.228784 
L 175.810302 254.696168 
L 177.079966 253.33931 
L 178.34963 253.720045 
L 179.619294 251.169009 
L 180.888958 254.126477 
L 182.158621 254.940297 
L 183.428285 254.02901 
L 184.697949 253.779028 
L 185.967613 254.920744 
L 187.237277 251.707705 
L 188.506941 255.580796 
L 189.776604 255.458161 
L 191.046268 254.895998 
L 192.315932 252.437331 
L 193.585596 254.728346 
L 194.85526 252.233089 
L 196.124923 255.400173 
L 197.394587 255.160896 
L 199.933915 256.738679 
L 201.203579 254.356396 
L 202.473242 255.950971 
L 203.742906 255.968076 
L 205.01257 255.869867 
L 206.282234 255.061541 
L 207.551898 255.130738 
L 208.821562 255.886765 
L 210.091225 254.235807 
L 211.360889 254.918642 
L 212.630553 257.43395 
L 213.900217 257.489219 
L 215.169881 257.903045 
L 216.439544 258.570159 
L 217.709208 257.549592 
L 218.978872 257.213414 
L 220.248536 257.522612 
L 221.5182 257.624585 
L 222.787864 256.109818 
L 224.057527 258.232244 
L 225.327191 255.041257 
L 227.866519 255.233409 
L 229.136183 257.702127 
L 230.405846 258.070263 
L 231.67551 257.539548 
L 232.945174 257.356137 
L 234.214838 258.958516 
L 235.484502 258.739893 
L 236.754166 259.178013 
L 238.023829 259.320491 
L 239.293493 255.178895 
L 240.563157 258.280137 
L 241.832821 257.735149 
L 243.102485 258.616177 
L 244.372148 254.442994 
L 245.641812 258.100635 
L 246.911476 257.989392 
L 248.18114 257.335658 
L 249.450804 258.866531 
L 250.720467 257.236549 
L 251.990131 256.466254 
L 253.259795 259.681628 
L 254.529459 259.19138 
L 255.799123 257.225517 
L 257.068787 259.261483 
L 258.33845 257.636964 
L 259.608114 260.161863 
L 260.877778 258.175087 
L 262.147442 258.957465 
L 263.417106 258.786541 
L 265.956433 258.807989 
L 267.226097 259.657084 
L 268.495761 259.22624 
L 269.765425 260.082604 
L 271.035089 259.296978 
L 272.304752 259.862773 
L 273.574416 261.442615 
L 274.84408 260.2332 
L 276.113744 259.840406 
L 279.922735 261.9292 
L 281.192399 261.437756 
L 282.462063 257.529365 
L 283.731727 257.453057 
L 285.00139 258.853566 
L 286.271054 259.010078 
L 288.810382 260.303699 
L 290.080046 257.906689 
L 291.34971 258.664831 
L 292.619373 258.436486 
L 293.889037 257.966238 
L 295.158701 258.267928 
L 296.428365 259.623483 
L 297.698029 258.65879 
L 298.967692 258.44872 
L 300.237356 257.077614 
L 301.50702 256.292108 
L 302.776684 257.278596 
L 304.046348 256.28482 
L 305.316012 257.312769 
L 306.585675 255.608562 
L 307.855339 258.392947 
L 309.125003 257.463667 
L 310.394667 257.926627 
L 311.664331 258.649211 
L 312.933994 256.844089 
L 314.203658 257.671553 
L 315.473322 257.225504 
L 316.742986 258.354583 
L 318.01265 257.228166 
L 319.282314 257.108036 
L 320.551977 258.691365 
L 321.821641 256.500289 
L 323.091305 255.474361 
L 324.360969 256.579121 
L 325.630633 256.163117 
L 326.900296 258.236687 
L 328.16996 257.528931 
L 329.439624 259.392551 
L 330.709288 259.101056 
L 331.978952 259.562084 
L 333.248615 257.278973 
L 334.518279 257.550372 
L 335.787943 258.51292 
L 337.057607 257.780984 
L 338.327271 255.191457 
L 339.596935 256.293889 
L 340.866598 258.720661 
L 342.136262 256.190022 
L 343.405926 258.027077 
L 344.67559 257.538648 
L 345.945254 257.211595 
L 347.214917 255.542821 
L 348.484581 254.615907 
L 349.754245 257.304915 
L 351.023909 257.067418 
L 352.293573 258.2231 
L 353.563237 257.278124 
L 354.8329 258.156716 
L 356.102564 258.213061 
L 357.372228 256.464738 
L 358.641892 259.491232 
L 359.911556 257.338201 
L 361.181219 255.538315 
L 362.450883 258.09886 
L 363.720547 256.739447 
L 364.990211 257.12978 
L 366.259875 259.736318 
L 367.529538 258.013187 
L 368.799202 259.529087 
L 370.068866 259.555778 
L 371.33853 258.475266 
L 372.608194 259.823294 
L 373.877858 258.070256 
L 375.147521 259.232174 
L 377.686849 258.458519 
L 378.956513 258.35046 
L 380.226177 261.051728 
L 382.765504 258.642351 
L 384.035168 258.230073 
L 385.304832 258.019531 
L 386.574496 258.288929 
L 387.84416 259.382487 
L 389.113823 260.70475 
L 390.383487 258.581456 
L 391.653151 259.27716 
L 392.922815 260.470904 
L 394.192479 259.942568 
L 395.462142 259.258374 
L 396.731806 259.400852 
L 398.00147 260.123801 
L 399.271134 256.918251 
L 400.540798 261.591411 
L 401.810462 259.748924 
L 403.080125 258.13382 
L 404.349789 259.437499 
L 406.889117 260.268424 
L 408.158781 256.583583 
L 409.428444 259.039091 
L 410.698108 258.556615 
L 411.967772 257.545936 
L 413.237436 259.119547 
L 414.5071 258.062635 
L 415.776763 258.87918 
L 417.046427 256.474813 
L 418.316091 261.176237 
L 419.585755 259.792771 
L 420.855419 262.900709 
L 422.125083 261.287191 
L 423.394746 260.082704 
L 424.66441 258.321032 
L 425.934074 258.911529 
L 427.203738 259.14771 
L 428.473402 257.100516 
L 429.743065 258.191947 
L 431.012729 259.020009 
L 432.282393 257.740832 
L 433.552057 258.248701 
L 434.821721 256.260622 
L 436.091385 257.002004 
L 437.361048 259.122001 
L 438.630712 257.827964 
L 439.900376 258.720554 
L 441.17004 259.081924 
L 442.439704 256.893178 
L 443.709367 256.894789 
L 444.979031 256.029249 
L 446.248695 257.10769 
L 447.518359 256.245467 
L 448.788023 257.002602 
L 450.057686 255.945382 
L 451.32735 257.672333 
L 452.597014 256.407744 
L 453.866678 259.095839 
L 455.136342 256.839469 
L 456.406006 258.236467 
L 457.675669 258.543663 
L 458.945333 259.030872 
L 460.214997 256.654511 
L 461.484661 257.657745 
L 462.754325 257.674039 
L 464.023988 257.937162 
L 465.293652 257.352487 
L 466.563316 256.989373 
L 467.83298 258.646196 
L 469.102644 258.836958 
L 470.372308 258.592916 
L 472.911635 256.980065 
L 474.181299 256.579216 
L 475.450963 259.606535 
L 476.720627 256.238865 
L 477.99029 256.391752 
L 479.259954 258.113392 
L 480.529618 258.155992 
L 481.799282 258.700887 
L 483.068946 258.882742 
L 484.33861 257.152884 
L 485.608273 259.500207 
L 486.877937 258.938219 
L 488.147601 256.490188 
L 490.686929 258.827303 
L 491.956592 259.391619 
L 493.226256 257.257299 
L 494.49592 257.53603 
L 495.765584 257.5996 
L 497.035248 259.075486 
L 498.304911 257.523178 
L 499.574575 257.223628 
L 500.844239 258.03281 
L 502.113903 256.632288 
L 503.383567 259.259324 
L 504.653231 257.94744 
L 505.922894 258.329944 
L 507.192558 257.883901 
L 508.462222 257.14007 
L 509.731886 255.722285 
L 511.00155 256.163149 
L 512.271213 258.793759 
L 513.540877 257.660414 
L 514.810541 258.446637 
L 516.080205 256.704808 
L 517.349869 260.901295 
L 519.889196 259.2441 
L 521.15886 257.034799 
L 522.428524 258.276235 
L 523.698188 258.496764 
L 524.967852 256.044303 
L 526.237515 258.649991 
L 527.507179 258.674574 
L 528.776843 255.208103 
L 530.046507 257.126136 
L 531.316171 256.799072 
L 532.585834 259.527394 
L 533.855498 259.678777 
L 535.125162 257.694688 
L 536.394826 261.708469 
L 537.66449 256.729529 
L 538.934154 257.27998 
L 540.203817 258.766269 
L 541.473481 259.422382 
L 542.743145 260.549849 
L 544.012809 258.449727 
L 545.282473 259.284825 
L 546.552136 258.131995 
L 547.8218 257.341543 
L 549.091464 257.72608 
L 550.361128 260.642187 
L 551.630792 260.182921 
L 552.900456 259.519691 
L 554.170119 256.545835 
L 555.439783 259.856322 
L 556.709447 258.90713 
L 557.979111 260.681546 
L 559.248775 258.003489 
L 560.518438 260.23731 
L 561.788102 259.447864 
L 563.057766 256.228626 
L 564.32743 256.639375 
L 565.597094 259.426881 
L 566.866758 259.850066 
L 568.136421 255.944772 
L 569.406085 259.473365 
L 570.675749 256.976037 
L 573.215077 258.66249 
L 574.48474 258.313599 
L 575.754404 256.199349 
L 577.024068 260.737445 
L 578.293732 256.203383 
L 579.563396 258.999442 
L 580.833059 257.855423 
L 582.102723 258.97676 
L 583.372387 258.097501 
L 584.642051 258.106054 
L 585.911715 257.029702 
L 587.181379 255.45504 
L 588.451042 256.091661 
L 589.720706 259.220273 
L 590.99037 256.098093 
L 592.260034 256.858557 
L 593.529698 256.653504 
L 594.799361 256.121719 
L 596.069025 256.807096 
L 597.338689 256.182753 
L 598.608353 257.284021 
L 599.878017 258.173639 
L 601.147681 255.697565 
L 602.417344 257.429072 
L 603.687008 256.778624 
L 604.956672 256.891818 
L 606.226336 256.020375 
L 607.496 256.825114 
L 608.765663 256.266103 
L 610.035327 256.702618 
L 611.304991 256.26689 
L 612.574655 253.543344 
L 613.844319 256.254045 
L 615.113982 253.919901 
L 616.383646 257.027568 
L 617.65331 257.985874 
L 618.922974 252.823051 
L 620.192638 256.155043 
L 621.462302 252.896596 
L 622.731965 256.794786 
L 624.001629 255.624667 
L 625.271293 256.191287 
L 626.540957 256.296205 
L 627.810621 256.798788 
L 629.080284 256.131304 
L 630.349948 255.289755 
L 631.619612 258.0187 
L 632.889276 255.232692 
L 634.15894 257.949258 
L 635.428604 259.458248 
L 636.698267 256.951304 
L 637.967931 258.357566 
L 639.237595 257.200771 
L 640.507259 256.551071 
L 641.776923 255.231439 
L 643.046586 257.972475 
L 644.31625 257.056166 
L 645.585914 255.823918 
L 646.855578 258.383658 
L 648.125242 257.546653 
L 649.394906 259.144167 
L 650.664569 259.248053 
L 651.934233 259.634987 
L 653.203897 257.522461 
L 654.473561 258.140183 
L 655.743225 254.964748 
L 657.012888 255.490258 
L 658.282552 254.827141 
L 659.552216 255.936641 
L 660.82188 256.675946 
L 663.361207 256.605793 
L 664.630871 256.137685 
L 665.900535 257.330284 
L 667.170199 259.092617 
L 669.709527 256.953866 
L 670.97919 257.608814 
L 672.248854 252.553162 
L 673.518518 256.131965 
L 674.788182 256.749013 
L 674.788182 256.749013 
" clip-path="url(#p982cb42b1d)" style="fill: none; stroke: #ff7f0e; stroke-width: 1.5; stroke-linecap: square"/>
   </g>
   <g id="patch_3">
    <path d="M 65.54 304 
L 65.54 21.327134 
" style="fill: none; stroke: #000000; stroke-width: 0.8; stroke-linejoin: miter; stroke-linecap: square"/>
   </g>
   <g id="patch_4">
    <path d="M 703.8 304 
L 703.8 21.327134 
" style="fill: none; stroke: #000000; stroke-width: 0.8; stroke-linejoin: miter; stroke-linecap: square"/>
   </g>
   <g id="patch_5">
    <path d="M 65.54 304 
L 703.8 304 
" style="fill: none; stroke: #000000; stroke-width: 0.8; stroke-linejoin: miter; stroke-linecap: square"/>
   </g>
   <g id="patch_6">
    <path d="M 65.54 21.327134 
L 703.8 21.327134 
" style="fill: none; stroke: #000000; stroke-width: 0.8; stroke-linejoin: miter; stroke-linecap: square"/>
   </g>
   <g id="legend_1">
    <g id="patch_7">
     <path d="M 533.559375 77.361509 
L 693.3 77.361509 
Q 696.3 77.361509 696.3 74.361509 
L 696.3 31.827134 
Q 696.3 28.827134 693.3 28.827134 
L 533.559375 28.827134 
Q 530.559375 28.827134 530.559375 31.827134 
L 530.559375 74.361509 
Q 530.559375 77.361509 533.559375 77.361509 
z
" style="fill: #ffffff; opacity: 0.8; stroke: #cccccc; stroke-linejoin: miter"/>
    </g>
    <g id="line2d_15">
     <path d="M 536.559375 40.97479 
L 551.559375 40.97479 
L 566.559375 40.97479 
" style="fill: none; stroke: #1f77b4; stroke-width: 1.5; stroke-linecap: square"/>
    </g>
    <g id="text_15">
     <text style="font: 15px 'DejaVu Sans', 'Bitstream Vera Sans', 'Computer Modern Sans Serif', 'Lucida Grande', 'Verdana', 'Geneva', 'Lucid', 'Arial', 'Helvetica', 'Avant Garde', sans-serif; text-anchor: start" x="578.559375" y="46.22479" transform="rotate(-0 578.559375 46.22479)">Training Loss</text>
    </g>
    <g id="line2d_16">
     <path d="M 536.559375 62.991978 
L 551.559375 62.991978 
L 566.559375 62.991978 
" style="fill: none; stroke: #ff7f0e; stroke-width: 1.5; stroke-linecap: square"/>
    </g>
    <g id="text_16">
     <text style="font: 15px 'DejaVu Sans', 'Bitstream Vera Sans', 'Computer Modern Sans Serif', 'Lucida Grande', 'Verdana', 'Geneva', 'Lucid', 'Arial', 'Helvetica', 'Avant Garde', sans-serif; text-anchor: start" x="578.559375" y="68.241978" transform="rotate(-0 578.559375 68.241978)">Validation Loss</text>
    </g>
   </g>
  </g>
 </g>
 <defs>
  <clipPath id="p982cb42b1d">
   <rect x="65.54" y="21.327134" width="638.26" height="282.672866"/>
  </clipPath>
 </defs>
</svg>
