<?xml version="1.0" encoding="utf-8" standalone="no"?>
<!DOCTYPE svg PUBLIC "-//W3C//DTD SVG 1.1//EN"
  "http://www.w3.org/Graphics/SVG/1.1/DTD/svg11.dtd">
<svg xmlns:xlink="http://www.w3.org/1999/xlink" width="720pt" height="360pt" viewBox="0 0 720 360" xmlns="http://www.w3.org/2000/svg" version="1.1">
 <metadata>
  <rdf:RDF xmlns:dc="http://purl.org/dc/elements/1.1/" xmlns:cc="http://creativecommons.org/ns#" xmlns:rdf="http://www.w3.org/1999/02/22-rdf-syntax-ns#">
   <cc:Work>
    <dc:type rdf:resource="http://purl.org/dc/dcmitype/StillImage"/>
    <dc:date>2023-07-18T21:40:10.284333</dc:date>
    <dc:format>image/svg+xml</dc:format>
    <dc:creator>
     <cc:Agent>
      <dc:title>Matplotlib v3.7.2, https://matplotlib.org/</dc:title>
     </cc:Agent>
    </dc:creator>
   </cc:Work>
  </rdf:RDF>
 </metadata>
 <defs>
  <style type="text/css">*{stroke-linejoin: round; stroke-linecap: butt}</style>
 </defs>
 <g id="figure_1">
  <g id="patch_1">
   <path d="M 0 360 
L 720 360 
L 720 0 
L 0 0 
z
" style="fill: #ffffff"/>
  </g>
  <g id="axes_1">
   <g id="patch_2">
    <path d="M 65.54 304 
L 703.8 304 
L 703.8 19.540139 
L 65.54 19.540139 
z
" style="fill: #ffffff"/>
   </g>
   <g id="matplotlib.axis_1">
    <g id="xtick_1">
     <g id="line2d_1">
      <defs>
       <path id="m25874ad59e" d="M 0 0 
L 0 3.5 
" style="stroke: #000000; stroke-width: 0.8"/>
      </defs>
      <g>
       <use xlink:href="#m25874ad59e" x="93.108444" y="304" style="stroke: #000000; stroke-width: 0.8"/>
      </g>
     </g>
     <g id="text_1">
      <text style="font: 15px 'DejaVu Sans', 'Bitstream Vera Sans', 'Computer Modern Sans Serif', 'Lucida Grande', 'Verdana', 'Geneva', 'Lucid', 'Arial', 'Helvetica', 'Avant Garde', sans-serif; text-anchor: middle" x="93.108444" y="322.397656" transform="rotate(-0 93.108444 322.397656)">0</text>
     </g>
    </g>
    <g id="xtick_2">
     <g id="line2d_2">
      <g>
       <use xlink:href="#m25874ad59e" x="165.277146" y="304" style="stroke: #000000; stroke-width: 0.8"/>
      </g>
     </g>
     <g id="text_2">
      <text style="font: 15px 'DejaVu Sans', 'Bitstream Vera Sans', 'Computer Modern Sans Serif', 'Lucida Grande', 'Verdana', 'Geneva', 'Lucid', 'Arial', 'Helvetica', 'Avant Garde', sans-serif; text-anchor: middle" x="165.277146" y="322.397656" transform="rotate(-0 165.277146 322.397656)">50</text>
     </g>
    </g>
    <g id="xtick_3">
     <g id="line2d_3">
      <g>
       <use xlink:href="#m25874ad59e" x="237.445848" y="304" style="stroke: #000000; stroke-width: 0.8"/>
      </g>
     </g>
     <g id="text_3">
      <text style="font: 15px 'DejaVu Sans', 'Bitstream Vera Sans', 'Computer Modern Sans Serif', 'Lucida Grande', 'Verdana', 'Geneva', 'Lucid', 'Arial', 'Helvetica', 'Avant Garde', sans-serif; text-anchor: middle" x="237.445848" y="322.397656" transform="rotate(-0 237.445848 322.397656)">100</text>
     </g>
    </g>
    <g id="xtick_4">
     <g id="line2d_4">
      <g>
       <use xlink:href="#m25874ad59e" x="309.61455" y="304" style="stroke: #000000; stroke-width: 0.8"/>
      </g>
     </g>
     <g id="text_4">
      <text style="font: 15px 'DejaVu Sans', 'Bitstream Vera Sans', 'Computer Modern Sans Serif', 'Lucida Grande', 'Verdana', 'Geneva', 'Lucid', 'Arial', 'Helvetica', 'Avant Garde', sans-serif; text-anchor: middle" x="309.61455" y="322.397656" transform="rotate(-0 309.61455 322.397656)">150</text>
     </g>
    </g>
    <g id="xtick_5">
     <g id="line2d_5">
      <g>
       <use xlink:href="#m25874ad59e" x="381.783252" y="304" style="stroke: #000000; stroke-width: 0.8"/>
      </g>
     </g>
     <g id="text_5">
      <text style="font: 15px 'DejaVu Sans', 'Bitstream Vera Sans', 'Computer Modern Sans Serif', 'Lucida Grande', 'Verdana', 'Geneva', 'Lucid', 'Arial', 'Helvetica', 'Avant Garde', sans-serif; text-anchor: middle" x="381.783252" y="322.397656" transform="rotate(-0 381.783252 322.397656)">200</text>
     </g>
    </g>
    <g id="xtick_6">
     <g id="line2d_6">
      <g>
       <use xlink:href="#m25874ad59e" x="453.951954" y="304" style="stroke: #000000; stroke-width: 0.8"/>
      </g>
     </g>
     <g id="text_6">
      <text style="font: 15px 'DejaVu Sans', 'Bitstream Vera Sans', 'Computer Modern Sans Serif', 'Lucida Grande', 'Verdana', 'Geneva', 'Lucid', 'Arial', 'Helvetica', 'Avant Garde', sans-serif; text-anchor: middle" x="453.951954" y="322.397656" transform="rotate(-0 453.951954 322.397656)">250</text>
     </g>
    </g>
    <g id="xtick_7">
     <g id="line2d_7">
      <g>
       <use xlink:href="#m25874ad59e" x="526.120656" y="304" style="stroke: #000000; stroke-width: 0.8"/>
      </g>
     </g>
     <g id="text_7">
      <text style="font: 15px 'DejaVu Sans', 'Bitstream Vera Sans', 'Computer Modern Sans Serif', 'Lucida Grande', 'Verdana', 'Geneva', 'Lucid', 'Arial', 'Helvetica', 'Avant Garde', sans-serif; text-anchor: middle" x="526.120656" y="322.397656" transform="rotate(-0 526.120656 322.397656)">300</text>
     </g>
    </g>
    <g id="xtick_8">
     <g id="line2d_8">
      <g>
       <use xlink:href="#m25874ad59e" x="598.289358" y="304" style="stroke: #000000; stroke-width: 0.8"/>
      </g>
     </g>
     <g id="text_8">
      <text style="font: 15px 'DejaVu Sans', 'Bitstream Vera Sans', 'Computer Modern Sans Serif', 'Lucida Grande', 'Verdana', 'Geneva', 'Lucid', 'Arial', 'Helvetica', 'Avant Garde', sans-serif; text-anchor: middle" x="598.289358" y="322.397656" transform="rotate(-0 598.289358 322.397656)">350</text>
     </g>
    </g>
    <g id="xtick_9">
     <g id="line2d_9">
      <g>
       <use xlink:href="#m25874ad59e" x="670.45806" y="304" style="stroke: #000000; stroke-width: 0.8"/>
      </g>
     </g>
     <g id="text_9">
      <text style="font: 15px 'DejaVu Sans', 'Bitstream Vera Sans', 'Computer Modern Sans Serif', 'Lucida Grande', 'Verdana', 'Geneva', 'Lucid', 'Arial', 'Helvetica', 'Avant Garde', sans-serif; text-anchor: middle" x="670.45806" y="322.397656" transform="rotate(-0 670.45806 322.397656)">400</text>
     </g>
    </g>
    <g id="text_10">
     <text style="font: 15px 'DejaVu Sans', 'Bitstream Vera Sans', 'Computer Modern Sans Serif', 'Lucida Grande', 'Verdana', 'Geneva', 'Lucid', 'Arial', 'Helvetica', 'Avant Garde', sans-serif; text-anchor: middle" x="384.67" y="340.914844" transform="rotate(-0 384.67 340.914844)">Epoch</text>
    </g>
   </g>
   <g id="matplotlib.axis_2">
    <g id="ytick_1">
     <g id="line2d_10">
      <defs>
       <path id="m8a85e5ad73" d="M 0 0 
L -3.5 0 
" style="stroke: #000000; stroke-width: 0.8"/>
      </defs>
      <g>
       <use xlink:href="#m8a85e5ad73" x="65.54" y="287.679092" style="stroke: #000000; stroke-width: 0.8"/>
      </g>
     </g>
     <g id="text_11">
      <text style="font: 15px 'DejaVu Sans', 'Bitstream Vera Sans', 'Computer Modern Sans Serif', 'Lucida Grande', 'Verdana', 'Geneva', 'Lucid', 'Arial', 'Helvetica', 'Avant Garde', sans-serif; text-anchor: end" x="58.54" y="293.377921" transform="rotate(-0 58.54 293.377921)">0.3</text>
     </g>
    </g>
    <g id="ytick_2">
     <g id="line2d_11">
      <g>
       <use xlink:href="#m8a85e5ad73" x="65.54" y="249.728276" style="stroke: #000000; stroke-width: 0.8"/>
      </g>
     </g>
     <g id="text_12">
      <text style="font: 15px 'DejaVu Sans', 'Bitstream Vera Sans', 'Computer Modern Sans Serif', 'Lucida Grande', 'Verdana', 'Geneva', 'Lucid', 'Arial', 'Helvetica', 'Avant Garde', sans-serif; text-anchor: end" x="58.54" y="255.427104" transform="rotate(-0 58.54 255.427104)">0.4</text>
     </g>
    </g>
    <g id="ytick_3">
     <g id="line2d_12">
      <g>
       <use xlink:href="#m8a85e5ad73" x="65.54" y="211.777459" style="stroke: #000000; stroke-width: 0.8"/>
      </g>
     </g>
     <g id="text_13">
      <text style="font: 15px 'DejaVu Sans', 'Bitstream Vera Sans', 'Computer Modern Sans Serif', 'Lucida Grande', 'Verdana', 'Geneva', 'Lucid', 'Arial', 'Helvetica', 'Avant Garde', sans-serif; text-anchor: end" x="58.54" y="217.476287" transform="rotate(-0 58.54 217.476287)">0.5</text>
     </g>
    </g>
    <g id="ytick_4">
     <g id="line2d_13">
      <g>
       <use xlink:href="#m8a85e5ad73" x="65.54" y="173.826643" style="stroke: #000000; stroke-width: 0.8"/>
      </g>
     </g>
     <g id="text_14">
      <text style="font: 15px 'DejaVu Sans', 'Bitstream Vera Sans', 'Computer Modern Sans Serif', 'Lucida Grande', 'Verdana', 'Geneva', 'Lucid', 'Arial', 'Helvetica', 'Avant Garde', sans-serif; text-anchor: end" x="58.54" y="179.525471" transform="rotate(-0 58.54 179.525471)">0.6</text>
     </g>
    </g>
    <g id="ytick_5">
     <g id="line2d_14">
      <g>
       <use xlink:href="#m8a85e5ad73" x="65.54" y="135.875826" style="stroke: #000000; stroke-width: 0.8"/>
      </g>
     </g>
     <g id="text_15">
      <text style="font: 15px 'DejaVu Sans', 'Bitstream Vera Sans', 'Computer Modern Sans Serif', 'Lucida Grande', 'Verdana', 'Geneva', 'Lucid', 'Arial', 'Helvetica', 'Avant Garde', sans-serif; text-anchor: end" x="58.54" y="141.574654" transform="rotate(-0 58.54 141.574654)">0.7</text>
     </g>
    </g>
    <g id="ytick_6">
     <g id="line2d_15">
      <g>
       <use xlink:href="#m8a85e5ad73" x="65.54" y="97.925009" style="stroke: #000000; stroke-width: 0.8"/>
      </g>
     </g>
     <g id="text_16">
      <text style="font: 15px 'DejaVu Sans', 'Bitstream Vera Sans', 'Computer Modern Sans Serif', 'Lucida Grande', 'Verdana', 'Geneva', 'Lucid', 'Arial', 'Helvetica', 'Avant Garde', sans-serif; text-anchor: end" x="58.54" y="103.623837" transform="rotate(-0 58.54 103.623837)">0.8</text>
     </g>
    </g>
    <g id="ytick_7">
     <g id="line2d_16">
      <g>
       <use xlink:href="#m8a85e5ad73" x="65.54" y="59.974193" style="stroke: #000000; stroke-width: 0.8"/>
      </g>
     </g>
     <g id="text_17">
      <text style="font: 15px 'DejaVu Sans', 'Bitstream Vera Sans', 'Computer Modern Sans Serif', 'Lucida Grande', 'Verdana', 'Geneva', 'Lucid', 'Arial', 'Helvetica', 'Avant Garde', sans-serif; text-anchor: end" x="58.54" y="65.673021" transform="rotate(-0 58.54 65.673021)">0.9</text>
     </g>
    </g>
    <g id="ytick_8">
     <g id="line2d_17">
      <g>
       <use xlink:href="#m8a85e5ad73" x="65.54" y="22.023376" style="stroke: #000000; stroke-width: 0.8"/>
      </g>
     </g>
     <g id="text_18">
      <text style="font: 15px 'DejaVu Sans', 'Bitstream Vera Sans', 'Computer Modern Sans Serif', 'Lucida Grande', 'Verdana', 'Geneva', 'Lucid', 'Arial', 'Helvetica', 'Avant Garde', sans-serif; text-anchor: end" x="58.54" y="27.722204" transform="rotate(-0 58.54 27.722204)">1.0</text>
     </g>
    </g>
    <g id="text_19">
     <text style="font: 15px 'DejaVu Sans', 'Bitstream Vera Sans', 'Computer Modern Sans Serif', 'Lucida Grande', 'Verdana', 'Geneva', 'Lucid', 'Arial', 'Helvetica', 'Avant Garde', sans-serif; text-anchor: middle" x="27.565781" y="161.77007" transform="rotate(-90 27.565781 161.77007)">Accuracy</text>
    </g>
   </g>
   <g id="line2d_18">
    <path d="M 94.551818 291.070006 
L 95.995192 262.469886 
L 97.438566 249.454261 
L 98.88194 231.129638 
L 100.325314 211.263681 
L 101.768688 201.159443 
L 103.212062 188.486336 
L 104.655436 178.210861 
L 106.09881 165.023976 
L 107.542185 165.195236 
L 108.985559 153.549663 
L 110.428933 146.014316 
L 111.872307 147.555628 
L 113.315681 137.280153 
L 114.759055 135.910078 
L 116.202429 134.197506 
L 117.645803 123.57949 
L 119.089177 127.689693 
L 120.532551 126.662137 
L 121.975925 121.35314 
L 123.419299 119.298027 
L 124.862673 116.557899 
L 126.306047 112.276436 
L 127.749421 109.365048 
L 129.192795 111.93394 
L 130.636169 109.022529 
L 132.079543 108.166255 
L 133.522917 102.685976 
L 134.966291 103.884792 
L 136.409665 102.34348 
L 137.853039 99.774588 
L 139.296413 103.199754 
L 140.739787 101.829702 
L 142.183161 97.20572 
L 143.626536 97.376979 
L 145.06991 101.829702 
L 146.513284 96.691941 
L 147.956658 97.20572 
L 149.400032 97.376979 
L 150.843406 94.123073 
L 152.28678 87.444001 
L 153.730154 89.327854 
L 155.173528 87.272741 
L 156.616902 92.410501 
L 158.060276 84.703872 
L 159.50365 88.985335 
L 160.947024 84.875132 
L 162.390398 82.820041 
L 163.833772 80.422432 
L 165.277146 81.963744 
L 166.72052 77.168526 
L 168.163894 84.018835 
L 169.607268 81.449966 
L 171.050642 77.511022 
L 172.494016 73.229582 
L 173.93739 78.0248 
L 175.380764 82.306263 
L 176.824138 76.483488 
L 178.267512 75.113413 
L 179.710886 76.654747 
L 181.154261 77.511022 
L 182.597635 74.599634 
L 184.041009 70.489453 
L 185.484383 76.312229 
L 186.927757 74.428375 
L 188.371131 71.003232 
L 189.814505 72.373284 
L 191.257879 72.202025 
L 192.701253 70.318194 
L 194.144627 71.003232 
L 195.588001 72.202025 
L 197.031375 69.290637 
L 198.474749 68.263081 
L 199.918123 69.461897 
L 201.361497 65.694212 
L 202.804871 70.146935 
L 204.248245 63.639122 
L 205.691619 68.43434 
L 207.134993 62.097787 
L 208.578367 65.009174 
L 210.021741 66.036731 
L 211.465115 65.694212 
L 212.908489 62.782825 
L 214.351863 63.810381 
L 215.795237 62.954084 
L 217.238611 65.865472 
L 218.681986 66.20799 
L 220.12536 66.37925 
L 221.568734 64.495419 
L 223.012108 62.097787 
L 224.455482 60.042696 
L 225.898856 61.926527 
L 227.34223 59.871437 
L 228.785604 60.385215 
L 230.228978 58.672621 
L 231.672352 58.501362 
L 233.115726 58.843881 
L 234.5591 62.097787 
L 236.002474 59.357659 
L 237.445848 60.727734 
L 238.889222 60.213956 
L 240.332596 57.816347 
L 241.77597 62.782825 
L 243.219344 61.241512 
L 244.662718 56.960049 
L 246.106092 62.611565 
L 247.549466 61.070253 
L 248.99284 57.645087 
L 250.436214 53.877402 
L 251.879588 58.158865 
L 253.322962 56.275012 
L 254.766336 56.78879 
L 256.209711 54.219921 
L 257.653085 57.473828 
L 259.096459 56.275012 
L 260.539833 62.782825 
L 261.983207 56.617531 
L 263.426581 56.103752 
L 264.869955 50.109718 
L 266.313329 54.048662 
L 267.756703 57.473828 
L 269.200077 53.192365 
L 270.643451 49.59594 
L 272.086825 50.966015 
L 273.530199 51.137274 
L 274.973573 54.56244 
L 276.416947 54.219921 
L 277.860321 53.706143 
L 279.303695 52.849846 
L 280.747069 50.623496 
L 282.190443 50.280977 
L 283.633817 52.336068 
L 285.077191 49.59594 
L 286.520565 47.883368 
L 287.963939 47.19833 
L 289.407313 51.822312 
L 290.850687 53.363624 
L 292.294062 49.59594 
L 293.737436 50.280977 
L 295.18081 50.109718 
L 296.624184 50.109718 
L 298.067558 52.164808 
L 299.510932 48.225887 
L 300.954306 47.712109 
L 302.39768 51.479793 
L 303.841054 46.342033 
L 305.284428 52.678587 
L 306.727802 50.452237 
L 308.171176 50.623496 
L 309.61455 52.849846 
L 311.057924 52.164808 
L 312.501298 49.082161 
L 313.944672 48.910902 
L 315.388046 46.170774 
L 316.83142 50.966015 
L 318.274794 48.225887 
L 319.718168 47.712109 
L 321.161542 45.657018 
L 322.604916 47.883368 
L 324.04829 47.36959 
L 325.491664 47.883368 
L 326.935038 48.910902 
L 328.378412 46.684552 
L 329.821787 47.027071 
L 331.265161 45.828255 
L 332.708535 43.773164 
L 334.151909 45.485759 
L 335.595283 43.601905 
L 337.038657 46.170774 
L 338.482031 45.999514 
L 339.925405 46.513293 
L 341.368779 45.828255 
L 342.812153 44.800721 
L 344.255527 45.485759 
L 345.698901 44.629462 
L 347.142275 45.999514 
L 348.585649 45.485759 
L 350.029023 46.342033 
L 351.472397 44.115683 
L 352.915771 44.800721 
L 354.359145 43.259386 
L 355.802519 45.828255 
L 357.245893 45.999514 
L 358.689267 46.684552 
L 360.132641 48.225887 
L 361.576015 42.403112 
L 363.019389 45.657018 
L 364.462763 45.828255 
L 365.906137 41.718074 
L 367.349512 42.060593 
L 368.792886 45.828255 
L 370.23626 45.14324 
L 373.123008 42.403112 
L 374.566382 45.314499 
L 376.009756 43.944424 
L 377.45313 41.889333 
L 378.896504 44.629462 
L 380.339878 44.286943 
L 381.783252 40.690517 
L 383.226626 45.828255 
L 384.67 43.944424 
L 386.113374 44.115683 
L 387.556748 43.601905 
L 389.000122 44.800721 
L 390.443496 42.574371 
L 391.88687 40.690517 
L 393.330244 41.204296 
L 394.773618 40.690517 
L 396.216992 42.060593 
L 397.660366 45.999514 
L 399.10374 39.83422 
L 400.547114 43.601905 
L 401.990488 44.286943 
L 403.433863 43.944424 
L 404.877237 40.519258 
L 407.763985 43.601905 
L 409.207359 42.916867 
L 410.650733 42.745608 
L 412.094107 39.320465 
L 413.537481 42.745608 
L 414.980855 43.601905 
L 416.424229 42.745608 
L 417.867603 43.259386 
L 419.310977 42.574371 
L 420.754351 39.320465 
L 422.197725 41.204296 
L 423.641099 40.176739 
L 425.084473 41.033036 
L 426.527847 42.574371 
L 427.971221 38.121649 
L 429.414595 40.176739 
L 430.857969 39.149205 
L 432.301343 40.00548 
L 433.744717 40.690517 
L 435.188091 41.033036 
L 438.074839 37.436611 
L 439.518213 39.662961 
L 440.961588 40.347999 
L 442.404962 38.464168 
L 443.848336 40.861777 
L 445.29171 42.745608 
L 446.735084 40.00548 
L 448.178458 41.375555 
L 449.621832 41.889333 
L 451.065206 39.149205 
L 452.50858 41.375555 
L 453.951954 37.60787 
L 455.395328 40.176739 
L 456.838702 43.088127 
L 458.282076 39.491701 
L 459.72545 40.00548 
L 461.168824 41.375555 
L 462.612198 37.436611 
L 464.055572 41.375555 
L 465.498946 37.950389 
L 466.94232 38.635427 
L 468.385694 41.889333 
L 469.829068 37.60787 
L 471.272442 43.430646 
L 472.715816 40.347999 
L 474.15919 41.033036 
L 475.602564 36.580314 
L 477.045938 36.922833 
L 478.489313 38.635427 
L 479.932687 37.77913 
L 481.376061 37.094092 
L 482.819435 40.690517 
L 484.262809 36.580314 
L 485.706183 37.77913 
L 487.149557 43.601905 
L 488.592931 39.320465 
L 490.036305 38.806686 
L 491.479679 38.121649 
L 492.923053 42.574371 
L 494.366427 38.292908 
L 495.809801 38.121649 
L 497.253175 42.745608 
L 498.696549 37.950389 
L 501.583297 36.922833 
L 503.026671 37.60787 
L 504.470045 37.436611 
L 505.913419 38.806686 
L 507.356793 37.094092 
L 508.800167 35.724039 
L 510.243541 36.580314 
L 511.686915 38.121649 
L 513.130289 38.121649 
L 514.573664 36.922833 
L 516.017038 38.806686 
L 517.460412 36.751573 
L 518.903786 35.381521 
L 520.34716 36.580314 
L 521.790534 41.033036 
L 523.233908 40.861777 
L 524.677282 40.519258 
L 526.120656 38.806686 
L 527.56403 38.977946 
L 529.007404 37.950389 
L 530.450778 37.436611 
L 531.894152 36.409054 
L 533.337526 33.840186 
L 534.7809 36.237818 
L 536.224274 36.580314 
L 537.667648 38.292908 
L 539.111022 36.409054 
L 540.554396 36.409054 
L 541.99777 35.895299 
L 543.441144 35.210261 
L 544.884518 37.265352 
L 546.327892 35.724039 
L 547.771266 34.353964 
L 549.21464 37.094092 
L 550.658014 36.580314 
L 552.101389 36.922833 
L 553.544763 38.121649 
L 554.988137 36.922833 
L 556.431511 40.690517 
L 557.874885 36.922833 
L 559.318259 37.265352 
L 560.761633 39.491701 
L 562.205007 36.237818 
L 563.648381 36.922833 
L 565.091755 38.121649 
L 566.535129 37.436611 
L 567.978503 37.094092 
L 569.421877 35.039002 
L 570.865251 38.292908 
L 573.751999 36.237818 
L 575.195373 34.182705 
L 576.638747 35.724039 
L 578.082121 33.326407 
L 579.525495 34.696483 
L 580.968869 35.210261 
L 582.412243 35.55278 
L 583.855617 38.464168 
L 585.298991 35.039002 
L 586.742365 34.182705 
L 588.185739 37.436611 
L 589.629114 37.094092 
L 591.072488 37.950389 
L 592.515862 34.867742 
L 593.959236 34.011445 
L 595.40261 34.011445 
L 596.845984 36.751573 
L 598.289358 33.155148 
L 601.176106 35.210261 
L 602.61948 36.751573 
L 604.062854 35.895299 
L 605.506228 34.353964 
L 606.949602 35.210261 
L 608.392976 34.696483 
L 609.83635 36.066558 
L 611.279724 35.724039 
L 612.723098 33.497667 
L 614.166472 35.381521 
L 615.609846 35.210261 
L 617.05322 34.011445 
L 618.496594 33.497667 
L 619.939968 33.840186 
L 622.826716 33.155148 
L 624.27009 34.353964 
L 625.713464 34.867742 
L 627.156839 35.724039 
L 628.600213 35.381521 
L 630.043587 36.409054 
L 631.486961 37.950389 
L 634.373709 32.641392 
L 635.817083 37.265352 
L 637.260457 36.751573 
L 638.703831 36.409054 
L 640.147205 39.491701 
L 641.590579 36.066558 
L 643.033953 37.094092 
L 644.477327 39.320465 
L 645.920701 33.840186 
L 647.364075 35.210261 
L 648.807449 34.182705 
L 650.250823 32.983911 
L 651.694197 33.497667 
L 653.137571 36.237818 
L 654.580945 33.326407 
L 656.024319 37.094092 
L 657.467693 33.840186 
L 658.911067 36.751573 
L 660.354441 34.867742 
L 661.797815 35.210261 
L 663.24119 35.895299 
L 666.127938 35.55278 
L 667.571312 35.55278 
L 669.014686 32.470133 
L 670.45806 34.525223 
L 671.901434 35.381521 
L 673.344808 35.724039 
L 674.788182 36.409054 
L 674.788182 36.409054 
" clip-path="url(#p34cfb3eec7)" style="fill: none; stroke: #1f77b4; stroke-width: 1.5; stroke-linecap: square"/>
   </g>
   <g id="line2d_19">
    <path d="M 94.551818 249.009316 
L 95.995192 222.818625 
L 97.438566 219.737369 
L 98.88194 199.709201 
L 100.325314 188.411259 
L 101.768688 167.869538 
L 103.212062 162.220579 
L 104.655436 158.625782 
L 106.09881 149.382003 
L 107.542185 156.058067 
L 108.985559 142.705939 
L 110.428933 131.92155 
L 111.872307 137.05698 
L 113.315681 126.78612 
L 114.759055 119.082974 
L 116.202429 116.515259 
L 117.645803 123.191323 
L 119.089177 127.299672 
L 120.532551 112.406911 
L 123.419299 109.325666 
L 124.862673 105.217317 
L 127.749421 104.190236 
L 129.192795 107.27148 
L 130.636169 102.13605 
L 132.079543 102.13605 
L 133.522917 95.460009 
L 134.966291 97.000643 
L 137.853039 92.892294 
L 139.296413 95.460009 
L 140.739787 93.405824 
L 142.183161 95.973539 
L 143.626536 94.432928 
L 145.06991 94.946457 
L 146.513284 89.297498 
L 147.956658 91.865213 
L 149.400032 91.865213 
L 150.843406 87.243312 
L 152.28678 88.270393 
L 153.730154 82.621434 
L 155.173528 94.432928 
L 156.616902 87.243312 
L 158.060276 90.838108 
L 159.50365 85.702678 
L 160.947024 78.513085 
L 162.390398 80.567271 
L 163.833772 85.189149 
L 165.277146 79.026637 
L 168.163894 77.999556 
L 169.607268 77.999556 
L 171.050642 78.513085 
L 172.494016 75.94537 
L 173.93739 79.540167 
L 175.380764 76.458922 
L 176.824138 77.999556 
L 178.267512 75.94537 
L 179.710886 81.0808 
L 181.154261 76.458922 
L 182.597635 75.431841 
L 184.041009 79.540167 
L 185.484383 73.891207 
L 186.927757 71.837021 
L 188.371131 74.918289 
L 189.814505 71.837021 
L 191.257879 76.972452 
L 192.701253 72.864126 
L 194.144627 74.918289 
L 195.588001 73.891207 
L 197.031375 76.972452 
L 198.474749 71.323492 
L 201.361497 70.29641 
L 202.804871 68.755777 
L 204.248245 74.918289 
L 205.691619 70.29641 
L 207.134993 71.837021 
L 208.578367 69.782858 
L 210.021741 70.29641 
L 211.465115 69.782858 
L 212.908489 69.782858 
L 214.351863 67.215143 
L 215.795237 69.269329 
L 217.238611 70.80994 
L 218.681986 69.782858 
L 220.12536 70.29641 
L 221.568734 70.29641 
L 223.012108 67.728695 
L 224.455482 69.269329 
L 225.898856 67.215143 
L 227.34223 67.728695 
L 228.785604 69.269329 
L 230.228978 66.188062 
L 231.672352 66.701614 
L 233.115726 69.269329 
L 234.5591 69.782858 
L 236.002474 62.593265 
L 237.445848 68.242225 
L 238.889222 63.620347 
L 240.332596 66.188062 
L 241.77597 65.16098 
L 243.219344 67.728695 
L 244.662718 62.593265 
L 246.106092 65.16098 
L 248.99284 65.16098 
L 250.436214 62.593265 
L 251.879588 66.701614 
L 253.322962 64.133899 
L 254.766336 64.133899 
L 256.209711 59.511998 
L 257.653085 61.052632 
L 259.096459 67.728695 
L 260.539833 64.133899 
L 261.983207 64.133899 
L 263.426581 61.052632 
L 264.869955 62.079713 
L 266.313329 64.133899 
L 267.756703 62.593265 
L 269.200077 62.079713 
L 270.643451 62.079713 
L 272.086825 61.566184 
L 273.530199 63.106795 
L 274.973573 63.106795 
L 276.416947 61.052632 
L 277.860321 61.052632 
L 279.303695 60.53908 
L 280.747069 60.53908 
L 282.190443 64.647428 
L 283.633817 66.188062 
L 285.077191 63.620347 
L 286.520565 61.566184 
L 287.963939 63.620347 
L 289.407313 66.701614 
L 290.850687 65.67451 
L 292.294062 61.052632 
L 293.737436 63.620347 
L 295.18081 60.53908 
L 296.624184 65.16098 
L 298.067558 63.620347 
L 299.510932 57.457835 
L 300.954306 62.079713 
L 302.39768 60.02555 
L 303.841054 58.998469 
L 305.284428 61.566184 
L 306.727802 62.079713 
L 308.171176 62.079713 
L 311.057924 61.052632 
L 312.501298 63.620347 
L 313.944672 61.566184 
L 315.388046 57.971365 
L 316.83142 62.079713 
L 318.274794 64.133899 
L 319.718168 60.02555 
L 321.161542 62.593265 
L 322.604916 60.02555 
L 324.04829 62.079713 
L 325.491664 62.593265 
L 326.935038 61.566184 
L 328.378412 57.971365 
L 329.821787 62.079713 
L 331.265161 61.566184 
L 332.708535 63.106795 
L 334.151909 63.620347 
L 335.595283 57.971365 
L 337.038657 62.079713 
L 338.482031 61.052632 
L 339.925405 61.566184 
L 341.368779 63.106795 
L 342.812153 60.53908 
L 344.255527 60.53908 
L 345.698901 58.998469 
L 347.142275 60.53908 
L 348.585649 63.620347 
L 350.029023 59.511998 
L 351.472397 60.02555 
L 352.915771 62.079713 
L 354.359145 56.944283 
L 355.802519 60.53908 
L 357.245893 62.079713 
L 358.689267 65.67451 
L 360.132641 62.079713 
L 361.576015 59.511998 
L 363.019389 58.484917 
L 364.462763 60.53908 
L 365.906137 61.052632 
L 367.349512 60.02555 
L 368.792886 63.106795 
L 370.23626 57.971365 
L 371.679634 56.430754 
L 373.123008 63.620347 
L 374.566382 61.566184 
L 376.009756 60.53908 
L 377.45313 58.998469 
L 381.783252 60.53908 
L 383.226626 60.02555 
L 384.67 60.02555 
L 386.113374 60.53908 
L 387.556748 57.971365 
L 389.000122 60.02555 
L 390.443496 62.593265 
L 393.330244 59.511998 
L 394.773618 58.484917 
L 396.216992 63.620347 
L 397.660366 64.133899 
L 399.10374 58.484917 
L 400.547114 62.079713 
L 401.990488 61.052632 
L 403.433863 60.53908 
L 404.877237 60.53908 
L 406.320611 56.944283 
L 407.763985 58.998469 
L 409.207359 56.430754 
L 410.650733 56.944283 
L 412.094107 59.511998 
L 413.537481 57.457835 
L 416.424229 59.511998 
L 417.867603 60.02555 
L 419.310977 58.484917 
L 420.754351 58.998469 
L 422.197725 61.566184 
L 423.641099 56.944283 
L 425.084473 61.052632 
L 426.527847 58.484917 
L 427.971221 63.106795 
L 429.414595 58.998469 
L 430.857969 61.566184 
L 432.301343 59.511998 
L 433.744717 57.971365 
L 435.188091 58.484917 
L 436.631465 56.944283 
L 438.074839 59.511998 
L 439.518213 58.484917 
L 440.961588 56.944283 
L 442.404962 56.944283 
L 446.735084 63.106795 
L 448.178458 61.052632 
L 449.621832 56.944283 
L 451.065206 58.998469 
L 452.50858 58.484917 
L 453.951954 58.484917 
L 455.395328 60.02555 
L 456.838702 57.457835 
L 458.282076 60.53908 
L 459.72545 61.566184 
L 461.168824 58.998469 
L 462.612198 56.944283 
L 464.055572 57.457835 
L 465.498946 64.133899 
L 466.94232 57.457835 
L 468.385694 58.998469 
L 469.829068 58.998469 
L 471.272442 61.052632 
L 472.715816 57.457835 
L 474.15919 60.53908 
L 475.602564 60.53908 
L 477.045938 60.02555 
L 478.489313 54.89012 
L 479.932687 54.89012 
L 481.376061 58.484917 
L 482.819435 54.376568 
L 484.262809 57.971365 
L 485.706183 60.02555 
L 487.149557 56.944283 
L 488.592931 58.998469 
L 490.036305 58.484917 
L 491.479679 58.998469 
L 492.923053 61.566184 
L 494.366427 57.971365 
L 495.809801 57.457835 
L 497.253175 55.917202 
L 500.139923 56.944283 
L 501.583297 59.511998 
L 503.026671 60.53908 
L 504.470045 54.376568 
L 505.913419 55.917202 
L 508.800167 56.944283 
L 510.243541 58.484917 
L 511.686915 57.971365 
L 513.130289 57.971365 
L 514.573664 60.02555 
L 516.017038 55.917202 
L 517.460412 54.376568 
L 518.903786 57.457835 
L 520.34716 55.917202 
L 521.790534 62.079713 
L 523.233908 56.944283 
L 524.677282 57.457835 
L 526.120656 55.917202 
L 527.56403 58.484917 
L 529.007404 56.944283 
L 530.450778 58.484917 
L 531.894152 59.511998 
L 533.337526 57.971365 
L 534.7809 54.89012 
L 536.224274 55.403672 
L 537.667648 56.430754 
L 539.111022 58.484917 
L 540.554396 57.971365 
L 541.99777 55.917202 
L 543.441144 59.511998 
L 544.884518 55.403672 
L 546.327892 58.998469 
L 547.771266 58.484917 
L 549.21464 55.917202 
L 550.658014 59.511998 
L 552.101389 56.430754 
L 553.544763 57.457835 
L 554.988137 52.835957 
L 556.431511 56.430754 
L 559.318259 55.403672 
L 560.761633 57.457835 
L 562.205007 58.998469 
L 563.648381 54.376568 
L 565.091755 58.484917 
L 566.535129 53.349486 
L 567.978503 55.403672 
L 569.421877 57.971365 
L 570.865251 57.971365 
L 572.308625 58.998469 
L 573.751999 58.998469 
L 575.195373 57.971365 
L 576.638747 58.998469 
L 578.082121 58.484917 
L 579.525495 55.917202 
L 580.968869 54.89012 
L 582.412243 55.403672 
L 583.855617 57.971365 
L 585.298991 58.484917 
L 586.742365 57.457835 
L 588.185739 56.944283 
L 589.629114 55.403672 
L 591.072488 58.998469 
L 592.515862 56.944283 
L 593.959236 55.917202 
L 595.40261 56.944283 
L 596.845984 58.484917 
L 598.289358 57.971365 
L 599.732732 56.944283 
L 601.176106 53.349486 
L 602.61948 56.944283 
L 604.062854 55.917202 
L 605.506228 55.917202 
L 606.949602 57.971365 
L 608.392976 61.052632 
L 609.83635 57.457835 
L 611.279724 58.998469 
L 612.723098 56.430754 
L 614.166472 59.511998 
L 615.609846 56.944283 
L 617.05322 57.457835 
L 618.496594 56.430754 
L 619.939968 55.917202 
L 621.383342 59.511998 
L 622.826716 57.457835 
L 624.27009 57.457835 
L 625.713464 57.971365 
L 627.156839 56.430754 
L 628.600213 54.376568 
L 631.486961 56.430754 
L 632.930335 53.349486 
L 634.373709 56.430754 
L 635.817083 54.376568 
L 637.260457 54.89012 
L 638.703831 56.430754 
L 640.147205 55.917202 
L 641.590579 54.376568 
L 643.033953 56.430754 
L 644.477327 56.944283 
L 645.920701 56.944283 
L 647.364075 57.457835 
L 648.807449 58.484917 
L 650.250823 54.89012 
L 651.694197 57.457835 
L 654.580945 59.511998 
L 656.024319 58.998469 
L 657.467693 57.971365 
L 660.354441 54.89012 
L 661.797815 57.457835 
L 663.24119 59.511998 
L 664.684564 57.971365 
L 666.127938 57.457835 
L 667.571312 55.403672 
L 669.014686 57.971365 
L 670.45806 57.457835 
L 671.901434 60.02555 
L 673.344808 54.376568 
L 674.788182 54.376568 
L 674.788182 54.376568 
" clip-path="url(#p34cfb3eec7)" style="fill: none; stroke: #ff7f0e; stroke-width: 1.5; stroke-linecap: square"/>
   </g>
   <g id="patch_3">
    <path d="M 65.54 304 
L 65.54 19.540139 
" style="fill: none; stroke: #000000; stroke-width: 0.8; stroke-linejoin: miter; stroke-linecap: square"/>
   </g>
   <g id="patch_4">
    <path d="M 703.8 304 
L 703.8 19.540139 
" style="fill: none; stroke: #000000; stroke-width: 0.8; stroke-linejoin: miter; stroke-linecap: square"/>
   </g>
   <g id="patch_5">
    <path d="M 65.54 304 
L 703.8 304 
" style="fill: none; stroke: #000000; stroke-width: 0.8; stroke-linejoin: miter; stroke-linecap: square"/>
   </g>
   <g id="patch_6">
    <path d="M 65.54 19.540139 
L 703.8 19.540139 
" style="fill: none; stroke: #000000; stroke-width: 0.8; stroke-linejoin: miter; stroke-linecap: square"/>
   </g>
   <g id="legend_1">
    <g id="patch_7">
     <path d="M 497.976563 296.5 
L 693.3 296.5 
Q 696.3 296.5 696.3 293.5 
L 696.3 250.965625 
Q 696.3 247.965625 693.3 247.965625 
L 497.976563 247.965625 
Q 494.976563 247.965625 494.976563 250.965625 
L 494.976563 293.5 
Q 494.976563 296.5 497.976563 296.5 
z
" style="fill: #ffffff; opacity: 0.8; stroke: #cccccc; stroke-linejoin: miter"/>
    </g>
    <g id="line2d_20">
     <path d="M 500.976563 260.113281 
L 515.976563 260.113281 
L 530.976563 260.113281 
" style="fill: none; stroke: #1f77b4; stroke-width: 1.5; stroke-linecap: square"/>
    </g>
    <g id="text_20">
     <text style="font: 15px 'DejaVu Sans', 'Bitstream Vera Sans', 'Computer Modern Sans Serif', 'Lucida Grande', 'Verdana', 'Geneva', 'Lucid', 'Arial', 'Helvetica', 'Avant Garde', sans-serif; text-anchor: start" x="542.976563" y="265.363281" transform="rotate(-0 542.976563 265.363281)">Training Accuracy</text>
    </g>
    <g id="line2d_21">
     <path d="M 500.976563 282.130469 
L 515.976563 282.130469 
L 530.976563 282.130469 
" style="fill: none; stroke: #ff7f0e; stroke-width: 1.5; stroke-linecap: square"/>
    </g>
    <g id="text_21">
     <text style="font: 15px 'DejaVu Sans', 'Bitstream Vera Sans', 'Computer Modern Sans Serif', 'Lucida Grande', 'Verdana', 'Geneva', 'Lucid', 'Arial', 'Helvetica', 'Avant Garde', sans-serif; text-anchor: start" x="542.976563" y="287.380469" transform="rotate(-0 542.976563 287.380469)">Validation Accuracy</text>
    </g>
   </g>
  </g>
 </g>
 <defs>
  <clipPath id="p34cfb3eec7">
   <rect x="65.54" y="19.540139" width="638.26" height="284.459861"/>
  </clipPath>
 </defs>
</svg>
