<?xml version="1.0" encoding="utf-8" standalone="no"?>
<!DOCTYPE svg PUBLIC "-//W3C//DTD SVG 1.1//EN"
  "http://www.w3.org/Graphics/SVG/1.1/DTD/svg11.dtd">
<svg xmlns:xlink="http://www.w3.org/1999/xlink" width="720pt" height="360pt" viewBox="0 0 720 360" xmlns="http://www.w3.org/2000/svg" version="1.1">
 <metadata>
  <rdf:RDF xmlns:dc="http://purl.org/dc/elements/1.1/" xmlns:cc="http://creativecommons.org/ns#" xmlns:rdf="http://www.w3.org/1999/02/22-rdf-syntax-ns#">
   <cc:Work>
    <dc:type rdf:resource="http://purl.org/dc/dcmitype/StillImage"/>
    <dc:date>2023-07-18T21:38:34.158715</dc:date>
    <dc:format>image/svg+xml</dc:format>
    <dc:creator>
     <cc:Agent>
      <dc:title>Matplotlib v3.7.2, https://matplotlib.org/</dc:title>
     </cc:Agent>
    </dc:creator>
   </cc:Work>
  </rdf:RDF>
 </metadata>
 <defs>
  <style type="text/css">*{stroke-linejoin: round; stroke-linecap: butt}</style>
 </defs>
 <g id="figure_1">
  <g id="patch_1">
   <path d="M 0 360 
L 720 360 
L 720 0 
L 0 0 
z
" style="fill: #ffffff"/>
  </g>
  <g id="axes_1">
   <g id="patch_2">
    <path d="M 65.54 304 
L 703.8 304 
L 703.8 16.2 
L 65.54 16.2 
z
" style="fill: #ffffff"/>
   </g>
   <g id="matplotlib.axis_1">
    <g id="xtick_1">
     <g id="line2d_1">
      <defs>
       <path id="m7879ac9c40" d="M 0 0 
L 0 3.5 
" style="stroke: #000000; stroke-width: 0.8"/>
      </defs>
      <g>
       <use xlink:href="#m7879ac9c40" x="93.287687" y="304" style="stroke: #000000; stroke-width: 0.8"/>
      </g>
     </g>
     <g id="text_1">
      <text style="font: 15px 'DejaVu Sans', 'Bitstream Vera Sans', 'Computer Modern Sans Serif', 'Lucida Grande', 'Verdana', 'Geneva', 'Lucid', 'Arial', 'Helvetica', 'Avant Garde', sans-serif; text-anchor: middle" x="93.287687" y="322.397656" transform="rotate(-0 93.287687 322.397656)">0</text>
     </g>
    </g>
    <g id="xtick_2">
     <g id="line2d_2">
      <g>
       <use xlink:href="#m7879ac9c40" x="219.700838" y="304" style="stroke: #000000; stroke-width: 0.8"/>
      </g>
     </g>
     <g id="text_2">
      <text style="font: 15px 'DejaVu Sans', 'Bitstream Vera Sans', 'Computer Modern Sans Serif', 'Lucida Grande', 'Verdana', 'Geneva', 'Lucid', 'Arial', 'Helvetica', 'Avant Garde', sans-serif; text-anchor: middle" x="219.700838" y="322.397656" transform="rotate(-0 219.700838 322.397656)">100</text>
     </g>
    </g>
    <g id="xtick_3">
     <g id="line2d_3">
      <g>
       <use xlink:href="#m7879ac9c40" x="346.113989" y="304" style="stroke: #000000; stroke-width: 0.8"/>
      </g>
     </g>
     <g id="text_3">
      <text style="font: 15px 'DejaVu Sans', 'Bitstream Vera Sans', 'Computer Modern Sans Serif', 'Lucida Grande', 'Verdana', 'Geneva', 'Lucid', 'Arial', 'Helvetica', 'Avant Garde', sans-serif; text-anchor: middle" x="346.113989" y="322.397656" transform="rotate(-0 346.113989 322.397656)">200</text>
     </g>
    </g>
    <g id="xtick_4">
     <g id="line2d_4">
      <g>
       <use xlink:href="#m7879ac9c40" x="472.52714" y="304" style="stroke: #000000; stroke-width: 0.8"/>
      </g>
     </g>
     <g id="text_4">
      <text style="font: 15px 'DejaVu Sans', 'Bitstream Vera Sans', 'Computer Modern Sans Serif', 'Lucida Grande', 'Verdana', 'Geneva', 'Lucid', 'Arial', 'Helvetica', 'Avant Garde', sans-serif; text-anchor: middle" x="472.52714" y="322.397656" transform="rotate(-0 472.52714 322.397656)">300</text>
     </g>
    </g>
    <g id="xtick_5">
     <g id="line2d_5">
      <g>
       <use xlink:href="#m7879ac9c40" x="598.940291" y="304" style="stroke: #000000; stroke-width: 0.8"/>
      </g>
     </g>
     <g id="text_5">
      <text style="font: 15px 'DejaVu Sans', 'Bitstream Vera Sans', 'Computer Modern Sans Serif', 'Lucida Grande', 'Verdana', 'Geneva', 'Lucid', 'Arial', 'Helvetica', 'Avant Garde', sans-serif; text-anchor: middle" x="598.940291" y="322.397656" transform="rotate(-0 598.940291 322.397656)">400</text>
     </g>
    </g>
    <g id="text_6">
     <text style="font: 15px 'DejaVu Sans', 'Bitstream Vera Sans', 'Computer Modern Sans Serif', 'Lucida Grande', 'Verdana', 'Geneva', 'Lucid', 'Arial', 'Helvetica', 'Avant Garde', sans-serif; text-anchor: middle" x="384.67" y="340.914844" transform="rotate(-0 384.67 340.914844)">Epoch</text>
    </g>
   </g>
   <g id="matplotlib.axis_2">
    <g id="ytick_1">
     <g id="line2d_6">
      <defs>
       <path id="m3413f1b086" d="M 0 0 
L -3.5 0 
" style="stroke: #000000; stroke-width: 0.8"/>
      </defs>
      <g>
       <use xlink:href="#m3413f1b086" x="65.54" y="269.656787" style="stroke: #000000; stroke-width: 0.8"/>
      </g>
     </g>
     <g id="text_7">
      <text style="font: 15px 'DejaVu Sans', 'Bitstream Vera Sans', 'Computer Modern Sans Serif', 'Lucida Grande', 'Verdana', 'Geneva', 'Lucid', 'Arial', 'Helvetica', 'Avant Garde', sans-serif; text-anchor: end" x="58.54" y="275.355615" transform="rotate(-0 58.54 275.355615)">0.4</text>
     </g>
    </g>
    <g id="ytick_2">
     <g id="line2d_7">
      <g>
       <use xlink:href="#m3413f1b086" x="65.54" y="229.318884" style="stroke: #000000; stroke-width: 0.8"/>
      </g>
     </g>
     <g id="text_8">
      <text style="font: 15px 'DejaVu Sans', 'Bitstream Vera Sans', 'Computer Modern Sans Serif', 'Lucida Grande', 'Verdana', 'Geneva', 'Lucid', 'Arial', 'Helvetica', 'Avant Garde', sans-serif; text-anchor: end" x="58.54" y="235.017712" transform="rotate(-0 58.54 235.017712)">0.5</text>
     </g>
    </g>
    <g id="ytick_3">
     <g id="line2d_8">
      <g>
       <use xlink:href="#m3413f1b086" x="65.54" y="188.980982" style="stroke: #000000; stroke-width: 0.8"/>
      </g>
     </g>
     <g id="text_9">
      <text style="font: 15px 'DejaVu Sans', 'Bitstream Vera Sans', 'Computer Modern Sans Serif', 'Lucida Grande', 'Verdana', 'Geneva', 'Lucid', 'Arial', 'Helvetica', 'Avant Garde', sans-serif; text-anchor: end" x="58.54" y="194.67981" transform="rotate(-0 58.54 194.67981)">0.6</text>
     </g>
    </g>
    <g id="ytick_4">
     <g id="line2d_9">
      <g>
       <use xlink:href="#m3413f1b086" x="65.54" y="148.64308" style="stroke: #000000; stroke-width: 0.8"/>
      </g>
     </g>
     <g id="text_10">
      <text style="font: 15px 'DejaVu Sans', 'Bitstream Vera Sans', 'Computer Modern Sans Serif', 'Lucida Grande', 'Verdana', 'Geneva', 'Lucid', 'Arial', 'Helvetica', 'Avant Garde', sans-serif; text-anchor: end" x="58.54" y="154.341908" transform="rotate(-0 58.54 154.341908)">0.7</text>
     </g>
    </g>
    <g id="ytick_5">
     <g id="line2d_10">
      <g>
       <use xlink:href="#m3413f1b086" x="65.54" y="108.305177" style="stroke: #000000; stroke-width: 0.8"/>
      </g>
     </g>
     <g id="text_11">
      <text style="font: 15px 'DejaVu Sans', 'Bitstream Vera Sans', 'Computer Modern Sans Serif', 'Lucida Grande', 'Verdana', 'Geneva', 'Lucid', 'Arial', 'Helvetica', 'Avant Garde', sans-serif; text-anchor: end" x="58.54" y="114.004005" transform="rotate(-0 58.54 114.004005)">0.8</text>
     </g>
    </g>
    <g id="ytick_6">
     <g id="line2d_11">
      <g>
       <use xlink:href="#m3413f1b086" x="65.54" y="67.967275" style="stroke: #000000; stroke-width: 0.8"/>
      </g>
     </g>
     <g id="text_12">
      <text style="font: 15px 'DejaVu Sans', 'Bitstream Vera Sans', 'Computer Modern Sans Serif', 'Lucida Grande', 'Verdana', 'Geneva', 'Lucid', 'Arial', 'Helvetica', 'Avant Garde', sans-serif; text-anchor: end" x="58.54" y="73.666103" transform="rotate(-0 58.54 73.666103)">0.9</text>
     </g>
    </g>
    <g id="ytick_7">
     <g id="line2d_12">
      <g>
       <use xlink:href="#m3413f1b086" x="65.54" y="27.629373" style="stroke: #000000; stroke-width: 0.8"/>
      </g>
     </g>
     <g id="text_13">
      <text style="font: 15px 'DejaVu Sans', 'Bitstream Vera Sans', 'Computer Modern Sans Serif', 'Lucida Grande', 'Verdana', 'Geneva', 'Lucid', 'Arial', 'Helvetica', 'Avant Garde', sans-serif; text-anchor: end" x="58.54" y="33.328201" transform="rotate(-0 58.54 33.328201)">1.0</text>
     </g>
    </g>
    <g id="text_14">
     <text style="font: 15px 'DejaVu Sans', 'Bitstream Vera Sans', 'Computer Modern Sans Serif', 'Lucida Grande', 'Verdana', 'Geneva', 'Lucid', 'Arial', 'Helvetica', 'Avant Garde', sans-serif; text-anchor: middle" x="27.565781" y="160.1" transform="rotate(-90 27.565781 160.1)">Accuracy</text>
    </g>
   </g>
   <g id="line2d_13">
    <path d="M 94.551818 290.918182 
L 95.81595 229.594288 
L 97.080081 193.057003 
L 98.344213 169.188414 
L 99.608344 147.89029 
L 102.136607 124.939745 
L 103.400739 119.248007 
L 104.66487 110.067784 
L 105.929002 110.434997 
L 107.193133 103.641621 
L 108.457265 105.294066 
L 109.721396 103.458027 
L 110.985528 95.563036 
L 112.249659 93.359784 
L 113.513791 95.012205 
L 114.777922 87.668046 
L 116.042054 90.054893 
L 117.306185 88.953255 
L 118.570317 90.238487 
L 119.834448 83.445135 
L 121.09858 81.976284 
L 122.362711 81.425477 
L 123.626843 77.202591 
L 124.890974 82.894328 
L 126.155106 79.222225 
L 127.419237 77.753398 
L 128.683369 73.8977 
L 129.9475 74.264913 
L 131.211632 76.468165 
L 132.475764 73.163274 
L 133.739895 68.756769 
L 135.004027 70.409215 
L 136.268158 71.878042 
L 137.53229 67.838749 
L 138.796421 68.205962 
L 140.060553 68.756769 
L 141.324684 65.08469 
L 142.588816 66.553517 
L 143.852947 70.042002 
L 145.117079 68.389557 
L 146.38121 62.881437 
L 147.645342 63.615839 
L 148.909473 63.983051 
L 150.173605 62.514224 
L 151.437736 61.963417 
L 152.701868 59.943759 
L 153.965999 57.1897 
L 155.230131 57.740507 
L 156.494262 61.412586 
L 157.758394 60.127354 
L 159.022525 55.904467 
L 160.286657 58.842121 
L 161.550788 55.35366 
L 162.81492 55.170041 
L 164.079051 56.27168 
L 165.343183 53.334002 
L 166.607314 52.232363 
L 167.871446 55.720848 
L 169.135577 53.884809 
L 170.399709 54.802829 
L 171.66384 54.619234 
L 172.927972 52.232363 
L 174.192103 54.619234 
L 175.456235 52.048769 
L 176.720366 52.232363 
L 177.984498 52.966789 
L 179.248629 48.560284 
L 180.512761 52.783194 
L 181.776892 50.212729 
L 183.041024 49.661898 
L 184.305155 48.560284 
L 185.569287 47.091457 
L 188.09755 50.396324 
L 189.361682 49.111091 
L 190.625813 49.478304 
L 191.889945 50.396324 
L 193.154076 47.275051 
L 194.418208 48.193071 
L 195.682339 48.193071 
L 196.946471 43.602972 
L 198.210602 45.255393 
L 199.474734 44.888204 
L 200.738865 45.439011 
L 202.002997 43.602972 
L 203.267128 46.540626 
L 204.53126 46.357031 
L 205.795391 43.602972 
L 207.059523 45.439011 
L 208.323654 44.704586 
L 209.587786 45.439011 
L 210.851917 46.357031 
L 212.116049 44.153779 
L 213.38018 44.888204 
L 214.644312 42.501333 
L 215.908443 43.419353 
L 217.172575 42.317739 
L 218.436706 44.153779 
L 219.700838 44.520992 
L 220.964969 45.255393 
L 222.229101 41.399719 
L 223.493232 41.766908 
L 224.757364 47.091457 
L 226.021495 43.235759 
L 227.285627 41.216101 
L 228.549758 40.481675 
L 229.81389 42.317739 
L 231.078021 41.216101 
L 232.342153 44.153779 
L 233.606284 42.868546 
L 234.870416 42.868546 
L 236.134547 41.766908 
L 237.398679 42.868546 
L 238.66281 41.766908 
L 239.926942 41.950526 
L 241.191073 41.950526 
L 242.455205 42.501333 
L 243.719337 39.196443 
L 244.983468 39.930868 
L 246.2476 42.317739 
L 247.511731 39.196443 
L 248.775863 40.114486 
L 250.039994 39.747274 
L 251.304126 37.360403 
L 252.568257 41.399719 
L 253.832389 39.747274 
L 255.09652 40.298081 
L 256.360652 40.665294 
L 257.624783 39.380061 
L 258.888915 37.544021 
L 260.153046 36.99319 
L 262.681309 41.583313 
L 263.945441 41.583313 
L 265.209572 40.665294 
L 266.473704 39.012848 
L 267.737835 38.278423 
L 269.001967 40.298081 
L 270.266098 38.645635 
L 271.53023 38.462041 
L 272.794361 39.563655 
L 274.058493 39.380061 
L 275.322624 39.380061 
L 276.586756 37.176808 
L 277.850887 39.930868 
L 279.115019 37.911234 
L 280.37915 37.727616 
L 281.643282 36.442383 
L 282.907413 37.544021 
L 284.171545 37.727616 
L 285.435676 38.094828 
L 286.699808 37.176808 
L 287.963939 39.930868 
L 289.228071 38.278423 
L 290.492202 37.360403 
L 291.756334 37.727616 
L 293.020465 34.973556 
L 294.284597 37.911234 
L 295.548728 37.360403 
L 296.81286 38.829254 
L 298.076991 37.176808 
L 299.341123 36.442383 
L 300.605255 38.278423 
L 301.869386 35.524363 
L 303.133518 36.07517 
L 304.397649 37.360403 
L 305.661781 34.973556 
L 306.925912 35.340769 
L 308.190044 34.789937 
L 309.454175 37.911234 
L 310.718307 34.973556 
L 311.982438 37.727616 
L 313.24657 35.340769 
L 314.510701 35.524363 
L 315.774833 36.07517 
L 317.038964 35.15715 
L 318.303096 36.99319 
L 319.567227 35.707981 
L 320.831359 36.99319 
L 322.09549 37.911234 
L 323.359622 39.012848 
L 325.887885 34.789937 
L 327.152016 35.340769 
L 328.416148 34.606343 
L 329.680279 34.422749 
L 330.944411 36.258789 
L 332.208542 37.360403 
L 333.472674 35.340769 
L 334.736805 35.15715 
L 336.000937 33.871918 
L 337.265068 35.524363 
L 338.5292 34.789937 
L 339.793331 34.606343 
L 341.057463 34.973556 
L 342.321594 34.789937 
L 343.585726 34.973556 
L 344.849857 34.422749 
L 346.113989 36.99319 
L 347.37812 35.15715 
L 348.642252 36.258789 
L 349.906383 36.258789 
L 351.170515 34.973556 
L 352.434646 38.278423 
L 353.698778 36.258789 
L 354.962909 36.809596 
L 356.227041 34.789937 
L 357.491173 35.891576 
L 358.755304 35.524363 
L 360.019436 34.23913 
L 361.283567 34.973556 
L 362.547699 34.789937 
L 363.81183 34.973556 
L 365.075962 33.504705 
L 366.340093 33.688323 
L 367.604225 34.055536 
L 368.868356 36.809596 
L 371.396619 33.871918 
L 372.660751 34.606343 
L 373.924882 36.99319 
L 375.189014 33.504705 
L 376.453145 36.99319 
L 377.717277 35.340769 
L 378.981408 33.137516 
L 380.24554 34.422749 
L 381.509671 35.340769 
L 382.773803 34.789937 
L 384.037934 34.789937 
L 385.302066 35.15715 
L 386.566197 32.586685 
L 387.830329 31.485071 
L 389.09446 33.688323 
L 391.622723 32.586685 
L 392.886855 34.422749 
L 394.150986 33.871918 
L 395.415118 36.626001 
L 396.679249 32.403091 
L 397.943381 34.606343 
L 399.207512 36.442383 
L 400.471644 34.23913 
L 401.735775 32.403091 
L 402.999907 32.770303 
L 404.264038 35.524363 
L 405.52817 33.137516 
L 406.792301 33.688323 
L 408.056433 33.504705 
L 410.584696 32.770303 
L 411.848827 31.852283 
L 413.112959 32.770303 
L 414.377091 35.524363 
L 415.641222 32.035878 
L 416.905354 34.23913 
L 418.169485 35.524363 
L 419.433617 34.789937 
L 420.697748 34.606343 
L 421.96188 31.852283 
L 423.226011 32.953898 
L 424.490143 32.219496 
L 425.754274 34.055536 
L 427.018406 32.586685 
L 429.546669 32.219496 
L 430.8108 31.485071 
L 432.074932 32.219496 
L 433.339063 32.403091 
L 434.603195 32.953898 
L 435.867326 33.688323 
L 437.131458 32.403091 
L 438.395589 31.485071 
L 439.659721 31.668665 
L 440.923852 33.137516 
L 442.187984 30.750645 
L 443.452115 34.422749 
L 444.716247 34.422749 
L 445.980378 34.23913 
L 447.24451 32.586685 
L 448.508641 32.403091 
L 449.772773 33.504705 
L 451.036904 33.688323 
L 452.301036 33.137516 
L 453.565167 32.953898 
L 454.829299 35.340769 
L 456.09343 33.137516 
L 457.357562 34.055536 
L 458.621693 33.688323 
L 459.885825 32.403091 
L 461.149956 32.035878 
L 462.414088 31.852283 
L 463.678219 32.403091 
L 464.942351 32.770303 
L 466.206482 31.485071 
L 467.470614 33.137516 
L 468.734745 31.852283 
L 469.998877 32.219496 
L 471.263009 30.934264 
L 473.791272 32.403091 
L 475.055403 30.750645 
L 476.319535 32.770303 
L 477.583666 31.668665 
L 478.847798 30.01622 
L 480.111929 32.770303 
L 481.376061 33.137516 
L 482.640192 31.852283 
L 483.904324 33.688323 
L 485.168455 32.586685 
L 487.696718 32.219496 
L 488.96085 31.852283 
L 490.224981 31.852283 
L 491.489113 33.871918 
L 492.753244 32.953898 
L 494.017376 33.871918 
L 495.281507 31.117858 
L 496.545639 32.953898 
L 497.80977 31.852283 
L 499.073902 32.403091 
L 500.338033 32.219496 
L 502.866296 31.485071 
L 504.130428 33.688323 
L 505.394559 31.668665 
L 506.658691 31.668665 
L 507.922822 31.485071 
L 509.186954 33.137516 
L 510.451085 32.953898 
L 511.715217 31.301452 
L 512.979348 32.953898 
L 514.24348 32.953898 
L 515.507611 32.586685 
L 516.771743 32.586685 
L 518.035874 35.15715 
L 519.300006 33.688323 
L 521.828269 33.32111 
L 523.0924 32.035878 
L 524.356532 32.953898 
L 525.620663 32.035878 
L 526.884795 31.301452 
L 528.148927 31.117858 
L 529.413058 32.035878 
L 530.67719 31.301452 
L 531.941321 30.934264 
L 533.205453 31.852283 
L 534.469584 31.668665 
L 536.997847 30.934264 
L 538.261979 33.32111 
L 539.52611 30.934264 
L 540.790242 32.586685 
L 543.318505 32.953898 
L 544.582636 32.035878 
L 545.846768 32.770303 
L 547.110899 32.219496 
L 548.375031 31.852283 
L 549.639162 30.934264 
L 550.903294 32.035878 
L 552.167425 33.32111 
L 553.431557 32.586685 
L 554.695688 30.750645 
L 555.95982 29.281818 
L 557.223951 31.117858 
L 558.488083 32.035878 
L 559.752214 32.219496 
L 561.016346 30.750645 
L 562.280477 31.485071 
L 563.544609 32.035878 
L 564.80874 32.035878 
L 566.072872 32.953898 
L 567.337003 31.485071 
L 568.601135 31.301452 
L 569.865266 30.750645 
L 571.129398 29.832625 
L 572.393529 30.383432 
L 573.657661 30.199838 
L 574.921792 33.137516 
L 576.185924 31.852283 
L 577.450055 36.258789 
L 578.714187 31.668665 
L 579.978318 36.626001 
L 581.24245 36.626001 
L 582.506582 33.871918 
L 583.770713 33.871918 
L 585.034845 32.219496 
L 586.298976 32.219496 
L 587.563108 30.01622 
L 588.827239 32.586685 
L 590.091371 33.137516 
L 591.355502 30.199838 
L 592.619634 32.770303 
L 593.883765 30.934264 
L 595.147897 31.668665 
L 596.412028 31.301452 
L 597.67616 30.383432 
L 598.940291 29.832625 
L 600.204423 30.567051 
L 601.468554 31.117858 
L 602.732686 30.934264 
L 603.996817 30.01622 
L 605.260949 32.586685 
L 606.52508 31.852283 
L 607.789212 31.301452 
L 609.053343 31.117858 
L 610.317475 30.383432 
L 611.581606 32.035878 
L 612.845738 32.403091 
L 614.109869 31.668665 
L 615.374001 31.117858 
L 616.638132 30.01622 
L 617.902264 30.383432 
L 619.166395 31.852283 
L 620.430527 29.465413 
L 621.694658 29.832625 
L 622.95879 31.117858 
L 624.222921 31.852283 
L 625.487053 30.567051 
L 626.751184 30.01622 
L 628.015316 30.934264 
L 629.279447 30.750645 
L 630.543579 31.301452 
L 631.80771 29.649031 
L 633.071842 31.117858 
L 634.335973 29.649031 
L 635.600105 30.750645 
L 636.864236 31.301452 
L 638.128368 31.668665 
L 639.3925 31.117858 
L 640.656631 32.219496 
L 641.920763 31.485071 
L 643.184894 31.117858 
L 644.449026 31.485071 
L 645.713157 30.934264 
L 646.977289 30.750645 
L 648.24142 29.649031 
L 649.505552 30.750645 
L 650.769683 31.485071 
L 652.033815 31.852283 
L 653.297946 30.750645 
L 654.562078 30.199838 
L 655.826209 29.832625 
L 657.090341 30.199838 
L 658.354472 30.750645 
L 659.618604 30.750645 
L 660.882735 30.934264 
L 662.146867 30.199838 
L 663.410998 31.301452 
L 664.67513 34.422749 
L 665.939261 31.117858 
L 667.203393 30.934264 
L 668.467524 32.219496 
L 669.731656 30.199838 
L 670.995787 29.649031 
L 672.259919 31.485071 
L 673.52405 30.567051 
L 674.788182 30.750645 
L 674.788182 30.750645 
" clip-path="url(#pa1bcaf2f68)" style="fill: none; stroke: #1f77b4; stroke-width: 1.5; stroke-linecap: square"/>
   </g>
   <g id="line2d_14">
    <path d="M 94.551818 209.232469 
L 95.81595 180.065923 
L 97.080081 132.188741 
L 99.608344 117.330292 
L 100.872476 116.77999 
L 102.136607 105.223427 
L 103.400739 106.324056 
L 104.66487 95.868121 
L 105.929002 99.720309 
L 107.193133 90.915305 
L 108.457265 96.96875 
L 109.721396 89.814677 
L 110.985528 89.814677 
L 112.249659 87.61342 
L 113.513791 86.512815 
L 114.777922 84.861861 
L 116.042054 81.559999 
L 117.306185 82.660628 
L 118.570317 79.909045 
L 119.834448 80.459371 
L 121.09858 73.855624 
L 122.362711 75.506555 
L 123.626843 80.459371 
L 124.890974 72.754996 
L 126.155106 72.204669 
L 127.419237 67.80218 
L 128.683369 68.352482 
L 129.9475 69.45311 
L 131.211632 68.352482 
L 132.475764 68.902808 
L 133.739895 66.701551 
L 135.004027 65.600923 
L 136.268158 63.949992 
L 137.53229 63.949992 
L 141.324684 68.902808 
L 142.588816 62.849364 
L 143.852947 63.949992 
L 145.117079 61.748735 
L 146.38121 62.849364 
L 147.645342 61.198433 
L 148.909473 61.748735 
L 150.173605 60.648131 
L 151.437736 61.198433 
L 152.701868 60.097804 
L 155.230131 62.299061 
L 156.494262 60.648131 
L 157.758394 60.648131 
L 160.286657 58.446874 
L 161.550788 58.997176 
L 164.079051 57.896547 
L 166.607314 57.896547 
L 167.871446 56.245617 
L 169.135577 56.245617 
L 170.399709 57.346245 
L 171.66384 57.346245 
L 172.927972 56.795943 
L 174.192103 57.896547 
L 175.456235 56.795943 
L 176.720366 54.04436 
L 177.984498 57.346245 
L 179.248629 54.04436 
L 180.512761 53.494058 
L 181.776892 54.04436 
L 183.041024 52.943755 
L 184.305155 53.494058 
L 185.569287 53.494058 
L 186.833418 54.04436 
L 188.09755 50.742498 
L 189.361682 50.742498 
L 191.889945 51.843127 
L 193.154076 51.292801 
L 194.418208 51.843127 
L 195.682339 50.192172 
L 196.946471 51.292801 
L 198.210602 49.091568 
L 199.474734 49.64187 
L 200.738865 49.64187 
L 202.002997 51.843127 
L 203.267128 50.742498 
L 204.53126 49.091568 
L 205.795391 48.541242 
L 207.059523 52.393429 
L 208.323654 50.742498 
L 209.587786 49.64187 
L 210.851917 50.742498 
L 212.116049 49.091568 
L 213.38018 52.943755 
L 214.644312 47.990939 
L 215.908443 48.541242 
L 217.172575 52.943755 
L 218.436706 47.440613 
L 219.700838 48.541242 
L 220.964969 50.192172 
L 222.229101 46.339985 
L 223.493232 47.440613 
L 224.757364 49.091568 
L 226.021495 46.890311 
L 227.285627 48.541242 
L 228.549758 48.541242 
L 229.81389 47.440613 
L 231.078021 49.091568 
L 232.342153 49.091568 
L 233.606284 49.64187 
L 234.870416 48.541242 
L 236.134547 45.789682 
L 237.398679 46.339985 
L 238.66281 47.990939 
L 239.926942 46.339985 
L 241.191073 47.440613 
L 242.455205 46.890311 
L 243.719337 46.890311 
L 244.983468 47.990939 
L 247.511731 46.890311 
L 248.775863 45.23938 
L 250.039994 46.890311 
L 251.304126 47.990939 
L 252.568257 44.689054 
L 253.832389 45.789682 
L 255.09652 45.23938 
L 256.360652 45.23938 
L 257.624783 46.339985 
L 258.888915 44.689054 
L 260.153046 45.23938 
L 261.417178 44.138752 
L 262.681309 45.789682 
L 263.945441 48.541242 
L 265.209572 45.789682 
L 266.473704 44.689054 
L 267.737835 44.138752 
L 269.001967 44.138752 
L 272.794361 45.789682 
L 274.058493 43.038123 
L 275.322624 44.138752 
L 276.586756 44.138752 
L 277.850887 47.440613 
L 279.115019 46.339985 
L 280.37915 46.890311 
L 281.643282 41.937495 
L 282.907413 46.890311 
L 284.171545 43.038123 
L 285.435676 45.789682 
L 286.699808 42.487797 
L 287.963939 44.689054 
L 289.228071 41.937495 
L 290.492202 44.689054 
L 291.756334 42.487797 
L 293.020465 41.937495 
L 294.284597 44.689054 
L 295.548728 44.689054 
L 296.81286 46.890311 
L 298.076991 44.138752 
L 299.341123 43.038123 
L 300.605255 43.038123 
L 301.869386 46.890311 
L 303.133518 43.038123 
L 304.397649 45.23938 
L 305.661781 44.138752 
L 306.925912 44.689054 
L 308.190044 44.689054 
L 309.454175 44.138752 
L 310.718307 43.038123 
L 311.982438 46.890311 
L 313.24657 44.138752 
L 314.510701 41.937495 
L 315.774833 44.138752 
L 317.038964 43.588425 
L 318.303096 41.387193 
L 319.567227 44.138752 
L 320.831359 42.487797 
L 322.09549 44.138752 
L 324.623753 45.23938 
L 325.887885 46.339985 
L 327.152016 42.487797 
L 328.416148 41.387193 
L 329.680279 47.990939 
L 330.944411 43.588425 
L 332.208542 46.339985 
L 333.472674 43.038123 
L 334.736805 43.038123 
L 336.000937 44.138752 
L 337.265068 44.138752 
L 338.5292 41.387193 
L 339.793331 39.736238 
L 341.057463 42.487797 
L 342.321594 42.487797 
L 343.585726 43.038123 
L 344.849857 41.387193 
L 346.113989 42.487797 
L 347.37812 41.937495 
L 348.642252 43.588425 
L 349.906383 43.588425 
L 351.170515 40.836866 
L 352.434646 41.937495 
L 353.698778 47.990939 
L 354.962909 44.138752 
L 356.227041 43.038123 
L 357.491173 40.286564 
L 358.755304 41.387193 
L 361.283567 44.689054 
L 362.547699 42.487797 
L 363.81183 44.138752 
L 365.075962 41.387193 
L 367.604225 42.487797 
L 368.868356 45.789682 
L 370.132488 44.138752 
L 371.396619 41.387193 
L 372.660751 41.387193 
L 373.924882 42.487797 
L 375.189014 40.836866 
L 376.453145 42.487797 
L 377.717277 39.736238 
L 378.981408 39.185936 
L 380.24554 40.836866 
L 381.509671 41.387193 
L 382.773803 43.038123 
L 384.037934 43.038123 
L 385.302066 40.286564 
L 386.566197 42.487797 
L 387.830329 41.937495 
L 389.09446 40.836866 
L 390.358592 43.038123 
L 391.622723 42.487797 
L 392.886855 40.836866 
L 394.150986 46.339985 
L 395.415118 41.937495 
L 396.679249 40.836866 
L 397.943381 42.487797 
L 399.207512 40.286564 
L 400.471644 42.487797 
L 401.735775 40.836866 
L 402.999907 40.286564 
L 404.264038 42.487797 
L 405.52817 43.588425 
L 406.792301 42.487797 
L 408.056433 44.689054 
L 409.320564 42.487797 
L 410.584696 43.038123 
L 411.848827 43.038123 
L 413.112959 41.937495 
L 414.377091 42.487797 
L 415.641222 40.836866 
L 416.905354 41.937495 
L 418.169485 40.836866 
L 419.433617 42.487797 
L 420.697748 41.937495 
L 421.96188 40.286564 
L 423.226011 44.138752 
L 424.490143 40.836866 
L 425.754274 44.689054 
L 427.018406 42.487797 
L 428.282537 41.937495 
L 429.546669 42.487797 
L 430.8108 40.286564 
L 432.074932 41.387193 
L 433.339063 41.937495 
L 434.603195 41.387193 
L 435.867326 45.789682 
L 437.131458 40.286564 
L 438.395589 40.836866 
L 439.659721 41.937495 
L 440.923852 40.286564 
L 442.187984 42.487797 
L 443.452115 40.286564 
L 445.980378 42.487797 
L 447.24451 40.286564 
L 448.508641 39.736238 
L 451.036904 40.836866 
L 452.301036 40.286564 
L 453.565167 42.487797 
L 454.829299 40.286564 
L 456.09343 40.836866 
L 457.357562 42.487797 
L 458.621693 43.038123 
L 459.885825 40.836866 
L 461.149956 42.487797 
L 462.414088 40.286564 
L 464.942351 42.487797 
L 466.206482 42.487797 
L 467.470614 40.836866 
L 468.734745 40.286564 
L 469.998877 40.286564 
L 471.263009 41.387193 
L 472.52714 40.286564 
L 473.791272 40.836866 
L 475.055403 43.588425 
L 476.319535 40.836866 
L 477.583666 41.937495 
L 478.847798 42.487797 
L 480.111929 39.736238 
L 481.376061 41.387193 
L 482.640192 42.487797 
L 483.904324 41.387193 
L 485.168455 41.387193 
L 486.432587 41.937495 
L 487.696718 40.836866 
L 488.96085 43.588425 
L 490.224981 43.038123 
L 491.489113 44.689054 
L 492.753244 42.487797 
L 494.017376 45.23938 
L 495.281507 39.736238 
L 496.545639 43.038123 
L 497.80977 41.387193 
L 499.073902 41.937495 
L 500.338033 43.588425 
L 501.602165 40.836866 
L 502.866296 43.588425 
L 504.130428 41.937495 
L 505.394559 41.387193 
L 506.658691 41.387193 
L 507.922822 39.736238 
L 509.186954 41.387193 
L 510.451085 39.736238 
L 511.715217 43.038123 
L 512.979348 39.736238 
L 514.24348 41.387193 
L 515.507611 39.736238 
L 516.771743 41.387193 
L 518.035874 42.487797 
L 519.300006 40.286564 
L 520.564137 41.387193 
L 521.828269 43.038123 
L 523.0924 40.836866 
L 524.356532 41.387193 
L 525.620663 43.038123 
L 528.148927 40.836866 
L 529.413058 40.836866 
L 530.67719 41.937495 
L 531.941321 40.836866 
L 533.205453 40.836866 
L 534.469584 41.387193 
L 535.733716 41.387193 
L 536.997847 40.286564 
L 538.261979 41.937495 
L 539.52611 41.387193 
L 540.790242 41.937495 
L 542.054373 40.286564 
L 543.318505 40.286564 
L 544.582636 40.836866 
L 545.846768 42.487797 
L 547.110899 43.588425 
L 548.375031 39.185936 
L 549.639162 44.138752 
L 550.903294 43.038123 
L 552.167425 39.736238 
L 553.431557 41.937495 
L 554.695688 41.387193 
L 555.95982 41.387193 
L 557.223951 43.038123 
L 558.488083 40.836866 
L 559.752214 40.286564 
L 561.016346 40.286564 
L 562.280477 39.736238 
L 563.544609 40.286564 
L 564.80874 39.736238 
L 566.072872 40.286564 
L 567.337003 41.387193 
L 568.601135 39.736238 
L 569.865266 40.286564 
L 571.129398 39.736238 
L 572.393529 40.836866 
L 573.657661 39.736238 
L 576.185924 41.937495 
L 577.450055 40.836866 
L 578.714187 41.387193 
L 579.978318 42.487797 
L 581.24245 43.038123 
L 582.506582 43.038123 
L 583.770713 44.138752 
L 585.034845 41.387193 
L 587.563108 41.387193 
L 588.827239 42.487797 
L 590.091371 40.836866 
L 591.355502 40.836866 
L 592.619634 39.185936 
L 593.883765 42.487797 
L 595.147897 41.387193 
L 596.412028 39.736238 
L 597.67616 41.387193 
L 598.940291 41.937495 
L 600.204423 41.387193 
L 601.468554 40.286564 
L 602.732686 41.387193 
L 603.996817 41.387193 
L 605.260949 42.487797 
L 606.52508 41.387193 
L 607.789212 39.736238 
L 609.053343 40.836866 
L 610.317475 41.387193 
L 611.581606 43.038123 
L 614.109869 40.836866 
L 615.374001 41.937495 
L 616.638132 41.387193 
L 617.902264 41.387193 
L 619.166395 41.937495 
L 621.694658 40.836866 
L 622.95879 39.736238 
L 624.222921 40.836866 
L 625.487053 40.286564 
L 626.751184 42.487797 
L 628.015316 40.836866 
L 629.279447 40.836866 
L 630.543579 40.286564 
L 631.80771 41.937495 
L 633.071842 39.736238 
L 634.335973 42.487797 
L 635.600105 41.387193 
L 636.864236 41.937495 
L 638.128368 41.937495 
L 639.3925 43.588425 
L 640.656631 41.387193 
L 641.920763 40.286564 
L 643.184894 41.937495 
L 644.449026 39.736238 
L 645.713157 42.487797 
L 646.977289 40.286564 
L 648.24142 39.736238 
L 649.505552 41.937495 
L 650.769683 41.937495 
L 652.033815 41.387193 
L 653.297946 41.937495 
L 654.562078 40.836866 
L 655.826209 39.185936 
L 657.090341 43.588425 
L 659.618604 40.286564 
L 660.882735 40.286564 
L 662.146867 42.487797 
L 663.410998 40.836866 
L 664.67513 40.836866 
L 665.939261 39.185936 
L 667.203393 41.387193 
L 668.467524 40.286564 
L 669.731656 40.286564 
L 672.259919 43.588425 
L 673.52405 40.836866 
L 674.788182 42.487797 
L 674.788182 42.487797 
" clip-path="url(#pa1bcaf2f68)" style="fill: none; stroke: #ff7f0e; stroke-width: 1.5; stroke-linecap: square"/>
   </g>
   <g id="patch_3">
    <path d="M 65.54 304 
L 65.54 16.2 
" style="fill: none; stroke: #000000; stroke-width: 0.8; stroke-linejoin: miter; stroke-linecap: square"/>
   </g>
   <g id="patch_4">
    <path d="M 703.8 304 
L 703.8 16.2 
" style="fill: none; stroke: #000000; stroke-width: 0.8; stroke-linejoin: miter; stroke-linecap: square"/>
   </g>
   <g id="patch_5">
    <path d="M 65.54 304 
L 703.8 304 
" style="fill: none; stroke: #000000; stroke-width: 0.8; stroke-linejoin: miter; stroke-linecap: square"/>
   </g>
   <g id="patch_6">
    <path d="M 65.54 16.2 
L 703.8 16.2 
" style="fill: none; stroke: #000000; stroke-width: 0.8; stroke-linejoin: miter; stroke-linecap: square"/>
   </g>
   <g id="legend_1">
    <g id="patch_7">
     <path d="M 497.976563 296.5 
L 693.3 296.5 
Q 696.3 296.5 696.3 293.5 
L 696.3 250.965625 
Q 696.3 247.965625 693.3 247.965625 
L 497.976563 247.965625 
Q 494.976563 247.965625 494.976563 250.965625 
L 494.976563 293.5 
Q 494.976563 296.5 497.976563 296.5 
z
" style="fill: #ffffff; opacity: 0.8; stroke: #cccccc; stroke-linejoin: miter"/>
    </g>
    <g id="line2d_15">
     <path d="M 500.976563 260.113281 
L 515.976562 260.113281 
L 530.976562 260.113281 
" style="fill: none; stroke: #1f77b4; stroke-width: 1.5; stroke-linecap: square"/>
    </g>
    <g id="text_15">
     <text style="font: 15px 'DejaVu Sans', 'Bitstream Vera Sans', 'Computer Modern Sans Serif', 'Lucida Grande', 'Verdana', 'Geneva', 'Lucid', 'Arial', 'Helvetica', 'Avant Garde', sans-serif; text-anchor: start" x="542.976562" y="265.363281" transform="rotate(-0 542.976562 265.363281)">Training Accuracy</text>
    </g>
    <g id="line2d_16">
     <path d="M 500.976563 282.130469 
L 515.976562 282.130469 
L 530.976562 282.130469 
" style="fill: none; stroke: #ff7f0e; stroke-width: 1.5; stroke-linecap: square"/>
    </g>
    <g id="text_16">
     <text style="font: 15px 'DejaVu Sans', 'Bitstream Vera Sans', 'Computer Modern Sans Serif', 'Lucida Grande', 'Verdana', 'Geneva', 'Lucid', 'Arial', 'Helvetica', 'Avant Garde', sans-serif; text-anchor: start" x="542.976562" y="287.380469" transform="rotate(-0 542.976562 287.380469)">Validation Accuracy</text>
    </g>
   </g>
  </g>
 </g>
 <defs>
  <clipPath id="pa1bcaf2f68">
   <rect x="65.54" y="16.2" width="638.26" height="287.8"/>
  </clipPath>
 </defs>
</svg>
