<?xml version="1.0" encoding="utf-8" standalone="no"?>
<!DOCTYPE svg PUBLIC "-//W3C//DTD SVG 1.1//EN"
  "http://www.w3.org/Graphics/SVG/1.1/DTD/svg11.dtd">
<svg xmlns:xlink="http://www.w3.org/1999/xlink" width="720pt" height="360pt" viewBox="0 0 720 360" xmlns="http://www.w3.org/2000/svg" version="1.1">
 <metadata>
  <rdf:RDF xmlns:dc="http://purl.org/dc/elements/1.1/" xmlns:cc="http://creativecommons.org/ns#" xmlns:rdf="http://www.w3.org/1999/02/22-rdf-syntax-ns#">
   <cc:Work>
    <dc:type rdf:resource="http://purl.org/dc/dcmitype/StillImage"/>
    <dc:date>2023-07-18T21:38:34.296353</dc:date>
    <dc:format>image/svg+xml</dc:format>
    <dc:creator>
     <cc:Agent>
      <dc:title>Matplotlib v3.7.2, https://matplotlib.org/</dc:title>
     </cc:Agent>
    </dc:creator>
   </cc:Work>
  </rdf:RDF>
 </metadata>
 <defs>
  <style type="text/css">*{stroke-linejoin: round; stroke-linecap: butt}</style>
 </defs>
 <g id="figure_1">
  <g id="patch_1">
   <path d="M 0 360 
L 720 360 
L 720 0 
L 0 0 
z
" style="fill: #ffffff"/>
  </g>
  <g id="axes_1">
   <g id="patch_2">
    <path d="M 65.54 304 
L 703.8 304 
L 703.8 20.67475 
L 65.54 20.67475 
z
" style="fill: #ffffff"/>
   </g>
   <g id="matplotlib.axis_1">
    <g id="xtick_1">
     <g id="line2d_1">
      <defs>
       <path id="m36b5a18709" d="M 0 0 
L 0 3.5 
" style="stroke: #000000; stroke-width: 0.8"/>
      </defs>
      <g>
       <use xlink:href="#m36b5a18709" x="93.287687" y="304" style="stroke: #000000; stroke-width: 0.8"/>
      </g>
     </g>
     <g id="text_1">
      <text style="font: 15px 'DejaVu Sans', 'Bitstream Vera Sans', 'Computer Modern Sans Serif', 'Lucida Grande', 'Verdana', 'Geneva', 'Lucid', 'Arial', 'Helvetica', 'Avant Garde', sans-serif; text-anchor: middle" x="93.287687" y="322.397656" transform="rotate(-0 93.287687 322.397656)">0</text>
     </g>
    </g>
    <g id="xtick_2">
     <g id="line2d_2">
      <g>
       <use xlink:href="#m36b5a18709" x="219.700838" y="304" style="stroke: #000000; stroke-width: 0.8"/>
      </g>
     </g>
     <g id="text_2">
      <text style="font: 15px 'DejaVu Sans', 'Bitstream Vera Sans', 'Computer Modern Sans Serif', 'Lucida Grande', 'Verdana', 'Geneva', 'Lucid', 'Arial', 'Helvetica', 'Avant Garde', sans-serif; text-anchor: middle" x="219.700838" y="322.397656" transform="rotate(-0 219.700838 322.397656)">100</text>
     </g>
    </g>
    <g id="xtick_3">
     <g id="line2d_3">
      <g>
       <use xlink:href="#m36b5a18709" x="346.113989" y="304" style="stroke: #000000; stroke-width: 0.8"/>
      </g>
     </g>
     <g id="text_3">
      <text style="font: 15px 'DejaVu Sans', 'Bitstream Vera Sans', 'Computer Modern Sans Serif', 'Lucida Grande', 'Verdana', 'Geneva', 'Lucid', 'Arial', 'Helvetica', 'Avant Garde', sans-serif; text-anchor: middle" x="346.113989" y="322.397656" transform="rotate(-0 346.113989 322.397656)">200</text>
     </g>
    </g>
    <g id="xtick_4">
     <g id="line2d_4">
      <g>
       <use xlink:href="#m36b5a18709" x="472.52714" y="304" style="stroke: #000000; stroke-width: 0.8"/>
      </g>
     </g>
     <g id="text_4">
      <text style="font: 15px 'DejaVu Sans', 'Bitstream Vera Sans', 'Computer Modern Sans Serif', 'Lucida Grande', 'Verdana', 'Geneva', 'Lucid', 'Arial', 'Helvetica', 'Avant Garde', sans-serif; text-anchor: middle" x="472.52714" y="322.397656" transform="rotate(-0 472.52714 322.397656)">300</text>
     </g>
    </g>
    <g id="xtick_5">
     <g id="line2d_5">
      <g>
       <use xlink:href="#m36b5a18709" x="598.940291" y="304" style="stroke: #000000; stroke-width: 0.8"/>
      </g>
     </g>
     <g id="text_5">
      <text style="font: 15px 'DejaVu Sans', 'Bitstream Vera Sans', 'Computer Modern Sans Serif', 'Lucida Grande', 'Verdana', 'Geneva', 'Lucid', 'Arial', 'Helvetica', 'Avant Garde', sans-serif; text-anchor: middle" x="598.940291" y="322.397656" transform="rotate(-0 598.940291 322.397656)">400</text>
     </g>
    </g>
    <g id="text_6">
     <text style="font: 15px 'DejaVu Sans', 'Bitstream Vera Sans', 'Computer Modern Sans Serif', 'Lucida Grande', 'Verdana', 'Geneva', 'Lucid', 'Arial', 'Helvetica', 'Avant Garde', sans-serif; text-anchor: middle" x="384.67" y="340.914844" transform="rotate(-0 384.67 340.914844)">Epochs</text>
    </g>
   </g>
   <g id="matplotlib.axis_2">
    <g id="ytick_1">
     <g id="line2d_6">
      <defs>
       <path id="md08fe54800" d="M 0 0 
L -3.5 0 
" style="stroke: #000000; stroke-width: 0.8"/>
      </defs>
      <g>
       <use xlink:href="#md08fe54800" x="65.54" y="293.895256" style="stroke: #000000; stroke-width: 0.8"/>
      </g>
     </g>
     <g id="text_7">
      <text style="font: 15px 'DejaVu Sans', 'Bitstream Vera Sans', 'Computer Modern Sans Serif', 'Lucida Grande', 'Verdana', 'Geneva', 'Lucid', 'Arial', 'Helvetica', 'Avant Garde', sans-serif; text-anchor: end" x="58.54" y="299.594084" transform="rotate(-0 58.54 299.594084)">0.0</text>
     </g>
    </g>
    <g id="ytick_2">
     <g id="line2d_7">
      <g>
       <use xlink:href="#md08fe54800" x="65.54" y="255.05142" style="stroke: #000000; stroke-width: 0.8"/>
      </g>
     </g>
     <g id="text_8">
      <text style="font: 15px 'DejaVu Sans', 'Bitstream Vera Sans', 'Computer Modern Sans Serif', 'Lucida Grande', 'Verdana', 'Geneva', 'Lucid', 'Arial', 'Helvetica', 'Avant Garde', sans-serif; text-anchor: end" x="58.54" y="260.750248" transform="rotate(-0 58.54 260.750248)">0.2</text>
     </g>
    </g>
    <g id="ytick_3">
     <g id="line2d_8">
      <g>
       <use xlink:href="#md08fe54800" x="65.54" y="216.207583" style="stroke: #000000; stroke-width: 0.8"/>
      </g>
     </g>
     <g id="text_9">
      <text style="font: 15px 'DejaVu Sans', 'Bitstream Vera Sans', 'Computer Modern Sans Serif', 'Lucida Grande', 'Verdana', 'Geneva', 'Lucid', 'Arial', 'Helvetica', 'Avant Garde', sans-serif; text-anchor: end" x="58.54" y="221.906411" transform="rotate(-0 58.54 221.906411)">0.4</text>
     </g>
    </g>
    <g id="ytick_4">
     <g id="line2d_9">
      <g>
       <use xlink:href="#md08fe54800" x="65.54" y="177.363746" style="stroke: #000000; stroke-width: 0.8"/>
      </g>
     </g>
     <g id="text_10">
      <text style="font: 15px 'DejaVu Sans', 'Bitstream Vera Sans', 'Computer Modern Sans Serif', 'Lucida Grande', 'Verdana', 'Geneva', 'Lucid', 'Arial', 'Helvetica', 'Avant Garde', sans-serif; text-anchor: end" x="58.54" y="183.062575" transform="rotate(-0 58.54 183.062575)">0.6</text>
     </g>
    </g>
    <g id="ytick_5">
     <g id="line2d_10">
      <g>
       <use xlink:href="#md08fe54800" x="65.54" y="138.51991" style="stroke: #000000; stroke-width: 0.8"/>
      </g>
     </g>
     <g id="text_11">
      <text style="font: 15px 'DejaVu Sans', 'Bitstream Vera Sans', 'Computer Modern Sans Serif', 'Lucida Grande', 'Verdana', 'Geneva', 'Lucid', 'Arial', 'Helvetica', 'Avant Garde', sans-serif; text-anchor: end" x="58.54" y="144.218738" transform="rotate(-0 58.54 144.218738)">0.8</text>
     </g>
    </g>
    <g id="ytick_6">
     <g id="line2d_11">
      <g>
       <use xlink:href="#md08fe54800" x="65.54" y="99.676073" style="stroke: #000000; stroke-width: 0.8"/>
      </g>
     </g>
     <g id="text_12">
      <text style="font: 15px 'DejaVu Sans', 'Bitstream Vera Sans', 'Computer Modern Sans Serif', 'Lucida Grande', 'Verdana', 'Geneva', 'Lucid', 'Arial', 'Helvetica', 'Avant Garde', sans-serif; text-anchor: end" x="58.54" y="105.374901" transform="rotate(-0 58.54 105.374901)">1.0</text>
     </g>
    </g>
    <g id="ytick_7">
     <g id="line2d_12">
      <g>
       <use xlink:href="#md08fe54800" x="65.54" y="60.832237" style="stroke: #000000; stroke-width: 0.8"/>
      </g>
     </g>
     <g id="text_13">
      <text style="font: 15px 'DejaVu Sans', 'Bitstream Vera Sans', 'Computer Modern Sans Serif', 'Lucida Grande', 'Verdana', 'Geneva', 'Lucid', 'Arial', 'Helvetica', 'Avant Garde', sans-serif; text-anchor: end" x="58.54" y="66.531065" transform="rotate(-0 58.54 66.531065)">1.2</text>
     </g>
    </g>
    <g id="ytick_8">
     <g id="line2d_13">
      <g>
       <use xlink:href="#md08fe54800" x="65.54" y="21.9884" style="stroke: #000000; stroke-width: 0.8"/>
      </g>
     </g>
     <g id="text_14">
      <text style="font: 15px 'DejaVu Sans', 'Bitstream Vera Sans', 'Computer Modern Sans Serif', 'Lucida Grande', 'Verdana', 'Geneva', 'Lucid', 'Arial', 'Helvetica', 'Avant Garde', sans-serif; text-anchor: end" x="58.54" y="27.687228" transform="rotate(-0 58.54 27.687228)">1.4</text>
     </g>
    </g>
    <g id="text_15">
     <text style="font: 15px 'DejaVu Sans', 'Bitstream Vera Sans', 'Computer Modern Sans Serif', 'Lucida Grande', 'Verdana', 'Geneva', 'Lucid', 'Arial', 'Helvetica', 'Avant Garde', sans-serif; text-anchor: middle" x="27.565781" y="162.337375" transform="rotate(-90 27.565781 162.337375)">Loss</text>
    </g>
   </g>
   <g id="line2d_14">
    <path d="M 94.551818 33.553171 
L 95.81595 76.148592 
L 97.080081 111.023562 
L 98.344213 135.239443 
L 99.608344 150.468766 
L 100.872476 161.120967 
L 102.136607 168.748506 
L 103.400739 178.099466 
L 104.66487 184.046581 
L 105.929002 187.807348 
L 107.193133 193.081795 
L 108.457265 195.90916 
L 110.985528 202.63405 
L 112.249659 208.534188 
L 113.513791 208.050933 
L 114.777922 210.052706 
L 117.306185 215.669443 
L 118.570317 215.447437 
L 119.834448 217.832614 
L 121.09858 221.207015 
L 122.362711 223.550372 
L 123.626843 224.381376 
L 124.890974 223.757821 
L 126.155106 227.846529 
L 127.419237 228.883962 
L 128.683369 231.437552 
L 131.211632 230.107301 
L 132.475764 233.716418 
L 133.739895 233.957131 
L 135.004027 238.178019 
L 136.268158 238.475954 
L 137.53229 238.231142 
L 138.796421 239.54521 
L 140.060553 238.452124 
L 141.324684 242.549486 
L 142.588816 242.62626 
L 143.852947 240.342122 
L 145.117079 241.089388 
L 146.38121 244.077612 
L 147.645342 245.878356 
L 148.909473 244.117823 
L 150.173605 246.8105 
L 151.437736 247.172348 
L 152.701868 249.247417 
L 153.965999 249.598271 
L 155.230131 250.313424 
L 156.494262 249.529588 
L 157.758394 251.947361 
L 159.022525 253.025159 
L 160.286657 252.600413 
L 162.81492 256.006871 
L 164.079051 258.505885 
L 165.343183 256.81421 
L 166.607314 257.227162 
L 167.871446 256.079753 
L 169.135577 257.906021 
L 170.399709 257.79388 
L 171.66384 256.383749 
L 172.927972 258.475977 
L 174.192103 258.175252 
L 176.720366 260.587518 
L 177.984498 260.10037 
L 179.248629 262.454618 
L 180.512761 261.905206 
L 181.776892 262.179381 
L 183.041024 264.231167 
L 184.305155 264.563944 
L 185.569287 265.597118 
L 186.833418 262.548088 
L 188.09755 262.485463 
L 189.361682 264.524677 
L 190.625813 265.774682 
L 191.889945 264.189385 
L 193.154076 266.501779 
L 194.418208 265.409809 
L 195.682339 266.893074 
L 196.946471 269.44847 
L 198.210602 268.876245 
L 199.474734 268.944163 
L 200.738865 268.38679 
L 202.002997 270.902379 
L 203.267128 267.137289 
L 204.53126 267.411296 
L 205.795391 271.434167 
L 207.059523 269.938687 
L 208.323654 270.500821 
L 209.587786 271.243098 
L 210.851917 267.950234 
L 212.116049 270.310841 
L 213.38018 270.943344 
L 214.644312 271.12106 
L 215.908443 272.8662 
L 217.172575 272.920899 
L 218.436706 273.271176 
L 219.700838 272.713564 
L 220.964969 269.820144 
L 222.229101 274.602196 
L 223.493232 274.298439 
L 224.757364 268.908366 
L 226.021495 269.588599 
L 227.285627 275.318038 
L 228.549758 277.202495 
L 229.81389 274.130941 
L 231.078021 273.192995 
L 232.342153 273.084204 
L 233.606284 274.011813 
L 234.870416 274.40457 
L 236.134547 276.176463 
L 237.398679 274.728392 
L 238.66281 275.011724 
L 239.926942 274.746578 
L 241.191073 275.535395 
L 242.455205 276.111498 
L 243.719337 278.028888 
L 244.983468 277.89713 
L 246.2476 272.863848 
L 247.511731 277.667555 
L 248.775863 277.056793 
L 250.039994 278.148604 
L 251.304126 279.724248 
L 252.568257 276.419566 
L 253.832389 277.674004 
L 255.09652 277.266052 
L 256.360652 275.395738 
L 257.624783 279.378206 
L 258.888915 278.307256 
L 260.153046 279.672667 
L 261.417178 278.341325 
L 262.681309 275.214636 
L 263.945441 277.324475 
L 265.209572 277.297622 
L 266.473704 277.620545 
L 267.737835 279.250635 
L 269.001967 278.230938 
L 270.266098 279.440103 
L 271.53023 278.875167 
L 272.794361 279.240799 
L 274.058493 279.346624 
L 275.322624 279.032259 
L 276.586756 281.281106 
L 277.850887 278.594819 
L 279.115019 279.092454 
L 280.37915 280.772055 
L 281.643282 281.277148 
L 282.907413 280.492567 
L 284.171545 281.153847 
L 285.435676 280.461773 
L 286.699808 280.445689 
L 287.963939 276.136254 
L 290.492202 281.223056 
L 291.756334 279.107254 
L 293.020465 282.556468 
L 294.284597 280.128603 
L 295.548728 279.951013 
L 296.81286 279.58766 
L 298.076991 280.042234 
L 299.341123 279.815194 
L 300.605255 281.830858 
L 301.869386 283.511572 
L 303.133518 282.048717 
L 304.397649 279.839594 
L 305.661781 283.590691 
L 306.925912 281.956148 
L 308.190044 283.505419 
L 309.454175 280.549388 
L 310.718307 282.531696 
L 311.982438 281.87475 
L 313.24657 283.162103 
L 314.510701 282.415238 
L 317.038964 284.200065 
L 318.303096 282.191269 
L 319.567227 284.012831 
L 320.831359 281.574698 
L 322.09549 280.577263 
L 323.359622 280.367557 
L 324.623753 283.500324 
L 328.416148 282.748178 
L 329.680279 284.291367 
L 330.944411 281.290811 
L 332.208542 279.913054 
L 333.472674 282.834659 
L 334.736805 282.568648 
L 336.000937 285.077836 
L 337.265068 284.222333 
L 338.5292 283.669015 
L 339.793331 284.157378 
L 341.057463 284.518389 
L 342.321594 283.120624 
L 343.585726 283.806606 
L 344.849857 284.953158 
L 346.113989 281.983908 
L 347.37812 283.968895 
L 348.642252 281.61121 
L 349.906383 283.153833 
L 351.170515 282.638246 
L 352.434646 280.309102 
L 353.698778 282.7009 
L 354.962909 280.975682 
L 356.227041 282.644455 
L 357.491173 281.329874 
L 358.755304 283.126429 
L 360.019436 284.69241 
L 361.283567 284.078583 
L 362.547699 284.271556 
L 363.81183 282.997395 
L 365.075962 284.503106 
L 366.340093 285.168172 
L 367.604225 285.300104 
L 368.868356 282.006307 
L 370.132488 282.381167 
L 371.396619 284.276146 
L 372.660751 285.303498 
L 373.924882 282.89949 
L 375.189014 286.347158 
L 377.717277 282.728318 
L 378.981408 285.499326 
L 381.509671 284.543253 
L 382.773803 284.083748 
L 384.037934 283.997631 
L 385.302066 283.406318 
L 386.566197 286.795076 
L 387.830329 287.40994 
L 389.09446 284.561071 
L 391.622723 286.609866 
L 392.886855 283.721371 
L 394.150986 285.39115 
L 395.415118 281.759665 
L 396.679249 286.358228 
L 397.943381 284.416711 
L 399.207512 283.335894 
L 400.471644 283.973959 
L 401.735775 286.914505 
L 404.264038 284.772362 
L 406.792301 285.86071 
L 408.056433 286.119978 
L 409.320564 285.439121 
L 410.584696 285.385901 
L 411.848827 287.5569 
L 413.112959 287.450846 
L 414.377091 283.683162 
L 415.641222 286.974024 
L 416.905354 285.654548 
L 418.169485 283.972682 
L 419.433617 285.275503 
L 420.697748 284.131491 
L 421.96188 286.372972 
L 423.226011 287.333846 
L 425.754274 286.680392 
L 427.018406 286.545382 
L 428.282537 285.74865 
L 429.546669 287.351458 
L 430.8108 288.706559 
L 432.074932 287.783534 
L 433.339063 286.198493 
L 434.603195 286.454021 
L 435.867326 285.715732 
L 437.131458 287.348835 
L 438.395589 287.236332 
L 439.659721 288.343938 
L 440.923852 287.841048 
L 442.187984 288.431525 
L 443.452115 284.413122 
L 444.716247 285.739522 
L 445.980378 286.1906 
L 447.24451 286.47045 
L 448.508641 286.992824 
L 449.772773 286.261546 
L 451.036904 285.855709 
L 452.301036 287.1416 
L 454.829299 282.955125 
L 456.09343 285.767006 
L 457.357562 285.424731 
L 458.621693 285.585359 
L 459.885825 285.90515 
L 461.149956 287.134831 
L 462.414088 288.127371 
L 463.678219 288.161694 
L 464.942351 287.735948 
L 466.206482 287.794412 
L 467.470614 286.213253 
L 468.734745 287.904249 
L 469.998877 288.10522 
L 471.263009 288.710633 
L 472.52714 288.735604 
L 473.791272 287.67975 
L 475.055403 288.512608 
L 476.319535 286.278252 
L 478.847798 288.85497 
L 480.111929 287.876931 
L 481.376061 285.009827 
L 482.640192 286.711418 
L 483.904324 284.812593 
L 485.168455 286.831821 
L 486.432587 286.378264 
L 487.696718 288.203618 
L 488.96085 288.087399 
L 490.224981 287.797064 
L 491.489113 285.892904 
L 492.753244 287.346075 
L 494.017376 286.474552 
L 495.281507 287.596739 
L 496.545639 286.986811 
L 497.80977 287.039563 
L 499.073902 288.272258 
L 500.338033 286.632223 
L 501.602165 288.074722 
L 502.866296 288.481135 
L 504.130428 286.161651 
L 505.394559 288.19576 
L 506.658691 288.334601 
L 507.922822 287.786858 
L 509.186954 288.05747 
L 510.451085 286.720567 
L 511.715217 288.348523 
L 512.979348 287.262057 
L 514.24348 287.735094 
L 516.771743 287.402443 
L 518.035874 286.221917 
L 519.300006 287.001782 
L 520.564137 285.002709 
L 521.828269 286.861212 
L 523.0924 287.658775 
L 524.356532 285.999894 
L 525.620663 287.196872 
L 526.884795 287.484889 
L 528.148927 288.234469 
L 529.413058 287.442716 
L 530.67719 288.120969 
L 531.941321 287.504844 
L 533.205453 287.563821 
L 534.469584 287.424608 
L 535.733716 289.054859 
L 536.997847 288.658005 
L 538.261979 286.098844 
L 539.52611 288.634043 
L 540.790242 287.116609 
L 542.054373 286.509389 
L 543.318505 285.587601 
L 544.582636 288.137472 
L 545.846768 287.727206 
L 547.110899 287.434867 
L 549.639162 288.629669 
L 550.903294 286.850955 
L 552.167425 287.33196 
L 553.431557 287.354488 
L 554.695688 289.252289 
L 555.95982 290.125113 
L 557.223951 289.430897 
L 558.488083 287.920464 
L 559.752214 286.98262 
L 561.016346 289.273798 
L 563.544609 287.230638 
L 564.80874 288.862213 
L 566.072872 286.752447 
L 567.337003 288.169061 
L 568.601135 289.156086 
L 569.865266 288.960038 
L 571.129398 290.062891 
L 572.393529 289.483465 
L 573.657661 289.273716 
L 574.921792 286.129461 
L 576.185924 288.043767 
L 577.450055 283.840137 
L 578.714187 286.195136 
L 579.978318 281.007465 
L 581.24245 281.422494 
L 582.506582 283.878951 
L 583.770713 285.919706 
L 585.034845 287.50948 
L 586.298976 287.711195 
L 587.563108 289.406175 
L 588.827239 287.46532 
L 590.091371 287.836186 
L 591.355502 288.527282 
L 592.619634 286.605987 
L 593.883765 287.800209 
L 595.147897 288.743393 
L 596.412028 289.172143 
L 597.67616 290.078929 
L 598.940291 290.593867 
L 600.204423 288.769874 
L 601.468554 288.512065 
L 602.732686 289.67613 
L 603.996817 289.958597 
L 605.260949 288.162123 
L 606.52508 287.614642 
L 607.789212 288.395619 
L 609.053343 288.97017 
L 610.317475 289.99725 
L 611.581606 287.005022 
L 612.845738 286.186895 
L 614.109869 289.10618 
L 615.374001 287.707998 
L 616.638132 289.805582 
L 617.902264 290.102686 
L 619.166395 288.19507 
L 620.430527 290.399187 
L 621.694658 290.324522 
L 622.95879 288.775588 
L 624.222921 288.522062 
L 625.487053 289.714612 
L 626.751184 290.697583 
L 628.015316 289.358926 
L 629.279447 289.648096 
L 630.543579 289.524136 
L 631.80771 290.337035 
L 633.071842 289.535599 
L 634.335973 291.12158 
L 635.600105 289.765153 
L 636.864236 289.423762 
L 638.128368 289.243431 
L 639.3925 289.25261 
L 641.920763 288.686531 
L 643.184894 289.135107 
L 644.449026 289.371647 
L 645.713157 289.493764 
L 646.977289 290.314172 
L 648.24142 290.051045 
L 649.505552 290.098445 
L 650.769683 288.745893 
L 652.033815 288.417075 
L 653.297946 289.209473 
L 654.562078 290.505343 
L 655.826209 290.446093 
L 657.090341 290.197796 
L 658.354472 289.389081 
L 659.618604 290.159618 
L 662.146867 289.793813 
L 663.410998 289.394386 
L 664.67513 284.547865 
L 665.939261 288.726723 
L 667.203393 289.383885 
L 668.467524 287.925375 
L 669.731656 290.984298 
L 670.995787 290.175383 
L 672.259919 288.979242 
L 673.52405 290.355231 
L 674.788182 289.431934 
L 674.788182 289.431934 
" clip-path="url(#p3e4fe8fa6f)" style="fill: none; stroke: #1f77b4; stroke-width: 1.5; stroke-linecap: square"/>
   </g>
   <g id="line2d_15">
    <path d="M 94.551818 64.401915 
L 95.81595 118.185975 
L 97.080081 146.287672 
L 98.344213 162.104402 
L 99.608344 172.031622 
L 100.872476 178.322658 
L 102.136607 187.401562 
L 103.400739 193.450143 
L 104.66487 195.997939 
L 105.929002 202.368182 
L 107.193133 205.205381 
L 108.457265 209.038773 
L 109.721396 210.626871 
L 110.985528 210.199442 
L 112.249659 214.120126 
L 113.513791 216.405723 
L 114.777922 220.334215 
L 116.042054 221.341862 
L 117.306185 222.719612 
L 118.570317 222.261309 
L 119.834448 222.247892 
L 121.09858 229.042582 
L 122.362711 229.235062 
L 123.626843 228.861383 
L 124.890974 232.835682 
L 126.155106 233.679819 
L 127.419237 235.54913 
L 128.683369 236.403101 
L 129.9475 235.66938 
L 131.211632 238.764796 
L 132.475764 234.97518 
L 133.739895 238.805168 
L 136.268158 240.155314 
L 137.53229 240.253088 
L 138.796421 241.290892 
L 140.060553 241.33575 
L 141.324684 243.391342 
L 142.588816 245.698746 
L 143.852947 245.645032 
L 145.117079 245.303179 
L 146.38121 245.541933 
L 147.645342 247.247276 
L 148.909473 247.268516 
L 150.173605 247.670169 
L 152.701868 250.436301 
L 153.965999 250.827496 
L 155.230131 250.456629 
L 156.494262 249.205977 
L 157.758394 248.877078 
L 159.022525 251.969394 
L 160.286657 251.196565 
L 161.550788 253.483337 
L 164.079051 253.223016 
L 165.343183 253.535694 
L 166.607314 252.652935 
L 167.871446 255.43607 
L 169.135577 252.858633 
L 171.66384 256.440757 
L 172.927972 255.07331 
L 174.192103 256.08944 
L 175.456235 256.278583 
L 176.720366 257.02413 
L 177.984498 258.168251 
L 180.512761 256.487814 
L 181.776892 257.847569 
L 183.041024 258.436652 
L 184.305155 259.216627 
L 186.833418 258.824712 
L 188.09755 258.255251 
L 189.361682 261.553513 
L 190.625813 260.673238 
L 191.889945 260.195079 
L 193.154076 259.158248 
L 194.418208 260.545666 
L 195.682339 259.426952 
L 196.946471 258.625506 
L 198.210602 261.344048 
L 199.474734 260.482931 
L 200.738865 261.155804 
L 202.002997 260.799802 
L 204.53126 262.034144 
L 205.795391 261.181304 
L 207.059523 256.678576 
L 208.323654 258.190267 
L 209.587786 260.271819 
L 210.851917 261.69678 
L 212.116049 262.039663 
L 213.38018 261.760571 
L 214.644312 264.710275 
L 215.908443 262.995465 
L 217.172575 260.765533 
L 218.436706 263.212383 
L 219.700838 260.890448 
L 220.964969 261.407307 
L 222.229101 262.057577 
L 223.493232 262.446537 
L 224.757364 261.699089 
L 226.021495 263.225375 
L 227.285627 261.135566 
L 228.549758 260.329753 
L 229.81389 261.348261 
L 231.078021 261.580651 
L 232.342153 262.129215 
L 233.606284 258.998575 
L 234.870416 261.189541 
L 237.398679 264.427468 
L 238.66281 261.134869 
L 239.926942 263.168118 
L 241.191073 260.592111 
L 242.455205 260.962378 
L 243.719337 263.878181 
L 244.983468 261.40568 
L 246.2476 263.609085 
L 247.511731 262.500006 
L 248.775863 264.561322 
L 251.304126 263.501092 
L 252.568257 265.355195 
L 253.832389 262.880836 
L 255.09652 263.742352 
L 256.360652 265.177286 
L 257.624783 261.478591 
L 258.888915 262.802401 
L 260.153046 262.931853 
L 261.417178 262.171842 
L 262.681309 262.628839 
L 263.945441 259.11846 
L 265.209572 263.177026 
L 266.473704 262.192694 
L 267.737835 264.409597 
L 269.001967 264.393285 
L 270.266098 261.259508 
L 271.53023 262.774423 
L 272.794361 263.065407 
L 274.058493 263.535413 
L 275.322624 264.307534 
L 276.586756 262.952375 
L 277.850887 261.331314 
L 279.115019 260.767565 
L 280.37915 261.031509 
L 281.643282 266.133783 
L 282.907413 261.71674 
L 284.171545 262.605084 
L 285.435676 262.44127 
L 286.699808 264.53621 
L 287.963939 262.332814 
L 289.228071 263.98117 
L 290.492202 262.963764 
L 291.756334 264.965349 
L 293.020465 264.255593 
L 294.284597 260.823427 
L 295.548728 261.652349 
L 296.81286 262.93772 
L 298.076991 262.209112 
L 299.341123 264.187834 
L 300.605255 263.252388 
L 301.869386 263.552853 
L 303.133518 262.631062 
L 304.397649 261.432069 
L 305.661781 262.63158 
L 306.925912 261.529617 
L 308.190044 261.11307 
L 309.454175 259.970628 
L 310.718307 263.174236 
L 311.982438 258.670538 
L 313.24657 261.529342 
L 314.510701 261.677461 
L 315.774833 259.686466 
L 317.038964 261.57833 
L 318.303096 264.409238 
L 319.567227 263.964387 
L 320.831359 265.649026 
L 322.09549 263.495145 
L 323.359622 263.846033 
L 324.623753 261.8472 
L 325.887885 261.547598 
L 327.152016 264.266568 
L 328.416148 266.180468 
L 329.680279 257.284729 
L 330.944411 264.129061 
L 332.208542 260.459778 
L 333.472674 262.330846 
L 334.736805 261.900935 
L 336.000937 260.953713 
L 337.265068 259.348305 
L 338.5292 262.599337 
L 339.793331 263.119263 
L 341.057463 260.443241 
L 342.321594 263.83727 
L 343.585726 262.547148 
L 344.849857 261.972106 
L 348.642252 263.549325 
L 349.906383 260.428823 
L 351.170515 264.150214 
L 352.434646 262.499415 
L 353.698778 258.633673 
L 354.962909 259.498245 
L 356.227041 264.373687 
L 357.491173 264.279177 
L 358.755304 264.738959 
L 360.019436 262.083615 
L 361.283567 260.607172 
L 362.547699 261.901525 
L 363.81183 263.618966 
L 365.075962 263.743663 
L 366.340093 261.96064 
L 367.604225 263.610211 
L 368.868356 262.638508 
L 370.132488 263.692212 
L 371.396619 263.724302 
L 372.660751 263.397889 
L 373.924882 262.50305 
L 375.189014 263.445844 
L 376.453145 260.461648 
L 377.717277 263.562942 
L 378.981408 264.714006 
L 380.24554 261.865123 
L 381.509671 262.471655 
L 382.773803 262.582979 
L 384.037934 259.831636 
L 385.302066 264.273618 
L 386.566197 262.159574 
L 387.830329 260.640378 
L 389.09446 263.477453 
L 390.358592 260.229591 
L 391.622723 261.874951 
L 392.886855 261.101196 
L 394.150986 255.549136 
L 395.415118 260.586369 
L 396.679249 262.951574 
L 397.943381 261.902995 
L 399.207512 263.222547 
L 400.471644 262.602833 
L 401.735775 263.396607 
L 402.999907 262.780938 
L 404.264038 261.063532 
L 405.52817 262.024423 
L 406.792301 261.784925 
L 408.056433 259.543237 
L 409.320564 259.05492 
L 410.584696 260.354616 
L 411.848827 259.071656 
L 413.112959 259.574531 
L 414.377091 260.574766 
L 415.641222 264.205679 
L 416.905354 260.859988 
L 418.169485 262.424765 
L 419.433617 264.213183 
L 420.697748 263.412559 
L 421.96188 267.445559 
L 423.226011 261.029541 
L 424.490143 262.906793 
L 425.754274 260.67553 
L 427.018406 260.960798 
L 428.282537 258.57538 
L 430.8108 262.271315 
L 432.074932 261.194455 
L 433.339063 258.371963 
L 434.603195 262.339352 
L 435.867326 256.84292 
L 437.131458 264.379339 
L 438.395589 262.337025 
L 439.659721 257.606083 
L 440.923852 261.929331 
L 442.187984 258.487334 
L 443.452115 262.356502 
L 444.716247 261.935148 
L 445.980378 257.128158 
L 447.24451 261.43601 
L 448.508641 262.028231 
L 449.772773 260.203284 
L 451.036904 261.083565 
L 452.301036 258.319369 
L 453.565167 257.700928 
L 454.829299 262.655586 
L 456.09343 261.979318 
L 457.357562 260.739562 
L 458.621693 258.795971 
L 459.885825 261.254062 
L 461.149956 261.127726 
L 462.414088 261.760478 
L 463.678219 259.865705 
L 464.942351 260.882417 
L 466.206482 258.572472 
L 467.470614 261.153903 
L 468.734745 261.530581 
L 471.263009 257.909904 
L 472.52714 258.975364 
L 473.791272 259.464196 
L 475.055403 257.433812 
L 476.319535 262.217814 
L 477.583666 259.376587 
L 478.847798 258.147 
L 480.111929 257.927309 
L 481.376061 257.159799 
L 482.640192 255.627789 
L 483.904324 257.125643 
L 485.168455 256.850317 
L 486.432587 259.638597 
L 487.696718 256.516842 
L 488.96085 253.712364 
L 490.224981 258.454289 
L 491.489113 254.302862 
L 492.753244 258.27436 
L 494.017376 256.903713 
L 495.281507 256.474198 
L 496.545639 253.963637 
L 497.80977 256.482573 
L 499.073902 253.906676 
L 500.338033 255.903732 
L 501.602165 256.499802 
L 502.866296 255.158804 
L 504.130428 257.133026 
L 505.394559 256.91069 
L 506.658691 257.783713 
L 507.922822 257.703669 
L 509.186954 255.993944 
L 510.451085 258.643134 
L 511.715217 256.143548 
L 512.979348 261.361511 
L 514.24348 259.064271 
L 515.507611 258.723714 
L 518.035874 254.005442 
L 519.300006 257.495783 
L 520.564137 255.175049 
L 523.0924 255.944955 
L 524.356532 258.694166 
L 525.620663 255.264546 
L 526.884795 255.815766 
L 528.148927 259.152436 
L 529.413058 257.42311 
L 530.67719 257.095336 
L 531.941321 259.653094 
L 533.205453 255.440234 
L 534.469584 255.512561 
L 535.733716 256.972786 
L 536.997847 257.754787 
L 538.261979 252.564862 
L 539.52611 255.979901 
L 540.790242 255.197464 
L 542.054373 254.2145 
L 543.318505 255.414072 
L 544.582636 252.510528 
L 545.846768 255.79887 
L 547.110899 253.507311 
L 548.375031 260.322402 
L 549.639162 252.325336 
L 550.903294 254.632042 
L 552.167425 257.396464 
L 553.431557 256.392801 
L 554.695688 257.41786 
L 555.95982 257.349215 
L 557.223951 251.934101 
L 558.488083 256.670244 
L 559.752214 256.523264 
L 561.016346 257.520973 
L 562.280477 259.405296 
L 563.544609 258.248921 
L 564.80874 258.078873 
L 566.072872 255.636442 
L 567.337003 256.809632 
L 568.601135 254.58936 
L 569.865266 255.632341 
L 571.129398 254.808836 
L 572.393529 255.832717 
L 573.657661 255.973471 
L 574.921792 257.783346 
L 576.185924 254.532176 
L 577.450055 256.036044 
L 578.714187 256.3354 
L 579.978318 253.627969 
L 581.24245 255.408628 
L 582.506582 258.664426 
L 583.770713 256.245481 
L 585.034845 257.151904 
L 586.298976 257.670476 
L 587.563108 254.202154 
L 588.827239 254.81819 
L 590.091371 254.981909 
L 591.355502 257.406344 
L 592.619634 259.449489 
L 593.883765 255.934415 
L 595.147897 254.663634 
L 596.412028 256.503396 
L 597.67616 254.528749 
L 598.940291 254.520715 
L 600.204423 256.366862 
L 601.468554 259.155898 
L 602.732686 255.006268 
L 603.996817 252.976958 
L 605.260949 254.650301 
L 606.52508 259.920667 
L 607.789212 259.236371 
L 609.053343 258.897985 
L 610.317475 256.408788 
L 611.581606 257.402781 
L 612.845738 259.900125 
L 614.109869 259.8955 
L 615.374001 251.71358 
L 616.638132 253.811587 
L 617.902264 258.581762 
L 619.166395 258.81054 
L 620.430527 260.849824 
L 621.694658 257.902999 
L 622.95879 257.39436 
L 624.222921 254.490041 
L 625.487053 255.998895 
L 626.751184 255.381403 
L 628.015316 257.106285 
L 629.279447 257.487518 
L 630.543579 259.280827 
L 631.80771 255.89854 
L 633.071842 258.209139 
L 634.335973 254.312552 
L 635.600105 257.362756 
L 636.864236 255.560461 
L 638.128368 258.041562 
L 639.3925 254.394816 
L 640.656631 259.362212 
L 641.920763 261.018795 
L 644.449026 259.717751 
L 645.713157 257.16766 
L 646.977289 256.538247 
L 648.24142 258.302083 
L 649.505552 258.270968 
L 650.769683 261.565498 
L 652.033815 262.456371 
L 653.297946 259.739398 
L 654.562078 258.21761 
L 655.826209 259.3134 
L 657.090341 258.484159 
L 658.354472 258.451947 
L 659.618604 257.472274 
L 660.882735 259.33053 
L 662.146867 253.223167 
L 663.410998 258.346177 
L 664.67513 258.520387 
L 665.939261 259.333323 
L 667.203393 257.355376 
L 668.467524 256.752068 
L 670.995787 257.888517 
L 672.259919 251.444692 
L 673.52405 256.824409 
L 674.788182 256.089304 
L 674.788182 256.089304 
" clip-path="url(#p3e4fe8fa6f)" style="fill: none; stroke: #ff7f0e; stroke-width: 1.5; stroke-linecap: square"/>
   </g>
   <g id="patch_3">
    <path d="M 65.54 304 
L 65.54 20.67475 
" style="fill: none; stroke: #000000; stroke-width: 0.8; stroke-linejoin: miter; stroke-linecap: square"/>
   </g>
   <g id="patch_4">
    <path d="M 703.8 304 
L 703.8 20.67475 
" style="fill: none; stroke: #000000; stroke-width: 0.8; stroke-linejoin: miter; stroke-linecap: square"/>
   </g>
   <g id="patch_5">
    <path d="M 65.54 304 
L 703.8 304 
" style="fill: none; stroke: #000000; stroke-width: 0.8; stroke-linejoin: miter; stroke-linecap: square"/>
   </g>
   <g id="patch_6">
    <path d="M 65.54 20.67475 
L 703.8 20.67475 
" style="fill: none; stroke: #000000; stroke-width: 0.8; stroke-linejoin: miter; stroke-linecap: square"/>
   </g>
   <g id="legend_1">
    <g id="patch_7">
     <path d="M 533.559375 76.709125 
L 693.3 76.709125 
Q 696.3 76.709125 696.3 73.709125 
L 696.3 31.17475 
Q 696.3 28.17475 693.3 28.17475 
L 533.559375 28.17475 
Q 530.559375 28.17475 530.559375 31.17475 
L 530.559375 73.709125 
Q 530.559375 76.709125 533.559375 76.709125 
z
" style="fill: #ffffff; opacity: 0.8; stroke: #cccccc; stroke-linejoin: miter"/>
    </g>
    <g id="line2d_16">
     <path d="M 536.559375 40.322406 
L 551.559375 40.322406 
L 566.559375 40.322406 
" style="fill: none; stroke: #1f77b4; stroke-width: 1.5; stroke-linecap: square"/>
    </g>
    <g id="text_16">
     <text style="font: 15px 'DejaVu Sans', 'Bitstream Vera Sans', 'Computer Modern Sans Serif', 'Lucida Grande', 'Verdana', 'Geneva', 'Lucid', 'Arial', 'Helvetica', 'Avant Garde', sans-serif; text-anchor: start" x="578.559375" y="45.572406" transform="rotate(-0 578.559375 45.572406)">Training Loss</text>
    </g>
    <g id="line2d_17">
     <path d="M 536.559375 62.339594 
L 551.559375 62.339594 
L 566.559375 62.339594 
" style="fill: none; stroke: #ff7f0e; stroke-width: 1.5; stroke-linecap: square"/>
    </g>
    <g id="text_17">
     <text style="font: 15px 'DejaVu Sans', 'Bitstream Vera Sans', 'Computer Modern Sans Serif', 'Lucida Grande', 'Verdana', 'Geneva', 'Lucid', 'Arial', 'Helvetica', 'Avant Garde', sans-serif; text-anchor: start" x="578.559375" y="67.589594" transform="rotate(-0 578.559375 67.589594)">Validation Loss</text>
    </g>
   </g>
  </g>
 </g>
 <defs>
  <clipPath id="p3e4fe8fa6f">
   <rect x="65.54" y="20.67475" width="638.26" height="283.32525"/>
  </clipPath>
 </defs>
</svg>
