<?xml version="1.0" encoding="utf-8" standalone="no"?>
<!DOCTYPE svg PUBLIC "-//W3C//DTD SVG 1.1//EN"
  "http://www.w3.org/Graphics/SVG/1.1/DTD/svg11.dtd">
<svg xmlns:xlink="http://www.w3.org/1999/xlink" width="720pt" height="360pt" viewBox="0 0 720 360" xmlns="http://www.w3.org/2000/svg" version="1.1">
 <metadata>
  <rdf:RDF xmlns:dc="http://purl.org/dc/elements/1.1/" xmlns:cc="http://creativecommons.org/ns#" xmlns:rdf="http://www.w3.org/1999/02/22-rdf-syntax-ns#">
   <cc:Work>
    <dc:type rdf:resource="http://purl.org/dc/dcmitype/StillImage"/>
    <dc:date>2023-07-18T21:40:10.439615</dc:date>
    <dc:format>image/svg+xml</dc:format>
    <dc:creator>
     <cc:Agent>
      <dc:title>Matplotlib v3.7.2, https://matplotlib.org/</dc:title>
     </cc:Agent>
    </dc:creator>
   </cc:Work>
  </rdf:RDF>
 </metadata>
 <defs>
  <style type="text/css">*{stroke-linejoin: round; stroke-linecap: butt}</style>
 </defs>
 <g id="figure_1">
  <g id="patch_1">
   <path d="M 0 360 
L 720 360 
L 720 0 
L 0 0 
z
" style="fill: #ffffff"/>
  </g>
  <g id="axes_1">
   <g id="patch_2">
    <path d="M 65.54 304 
L 703.8 304 
L 703.8 16.2 
L 65.54 16.2 
z
" style="fill: #ffffff"/>
   </g>
   <g id="matplotlib.axis_1">
    <g id="xtick_1">
     <g id="line2d_1">
      <defs>
       <path id="mc4707e66bf" d="M 0 0 
L 0 3.5 
" style="stroke: #000000; stroke-width: 0.8"/>
      </defs>
      <g>
       <use xlink:href="#mc4707e66bf" x="93.108444" y="304" style="stroke: #000000; stroke-width: 0.8"/>
      </g>
     </g>
     <g id="text_1">
      <text style="font: 15px 'DejaVu Sans', 'Bitstream Vera Sans', 'Computer Modern Sans Serif', 'Lucida Grande', 'Verdana', 'Geneva', 'Lucid', 'Arial', 'Helvetica', 'Avant Garde', sans-serif; text-anchor: middle" x="93.108444" y="322.397656" transform="rotate(-0 93.108444 322.397656)">0</text>
     </g>
    </g>
    <g id="xtick_2">
     <g id="line2d_2">
      <g>
       <use xlink:href="#mc4707e66bf" x="165.277146" y="304" style="stroke: #000000; stroke-width: 0.8"/>
      </g>
     </g>
     <g id="text_2">
      <text style="font: 15px 'DejaVu Sans', 'Bitstream Vera Sans', 'Computer Modern Sans Serif', 'Lucida Grande', 'Verdana', 'Geneva', 'Lucid', 'Arial', 'Helvetica', 'Avant Garde', sans-serif; text-anchor: middle" x="165.277146" y="322.397656" transform="rotate(-0 165.277146 322.397656)">50</text>
     </g>
    </g>
    <g id="xtick_3">
     <g id="line2d_3">
      <g>
       <use xlink:href="#mc4707e66bf" x="237.445848" y="304" style="stroke: #000000; stroke-width: 0.8"/>
      </g>
     </g>
     <g id="text_3">
      <text style="font: 15px 'DejaVu Sans', 'Bitstream Vera Sans', 'Computer Modern Sans Serif', 'Lucida Grande', 'Verdana', 'Geneva', 'Lucid', 'Arial', 'Helvetica', 'Avant Garde', sans-serif; text-anchor: middle" x="237.445848" y="322.397656" transform="rotate(-0 237.445848 322.397656)">100</text>
     </g>
    </g>
    <g id="xtick_4">
     <g id="line2d_4">
      <g>
       <use xlink:href="#mc4707e66bf" x="309.61455" y="304" style="stroke: #000000; stroke-width: 0.8"/>
      </g>
     </g>
     <g id="text_4">
      <text style="font: 15px 'DejaVu Sans', 'Bitstream Vera Sans', 'Computer Modern Sans Serif', 'Lucida Grande', 'Verdana', 'Geneva', 'Lucid', 'Arial', 'Helvetica', 'Avant Garde', sans-serif; text-anchor: middle" x="309.61455" y="322.397656" transform="rotate(-0 309.61455 322.397656)">150</text>
     </g>
    </g>
    <g id="xtick_5">
     <g id="line2d_5">
      <g>
       <use xlink:href="#mc4707e66bf" x="381.783252" y="304" style="stroke: #000000; stroke-width: 0.8"/>
      </g>
     </g>
     <g id="text_5">
      <text style="font: 15px 'DejaVu Sans', 'Bitstream Vera Sans', 'Computer Modern Sans Serif', 'Lucida Grande', 'Verdana', 'Geneva', 'Lucid', 'Arial', 'Helvetica', 'Avant Garde', sans-serif; text-anchor: middle" x="381.783252" y="322.397656" transform="rotate(-0 381.783252 322.397656)">200</text>
     </g>
    </g>
    <g id="xtick_6">
     <g id="line2d_6">
      <g>
       <use xlink:href="#mc4707e66bf" x="453.951954" y="304" style="stroke: #000000; stroke-width: 0.8"/>
      </g>
     </g>
     <g id="text_6">
      <text style="font: 15px 'DejaVu Sans', 'Bitstream Vera Sans', 'Computer Modern Sans Serif', 'Lucida Grande', 'Verdana', 'Geneva', 'Lucid', 'Arial', 'Helvetica', 'Avant Garde', sans-serif; text-anchor: middle" x="453.951954" y="322.397656" transform="rotate(-0 453.951954 322.397656)">250</text>
     </g>
    </g>
    <g id="xtick_7">
     <g id="line2d_7">
      <g>
       <use xlink:href="#mc4707e66bf" x="526.120656" y="304" style="stroke: #000000; stroke-width: 0.8"/>
      </g>
     </g>
     <g id="text_7">
      <text style="font: 15px 'DejaVu Sans', 'Bitstream Vera Sans', 'Computer Modern Sans Serif', 'Lucida Grande', 'Verdana', 'Geneva', 'Lucid', 'Arial', 'Helvetica', 'Avant Garde', sans-serif; text-anchor: middle" x="526.120656" y="322.397656" transform="rotate(-0 526.120656 322.397656)">300</text>
     </g>
    </g>
    <g id="xtick_8">
     <g id="line2d_8">
      <g>
       <use xlink:href="#mc4707e66bf" x="598.289358" y="304" style="stroke: #000000; stroke-width: 0.8"/>
      </g>
     </g>
     <g id="text_8">
      <text style="font: 15px 'DejaVu Sans', 'Bitstream Vera Sans', 'Computer Modern Sans Serif', 'Lucida Grande', 'Verdana', 'Geneva', 'Lucid', 'Arial', 'Helvetica', 'Avant Garde', sans-serif; text-anchor: middle" x="598.289358" y="322.397656" transform="rotate(-0 598.289358 322.397656)">350</text>
     </g>
    </g>
    <g id="xtick_9">
     <g id="line2d_9">
      <g>
       <use xlink:href="#mc4707e66bf" x="670.45806" y="304" style="stroke: #000000; stroke-width: 0.8"/>
      </g>
     </g>
     <g id="text_9">
      <text style="font: 15px 'DejaVu Sans', 'Bitstream Vera Sans', 'Computer Modern Sans Serif', 'Lucida Grande', 'Verdana', 'Geneva', 'Lucid', 'Arial', 'Helvetica', 'Avant Garde', sans-serif; text-anchor: middle" x="670.45806" y="322.397656" transform="rotate(-0 670.45806 322.397656)">400</text>
     </g>
    </g>
    <g id="text_10">
     <text style="font: 15px 'DejaVu Sans', 'Bitstream Vera Sans', 'Computer Modern Sans Serif', 'Lucida Grande', 'Verdana', 'Geneva', 'Lucid', 'Arial', 'Helvetica', 'Avant Garde', sans-serif; text-anchor: middle" x="384.67" y="340.914844" transform="rotate(-0 384.67 340.914844)">Epochs</text>
    </g>
   </g>
   <g id="matplotlib.axis_2">
    <g id="ytick_1">
     <g id="line2d_10">
      <defs>
       <path id="m639cdb1553" d="M 0 0 
L -3.5 0 
" style="stroke: #000000; stroke-width: 0.8"/>
      </defs>
      <g>
       <use xlink:href="#m639cdb1553" x="65.54" y="266.681609" style="stroke: #000000; stroke-width: 0.8"/>
      </g>
     </g>
     <g id="text_11">
      <text style="font: 15px 'DejaVu Sans', 'Bitstream Vera Sans', 'Computer Modern Sans Serif', 'Lucida Grande', 'Verdana', 'Geneva', 'Lucid', 'Arial', 'Helvetica', 'Avant Garde', sans-serif; text-anchor: end" x="58.54" y="272.380437" transform="rotate(-0 58.54 272.380437)">0.2</text>
     </g>
    </g>
    <g id="ytick_2">
     <g id="line2d_11">
      <g>
       <use xlink:href="#m639cdb1553" x="65.54" y="226.542144" style="stroke: #000000; stroke-width: 0.8"/>
      </g>
     </g>
     <g id="text_12">
      <text style="font: 15px 'DejaVu Sans', 'Bitstream Vera Sans', 'Computer Modern Sans Serif', 'Lucida Grande', 'Verdana', 'Geneva', 'Lucid', 'Arial', 'Helvetica', 'Avant Garde', sans-serif; text-anchor: end" x="58.54" y="232.240972" transform="rotate(-0 58.54 232.240972)">0.4</text>
     </g>
    </g>
    <g id="ytick_3">
     <g id="line2d_12">
      <g>
       <use xlink:href="#m639cdb1553" x="65.54" y="186.40268" style="stroke: #000000; stroke-width: 0.8"/>
      </g>
     </g>
     <g id="text_13">
      <text style="font: 15px 'DejaVu Sans', 'Bitstream Vera Sans', 'Computer Modern Sans Serif', 'Lucida Grande', 'Verdana', 'Geneva', 'Lucid', 'Arial', 'Helvetica', 'Avant Garde', sans-serif; text-anchor: end" x="58.54" y="192.101508" transform="rotate(-0 58.54 192.101508)">0.6</text>
     </g>
    </g>
    <g id="ytick_4">
     <g id="line2d_13">
      <g>
       <use xlink:href="#m639cdb1553" x="65.54" y="146.263215" style="stroke: #000000; stroke-width: 0.8"/>
      </g>
     </g>
     <g id="text_14">
      <text style="font: 15px 'DejaVu Sans', 'Bitstream Vera Sans', 'Computer Modern Sans Serif', 'Lucida Grande', 'Verdana', 'Geneva', 'Lucid', 'Arial', 'Helvetica', 'Avant Garde', sans-serif; text-anchor: end" x="58.54" y="151.962043" transform="rotate(-0 58.54 151.962043)">0.8</text>
     </g>
    </g>
    <g id="ytick_5">
     <g id="line2d_14">
      <g>
       <use xlink:href="#m639cdb1553" x="65.54" y="106.123751" style="stroke: #000000; stroke-width: 0.8"/>
      </g>
     </g>
     <g id="text_15">
      <text style="font: 15px 'DejaVu Sans', 'Bitstream Vera Sans', 'Computer Modern Sans Serif', 'Lucida Grande', 'Verdana', 'Geneva', 'Lucid', 'Arial', 'Helvetica', 'Avant Garde', sans-serif; text-anchor: end" x="58.54" y="111.822579" transform="rotate(-0 58.54 111.822579)">1.0</text>
     </g>
    </g>
    <g id="ytick_6">
     <g id="line2d_15">
      <g>
       <use xlink:href="#m639cdb1553" x="65.54" y="65.984286" style="stroke: #000000; stroke-width: 0.8"/>
      </g>
     </g>
     <g id="text_16">
      <text style="font: 15px 'DejaVu Sans', 'Bitstream Vera Sans', 'Computer Modern Sans Serif', 'Lucida Grande', 'Verdana', 'Geneva', 'Lucid', 'Arial', 'Helvetica', 'Avant Garde', sans-serif; text-anchor: end" x="58.54" y="71.683114" transform="rotate(-0 58.54 71.683114)">1.2</text>
     </g>
    </g>
    <g id="ytick_7">
     <g id="line2d_16">
      <g>
       <use xlink:href="#m639cdb1553" x="65.54" y="25.844822" style="stroke: #000000; stroke-width: 0.8"/>
      </g>
     </g>
     <g id="text_17">
      <text style="font: 15px 'DejaVu Sans', 'Bitstream Vera Sans', 'Computer Modern Sans Serif', 'Lucida Grande', 'Verdana', 'Geneva', 'Lucid', 'Arial', 'Helvetica', 'Avant Garde', sans-serif; text-anchor: end" x="58.54" y="31.54365" transform="rotate(-0 58.54 31.54365)">1.4</text>
     </g>
    </g>
    <g id="text_18">
     <text style="font: 15px 'DejaVu Sans', 'Bitstream Vera Sans', 'Computer Modern Sans Serif', 'Lucida Grande', 'Verdana', 'Geneva', 'Lucid', 'Arial', 'Helvetica', 'Avant Garde', sans-serif; text-anchor: middle" x="27.565781" y="160.1" transform="rotate(-90 27.565781 160.1)">Loss</text>
    </g>
   </g>
   <g id="line2d_17">
    <path d="M 94.551818 29.281818 
L 95.995192 37.555915 
L 97.438566 50.152061 
L 98.88194 63.879835 
L 100.325314 78.704904 
L 101.768688 89.874355 
L 103.212062 95.928094 
L 104.655436 107.817616 
L 106.09881 117.62674 
L 107.542185 120.111948 
L 108.985559 128.786537 
L 110.428933 136.504056 
L 111.872307 141.013521 
L 113.315681 145.986568 
L 114.759055 153.281643 
L 116.202429 154.593211 
L 117.645803 158.001839 
L 119.089177 162.783989 
L 120.532551 161.746076 
L 121.975925 167.844973 
L 123.419299 168.895423 
L 124.862673 168.772401 
L 126.306047 175.259087 
L 127.749421 179.240563 
L 129.192795 179.813578 
L 130.636169 184.254247 
L 132.079543 186.217567 
L 133.522917 190.102088 
L 134.966291 187.576578 
L 136.409665 190.658619 
L 137.853039 196.122727 
L 139.296413 190.809837 
L 140.739787 192.987501 
L 142.183161 200.714625 
L 143.626536 197.295386 
L 145.06991 199.368522 
L 146.513284 198.580433 
L 147.956658 199.800069 
L 149.400032 199.174107 
L 150.843406 206.181855 
L 152.28678 210.285151 
L 153.730154 207.477542 
L 155.173528 210.571151 
L 156.616902 207.330625 
L 158.060276 214.718912 
L 159.50365 212.369562 
L 160.947024 215.862843 
L 162.390398 217.481865 
L 163.833772 221.68515 
L 165.277146 218.9199 
L 166.72052 224.310696 
L 168.163894 220.058747 
L 169.607268 218.162082 
L 171.050642 221.722024 
L 172.494016 225.923897 
L 173.93739 225.494534 
L 175.380764 225.322639 
L 176.824138 223.86026 
L 178.267512 227.256142 
L 181.154261 229.927845 
L 182.597635 228.577274 
L 184.041009 234.832719 
L 185.484383 230.389968 
L 186.927757 229.831745 
L 188.371131 233.839329 
L 189.814505 232.252487 
L 191.257879 236.918266 
L 192.701253 235.073565 
L 194.144627 237.119044 
L 195.588001 233.122896 
L 197.031375 236.478464 
L 198.474749 236.976463 
L 199.918123 238.048823 
L 201.361497 241.116143 
L 202.804871 236.148037 
L 204.248245 243.282575 
L 205.691619 240.796853 
L 207.134993 246.258915 
L 208.578367 242.567864 
L 210.021741 242.018941 
L 211.465115 240.188446 
L 212.908489 247.653753 
L 214.351863 242.180399 
L 215.795237 244.996531 
L 217.238611 244.697702 
L 218.681986 242.246001 
L 220.12536 241.778088 
L 221.568734 243.323074 
L 223.012108 249.69995 
L 224.455482 249.235996 
L 225.898856 247.460846 
L 227.34223 249.408992 
L 228.785604 247.212864 
L 230.228978 251.814769 
L 231.672352 252.414921 
L 233.115726 251.066276 
L 234.5591 248.892996 
L 236.002474 252.870375 
L 237.445848 253.796505 
L 238.889222 252.943891 
L 240.332596 253.775565 
L 241.77597 247.563664 
L 243.219344 252.224215 
L 244.662718 253.728169 
L 246.106092 249.180771 
L 247.549466 252.005523 
L 248.99284 253.59864 
L 250.436214 259.786469 
L 251.879588 253.608401 
L 253.322962 254.91842 
L 254.766336 259.503942 
L 256.209711 258.257238 
L 257.653085 256.285296 
L 259.096459 255.796018 
L 260.539833 254.995584 
L 261.983207 260.321234 
L 263.426581 258.166401 
L 264.869955 263.700896 
L 266.313329 259.0435 
L 267.756703 256.812791 
L 269.200077 261.364627 
L 270.643451 263.563886 
L 272.086825 265.000208 
L 273.530199 262.993981 
L 274.973573 263.424248 
L 276.416947 260.625892 
L 277.860321 263.43604 
L 279.303695 260.156218 
L 280.747069 263.203148 
L 282.190443 265.195412 
L 283.633817 262.106876 
L 285.077191 266.841885 
L 286.520565 266.414234 
L 287.963939 268.44813 
L 289.407313 263.510414 
L 290.850687 263.399294 
L 292.294062 264.654618 
L 293.737436 267.645271 
L 295.18081 266.153637 
L 296.624184 268.111398 
L 298.067558 263.182283 
L 299.510932 269.333038 
L 300.954306 268.584365 
L 302.39768 265.86815 
L 303.841054 267.857865 
L 305.284428 265.398308 
L 308.171176 266.121772 
L 309.61455 263.73373 
L 311.057924 263.852177 
L 312.501298 268.466268 
L 313.944672 269.006925 
L 315.388046 269.877986 
L 316.83142 267.184559 
L 318.274794 267.44521 
L 319.718168 269.624184 
L 321.161542 269.713538 
L 322.604916 268.64965 
L 324.04829 269.088979 
L 325.491664 268.302358 
L 326.935038 267.676564 
L 328.378412 267.981067 
L 329.821787 272.11918 
L 331.265161 271.624785 
L 332.708535 273.455612 
L 334.151909 270.754068 
L 335.595283 275.201164 
L 337.038657 272.829351 
L 338.482031 271.605373 
L 339.925405 269.837224 
L 341.368779 271.586051 
L 342.812153 272.212496 
L 344.255527 274.516559 
L 345.698901 274.116856 
L 347.142275 271.65313 
L 348.585649 270.897657 
L 350.029023 271.696913 
L 352.915771 272.788188 
L 354.359145 273.579944 
L 355.802519 271.554517 
L 357.245893 273.812043 
L 358.689267 272.09643 
L 360.132641 269.14255 
L 361.576015 277.029508 
L 363.019389 273.212985 
L 364.462763 272.94676 
L 365.906137 276.183565 
L 367.349512 274.610797 
L 368.792886 270.454919 
L 370.23626 272.007313 
L 371.679634 274.067087 
L 373.123008 275.099058 
L 374.566382 275.617832 
L 376.009756 274.890483 
L 377.45313 275.493644 
L 378.896504 272.682174 
L 380.339878 276.746398 
L 381.783252 277.406982 
L 383.226626 274.420985 
L 384.67 274.164336 
L 386.113374 274.833598 
L 387.556748 274.334353 
L 389.000122 275.806852 
L 390.443496 275.936319 
L 391.88687 278.752158 
L 393.330244 276.77174 
L 394.773618 278.031771 
L 396.216992 275.657323 
L 397.660366 272.008078 
L 399.10374 279.62053 
L 400.547114 276.576459 
L 401.990488 275.719735 
L 403.433863 273.724765 
L 404.877237 278.441348 
L 406.320611 277.883974 
L 407.763985 276.720125 
L 409.207359 276.716719 
L 410.650733 277.442094 
L 412.094107 277.76885 
L 413.537481 276.024303 
L 414.980855 273.873435 
L 416.424229 273.076296 
L 417.867603 273.680477 
L 419.310977 276.658073 
L 420.754351 281.488135 
L 422.197725 279.802432 
L 423.641099 279.233669 
L 425.084473 278.316538 
L 426.527847 278.614511 
L 427.971221 280.663997 
L 429.414595 282.93484 
L 430.857969 280.128805 
L 432.301343 278.219707 
L 433.744717 280.427971 
L 435.188091 278.964196 
L 436.631465 279.037828 
L 438.074839 281.743597 
L 440.961588 279.26927 
L 442.404962 282.78664 
L 443.848336 280.877435 
L 445.29171 276.875557 
L 446.735084 280.70106 
L 448.178458 279.549922 
L 449.621832 278.785037 
L 451.065206 281.981401 
L 452.50858 278.669315 
L 453.951954 282.228273 
L 455.395328 278.587372 
L 456.838702 277.813533 
L 458.282076 280.985154 
L 459.72545 283.122752 
L 461.168824 279.786456 
L 462.612198 280.919409 
L 464.055572 279.797907 
L 465.498946 283.743228 
L 466.94232 280.302069 
L 468.385694 280.186733 
L 469.829068 282.157992 
L 471.272442 277.776886 
L 472.715816 281.773957 
L 474.15919 280.573749 
L 475.602564 283.606811 
L 477.045938 283.288667 
L 478.489313 281.836818 
L 479.932687 284.499925 
L 481.376061 284.322916 
L 482.819435 280.89281 
L 484.262809 286.084805 
L 485.706183 285.791063 
L 487.149557 279.252035 
L 488.592931 282.734738 
L 490.036305 283.754857 
L 491.479679 284.05671 
L 492.923053 278.235423 
L 494.366427 281.794713 
L 495.809801 280.504848 
L 497.253175 277.399134 
L 498.696549 281.675025 
L 500.139923 284.714403 
L 501.583297 285.327514 
L 503.026671 284.604955 
L 504.470045 282.006992 
L 505.913419 283.662021 
L 507.356793 285.055466 
L 508.800167 285.308042 
L 510.243541 281.830804 
L 511.686915 284.019367 
L 513.130289 284.479339 
L 514.573664 286.371845 
L 516.017038 280.469816 
L 517.460412 285.781423 
L 518.903786 286.613012 
L 520.34716 284.930108 
L 521.790534 279.471181 
L 523.233908 277.618927 
L 524.677282 283.077261 
L 526.120656 282.880408 
L 527.56403 280.987188 
L 529.007404 284.023613 
L 530.450778 285.969699 
L 531.894152 284.9708 
L 533.337526 287.284286 
L 534.7809 285.423214 
L 536.224274 284.487354 
L 537.667648 282.700216 
L 539.111022 285.70175 
L 540.554396 285.918102 
L 541.99777 286.551604 
L 543.441144 287.665564 
L 544.884518 285.474222 
L 546.327892 286.284005 
L 547.771266 287.994807 
L 549.21464 285.878991 
L 550.658014 284.648469 
L 552.101389 284.592429 
L 553.544763 282.870774 
L 554.988137 284.868486 
L 556.431511 279.730465 
L 557.874885 283.716488 
L 559.318259 285.360505 
L 560.761633 281.546426 
L 562.205007 283.366971 
L 563.648381 284.921553 
L 565.091755 285.197141 
L 566.535129 285.048185 
L 567.978503 286.544959 
L 569.421877 287.335225 
L 570.865251 285.176489 
L 572.308625 284.238869 
L 575.195373 288.363816 
L 576.638747 288.473175 
L 578.082121 289.882536 
L 579.525495 287.770813 
L 580.968869 286.445149 
L 582.412243 286.182612 
L 583.855617 283.958462 
L 585.298991 287.582892 
L 586.742365 286.266919 
L 588.185739 285.666048 
L 589.629114 284.655129 
L 591.072488 285.35976 
L 592.515862 288.261948 
L 593.959236 288.399549 
L 595.40261 286.614855 
L 596.845984 285.667237 
L 598.289358 290.068734 
L 599.732732 286.863597 
L 601.176106 287.079147 
L 602.61948 286.486463 
L 604.062854 288.05536 
L 605.506228 288.191997 
L 606.949602 287.476132 
L 608.392976 286.440081 
L 609.83635 287.548007 
L 611.279724 289.384055 
L 612.723098 288.88246 
L 614.166472 286.639052 
L 615.609846 288.325211 
L 617.05322 289.469123 
L 618.496594 290.799601 
L 619.939968 289.960764 
L 621.383342 290.539463 
L 622.826716 289.77218 
L 624.27009 289.131938 
L 625.713464 287.25268 
L 627.156839 288.552328 
L 628.600213 287.309521 
L 630.043587 286.969786 
L 631.486961 284.617739 
L 632.930335 289.146466 
L 634.373709 290.448772 
L 635.817083 287.059665 
L 637.260457 288.253589 
L 638.703831 284.454774 
L 640.147205 282.000784 
L 643.033953 284.259024 
L 644.477327 284.698551 
L 645.920701 285.969369 
L 647.364075 286.480383 
L 648.807449 288.683641 
L 650.250823 290.197442 
L 651.694197 290.893219 
L 653.137571 288.581931 
L 654.580945 290.918182 
L 656.024319 285.996132 
L 657.467693 287.904676 
L 658.911067 284.201363 
L 660.354441 287.282737 
L 661.797815 287.614105 
L 663.24119 283.586949 
L 664.684564 286.535002 
L 666.127938 286.155792 
L 667.571312 287.257353 
L 669.014686 290.434579 
L 670.45806 290.127437 
L 671.901434 286.117886 
L 673.344808 286.91166 
L 674.788182 286.300304 
L 674.788182 286.300304 
" clip-path="url(#p7648d5c775)" style="fill: none; stroke: #1f77b4; stroke-width: 1.5; stroke-linecap: square"/>
   </g>
   <g id="line2d_18">
    <path d="M 94.551818 33.579918 
L 95.995192 49.787995 
L 98.88194 77.886048 
L 100.325314 95.567545 
L 101.768688 108.603384 
L 103.212062 117.215051 
L 104.655436 124.850925 
L 106.09881 134.988719 
L 107.542185 133.081479 
L 108.985559 142.374494 
L 110.428933 150.796375 
L 111.872307 152.758798 
L 113.315681 156.07577 
L 114.759055 164.944966 
L 116.202429 164.948698 
L 117.645803 164.810077 
L 119.089177 164.384667 
L 120.532551 174.993137 
L 121.975925 176.27164 
L 123.419299 178.182899 
L 124.862673 179.402715 
L 126.306047 184.405381 
L 127.749421 186.199492 
L 129.192795 185.696708 
L 130.636169 190.231199 
L 132.079543 190.554102 
L 133.522917 193.320979 
L 134.966291 193.530383 
L 136.409665 196.964216 
L 139.296413 197.368584 
L 140.739787 198.360311 
L 142.183161 202.666976 
L 143.626536 200.91508 
L 145.06991 202.282549 
L 146.513284 204.76741 
L 147.956658 205.256389 
L 149.400032 204.642617 
L 150.843406 209.129868 
L 152.28678 209.295937 
L 153.730154 208.958589 
L 155.173528 208.832719 
L 156.616902 206.242792 
L 158.060276 210.186174 
L 159.50365 211.758201 
L 160.947024 214.365743 
L 162.390398 217.882327 
L 163.833772 212.089735 
L 165.277146 218.214998 
L 166.72052 217.857056 
L 168.163894 217.161725 
L 169.607268 219.56469 
L 171.050642 220.773255 
L 172.494016 221.366624 
L 173.93739 218.917633 
L 175.380764 223.619012 
L 178.267512 223.150914 
L 179.710886 220.518855 
L 181.154261 225.227405 
L 182.597635 225.126711 
L 184.041009 222.600699 
L 185.484383 226.234079 
L 186.927757 227.191503 
L 188.371131 227.292765 
L 189.814505 228.181082 
L 191.257879 226.6402 
L 192.701253 228.87002 
L 194.144627 227.424048 
L 195.588001 227.092693 
L 197.031375 227.011216 
L 198.474749 228.903216 
L 201.361497 230.076491 
L 202.804871 232.428204 
L 204.248245 228.859033 
L 205.691619 229.540757 
L 208.578367 229.364627 
L 210.021741 227.826616 
L 211.465115 230.821521 
L 212.908489 234.27221 
L 214.351863 233.242844 
L 215.795237 231.399555 
L 217.238611 227.645551 
L 218.681986 231.451831 
L 220.12536 230.475913 
L 221.568734 232.137593 
L 223.012108 234.242776 
L 224.455482 231.569183 
L 225.898856 232.34976 
L 228.785604 233.032017 
L 230.228978 233.984452 
L 231.672352 234.224187 
L 233.115726 232.557399 
L 234.5591 232.885045 
L 236.002474 233.367229 
L 237.445848 229.624076 
L 238.889222 235.546999 
L 240.332596 232.918116 
L 241.77597 233.879804 
L 243.219344 231.974173 
L 244.662718 233.224678 
L 246.106092 235.638925 
L 247.549466 235.924296 
L 248.99284 234.774647 
L 250.436214 233.160643 
L 251.879588 232.884274 
L 253.322962 233.403566 
L 254.766336 235.87147 
L 256.209711 235.921593 
L 257.653085 233.07425 
L 259.096459 234.65888 
L 260.539833 232.556173 
L 261.983207 231.20849 
L 263.426581 235.403784 
L 264.869955 233.041246 
L 267.756703 236.380378 
L 269.200077 233.855814 
L 270.643451 235.215243 
L 272.086825 235.380027 
L 273.530199 238.066079 
L 274.973573 233.325953 
L 276.416947 237.452756 
L 279.303695 237.814633 
L 280.747069 236.055154 
L 282.190443 232.315547 
L 283.633817 233.192212 
L 285.077191 235.502211 
L 286.520565 231.900682 
L 287.963939 232.741765 
L 289.407313 230.394777 
L 290.850687 236.521894 
L 292.294062 236.190904 
L 293.737436 234.937026 
L 295.18081 236.034596 
L 296.624184 233.312627 
L 298.067558 237.590259 
L 299.510932 235.216792 
L 300.954306 235.899414 
L 302.39768 237.221252 
L 303.841054 237.139972 
L 305.284428 236.314273 
L 306.727802 233.994106 
L 308.171176 233.476812 
L 309.61455 235.127881 
L 311.057924 233.015789 
L 312.501298 234.622448 
L 313.944672 231.901639 
L 315.388046 235.992967 
L 316.83142 234.645506 
L 318.274794 235.084236 
L 319.718168 236.949942 
L 321.161542 231.580015 
L 322.604916 236.643439 
L 324.04829 233.598925 
L 325.491664 237.67972 
L 326.935038 235.186551 
L 328.378412 237.065183 
L 329.821787 236.305989 
L 332.708535 235.884581 
L 334.151909 236.647686 
L 335.595283 236.826346 
L 337.038657 232.362912 
L 338.482031 233.482028 
L 339.925405 236.421679 
L 341.368779 231.686505 
L 342.812153 235.158457 
L 344.255527 229.672039 
L 345.698901 234.263687 
L 347.142275 236.68334 
L 348.585649 233.991977 
L 350.029023 236.045721 
L 351.472397 230.819847 
L 352.915771 230.534176 
L 354.359145 235.399286 
L 355.802519 237.138369 
L 357.245893 231.261209 
L 358.689267 230.903321 
L 360.132641 233.943523 
L 361.576015 231.835169 
L 363.019389 234.778367 
L 364.462763 232.510769 
L 365.906137 235.772839 
L 367.349512 237.085968 
L 368.792886 237.001518 
L 370.23626 237.124565 
L 371.679634 236.568022 
L 373.123008 232.799711 
L 374.566382 233.464897 
L 376.009756 235.65273 
L 377.45313 236.986428 
L 378.896504 234.253471 
L 380.339878 230.961973 
L 381.783252 232.026312 
L 383.226626 233.835124 
L 384.67 237.36793 
L 386.113374 238.732084 
L 390.443496 228.693472 
L 391.88687 232.315912 
L 393.330244 234.259302 
L 394.773618 233.646105 
L 396.216992 232.011825 
L 397.660366 232.292382 
L 399.10374 233.171021 
L 400.547114 230.562551 
L 401.990488 232.543498 
L 403.433863 232.81409 
L 404.877237 235.297982 
L 406.320611 234.373951 
L 407.763985 238.162365 
L 409.207359 235.190834 
L 410.650733 237.860437 
L 412.094107 230.717986 
L 413.537481 234.688744 
L 414.980855 236.551567 
L 416.424229 228.108207 
L 417.867603 234.537676 
L 419.310977 236.978431 
L 420.754351 232.182614 
L 422.197725 234.365422 
L 423.641099 233.959373 
L 425.084473 232.208764 
L 426.527847 227.693306 
L 427.971221 230.512279 
L 429.414595 232.027999 
L 430.857969 225.941985 
L 432.301343 231.037899 
L 433.744717 231.276467 
L 435.188091 232.794866 
L 436.631465 232.462733 
L 438.074839 228.121252 
L 439.518213 228.634939 
L 440.961588 233.910686 
L 442.404962 233.988047 
L 443.848336 228.353665 
L 445.29171 231.05592 
L 446.735084 230.95342 
L 449.621832 234.337663 
L 451.065206 231.268937 
L 452.50858 230.812639 
L 453.951954 227.695154 
L 455.395328 228.845545 
L 456.838702 233.402064 
L 459.72545 229.927821 
L 461.168824 227.183231 
L 462.612198 227.780177 
L 464.055572 228.867143 
L 465.498946 225.836182 
L 466.94232 231.888354 
L 468.385694 230.827718 
L 469.829068 225.507112 
L 471.272442 229.521438 
L 472.715816 226.923316 
L 474.15919 226.543477 
L 475.602564 225.348412 
L 477.045938 227.64347 
L 478.489313 230.404401 
L 479.932687 229.969792 
L 481.376061 225.024587 
L 482.819435 230.947139 
L 484.262809 225.455727 
L 485.706183 226.83526 
L 487.149557 227.915963 
L 488.592931 225.155469 
L 490.036305 223.992206 
L 491.479679 229.981718 
L 492.923053 225.098085 
L 494.366427 231.645007 
L 495.809801 228.527582 
L 497.253175 228.60599 
L 498.696549 235.624313 
L 500.139923 231.3959 
L 501.583297 230.180116 
L 503.026671 226.167238 
L 504.470045 229.21262 
L 505.913419 231.095038 
L 507.356793 233.519386 
L 508.800167 230.663012 
L 510.243541 226.469704 
L 511.686915 224.522665 
L 513.130289 228.774165 
L 514.573664 225.318769 
L 516.017038 230.937773 
L 517.460412 230.501405 
L 518.903786 227.110421 
L 520.34716 229.784266 
L 521.790534 225.04859 
L 523.233908 232.184031 
L 524.677282 232.608831 
L 526.120656 235.768449 
L 527.56403 224.394469 
L 529.007404 228.971761 
L 530.450778 232.276011 
L 531.894152 232.896464 
L 533.337526 231.431943 
L 534.7809 230.641761 
L 536.224274 231.381438 
L 537.667648 229.527784 
L 539.111022 229.976892 
L 540.554396 231.937275 
L 541.99777 231.569309 
L 543.441144 230.029969 
L 544.884518 226.963952 
L 546.327892 225.603434 
L 547.771266 227.946875 
L 549.21464 229.521587 
L 550.658014 225.60987 
L 552.101389 230.386697 
L 553.544763 226.05753 
L 554.988137 229.980738 
L 556.431511 222.822334 
L 557.874885 227.706195 
L 559.318259 228.125205 
L 560.761633 230.116225 
L 562.205007 225.445182 
L 563.648381 225.9486 
L 565.091755 226.980329 
L 566.535129 228.310104 
L 567.978503 228.440513 
L 569.421877 223.483274 
L 570.865251 227.8438 
L 572.308625 223.779082 
L 573.751999 226.529678 
L 575.195373 223.413509 
L 576.638747 223.041768 
L 578.082121 222.867786 
L 579.525495 225.24057 
L 580.968869 226.790096 
L 582.412243 230.250468 
L 583.855617 227.42403 
L 585.298991 227.810018 
L 586.742365 228.56722 
L 588.185739 225.843545 
L 589.629114 230.241622 
L 591.072488 229.326646 
L 592.515862 223.852137 
L 593.959236 225.644448 
L 595.40261 223.256734 
L 596.845984 227.825264 
L 598.289358 227.724492 
L 599.732732 226.386463 
L 601.176106 231.353164 
L 602.61948 226.941595 
L 604.062854 227.137415 
L 605.506228 224.450968 
L 606.949602 223.054412 
L 608.392976 218.777959 
L 609.83635 221.225162 
L 611.279724 221.935788 
L 612.723098 224.819664 
L 614.166472 220.176637 
L 615.609846 224.576293 
L 617.05322 223.521315 
L 618.496594 223.84502 
L 619.939968 222.64301 
L 621.383342 220.545884 
L 622.826716 224.170926 
L 624.27009 225.681083 
L 625.713464 223.82241 
L 627.156839 225.464956 
L 628.600213 226.179871 
L 630.043587 230.677278 
L 631.486961 227.806931 
L 632.930335 229.862028 
L 634.373709 222.157076 
L 635.817083 229.337616 
L 637.260457 223.164049 
L 638.703831 226.34966 
L 640.147205 227.792594 
L 641.590579 232.48292 
L 643.033953 227.811639 
L 644.477327 228.29844 
L 645.920701 228.115785 
L 647.364075 231.246112 
L 648.807449 226.817759 
L 650.250823 227.110744 
L 651.694197 224.592328 
L 653.137571 226.235801 
L 654.580945 223.500308 
L 656.024319 227.944685 
L 657.467693 225.411741 
L 658.911067 227.305063 
L 660.354441 230.839256 
L 661.797815 227.229406 
L 663.24119 226.311913 
L 666.127938 228.095515 
L 667.571312 227.124686 
L 669.014686 223.224633 
L 670.45806 220.59755 
L 671.901434 221.614218 
L 673.344808 226.07417 
L 674.788182 222.26472 
L 674.788182 222.26472 
" clip-path="url(#p7648d5c775)" style="fill: none; stroke: #ff7f0e; stroke-width: 1.5; stroke-linecap: square"/>
   </g>
   <g id="patch_3">
    <path d="M 65.54 304 
L 65.54 16.2 
" style="fill: none; stroke: #000000; stroke-width: 0.8; stroke-linejoin: miter; stroke-linecap: square"/>
   </g>
   <g id="patch_4">
    <path d="M 703.8 304 
L 703.8 16.2 
" style="fill: none; stroke: #000000; stroke-width: 0.8; stroke-linejoin: miter; stroke-linecap: square"/>
   </g>
   <g id="patch_5">
    <path d="M 65.54 304 
L 703.8 304 
" style="fill: none; stroke: #000000; stroke-width: 0.8; stroke-linejoin: miter; stroke-linecap: square"/>
   </g>
   <g id="patch_6">
    <path d="M 65.54 16.2 
L 703.8 16.2 
" style="fill: none; stroke: #000000; stroke-width: 0.8; stroke-linejoin: miter; stroke-linecap: square"/>
   </g>
   <g id="legend_1">
    <g id="patch_7">
     <path d="M 533.559375 72.234375 
L 693.3 72.234375 
Q 696.3 72.234375 696.3 69.234375 
L 696.3 26.7 
Q 696.3 23.7 693.3 23.7 
L 533.559375 23.7 
Q 530.559375 23.7 530.559375 26.7 
L 530.559375 69.234375 
Q 530.559375 72.234375 533.559375 72.234375 
z
" style="fill: #ffffff; opacity: 0.8; stroke: #cccccc; stroke-linejoin: miter"/>
    </g>
    <g id="line2d_19">
     <path d="M 536.559375 35.847656 
L 551.559375 35.847656 
L 566.559375 35.847656 
" style="fill: none; stroke: #1f77b4; stroke-width: 1.5; stroke-linecap: square"/>
    </g>
    <g id="text_19">
     <text style="font: 15px 'DejaVu Sans', 'Bitstream Vera Sans', 'Computer Modern Sans Serif', 'Lucida Grande', 'Verdana', 'Geneva', 'Lucid', 'Arial', 'Helvetica', 'Avant Garde', sans-serif; text-anchor: start" x="578.559375" y="41.097656" transform="rotate(-0 578.559375 41.097656)">Training Loss</text>
    </g>
    <g id="line2d_20">
     <path d="M 536.559375 57.864844 
L 551.559375 57.864844 
L 566.559375 57.864844 
" style="fill: none; stroke: #ff7f0e; stroke-width: 1.5; stroke-linecap: square"/>
    </g>
    <g id="text_20">
     <text style="font: 15px 'DejaVu Sans', 'Bitstream Vera Sans', 'Computer Modern Sans Serif', 'Lucida Grande', 'Verdana', 'Geneva', 'Lucid', 'Arial', 'Helvetica', 'Avant Garde', sans-serif; text-anchor: start" x="578.559375" y="63.114844" transform="rotate(-0 578.559375 63.114844)">Validation Loss</text>
    </g>
   </g>
  </g>
 </g>
 <defs>
  <clipPath id="p7648d5c775">
   <rect x="65.54" y="16.2" width="638.26" height="287.8"/>
  </clipPath>
 </defs>
</svg>
