<?xml version="1.0" encoding="utf-8" standalone="no"?>
<!DOCTYPE svg PUBLIC "-//W3C//DTD SVG 1.1//EN"
  "http://www.w3.org/Graphics/SVG/1.1/DTD/svg11.dtd">
<svg xmlns:xlink="http://www.w3.org/1999/xlink" width="720pt" height="360pt" viewBox="0 0 720 360" xmlns="http://www.w3.org/2000/svg" version="1.1">
 <metadata>
  <rdf:RDF xmlns:dc="http://purl.org/dc/elements/1.1/" xmlns:cc="http://creativecommons.org/ns#" xmlns:rdf="http://www.w3.org/1999/02/22-rdf-syntax-ns#">
   <cc:Work>
    <dc:type rdf:resource="http://purl.org/dc/dcmitype/StillImage"/>
    <dc:date>2023-07-18T21:39:18.827390</dc:date>
    <dc:format>image/svg+xml</dc:format>
    <dc:creator>
     <cc:Agent>
      <dc:title>Matplotlib v3.7.2, https://matplotlib.org/</dc:title>
     </cc:Agent>
    </dc:creator>
   </cc:Work>
  </rdf:RDF>
 </metadata>
 <defs>
  <style type="text/css">*{stroke-linejoin: round; stroke-linecap: butt}</style>
 </defs>
 <g id="figure_1">
  <g id="patch_1">
   <path d="M 0 360 
L 720 360 
L 720 0 
L 0 0 
z
" style="fill: #ffffff"/>
  </g>
  <g id="axes_1">
   <g id="patch_2">
    <path d="M 65.54 304 
L 699.889839 304 
L 699.889839 16.2 
L 65.54 16.2 
z
" style="fill: #ffffff"/>
   </g>
   <g id="matplotlib.axis_1">
    <g id="xtick_1">
     <g id="line2d_1">
      <defs>
       <path id="maba8f08ee8" d="M 0 0 
L 0 3.5 
" style="stroke: #000000; stroke-width: 0.8"/>
      </defs>
      <g>
       <use xlink:href="#maba8f08ee8" x="92.672958" y="304" style="stroke: #000000; stroke-width: 0.8"/>
      </g>
     </g>
     <g id="text_1">
      <text style="font: 15px 'DejaVu Sans', 'Bitstream Vera Sans', 'Computer Modern Sans Serif', 'Lucida Grande', 'Verdana', 'Geneva', 'Lucid', 'Arial', 'Helvetica', 'Avant Garde', sans-serif; text-anchor: middle" x="92.672958" y="322.397656" transform="rotate(-0 92.672958 322.397656)">0</text>
     </g>
    </g>
    <g id="xtick_2">
     <g id="line2d_2">
      <g>
       <use xlink:href="#maba8f08ee8" x="177.729252" y="304" style="stroke: #000000; stroke-width: 0.8"/>
      </g>
     </g>
     <g id="text_2">
      <text style="font: 15px 'DejaVu Sans', 'Bitstream Vera Sans', 'Computer Modern Sans Serif', 'Lucida Grande', 'Verdana', 'Geneva', 'Lucid', 'Arial', 'Helvetica', 'Avant Garde', sans-serif; text-anchor: middle" x="177.729252" y="322.397656" transform="rotate(-0 177.729252 322.397656)">50</text>
     </g>
    </g>
    <g id="xtick_3">
     <g id="line2d_3">
      <g>
       <use xlink:href="#maba8f08ee8" x="262.785545" y="304" style="stroke: #000000; stroke-width: 0.8"/>
      </g>
     </g>
     <g id="text_3">
      <text style="font: 15px 'DejaVu Sans', 'Bitstream Vera Sans', 'Computer Modern Sans Serif', 'Lucida Grande', 'Verdana', 'Geneva', 'Lucid', 'Arial', 'Helvetica', 'Avant Garde', sans-serif; text-anchor: middle" x="262.785545" y="322.397656" transform="rotate(-0 262.785545 322.397656)">100</text>
     </g>
    </g>
    <g id="xtick_4">
     <g id="line2d_4">
      <g>
       <use xlink:href="#maba8f08ee8" x="347.841839" y="304" style="stroke: #000000; stroke-width: 0.8"/>
      </g>
     </g>
     <g id="text_4">
      <text style="font: 15px 'DejaVu Sans', 'Bitstream Vera Sans', 'Computer Modern Sans Serif', 'Lucida Grande', 'Verdana', 'Geneva', 'Lucid', 'Arial', 'Helvetica', 'Avant Garde', sans-serif; text-anchor: middle" x="347.841839" y="322.397656" transform="rotate(-0 347.841839 322.397656)">150</text>
     </g>
    </g>
    <g id="xtick_5">
     <g id="line2d_5">
      <g>
       <use xlink:href="#maba8f08ee8" x="432.898133" y="304" style="stroke: #000000; stroke-width: 0.8"/>
      </g>
     </g>
     <g id="text_5">
      <text style="font: 15px 'DejaVu Sans', 'Bitstream Vera Sans', 'Computer Modern Sans Serif', 'Lucida Grande', 'Verdana', 'Geneva', 'Lucid', 'Arial', 'Helvetica', 'Avant Garde', sans-serif; text-anchor: middle" x="432.898133" y="322.397656" transform="rotate(-0 432.898133 322.397656)">200</text>
     </g>
    </g>
    <g id="xtick_6">
     <g id="line2d_6">
      <g>
       <use xlink:href="#maba8f08ee8" x="517.954427" y="304" style="stroke: #000000; stroke-width: 0.8"/>
      </g>
     </g>
     <g id="text_6">
      <text style="font: 15px 'DejaVu Sans', 'Bitstream Vera Sans', 'Computer Modern Sans Serif', 'Lucida Grande', 'Verdana', 'Geneva', 'Lucid', 'Arial', 'Helvetica', 'Avant Garde', sans-serif; text-anchor: middle" x="517.954427" y="322.397656" transform="rotate(-0 517.954427 322.397656)">250</text>
     </g>
    </g>
    <g id="xtick_7">
     <g id="line2d_7">
      <g>
       <use xlink:href="#maba8f08ee8" x="603.01072" y="304" style="stroke: #000000; stroke-width: 0.8"/>
      </g>
     </g>
     <g id="text_7">
      <text style="font: 15px 'DejaVu Sans', 'Bitstream Vera Sans', 'Computer Modern Sans Serif', 'Lucida Grande', 'Verdana', 'Geneva', 'Lucid', 'Arial', 'Helvetica', 'Avant Garde', sans-serif; text-anchor: middle" x="603.01072" y="322.397656" transform="rotate(-0 603.01072 322.397656)">300</text>
     </g>
    </g>
    <g id="xtick_8">
     <g id="line2d_8">
      <g>
       <use xlink:href="#maba8f08ee8" x="688.067014" y="304" style="stroke: #000000; stroke-width: 0.8"/>
      </g>
     </g>
     <g id="text_8">
      <text style="font: 15px 'DejaVu Sans', 'Bitstream Vera Sans', 'Computer Modern Sans Serif', 'Lucida Grande', 'Verdana', 'Geneva', 'Lucid', 'Arial', 'Helvetica', 'Avant Garde', sans-serif; text-anchor: middle" x="688.067014" y="322.397656" transform="rotate(-0 688.067014 322.397656)">350</text>
     </g>
    </g>
    <g id="text_9">
     <text style="font: 15px 'DejaVu Sans', 'Bitstream Vera Sans', 'Computer Modern Sans Serif', 'Lucida Grande', 'Verdana', 'Geneva', 'Lucid', 'Arial', 'Helvetica', 'Avant Garde', sans-serif; text-anchor: middle" x="382.71492" y="340.914844" transform="rotate(-0 382.71492 340.914844)">Epochs</text>
    </g>
   </g>
   <g id="matplotlib.axis_2">
    <g id="ytick_1">
     <g id="line2d_9">
      <defs>
       <path id="m5561524617" d="M 0 0 
L -3.5 0 
" style="stroke: #000000; stroke-width: 0.8"/>
      </defs>
      <g>
       <use xlink:href="#m5561524617" x="65.54" y="269.706874" style="stroke: #000000; stroke-width: 0.8"/>
      </g>
     </g>
     <g id="text_10">
      <text style="font: 15px 'DejaVu Sans', 'Bitstream Vera Sans', 'Computer Modern Sans Serif', 'Lucida Grande', 'Verdana', 'Geneva', 'Lucid', 'Arial', 'Helvetica', 'Avant Garde', sans-serif; text-anchor: end" x="58.54" y="275.405702" transform="rotate(-0 58.54 275.405702)">0.2</text>
     </g>
    </g>
    <g id="ytick_2">
     <g id="line2d_10">
      <g>
       <use xlink:href="#m5561524617" x="65.54" y="229.056689" style="stroke: #000000; stroke-width: 0.8"/>
      </g>
     </g>
     <g id="text_11">
      <text style="font: 15px 'DejaVu Sans', 'Bitstream Vera Sans', 'Computer Modern Sans Serif', 'Lucida Grande', 'Verdana', 'Geneva', 'Lucid', 'Arial', 'Helvetica', 'Avant Garde', sans-serif; text-anchor: end" x="58.54" y="234.755518" transform="rotate(-0 58.54 234.755518)">0.4</text>
     </g>
    </g>
    <g id="ytick_3">
     <g id="line2d_11">
      <g>
       <use xlink:href="#m5561524617" x="65.54" y="188.406505" style="stroke: #000000; stroke-width: 0.8"/>
      </g>
     </g>
     <g id="text_12">
      <text style="font: 15px 'DejaVu Sans', 'Bitstream Vera Sans', 'Computer Modern Sans Serif', 'Lucida Grande', 'Verdana', 'Geneva', 'Lucid', 'Arial', 'Helvetica', 'Avant Garde', sans-serif; text-anchor: end" x="58.54" y="194.105333" transform="rotate(-0 58.54 194.105333)">0.6</text>
     </g>
    </g>
    <g id="ytick_4">
     <g id="line2d_12">
      <g>
       <use xlink:href="#m5561524617" x="65.54" y="147.75632" style="stroke: #000000; stroke-width: 0.8"/>
      </g>
     </g>
     <g id="text_13">
      <text style="font: 15px 'DejaVu Sans', 'Bitstream Vera Sans', 'Computer Modern Sans Serif', 'Lucida Grande', 'Verdana', 'Geneva', 'Lucid', 'Arial', 'Helvetica', 'Avant Garde', sans-serif; text-anchor: end" x="58.54" y="153.455149" transform="rotate(-0 58.54 153.455149)">0.8</text>
     </g>
    </g>
    <g id="ytick_5">
     <g id="line2d_13">
      <g>
       <use xlink:href="#m5561524617" x="65.54" y="107.106136" style="stroke: #000000; stroke-width: 0.8"/>
      </g>
     </g>
     <g id="text_14">
      <text style="font: 15px 'DejaVu Sans', 'Bitstream Vera Sans', 'Computer Modern Sans Serif', 'Lucida Grande', 'Verdana', 'Geneva', 'Lucid', 'Arial', 'Helvetica', 'Avant Garde', sans-serif; text-anchor: end" x="58.54" y="112.804964" transform="rotate(-0 58.54 112.804964)">1.0</text>
     </g>
    </g>
    <g id="ytick_6">
     <g id="line2d_14">
      <g>
       <use xlink:href="#m5561524617" x="65.54" y="66.455951" style="stroke: #000000; stroke-width: 0.8"/>
      </g>
     </g>
     <g id="text_15">
      <text style="font: 15px 'DejaVu Sans', 'Bitstream Vera Sans', 'Computer Modern Sans Serif', 'Lucida Grande', 'Verdana', 'Geneva', 'Lucid', 'Arial', 'Helvetica', 'Avant Garde', sans-serif; text-anchor: end" x="58.54" y="72.15478" transform="rotate(-0 58.54 72.15478)">1.2</text>
     </g>
    </g>
    <g id="ytick_7">
     <g id="line2d_15">
      <g>
       <use xlink:href="#m5561524617" x="65.54" y="25.805767" style="stroke: #000000; stroke-width: 0.8"/>
      </g>
     </g>
     <g id="text_16">
      <text style="font: 15px 'DejaVu Sans', 'Bitstream Vera Sans', 'Computer Modern Sans Serif', 'Lucida Grande', 'Verdana', 'Geneva', 'Lucid', 'Arial', 'Helvetica', 'Avant Garde', sans-serif; text-anchor: end" x="58.54" y="31.504595" transform="rotate(-0 58.54 31.504595)">1.4</text>
     </g>
    </g>
    <g id="text_17">
     <text style="font: 15px 'DejaVu Sans', 'Bitstream Vera Sans', 'Computer Modern Sans Serif', 'Lucida Grande', 'Verdana', 'Geneva', 'Lucid', 'Arial', 'Helvetica', 'Avant Garde', sans-serif; text-anchor: middle" x="27.565781" y="160.1" transform="rotate(-90 27.565781 160.1)">Loss</text>
    </g>
   </g>
   <g id="line2d_16">
    <path d="M 94.374084 29.281818 
L 96.075209 35.282931 
L 97.776335 45.781578 
L 99.477461 55.409396 
L 101.178587 63.898747 
L 102.879713 75.588026 
L 104.580839 80.895015 
L 106.281965 93.434092 
L 107.983091 104.044412 
L 109.684216 113.063951 
L 113.086468 132.423507 
L 114.787594 137.932496 
L 116.48872 144.596441 
L 118.189846 148.760566 
L 119.890972 155.390589 
L 121.592098 164.504853 
L 123.293223 168.289558 
L 124.994349 172.595861 
L 126.695475 173.878662 
L 128.396601 179.977941 
L 130.097727 180.388883 
L 131.798853 177.936541 
L 133.499979 182.935684 
L 135.201105 190.663299 
L 136.90223 193.691949 
L 138.603356 193.231591 
L 140.304482 198.832749 
L 142.005608 195.421662 
L 143.706734 196.982096 
L 145.40786 197.031657 
L 147.108986 195.812325 
L 148.810112 203.593232 
L 150.511237 207.995569 
L 152.212363 209.418089 
L 153.913489 208.855967 
L 155.614615 208.666263 
L 157.315741 208.687282 
L 159.016867 213.415643 
L 160.717993 213.921171 
L 162.419119 215.81064 
L 164.120245 217.932178 
L 165.82137 218.840605 
L 167.522496 221.177985 
L 169.223622 224.551159 
L 170.924748 224.205266 
L 172.625874 222.825014 
L 174.327 222.309237 
L 176.028126 225.371112 
L 177.729252 223.362659 
L 181.131503 225.203572 
L 182.832629 234.459293 
L 184.533755 230.944849 
L 186.234881 230.631999 
L 187.936007 231.388774 
L 189.637133 231.367434 
L 191.338259 238.730075 
L 193.039384 231.818107 
L 194.74051 234.62799 
L 196.441636 237.095984 
L 198.142762 238.88793 
L 199.843888 233.652793 
L 201.545014 239.97242 
L 203.24614 239.415664 
L 204.947266 243.768985 
L 206.648391 237.901503 
L 208.349517 240.346128 
L 210.050643 241.857715 
L 211.751769 242.158765 
L 213.452895 242.844972 
L 215.154021 245.144627 
L 216.855147 245.759412 
L 218.556273 245.665014 
L 220.257398 246.057415 
L 221.958524 247.156139 
L 223.65965 246.72906 
L 225.360776 245.272516 
L 227.061902 247.046108 
L 228.763028 253.410904 
L 230.464154 250.133097 
L 232.16528 247.981538 
L 233.866405 250.947168 
L 235.567531 253.472174 
L 237.268657 250.681438 
L 238.969783 250.93624 
L 240.670909 249.177186 
L 242.372035 250.379952 
L 244.073161 251.0672 
L 245.774287 254.649535 
L 247.475412 253.28482 
L 249.176538 252.294819 
L 250.877664 250.287274 
L 252.57879 253.72035 
L 254.279916 255.407037 
L 255.981042 254.51737 
L 257.682168 254.013192 
L 259.383294 257.662485 
L 261.084419 255.281014 
L 262.785545 258.016579 
L 264.486671 257.65037 
L 266.187797 255.53478 
L 267.888923 261.119066 
L 269.590049 259.182637 
L 271.291175 257.830037 
L 272.992301 257.673473 
L 274.693426 259.896981 
L 276.394552 257.181574 
L 278.095678 258.349921 
L 279.796804 259.191318 
L 281.49793 261.30569 
L 283.199056 257.427121 
L 284.900182 261.60651 
L 286.601308 263.771985 
L 288.302433 262.077496 
L 290.003559 264.67397 
L 291.704685 262.380582 
L 293.405811 262.878759 
L 295.106937 266.164529 
L 296.808063 267.744141 
L 298.509189 266.215199 
L 300.210315 265.513346 
L 301.91144 264.978452 
L 303.612566 262.020466 
L 305.313692 269.506251 
L 307.014818 264.913375 
L 308.715944 264.611195 
L 310.41707 269.807234 
L 312.118196 270.388404 
L 313.819322 268.402196 
L 315.520447 267.226052 
L 317.221573 267.577215 
L 318.922699 267.081763 
L 320.623825 266.441632 
L 324.026077 269.190896 
L 325.727203 269.563238 
L 327.428329 271.062441 
L 330.83058 268.524345 
L 332.531706 271.395544 
L 334.232832 271.715493 
L 335.933958 269.646439 
L 337.635084 267.946695 
L 339.33621 270.341038 
L 341.037336 271.590806 
L 342.738461 275.213031 
L 344.439587 269.873902 
L 346.140713 268.940888 
L 347.841839 266.628077 
L 349.542965 268.819799 
L 351.244091 274.257512 
L 352.945217 274.669711 
L 354.646343 274.772686 
L 356.347468 270.472007 
L 358.048594 272.539145 
L 359.74972 270.806373 
L 361.450846 273.783872 
L 363.151972 274.304686 
L 364.853098 275.109953 
L 366.554224 274.297935 
L 368.25535 272.018879 
L 369.956475 271.904325 
L 371.657601 272.099881 
L 373.358727 274.156163 
L 375.059853 272.798475 
L 376.760979 276.734186 
L 378.462105 275.742071 
L 380.163231 275.087826 
L 381.864357 274.651763 
L 383.565482 275.025487 
L 385.266608 277.668866 
L 386.967734 278.241049 
L 388.66886 273.359086 
L 390.369986 276.628304 
L 392.071112 276.790677 
L 393.772238 281.095965 
L 395.473364 276.602745 
L 397.174489 276.969411 
L 398.875615 275.540037 
L 400.576741 274.424267 
L 402.277867 271.162124 
L 403.978993 278.276926 
L 405.680119 275.528129 
L 407.381245 275.379242 
L 409.082371 273.308337 
L 410.783497 280.061337 
L 412.484622 276.731067 
L 414.185748 279.91514 
L 415.886874 279.947056 
L 417.588 279.76608 
L 419.289126 278.402998 
L 420.990252 281.070191 
L 422.691378 279.891943 
L 424.392504 277.284929 
L 426.093629 276.943928 
L 427.794755 275.563016 
L 429.495881 277.674393 
L 431.197007 278.236751 
L 432.898133 280.884809 
L 434.599259 277.459272 
L 436.300385 279.845344 
L 438.001511 278.030401 
L 439.702636 277.684139 
L 441.403762 276.516697 
L 443.104888 277.671616 
L 444.806014 278.142232 
L 446.50714 277.577242 
L 448.208266 279.962384 
L 449.909392 280.709182 
L 451.610518 280.378896 
L 453.311643 280.415368 
L 455.012769 282.76435 
L 456.713895 279.822995 
L 458.415021 281.052056 
L 460.116147 282.461144 
L 461.817273 283.538043 
L 463.518399 282.396699 
L 465.219525 278.821912 
L 468.621776 278.233804 
L 470.322902 278.513112 
L 472.024028 279.691333 
L 473.725154 281.682008 
L 475.42628 280.775741 
L 477.127406 283.203669 
L 478.828532 279.556799 
L 480.529657 283.5119 
L 482.230783 282.37502 
L 483.931909 282.300266 
L 485.633035 281.789156 
L 487.334161 283.902523 
L 489.035287 280.515426 
L 490.736413 280.00729 
L 492.437539 279.837375 
L 494.138664 282.223099 
L 495.83979 287.826249 
L 497.540916 285.785576 
L 499.242042 286.08507 
L 500.943168 284.639748 
L 502.644294 282.94323 
L 504.34542 283.444754 
L 506.046546 281.91027 
L 507.747671 286.114505 
L 509.448797 284.28675 
L 511.149923 286.947171 
L 512.851049 282.240856 
L 514.552175 284.364133 
L 516.253301 287.607821 
L 517.954427 285.729777 
L 519.655553 284.178369 
L 521.356678 280.742898 
L 523.057804 284.113516 
L 524.75893 286.984256 
L 526.460056 284.984476 
L 528.161182 285.320355 
L 529.862308 283.991509 
L 531.563434 284.84468 
L 533.26456 285.029427 
L 534.965685 284.550178 
L 536.666811 285.242621 
L 538.367937 286.184923 
L 540.069063 286.692694 
L 541.770189 281.86315 
L 543.471315 285.25497 
L 545.172441 285.765746 
L 546.873567 283.054188 
L 548.574692 284.364066 
L 550.275818 284.580895 
L 551.976944 285.881821 
L 553.67807 285.617312 
L 555.379196 281.123163 
L 557.080322 284.85214 
L 558.781448 283.395638 
L 562.183699 288.363004 
L 563.884825 289.049942 
L 565.585951 287.474065 
L 567.287077 288.420896 
L 568.988203 289.839946 
L 570.689329 283.844594 
L 572.390455 285.757238 
L 574.091581 288.390598 
L 575.792706 285.530412 
L 577.493832 285.091531 
L 580.896084 289.736314 
L 582.59721 288.63089 
L 584.298336 281.622931 
L 585.999462 284.766934 
L 587.700588 286.114069 
L 589.401713 288.663901 
L 592.803965 285.614276 
L 594.505091 290.891963 
L 596.206217 287.003403 
L 597.907343 284.792669 
L 599.608469 285.538424 
L 601.309595 286.117572 
L 603.01072 289.837614 
L 604.711846 288.940057 
L 606.412972 287.110835 
L 608.114098 289.104872 
L 609.815224 289.20651 
L 611.51635 286.691613 
L 613.217476 290.700313 
L 614.918602 289.157398 
L 616.619727 290.725104 
L 618.320853 287.106832 
L 620.021979 290.106547 
L 621.723105 290.491737 
L 623.424231 288.4556 
L 625.125357 289.769 
L 626.826483 288.70873 
L 628.527609 283.586844 
L 630.228734 288.03906 
L 631.92986 288.719688 
L 633.630986 289.757283 
L 635.332112 288.389887 
L 637.033238 288.143857 
L 638.734364 290.842803 
L 640.43549 287.528383 
L 642.136616 284.652284 
L 643.837741 288.45197 
L 645.538867 286.66905 
L 647.239993 288.908914 
L 648.941119 288.448181 
L 650.642245 287.714821 
L 652.343371 286.300151 
L 654.044497 288.237505 
L 655.745623 286.168391 
L 657.446748 287.520631 
L 659.147874 290.818967 
L 660.849 286.400408 
L 662.550126 287.197552 
L 664.251252 288.809197 
L 665.952378 289.586034 
L 667.653504 288.61824 
L 669.35463 290.918182 
L 671.055756 289.534785 
L 671.055756 289.534785 
" clip-path="url(#pbd38df805f)" style="fill: none; stroke: #1f77b4; stroke-width: 1.5; stroke-linecap: square"/>
   </g>
   <g id="line2d_17">
    <path d="M 94.374084 33.172623 
L 96.075209 44.985133 
L 97.776335 58.102542 
L 99.477461 68.573034 
L 102.879713 92.848759 
L 104.580839 98.91013 
L 106.281965 114.683153 
L 107.983091 116.937117 
L 109.684216 134.619587 
L 111.385342 145.560492 
L 113.086468 155.098795 
L 114.787594 160.563578 
L 116.48872 166.415499 
L 118.189846 173.104048 
L 119.890972 177.070352 
L 123.293223 187.902286 
L 124.994349 189.086934 
L 126.695475 191.630427 
L 128.396601 196.048501 
L 130.097727 195.47682 
L 131.798853 198.216596 
L 133.499979 200.548796 
L 135.201105 205.685901 
L 136.90223 208.280591 
L 138.603356 208.70228 
L 140.304482 210.057666 
L 142.005608 212.40948 
L 143.706734 208.458326 
L 145.40786 214.113946 
L 147.108986 215.208109 
L 148.810112 218.163823 
L 150.511237 218.222246 
L 152.212363 220.615766 
L 153.913489 221.420612 
L 155.614615 223.402098 
L 157.315741 223.417665 
L 159.016867 225.076967 
L 160.717993 225.86962 
L 162.419119 226.252402 
L 164.120245 225.443485 
L 167.522496 230.098564 
L 169.223622 230.24789 
L 170.924748 229.063212 
L 172.625874 230.457208 
L 174.327 230.740995 
L 176.028126 229.938475 
L 177.729252 228.639724 
L 179.430377 232.443782 
L 181.131503 234.479464 
L 182.832629 234.955493 
L 184.533755 233.591232 
L 186.234881 232.919981 
L 187.936007 234.764729 
L 189.637133 235.783126 
L 191.338259 235.997472 
L 193.039384 235.887846 
L 194.74051 236.983154 
L 196.441636 237.870217 
L 198.142762 235.354478 
L 199.843888 238.151932 
L 201.545014 240.542089 
L 203.24614 238.159824 
L 204.947266 238.853851 
L 206.648391 241.801897 
L 208.349517 240.349914 
L 210.050643 237.905349 
L 211.751769 236.061353 
L 213.452895 240.066739 
L 215.154021 240.071784 
L 216.855147 240.964268 
L 218.556273 241.471311 
L 220.257398 241.585183 
L 221.958524 240.186026 
L 223.65965 241.712357 
L 225.360776 237.676612 
L 227.061902 242.432903 
L 228.763028 243.483108 
L 230.464154 242.633892 
L 232.16528 244.754067 
L 233.866405 247.650667 
L 235.567531 244.925896 
L 237.268657 241.797729 
L 238.969783 246.29817 
L 240.670909 243.711531 
L 242.372035 241.436608 
L 244.073161 244.450461 
L 245.774287 245.247347 
L 247.475412 246.304694 
L 249.176538 241.721746 
L 250.877664 241.798717 
L 252.57879 246.061158 
L 254.279916 245.388138 
L 255.981042 244.975409 
L 259.383294 247.439278 
L 261.084419 246.939105 
L 262.785545 247.136405 
L 264.486671 245.742851 
L 266.187797 247.469129 
L 267.888923 248.055256 
L 269.590049 247.144467 
L 271.291175 245.927685 
L 272.992301 244.510968 
L 274.693426 246.640138 
L 276.394552 249.280113 
L 279.796804 246.562852 
L 281.49793 246.972408 
L 283.199056 249.497535 
L 288.302433 251.860883 
L 290.003559 246.941491 
L 291.704685 247.423917 
L 293.405811 250.070033 
L 295.106937 248.045601 
L 296.808063 248.806585 
L 298.509189 251.998118 
L 300.210315 248.758969 
L 301.91144 248.577181 
L 303.612566 248.776874 
L 305.313692 247.872354 
L 307.014818 250.311358 
L 308.715944 251.246462 
L 310.41707 248.040543 
L 312.118196 248.769726 
L 313.819322 248.154633 
L 315.520447 248.207423 
L 317.221573 247.592596 
L 318.922699 251.051615 
L 320.623825 248.955124 
L 322.324951 247.718467 
L 324.026077 251.776377 
L 325.727203 250.560527 
L 327.428329 248.696772 
L 329.129454 251.878328 
L 330.83058 252.450741 
L 332.531706 251.259085 
L 334.232832 251.143244 
L 335.933958 251.180128 
L 337.635084 251.015422 
L 339.33621 245.516179 
L 341.037336 249.270475 
L 342.738461 249.398897 
L 344.439587 247.04277 
L 346.140713 248.369529 
L 347.841839 248.949333 
L 349.542965 250.359617 
L 352.945217 249.173152 
L 354.646343 247.015506 
L 356.347468 248.393002 
L 358.048594 250.638679 
L 359.74972 247.724488 
L 361.450846 251.093774 
L 363.151972 248.352205 
L 364.853098 250.105263 
L 366.554224 251.450824 
L 368.25535 251.769405 
L 369.956475 250.199097 
L 371.657601 250.143243 
L 373.358727 248.25971 
L 375.059853 252.159425 
L 376.760979 252.371469 
L 378.462105 248.724151 
L 380.163231 250.255328 
L 381.864357 250.67314 
L 383.565482 251.931142 
L 386.967734 248.343029 
L 388.66886 248.613471 
L 390.369986 247.261101 
L 392.071112 250.825143 
L 393.772238 250.055708 
L 395.473364 249.981675 
L 397.174489 248.054251 
L 398.875615 249.286715 
L 400.576741 251.317284 
L 402.277867 246.01396 
L 403.978993 249.572979 
L 405.680119 247.840959 
L 407.381245 248.198736 
L 409.082371 250.220304 
L 410.783497 250.524359 
L 412.484622 246.240365 
L 414.185748 249.534515 
L 415.886874 249.366127 
L 417.588 245.797748 
L 419.289126 246.927608 
L 420.990252 248.854687 
L 422.691378 245.373801 
L 424.392504 247.548401 
L 426.093629 244.734908 
L 427.794755 248.375024 
L 429.495881 247.211304 
L 431.197007 249.215093 
L 432.898133 249.923839 
L 434.599259 249.904571 
L 436.300385 247.71559 
L 438.001511 245.764542 
L 439.702636 250.330251 
L 441.403762 250.012525 
L 443.104888 251.245753 
L 444.806014 248.409569 
L 446.50714 250.946374 
L 448.208266 251.434191 
L 449.909392 246.749352 
L 451.610518 247.846974 
L 453.311643 250.06967 
L 455.012769 244.593578 
L 456.713895 245.465182 
L 458.415021 250.558401 
L 460.116147 247.346074 
L 461.817273 247.799036 
L 463.518399 248.931088 
L 465.219525 245.096677 
L 466.92065 249.02786 
L 468.621776 244.344281 
L 470.322902 245.463389 
L 472.024028 245.068674 
L 475.42628 250.3067 
L 478.828532 246.516829 
L 480.529657 247.47183 
L 483.931909 246.51947 
L 485.633035 247.769943 
L 489.035287 245.297872 
L 490.736413 247.163529 
L 492.437539 246.279314 
L 494.138664 248.285914 
L 495.83979 248.119076 
L 497.540916 250.133521 
L 499.242042 249.72958 
L 500.943168 243.376365 
L 502.644294 246.050564 
L 504.34542 247.005905 
L 506.046546 246.602891 
L 507.747671 248.808693 
L 509.448797 242.895896 
L 511.149923 245.284515 
L 512.851049 246.751805 
L 514.552175 247.54739 
L 516.253301 247.080974 
L 521.356678 243.518883 
L 523.057804 245.157444 
L 524.75893 245.777293 
L 526.460056 246.737365 
L 528.161182 243.865127 
L 529.862308 239.90336 
L 531.563434 244.062633 
L 533.26456 242.117915 
L 534.965685 242.598705 
L 536.666811 242.730113 
L 538.367937 244.604735 
L 540.069063 238.695191 
L 541.770189 243.452743 
L 543.471315 245.868274 
L 545.172441 245.328595 
L 546.873567 242.714727 
L 548.574692 242.883297 
L 550.275818 245.175005 
L 551.976944 242.314766 
L 553.67807 247.196469 
L 555.379196 245.665099 
L 557.080322 244.559856 
L 558.781448 249.773175 
L 560.482574 245.843385 
L 562.183699 243.328549 
L 565.585951 244.730238 
L 567.287077 246.11897 
L 568.988203 242.983976 
L 570.689329 241.060744 
L 572.390455 242.579024 
L 574.091581 245.606833 
L 575.792706 247.563811 
L 577.493832 245.860139 
L 579.194958 248.058085 
L 580.896084 245.206048 
L 582.59721 244.731649 
L 584.298336 243.608653 
L 585.999462 246.680341 
L 587.700588 249.447598 
L 589.401713 243.534075 
L 591.102839 249.118927 
L 592.803965 248.57514 
L 594.505091 245.855996 
L 596.206217 249.423284 
L 597.907343 247.302382 
L 599.608469 243.529398 
L 601.309595 245.117817 
L 604.711846 241.635265 
L 606.412972 240.391219 
L 608.114098 243.371174 
L 611.51635 247.373659 
L 613.217476 246.307347 
L 614.918602 245.976392 
L 616.619727 244.622968 
L 618.320853 243.517447 
L 620.021979 243.441567 
L 621.723105 242.391834 
L 623.424231 243.202192 
L 625.125357 239.537999 
L 626.826483 245.756407 
L 628.527609 244.146164 
L 630.228734 243.157731 
L 631.92986 243.0976 
L 633.630986 241.799868 
L 635.332112 243.369581 
L 637.033238 244.708819 
L 638.734364 245.376109 
L 640.43549 244.296877 
L 642.136616 244.440527 
L 643.837741 243.254691 
L 645.538867 244.563648 
L 647.239993 244.540176 
L 648.941119 242.989192 
L 650.642245 245.451898 
L 652.343371 243.283088 
L 654.044497 243.857501 
L 655.745623 239.58169 
L 657.446748 244.034824 
L 659.147874 244.89298 
L 660.849 244.589017 
L 662.550126 248.957934 
L 664.251252 244.575666 
L 665.952378 244.8851 
L 667.653504 243.13352 
L 669.35463 243.042218 
L 671.055756 241.431429 
L 671.055756 241.431429 
" clip-path="url(#pbd38df805f)" style="fill: none; stroke: #ff7f0e; stroke-width: 1.5; stroke-linecap: square"/>
   </g>
   <g id="patch_3">
    <path d="M 65.54 304 
L 65.54 16.2 
" style="fill: none; stroke: #000000; stroke-width: 0.8; stroke-linejoin: miter; stroke-linecap: square"/>
   </g>
   <g id="patch_4">
    <path d="M 699.889839 304 
L 699.889839 16.2 
" style="fill: none; stroke: #000000; stroke-width: 0.8; stroke-linejoin: miter; stroke-linecap: square"/>
   </g>
   <g id="patch_5">
    <path d="M 65.54 304 
L 699.889839 304 
" style="fill: none; stroke: #000000; stroke-width: 0.8; stroke-linejoin: miter; stroke-linecap: square"/>
   </g>
   <g id="patch_6">
    <path d="M 65.54 16.2 
L 699.889839 16.2 
" style="fill: none; stroke: #000000; stroke-width: 0.8; stroke-linejoin: miter; stroke-linecap: square"/>
   </g>
   <g id="legend_1">
    <g id="patch_7">
     <path d="M 529.649214 72.234375 
L 689.389839 72.234375 
Q 692.389839 72.234375 692.389839 69.234375 
L 692.389839 26.7 
Q 692.389839 23.7 689.389839 23.7 
L 529.649214 23.7 
Q 526.649214 23.7 526.649214 26.7 
L 526.649214 69.234375 
Q 526.649214 72.234375 529.649214 72.234375 
z
" style="fill: #ffffff; opacity: 0.8; stroke: #cccccc; stroke-linejoin: miter"/>
    </g>
    <g id="line2d_18">
     <path d="M 532.649214 35.847656 
L 547.649214 35.847656 
L 562.649214 35.847656 
" style="fill: none; stroke: #1f77b4; stroke-width: 1.5; stroke-linecap: square"/>
    </g>
    <g id="text_18">
     <text style="font: 15px 'DejaVu Sans', 'Bitstream Vera Sans', 'Computer Modern Sans Serif', 'Lucida Grande', 'Verdana', 'Geneva', 'Lucid', 'Arial', 'Helvetica', 'Avant Garde', sans-serif; text-anchor: start" x="574.649214" y="41.097656" transform="rotate(-0 574.649214 41.097656)">Training Loss</text>
    </g>
    <g id="line2d_19">
     <path d="M 532.649214 57.864844 
L 547.649214 57.864844 
L 562.649214 57.864844 
" style="fill: none; stroke: #ff7f0e; stroke-width: 1.5; stroke-linecap: square"/>
    </g>
    <g id="text_19">
     <text style="font: 15px 'DejaVu Sans', 'Bitstream Vera Sans', 'Computer Modern Sans Serif', 'Lucida Grande', 'Verdana', 'Geneva', 'Lucid', 'Arial', 'Helvetica', 'Avant Garde', sans-serif; text-anchor: start" x="574.649214" y="63.114844" transform="rotate(-0 574.649214 63.114844)">Validation Loss</text>
    </g>
   </g>
  </g>
 </g>
 <defs>
  <clipPath id="pbd38df805f">
   <rect x="65.54" y="16.2" width="634.349839" height="287.8"/>
  </clipPath>
 </defs>
</svg>
