<?xml version="1.0" encoding="utf-8" standalone="no"?>
<!DOCTYPE svg PUBLIC "-//W3C//DTD SVG 1.1//EN"
  "http://www.w3.org/Graphics/SVG/1.1/DTD/svg11.dtd">
<svg xmlns:xlink="http://www.w3.org/1999/xlink" width="720pt" height="360pt" viewBox="0 0 720 360" xmlns="http://www.w3.org/2000/svg" version="1.1">
 <metadata>
  <rdf:RDF xmlns:dc="http://purl.org/dc/elements/1.1/" xmlns:cc="http://creativecommons.org/ns#" xmlns:rdf="http://www.w3.org/1999/02/22-rdf-syntax-ns#">
   <cc:Work>
    <dc:type rdf:resource="http://purl.org/dc/dcmitype/StillImage"/>
    <dc:date>2023-07-18T21:39:18.530592</dc:date>
    <dc:format>image/svg+xml</dc:format>
    <dc:creator>
     <cc:Agent>
      <dc:title>Matplotlib v3.7.2, https://matplotlib.org/</dc:title>
     </cc:Agent>
    </dc:creator>
   </cc:Work>
  </rdf:RDF>
 </metadata>
 <defs>
  <style type="text/css">*{stroke-linejoin: round; stroke-linecap: butt}</style>
 </defs>
 <g id="figure_1">
  <g id="patch_1">
   <path d="M 0 360 
L 720 360 
L 720 0 
L 0 0 
z
" style="fill: #ffffff"/>
  </g>
  <g id="axes_1">
   <g id="patch_2">
    <path d="M 65.54 304 
L 699.889839 304 
L 699.889839 20.429765 
L 65.54 20.429765 
z
" style="fill: #ffffff"/>
   </g>
   <g id="matplotlib.axis_1">
    <g id="xtick_1">
     <g id="line2d_1">
      <defs>
       <path id="mf96d3b9edd" d="M 0 0 
L 0 3.5 
" style="stroke: #000000; stroke-width: 0.8"/>
      </defs>
      <g>
       <use xlink:href="#mf96d3b9edd" x="92.672958" y="304" style="stroke: #000000; stroke-width: 0.8"/>
      </g>
     </g>
     <g id="text_1">
      <text style="font: 15px 'DejaVu Sans', 'Bitstream Vera Sans', 'Computer Modern Sans Serif', 'Lucida Grande', 'Verdana', 'Geneva', 'Lucid', 'Arial', 'Helvetica', 'Avant Garde', sans-serif; text-anchor: middle" x="92.672958" y="322.397656" transform="rotate(-0 92.672958 322.397656)">0</text>
     </g>
    </g>
    <g id="xtick_2">
     <g id="line2d_2">
      <g>
       <use xlink:href="#mf96d3b9edd" x="177.729252" y="304" style="stroke: #000000; stroke-width: 0.8"/>
      </g>
     </g>
     <g id="text_2">
      <text style="font: 15px 'DejaVu Sans', 'Bitstream Vera Sans', 'Computer Modern Sans Serif', 'Lucida Grande', 'Verdana', 'Geneva', 'Lucid', 'Arial', 'Helvetica', 'Avant Garde', sans-serif; text-anchor: middle" x="177.729252" y="322.397656" transform="rotate(-0 177.729252 322.397656)">50</text>
     </g>
    </g>
    <g id="xtick_3">
     <g id="line2d_3">
      <g>
       <use xlink:href="#mf96d3b9edd" x="262.785545" y="304" style="stroke: #000000; stroke-width: 0.8"/>
      </g>
     </g>
     <g id="text_3">
      <text style="font: 15px 'DejaVu Sans', 'Bitstream Vera Sans', 'Computer Modern Sans Serif', 'Lucida Grande', 'Verdana', 'Geneva', 'Lucid', 'Arial', 'Helvetica', 'Avant Garde', sans-serif; text-anchor: middle" x="262.785545" y="322.397656" transform="rotate(-0 262.785545 322.397656)">100</text>
     </g>
    </g>
    <g id="xtick_4">
     <g id="line2d_4">
      <g>
       <use xlink:href="#mf96d3b9edd" x="347.841839" y="304" style="stroke: #000000; stroke-width: 0.8"/>
      </g>
     </g>
     <g id="text_4">
      <text style="font: 15px 'DejaVu Sans', 'Bitstream Vera Sans', 'Computer Modern Sans Serif', 'Lucida Grande', 'Verdana', 'Geneva', 'Lucid', 'Arial', 'Helvetica', 'Avant Garde', sans-serif; text-anchor: middle" x="347.841839" y="322.397656" transform="rotate(-0 347.841839 322.397656)">150</text>
     </g>
    </g>
    <g id="xtick_5">
     <g id="line2d_5">
      <g>
       <use xlink:href="#mf96d3b9edd" x="432.898133" y="304" style="stroke: #000000; stroke-width: 0.8"/>
      </g>
     </g>
     <g id="text_5">
      <text style="font: 15px 'DejaVu Sans', 'Bitstream Vera Sans', 'Computer Modern Sans Serif', 'Lucida Grande', 'Verdana', 'Geneva', 'Lucid', 'Arial', 'Helvetica', 'Avant Garde', sans-serif; text-anchor: middle" x="432.898133" y="322.397656" transform="rotate(-0 432.898133 322.397656)">200</text>
     </g>
    </g>
    <g id="xtick_6">
     <g id="line2d_6">
      <g>
       <use xlink:href="#mf96d3b9edd" x="517.954427" y="304" style="stroke: #000000; stroke-width: 0.8"/>
      </g>
     </g>
     <g id="text_6">
      <text style="font: 15px 'DejaVu Sans', 'Bitstream Vera Sans', 'Computer Modern Sans Serif', 'Lucida Grande', 'Verdana', 'Geneva', 'Lucid', 'Arial', 'Helvetica', 'Avant Garde', sans-serif; text-anchor: middle" x="517.954427" y="322.397656" transform="rotate(-0 517.954427 322.397656)">250</text>
     </g>
    </g>
    <g id="xtick_7">
     <g id="line2d_7">
      <g>
       <use xlink:href="#mf96d3b9edd" x="603.01072" y="304" style="stroke: #000000; stroke-width: 0.8"/>
      </g>
     </g>
     <g id="text_7">
      <text style="font: 15px 'DejaVu Sans', 'Bitstream Vera Sans', 'Computer Modern Sans Serif', 'Lucida Grande', 'Verdana', 'Geneva', 'Lucid', 'Arial', 'Helvetica', 'Avant Garde', sans-serif; text-anchor: middle" x="603.01072" y="322.397656" transform="rotate(-0 603.01072 322.397656)">300</text>
     </g>
    </g>
    <g id="xtick_8">
     <g id="line2d_8">
      <g>
       <use xlink:href="#mf96d3b9edd" x="688.067014" y="304" style="stroke: #000000; stroke-width: 0.8"/>
      </g>
     </g>
     <g id="text_8">
      <text style="font: 15px 'DejaVu Sans', 'Bitstream Vera Sans', 'Computer Modern Sans Serif', 'Lucida Grande', 'Verdana', 'Geneva', 'Lucid', 'Arial', 'Helvetica', 'Avant Garde', sans-serif; text-anchor: middle" x="688.067014" y="322.397656" transform="rotate(-0 688.067014 322.397656)">350</text>
     </g>
    </g>
    <g id="text_9">
     <text style="font: 15px 'DejaVu Sans', 'Bitstream Vera Sans', 'Computer Modern Sans Serif', 'Lucida Grande', 'Verdana', 'Geneva', 'Lucid', 'Arial', 'Helvetica', 'Avant Garde', sans-serif; text-anchor: middle" x="382.71492" y="340.914844" transform="rotate(-0 382.71492 340.914844)">Epoch</text>
    </g>
   </g>
   <g id="matplotlib.axis_2">
    <g id="ytick_1">
     <g id="line2d_9">
      <defs>
       <path id="me524847a31" d="M 0 0 
L -3.5 0 
" style="stroke: #000000; stroke-width: 0.8"/>
      </defs>
      <g>
       <use xlink:href="#me524847a31" x="65.54" y="280.435758" style="stroke: #000000; stroke-width: 0.8"/>
      </g>
     </g>
     <g id="text_10">
      <text style="font: 15px 'DejaVu Sans', 'Bitstream Vera Sans', 'Computer Modern Sans Serif', 'Lucida Grande', 'Verdana', 'Geneva', 'Lucid', 'Arial', 'Helvetica', 'Avant Garde', sans-serif; text-anchor: end" x="58.54" y="286.134587" transform="rotate(-0 58.54 286.134587)">0.3</text>
     </g>
    </g>
    <g id="ytick_2">
     <g id="line2d_10">
      <g>
       <use xlink:href="#me524847a31" x="65.54" y="243.515674" style="stroke: #000000; stroke-width: 0.8"/>
      </g>
     </g>
     <g id="text_11">
      <text style="font: 15px 'DejaVu Sans', 'Bitstream Vera Sans', 'Computer Modern Sans Serif', 'Lucida Grande', 'Verdana', 'Geneva', 'Lucid', 'Arial', 'Helvetica', 'Avant Garde', sans-serif; text-anchor: end" x="58.54" y="249.214502" transform="rotate(-0 58.54 249.214502)">0.4</text>
     </g>
    </g>
    <g id="ytick_3">
     <g id="line2d_11">
      <g>
       <use xlink:href="#me524847a31" x="65.54" y="206.595589" style="stroke: #000000; stroke-width: 0.8"/>
      </g>
     </g>
     <g id="text_12">
      <text style="font: 15px 'DejaVu Sans', 'Bitstream Vera Sans', 'Computer Modern Sans Serif', 'Lucida Grande', 'Verdana', 'Geneva', 'Lucid', 'Arial', 'Helvetica', 'Avant Garde', sans-serif; text-anchor: end" x="58.54" y="212.294417" transform="rotate(-0 58.54 212.294417)">0.5</text>
     </g>
    </g>
    <g id="ytick_4">
     <g id="line2d_12">
      <g>
       <use xlink:href="#me524847a31" x="65.54" y="169.675504" style="stroke: #000000; stroke-width: 0.8"/>
      </g>
     </g>
     <g id="text_13">
      <text style="font: 15px 'DejaVu Sans', 'Bitstream Vera Sans', 'Computer Modern Sans Serif', 'Lucida Grande', 'Verdana', 'Geneva', 'Lucid', 'Arial', 'Helvetica', 'Avant Garde', sans-serif; text-anchor: end" x="58.54" y="175.374333" transform="rotate(-0 58.54 175.374333)">0.6</text>
     </g>
    </g>
    <g id="ytick_5">
     <g id="line2d_13">
      <g>
       <use xlink:href="#me524847a31" x="65.54" y="132.75542" style="stroke: #000000; stroke-width: 0.8"/>
      </g>
     </g>
     <g id="text_14">
      <text style="font: 15px 'DejaVu Sans', 'Bitstream Vera Sans', 'Computer Modern Sans Serif', 'Lucida Grande', 'Verdana', 'Geneva', 'Lucid', 'Arial', 'Helvetica', 'Avant Garde', sans-serif; text-anchor: end" x="58.54" y="138.454248" transform="rotate(-0 58.54 138.454248)">0.7</text>
     </g>
    </g>
    <g id="ytick_6">
     <g id="line2d_14">
      <g>
       <use xlink:href="#me524847a31" x="65.54" y="95.835335" style="stroke: #000000; stroke-width: 0.8"/>
      </g>
     </g>
     <g id="text_15">
      <text style="font: 15px 'DejaVu Sans', 'Bitstream Vera Sans', 'Computer Modern Sans Serif', 'Lucida Grande', 'Verdana', 'Geneva', 'Lucid', 'Arial', 'Helvetica', 'Avant Garde', sans-serif; text-anchor: end" x="58.54" y="101.534163" transform="rotate(-0 58.54 101.534163)">0.8</text>
     </g>
    </g>
    <g id="ytick_7">
     <g id="line2d_15">
      <g>
       <use xlink:href="#me524847a31" x="65.54" y="58.91525" style="stroke: #000000; stroke-width: 0.8"/>
      </g>
     </g>
     <g id="text_16">
      <text style="font: 15px 'DejaVu Sans', 'Bitstream Vera Sans', 'Computer Modern Sans Serif', 'Lucida Grande', 'Verdana', 'Geneva', 'Lucid', 'Arial', 'Helvetica', 'Avant Garde', sans-serif; text-anchor: end" x="58.54" y="64.614079" transform="rotate(-0 58.54 64.614079)">0.9</text>
     </g>
    </g>
    <g id="ytick_8">
     <g id="line2d_16">
      <g>
       <use xlink:href="#me524847a31" x="65.54" y="21.995166" style="stroke: #000000; stroke-width: 0.8"/>
      </g>
     </g>
     <g id="text_17">
      <text style="font: 15px 'DejaVu Sans', 'Bitstream Vera Sans', 'Computer Modern Sans Serif', 'Lucida Grande', 'Verdana', 'Geneva', 'Lucid', 'Arial', 'Helvetica', 'Avant Garde', sans-serif; text-anchor: end" x="58.54" y="27.693994" transform="rotate(-0 58.54 27.693994)">1.0</text>
     </g>
    </g>
    <g id="text_18">
     <text style="font: 15px 'DejaVu Sans', 'Bitstream Vera Sans', 'Computer Modern Sans Serif', 'Lucida Grande', 'Verdana', 'Geneva', 'Lucid', 'Arial', 'Helvetica', 'Avant Garde', sans-serif; text-anchor: middle" x="27.565781" y="162.214883" transform="rotate(-90 27.565781 162.214883)">Accuracy</text>
    </g>
   </g>
   <g id="line2d_17">
    <path d="M 94.374084 291.110444 
L 96.075209 267.462936 
L 97.776335 252.974679 
L 99.477461 240.318264 
L 101.178587 232.824334 
L 102.879713 215.171977 
L 104.580839 206.179256 
L 106.281965 188.859961 
L 109.684216 169.209209 
L 111.385342 157.385471 
L 113.086468 151.889913 
L 114.787594 148.55927 
L 116.48872 140.7323 
L 118.189846 134.737138 
L 119.890972 132.239161 
L 121.592098 126.910146 
L 123.293223 118.250509 
L 124.994349 118.250509 
L 126.695475 117.417843 
L 128.396601 114.253742 
L 130.097727 113.75416 
L 131.798853 114.586804 
L 133.499979 109.091268 
L 135.201105 106.42675 
L 136.90223 99.432423 
L 138.603356 103.096129 
L 140.304482 97.267509 
L 142.005608 100.764672 
L 143.706734 101.097734 
L 145.40786 102.263462 
L 147.108986 97.600571 
L 148.810112 94.103408 
L 150.511237 94.103408 
L 152.212363 89.440516 
L 153.913489 90.939307 
L 155.614615 88.774392 
L 157.315741 90.772765 
L 159.016867 87.941726 
L 160.717993 88.274788 
L 162.419119 85.110687 
L 164.120245 83.278834 
L 165.82137 83.611897 
L 167.522496 81.946586 
L 169.223622 79.282089 
L 170.924748 80.780858 
L 172.625874 83.445377 
L 174.327 78.116361 
L 176.028126 80.114734 
L 177.729252 80.447796 
L 179.430377 80.614338 
L 181.131503 81.780066 
L 182.832629 76.45105 
L 184.533755 75.618384 
L 186.234881 75.618384 
L 187.936007 76.61757 
L 189.637133 77.117175 
L 191.338259 69.789764 
L 193.039384 73.953074 
L 194.74051 76.61757 
L 196.441636 72.121221 
L 198.142762 68.457516 
L 199.843888 70.622431 
L 201.545014 70.622431 
L 203.24614 68.790578 
L 204.947266 69.623244 
L 206.648391 70.289369 
L 208.349517 68.95712 
L 210.050643 64.627291 
L 211.751769 66.958725 
L 213.452895 68.624058 
L 215.154021 66.625663 
L 216.855147 65.459957 
L 218.556273 64.627291 
L 220.257398 68.624058 
L 221.958524 61.130128 
L 223.65965 63.461562 
L 225.360776 65.293415 
L 227.061902 63.628104 
L 228.763028 59.298275 
L 230.464154 61.62971 
L 232.16528 64.460749 
L 233.866405 59.631337 
L 235.567531 60.797066 
L 237.268657 63.461562 
L 238.969783 61.62971 
L 240.670909 60.464004 
L 242.372035 62.462376 
L 244.073161 64.127687 
L 245.774287 59.964399 
L 247.475412 58.632151 
L 249.176538 62.795438 
L 250.877664 60.963586 
L 252.57879 60.630524 
L 254.279916 58.132547 
L 255.981042 59.797879 
L 257.682168 60.297461 
L 259.383294 57.466423 
L 261.084419 59.298275 
L 262.785545 56.800298 
L 264.486671 55.63457 
L 266.187797 58.965213 
L 267.888923 54.302322 
L 269.590049 57.133361 
L 271.291175 57.299903 
L 272.992301 58.798671 
L 274.693426 58.299089 
L 276.394552 57.966027 
L 278.095678 54.801926 
L 279.796804 54.635384 
L 281.49793 53.303135 
L 283.199056 55.63457 
L 284.900182 52.637011 
L 286.601308 54.468864 
L 288.302433 54.801926 
L 290.003559 53.136593 
L 291.704685 54.13578 
L 293.405811 54.13578 
L 295.106937 51.138221 
L 296.808063 49.972492 
L 298.509189 49.139848 
L 300.210315 52.470469 
L 301.91144 50.805159 
L 303.612566 55.46805 
L 305.313692 48.806764 
L 307.014818 54.302322 
L 308.715944 51.471283 
L 310.41707 50.305554 
L 312.118196 49.63943 
L 313.819322 51.637803 
L 315.520447 50.472096 
L 317.221573 48.973306 
L 318.922699 47.97412 
L 320.623825 52.637011 
L 324.026077 48.973306 
L 325.727203 48.640244 
L 327.428329 48.473702 
L 329.129454 48.14064 
L 330.83058 49.306368 
L 332.531706 47.97412 
L 334.232832 47.97412 
L 335.933958 51.138221 
L 337.635084 49.972492 
L 339.33621 49.47291 
L 341.037336 49.805972 
L 342.738461 44.143895 
L 344.439587 49.139848 
L 346.140713 49.139848 
L 347.841839 52.803531 
L 349.542965 49.306368 
L 351.244091 44.976539 
L 352.945217 46.808391 
L 354.646343 45.975725 
L 356.347468 48.473702 
L 358.048594 46.641871 
L 359.74972 49.805972 
L 361.450846 45.809205 
L 363.151972 45.143081 
L 364.853098 46.308809 
L 366.554224 45.476143 
L 368.25535 49.139848 
L 369.956475 48.806764 
L 371.657601 48.307182 
L 373.358727 46.808391 
L 375.059853 47.641058 
L 376.760979 43.810832 
L 378.462105 45.975725 
L 380.163231 44.643477 
L 381.864357 47.474516 
L 383.565482 45.642663 
L 385.266608 45.309601 
L 386.967734 43.144686 
L 388.66886 48.806764 
L 390.369986 45.309601 
L 392.071112 43.977352 
L 393.772238 42.978166 
L 395.473364 46.808391 
L 397.174489 44.810019 
L 398.875615 45.809205 
L 400.576741 46.308809 
L 402.277867 49.47291 
L 403.978993 43.64429 
L 407.381245 43.977352 
L 409.082371 47.141453 
L 410.783497 43.810832 
L 412.484622 45.476143 
L 414.185748 43.810832 
L 415.886874 42.811624 
L 417.588 41.146314 
L 419.289126 44.310415 
L 420.990252 41.645918 
L 422.691378 42.978166 
L 424.392504 43.144686 
L 426.093629 43.477748 
L 427.794755 43.477748 
L 429.495881 43.977352 
L 431.197007 43.477748 
L 432.898133 42.811624 
L 434.599259 42.811624 
L 436.300385 43.810832 
L 438.001511 43.144686 
L 439.702636 43.311228 
L 441.403762 45.476143 
L 443.104888 45.476143 
L 444.806014 42.978166 
L 446.50714 42.811624 
L 448.208266 44.810019 
L 449.909392 42.1455 
L 451.610518 42.645104 
L 453.311643 41.146314 
L 455.012769 39.814065 
L 456.713895 41.312856 
L 458.415021 43.144686 
L 460.116147 41.146314 
L 461.817273 40.813252 
L 463.518399 41.146314 
L 465.219525 45.476143 
L 466.92065 44.810019 
L 468.621776 45.642663 
L 470.322902 42.478562 
L 472.024028 42.1455 
L 473.725154 41.312856 
L 475.42628 40.979794 
L 477.127406 41.312856 
L 478.828532 42.645104 
L 480.529657 40.147127 
L 482.230783 39.980585 
L 483.931909 41.812438 
L 485.633035 42.312042 
L 487.334161 40.147127 
L 490.736413 44.310415 
L 492.437539 43.144686 
L 494.138664 42.312042 
L 495.83979 37.149546 
L 497.540916 39.481003 
L 499.242042 38.148733 
L 500.943168 40.979794 
L 502.644294 40.313647 
L 504.34542 39.980585 
L 506.046546 43.144686 
L 507.747671 36.316902 
L 509.448797 38.315275 
L 511.149923 36.649964 
L 512.851049 41.812438 
L 514.552175 39.814065 
L 516.253301 36.983026 
L 517.954427 40.979794 
L 519.655553 40.480189 
L 521.356678 42.978166 
L 523.057804 39.814065 
L 524.75893 39.147941 
L 526.460056 38.648337 
L 528.161182 38.481817 
L 529.862308 37.815671 
L 531.563434 38.981399 
L 533.26456 37.482609 
L 534.965685 39.481003 
L 538.367937 38.481817 
L 540.069063 37.649151 
L 541.770189 40.147127 
L 543.471315 38.981399 
L 545.172441 36.649964 
L 546.873567 39.814065 
L 548.574692 39.147941 
L 550.275818 39.980585 
L 551.976944 40.480189 
L 553.67807 37.649151 
L 555.379196 43.311228 
L 557.080322 38.981399 
L 558.781448 40.480189 
L 560.482574 39.481003 
L 562.183699 36.983026 
L 563.884825 36.649964 
L 565.585951 35.650778 
L 567.287077 35.817298 
L 568.988203 36.816484 
L 570.689329 39.814065 
L 572.390455 37.482609 
L 574.091581 36.649964 
L 575.792706 38.981399 
L 577.493832 39.814065 
L 579.194958 35.817298 
L 580.896084 35.650778 
L 582.59721 36.816484 
L 584.298336 40.313647 
L 585.999462 40.480189 
L 587.700588 37.982213 
L 589.401713 37.482609 
L 591.102839 37.482609 
L 592.803965 36.649964 
L 594.505091 35.484236 
L 596.206217 37.815671 
L 597.907343 39.814065 
L 599.608469 38.981399 
L 601.309595 38.315275 
L 603.01072 35.151174 
L 604.711846 36.983026 
L 606.412972 36.983026 
L 608.114098 35.317694 
L 609.815224 36.816484 
L 611.51635 36.816484 
L 613.217476 34.818112 
L 614.918602 37.316088 
L 616.619727 35.650778 
L 618.320853 37.815671 
L 620.021979 36.483422 
L 621.723105 35.98384 
L 623.424231 37.316088 
L 625.125357 35.317694 
L 626.826483 36.15036 
L 628.527609 38.981399 
L 630.228734 37.815671 
L 631.92986 37.649151 
L 633.630986 35.650778 
L 635.332112 37.316088 
L 637.033238 37.482609 
L 638.734364 34.818112 
L 640.43549 39.647523 
L 642.136616 38.981399 
L 643.837741 35.317694 
L 645.538867 38.481817 
L 647.239993 34.984632 
L 648.941119 36.316902 
L 650.642245 37.982213 
L 652.343371 36.983026 
L 655.745623 37.316088 
L 657.446748 37.316088 
L 659.147874 35.817298 
L 660.849 36.649964 
L 662.550126 36.649964 
L 664.251252 36.816484 
L 665.952378 37.815671 
L 667.653504 36.649964 
L 669.35463 33.319321 
L 671.055756 36.649964 
L 671.055756 36.649964 
" clip-path="url(#pf87316f72a)" style="fill: none; stroke: #1f77b4; stroke-width: 1.5; stroke-linecap: square"/>
   </g>
   <g id="line2d_18">
    <path d="M 94.374084 270.956281 
L 96.075209 257.485432 
L 97.776335 238.027552 
L 99.477461 225.554547 
L 101.178587 201.107469 
L 102.879713 180.152835 
L 104.580839 182.647423 
L 106.281965 162.690632 
L 107.983091 170.174418 
L 109.684216 154.707903 
L 111.385342 132.755424 
L 113.086468 134.25219 
L 114.787594 126.768383 
L 116.48872 125.770539 
L 118.189846 115.293221 
L 119.890972 115.792143 
L 123.293223 107.809414 
L 124.994349 105.314826 
L 126.695475 108.308336 
L 128.396601 101.822372 
L 130.097727 100.824528 
L 131.798853 101.822372 
L 133.499979 97.332097 
L 135.201105 91.345055 
L 136.90223 90.347211 
L 138.603356 95.336409 
L 140.304482 85.856935 
L 142.005608 89.848289 
L 143.706734 94.837487 
L 145.40786 90.347211 
L 147.108986 85.358013 
L 148.810112 85.856935 
L 150.511237 90.846133 
L 152.212363 81.36666 
L 153.913489 82.364504 
L 155.614615 80.368816 
L 157.315741 78.87205 
L 159.016867 74.880696 
L 160.717993 81.36666 
L 162.419119 81.36666 
L 164.120245 82.863404 
L 165.82137 78.87205 
L 167.522496 79.370972 
L 169.223622 75.87854 
L 170.924748 73.38393 
L 172.625874 74.381774 
L 174.327 74.880696 
L 176.028126 74.381774 
L 177.729252 74.880696 
L 179.430377 74.880696 
L 181.131503 72.885008 
L 182.832629 71.388242 
L 184.533755 72.386086 
L 186.234881 79.370972 
L 187.936007 73.882852 
L 189.637133 70.39042 
L 191.338259 73.38393 
L 193.039384 67.396889 
L 194.74051 67.396889 
L 196.441636 70.39042 
L 198.142762 72.885008 
L 199.843888 67.895811 
L 201.545014 67.895811 
L 203.24614 71.887164 
L 204.947266 68.893655 
L 206.648391 65.401201 
L 208.349517 63.904457 
L 210.050643 72.885008 
L 211.751769 73.882852 
L 213.452895 66.897967 
L 215.154021 65.401201 
L 216.855147 66.399045 
L 218.556273 65.900123 
L 220.257398 63.405535 
L 221.958524 66.399045 
L 223.65965 64.902301 
L 225.360776 74.880696 
L 227.061902 64.902301 
L 228.763028 64.902301 
L 230.464154 65.900123 
L 232.16528 63.904457 
L 233.866405 61.409847 
L 235.567531 59.913081 
L 237.268657 65.401201 
L 238.969783 61.908769 
L 240.670909 61.409847 
L 242.372035 66.897967 
L 244.073161 60.412003 
L 245.774287 60.910925 
L 247.475412 60.412003 
L 249.176538 70.889342 
L 250.877664 68.394733 
L 252.57879 62.906613 
L 254.279916 58.915259 
L 255.981042 59.414181 
L 257.682168 57.917415 
L 259.383294 57.917415 
L 262.785545 60.910925 
L 264.486671 63.405535 
L 266.187797 57.418493 
L 267.888923 60.412003 
L 271.291175 62.407691 
L 272.992301 62.906613 
L 274.693426 58.416337 
L 276.394552 56.420649 
L 278.095678 60.412003 
L 279.796804 57.917415 
L 281.49793 59.414181 
L 283.199056 58.416337 
L 284.900182 54.923884 
L 288.302433 54.923884 
L 290.003559 62.407691 
L 291.704685 55.422805 
L 293.405811 55.422805 
L 295.106937 57.917415 
L 296.808063 59.414181 
L 298.509189 54.923884 
L 300.210315 55.921727 
L 301.91144 55.422805 
L 303.612566 55.422805 
L 305.313692 52.928218 
L 307.014818 56.420649 
L 308.715944 52.928218 
L 310.41707 55.422805 
L 312.118196 54.424962 
L 313.819322 57.418493 
L 315.520447 54.424962 
L 317.221573 54.424962 
L 318.922699 56.919571 
L 320.623825 58.915259 
L 322.324951 57.418493 
L 324.026077 54.923884 
L 325.727203 57.418493 
L 327.428329 57.418493 
L 329.129454 54.923884 
L 330.83058 56.919571 
L 332.531706 56.919571 
L 334.232832 54.424962 
L 335.933958 53.42714 
L 337.635084 57.917415 
L 339.33621 53.42714 
L 341.037336 55.422805 
L 342.738461 58.915259 
L 344.439587 55.422805 
L 346.140713 53.92604 
L 347.841839 58.915259 
L 349.542965 52.429296 
L 351.244091 54.923884 
L 352.945217 51.930374 
L 354.646343 57.418493 
L 356.347468 56.919571 
L 358.048594 54.923884 
L 359.74972 53.42714 
L 361.450846 55.921727 
L 363.151972 57.418493 
L 364.853098 54.923884 
L 366.554224 54.923884 
L 368.25535 53.42714 
L 369.956475 54.923884 
L 371.657601 53.42714 
L 373.358727 55.921727 
L 378.462105 54.424962 
L 380.163231 54.923884 
L 381.864357 53.42714 
L 383.565482 56.919571 
L 385.266608 55.422805 
L 386.967734 58.416337 
L 388.66886 55.921727 
L 390.369986 58.416337 
L 392.071112 53.42714 
L 393.772238 55.921727 
L 395.473364 52.928218 
L 397.174489 56.919571 
L 398.875615 55.422805 
L 400.576741 54.923884 
L 402.277867 56.919571 
L 403.978993 52.429296 
L 405.680119 54.424962 
L 407.381245 54.424962 
L 409.082371 52.928218 
L 410.783497 54.923884 
L 412.484622 55.422805 
L 414.185748 52.429296 
L 415.886874 52.429296 
L 417.588 55.422805 
L 419.289126 56.420649 
L 420.990252 52.928218 
L 422.691378 54.923884 
L 426.093629 56.919571 
L 427.794755 53.92604 
L 429.495881 57.418493 
L 431.197007 52.429296 
L 432.898133 49.934686 
L 434.599259 54.923884 
L 436.300385 56.919571 
L 438.001511 52.429296 
L 439.702636 51.431452 
L 441.403762 53.92604 
L 443.104888 53.42714 
L 444.806014 54.923884 
L 446.50714 53.92604 
L 448.208266 54.424962 
L 449.909392 57.418493 
L 453.311643 51.431452 
L 455.012769 57.418493 
L 456.713895 53.92604 
L 460.116147 55.921727 
L 463.518399 51.930374 
L 465.219525 54.923884 
L 466.92065 52.928218 
L 468.621776 54.923884 
L 470.322902 54.923884 
L 473.725154 51.930374 
L 475.42628 52.928218 
L 477.127406 54.923884 
L 478.828532 51.431452 
L 480.529657 54.923884 
L 482.230783 53.42714 
L 483.931909 54.923884 
L 485.633035 51.431452 
L 487.334161 52.928218 
L 489.035287 56.919571 
L 490.736413 55.921727 
L 492.437539 55.921727 
L 494.138664 52.429296 
L 495.83979 51.930374 
L 497.540916 49.934686 
L 500.943168 53.92604 
L 502.644294 51.930374 
L 504.34542 57.418493 
L 506.046546 52.928218 
L 507.747671 51.431452 
L 509.448797 55.422805 
L 511.149923 53.92604 
L 512.851049 53.42714 
L 514.552175 49.435764 
L 516.253301 49.435764 
L 517.954427 56.919571 
L 519.655553 55.921727 
L 521.356678 55.422805 
L 523.057804 52.429296 
L 524.75893 55.921727 
L 526.460056 53.42714 
L 528.161182 54.424962 
L 529.862308 56.919571 
L 531.563434 54.923884 
L 533.26456 53.42714 
L 534.965685 56.420649 
L 536.666811 50.433608 
L 538.367937 54.424962 
L 540.069063 50.93253 
L 541.770189 54.923884 
L 543.471315 53.92604 
L 545.172441 51.431452 
L 546.873567 54.424962 
L 548.574692 50.93253 
L 550.275818 53.92604 
L 551.976944 54.923884 
L 553.67807 51.431452 
L 555.379196 56.420649 
L 557.080322 54.424962 
L 558.781448 48.936842 
L 560.482574 53.92604 
L 562.183699 51.431452 
L 563.884825 51.930374 
L 565.585951 50.93253 
L 567.287077 52.429296 
L 568.988203 51.431452 
L 570.689329 54.424962 
L 572.390455 53.42714 
L 574.091581 51.431452 
L 575.792706 52.429296 
L 577.493832 52.429296 
L 579.194958 52.928218 
L 580.896084 54.424962 
L 582.59721 56.420649 
L 584.298336 53.92604 
L 585.999462 52.429296 
L 589.401713 50.433608 
L 591.102839 53.92604 
L 592.803965 48.43792 
L 594.505091 53.42714 
L 596.206217 50.93253 
L 597.907343 51.431452 
L 601.309595 54.424962 
L 603.01072 52.928218 
L 604.711846 50.93253 
L 606.412972 51.431452 
L 608.114098 49.435764 
L 609.815224 53.92604 
L 611.51635 46.941176 
L 613.217476 51.431452 
L 614.918602 51.930374 
L 616.619727 49.435764 
L 618.320853 51.930374 
L 620.021979 52.928218 
L 621.723105 51.930374 
L 623.424231 55.422805 
L 625.125357 50.93253 
L 626.826483 54.424962 
L 628.527609 55.422805 
L 630.228734 53.92604 
L 631.92986 51.431452 
L 633.630986 50.433608 
L 635.332112 53.42714 
L 637.033238 54.424962 
L 638.734364 50.433608 
L 640.43549 54.923884 
L 643.837741 54.923884 
L 645.538867 54.424962 
L 647.239993 50.433608 
L 648.941119 54.923884 
L 650.642245 51.930374 
L 652.343371 52.429296 
L 654.044497 54.923884 
L 655.745623 53.92604 
L 657.446748 53.42714 
L 659.147874 49.934686 
L 660.849 50.433608 
L 662.550126 51.930374 
L 664.251252 49.934686 
L 665.952378 51.431452 
L 667.653504 50.93253 
L 669.35463 50.93253 
L 671.055756 50.433608 
L 671.055756 50.433608 
" clip-path="url(#pf87316f72a)" style="fill: none; stroke: #ff7f0e; stroke-width: 1.5; stroke-linecap: square"/>
   </g>
   <g id="patch_3">
    <path d="M 65.54 304 
L 65.54 20.429765 
" style="fill: none; stroke: #000000; stroke-width: 0.8; stroke-linejoin: miter; stroke-linecap: square"/>
   </g>
   <g id="patch_4">
    <path d="M 699.889839 304 
L 699.889839 20.429765 
" style="fill: none; stroke: #000000; stroke-width: 0.8; stroke-linejoin: miter; stroke-linecap: square"/>
   </g>
   <g id="patch_5">
    <path d="M 65.54 304 
L 699.889839 304 
" style="fill: none; stroke: #000000; stroke-width: 0.8; stroke-linejoin: miter; stroke-linecap: square"/>
   </g>
   <g id="patch_6">
    <path d="M 65.54 20.429765 
L 699.889839 20.429765 
" style="fill: none; stroke: #000000; stroke-width: 0.8; stroke-linejoin: miter; stroke-linecap: square"/>
   </g>
   <g id="legend_1">
    <g id="patch_7">
     <path d="M 494.066402 296.5 
L 689.389839 296.5 
Q 692.389839 296.5 692.389839 293.5 
L 692.389839 250.965625 
Q 692.389839 247.965625 689.389839 247.965625 
L 494.066402 247.965625 
Q 491.066402 247.965625 491.066402 250.965625 
L 491.066402 293.5 
Q 491.066402 296.5 494.066402 296.5 
z
" style="fill: #ffffff; opacity: 0.8; stroke: #cccccc; stroke-linejoin: miter"/>
    </g>
    <g id="line2d_19">
     <path d="M 497.066402 260.113281 
L 512.066402 260.113281 
L 527.066402 260.113281 
" style="fill: none; stroke: #1f77b4; stroke-width: 1.5; stroke-linecap: square"/>
    </g>
    <g id="text_19">
     <text style="font: 15px 'DejaVu Sans', 'Bitstream Vera Sans', 'Computer Modern Sans Serif', 'Lucida Grande', 'Verdana', 'Geneva', 'Lucid', 'Arial', 'Helvetica', 'Avant Garde', sans-serif; text-anchor: start" x="539.066402" y="265.363281" transform="rotate(-0 539.066402 265.363281)">Training Accuracy</text>
    </g>
    <g id="line2d_20">
     <path d="M 497.066402 282.130469 
L 512.066402 282.130469 
L 527.066402 282.130469 
" style="fill: none; stroke: #ff7f0e; stroke-width: 1.5; stroke-linecap: square"/>
    </g>
    <g id="text_20">
     <text style="font: 15px 'DejaVu Sans', 'Bitstream Vera Sans', 'Computer Modern Sans Serif', 'Lucida Grande', 'Verdana', 'Geneva', 'Lucid', 'Arial', 'Helvetica', 'Avant Garde', sans-serif; text-anchor: start" x="539.066402" y="287.380469" transform="rotate(-0 539.066402 287.380469)">Validation Accuracy</text>
    </g>
   </g>
  </g>
 </g>
 <defs>
  <clipPath id="pf87316f72a">
   <rect x="65.54" y="20.429765" width="634.349839" height="283.570235"/>
  </clipPath>
 </defs>
</svg>
