<?xml version="1.0" encoding="UTF-8" standalone="no"?>
<svg
   width="687.56927pt"
   height="328.23499pt"
   viewBox="0 0 687.56927 328.23499"
   version="1.1"
   id="svg168"
   sodipodi:docname="cnn_acc_comparison.svg"
   inkscape:version="1.2.2 (1:1.2.2+202305151915+b0a8486541)"
   xmlns:inkscape="http://www.inkscape.org/namespaces/inkscape"
   xmlns:sodipodi="http://sodipodi.sourceforge.net/DTD/sodipodi-0.dtd"
   xmlns:xlink="http://www.w3.org/1999/xlink"
   xmlns="http://www.w3.org/2000/svg"
   xmlns:svg="http://www.w3.org/2000/svg"
   xmlns:rdf="http://www.w3.org/1999/02/22-rdf-syntax-ns#"
   xmlns:cc="http://creativecommons.org/ns#"
   xmlns:dc="http://purl.org/dc/elements/1.1/">
  <sodipodi:namedview
     id="namedview170"
     pagecolor="#ffffff"
     bordercolor="#666666"
     borderopacity="1.0"
     inkscape:showpageshadow="2"
     inkscape:pageopacity="0.0"
     inkscape:pagecheckerboard="0"
     inkscape:deskcolor="#d1d1d1"
     inkscape:document-units="pt"
     showgrid="false"
     inkscape:zoom="1.446875"
     inkscape:cx="443.7149"
     inkscape:cy="219.09287"
     inkscape:window-width="1920"
     inkscape:window-height="1080"
     inkscape:window-x="0"
     inkscape:window-y="0"
     inkscape:window-maximized="1"
     inkscape:current-layer="svg168" />
  <metadata
     id="metadata2">
    <rdf:RDF>
      <cc:Work>
        <dc:type
           rdf:resource="http://purl.org/dc/dcmitype/StillImage" />
        <dc:date>2023-07-18T10:49:15.174860</dc:date>
        <dc:format>image/svg+xml</dc:format>
        <dc:creator>
          <cc:Agent>
            <dc:title>Matplotlib v3.7.2, https://matplotlib.org/</dc:title>
          </cc:Agent>
        </dc:creator>
      </cc:Work>
    </rdf:RDF>
  </metadata>
  <defs
     id="defs6">
    <style
       type="text/css"
       id="style4">*{stroke-linejoin: round; stroke-linecap: butt}</style>
  </defs>
  <g
     id="figure_1"
     transform="translate(-16.630729,-15.8)">
    <g
       id="axes_1">
      <g
         id="patch_2">
        <path
           d="M 65.54,304 H 703.8 V 16.2 H 65.54 Z"
           style="fill:#ffffff"
           id="path11" />
      </g>
      <g
         id="matplotlib.axis_1">
        <g
           id="xtick_1">
          <g
             id="line2d_1">
            <defs
               id="defs15">
              <path
                 id="m040ca26c0e"
                 d="M 0,0 V 3.5"
                 style="stroke:#000000;stroke-width:0.8" />
            </defs>
            <g
               id="g19">
              <use
                 xlink:href="#m040ca26c0e"
                 x="93.28215"
                 y="304"
                 style="stroke:#000000;stroke-width:0.8"
                 id="use17" />
            </g>
          </g>
          <g
             id="text_1">
            <text
               style="font-style:normal;font-variant:normal;font-weight:normal;font-stretch:normal;font-size:15px;line-height:normal;font-family:'DejaVu Sans', 'Bitstream Vera Sans', 'Computer Modern Sans Serif', 'Lucida Grande', Verdana, Geneva, Lucid, Arial, Helvetica, 'Avant Garde', sans-serif;text-anchor:middle"
               x="93.28215"
               y="322.39764"
               id="text22">0</text>
          </g>
        </g>
        <g
           id="xtick_2">
          <g
             id="line2d_2">
            <g
               id="g28">
              <use
                 xlink:href="#m040ca26c0e"
                 x="220.24854"
                 y="304"
                 style="stroke:#000000;stroke-width:0.8"
                 id="use26" />
            </g>
          </g>
          <g
             id="text_2">
            <text
               style="font-style:normal;font-variant:normal;font-weight:normal;font-stretch:normal;font-size:15px;line-height:normal;font-family:'DejaVu Sans', 'Bitstream Vera Sans', 'Computer Modern Sans Serif', 'Lucida Grande', Verdana, Geneva, Lucid, Arial, Helvetica, 'Avant Garde', sans-serif;text-anchor:middle"
               x="220.24854"
               y="322.39764"
               id="text31">100</text>
          </g>
        </g>
        <g
           id="xtick_3">
          <g
             id="line2d_3">
            <g
               id="g37">
              <use
                 xlink:href="#m040ca26c0e"
                 x="347.2149"
                 y="304"
                 style="stroke:#000000;stroke-width:0.8"
                 id="use35" />
            </g>
          </g>
          <g
             id="text_3">
            <text
               style="font-style:normal;font-variant:normal;font-weight:normal;font-stretch:normal;font-size:15px;line-height:normal;font-family:'DejaVu Sans', 'Bitstream Vera Sans', 'Computer Modern Sans Serif', 'Lucida Grande', Verdana, Geneva, Lucid, Arial, Helvetica, 'Avant Garde', sans-serif;text-anchor:middle"
               x="347.2149"
               y="322.39764"
               id="text40">200</text>
          </g>
        </g>
        <g
           id="xtick_4">
          <g
             id="line2d_4">
            <g
               id="g46">
              <use
                 xlink:href="#m040ca26c0e"
                 x="474.1813"
                 y="304"
                 style="stroke:#000000;stroke-width:0.8"
                 id="use44" />
            </g>
          </g>
          <g
             id="text_4">
            <text
               style="font-style:normal;font-variant:normal;font-weight:normal;font-stretch:normal;font-size:15px;line-height:normal;font-family:'DejaVu Sans', 'Bitstream Vera Sans', 'Computer Modern Sans Serif', 'Lucida Grande', Verdana, Geneva, Lucid, Arial, Helvetica, 'Avant Garde', sans-serif;text-anchor:middle"
               x="474.1813"
               y="322.39764"
               id="text49">300</text>
          </g>
        </g>
        <g
           id="xtick_5">
          <g
             id="line2d_5">
            <g
               id="g55">
              <use
                 xlink:href="#m040ca26c0e"
                 x="601.14771"
                 y="304"
                 style="stroke:#000000;stroke-width:0.8"
                 id="use53" />
            </g>
          </g>
          <g
             id="text_5">
            <text
               style="font-style:normal;font-variant:normal;font-weight:normal;font-stretch:normal;font-size:15px;line-height:normal;font-family:'DejaVu Sans', 'Bitstream Vera Sans', 'Computer Modern Sans Serif', 'Lucida Grande', Verdana, Geneva, Lucid, Arial, Helvetica, 'Avant Garde', sans-serif;text-anchor:middle"
               x="601.14771"
               y="322.39764"
               id="text58">400</text>
          </g>
        </g>
        <g
           id="text_6">
          <text
             style="font-style:normal;font-variant:normal;font-weight:normal;font-stretch:normal;font-size:15px;line-height:normal;font-family:'DejaVu Sans', 'Bitstream Vera Sans', 'Computer Modern Sans Serif', 'Lucida Grande', Verdana, Geneva, Lucid, Arial, Helvetica, 'Avant Garde', sans-serif;text-anchor:middle"
             x="384.67001"
             y="340.91486"
             id="text62">Epoch</text>
        </g>
      </g>
      <g
         id="matplotlib.axis_2">
        <g
           id="ytick_1">
          <g
             id="line2d_6">
            <defs
               id="defs67">
              <path
                 id="m1bcebe968d"
                 d="M 0,0 H -3.5"
                 style="stroke:#000000;stroke-width:0.8" />
            </defs>
            <g
               id="g71">
              <use
                 xlink:href="#m1bcebe968d"
                 x="65.540001"
                 y="265.03656"
                 style="stroke:#000000;stroke-width:0.8"
                 id="use69" />
            </g>
          </g>
          <g
             id="text_7">
            <text
               style="font-style:normal;font-variant:normal;font-weight:normal;font-stretch:normal;font-size:15px;line-height:normal;font-family:'DejaVu Sans', 'Bitstream Vera Sans', 'Computer Modern Sans Serif', 'Lucida Grande', Verdana, Geneva, Lucid, Arial, Helvetica, 'Avant Garde', sans-serif;text-anchor:end"
               x="58.540001"
               y="270.73538"
               id="text74">0.4</text>
          </g>
        </g>
        <g
           id="ytick_2">
          <g
             id="line2d_7">
            <g
               id="g80">
              <use
                 xlink:href="#m1bcebe968d"
                 x="65.540001"
                 y="222.52867"
                 style="stroke:#000000;stroke-width:0.8"
                 id="use78" />
            </g>
          </g>
          <g
             id="text_8">
            <text
               style="font-style:normal;font-variant:normal;font-weight:normal;font-stretch:normal;font-size:15px;line-height:normal;font-family:'DejaVu Sans', 'Bitstream Vera Sans', 'Computer Modern Sans Serif', 'Lucida Grande', Verdana, Geneva, Lucid, Arial, Helvetica, 'Avant Garde', sans-serif;text-anchor:end"
               x="58.540001"
               y="228.22749"
               id="text83">0.5</text>
          </g>
        </g>
        <g
           id="ytick_3">
          <g
             id="line2d_8">
            <g
               id="g89">
              <use
                 xlink:href="#m1bcebe968d"
                 x="65.540001"
                 y="180.02077"
                 style="stroke:#000000;stroke-width:0.8"
                 id="use87" />
            </g>
          </g>
          <g
             id="text_9">
            <text
               style="font-style:normal;font-variant:normal;font-weight:normal;font-stretch:normal;font-size:15px;line-height:normal;font-family:'DejaVu Sans', 'Bitstream Vera Sans', 'Computer Modern Sans Serif', 'Lucida Grande', Verdana, Geneva, Lucid, Arial, Helvetica, 'Avant Garde', sans-serif;text-anchor:end"
               x="58.540001"
               y="185.71959"
               id="text92">0.6</text>
          </g>
        </g>
        <g
           id="ytick_4">
          <g
             id="line2d_9">
            <g
               id="g98">
              <use
                 xlink:href="#m1bcebe968d"
                 x="65.540001"
                 y="137.51286"
                 style="stroke:#000000;stroke-width:0.8"
                 id="use96" />
            </g>
          </g>
          <g
             id="text_10">
            <text
               style="font-style:normal;font-variant:normal;font-weight:normal;font-stretch:normal;font-size:15px;line-height:normal;font-family:'DejaVu Sans', 'Bitstream Vera Sans', 'Computer Modern Sans Serif', 'Lucida Grande', Verdana, Geneva, Lucid, Arial, Helvetica, 'Avant Garde', sans-serif;text-anchor:end"
               x="58.540001"
               y="143.2117"
               id="text101">0.7</text>
          </g>
        </g>
        <g
           id="ytick_5">
          <g
             id="line2d_10">
            <g
               id="g107">
              <use
                 xlink:href="#m1bcebe968d"
                 x="65.540001"
                 y="95.004974"
                 style="stroke:#000000;stroke-width:0.8"
                 id="use105" />
            </g>
          </g>
          <g
             id="text_11">
            <text
               style="font-style:normal;font-variant:normal;font-weight:normal;font-stretch:normal;font-size:15px;line-height:normal;font-family:'DejaVu Sans', 'Bitstream Vera Sans', 'Computer Modern Sans Serif', 'Lucida Grande', Verdana, Geneva, Lucid, Arial, Helvetica, 'Avant Garde', sans-serif;text-anchor:end"
               x="58.540001"
               y="100.7038"
               id="text110">0.8</text>
          </g>
        </g>
        <g
           id="ytick_6">
          <g
             id="line2d_11">
            <g
               id="g116">
              <use
                 xlink:href="#m1bcebe968d"
                 x="65.540001"
                 y="52.497074"
                 style="stroke:#000000;stroke-width:0.8"
                 id="use114" />
            </g>
          </g>
          <g
             id="text_12">
            <text
               style="font-style:normal;font-variant:normal;font-weight:normal;font-stretch:normal;font-size:15px;line-height:normal;font-family:'DejaVu Sans', 'Bitstream Vera Sans', 'Computer Modern Sans Serif', 'Lucida Grande', Verdana, Geneva, Lucid, Arial, Helvetica, 'Avant Garde', sans-serif;text-anchor:end"
               x="58.540001"
               y="58.195904"
               id="text119">0.9</text>
          </g>
        </g>
        <g
           id="text_13">
          <text
             style="font-style:normal;font-variant:normal;font-weight:normal;font-stretch:normal;font-size:15px;line-height:normal;font-family:'DejaVu Sans', 'Bitstream Vera Sans', 'Computer Modern Sans Serif', 'Lucida Grande', Verdana, Geneva, Lucid, Arial, Helvetica, 'Avant Garde', sans-serif;text-anchor:middle"
             x="27.565781"
             y="160.10001"
             transform="rotate(-90,27.565781,160.1)"
             id="text123">Accuracy</text>
        </g>
      </g>
      <g
         id="line2d_12">
        <path
           d="m 94.551818,290.91818 1.269664,-40.50813 1.269664,-33.0731 1.269664,-20.63863 1.269663,-17.36979 1.269667,-12.49853 1.26966,-9.99884 1.26967,-2.56382 1.26966,-7.69141 1.26966,-3.65342 2.53933,-12.75494 1.26966,-1.60237 1.26967,-4.67895 1.26966,-3.71753 1.26966,-4.29436 1.26967,-1.73057 1.26966,-4.67895 1.26967,-3.07658 1.26966,-1.28189 1.26966,0.19228 1.26967,-5.12761 1.26966,-0.0641 1.26967,-1.986955 1.26966,-3.012455 1.26966,1.025527 1.26967,-3.076582 1.26966,-1.730572 1.26966,-3.268837 1.26967,1.538266 2.53933,-3.204736 1.26966,-1.217807 1.26966,0.38456 1.26967,-2.307437 1.26966,-1.858749 1.26967,1.281909 1.26966,-2.371513 1.26966,0.06408 1.26967,-0.705044 1.26966,-1.730571 2.53933,-1.922852 1.26966,0.576866 1.26967,-4.166187 1.26966,0.320484 1.26966,2.24331 1.26967,-0.961426 1.26966,-3.204761 1.26966,1.794674 1.26967,-0.512764 1.26966,1.538291 h 1.26967 l 1.26966,-4.807128 1.26966,-0.256382 1.26967,-1.602393 1.26966,1.858775 1.26967,-0.448688 1.26966,1.794673 1.26966,-4.999408 1.26967,2.756073 1.26966,-1.794648 1.26966,0.128179 1.26967,0.705044 1.26966,-2.115132 1.26967,0.19228 1.26966,-3.653423 1.26966,1.794674 1.26967,2.820175 1.26966,-3.204761 1.26966,3.012481 1.26967,-4.678951 1.26966,1.986954 1.26967,0.0641 2.53932,-1.986954 1.26967,1.153706 1.26966,-0.448662 1.26967,-1.666469 1.26966,2.756098 1.26966,-2.62792 1.26967,0.448662 2.53933,-0.705044 1.26966,-1.986928 1.26966,0.512739 1.26967,0.769145 1.26966,-0.769145 1.26966,-1.025503 1.26967,-0.320483 1.26966,-0.0641 1.26966,-1.47419 1.26967,3.461143 1.26966,0.512764 2.53933,-2.691997 1.26966,-0.640942 1.26967,-0.384586 1.26966,1.858775 1.26967,-3.332964 2.53932,0.833247 h 1.26967 l 1.26966,-0.384585 1.26966,-0.512739 1.26967,-1.217833 1.26966,1.153732 1.26967,2.627895 1.26966,-3.717525 1.26966,1.858775 1.26967,-1.217807 1.26966,-1.666495 1.26967,2.371538 1.26966,-4.166186 1.26966,2.948379 1.26967,-1.922852 1.26966,0.576841 1.26966,0.19228 1.26967,-0.705044 1.26966,1.602393 2.53933,0.06408 1.26966,-0.256356 1.26967,-1.986953 2.53932,1.538266 1.26967,-1.66647 1.26966,0.833247 1.26967,-1.410087 1.26966,-0.320484 1.26966,0.576866 1.26967,-0.769146 1.26966,-0.0641 1.26967,0.576866 1.26966,-0.640968 1.26966,-2.051029 1.26967,4.614848 1.26966,-3.01248 1.26966,-1.66647 1.26967,1.410088 1.26966,0.640942 1.26967,-0.961426 1.26966,1.986953 2.53933,-3.845703 1.26966,2.435616 1.26966,-2.627896 1.26967,2.948379 1.26966,-3.332964 1.26967,0.320483 1.26966,-0.19228 1.26966,0.384561 1.26967,2.756098 1.26966,-2.884277 1.26967,1.922852 1.26966,-0.833248 1.26966,-1.281884 1.26967,2.563794 1.26966,-1.28191 1.26966,0.384586 1.26967,-0.320484 1.26966,-1.986953 1.26967,-0.128178 1.26966,0.769145 1.26966,-0.0641 1.26967,-2.051055 1.26966,3.268863 1.26966,-4.614848 1.26967,1.602367 1.26966,0.128204 1.26967,1.794648 2.53932,-3.397041 1.26967,-1.410088 1.26966,3.397041 1.26967,1.922851 1.26966,-1.217807 1.26966,-2.627895 1.26967,2.627895 1.26966,0.705044 1.26966,-1.85875 1.26967,-0.833247 1.26966,2.499717 1.26967,-0.961426 1.26966,-1.730571 1.26966,0.0641 1.26967,-0.640942 1.26966,0.961426 1.26966,2.24331 1.26967,-0.19228 1.26966,-1.345986 1.26967,-0.256382 1.26966,-0.961426 1.26966,-0.384585 1.26967,2.756099 1.26966,-2.435616 2.53933,-0.19228 1.26966,0.320459 1.26967,-0.961426 1.26966,0.512764 1.26967,-1.281884 1.26966,0.833222 1.26966,-0.833222 1.26967,1.089604 1.26966,-0.961426 1.26966,3.525244 1.26967,-3.268862 1.26966,2.179233 1.26967,-1.153706 1.26966,0.705044 1.26966,-3.332939 1.26967,1.794648 1.26966,-2.05103 1.26967,-0.0641 1.26966,0.512764 1.26966,1.025528 1.26967,-1.538292 1.26966,1.410088 1.26966,2.499717 1.26967,-3.461143 1.26966,0.576866 2.53933,-1.922851 1.26966,0.833222 1.26967,-0.128179 1.26966,2.627896 1.26966,-2.115132 1.26967,-3.268862 1.26966,1.089629 1.26967,4.807128 1.26966,-3.525244 1.26966,-0.897324 1.26967,1.410088 1.26966,-2.179234 1.26967,2.179234 1.26966,-0.128179 1.26966,0.640942 2.53933,2.371514 1.26966,-3.973881 1.26967,0.19228 1.26966,-1.346011 1.26966,1.858775 1.26967,1.410087 1.26966,0.19228 1.26967,-0.38456 1.26966,-1.602393 1.26966,-1.025502 1.26967,3.525219 1.26966,-1.025528 1.26967,-2.499691 1.26966,-0.256382 1.26966,0.833222 1.26967,0.320484 1.26966,-0.961426 1.26966,0.769146 1.26967,0.19228 1.26966,-0.128204 1.26967,0.769146 1.26966,-1.66647 1.26966,2.820176 1.26967,-1.922852 1.26966,1.217808 1.26966,-1.602368 1.26967,0.769146 1.26966,-0.833248 1.26967,1.410088 1.26966,-2.435615 1.26966,0.192305 1.26967,1.089604 1.26966,-0.19228 1.26967,2.627895 1.26966,-3.012455 1.26966,0.57684 1.26967,-3.461143 1.26966,2.948379 1.26966,0.448662 1.26967,-1.089604 1.26966,0.640942 1.26967,-1.089604 1.26966,2.627896 1.26966,-2.820176 1.26967,0.19228 1.26966,-0.0641 1.26967,0.512763 1.26966,-2.435615 1.26966,3.397041 1.26967,-1.153706 1.26966,-0.256382 1.26966,-0.128203 1.26967,1.153731 1.26966,-1.217808 1.26967,-0.897349 1.26966,0.448662 1.26966,-0.448662 1.26967,1.602393 1.26966,-0.256382 1.26966,0.448662 1.26967,-2.563819 1.26966,1.602393 1.26967,-1.346011 1.26966,1.922852 1.26966,-1.66647 1.26967,0.384586 1.26966,-0.961426 1.26967,2.115131 1.26966,-0.833247 2.53933,0.448687 1.26966,-0.705069 1.26966,1.089629 1.26967,0.512764 1.26966,-1.153706 1.26967,0.961426 1.26966,-2.884302 1.26966,2.179258 1.26967,0.512739 1.26966,-3.397041 1.26966,2.756099 1.26967,0.0641 1.26966,0.256382 1.26967,-1.153731 1.26966,0.897349 1.26966,-0.705043 1.26967,-3.397041 1.26966,3.653423 1.26967,-3.076583 1.26966,2.243335 1.26966,1.794673 1.26967,-3.204761 1.26966,0.833223 1.26966,0.448687 1.26967,1.281884 1.26966,-1.602368 1.26967,-0.705044 2.53932,2.820176 2.53933,-2.435616 1.26967,1.346012 1.26966,-0.448688 1.26966,-0.833222 1.26967,0.0641 1.26966,1.153706 1.26966,-2.499717 1.26967,-0.769146 1.26966,0.833248 1.26967,1.410087 1.26966,1.922852 1.26966,-3.717525 1.26967,3.845728 1.26966,-2.948379 1.26967,-1.794673 2.53932,3.332939 1.26967,0.384586 1.26966,-1.602393 1.26966,-0.38456 1.26967,2.051055 1.26966,-0.640968 1.26967,-1.666469 1.26966,0.833247 1.26966,1.85875 3.809,-2.179234 1.26966,-2.179233 2.53933,1.410088 1.26966,-0.640942 1.26966,0.833222 1.26967,2.115157 1.26966,-1.794673 1.26966,2.435615 1.26967,-4.037983 1.26966,4.422568 1.26967,-3.653448 1.26966,-0.512738 1.26966,3.140659 1.26967,-1.794673 1.26966,-0.640942 1.26967,0.512763 1.26966,-1.153731 1.26966,3.332965 1.26967,-2.691997 1.26966,2.243309 1.26966,-1.730546 1.26967,1.47419 1.26966,-0.448687 1.26967,2.115156 1.26966,-5.255815 1.26966,1.281909 1.26967,0.512764 1.26966,-0.833248 1.26966,3.332965 1.26967,-4.807154 1.26966,1.858775 1.26967,0.640942 1.26966,-0.512764 1.26966,-1.602368 1.26967,0.128179 1.26966,1.346011 1.26967,-0.961426 1.26966,-0.320484 1.26966,-1.089629 1.26967,0.192305 1.26966,1.85875 1.26966,-0.448662 1.26967,2.307412 1.26966,-2.884277 1.26967,1.986953 1.26966,-0.0641 1.26966,-0.512764 1.26967,-0.320458 1.26966,-0.705044 1.26966,0.128178 1.26967,1.47419 1.26966,-0.448662 1.26967,-1.410088 1.26966,0.57684 1.26966,-0.961425 1.26967,0.705043 1.26966,2.371539 1.26967,-0.256382 1.26966,-2.179233 2.53933,2.307412 1.26966,-2.627896 1.26967,1.922852 1.26966,-2.627896 1.26966,1.025528 1.26967,-0.128204 1.26966,-3.076557 1.26966,2.627895 1.26967,0.576866 1.26966,0.128178 1.26967,0.512764 1.26966,1.602368 1.26966,-2.05103 1.26967,0.38456 1.26966,-0.128178 h 1.26967 l 1.26966,1.025527 1.26966,-3.140659 1.26967,0.320459 1.26966,1.538291 h 1.26966 l 1.26967,2.243335 1.26966,-3.525244 1.26966,2.8202 1.26967,-2.307437 1.26966,-0.448662 1.26967,1.217808 1.26966,-3.076557 1.26966,1.730546 1.26967,0.576865 1.26966,-1.025527 v 0"
           clip-path="url(#p465c5ddda2)"
           style="fill:none;stroke:#1f77b4;stroke-width:1.5;stroke-linecap:square"
           id="path127" />
      </g>
      <g
         id="line2d_13">
        <path
           d="m 94.551818,261.65285 2.539328,-84.20833 1.269664,-20.18692 1.269663,-3.65287 1.269667,-6.72896 1.26966,-15.18828 1.26967,-5.1909 1.26966,-11.34313 1.26966,-6.15223 1.26967,0.57679 1.26966,-6.53674 1.26966,-9.036048 1.26967,6.728988 2.53932,-14.226973 1.26967,-4.998674 1.26966,4.806419 1.26967,-8.26703 h 1.26966 l 1.26966,-2.691592 1.26967,0.961274 1.26966,-4.037375 1.26967,-1.153553 1.26966,0.576764 1.26966,-0.769019 1.26967,2.307082 1.26966,-5.190929 1.26966,0.192255 1.26967,-1.922547 1.26966,0.961273 1.26967,-0.192254 1.26966,-4.0374 1.26966,0.961299 1.26967,-1.153554 1.26966,1.538063 1.26967,-3.268356 1.26966,3.460611 1.26966,-4.037375 1.26967,0.576764 1.26966,-3.845145 1.26966,2.114827 1.26967,0.961299 1.26966,-3.65289 1.26967,0.576764 1.26966,1.345808 1.26966,-3.076101 1.26967,-1.153554 1.26966,2.499337 1.26966,-0.961273 1.26967,-1.345784 1.26966,1.345784 h 1.26967 l 1.26966,1.153528 1.26966,-3.652865 1.26967,1.345808 1.26966,-1.538063 1.26967,2.499337 1.26966,-3.268356 1.26966,-1.153554 1.26967,-0.192255 1.26966,-2.307056 2.53933,4.037374 1.26966,-0.576764 1.26967,0.38451 1.26966,-2.499337 1.26966,2.691591 1.26967,-1.538063 2.53932,-1.538038 1.26967,1.345783 1.26966,-0.384509 1.26967,3.460611 2.53932,-4.421885 h 1.26967 l 1.26966,2.307082 1.26967,0.769019 1.26966,-0.192254 1.26966,-3.076101 1.26967,-1.538064 1.26966,2.307082 1.26967,-2.307082 1.26966,0.576765 1.26966,1.538063 1.26967,-1.345783 1.26966,-1.153554 1.26966,1.922573 1.26967,0.192254 1.26966,0.576764 1.26966,-0.384509 1.26967,-1.538063 2.53933,-1.153529 1.26966,-0.961273 1.26966,1.345783 1.26967,-1.345783 h 1.26966 l 1.26967,2.114802 1.26966,-1.730293 1.26966,3.268356 1.26967,-3.84512 1.26966,4.806394 1.26966,-3.076101 h 1.26967 l 1.26966,-0.192255 1.26967,-0.38451 h 1.26966 l 1.26966,0.769019 1.26967,-3.268356 1.26966,2.307083 1.26967,-2.691592 1.26966,0.576764 1.26966,2.883847 1.26967,-4.22963 1.26966,1.730293 h 1.26966 l 1.26967,4.229655 1.26966,-4.998674 1.26967,2.499337 1.26966,-0.961274 1.26966,-2.883846 1.26967,0.576764 1.26966,1.922547 1.26966,-1.730293 1.26967,0.576765 1.26966,0.769019 1.26967,-1.153529 1.26966,1.153529 1.26966,-1.153529 1.26967,0.192255 1.26966,0.961274 1.26967,-0.769019 1.26966,-0.192255 1.26966,1.345783 1.26967,-3.076101 1.26966,0.57679 1.26966,2.499311 1.26967,-2.307057 1.26966,1.538038 1.26967,-0.769019 1.26966,-0.576764 1.26966,1.922547 1.26967,-1.538038 1.26966,-1.730317 1.26966,1.922572 1.26967,-1.345808 1.26966,2.691591 1.26967,0.57679 1.26966,-1.538063 1.26966,0.192254 1.26967,-0.192254 1.26966,-0.576765 1.26967,0.769019 1.26966,-0.576764 1.26966,-0.192255 1.26967,1.922573 1.26966,0.38451 1.26966,-2.307083 h 1.26967 l 1.26966,0.576765 1.26967,1.730318 h 1.26966 l 1.26966,-1.730318 1.26967,2.114827 1.26966,-0.384509 1.26966,-0.961299 1.26967,-1.153529 1.26966,2.691592 1.26967,-2.307082 1.26966,0.384509 1.26966,0.769019 1.26967,-2.499311 1.26966,0.384509 1.26967,1.345783 1.26966,-1.730292 1.26966,0.769018 1.26967,-1.345808 1.26966,0.961299 1.26966,2.499337 1.26967,-1.538063 1.26966,0.576764 1.26967,0.192255 1.26966,-1.730293 1.26966,-0.192255 1.26967,-0.769044 1.26966,1.730318 h 1.26966 l 1.26967,0.576764 1.26966,-0.192255 1.26967,-0.769019 h 2.53932 l 1.26967,0.769019 1.26966,0.961274 1.26967,-3.076101 h 1.26966 l 2.53933,1.153554 1.26966,-0.38451 1.26967,0.576764 h 1.26966 l 1.26966,-0.192254 1.26967,-0.576764 1.26966,-2.307083 1.26966,2.114828 1.26967,-0.961299 1.26966,1.345808 h 1.26967 l 1.26966,0.961274 1.26966,-0.769019 1.26967,-1.153554 1.26966,0.769045 1.26967,-0.57679 1.26966,0.769044 1.26966,-1.538063 1.26967,0.192255 1.26966,-0.576764 1.26966,1.345783 1.26967,0.576789 1.26966,-0.961299 1.26967,0.38451 1.26966,-0.769019 1.26966,1.345808 1.26967,-1.153553 1.26966,0.576764 1.26966,-0.769019 1.26967,-0.576764 1.26966,0.769019 1.26967,0.384509 1.26966,0.192255 1.26966,-0.192255 1.26967,1.730318 1.26966,-1.345783 1.26967,0.192255 1.26966,-0.192255 1.26966,1.538038 1.26967,-0.38451 1.26966,-1.922572 1.26966,3.268355 1.26967,-4.421884 1.26966,1.730293 1.26966,1.153553 1.26967,-2.114827 1.26966,0.576764 h 1.26967 l 1.26966,1.538063 1.26966,-3.076101 1.26967,2.307083 1.26966,1.345783 1.26967,-1.153529 1.26966,0.769019 1.26966,-1.345808 h 1.26967 l 1.26966,-2.499312 1.26966,1.345783 1.26967,-1.345783 1.26966,1.153529 1.26967,0.192254 1.26966,2.499337 1.26966,-1.730318 1.26967,0.192255 1.26966,0.57679 1.26966,-0.384535 1.26967,-0.576764 1.26966,0.769044 1.26967,-1.922573 1.26966,2.499337 1.26966,-1.153554 1.26967,-1.538038 2.53933,1.538038 1.26966,1.153554 h 1.26966 l 1.26967,-0.769044 1.26966,-0.192255 1.26966,1.538063 h 1.26967 l 1.26966,-0.769019 1.26967,-0.576789 1.26966,-0.769019 h 2.53933 l 1.26966,0.769019 1.26967,-0.769019 1.26966,-1.345783 1.26966,0.384509 1.26967,3.460611 1.26966,-0.769019 1.26966,-0.576764 1.26967,-0.192255 1.26966,-0.769044 1.26967,0.192254 1.26966,-0.961273 1.26966,-0.38451 1.26967,1.922573 1.26966,-1.153554 1.26966,0.961274 1.26967,-1.153529 1.26966,0.576765 1.26967,1.538063 1.26966,-2.307082 1.26966,-0.192255 h 1.26967 l 1.26966,0.384509 1.26967,-1.730318 1.26966,1.730318 1.26966,-0.384509 1.26967,-0.576764 1.26966,0.769019 1.26966,-0.192255 1.26967,1.345783 1.26966,-2.114802 1.26967,2.499337 2.53932,-1.153554 1.26967,-1.730293 1.26966,1.153529 h 1.26966 l 1.26967,-0.576764 1.26966,2.691591 1.26967,-1.345808 1.26966,-0.769019 1.26966,1.538038 1.26967,-1.345783 1.26966,0.384509 1.26967,1.153554 1.26966,0.961273 1.26966,-3.076101 1.26967,1.538038 1.26966,-0.769019 1.26966,0.769019 1.26967,-2.691591 1.26966,1.345808 1.26967,-1.153554 1.26966,1.538064 1.26966,0.961273 h 1.26967 l 1.26966,0.961299 1.26967,-1.345808 1.26966,-0.769019 1.26966,0.961274 1.26967,-1.153529 1.26966,-0.192255 1.26966,0.192255 1.26967,-1.153554 1.26966,0.57679 1.26967,1.345783 1.26966,0.192255 1.26966,1.153554 1.26967,-0.961299 1.26966,-0.769019 1.26967,1.345783 1.26966,-2.691567 1.26966,2.499312 1.26967,-0.961274 2.53932,0.769019 1.26967,-1.153528 h 1.26966 l 1.26967,1.538038 1.26966,2.499337 1.26966,-4.421885 1.26967,1.922548 1.26966,-3.076101 1.26967,0.576789 1.26966,0.961274 1.26966,-1.345809 1.26967,3.460636 1.26966,-0.576789 1.26966,-0.769019 1.26967,-1.345783 1.26966,2.114802 1.26966,-3.268356 1.26967,3.652891 1.26966,-0.57679 1.26967,-0.192255 1.26966,-1.922547 1.26966,2.307057 1.26967,-0.961274 1.26966,1.345809 1.26967,-2.691592 h 1.26966 l 1.26966,0.192255 1.26967,0.384509 1.26966,2.307082 1.26966,-2.499337 1.26967,1.538038 1.26966,-2.114802 1.26967,0.961274 1.26966,1.345783 1.26966,-0.192255 1.26967,-1.153528 1.26966,2.499337 1.26966,0.192254 1.26967,-3.268355 1.26966,1.538038 1.26967,-0.192255 1.26966,-2.114828 1.26966,1.730318 1.26967,-0.769019 1.26966,-0.576764 1.26967,-0.192255 1.26966,1.730293 1.26966,1.345809 1.26967,-1.730318 1.26966,1.153528 1.26966,-0.384509 1.26967,-1.153529 1.26966,3.076101 1.26967,-2.883846 1.26966,-1.153529 1.26966,1.922548 1.26967,0.192255 1.26966,-0.38451 1.26966,-1.730293 1.26967,2.499312 1.26966,-2.114802 1.26967,0.769019 1.26966,-0.961274 1.26966,1.538038 1.26967,-2.307082 2.53933,2.691592 1.26966,-0.576765 1.26966,-2.307082 1.26967,0.769044 1.26966,1.345784 1.26967,-0.769019 1.26966,0.576764 1.26966,-0.192255 1.26967,-1.153554 1.26966,-0.384509 1.26966,2.691592 1.26967,-1.730293 1.26966,1.730293 1.26967,-0.38451 1.26966,-1.538038 1.26966,0.961274 1.26967,1.345783 1.26966,-2.499312 1.26967,1.153529 h 1.26966 l 1.26966,0.384509 1.26967,-0.576764 1.26966,0.769019 1.26966,-1.538038 1.26967,2.499312 1.26966,-1.730293 1.26966,-0.576764 1.26967,-0.38451 1.26966,0.192255 1.26967,1.730293 1.26966,-0.576764 1.26966,1.922572 1.26967,-1.538063 1.26966,-1.730293 v 0"
           clip-path="url(#p465c5ddda2)"
           style="fill:none;stroke:#ff7f0e;stroke-width:1.5;stroke-linecap:square"
           id="path130" />
      </g>
      <g
         id="patch_3">
        <path
           d="M 65.54,304 V 16.2"
           style="fill:none;stroke:#000000;stroke-width:0.8;stroke-linecap:square;stroke-linejoin:miter"
           id="path133" />
      </g>
      <g
         id="patch_4">
        <path
           d="M 703.8,304 V 16.2"
           style="fill:none;stroke:#000000;stroke-width:0.8;stroke-linecap:square;stroke-linejoin:miter"
           id="path136" />
      </g>
      <g
         id="patch_5">
        <path
           d="M 65.54,304 H 703.8"
           style="fill:none;stroke:#000000;stroke-width:0.8;stroke-linecap:square;stroke-linejoin:miter"
           id="path139" />
      </g>
      <g
         id="patch_6">
        <path
           d="M 65.54,16.2 H 703.8"
           style="fill:none;stroke:#000000;stroke-width:0.8;stroke-linecap:square;stroke-linejoin:miter"
           id="path142" />
      </g>
      <g
         id="legend_1">
        <g
           id="patch_7">
          <path
             d="M 497.97656,296.5 H 693.3 q 3,0 3,-3 v -42.53438 q 0,-3 -3,-3 H 497.97656 q -3,0 -3,3 V 293.5 q 0,3 3,3 z"
             style="opacity:0.8;fill:#ffffff;stroke:#cccccc;stroke-linejoin:miter"
             id="path145" />
        </g>
        <g
           id="line2d_14">
          <path
             d="m 500.97656,260.11328 h 15 15"
             style="fill:none;stroke:#1f77b4;stroke-width:1.5;stroke-linecap:square"
             id="path148" />
        </g>
        <g
           id="text_14">
          <text
             style="font-style:normal;font-variant:normal;font-weight:normal;font-stretch:normal;font-size:15px;line-height:normal;font-family:'DejaVu Sans', 'Bitstream Vera Sans', 'Computer Modern Sans Serif', 'Lucida Grande', Verdana, Geneva, Lucid, Arial, Helvetica, 'Avant Garde', sans-serif;text-anchor:start"
             x="542.97656"
             y="265.36328"
             id="text151">Training Accuracy</text>
        </g>
        <g
           id="line2d_15">
          <path
             d="m 500.97656,282.13047 h 15 15"
             style="fill:none;stroke:#ff7f0e;stroke-width:1.5;stroke-linecap:square"
             id="path154" />
        </g>
        <g
           id="text_15">
          <text
             style="font-style:normal;font-variant:normal;font-weight:normal;font-stretch:normal;font-size:15px;line-height:normal;font-family:'DejaVu Sans', 'Bitstream Vera Sans', 'Computer Modern Sans Serif', 'Lucida Grande', Verdana, Geneva, Lucid, Arial, Helvetica, 'Avant Garde', sans-serif;text-anchor:start"
             x="542.97656"
             y="287.38046"
             id="text157">Validation Accuracy</text>
        </g>
      </g>
    </g>
  </g>
  <defs
     id="defs166">
    <clipPath
       id="p465c5ddda2">
      <rect
         x="65.540001"
         y="16.200001"
         width="638.26001"
         height="287.79999"
         id="rect163" />
    </clipPath>
  </defs>
</svg>
