<?xml version="1.0" encoding="utf-8" standalone="no"?>
<!DOCTYPE svg PUBLIC "-//W3C//DTD SVG 1.1//EN"
  "http://www.w3.org/Graphics/SVG/1.1/DTD/svg11.dtd">
<svg xmlns:xlink="http://www.w3.org/1999/xlink" width="720pt" height="360pt" viewBox="0 0 720 360" xmlns="http://www.w3.org/2000/svg" version="1.1">
 <metadata>
  <rdf:RDF xmlns:dc="http://purl.org/dc/elements/1.1/" xmlns:cc="http://creativecommons.org/ns#" xmlns:rdf="http://www.w3.org/1999/02/22-rdf-syntax-ns#">
   <cc:Work>
    <dc:type rdf:resource="http://purl.org/dc/dcmitype/StillImage"/>
    <dc:date>2023-10-30T22:14:59.492598</dc:date>
    <dc:format>image/svg+xml</dc:format>
    <dc:creator>
     <cc:Agent>
      <dc:title>Matplotlib v3.7.3, https://matplotlib.org/</dc:title>
     </cc:Agent>
    </dc:creator>
   </cc:Work>
  </rdf:RDF>
 </metadata>
 <defs>
  <style type="text/css">*{stroke-linejoin: round; stroke-linecap: butt}</style>
 </defs>
 <g id="figure_1">
  <g id="patch_1">
   <path d="M 0 360 
L 720 360 
L 720 0 
L 0 0 
z
" style="fill: #ffffff"/>
  </g>
  <g id="axes_1">
   <g id="patch_2">
    <path d="M 65.54 304 
L 703.8 304 
L 703.8 19.37536 
L 65.54 19.37536 
z
" style="fill: #ffffff"/>
   </g>
   <g id="matplotlib.axis_1">
    <g id="xtick_1">
     <g id="line2d_1">
      <defs>
       <path id="m7fb183d75d" d="M 0 0 
L 0 3.5 
" style="stroke: #000000; stroke-width: 0.8"/>
      </defs>
      <g>
       <use xlink:href="#m7fb183d75d" x="93.521203" y="304" style="stroke: #000000; stroke-width: 0.8"/>
      </g>
     </g>
     <g id="text_1">
      <text style="font: 15px 'DejaVu Sans', 'Bitstream Vera Sans', 'Computer Modern Sans Serif', 'Lucida Grande', 'Verdana', 'Geneva', 'Lucid', 'Arial', 'Helvetica', 'Avant Garde', sans-serif; text-anchor: middle" x="93.521203" y="322.397656" transform="rotate(-0 93.521203 322.397656)">0</text>
     </g>
    </g>
    <g id="xtick_2">
     <g id="line2d_2">
      <g>
       <use xlink:href="#m7fb183d75d" x="196.582724" y="304" style="stroke: #000000; stroke-width: 0.8"/>
      </g>
     </g>
     <g id="text_2">
      <text style="font: 15px 'DejaVu Sans', 'Bitstream Vera Sans', 'Computer Modern Sans Serif', 'Lucida Grande', 'Verdana', 'Geneva', 'Lucid', 'Arial', 'Helvetica', 'Avant Garde', sans-serif; text-anchor: middle" x="196.582724" y="322.397656" transform="rotate(-0 196.582724 322.397656)">100</text>
     </g>
    </g>
    <g id="xtick_3">
     <g id="line2d_3">
      <g>
       <use xlink:href="#m7fb183d75d" x="299.644245" y="304" style="stroke: #000000; stroke-width: 0.8"/>
      </g>
     </g>
     <g id="text_3">
      <text style="font: 15px 'DejaVu Sans', 'Bitstream Vera Sans', 'Computer Modern Sans Serif', 'Lucida Grande', 'Verdana', 'Geneva', 'Lucid', 'Arial', 'Helvetica', 'Avant Garde', sans-serif; text-anchor: middle" x="299.644245" y="322.397656" transform="rotate(-0 299.644245 322.397656)">200</text>
     </g>
    </g>
    <g id="xtick_4">
     <g id="line2d_4">
      <g>
       <use xlink:href="#m7fb183d75d" x="402.705766" y="304" style="stroke: #000000; stroke-width: 0.8"/>
      </g>
     </g>
     <g id="text_4">
      <text style="font: 15px 'DejaVu Sans', 'Bitstream Vera Sans', 'Computer Modern Sans Serif', 'Lucida Grande', 'Verdana', 'Geneva', 'Lucid', 'Arial', 'Helvetica', 'Avant Garde', sans-serif; text-anchor: middle" x="402.705766" y="322.397656" transform="rotate(-0 402.705766 322.397656)">300</text>
     </g>
    </g>
    <g id="xtick_5">
     <g id="line2d_5">
      <g>
       <use xlink:href="#m7fb183d75d" x="505.767287" y="304" style="stroke: #000000; stroke-width: 0.8"/>
      </g>
     </g>
     <g id="text_5">
      <text style="font: 15px 'DejaVu Sans', 'Bitstream Vera Sans', 'Computer Modern Sans Serif', 'Lucida Grande', 'Verdana', 'Geneva', 'Lucid', 'Arial', 'Helvetica', 'Avant Garde', sans-serif; text-anchor: middle" x="505.767287" y="322.397656" transform="rotate(-0 505.767287 322.397656)">400</text>
     </g>
    </g>
    <g id="xtick_6">
     <g id="line2d_6">
      <g>
       <use xlink:href="#m7fb183d75d" x="608.828808" y="304" style="stroke: #000000; stroke-width: 0.8"/>
      </g>
     </g>
     <g id="text_6">
      <text style="font: 15px 'DejaVu Sans', 'Bitstream Vera Sans', 'Computer Modern Sans Serif', 'Lucida Grande', 'Verdana', 'Geneva', 'Lucid', 'Arial', 'Helvetica', 'Avant Garde', sans-serif; text-anchor: middle" x="608.828808" y="322.397656" transform="rotate(-0 608.828808 322.397656)">500</text>
     </g>
    </g>
    <g id="text_7">
     <text style="font: 15px 'DejaVu Sans', 'Bitstream Vera Sans', 'Computer Modern Sans Serif', 'Lucida Grande', 'Verdana', 'Geneva', 'Lucid', 'Arial', 'Helvetica', 'Avant Garde', sans-serif; text-anchor: middle" x="384.67" y="340.914844" transform="rotate(-0 384.67 340.914844)">Epochs</text>
    </g>
   </g>
   <g id="matplotlib.axis_2">
    <g id="ytick_1">
     <g id="line2d_7">
      <defs>
       <path id="mc443c77a83" d="M 0 0 
L -3.5 0 
" style="stroke: #000000; stroke-width: 0.8"/>
      </defs>
      <g>
       <use xlink:href="#mc443c77a83" x="65.54" y="275.767129" style="stroke: #000000; stroke-width: 0.8"/>
      </g>
     </g>
     <g id="text_8">
      <text style="font: 15px 'DejaVu Sans', 'Bitstream Vera Sans', 'Computer Modern Sans Serif', 'Lucida Grande', 'Verdana', 'Geneva', 'Lucid', 'Arial', 'Helvetica', 'Avant Garde', sans-serif; text-anchor: end" x="58.54" y="281.465958" transform="rotate(-0 58.54 281.465958)">0.2</text>
     </g>
    </g>
    <g id="ytick_2">
     <g id="line2d_8">
      <g>
       <use xlink:href="#mc443c77a83" x="65.54" y="233.477479" style="stroke: #000000; stroke-width: 0.8"/>
      </g>
     </g>
     <g id="text_9">
      <text style="font: 15px 'DejaVu Sans', 'Bitstream Vera Sans', 'Computer Modern Sans Serif', 'Lucida Grande', 'Verdana', 'Geneva', 'Lucid', 'Arial', 'Helvetica', 'Avant Garde', sans-serif; text-anchor: end" x="58.54" y="239.176307" transform="rotate(-0 58.54 239.176307)">0.4</text>
     </g>
    </g>
    <g id="ytick_3">
     <g id="line2d_9">
      <g>
       <use xlink:href="#mc443c77a83" x="65.54" y="191.187829" style="stroke: #000000; stroke-width: 0.8"/>
      </g>
     </g>
     <g id="text_10">
      <text style="font: 15px 'DejaVu Sans', 'Bitstream Vera Sans', 'Computer Modern Sans Serif', 'Lucida Grande', 'Verdana', 'Geneva', 'Lucid', 'Arial', 'Helvetica', 'Avant Garde', sans-serif; text-anchor: end" x="58.54" y="196.886657" transform="rotate(-0 58.54 196.886657)">0.6</text>
     </g>
    </g>
    <g id="ytick_4">
     <g id="line2d_10">
      <g>
       <use xlink:href="#mc443c77a83" x="65.54" y="148.898179" style="stroke: #000000; stroke-width: 0.8"/>
      </g>
     </g>
     <g id="text_11">
      <text style="font: 15px 'DejaVu Sans', 'Bitstream Vera Sans', 'Computer Modern Sans Serif', 'Lucida Grande', 'Verdana', 'Geneva', 'Lucid', 'Arial', 'Helvetica', 'Avant Garde', sans-serif; text-anchor: end" x="58.54" y="154.597007" transform="rotate(-0 58.54 154.597007)">0.8</text>
     </g>
    </g>
    <g id="ytick_5">
     <g id="line2d_11">
      <g>
       <use xlink:href="#mc443c77a83" x="65.54" y="106.608529" style="stroke: #000000; stroke-width: 0.8"/>
      </g>
     </g>
     <g id="text_12">
      <text style="font: 15px 'DejaVu Sans', 'Bitstream Vera Sans', 'Computer Modern Sans Serif', 'Lucida Grande', 'Verdana', 'Geneva', 'Lucid', 'Arial', 'Helvetica', 'Avant Garde', sans-serif; text-anchor: end" x="58.54" y="112.307357" transform="rotate(-0 58.54 112.307357)">1.0</text>
     </g>
    </g>
    <g id="ytick_6">
     <g id="line2d_12">
      <g>
       <use xlink:href="#mc443c77a83" x="65.54" y="64.318878" style="stroke: #000000; stroke-width: 0.8"/>
      </g>
     </g>
     <g id="text_13">
      <text style="font: 15px 'DejaVu Sans', 'Bitstream Vera Sans', 'Computer Modern Sans Serif', 'Lucida Grande', 'Verdana', 'Geneva', 'Lucid', 'Arial', 'Helvetica', 'Avant Garde', sans-serif; text-anchor: end" x="58.54" y="70.017706" transform="rotate(-0 58.54 70.017706)">1.2</text>
     </g>
    </g>
    <g id="ytick_7">
     <g id="line2d_13">
      <g>
       <use xlink:href="#mc443c77a83" x="65.54" y="22.029228" style="stroke: #000000; stroke-width: 0.8"/>
      </g>
     </g>
     <g id="text_14">
      <text style="font: 15px 'DejaVu Sans', 'Bitstream Vera Sans', 'Computer Modern Sans Serif', 'Lucida Grande', 'Verdana', 'Geneva', 'Lucid', 'Arial', 'Helvetica', 'Avant Garde', sans-serif; text-anchor: end" x="58.54" y="27.728056" transform="rotate(-0 58.54 27.728056)">1.4</text>
     </g>
    </g>
    <g id="text_15">
     <text style="font: 15px 'DejaVu Sans', 'Bitstream Vera Sans', 'Computer Modern Sans Serif', 'Lucida Grande', 'Verdana', 'Geneva', 'Lucid', 'Arial', 'Helvetica', 'Avant Garde', sans-serif; text-anchor: middle" x="27.565781" y="161.68768" transform="rotate(-90 27.565781 161.68768)">Loss</text>
    </g>
   </g>
   <g id="line2d_14">
    <path d="M 94.551818 32.312844 
L 95.582433 53.042395 
L 96.613049 77.513311 
L 97.643664 96.717712 
L 98.674279 112.534385 
L 100.735509 130.856555 
L 101.766125 138.949813 
L 103.827355 150.689697 
L 104.85797 156.623708 
L 106.919201 163.081096 
L 107.949816 170.880647 
L 108.980431 170.432158 
L 110.011046 174.46268 
L 111.041662 178.006451 
L 112.072277 181.141723 
L 113.102892 186.566585 
L 114.133507 187.58134 
L 116.194738 193.93833 
L 117.225353 193.663893 
L 118.255968 197.262651 
L 119.286583 199.646288 
L 120.317198 200.226846 
L 121.347814 201.839022 
L 122.378429 202.9451 
L 123.409044 206.793618 
L 124.439659 206.840402 
L 125.470275 207.158408 
L 126.50089 206.843641 
L 127.531505 210.347282 
L 128.56212 212.332717 
L 129.592735 213.754407 
L 130.623351 217.024622 
L 131.653966 215.628152 
L 132.684581 216.532999 
L 133.715196 219.492058 
L 134.745811 218.065951 
L 135.776427 218.46528 
L 136.807042 223.191876 
L 137.837657 220.311657 
L 138.868272 222.931316 
L 139.898887 223.375292 
L 140.929503 224.654262 
L 141.960118 224.496185 
L 142.990733 226.547145 
L 145.051964 228.387416 
L 146.082579 231.711435 
L 147.113194 228.58063 
L 148.143809 230.766975 
L 149.174424 230.839948 
L 150.20504 232.00344 
L 151.235655 234.318981 
L 152.26627 232.934288 
L 153.296885 233.573061 
L 154.3275 235.420762 
L 155.358116 235.964695 
L 156.388731 236.282247 
L 157.419346 235.964619 
L 158.449961 236.680165 
L 159.480576 235.241278 
L 160.511192 237.349986 
L 161.541807 237.515631 
L 163.603037 240.909662 
L 164.633653 241.247821 
L 165.664268 239.281889 
L 166.694883 243.016473 
L 167.725498 244.654171 
L 168.756113 241.650748 
L 169.786729 242.926485 
L 170.817344 244.415823 
L 171.847959 245.135592 
L 172.878574 246.261608 
L 173.909189 244.500392 
L 174.939805 244.928866 
L 175.97042 246.836646 
L 177.001035 247.411659 
L 178.03165 246.402891 
L 179.062265 245.818136 
L 180.092881 246.295965 
L 181.123496 247.603084 
L 182.154111 249.222784 
L 183.184726 248.712552 
L 184.215342 246.216469 
L 186.276572 250.62751 
L 187.307187 249.632902 
L 188.337802 251.588442 
L 189.368418 252.349719 
L 190.399033 252.747782 
L 191.429648 251.003744 
L 192.460263 252.251054 
L 193.490878 250.152473 
L 194.521494 252.301877 
L 195.552109 252.934203 
L 196.582724 254.313779 
L 197.613339 250.873716 
L 198.643954 253.655742 
L 199.67457 251.171008 
L 200.705185 253.135188 
L 201.7358 253.87751 
L 202.766415 254.289008 
L 203.797031 255.965542 
L 204.827646 255.259146 
L 205.858261 255.412705 
L 206.888876 253.846033 
L 207.919491 256.710681 
L 208.950107 257.43382 
L 209.980722 255.819848 
L 211.011337 258.671975 
L 212.041952 256.554305 
L 213.072567 258.175934 
L 214.103183 256.511152 
L 215.133798 259.605016 
L 216.164413 257.638473 
L 218.225643 258.473807 
L 219.256259 259.39725 
L 220.286874 259.058814 
L 221.317489 261.323261 
L 222.348104 258.08064 
L 223.37872 260.376325 
L 224.409335 263.729602 
L 225.43995 259.351954 
L 226.470565 260.713539 
L 227.50118 259.209984 
L 228.531796 258.338668 
L 229.562411 262.613858 
L 230.593026 260.372103 
L 231.623641 260.369418 
L 232.654256 260.682818 
L 233.684872 261.137224 
L 234.715487 262.163807 
L 235.746102 262.081816 
L 236.776717 262.515174 
L 237.807332 263.272808 
L 238.837948 265.35557 
L 239.868563 261.069607 
L 241.929793 262.664926 
L 243.991024 261.39982 
L 245.021639 261.640076 
L 246.052254 266.254733 
L 247.082869 262.871305 
L 248.113485 262.411146 
L 249.1441 263.830089 
L 250.174715 264.585719 
L 251.20533 264.610907 
L 252.235945 266.234331 
L 253.266561 265.277363 
L 254.297176 265.719912 
L 255.327791 265.834051 
L 256.358406 265.44343 
L 257.389021 266.512203 
L 258.419637 265.256555 
L 259.450252 265.279304 
L 260.480867 263.746548 
L 261.511482 267.18709 
L 262.542098 267.248623 
L 263.572713 265.229275 
L 264.603328 267.057554 
L 265.633943 266.284704 
L 266.664558 266.067281 
L 267.695174 266.68011 
L 268.725789 267.997435 
L 269.756404 266.471724 
L 270.787019 267.542251 
L 271.817634 267.595686 
L 272.84825 267.867542 
L 273.878865 265.625246 
L 274.90948 267.944923 
L 275.940095 268.456835 
L 276.97071 266.594959 
L 278.001326 269.416078 
L 279.031941 265.452108 
L 280.062556 271.251644 
L 281.093171 269.525859 
L 282.123787 268.428162 
L 283.154402 268.094178 
L 284.185017 273.010542 
L 285.215632 268.063379 
L 286.246247 269.891178 
L 287.276863 270.664463 
L 288.307478 270.423702 
L 289.338093 268.515229 
L 290.368708 269.84132 
L 291.399323 269.908971 
L 292.429939 270.255001 
L 293.460554 269.964041 
L 294.491169 271.983704 
L 295.521784 268.214766 
L 296.552399 271.351519 
L 297.583015 270.206755 
L 298.61363 269.694381 
L 299.644245 269.704505 
L 300.67486 271.867646 
L 301.705476 270.30162 
L 302.736091 271.504728 
L 304.797321 271.918954 
L 305.827936 272.598238 
L 306.858552 271.365849 
L 307.889167 270.367662 
L 308.919782 271.292498 
L 309.950397 272.428087 
L 310.981012 273.144159 
L 312.011628 270.364886 
L 313.042243 270.030183 
L 314.072858 270.264507 
L 315.103473 273.219464 
L 316.134088 274.06961 
L 317.164704 273.809887 
L 318.195319 273.19017 
L 319.225934 276.715489 
L 320.256549 273.281582 
L 321.287165 273.96614 
L 322.31778 272.859646 
L 323.348395 274.370954 
L 324.37901 273.304841 
L 325.409625 275.302798 
L 326.440241 274.277076 
L 327.470856 274.045024 
L 328.501471 271.128101 
L 329.532086 273.648565 
L 330.562701 272.011819 
L 331.593317 274.20852 
L 332.623932 274.215817 
L 333.654547 273.443207 
L 334.685162 274.937914 
L 335.715777 271.202088 
L 336.746393 271.872855 
L 337.777008 275.677567 
L 338.807623 275.510513 
L 339.838238 274.687971 
L 340.868854 276.569644 
L 341.899469 277.418022 
L 342.930084 273.590624 
L 343.960699 276.664544 
L 344.991314 273.316676 
L 346.02193 277.593961 
L 347.052545 277.211621 
L 348.08316 275.176346 
L 349.113775 273.59231 
L 350.14439 273.044363 
L 351.175006 274.612591 
L 352.205621 276.846148 
L 353.236236 273.725303 
L 354.266851 275.807132 
L 355.297466 278.519787 
L 356.328082 277.672319 
L 357.358697 272.940055 
L 358.389312 272.958433 
L 359.419927 277.70091 
L 360.450543 275.715203 
L 361.481158 274.936953 
L 363.542388 273.793749 
L 364.573003 277.701149 
L 365.603619 277.313008 
L 366.634234 276.27887 
L 367.664849 277.39849 
L 368.695464 274.616167 
L 369.726079 276.472668 
L 370.756695 275.975342 
L 371.78731 276.139128 
L 372.817925 276.539506 
L 373.84854 278.434185 
L 374.879155 279.016064 
L 375.909771 275.327853 
L 376.940386 276.440243 
L 377.971001 276.200279 
L 379.001616 277.080503 
L 380.032232 274.075568 
L 381.062847 278.685608 
L 382.093462 276.515799 
L 383.124077 276.097256 
L 384.154692 276.279113 
L 385.185308 279.011564 
L 386.215923 277.807436 
L 388.277153 274.929514 
L 389.307768 277.189458 
L 390.338384 277.25308 
L 391.368999 277.885056 
L 392.399614 278.147914 
L 393.430229 276.541737 
L 394.460845 277.617731 
L 395.49146 280.891088 
L 396.522075 278.819414 
L 397.55269 279.612634 
L 399.613921 280.441796 
L 401.675151 277.186834 
L 402.705766 279.62261 
L 403.736381 279.45802 
L 404.766997 279.488167 
L 405.797612 279.21392 
L 406.828227 276.092127 
L 408.889457 278.828482 
L 409.920073 280.517435 
L 410.950688 279.288994 
L 411.981303 278.787714 
L 413.011918 281.006994 
L 414.042534 277.757552 
L 415.073149 279.450657 
L 416.103764 277.712051 
L 417.134379 279.070639 
L 418.164994 279.142138 
L 419.19561 280.392378 
L 420.226225 279.773232 
L 422.287455 282.511091 
L 423.31807 279.802339 
L 424.348686 280.28308 
L 425.379301 278.441983 
L 426.409916 280.700523 
L 427.440531 280.726681 
L 428.471146 279.332621 
L 429.501762 280.248146 
L 430.532377 278.327224 
L 431.562992 278.870871 
L 432.593607 278.230409 
L 433.624223 279.060733 
L 434.654838 281.43394 
L 435.685453 280.156023 
L 436.716068 280.535917 
L 437.746683 280.281287 
L 438.777299 281.479753 
L 439.807914 282.45384 
L 440.838529 281.839114 
L 441.869144 279.336641 
L 442.899759 282.979889 
L 443.930375 281.247818 
L 444.96099 280.207976 
L 445.991605 282.195617 
L 447.02222 281.757473 
L 448.052835 279.523195 
L 449.083451 281.028936 
L 450.114066 280.900818 
L 451.144681 281.44229 
L 452.175296 283.466099 
L 453.205912 281.231909 
L 454.236527 279.426953 
L 455.267142 279.74686 
L 456.297757 277.939855 
L 457.328372 281.772764 
L 458.358988 282.416585 
L 459.389603 280.721561 
L 460.420218 279.701125 
L 461.450833 283.346809 
L 462.481448 285.320681 
L 463.512064 278.575282 
L 464.542679 281.240237 
L 465.573294 279.743762 
L 466.603909 282.664772 
L 467.634524 284.065814 
L 468.66514 281.810552 
L 469.695755 283.387829 
L 470.72637 281.361701 
L 471.756985 283.813421 
L 472.787601 281.026356 
L 473.818216 282.145185 
L 474.848831 280.156785 
L 475.879446 281.120493 
L 476.910061 284.34833 
L 477.940677 282.93913 
L 478.971292 283.578262 
L 480.001907 279.816962 
L 481.032522 283.91051 
L 482.063137 283.808162 
L 483.093753 284.825191 
L 484.124368 280.735106 
L 485.154983 280.985502 
L 486.185598 283.067961 
L 487.216213 284.82078 
L 488.246829 282.911866 
L 489.277444 282.640035 
L 490.308059 285.094559 
L 491.338674 283.823346 
L 492.36929 284.462699 
L 493.399905 281.688435 
L 494.43052 281.702806 
L 495.461135 283.454882 
L 496.49175 281.129167 
L 497.522366 280.563947 
L 498.552981 283.102535 
L 499.583596 282.785121 
L 500.614211 284.588968 
L 502.675442 281.833427 
L 503.706057 284.330017 
L 504.736672 283.291285 
L 505.767287 285.126766 
L 506.797902 283.883492 
L 507.828518 283.026619 
L 508.859133 284.330424 
L 509.889748 283.841069 
L 510.920363 284.170658 
L 511.950979 283.56402 
L 512.981594 284.601842 
L 514.012209 285.19565 
L 515.042824 282.110816 
L 516.073439 284.635471 
L 517.104055 283.034502 
L 518.13467 284.301127 
L 519.165285 283.223325 
L 520.1959 283.05209 
L 521.226515 286.976578 
L 522.257131 283.523882 
L 523.287746 285.71764 
L 524.318361 285.425956 
L 525.348976 284.213264 
L 526.379591 284.028197 
L 527.410207 282.768283 
L 528.440822 283.28418 
L 529.471437 286.867821 
L 530.502052 283.541798 
L 531.532668 284.008441 
L 532.563283 282.954689 
L 533.593898 288.371674 
L 534.624513 285.992279 
L 535.655128 282.878763 
L 536.685744 283.894211 
L 537.716359 285.760403 
L 538.746974 284.588621 
L 539.777589 286.245668 
L 540.808204 286.730627 
L 541.83882 283.69875 
L 542.869435 283.332098 
L 543.90005 285.873364 
L 544.930665 285.861057 
L 545.96128 284.243168 
L 546.991896 285.776539 
L 548.022511 283.630005 
L 549.053126 285.779271 
L 550.083741 287.363908 
L 551.114357 285.865799 
L 552.144972 284.925633 
L 553.175587 286.538767 
L 554.206202 284.813136 
L 555.236817 287.282044 
L 556.267433 285.553186 
L 557.298048 285.097101 
L 558.328663 285.253748 
L 559.359278 286.14845 
L 560.389893 287.803442 
L 561.420509 285.863284 
L 562.451124 285.612239 
L 563.481739 284.143593 
L 564.512354 286.956204 
L 565.542969 283.542182 
L 566.573585 285.89834 
L 567.6042 285.636989 
L 568.634815 284.849169 
L 569.66543 284.962293 
L 570.696046 285.315094 
L 571.726661 286.57124 
L 572.757276 285.055577 
L 574.818506 285.923386 
L 575.849122 285.325939 
L 576.879737 286.422001 
L 577.910352 284.277963 
L 578.940967 286.860363 
L 579.971582 284.878752 
L 581.002198 286.462133 
L 582.032813 285.52302 
L 583.063428 285.827286 
L 584.094043 284.282002 
L 585.124658 286.30807 
L 586.155274 286.40291 
L 587.185889 285.689592 
L 588.216504 287.269289 
L 589.247119 285.778776 
L 590.277735 285.562154 
L 591.30835 287.599348 
L 592.338965 285.495529 
L 593.36958 287.210945 
L 594.400195 287.168973 
L 595.430811 288.989592 
L 596.461426 286.304828 
L 597.492041 286.258086 
L 598.522656 287.350921 
L 599.553271 287.172874 
L 600.583887 286.636531 
L 601.614502 284.586287 
L 602.645117 287.723386 
L 603.675732 285.819229 
L 604.706347 286.336321 
L 605.736963 287.660675 
L 606.767578 284.456041 
L 607.798193 286.3731 
L 608.828808 288.938246 
L 609.859424 288.652485 
L 610.890039 286.566952 
L 611.920654 288.550821 
L 612.951269 286.634244 
L 613.981884 286.044072 
L 615.0125 285.844858 
L 616.043115 286.31631 
L 617.07373 286.949046 
L 618.104345 288.191665 
L 619.13496 287.6709 
L 620.165576 287.317922 
L 621.196191 285.77099 
L 622.226806 286.511409 
L 623.257421 285.833418 
L 624.288036 284.144705 
L 625.318652 288.117308 
L 626.349267 287.924919 
L 627.379882 290.165429 
L 628.410497 285.343972 
L 629.441113 287.374218 
L 630.471728 286.839548 
L 631.502343 286.92439 
L 632.532958 289.236569 
L 633.563573 288.372112 
L 634.594189 287.931385 
L 635.624804 286.759867 
L 636.655419 285.279635 
L 637.686034 287.125668 
L 638.716649 287.73598 
L 639.747265 287.544425 
L 640.77788 288.584547 
L 641.808495 287.939908 
L 642.83911 288.93209 
L 643.869725 283.419861 
L 644.900341 287.627314 
L 645.930956 289.139521 
L 646.961571 286.804719 
L 647.992186 287.579359 
L 649.022802 285.919867 
L 650.053417 287.700823 
L 652.114647 286.429131 
L 653.145262 288.754638 
L 654.175878 288.221431 
L 655.206493 289.994986 
L 656.237108 286.146294 
L 657.267723 288.223516 
L 658.298338 291.062516 
L 659.328954 286.438259 
L 660.359569 288.727034 
L 661.390184 287.029855 
L 662.420799 289.50041 
L 663.451415 285.913045 
L 664.48203 286.653902 
L 665.512645 286.605502 
L 667.573875 288.19427 
L 668.604491 289.126483 
L 669.635106 287.988919 
L 670.665721 290.122963 
L 671.696336 286.841955 
L 672.726951 290.253643 
L 673.757567 284.637402 
L 674.788182 290.378882 
L 674.788182 290.378882 
" clip-path="url(#p467833f36d)" style="fill: none; stroke: #1f77b4; stroke-width: 1.5; stroke-linecap: square"/>
   </g>
   <g id="line2d_15">
    <path d="M 94.551818 50.261755 
L 95.582433 74.302319 
L 96.613049 105.505437 
L 97.643664 125.287171 
L 98.674279 138.59953 
L 99.704894 148.568688 
L 100.735509 155.594031 
L 101.766125 163.697511 
L 102.79674 170.586309 
L 103.827355 174.947214 
L 104.85797 180.83724 
L 105.888585 185.9354 
L 106.919201 190.219676 
L 110.011046 200.57292 
L 111.041662 204.916521 
L 113.102892 210.515813 
L 114.133507 213.3929 
L 115.164122 213.622822 
L 116.194738 219.498423 
L 118.255968 220.071589 
L 119.286583 222.821698 
L 120.317198 224.123386 
L 121.347814 227.495657 
L 122.378429 226.525259 
L 123.409044 229.829542 
L 124.439659 227.384949 
L 125.470275 230.574138 
L 126.50089 230.08784 
L 127.531505 234.313102 
L 128.56212 234.566913 
L 129.592735 235.441525 
L 130.623351 235.388825 
L 131.653966 237.926902 
L 132.684581 239.273823 
L 133.715196 239.012412 
L 134.745811 238.315663 
L 135.776427 241.010961 
L 136.807042 241.714452 
L 137.837657 240.837722 
L 138.868272 241.496988 
L 139.898887 245.033467 
L 140.929503 243.028232 
L 141.960118 243.25189 
L 142.990733 241.450545 
L 144.021348 244.253682 
L 145.051964 243.543675 
L 146.082579 243.387678 
L 147.113194 245.655326 
L 148.143809 245.782878 
L 149.174424 245.385212 
L 150.20504 245.471671 
L 151.235655 246.707513 
L 153.296885 248.61811 
L 154.3275 248.243269 
L 155.358116 247.730062 
L 156.388731 248.6658 
L 157.419346 249.864355 
L 158.449961 248.490911 
L 159.480576 248.92839 
L 160.511192 250.685567 
L 161.541807 251.483419 
L 162.572422 250.643271 
L 163.603037 252.060114 
L 164.633653 251.132549 
L 165.664268 250.761691 
L 167.725498 252.972694 
L 168.756113 252.776883 
L 169.786729 251.117463 
L 170.817344 254.587706 
L 171.847959 253.078889 
L 172.878574 253.586519 
L 173.909189 253.011619 
L 174.939805 253.125011 
L 175.97042 253.839082 
L 177.001035 254.196386 
L 178.03165 253.942978 
L 179.062265 254.676452 
L 180.092881 254.643746 
L 181.123496 253.399101 
L 182.154111 255.826774 
L 183.184726 255.375784 
L 184.215342 253.540599 
L 185.245957 255.429669 
L 186.276572 255.662118 
L 187.307187 253.702022 
L 188.337802 255.655419 
L 189.368418 253.849928 
L 190.399033 253.860962 
L 191.429648 253.142441 
L 192.460263 256.348657 
L 193.490878 257.685773 
L 194.521494 256.094159 
L 195.552109 257.122626 
L 196.582724 257.195681 
L 197.613339 256.62213 
L 198.643954 254.438829 
L 199.67457 255.206893 
L 200.705185 254.69864 
L 201.7358 256.479562 
L 202.766415 255.509624 
L 203.797031 256.868071 
L 204.827646 257.822941 
L 205.858261 255.445234 
L 206.888876 255.995267 
L 207.919491 254.67809 
L 208.950107 257.044876 
L 209.980722 257.575796 
L 211.011337 259.586917 
L 212.041952 258.70727 
L 214.103183 258.98533 
L 215.133798 254.663578 
L 216.164413 257.404978 
L 217.195028 259.101961 
L 218.225643 256.932833 
L 219.256259 257.781778 
L 220.286874 256.865538 
L 221.317489 255.651412 
L 222.348104 258.730983 
L 223.37872 256.588902 
L 224.409335 256.109062 
L 225.43995 257.968332 
L 226.470565 257.480509 
L 227.50118 256.71145 
L 228.531796 257.536247 
L 229.562411 259.33884 
L 230.593026 254.866648 
L 231.623641 258.758131 
L 232.654256 259.3942 
L 233.684872 258.012482 
L 234.715487 259.0335 
L 235.746102 256.64757 
L 236.776717 258.520584 
L 237.807332 257.215853 
L 238.837948 258.064748 
L 239.868563 259.330793 
L 240.899178 257.356423 
L 241.929793 257.07474 
L 242.960409 256.138397 
L 243.991024 256.374305 
L 245.021639 259.115573 
L 246.052254 257.513139 
L 247.082869 257.791401 
L 248.113485 257.566325 
L 250.174715 258.911853 
L 251.20533 258.716332 
L 252.235945 255.677469 
L 253.266561 257.742525 
L 254.297176 256.944957 
L 255.327791 259.359264 
L 256.358406 259.433126 
L 258.419637 256.112881 
L 259.450252 260.095404 
L 260.480867 259.450638 
L 261.511482 260.202198 
L 262.542098 258.692108 
L 263.572713 259.094809 
L 264.603328 258.240179 
L 266.664558 260.984781 
L 267.695174 259.07983 
L 268.725789 259.839834 
L 269.756404 260.022179 
L 270.787019 257.894553 
L 271.817634 260.773341 
L 272.84825 257.247575 
L 273.878865 259.71876 
L 274.90948 258.269179 
L 275.940095 258.838949 
L 276.97071 258.208539 
L 278.001326 259.6267 
L 279.031941 257.022883 
L 280.062556 257.85777 
L 281.093171 260.136963 
L 282.123787 260.379085 
L 283.154402 260.951004 
L 284.185017 260.154727 
L 285.215632 257.306439 
L 286.246247 259.874821 
L 287.276863 257.139968 
L 288.307478 257.424128 
L 291.399323 261.034898 
L 293.460554 258.06788 
L 294.491169 257.602087 
L 295.521784 258.389768 
L 296.552399 258.422114 
L 297.583015 258.655389 
L 298.61363 258.29191 
L 299.644245 257.597909 
L 300.67486 259.772236 
L 301.705476 259.162842 
L 302.736091 260.760391 
L 303.766706 260.902008 
L 304.797321 259.832682 
L 305.827936 259.714085 
L 306.858552 259.272831 
L 307.889167 259.843848 
L 308.919782 259.111767 
L 309.950397 259.255646 
L 310.981012 257.88786 
L 312.011628 259.341493 
L 313.042243 256.890461 
L 314.072858 259.485543 
L 315.103473 260.503127 
L 316.134088 258.751823 
L 317.164704 257.612762 
L 318.195319 260.368284 
L 319.225934 258.886155 
L 320.256549 258.140777 
L 322.31778 258.2099 
L 323.348395 258.904972 
L 324.37901 260.960393 
L 325.409625 258.918193 
L 326.440241 258.744462 
L 328.501471 259.218044 
L 329.532086 260.669125 
L 330.562701 258.945346 
L 331.593317 258.889905 
L 332.623932 260.736262 
L 333.654547 260.245963 
L 334.685162 260.337992 
L 335.715777 259.75848 
L 336.746393 260.634743 
L 337.777008 258.795355 
L 338.807623 257.972517 
L 339.838238 258.633427 
L 340.868854 256.883157 
L 341.899469 257.426151 
L 342.930084 256.00523 
L 343.960699 258.154691 
L 344.991314 256.60935 
L 346.02193 257.841071 
L 347.052545 258.282237 
L 348.08316 257.65751 
L 349.113775 257.666528 
L 350.14439 258.645924 
L 351.175006 258.651935 
L 352.205621 256.971802 
L 353.236236 258.244855 
L 354.266851 259.029127 
L 355.297466 258.337433 
L 356.328082 256.986176 
L 357.358697 260.229396 
L 358.389312 258.825634 
L 359.419927 259.209404 
L 360.450543 261.396707 
L 361.481158 260.160657 
L 362.511773 258.409486 
L 363.542388 257.914542 
L 364.573003 257.169876 
L 365.603619 260.526588 
L 366.634234 259.191306 
L 367.664849 255.564846 
L 368.695464 258.965342 
L 369.726079 256.896233 
L 370.756695 259.086837 
L 371.78731 258.853437 
L 372.817925 259.034345 
L 373.84854 258.689197 
L 374.879155 258.120996 
L 375.909771 259.331379 
L 376.940386 258.053871 
L 377.971001 260.218311 
L 379.001616 260.133648 
L 380.032232 259.4254 
L 381.062847 258.400726 
L 382.093462 259.032738 
L 383.124077 259.027463 
L 384.154692 257.862452 
L 385.185308 257.662829 
L 386.215923 257.278856 
L 387.246538 260.188643 
L 388.277153 258.675422 
L 389.307768 260.01088 
L 390.338384 258.832018 
L 391.368999 261.088865 
L 392.399614 258.5088 
L 393.430229 261.542558 
L 394.460845 258.369306 
L 395.49146 257.313957 
L 396.522075 256.599369 
L 397.55269 256.657797 
L 398.583305 258.820807 
L 399.613921 256.514044 
L 400.644536 259.068563 
L 401.675151 259.438425 
L 402.705766 256.495675 
L 403.736381 256.944075 
L 404.766997 258.738199 
L 405.797612 258.474783 
L 406.828227 258.485729 
L 407.858842 259.575354 
L 408.889457 257.215771 
L 409.920073 258.939057 
L 410.950688 257.053623 
L 411.981303 258.961264 
L 413.011918 260.030591 
L 414.042534 257.410788 
L 415.073149 255.336909 
L 416.103764 260.037775 
L 417.134379 259.303356 
L 418.164994 259.038756 
L 419.19561 258.08284 
L 421.25684 258.919006 
L 422.287455 258.291513 
L 423.31807 258.192898 
L 424.348686 256.020171 
L 426.409916 260.258837 
L 427.440531 257.339025 
L 428.471146 257.894899 
L 429.501762 257.160997 
L 430.532377 260.456986 
L 431.562992 256.528532 
L 432.593607 258.152328 
L 433.624223 260.841828 
L 434.654838 259.127565 
L 435.685453 258.29576 
L 436.716068 258.745357 
L 437.746683 259.518475 
L 438.777299 257.761292 
L 439.807914 259.559291 
L 440.838529 259.040596 
L 441.869144 259.077448 
L 442.899759 257.285001 
L 443.930375 256.218768 
L 444.96099 257.097199 
L 445.991605 258.508693 
L 447.02222 258.762485 
L 448.052835 259.28193 
L 449.083451 259.143672 
L 450.114066 258.281921 
L 451.144681 257.088584 
L 452.175296 253.61296 
L 453.205912 257.661638 
L 454.236527 254.700953 
L 455.267142 257.035651 
L 456.297757 256.911779 
L 458.358988 257.305689 
L 459.389603 256.351619 
L 460.420218 260.277162 
L 461.450833 259.009926 
L 462.481448 258.260578 
L 463.512064 257.014906 
L 464.542679 260.095738 
L 465.573294 260.998751 
L 466.603909 259.342987 
L 468.66514 261.878399 
L 469.695755 258.753518 
L 470.72637 259.575379 
L 471.756985 259.723877 
L 472.787601 256.76686 
L 473.818216 259.379562 
L 474.848831 259.63585 
L 475.879446 259.492834 
L 476.910061 257.892807 
L 477.940677 260.237978 
L 478.971292 258.956481 
L 480.001907 259.216387 
L 481.032522 259.028421 
L 482.063137 257.698899 
L 483.093753 258.332921 
L 484.124368 258.613533 
L 485.154983 261.446276 
L 486.185598 257.786524 
L 487.216213 259.569815 
L 488.246829 258.737512 
L 489.277444 258.580078 
L 490.308059 259.480407 
L 491.338674 258.806553 
L 492.36929 259.954291 
L 493.399905 258.097226 
L 494.43052 257.845589 
L 495.461135 259.032139 
L 496.49175 259.660426 
L 497.522366 259.495606 
L 498.552981 260.578576 
L 499.583596 259.852072 
L 500.614211 259.910337 
L 501.644826 258.644531 
L 502.675442 260.72877 
L 503.706057 259.732523 
L 504.736672 260.269777 
L 506.797902 256.831969 
L 507.828518 260.243291 
L 508.859133 259.694279 
L 509.889748 259.481768 
L 510.920363 258.883994 
L 511.950979 259.275698 
L 512.981594 256.819025 
L 514.012209 259.047654 
L 515.042824 259.34022 
L 516.073439 256.133834 
L 517.104055 256.555837 
L 518.13467 260.231904 
L 519.165285 258.112728 
L 520.1959 257.320888 
L 521.226515 259.310729 
L 522.257131 259.115781 
L 523.287746 260.080444 
L 525.348976 257.23213 
L 526.379591 261.039681 
L 527.410207 257.757423 
L 528.440822 258.437188 
L 529.471437 258.680526 
L 530.502052 257.277476 
L 531.532668 259.87535 
L 532.563283 257.754599 
L 534.624513 260.000608 
L 535.655128 258.144835 
L 536.685744 258.651841 
L 537.716359 257.759679 
L 538.746974 258.981159 
L 539.777589 258.741797 
L 540.808204 257.239383 
L 541.83882 259.365698 
L 542.869435 259.764825 
L 543.90005 260.814157 
L 544.930665 257.551157 
L 545.96128 257.715504 
L 546.991896 259.148612 
L 548.022511 258.090704 
L 549.053126 253.429129 
L 550.083741 255.92041 
L 551.114357 257.479186 
L 552.144972 258.227551 
L 553.175587 257.903205 
L 554.206202 256.819447 
L 555.236817 257.349649 
L 556.267433 256.229418 
L 557.298048 256.040419 
L 558.328663 257.830307 
L 559.359278 256.504062 
L 560.389893 257.388247 
L 561.420509 254.158116 
L 562.451124 256.555377 
L 563.481739 256.992018 
L 564.512354 256.491988 
L 565.542969 254.514626 
L 566.573585 258.535771 
L 567.6042 257.316698 
L 568.634815 256.283839 
L 569.66543 255.951263 
L 570.696046 256.29757 
L 571.726661 256.170894 
L 572.757276 257.567447 
L 573.787891 258.21479 
L 574.818506 257.189159 
L 575.849122 254.39284 
L 576.879737 258.601825 
L 577.910352 258.767092 
L 578.940967 255.281631 
L 581.002198 259.134881 
L 582.032813 254.521343 
L 583.063428 256.598997 
L 584.094043 258.238957 
L 585.124658 256.305945 
L 586.155274 257.482822 
L 587.185889 257.133862 
L 588.216504 254.098849 
L 589.247119 256.977045 
L 590.277735 256.114337 
L 591.30835 254.400383 
L 592.338965 254.350398 
L 593.36958 255.91368 
L 594.400195 255.629942 
L 595.430811 254.791633 
L 596.461426 256.684705 
L 597.492041 257.369474 
L 598.522656 256.240622 
L 599.553271 252.716022 
L 600.583887 257.252169 
L 601.614502 256.020732 
L 602.645117 256.534304 
L 603.675732 258.200214 
L 604.706347 257.41305 
L 605.736963 253.704372 
L 606.767578 255.145931 
L 607.798193 257.883953 
L 608.828808 254.249767 
L 609.859424 255.072044 
L 610.890039 254.810582 
L 611.920654 253.71799 
L 612.951269 256.473317 
L 613.981884 254.74347 
L 615.0125 254.904975 
L 616.043115 255.65218 
L 617.07373 257.050516 
L 618.104345 256.821804 
L 619.13496 255.492547 
L 620.165576 256.484899 
L 621.196191 257.192221 
L 623.257421 257.869082 
L 624.288036 258.090358 
L 625.318652 257.560754 
L 626.349267 259.348299 
L 627.379882 257.068293 
L 628.410497 254.112511 
L 629.441113 255.690948 
L 630.471728 259.515746 
L 631.502343 255.139176 
L 632.532958 257.34532 
L 633.563573 257.494077 
L 634.594189 255.30346 
L 635.624804 257.215021 
L 636.655419 257.410693 
L 637.686034 259.494201 
L 638.716649 257.023249 
L 639.747265 255.733024 
L 640.77788 258.986868 
L 641.808495 256.37813 
L 642.83911 259.202101 
L 643.869725 257.933535 
L 644.900341 259.259257 
L 645.930956 258.538298 
L 646.961571 255.646603 
L 647.992186 257.030628 
L 649.022802 257.687783 
L 650.053417 257.626808 
L 651.084032 258.019615 
L 652.114647 258.825388 
L 653.145262 256.629472 
L 654.175878 256.07647 
L 655.206493 255.290585 
L 656.237108 253.738918 
L 657.267723 255.655344 
L 658.298338 257.048122 
L 659.328954 256.336634 
L 660.359569 255.230865 
L 661.390184 258.282293 
L 662.420799 256.175167 
L 663.451415 256.018306 
L 664.48203 254.36781 
L 665.512645 254.506213 
L 666.54326 257.744744 
L 667.573875 257.900388 
L 668.604491 258.752409 
L 669.635106 254.372788 
L 670.665721 256.081215 
L 671.696336 258.782644 
L 672.726951 257.865225 
L 673.757567 258.409051 
L 674.788182 255.219112 
L 674.788182 255.219112 
" clip-path="url(#p467833f36d)" style="fill: none; stroke: #ff7f0e; stroke-width: 1.5; stroke-linecap: square"/>
   </g>
   <g id="patch_3">
    <path d="M 65.54 304 
L 65.54 19.37536 
" style="fill: none; stroke: #000000; stroke-width: 0.8; stroke-linejoin: miter; stroke-linecap: square"/>
   </g>
   <g id="patch_4">
    <path d="M 703.8 304 
L 703.8 19.37536 
" style="fill: none; stroke: #000000; stroke-width: 0.8; stroke-linejoin: miter; stroke-linecap: square"/>
   </g>
   <g id="patch_5">
    <path d="M 65.54 304 
L 703.8 304 
" style="fill: none; stroke: #000000; stroke-width: 0.8; stroke-linejoin: miter; stroke-linecap: square"/>
   </g>
   <g id="patch_6">
    <path d="M 65.54 19.37536 
L 703.8 19.37536 
" style="fill: none; stroke: #000000; stroke-width: 0.8; stroke-linejoin: miter; stroke-linecap: square"/>
   </g>
   <g id="legend_1">
    <g id="patch_7">
     <path d="M 533.559375 75.409735 
L 693.3 75.409735 
Q 696.3 75.409735 696.3 72.409735 
L 696.3 29.87536 
Q 696.3 26.87536 693.3 26.87536 
L 533.559375 26.87536 
Q 530.559375 26.87536 530.559375 29.87536 
L 530.559375 72.409735 
Q 530.559375 75.409735 533.559375 75.409735 
z
" style="fill: #ffffff; opacity: 0.8; stroke: #cccccc; stroke-linejoin: miter"/>
    </g>
    <g id="line2d_16">
     <path d="M 536.559375 39.023016 
L 551.559375 39.023016 
L 566.559375 39.023016 
" style="fill: none; stroke: #1f77b4; stroke-width: 1.5; stroke-linecap: square"/>
    </g>
    <g id="text_16">
     <text style="font: 15px 'DejaVu Sans', 'Bitstream Vera Sans', 'Computer Modern Sans Serif', 'Lucida Grande', 'Verdana', 'Geneva', 'Lucid', 'Arial', 'Helvetica', 'Avant Garde', sans-serif; text-anchor: start" x="578.559375" y="44.273016" transform="rotate(-0 578.559375 44.273016)">Training Loss</text>
    </g>
    <g id="line2d_17">
     <path d="M 536.559375 61.040204 
L 551.559375 61.040204 
L 566.559375 61.040204 
" style="fill: none; stroke: #ff7f0e; stroke-width: 1.5; stroke-linecap: square"/>
    </g>
    <g id="text_17">
     <text style="font: 15px 'DejaVu Sans', 'Bitstream Vera Sans', 'Computer Modern Sans Serif', 'Lucida Grande', 'Verdana', 'Geneva', 'Lucid', 'Arial', 'Helvetica', 'Avant Garde', sans-serif; text-anchor: start" x="578.559375" y="66.290204" transform="rotate(-0 578.559375 66.290204)">Validation Loss</text>
    </g>
   </g>
  </g>
 </g>
 <defs>
  <clipPath id="p467833f36d">
   <rect x="65.54" y="19.37536" width="638.26" height="284.62464"/>
  </clipPath>
 </defs>
</svg>
