<?xml version="1.0" encoding="utf-8" standalone="no"?>
<!DOCTYPE svg PUBLIC "-//W3C//DTD SVG 1.1//EN"
  "http://www.w3.org/Graphics/SVG/1.1/DTD/svg11.dtd">
<svg xmlns:xlink="http://www.w3.org/1999/xlink" width="720pt" height="360pt" viewBox="0 0 720 360" xmlns="http://www.w3.org/2000/svg" version="1.1">
 <metadata>
  <rdf:RDF xmlns:dc="http://purl.org/dc/elements/1.1/" xmlns:cc="http://creativecommons.org/ns#" xmlns:rdf="http://www.w3.org/1999/02/22-rdf-syntax-ns#">
   <cc:Work>
    <dc:type rdf:resource="http://purl.org/dc/dcmitype/StillImage"/>
    <dc:date>2023-07-19T13:43:54.868722</dc:date>
    <dc:format>image/svg+xml</dc:format>
    <dc:creator>
     <cc:Agent>
      <dc:title>Matplotlib v3.7.2, https://matplotlib.org/</dc:title>
     </cc:Agent>
    </dc:creator>
   </cc:Work>
  </rdf:RDF>
 </metadata>
 <defs>
  <style type="text/css">*{stroke-linejoin: round; stroke-linecap: butt}</style>
 </defs>
 <g id="figure_1">
  <g id="patch_1">
   <path d="M 0 360 
L 720 360 
L 720 0 
L 0 0 
z
" style="fill: #ffffff"/>
  </g>
  <g id="axes_1">
   <g id="patch_2">
    <path d="M 65.54 304 
L 703.8 304 
L 703.8 16.2 
L 65.54 16.2 
z
" style="fill: #ffffff"/>
   </g>
   <g id="matplotlib.axis_1">
    <g id="xtick_1">
     <g id="line2d_1">
      <defs>
       <path id="m0b58b2479e" d="M 0 0 
L 0 3.5 
" style="stroke: #000000; stroke-width: 0.8"/>
      </defs>
      <g>
       <use xlink:href="#m0b58b2479e" x="92.793526" y="304" style="stroke: #000000; stroke-width: 0.8"/>
      </g>
     </g>
     <g id="text_1">
      <text style="font: 15px 'DejaVu Sans', 'Bitstream Vera Sans', 'Computer Modern Sans Serif', 'Lucida Grande', 'Verdana', 'Geneva', 'Lucid', 'Arial', 'Helvetica', 'Avant Garde', sans-serif; text-anchor: middle" x="92.793526" y="322.397656" transform="rotate(-0 92.793526 322.397656)">0</text>
     </g>
    </g>
    <g id="xtick_2">
     <g id="line2d_2">
      <g>
       <use xlink:href="#m0b58b2479e" x="180.708127" y="304" style="stroke: #000000; stroke-width: 0.8"/>
      </g>
     </g>
     <g id="text_2">
      <text style="font: 15px 'DejaVu Sans', 'Bitstream Vera Sans', 'Computer Modern Sans Serif', 'Lucida Grande', 'Verdana', 'Geneva', 'Lucid', 'Arial', 'Helvetica', 'Avant Garde', sans-serif; text-anchor: middle" x="180.708127" y="322.397656" transform="rotate(-0 180.708127 322.397656)">50</text>
     </g>
    </g>
    <g id="xtick_3">
     <g id="line2d_3">
      <g>
       <use xlink:href="#m0b58b2479e" x="268.622727" y="304" style="stroke: #000000; stroke-width: 0.8"/>
      </g>
     </g>
     <g id="text_3">
      <text style="font: 15px 'DejaVu Sans', 'Bitstream Vera Sans', 'Computer Modern Sans Serif', 'Lucida Grande', 'Verdana', 'Geneva', 'Lucid', 'Arial', 'Helvetica', 'Avant Garde', sans-serif; text-anchor: middle" x="268.622727" y="322.397656" transform="rotate(-0 268.622727 322.397656)">100</text>
     </g>
    </g>
    <g id="xtick_4">
     <g id="line2d_4">
      <g>
       <use xlink:href="#m0b58b2479e" x="356.537328" y="304" style="stroke: #000000; stroke-width: 0.8"/>
      </g>
     </g>
     <g id="text_4">
      <text style="font: 15px 'DejaVu Sans', 'Bitstream Vera Sans', 'Computer Modern Sans Serif', 'Lucida Grande', 'Verdana', 'Geneva', 'Lucid', 'Arial', 'Helvetica', 'Avant Garde', sans-serif; text-anchor: middle" x="356.537328" y="322.397656" transform="rotate(-0 356.537328 322.397656)">150</text>
     </g>
    </g>
    <g id="xtick_5">
     <g id="line2d_5">
      <g>
       <use xlink:href="#m0b58b2479e" x="444.451928" y="304" style="stroke: #000000; stroke-width: 0.8"/>
      </g>
     </g>
     <g id="text_5">
      <text style="font: 15px 'DejaVu Sans', 'Bitstream Vera Sans', 'Computer Modern Sans Serif', 'Lucida Grande', 'Verdana', 'Geneva', 'Lucid', 'Arial', 'Helvetica', 'Avant Garde', sans-serif; text-anchor: middle" x="444.451928" y="322.397656" transform="rotate(-0 444.451928 322.397656)">200</text>
     </g>
    </g>
    <g id="xtick_6">
     <g id="line2d_6">
      <g>
       <use xlink:href="#m0b58b2479e" x="532.366529" y="304" style="stroke: #000000; stroke-width: 0.8"/>
      </g>
     </g>
     <g id="text_6">
      <text style="font: 15px 'DejaVu Sans', 'Bitstream Vera Sans', 'Computer Modern Sans Serif', 'Lucida Grande', 'Verdana', 'Geneva', 'Lucid', 'Arial', 'Helvetica', 'Avant Garde', sans-serif; text-anchor: middle" x="532.366529" y="322.397656" transform="rotate(-0 532.366529 322.397656)">250</text>
     </g>
    </g>
    <g id="xtick_7">
     <g id="line2d_7">
      <g>
       <use xlink:href="#m0b58b2479e" x="620.281129" y="304" style="stroke: #000000; stroke-width: 0.8"/>
      </g>
     </g>
     <g id="text_7">
      <text style="font: 15px 'DejaVu Sans', 'Bitstream Vera Sans', 'Computer Modern Sans Serif', 'Lucida Grande', 'Verdana', 'Geneva', 'Lucid', 'Arial', 'Helvetica', 'Avant Garde', sans-serif; text-anchor: middle" x="620.281129" y="322.397656" transform="rotate(-0 620.281129 322.397656)">300</text>
     </g>
    </g>
    <g id="text_8">
     <text style="font: 15px 'DejaVu Sans', 'Bitstream Vera Sans', 'Computer Modern Sans Serif', 'Lucida Grande', 'Verdana', 'Geneva', 'Lucid', 'Arial', 'Helvetica', 'Avant Garde', sans-serif; text-anchor: middle" x="384.67" y="340.914844" transform="rotate(-0 384.67 340.914844)">Epoch</text>
    </g>
   </g>
   <g id="matplotlib.axis_2">
    <g id="ytick_1">
     <g id="line2d_8">
      <defs>
       <path id="m8d91662094" d="M 0 0 
L -3.5 0 
" style="stroke: #000000; stroke-width: 0.8"/>
      </defs>
      <g>
       <use xlink:href="#m8d91662094" x="65.54" y="290.630507" style="stroke: #000000; stroke-width: 0.8"/>
      </g>
     </g>
     <g id="text_9">
      <text style="font: 15px 'DejaVu Sans', 'Bitstream Vera Sans', 'Computer Modern Sans Serif', 'Lucida Grande', 'Verdana', 'Geneva', 'Lucid', 'Arial', 'Helvetica', 'Avant Garde', sans-serif; text-anchor: end" x="58.54" y="296.329335" transform="rotate(-0 58.54 296.329335)">0.3</text>
     </g>
    </g>
    <g id="ytick_2">
     <g id="line2d_9">
      <g>
       <use xlink:href="#m8d91662094" x="65.54" y="249.743832" style="stroke: #000000; stroke-width: 0.8"/>
      </g>
     </g>
     <g id="text_10">
      <text style="font: 15px 'DejaVu Sans', 'Bitstream Vera Sans', 'Computer Modern Sans Serif', 'Lucida Grande', 'Verdana', 'Geneva', 'Lucid', 'Arial', 'Helvetica', 'Avant Garde', sans-serif; text-anchor: end" x="58.54" y="255.442661" transform="rotate(-0 58.54 255.442661)">0.4</text>
     </g>
    </g>
    <g id="ytick_3">
     <g id="line2d_10">
      <g>
       <use xlink:href="#m8d91662094" x="65.54" y="208.857158" style="stroke: #000000; stroke-width: 0.8"/>
      </g>
     </g>
     <g id="text_11">
      <text style="font: 15px 'DejaVu Sans', 'Bitstream Vera Sans', 'Computer Modern Sans Serif', 'Lucida Grande', 'Verdana', 'Geneva', 'Lucid', 'Arial', 'Helvetica', 'Avant Garde', sans-serif; text-anchor: end" x="58.54" y="214.555986" transform="rotate(-0 58.54 214.555986)">0.5</text>
     </g>
    </g>
    <g id="ytick_4">
     <g id="line2d_11">
      <g>
       <use xlink:href="#m8d91662094" x="65.54" y="167.970484" style="stroke: #000000; stroke-width: 0.8"/>
      </g>
     </g>
     <g id="text_12">
      <text style="font: 15px 'DejaVu Sans', 'Bitstream Vera Sans', 'Computer Modern Sans Serif', 'Lucida Grande', 'Verdana', 'Geneva', 'Lucid', 'Arial', 'Helvetica', 'Avant Garde', sans-serif; text-anchor: end" x="58.54" y="173.669312" transform="rotate(-0 58.54 173.669312)">0.6</text>
     </g>
    </g>
    <g id="ytick_5">
     <g id="line2d_12">
      <g>
       <use xlink:href="#m8d91662094" x="65.54" y="127.083809" style="stroke: #000000; stroke-width: 0.8"/>
      </g>
     </g>
     <g id="text_13">
      <text style="font: 15px 'DejaVu Sans', 'Bitstream Vera Sans', 'Computer Modern Sans Serif', 'Lucida Grande', 'Verdana', 'Geneva', 'Lucid', 'Arial', 'Helvetica', 'Avant Garde', sans-serif; text-anchor: end" x="58.54" y="132.782637" transform="rotate(-0 58.54 132.782637)">0.7</text>
     </g>
    </g>
    <g id="ytick_6">
     <g id="line2d_13">
      <g>
       <use xlink:href="#m8d91662094" x="65.54" y="86.197135" style="stroke: #000000; stroke-width: 0.8"/>
      </g>
     </g>
     <g id="text_14">
      <text style="font: 15px 'DejaVu Sans', 'Bitstream Vera Sans', 'Computer Modern Sans Serif', 'Lucida Grande', 'Verdana', 'Geneva', 'Lucid', 'Arial', 'Helvetica', 'Avant Garde', sans-serif; text-anchor: end" x="58.54" y="91.895963" transform="rotate(-0 58.54 91.895963)">0.8</text>
     </g>
    </g>
    <g id="ytick_7">
     <g id="line2d_14">
      <g>
       <use xlink:href="#m8d91662094" x="65.54" y="45.31046" style="stroke: #000000; stroke-width: 0.8"/>
      </g>
     </g>
     <g id="text_15">
      <text style="font: 15px 'DejaVu Sans', 'Bitstream Vera Sans', 'Computer Modern Sans Serif', 'Lucida Grande', 'Verdana', 'Geneva', 'Lucid', 'Arial', 'Helvetica', 'Avant Garde', sans-serif; text-anchor: end" x="58.54" y="51.009288" transform="rotate(-0 58.54 51.009288)">0.9</text>
     </g>
    </g>
    <g id="text_16">
     <text style="font: 15px 'DejaVu Sans', 'Bitstream Vera Sans', 'Computer Modern Sans Serif', 'Lucida Grande', 'Verdana', 'Geneva', 'Lucid', 'Arial', 'Helvetica', 'Avant Garde', sans-serif; text-anchor: middle" x="27.565781" y="160.1" transform="rotate(-90 27.565781 160.1)">Accuracy</text>
    </g>
   </g>
   <g id="line2d_15">
    <path d="M 94.551818 290.918182 
L 96.31011 260.380419 
L 98.068402 245.185294 
L 103.343278 189.199394 
L 105.10157 175.479517 
L 106.859862 170.758711 
L 108.618154 160.136891 
L 110.376446 152.022975 
L 112.134738 141.91749 
L 113.89303 138.303122 
L 115.651322 132.623391 
L 117.409614 127.828816 
L 119.167906 130.410514 
L 120.926198 119.346104 
L 122.68449 118.608462 
L 124.442782 115.805481 
L 126.201074 114.40399 
L 127.959366 108.871797 
L 129.717658 105.183661 
L 131.47595 104.519788 
L 133.234242 105.552482 
L 134.992534 100.979189 
L 136.750826 97.881156 
L 138.509118 98.323722 
L 140.26741 97.291053 
L 142.025702 98.47126 
L 143.783994 91.094987 
L 145.542287 91.31627 
L 147.300579 90.87368 
L 149.058871 88.955854 
L 150.817163 90.504883 
L 152.575455 87.775647 
L 154.333747 84.677614 
L 156.092039 85.784052 
L 157.850331 80.62068 
L 159.608623 82.169685 
L 161.366915 82.538506 
L 163.125207 82.243454 
L 164.883499 80.768194 
L 166.641791 79.145421 
L 170.158375 79.21919 
L 171.916667 77.153827 
L 173.674959 74.350846 
L 175.433251 73.539459 
L 177.191543 73.834511 
L 178.949835 75.309746 
L 180.708127 69.998836 
L 182.466419 70.957761 
L 184.224711 73.023124 
L 185.983003 74.129563 
L 187.741295 71.252813 
L 189.499587 73.834511 
L 191.257879 68.966166 
L 193.016171 69.334987 
L 194.774463 68.007242 
L 196.532755 67.490907 
L 198.291047 67.933497 
L 200.049339 68.228549 
L 201.807631 64.097822 
L 203.565923 64.466643 
L 205.324215 64.614157 
L 207.082507 64.24536 
L 208.840799 64.614157 
L 210.599091 63.065153 
L 212.357383 65.573082 
L 214.115675 61.737407 
L 215.873967 61.884945 
L 217.632259 62.40128 
L 219.390551 64.171591 
L 221.148843 61.589893 
L 222.907135 57.975525 
L 224.665427 59.377016 
L 226.423719 64.614157 
L 228.182011 60.778506 
L 229.940303 58.196808 
L 231.698595 58.934426 
L 233.456887 59.52453 
L 235.215179 59.377016 
L 236.973471 54.066106 
L 238.731763 59.081964 
L 240.490055 56.131445 
L 242.248347 58.713143 
L 244.006639 58.04927 
L 245.764931 55.688879 
L 247.523223 57.459191 
L 249.281515 56.942831 
L 251.039807 54.434902 
L 252.798099 57.901756 
L 254.556391 57.827987 
L 256.314683 57.09037 
L 258.072975 54.434902 
L 259.831267 52.959643 
L 261.589559 54.951237 
L 263.347851 51.70569 
L 266.864435 54.656185 
L 268.622727 53.254695 
L 270.381019 52.812129 
L 272.139311 52.959643 
L 273.897603 52.443308 
L 275.655895 52.664615 
L 277.414187 52.517077 
L 279.172479 54.58244 
L 280.930771 53.402233 
L 282.689063 50.599252 
L 284.447355 49.123992 
L 286.205647 49.640327 
L 287.963939 50.820535 
L 289.722231 48.976479 
L 291.480523 47.501219 
L 293.238815 52.443308 
L 294.997107 53.844799 
L 296.755399 49.345275 
L 298.513691 50.082917 
L 300.271983 48.238837 
L 302.030275 51.2631 
L 303.788567 48.312606 
L 305.54686 46.689832 
L 307.305152 49.050223 
L 309.063444 47.648733 
L 310.821736 48.755171 
L 312.580028 45.067035 
L 314.33832 46.616063 
L 316.096612 47.501219 
L 317.854904 46.763577 
L 319.613196 50.009148 
L 321.371488 49.050223 
L 323.12978 49.345275 
L 324.888072 44.181879 
L 326.646364 46.616063 
L 328.404656 46.542294 
L 330.162948 43.370492 
L 331.92124 46.763577 
L 333.679532 46.542294 
L 335.437824 43.886851 
L 337.196116 43.370492 
L 338.954408 45.95219 
L 340.7127 44.99329 
L 342.470992 44.624469 
L 344.229284 42.927926 
L 345.987576 44.771983 
L 347.745868 45.509625 
L 349.50416 46.984884 
L 351.262452 46.247242 
L 353.020744 45.878421 
L 354.779036 41.895257 
L 356.537328 47.501219 
L 358.29562 46.173473 
L 360.053912 42.927926 
L 361.812204 44.476931 
L 363.570496 38.797224 
L 365.328788 44.99329 
L 367.08708 42.264054 
L 368.845372 43.296747 
L 370.603664 41.67395 
L 372.361956 43.960596 
L 374.120248 40.567511 
L 375.87854 42.632875 
L 377.636832 42.559106 
L 379.395124 45.657138 
L 381.153416 40.198715 
L 382.911708 43.739313 
L 384.67 40.419997 
L 386.428292 42.854157 
L 388.186584 43.370492 
L 389.944876 43.222978 
L 391.703168 43.960596 
L 393.46146 41.526436 
L 395.219752 41.526436 
L 396.978044 39.534842 
L 398.736336 42.264054 
L 400.494628 41.378898 
L 402.25292 42.927926 
L 404.011212 38.944738 
L 405.769504 40.419997 
L 407.527796 41.600205 
L 409.286088 43.001696 
L 411.04438 38.944738 
L 412.802672 42.042771 
L 414.560964 39.461073 
L 416.319256 40.272459 
L 418.077548 43.149209 
L 419.83584 39.756125 
L 421.594132 42.264054 
L 423.352424 37.174426 
L 425.110716 41.010101 
L 426.869008 41.083846 
L 428.6273 37.617016 
L 430.385592 40.788794 
L 432.143884 37.76453 
L 435.660468 37.026913 
L 437.41876 39.682355 
L 439.177052 40.64128 
L 440.935344 37.026913 
L 444.451928 41.305153 
L 446.21022 39.092252 
L 447.968512 39.829894 
L 449.726804 36.289271 
L 451.485096 36.584323 
L 453.243388 37.543247 
L 455.00168 38.870969 
L 456.759972 37.543247 
L 458.518264 34.814035 
L 462.034848 37.76453 
L 463.79314 36.067988 
L 465.551433 38.797224 
L 467.309725 36.36304 
L 469.068017 38.575917 
L 470.826309 38.059582 
L 472.584601 34.592728 
L 474.342893 36.879374 
L 476.101185 34.88778 
L 477.859477 36.141757 
L 479.617769 38.280865 
L 481.376061 38.133351 
L 483.134353 37.100682 
L 484.892645 34.371445 
L 486.650937 34.223932 
L 488.409229 39.092252 
L 490.167521 38.354634 
L 491.925813 33.191238 
L 493.684105 37.543247 
L 495.442397 35.772936 
L 497.200689 36.510578 
L 498.958981 34.150163 
L 500.717273 35.699167 
L 502.475565 37.617016 
L 504.233857 35.699167 
L 505.992149 35.625422 
L 507.750441 34.88778 
L 509.508733 35.477884 
L 511.267025 35.109087 
L 513.025317 37.76453 
L 514.783609 34.076393 
L 516.541901 36.289271 
L 518.300193 36.436809 
L 520.058485 34.445214 
L 521.816777 34.88778 
L 523.575069 36.215526 
L 525.333361 35.994219 
L 528.849945 34.150163 
L 530.608237 36.067988 
L 532.366529 38.575917 
L 534.124821 38.723455 
L 535.883113 34.297676 
L 537.641405 34.371445 
L 539.399697 33.412545 
L 541.157989 35.035318 
L 542.916281 35.404139 
L 544.674573 34.371445 
L 546.432865 35.477884 
L 548.191157 35.182832 
L 549.949449 34.666497 
L 551.707741 35.404139 
L 553.466033 34.961549 
L 555.224325 33.48629 
L 556.982617 34.076393 
L 558.740909 36.289271 
L 560.499201 35.256601 
L 562.257493 32.674903 
L 564.015785 36.36304 
L 565.774077 32.822441 
L 567.532369 32.601134 
L 569.290661 35.404139 
L 571.048953 33.412545 
L 572.807245 35.109087 
L 574.565537 30.978361 
L 576.323829 34.740266 
L 578.082121 34.88778 
L 579.840413 32.158568 
L 581.598705 33.92888 
L 583.356997 33.117493 
L 585.115289 31.937285 
L 586.873581 34.002624 
L 588.631873 34.666497 
L 590.390165 32.45362 
L 592.148457 34.223932 
L 593.906749 34.592728 
L 595.665041 36.215526 
L 597.423333 33.633828 
L 599.181625 32.969955 
L 600.939917 32.822441 
L 602.698209 33.633828 
L 604.456501 35.920474 
L 606.214793 34.518984 
L 607.973085 32.601134 
L 609.731377 31.716003 
L 611.489669 32.601134 
L 613.247961 30.388257 
L 615.006253 32.601134 
L 616.764545 31.494695 
L 618.522837 33.707597 
L 620.281129 30.60954 
L 622.039421 33.265007 
L 623.797713 32.084799 
L 625.556006 33.781342 
L 627.314298 32.306082 
L 629.07259 32.822441 
L 630.830882 32.306082 
L 632.589174 31.937285 
L 634.347466 31.937285 
L 636.105758 32.748672 
L 637.86405 30.830847 
L 639.622342 33.412545 
L 641.380634 31.863516 
L 643.138926 31.125899 
L 646.65551 32.084799 
L 648.413802 33.338776 
L 650.172094 31.642233 
L 651.930386 31.347182 
L 653.688678 34.666497 
L 655.44697 32.232337 
L 657.205262 31.789747 
L 658.963554 31.863516 
L 660.721846 30.314488 
L 662.480138 30.683309 
L 664.23843 31.789747 
L 665.996722 34.518984 
L 667.755014 32.158568 
L 669.513306 29.281818 
L 671.271598 31.199643 
L 673.02989 32.011054 
L 674.788182 35.404139 
L 674.788182 35.404139 
" clip-path="url(#p6d5488db21)" style="fill: none; stroke: #1f77b4; stroke-width: 1.5; stroke-linecap: square"/>
   </g>
   <g id="line2d_16">
    <path d="M 94.551818 255.319292 
L 96.31011 237.176939 
L 98.068402 226.335773 
L 99.826694 198.458497 
L 101.584986 175.006172 
L 103.343278 168.811227 
L 105.10157 165.713754 
L 106.859862 149.341383 
L 108.618154 136.066484 
L 110.376446 127.437818 
L 112.134738 123.676594 
L 113.89303 117.924142 
L 115.651322 116.817899 
L 117.409614 107.082965 
L 119.167906 102.658014 
L 120.926198 101.330512 
L 124.442782 93.144339 
L 126.201074 92.92308 
L 127.959366 88.498106 
L 129.717658 88.055613 
L 131.47595 88.055613 
L 133.234242 81.63941 
L 134.992534 88.276872 
L 136.750826 80.533191 
L 138.509118 80.311932 
L 140.26741 80.533191 
L 142.025702 75.001973 
L 143.783994 74.338222 
L 145.542287 71.240749 
L 147.300579 74.116988 
L 149.058871 71.9045 
L 150.817163 70.576998 
L 152.575455 69.692013 
L 154.333747 75.886958 
L 156.092039 69.692013 
L 157.850331 65.93079 
L 159.608623 69.249521 
L 163.125207 66.152048 
L 164.883499 62.833317 
L 166.641791 63.939561 
L 168.400083 63.27581 
L 170.158375 63.054576 
L 171.916667 60.62083 
L 173.674959 59.957103 
L 175.433251 60.178338 
L 177.191543 62.390825 
L 178.949835 60.178338 
L 180.708127 57.523358 
L 182.466419 61.50584 
L 184.224711 58.408367 
L 185.983003 56.417114 
L 187.741295 59.514586 
L 189.499587 58.629601 
L 191.257879 60.62083 
L 193.016171 57.744616 
L 194.774463 60.399596 
L 196.532755 55.31087 
L 198.291047 55.31087 
L 200.049339 57.080865 
L 201.807631 54.868378 
L 203.565923 54.204651 
L 205.324215 55.532129 
L 207.082507 56.19588 
L 208.840799 53.319642 
L 210.599091 55.532129 
L 212.357383 51.549671 
L 214.115675 51.328413 
L 215.873967 53.319642 
L 217.632259 52.877149 
L 219.390551 52.213398 
L 221.148843 52.655891 
L 222.907135 51.992164 
L 224.665427 54.204651 
L 226.423719 52.655891 
L 228.182011 58.629601 
L 229.940303 52.434657 
L 231.698595 50.664662 
L 233.456887 50.000911 
L 235.215179 50.000911 
L 236.973471 51.549671 
L 238.731763 52.877149 
L 240.490055 50.000911 
L 242.248347 50.664662 
L 244.006639 51.770906 
L 245.764931 49.115926 
L 247.523223 54.868378 
L 249.281515 50.88592 
L 251.039807 52.877149 
L 252.798099 53.762134 
L 254.556391 48.673433 
L 256.314683 51.770906 
L 258.072975 51.549671 
L 259.831267 51.992164 
L 261.589559 50.443428 
L 263.347851 51.549671 
L 265.106143 49.558418 
L 266.864435 49.115926 
L 268.622727 50.000911 
L 272.139311 50.443428 
L 273.897603 48.894692 
L 275.655895 48.452175 
L 277.414187 48.894692 
L 279.172479 46.239712 
L 280.930771 49.115926 
L 282.689063 51.328413 
L 284.447355 50.443428 
L 286.205647 50.000911 
L 287.963939 51.992164 
L 289.722231 51.107154 
L 291.480523 52.213398 
L 293.238815 46.903438 
L 294.997107 45.354702 
L 296.755399 47.56719 
L 298.513691 44.91221 
L 300.271983 47.56719 
L 302.030275 44.690976 
L 303.788567 48.230941 
L 305.54686 49.115926 
L 307.305152 47.56719 
L 309.063444 47.345955 
L 310.821736 46.903438 
L 312.580028 48.230941 
L 314.33832 47.345955 
L 316.096612 48.009682 
L 317.854904 47.345955 
L 319.613196 47.345955 
L 321.371488 47.56719 
L 323.12978 48.009682 
L 324.888072 45.133468 
L 326.646364 45.797195 
L 328.404656 44.469717 
L 330.162948 46.903438 
L 331.92124 47.56719 
L 333.679532 46.018453 
L 337.196116 49.558418 
L 338.954408 45.575961 
L 342.470992 45.575961 
L 344.229284 46.239712 
L 345.987576 43.805966 
L 347.745868 45.797195 
L 349.50416 46.460946 
L 351.262452 44.690976 
L 353.020744 46.239712 
L 354.779036 45.354702 
L 356.537328 44.248459 
L 358.29562 44.91221 
L 360.053912 45.354702 
L 361.812204 44.248459 
L 363.570496 46.460946 
L 365.328788 44.91221 
L 367.08708 44.91221 
L 368.845372 43.805966 
L 370.603664 43.805966 
L 372.361956 45.354702 
L 374.120248 45.575961 
L 375.87854 46.018453 
L 377.636832 45.133468 
L 379.395124 43.363474 
L 381.153416 44.690976 
L 382.911708 46.460946 
L 384.67 43.142239 
L 386.428292 44.248459 
L 388.186584 45.133468 
L 389.944876 46.903438 
L 391.703168 44.027225 
L 393.46146 45.133468 
L 395.219752 45.133468 
L 396.978044 44.469717 
L 398.736336 42.25723 
L 400.494628 42.25723 
L 402.25292 44.027225 
L 404.011212 46.239712 
L 405.769504 46.903438 
L 407.527796 42.699722 
L 409.286088 43.142239 
L 411.04438 42.699722 
L 412.802672 44.690976 
L 414.560964 44.690976 
L 416.319256 46.239712 
L 418.077548 43.363474 
L 419.83584 44.91221 
L 421.594132 43.805966 
L 423.352424 44.469717 
L 425.110716 44.469717 
L 426.869008 44.690976 
L 428.6273 42.25723 
L 430.385592 43.805966 
L 432.143884 42.920981 
L 433.902176 42.920981 
L 435.660468 44.690976 
L 437.41876 43.584732 
L 439.177052 43.584732 
L 440.935344 42.699722 
L 442.693636 42.920981 
L 444.451928 45.575961 
L 446.21022 42.699722 
L 447.968512 45.133468 
L 449.726804 43.584732 
L 451.485096 45.575961 
L 453.243388 43.805966 
L 455.00168 44.469717 
L 456.759972 43.363474 
L 458.518264 40.48726 
L 460.276556 42.699722 
L 462.034848 41.593479 
L 463.79314 43.142239 
L 465.551433 42.035996 
L 467.309725 42.035996 
L 469.068017 43.584732 
L 470.826309 44.469717 
L 474.342893 43.584732 
L 476.101185 44.027225 
L 477.859477 43.584732 
L 479.617769 44.027225 
L 481.376061 41.593479 
L 483.134353 44.469717 
L 484.892645 43.805966 
L 486.650937 42.920981 
L 488.409229 43.584732 
L 490.167521 44.027225 
L 491.925813 43.363474 
L 493.684105 42.035996 
L 495.442397 42.699722 
L 497.200689 44.027225 
L 498.958981 44.248459 
L 500.717273 43.584732 
L 502.475565 44.027225 
L 504.233857 42.035996 
L 505.992149 43.805966 
L 507.750441 43.805966 
L 509.508733 42.035996 
L 511.267025 46.018453 
L 513.025317 42.035996 
L 514.783609 42.920981 
L 516.541901 42.699722 
L 518.300193 43.584732 
L 520.058485 43.142239 
L 521.816777 44.027225 
L 523.575069 41.814737 
L 525.333361 43.363474 
L 527.091653 41.593479 
L 528.849945 43.584732 
L 530.608237 42.699722 
L 532.366529 43.584732 
L 534.124821 41.372245 
L 535.883113 43.363474 
L 537.641405 42.920981 
L 539.399697 41.814737 
L 541.157989 39.381016 
L 542.916281 45.797195 
L 544.674573 43.584732 
L 546.432865 44.248459 
L 548.191157 43.584732 
L 549.949449 46.018453 
L 551.707741 43.805966 
L 553.466033 43.142239 
L 555.224325 43.363474 
L 556.982617 40.266001 
L 558.740909 43.363474 
L 560.499201 43.142239 
L 562.257493 41.150986 
L 564.015785 44.027225 
L 565.774077 43.805966 
L 567.532369 43.142239 
L 569.290661 42.920981 
L 571.048953 41.593479 
L 572.807245 42.035996 
L 574.565537 41.372245 
L 576.323829 39.823509 
L 578.082121 41.150986 
L 579.840413 43.584732 
L 581.598705 41.150986 
L 583.356997 40.266001 
L 585.115289 40.708494 
L 586.873581 41.814737 
L 588.631873 44.027225 
L 590.390165 41.593479 
L 592.148457 40.266001 
L 593.906749 39.823509 
L 595.665041 42.478488 
L 597.423333 42.478488 
L 599.181625 41.814737 
L 600.939917 43.142239 
L 602.698209 41.372245 
L 604.456501 42.25723 
L 606.214793 41.150986 
L 607.973085 43.363474 
L 609.731377 42.25723 
L 611.489669 43.363474 
L 613.247961 41.814737 
L 615.006253 42.920981 
L 616.764545 40.708494 
L 618.522837 41.814737 
L 620.281129 41.593479 
L 622.039421 40.266001 
L 623.797713 41.372245 
L 625.556006 41.150986 
L 627.314298 41.150986 
L 629.07259 41.372245 
L 630.830882 41.814737 
L 632.589174 40.044743 
L 634.347466 40.929752 
L 636.105758 42.25723 
L 637.86405 40.044743 
L 639.622342 41.814737 
L 641.380634 40.929752 
L 643.138926 44.690976 
L 644.897218 44.027225 
L 646.65551 41.593479 
L 648.413802 41.150986 
L 650.172094 42.035996 
L 651.930386 42.25723 
L 653.688678 43.805966 
L 655.44697 40.044743 
L 657.205262 41.372245 
L 658.963554 42.920981 
L 660.721846 41.814737 
L 662.480138 43.584732 
L 664.23843 43.584732 
L 665.996722 41.814737 
L 667.755014 40.708494 
L 669.513306 42.699722 
L 671.271598 42.699722 
L 673.02989 44.248459 
L 674.788182 42.478488 
L 674.788182 42.478488 
" clip-path="url(#p6d5488db21)" style="fill: none; stroke: #ff7f0e; stroke-width: 1.5; stroke-linecap: square"/>
   </g>
   <g id="patch_3">
    <path d="M 65.54 304 
L 65.54 16.2 
" style="fill: none; stroke: #000000; stroke-width: 0.8; stroke-linejoin: miter; stroke-linecap: square"/>
   </g>
   <g id="patch_4">
    <path d="M 703.8 304 
L 703.8 16.2 
" style="fill: none; stroke: #000000; stroke-width: 0.8; stroke-linejoin: miter; stroke-linecap: square"/>
   </g>
   <g id="patch_5">
    <path d="M 65.54 304 
L 703.8 304 
" style="fill: none; stroke: #000000; stroke-width: 0.8; stroke-linejoin: miter; stroke-linecap: square"/>
   </g>
   <g id="patch_6">
    <path d="M 65.54 16.2 
L 703.8 16.2 
" style="fill: none; stroke: #000000; stroke-width: 0.8; stroke-linejoin: miter; stroke-linecap: square"/>
   </g>
   <g id="legend_1">
    <g id="patch_7">
     <path d="M 497.976563 296.5 
L 693.3 296.5 
Q 696.3 296.5 696.3 293.5 
L 696.3 250.965625 
Q 696.3 247.965625 693.3 247.965625 
L 497.976563 247.965625 
Q 494.976563 247.965625 494.976563 250.965625 
L 494.976563 293.5 
Q 494.976563 296.5 497.976563 296.5 
z
" style="fill: #ffffff; opacity: 0.8; stroke: #cccccc; stroke-linejoin: miter"/>
    </g>
    <g id="line2d_17">
     <path d="M 500.976563 260.113281 
L 515.976563 260.113281 
L 530.976563 260.113281 
" style="fill: none; stroke: #1f77b4; stroke-width: 1.5; stroke-linecap: square"/>
    </g>
    <g id="text_17">
     <text style="font: 15px 'DejaVu Sans', 'Bitstream Vera Sans', 'Computer Modern Sans Serif', 'Lucida Grande', 'Verdana', 'Geneva', 'Lucid', 'Arial', 'Helvetica', 'Avant Garde', sans-serif; text-anchor: start" x="542.976563" y="265.363281" transform="rotate(-0 542.976563 265.363281)">Training Accuracy</text>
    </g>
    <g id="line2d_18">
     <path d="M 500.976563 282.130469 
L 515.976563 282.130469 
L 530.976563 282.130469 
" style="fill: none; stroke: #ff7f0e; stroke-width: 1.5; stroke-linecap: square"/>
    </g>
    <g id="text_18">
     <text style="font: 15px 'DejaVu Sans', 'Bitstream Vera Sans', 'Computer Modern Sans Serif', 'Lucida Grande', 'Verdana', 'Geneva', 'Lucid', 'Arial', 'Helvetica', 'Avant Garde', sans-serif; text-anchor: start" x="542.976563" y="287.380469" transform="rotate(-0 542.976563 287.380469)">Validation Accuracy</text>
    </g>
   </g>
  </g>
 </g>
 <defs>
  <clipPath id="p6d5488db21">
   <rect x="65.54" y="16.2" width="638.26" height="287.8"/>
  </clipPath>
 </defs>
</svg>
