<?xml version="1.0" encoding="utf-8" standalone="no"?>
<!DOCTYPE svg PUBLIC "-//W3C//DTD SVG 1.1//EN"
  "http://www.w3.org/Graphics/SVG/1.1/DTD/svg11.dtd">
<svg xmlns:xlink="http://www.w3.org/1999/xlink" width="720pt" height="360pt" viewBox="0 0 720 360" xmlns="http://www.w3.org/2000/svg" version="1.1">
 <metadata>
  <rdf:RDF xmlns:dc="http://purl.org/dc/elements/1.1/" xmlns:cc="http://creativecommons.org/ns#" xmlns:rdf="http://www.w3.org/1999/02/22-rdf-syntax-ns#">
   <cc:Work>
    <dc:type rdf:resource="http://purl.org/dc/dcmitype/StillImage"/>
    <dc:date>2023-07-19T13:46:41.145898</dc:date>
    <dc:format>image/svg+xml</dc:format>
    <dc:creator>
     <cc:Agent>
      <dc:title>Matplotlib v3.7.2, https://matplotlib.org/</dc:title>
     </cc:Agent>
    </dc:creator>
   </cc:Work>
  </rdf:RDF>
 </metadata>
 <defs>
  <style type="text/css">*{stroke-linejoin: round; stroke-linecap: butt}</style>
 </defs>
 <g id="figure_1">
  <g id="patch_1">
   <path d="M 0 360 
L 720 360 
L 720 0 
L 0 0 
z
" style="fill: #ffffff"/>
  </g>
  <g id="axes_1">
   <g id="patch_2">
    <path d="M 65.54 304 
L 703.8 304 
L 703.8 16.2 
L 65.54 16.2 
z
" style="fill: #ffffff"/>
   </g>
   <g id="matplotlib.axis_1">
    <g id="xtick_1">
     <g id="line2d_1">
      <defs>
       <path id="m08677356e7" d="M 0 0 
L 0 3.5 
" style="stroke: #000000; stroke-width: 0.8"/>
      </defs>
      <g>
       <use xlink:href="#m08677356e7" x="92.749842" y="304" style="stroke: #000000; stroke-width: 0.8"/>
      </g>
     </g>
     <g id="text_1">
      <text style="font: 15px 'DejaVu Sans', 'Bitstream Vera Sans', 'Computer Modern Sans Serif', 'Lucida Grande', 'Verdana', 'Geneva', 'Lucid', 'Arial', 'Helvetica', 'Avant Garde', sans-serif; text-anchor: middle" x="92.749842" y="322.397656" transform="rotate(-0 92.749842 322.397656)">0</text>
     </g>
    </g>
    <g id="xtick_2">
     <g id="line2d_2">
      <g>
       <use xlink:href="#m08677356e7" x="182.848656" y="304" style="stroke: #000000; stroke-width: 0.8"/>
      </g>
     </g>
     <g id="text_2">
      <text style="font: 15px 'DejaVu Sans', 'Bitstream Vera Sans', 'Computer Modern Sans Serif', 'Lucida Grande', 'Verdana', 'Geneva', 'Lucid', 'Arial', 'Helvetica', 'Avant Garde', sans-serif; text-anchor: middle" x="182.848656" y="322.397656" transform="rotate(-0 182.848656 322.397656)">50</text>
     </g>
    </g>
    <g id="xtick_3">
     <g id="line2d_3">
      <g>
       <use xlink:href="#m08677356e7" x="272.94747" y="304" style="stroke: #000000; stroke-width: 0.8"/>
      </g>
     </g>
     <g id="text_3">
      <text style="font: 15px 'DejaVu Sans', 'Bitstream Vera Sans', 'Computer Modern Sans Serif', 'Lucida Grande', 'Verdana', 'Geneva', 'Lucid', 'Arial', 'Helvetica', 'Avant Garde', sans-serif; text-anchor: middle" x="272.94747" y="322.397656" transform="rotate(-0 272.94747 322.397656)">100</text>
     </g>
    </g>
    <g id="xtick_4">
     <g id="line2d_4">
      <g>
       <use xlink:href="#m08677356e7" x="363.046285" y="304" style="stroke: #000000; stroke-width: 0.8"/>
      </g>
     </g>
     <g id="text_4">
      <text style="font: 15px 'DejaVu Sans', 'Bitstream Vera Sans', 'Computer Modern Sans Serif', 'Lucida Grande', 'Verdana', 'Geneva', 'Lucid', 'Arial', 'Helvetica', 'Avant Garde', sans-serif; text-anchor: middle" x="363.046285" y="322.397656" transform="rotate(-0 363.046285 322.397656)">150</text>
     </g>
    </g>
    <g id="xtick_5">
     <g id="line2d_5">
      <g>
       <use xlink:href="#m08677356e7" x="453.145099" y="304" style="stroke: #000000; stroke-width: 0.8"/>
      </g>
     </g>
     <g id="text_5">
      <text style="font: 15px 'DejaVu Sans', 'Bitstream Vera Sans', 'Computer Modern Sans Serif', 'Lucida Grande', 'Verdana', 'Geneva', 'Lucid', 'Arial', 'Helvetica', 'Avant Garde', sans-serif; text-anchor: middle" x="453.145099" y="322.397656" transform="rotate(-0 453.145099 322.397656)">200</text>
     </g>
    </g>
    <g id="xtick_6">
     <g id="line2d_6">
      <g>
       <use xlink:href="#m08677356e7" x="543.243913" y="304" style="stroke: #000000; stroke-width: 0.8"/>
      </g>
     </g>
     <g id="text_6">
      <text style="font: 15px 'DejaVu Sans', 'Bitstream Vera Sans', 'Computer Modern Sans Serif', 'Lucida Grande', 'Verdana', 'Geneva', 'Lucid', 'Arial', 'Helvetica', 'Avant Garde', sans-serif; text-anchor: middle" x="543.243913" y="322.397656" transform="rotate(-0 543.243913 322.397656)">250</text>
     </g>
    </g>
    <g id="xtick_7">
     <g id="line2d_7">
      <g>
       <use xlink:href="#m08677356e7" x="633.342727" y="304" style="stroke: #000000; stroke-width: 0.8"/>
      </g>
     </g>
     <g id="text_7">
      <text style="font: 15px 'DejaVu Sans', 'Bitstream Vera Sans', 'Computer Modern Sans Serif', 'Lucida Grande', 'Verdana', 'Geneva', 'Lucid', 'Arial', 'Helvetica', 'Avant Garde', sans-serif; text-anchor: middle" x="633.342727" y="322.397656" transform="rotate(-0 633.342727 322.397656)">300</text>
     </g>
    </g>
    <g id="text_8">
     <text style="font: 15px 'DejaVu Sans', 'Bitstream Vera Sans', 'Computer Modern Sans Serif', 'Lucida Grande', 'Verdana', 'Geneva', 'Lucid', 'Arial', 'Helvetica', 'Avant Garde', sans-serif; text-anchor: middle" x="384.67" y="340.914844" transform="rotate(-0 384.67 340.914844)">Epochs</text>
    </g>
   </g>
   <g id="matplotlib.axis_2">
    <g id="ytick_1">
     <g id="line2d_8">
      <defs>
       <path id="m1a91c02879" d="M 0 0 
L -3.5 0 
" style="stroke: #000000; stroke-width: 0.8"/>
      </defs>
      <g>
       <use xlink:href="#m1a91c02879" x="65.54" y="267.526516" style="stroke: #000000; stroke-width: 0.8"/>
      </g>
     </g>
     <g id="text_9">
      <text style="font: 15px 'DejaVu Sans', 'Bitstream Vera Sans', 'Computer Modern Sans Serif', 'Lucida Grande', 'Verdana', 'Geneva', 'Lucid', 'Arial', 'Helvetica', 'Avant Garde', sans-serif; text-anchor: end" x="58.54" y="273.225344" transform="rotate(-0 58.54 273.225344)">0.2</text>
     </g>
    </g>
    <g id="ytick_2">
     <g id="line2d_9">
      <g>
       <use xlink:href="#m1a91c02879" x="65.54" y="224.329648" style="stroke: #000000; stroke-width: 0.8"/>
      </g>
     </g>
     <g id="text_10">
      <text style="font: 15px 'DejaVu Sans', 'Bitstream Vera Sans', 'Computer Modern Sans Serif', 'Lucida Grande', 'Verdana', 'Geneva', 'Lucid', 'Arial', 'Helvetica', 'Avant Garde', sans-serif; text-anchor: end" x="58.54" y="230.028477" transform="rotate(-0 58.54 230.028477)">0.4</text>
     </g>
    </g>
    <g id="ytick_3">
     <g id="line2d_10">
      <g>
       <use xlink:href="#m1a91c02879" x="65.54" y="181.132781" style="stroke: #000000; stroke-width: 0.8"/>
      </g>
     </g>
     <g id="text_11">
      <text style="font: 15px 'DejaVu Sans', 'Bitstream Vera Sans', 'Computer Modern Sans Serif', 'Lucida Grande', 'Verdana', 'Geneva', 'Lucid', 'Arial', 'Helvetica', 'Avant Garde', sans-serif; text-anchor: end" x="58.54" y="186.831609" transform="rotate(-0 58.54 186.831609)">0.6</text>
     </g>
    </g>
    <g id="ytick_4">
     <g id="line2d_11">
      <g>
       <use xlink:href="#m1a91c02879" x="65.54" y="137.935914" style="stroke: #000000; stroke-width: 0.8"/>
      </g>
     </g>
     <g id="text_12">
      <text style="font: 15px 'DejaVu Sans', 'Bitstream Vera Sans', 'Computer Modern Sans Serif', 'Lucida Grande', 'Verdana', 'Geneva', 'Lucid', 'Arial', 'Helvetica', 'Avant Garde', sans-serif; text-anchor: end" x="58.54" y="143.634742" transform="rotate(-0 58.54 143.634742)">0.8</text>
     </g>
    </g>
    <g id="ytick_5">
     <g id="line2d_12">
      <g>
       <use xlink:href="#m1a91c02879" x="65.54" y="94.739047" style="stroke: #000000; stroke-width: 0.8"/>
      </g>
     </g>
     <g id="text_13">
      <text style="font: 15px 'DejaVu Sans', 'Bitstream Vera Sans', 'Computer Modern Sans Serif', 'Lucida Grande', 'Verdana', 'Geneva', 'Lucid', 'Arial', 'Helvetica', 'Avant Garde', sans-serif; text-anchor: end" x="58.54" y="100.437875" transform="rotate(-0 58.54 100.437875)">1.0</text>
     </g>
    </g>
    <g id="ytick_6">
     <g id="line2d_13">
      <g>
       <use xlink:href="#m1a91c02879" x="65.54" y="51.54218" style="stroke: #000000; stroke-width: 0.8"/>
      </g>
     </g>
     <g id="text_14">
      <text style="font: 15px 'DejaVu Sans', 'Bitstream Vera Sans', 'Computer Modern Sans Serif', 'Lucida Grande', 'Verdana', 'Geneva', 'Lucid', 'Arial', 'Helvetica', 'Avant Garde', sans-serif; text-anchor: end" x="58.54" y="57.241008" transform="rotate(-0 58.54 57.241008)">1.2</text>
     </g>
    </g>
    <g id="text_15">
     <text style="font: 15px 'DejaVu Sans', 'Bitstream Vera Sans', 'Computer Modern Sans Serif', 'Lucida Grande', 'Verdana', 'Geneva', 'Lucid', 'Arial', 'Helvetica', 'Avant Garde', sans-serif; text-anchor: middle" x="27.565781" y="160.1" transform="rotate(-90 27.565781 160.1)">Loss</text>
    </g>
   </g>
   <g id="line2d_14">
    <path d="M 94.551818 29.281818 
L 96.353794 63.658172 
L 98.155771 93.829007 
L 99.957747 119.192878 
L 101.759723 137.094077 
L 103.5617 147.142079 
L 105.363676 159.758275 
L 107.165652 164.393749 
L 108.967628 172.480615 
L 110.769605 182.58884 
L 112.571581 187.799895 
L 114.373557 187.80489 
L 116.175534 194.608547 
L 117.97751 197.847653 
L 119.779486 199.723102 
L 121.581462 203.192646 
L 123.383439 207.786402 
L 125.185415 208.204256 
L 126.987391 211.009712 
L 128.789368 212.134973 
L 130.591344 215.424956 
L 132.39332 217.99799 
L 134.195296 217.758804 
L 135.997273 219.855976 
L 137.799249 223.160789 
L 139.601225 223.005442 
L 141.403202 222.63132 
L 143.205178 228.006869 
L 145.007154 228.05875 
L 146.80913 228.275253 
L 148.611107 231.4583 
L 150.413083 233.097987 
L 154.017036 234.157612 
L 155.819012 234.868316 
L 157.620988 237.655923 
L 159.422964 237.18875 
L 161.224941 238.304608 
L 163.026917 236.082606 
L 164.828893 238.485695 
L 166.63087 241.128157 
L 168.432846 242.559471 
L 170.234822 244.573673 
L 172.036798 243.073974 
L 173.838775 246.854926 
L 175.640751 243.376261 
L 177.442727 244.911021 
L 179.244704 248.365387 
L 181.04668 247.735279 
L 182.848656 250.411026 
L 184.650632 248.897578 
L 186.452609 250.038398 
L 190.056561 250.730473 
L 191.858538 250.835902 
L 193.660514 249.037412 
L 195.46249 253.271497 
L 197.264466 252.23023 
L 199.066443 253.381033 
L 202.670395 254.205276 
L 204.472372 254.907046 
L 206.274348 255.271564 
L 208.076324 256.087323 
L 209.8783 254.230753 
L 211.680277 255.181293 
L 213.482253 253.92873 
L 215.284229 258.869539 
L 217.086206 257.268418 
L 218.888182 258.168815 
L 220.690158 255.795972 
L 222.492134 260.19085 
L 224.294111 258.167463 
L 226.096087 261.945815 
L 227.898063 259.745392 
L 229.70004 259.604841 
L 231.502016 258.542309 
L 233.303992 259.665189 
L 235.105968 262.819032 
L 236.907945 260.62785 
L 238.709921 263.028291 
L 240.511897 263.27896 
L 242.313874 261.046132 
L 245.917826 261.535566 
L 247.719802 264.217496 
L 249.521779 266.310265 
L 251.323755 263.996152 
L 253.125731 263.250146 
L 254.927708 266.581021 
L 256.729684 264.970818 
L 258.53166 265.947872 
L 260.333636 263.417597 
L 262.135613 264.210885 
L 263.937589 266.083827 
L 267.541542 267.913655 
L 269.343518 266.555003 
L 271.145494 263.415762 
L 272.94747 266.944545 
L 274.749447 268.357842 
L 276.551423 263.743777 
L 278.353399 268.960561 
L 280.155375 267.058885 
L 281.957352 271.548848 
L 283.759328 268.527922 
L 285.561304 268.48839 
L 287.363281 269.014225 
L 289.165257 270.377547 
L 292.769209 267.571734 
L 294.571186 268.038227 
L 296.373162 271.368066 
L 298.175138 271.721748 
L 299.977115 270.022076 
L 301.779091 271.50838 
L 303.581067 267.348627 
L 305.383043 270.867252 
L 307.18502 271.415998 
L 308.986996 269.953903 
L 310.788972 271.296724 
L 312.590949 270.552297 
L 314.392925 271.11571 
L 316.194901 270.987344 
L 317.996877 272.24074 
L 319.798854 269.007392 
L 321.60083 270.324749 
L 323.402806 269.898324 
L 325.204783 271.562455 
L 327.006759 273.530637 
L 328.808735 273.368892 
L 332.412688 268.776503 
L 334.214664 274.110415 
L 336.01664 273.73732 
L 337.818617 274.858929 
L 339.620593 275.352399 
L 341.422569 274.835242 
L 343.224545 275.316424 
L 345.026522 267.18702 
L 346.828498 273.703475 
L 348.630474 275.240514 
L 350.432451 274.63886 
L 352.234427 273.853467 
L 354.036403 277.273264 
L 355.838379 274.941321 
L 357.640356 274.729642 
L 359.442332 277.021989 
L 361.244308 273.95206 
L 363.046285 275.274581 
L 364.848261 278.367413 
L 366.650237 276.319328 
L 368.452213 276.911616 
L 370.25419 276.579244 
L 372.056166 277.265996 
L 373.858142 275.913801 
L 375.660119 278.158274 
L 377.462095 273.138672 
L 379.264071 276.776565 
L 381.066047 277.352182 
L 382.868024 275.260871 
L 384.67 277.53932 
L 386.471976 277.096849 
L 388.273953 278.571509 
L 390.075929 274.62878 
L 391.877905 277.595678 
L 393.679881 276.043249 
L 395.481858 273.39144 
L 397.283834 276.052299 
L 399.08581 275.945872 
L 400.887787 275.469119 
L 402.689763 278.95348 
L 404.491739 275.357459 
L 406.293715 278.375687 
L 408.095692 279.710404 
L 409.897668 279.345078 
L 411.699644 279.48113 
L 413.501621 279.788589 
L 415.303597 276.128331 
L 418.907549 280.910796 
L 420.709526 278.529763 
L 422.511502 281.504884 
L 424.313478 279.452448 
L 426.115455 279.359841 
L 427.917431 276.600212 
L 429.719407 280.790791 
L 431.521383 276.490738 
L 433.32336 278.441749 
L 435.125336 279.386821 
L 436.927312 278.704777 
L 438.729289 280.473391 
L 440.531265 278.053237 
L 442.333241 281.721937 
L 444.135217 281.610528 
L 445.937194 277.329441 
L 447.73917 280.274196 
L 449.541146 281.269611 
L 451.343123 281.888394 
L 453.145099 281.346277 
L 454.947075 279.386177 
L 456.749051 276.781325 
L 458.551028 278.332419 
L 460.353004 282.770629 
L 462.15498 281.660079 
L 463.956957 279.140152 
L 465.758933 281.973054 
L 467.560909 282.716097 
L 469.362885 281.121693 
L 471.164862 283.434187 
L 472.966838 283.200307 
L 474.768814 283.327976 
L 476.570791 281.03514 
L 478.372767 281.227125 
L 480.174743 282.642227 
L 481.976719 282.457841 
L 483.778696 283.070441 
L 485.580672 284.110468 
L 487.382648 281.19084 
L 489.184625 280.714254 
L 490.986601 281.478467 
L 492.788577 281.693493 
L 494.590553 282.804815 
L 496.39253 281.513191 
L 498.194506 281.842441 
L 499.996482 283.093417 
L 501.798458 280.712419 
L 503.600435 283.223409 
L 505.402411 282.100783 
L 507.204387 279.305144 
L 510.80834 284.511677 
L 512.610316 281.94823 
L 516.214269 284.630078 
L 518.016245 284.393621 
L 519.818221 283.598725 
L 521.620198 284.304577 
L 523.422174 284.647992 
L 525.22415 282.144673 
L 527.026126 283.363867 
L 528.828103 277.511433 
L 530.630079 282.93474 
L 532.432055 282.384918 
L 534.234032 285.611478 
L 536.036008 286.324781 
L 537.837984 286.783941 
L 539.63996 283.352603 
L 541.441937 285.377887 
L 543.243913 284.565082 
L 545.045889 286.277005 
L 546.847866 284.62022 
L 548.649842 285.29454 
L 550.451818 286.659155 
L 552.253794 286.16975 
L 554.055771 284.626773 
L 555.857747 287.468314 
L 557.659723 284.705993 
L 559.4617 285.588854 
L 563.065652 285.803742 
L 564.867628 278.195128 
L 566.669605 282.185145 
L 568.471581 285.445464 
L 570.273557 284.704531 
L 572.075534 288.175784 
L 573.87751 285.105097 
L 575.679486 280.677763 
L 577.481462 284.674354 
L 579.283439 286.174527 
L 581.085415 286.667436 
L 582.887391 283.912217 
L 584.689368 285.761886 
L 586.491344 283.006134 
L 588.29332 285.811916 
L 590.095296 281.654292 
L 591.897273 280.967212 
L 593.699249 286.226909 
L 595.501225 285.416119 
L 597.303202 286.573431 
L 599.105178 286.083359 
L 600.907154 281.462764 
L 602.70913 283.14673 
L 604.511107 285.535693 
L 606.313083 286.911785 
L 608.115059 285.949974 
L 609.917036 280.151079 
L 611.719012 285.321142 
L 613.520988 286.680033 
L 615.322964 287.235471 
L 617.124941 287.90971 
L 618.926917 285.652542 
L 620.728893 286.463174 
L 622.53087 286.334399 
L 624.332846 284.682649 
L 626.134822 286.409023 
L 627.936798 288.45728 
L 629.738775 288.376553 
L 631.540751 284.868558 
L 633.342727 289.425721 
L 635.144704 285.511698 
L 636.94668 286.587479 
L 638.748656 287.181401 
L 640.550632 287.543876 
L 642.352609 286.247196 
L 644.154585 286.428799 
L 645.956561 287.374688 
L 647.758538 287.23245 
L 649.560514 288.67205 
L 651.36249 289.782171 
L 653.164466 287.442676 
L 654.966443 289.412003 
L 656.768419 288.433887 
L 658.570395 286.647086 
L 660.372372 286.196129 
L 662.174348 288.003488 
L 663.976324 288.046917 
L 665.7783 288.307675 
L 667.580277 290.918182 
L 669.382253 286.333047 
L 671.184229 289.828947 
L 672.986206 287.675984 
L 674.788182 282.418921 
L 674.788182 282.418921 
" clip-path="url(#pe5b3358a21)" style="fill: none; stroke: #1f77b4; stroke-width: 1.5; stroke-linecap: square"/>
   </g>
   <g id="line2d_15">
    <path d="M 94.551818 53.609295 
L 96.353794 92.497329 
L 98.155771 124.145572 
L 99.957747 149.559187 
L 101.759723 164.24377 
L 103.5617 171.661051 
L 105.363676 182.478242 
L 107.165652 188.100676 
L 108.967628 195.249115 
L 110.769605 201.108128 
L 112.571581 204.277555 
L 114.373557 210.368828 
L 116.175534 214.333223 
L 117.97751 217.378239 
L 119.779486 216.62865 
L 121.581462 222.242233 
L 123.383439 224.308547 
L 125.185415 225.608974 
L 126.987391 226.560963 
L 128.789368 229.468475 
L 130.591344 233.167788 
L 132.39332 231.72286 
L 134.195296 235.225451 
L 135.997273 236.406958 
L 137.799249 238.275384 
L 139.601225 238.645457 
L 141.403202 239.14316 
L 143.205178 240.900075 
L 145.007154 241.338404 
L 146.80913 243.31876 
L 148.611107 242.433683 
L 150.413083 243.115588 
L 152.215059 246.002895 
L 154.017036 243.671544 
L 155.819012 244.805618 
L 157.620988 246.671965 
L 159.422964 247.057596 
L 161.224941 249.303639 
L 163.026917 247.845812 
L 164.828893 247.241104 
L 166.63087 247.987828 
L 168.432846 249.423622 
L 170.234822 250.069578 
L 172.036798 249.282378 
L 173.838775 252.284737 
L 175.640751 249.880232 
L 177.442727 253.718033 
L 181.04668 253.309146 
L 182.848656 252.917768 
L 184.650632 253.844858 
L 186.452609 254.353632 
L 188.254585 253.590636 
L 190.056561 255.805666 
L 191.858538 253.46262 
L 193.660514 255.200205 
L 195.46249 255.352932 
L 197.264466 256.729935 
L 199.066443 256.42312 
L 200.868419 256.9192 
L 202.670395 255.29023 
L 204.472372 257.627883 
L 206.274348 255.524261 
L 208.076324 257.639492 
L 209.8783 256.436721 
L 211.680277 255.663136 
L 213.482253 256.688658 
L 215.284229 256.316809 
L 217.086206 255.509662 
L 218.888182 255.823368 
L 220.690158 258.166775 
L 222.492134 257.690964 
L 224.294111 256.488911 
L 226.096087 257.052282 
L 227.898063 255.323007 
L 229.70004 256.455317 
L 231.502016 258.177447 
L 233.303992 256.047061 
L 235.105968 257.054242 
L 236.907945 258.638167 
L 238.709921 259.859672 
L 240.511897 259.217147 
L 242.313874 255.950482 
L 244.11585 257.792267 
L 245.917826 258.196416 
L 247.719802 259.815724 
L 249.521779 258.41494 
L 251.323755 256.27869 
L 253.125731 257.200551 
L 254.927708 253.416951 
L 256.729684 258.026497 
L 258.53166 256.097918 
L 260.333636 255.9528 
L 262.135613 258.396747 
L 263.937589 257.478024 
L 265.739565 256.914778 
L 267.541542 258.507727 
L 269.343518 257.485365 
L 271.145494 257.941408 
L 272.94747 258.063029 
L 274.749447 259.521091 
L 278.353399 258.692957 
L 280.155375 259.62578 
L 281.957352 257.195163 
L 283.759328 256.763026 
L 285.561304 256.062638 
L 287.363281 257.067112 
L 289.165257 257.268788 
L 290.967233 259.981956 
L 292.769209 258.678181 
L 294.571186 259.562277 
L 296.373162 259.714331 
L 298.175138 260.657479 
L 299.977115 259.809007 
L 301.779091 259.991456 
L 303.581067 258.378006 
L 305.383043 259.947213 
L 307.18502 260.164009 
L 308.986996 260.881967 
L 310.788972 257.733331 
L 312.590949 259.690476 
L 314.392925 261.2059 
L 316.194901 258.551173 
L 317.996877 258.433585 
L 319.798854 259.278796 
L 321.60083 257.067518 
L 323.402806 255.50188 
L 325.204783 256.476339 
L 327.006759 258.407715 
L 328.808735 259.542819 
L 330.610711 259.942115 
L 332.412688 256.372784 
L 334.214664 257.919375 
L 336.01664 258.710349 
L 337.818617 255.912003 
L 339.620593 256.514748 
L 341.422569 256.938659 
L 343.224545 254.902128 
L 345.026522 257.577444 
L 346.828498 256.03989 
L 348.630474 256.042226 
L 350.432451 258.832849 
L 352.234427 259.716455 
L 354.036403 256.616025 
L 355.838379 260.549231 
L 357.640356 259.584217 
L 359.442332 257.920923 
L 361.244308 258.832166 
L 363.046285 257.603265 
L 364.848261 255.939089 
L 366.650237 257.502561 
L 368.452213 257.742114 
L 370.25419 259.001571 
L 372.056166 257.667131 
L 373.858142 257.039254 
L 375.660119 255.193684 
L 377.462095 259.441538 
L 379.264071 256.691516 
L 381.066047 255.559451 
L 382.868024 257.738744 
L 384.67 255.835643 
L 386.471976 256.096116 
L 388.273953 255.441696 
L 390.075929 257.147692 
L 391.877905 256.844858 
L 393.679881 257.986579 
L 395.481858 258.451453 
L 397.283834 258.462946 
L 399.08581 260.118848 
L 400.887787 260.555465 
L 402.689763 260.112096 
L 404.491739 260.008833 
L 406.293715 256.87765 
L 408.095692 258.521892 
L 409.897668 256.557495 
L 411.699644 258.620539 
L 413.501621 259.042129 
L 415.303597 256.125455 
L 417.105573 257.440741 
L 418.907549 255.878538 
L 420.709526 257.059018 
L 422.511502 258.912411 
L 424.313478 258.625985 
L 426.115455 259.084133 
L 427.917431 256.746847 
L 429.719407 255.409312 
L 431.521383 257.233125 
L 433.32336 257.332886 
L 435.125336 259.252714 
L 436.927312 259.200546 
L 438.729289 257.952866 
L 440.531265 258.291939 
L 442.333241 257.550245 
L 444.135217 257.481789 
L 445.937194 259.050159 
L 447.73917 256.517767 
L 449.541146 256.19355 
L 451.343123 256.096592 
L 453.145099 256.223925 
L 454.947075 254.960504 
L 456.749051 255.665485 
L 458.551028 255.932215 
L 460.353004 254.895363 
L 462.15498 255.528477 
L 463.956957 255.951847 
L 465.758933 256.094255 
L 467.560909 254.955116 
L 469.362885 257.947382 
L 472.966838 251.938873 
L 474.768814 255.069859 
L 476.570791 252.55556 
L 480.174743 255.000135 
L 481.976719 253.222732 
L 483.778696 252.800147 
L 489.184625 255.39387 
L 490.986601 253.646559 
L 492.788577 256.876038 
L 494.590553 253.498344 
L 496.39253 256.7423 
L 498.194506 257.204117 
L 499.996482 254.891475 
L 501.798458 257.47886 
L 503.600435 256.300807 
L 505.402411 254.246819 
L 507.204387 254.947334 
L 509.006364 251.793806 
L 510.80834 254.560371 
L 512.610316 254.100085 
L 514.412292 251.99179 
L 516.214269 254.494547 
L 518.016245 251.832028 
L 519.818221 252.49096 
L 521.620198 254.843855 
L 523.422174 252.188532 
L 525.22415 255.854786 
L 527.026126 256.361326 
L 528.828103 249.027242 
L 530.630079 252.505121 
L 532.432055 254.879715 
L 534.234032 252.16646 
L 536.036008 249.229004 
L 537.837984 253.693329 
L 539.63996 252.634386 
L 541.441937 253.942969 
L 543.243913 252.720858 
L 545.045889 250.993308 
L 546.847866 251.807278 
L 548.649842 252.201998 
L 550.451818 251.858374 
L 552.253794 250.88385 
L 555.857747 251.225878 
L 557.659723 252.542815 
L 559.4617 251.875116 
L 561.263676 253.061386 
L 563.065652 249.19877 
L 564.867628 250.661271 
L 566.669605 253.312642 
L 568.471581 250.631977 
L 570.273557 254.933675 
L 572.075534 255.225315 
L 577.481462 249.629974 
L 579.283439 252.387533 
L 581.085415 253.59388 
L 582.887391 251.096896 
L 584.689368 249.395519 
L 586.491344 254.071808 
L 588.29332 250.683143 
L 590.095296 253.310859 
L 591.897273 252.957766 
L 593.699249 252.438809 
L 595.501225 251.004978 
L 597.303202 253.088556 
L 599.105178 248.503483 
L 600.907154 252.661395 
L 602.70913 253.788446 
L 604.511107 251.059061 
L 608.115059 253.560646 
L 609.917036 253.018176 
L 611.719012 255.618631 
L 613.520988 256.467733 
L 615.322964 253.260774 
L 618.926917 251.101061 
L 620.728893 251.469988 
L 622.53087 249.407182 
L 624.332846 254.346925 
L 626.134822 253.409143 
L 627.936798 251.569914 
L 629.738775 249.220398 
L 631.540751 249.871078 
L 633.342727 253.220395 
L 635.144704 248.877444 
L 636.94668 251.740084 
L 638.748656 251.375154 
L 640.550632 251.490856 
L 642.352609 251.196777 
L 644.154585 250.607761 
L 645.956561 251.186832 
L 647.758538 255.488498 
L 649.560514 252.694873 
L 651.36249 249.569989 
L 653.164466 249.673886 
L 654.966443 254.49223 
L 656.768419 251.4482 
L 658.570395 253.347182 
L 660.372372 252.159129 
L 662.174348 251.128591 
L 663.976324 254.671432 
L 665.7783 252.671726 
L 667.580277 249.44131 
L 669.382253 251.459116 
L 671.184229 254.090881 
L 672.986206 251.512349 
L 674.788182 255.072092 
L 674.788182 255.072092 
" clip-path="url(#pe5b3358a21)" style="fill: none; stroke: #ff7f0e; stroke-width: 1.5; stroke-linecap: square"/>
   </g>
   <g id="patch_3">
    <path d="M 65.54 304 
L 65.54 16.2 
" style="fill: none; stroke: #000000; stroke-width: 0.8; stroke-linejoin: miter; stroke-linecap: square"/>
   </g>
   <g id="patch_4">
    <path d="M 703.8 304 
L 703.8 16.2 
" style="fill: none; stroke: #000000; stroke-width: 0.8; stroke-linejoin: miter; stroke-linecap: square"/>
   </g>
   <g id="patch_5">
    <path d="M 65.54 304 
L 703.8 304 
" style="fill: none; stroke: #000000; stroke-width: 0.8; stroke-linejoin: miter; stroke-linecap: square"/>
   </g>
   <g id="patch_6">
    <path d="M 65.54 16.2 
L 703.8 16.2 
" style="fill: none; stroke: #000000; stroke-width: 0.8; stroke-linejoin: miter; stroke-linecap: square"/>
   </g>
   <g id="legend_1">
    <g id="patch_7">
     <path d="M 533.559375 72.234375 
L 693.3 72.234375 
Q 696.3 72.234375 696.3 69.234375 
L 696.3 26.7 
Q 696.3 23.7 693.3 23.7 
L 533.559375 23.7 
Q 530.559375 23.7 530.559375 26.7 
L 530.559375 69.234375 
Q 530.559375 72.234375 533.559375 72.234375 
z
" style="fill: #ffffff; opacity: 0.8; stroke: #cccccc; stroke-linejoin: miter"/>
    </g>
    <g id="line2d_16">
     <path d="M 536.559375 35.847656 
L 551.559375 35.847656 
L 566.559375 35.847656 
" style="fill: none; stroke: #1f77b4; stroke-width: 1.5; stroke-linecap: square"/>
    </g>
    <g id="text_16">
     <text style="font: 15px 'DejaVu Sans', 'Bitstream Vera Sans', 'Computer Modern Sans Serif', 'Lucida Grande', 'Verdana', 'Geneva', 'Lucid', 'Arial', 'Helvetica', 'Avant Garde', sans-serif; text-anchor: start" x="578.559375" y="41.097656" transform="rotate(-0 578.559375 41.097656)">Training Loss</text>
    </g>
    <g id="line2d_17">
     <path d="M 536.559375 57.864844 
L 551.559375 57.864844 
L 566.559375 57.864844 
" style="fill: none; stroke: #ff7f0e; stroke-width: 1.5; stroke-linecap: square"/>
    </g>
    <g id="text_17">
     <text style="font: 15px 'DejaVu Sans', 'Bitstream Vera Sans', 'Computer Modern Sans Serif', 'Lucida Grande', 'Verdana', 'Geneva', 'Lucid', 'Arial', 'Helvetica', 'Avant Garde', sans-serif; text-anchor: start" x="578.559375" y="63.114844" transform="rotate(-0 578.559375 63.114844)">Validation Loss</text>
    </g>
   </g>
  </g>
 </g>
 <defs>
  <clipPath id="pe5b3358a21">
   <rect x="65.54" y="16.2" width="638.26" height="287.8"/>
  </clipPath>
 </defs>
</svg>
