<?xml version="1.0" encoding="utf-8" standalone="no"?>
<!DOCTYPE svg PUBLIC "-//W3C//DTD SVG 1.1//EN"
  "http://www.w3.org/Graphics/SVG/1.1/DTD/svg11.dtd">
<svg xmlns:xlink="http://www.w3.org/1999/xlink" width="720pt" height="360pt" viewBox="0 0 720 360" xmlns="http://www.w3.org/2000/svg" version="1.1">
 <metadata>
  <rdf:RDF xmlns:dc="http://purl.org/dc/elements/1.1/" xmlns:cc="http://creativecommons.org/ns#" xmlns:rdf="http://www.w3.org/1999/02/22-rdf-syntax-ns#">
   <cc:Work>
    <dc:type rdf:resource="http://purl.org/dc/dcmitype/StillImage"/>
    <dc:date>2023-07-19T13:46:40.995141</dc:date>
    <dc:format>image/svg+xml</dc:format>
    <dc:creator>
     <cc:Agent>
      <dc:title>Matplotlib v3.7.2, https://matplotlib.org/</dc:title>
     </cc:Agent>
    </dc:creator>
   </cc:Work>
  </rdf:RDF>
 </metadata>
 <defs>
  <style type="text/css">*{stroke-linejoin: round; stroke-linecap: butt}</style>
 </defs>
 <g id="figure_1">
  <g id="patch_1">
   <path d="M 0 360 
L 720 360 
L 720 0 
L 0 0 
z
" style="fill: #ffffff"/>
  </g>
  <g id="axes_1">
   <g id="patch_2">
    <path d="M 65.54 304 
L 703.8 304 
L 703.8 16.2 
L 65.54 16.2 
z
" style="fill: #ffffff"/>
   </g>
   <g id="matplotlib.axis_1">
    <g id="xtick_1">
     <g id="line2d_1">
      <defs>
       <path id="m9ab9f7b791" d="M 0 0 
L 0 3.5 
" style="stroke: #000000; stroke-width: 0.8"/>
      </defs>
      <g>
       <use xlink:href="#m9ab9f7b791" x="92.749842" y="304" style="stroke: #000000; stroke-width: 0.8"/>
      </g>
     </g>
     <g id="text_1">
      <text style="font: 15px 'DejaVu Sans', 'Bitstream Vera Sans', 'Computer Modern Sans Serif', 'Lucida Grande', 'Verdana', 'Geneva', 'Lucid', 'Arial', 'Helvetica', 'Avant Garde', sans-serif; text-anchor: middle" x="92.749842" y="322.397656" transform="rotate(-0 92.749842 322.397656)">0</text>
     </g>
    </g>
    <g id="xtick_2">
     <g id="line2d_2">
      <g>
       <use xlink:href="#m9ab9f7b791" x="182.848656" y="304" style="stroke: #000000; stroke-width: 0.8"/>
      </g>
     </g>
     <g id="text_2">
      <text style="font: 15px 'DejaVu Sans', 'Bitstream Vera Sans', 'Computer Modern Sans Serif', 'Lucida Grande', 'Verdana', 'Geneva', 'Lucid', 'Arial', 'Helvetica', 'Avant Garde', sans-serif; text-anchor: middle" x="182.848656" y="322.397656" transform="rotate(-0 182.848656 322.397656)">50</text>
     </g>
    </g>
    <g id="xtick_3">
     <g id="line2d_3">
      <g>
       <use xlink:href="#m9ab9f7b791" x="272.94747" y="304" style="stroke: #000000; stroke-width: 0.8"/>
      </g>
     </g>
     <g id="text_3">
      <text style="font: 15px 'DejaVu Sans', 'Bitstream Vera Sans', 'Computer Modern Sans Serif', 'Lucida Grande', 'Verdana', 'Geneva', 'Lucid', 'Arial', 'Helvetica', 'Avant Garde', sans-serif; text-anchor: middle" x="272.94747" y="322.397656" transform="rotate(-0 272.94747 322.397656)">100</text>
     </g>
    </g>
    <g id="xtick_4">
     <g id="line2d_4">
      <g>
       <use xlink:href="#m9ab9f7b791" x="363.046285" y="304" style="stroke: #000000; stroke-width: 0.8"/>
      </g>
     </g>
     <g id="text_4">
      <text style="font: 15px 'DejaVu Sans', 'Bitstream Vera Sans', 'Computer Modern Sans Serif', 'Lucida Grande', 'Verdana', 'Geneva', 'Lucid', 'Arial', 'Helvetica', 'Avant Garde', sans-serif; text-anchor: middle" x="363.046285" y="322.397656" transform="rotate(-0 363.046285 322.397656)">150</text>
     </g>
    </g>
    <g id="xtick_5">
     <g id="line2d_5">
      <g>
       <use xlink:href="#m9ab9f7b791" x="453.145099" y="304" style="stroke: #000000; stroke-width: 0.8"/>
      </g>
     </g>
     <g id="text_5">
      <text style="font: 15px 'DejaVu Sans', 'Bitstream Vera Sans', 'Computer Modern Sans Serif', 'Lucida Grande', 'Verdana', 'Geneva', 'Lucid', 'Arial', 'Helvetica', 'Avant Garde', sans-serif; text-anchor: middle" x="453.145099" y="322.397656" transform="rotate(-0 453.145099 322.397656)">200</text>
     </g>
    </g>
    <g id="xtick_6">
     <g id="line2d_6">
      <g>
       <use xlink:href="#m9ab9f7b791" x="543.243913" y="304" style="stroke: #000000; stroke-width: 0.8"/>
      </g>
     </g>
     <g id="text_6">
      <text style="font: 15px 'DejaVu Sans', 'Bitstream Vera Sans', 'Computer Modern Sans Serif', 'Lucida Grande', 'Verdana', 'Geneva', 'Lucid', 'Arial', 'Helvetica', 'Avant Garde', sans-serif; text-anchor: middle" x="543.243913" y="322.397656" transform="rotate(-0 543.243913 322.397656)">250</text>
     </g>
    </g>
    <g id="xtick_7">
     <g id="line2d_7">
      <g>
       <use xlink:href="#m9ab9f7b791" x="633.342727" y="304" style="stroke: #000000; stroke-width: 0.8"/>
      </g>
     </g>
     <g id="text_7">
      <text style="font: 15px 'DejaVu Sans', 'Bitstream Vera Sans', 'Computer Modern Sans Serif', 'Lucida Grande', 'Verdana', 'Geneva', 'Lucid', 'Arial', 'Helvetica', 'Avant Garde', sans-serif; text-anchor: middle" x="633.342727" y="322.397656" transform="rotate(-0 633.342727 322.397656)">300</text>
     </g>
    </g>
    <g id="text_8">
     <text style="font: 15px 'DejaVu Sans', 'Bitstream Vera Sans', 'Computer Modern Sans Serif', 'Lucida Grande', 'Verdana', 'Geneva', 'Lucid', 'Arial', 'Helvetica', 'Avant Garde', sans-serif; text-anchor: middle" x="384.67" y="340.914844" transform="rotate(-0 384.67 340.914844)">Epoch</text>
    </g>
   </g>
   <g id="matplotlib.axis_2">
    <g id="ytick_1">
     <g id="line2d_8">
      <defs>
       <path id="m3face79f1a" d="M 0 0 
L -3.5 0 
" style="stroke: #000000; stroke-width: 0.8"/>
      </defs>
      <g>
       <use xlink:href="#m3face79f1a" x="65.54" y="284.471117" style="stroke: #000000; stroke-width: 0.8"/>
      </g>
     </g>
     <g id="text_9">
      <text style="font: 15px 'DejaVu Sans', 'Bitstream Vera Sans', 'Computer Modern Sans Serif', 'Lucida Grande', 'Verdana', 'Geneva', 'Lucid', 'Arial', 'Helvetica', 'Avant Garde', sans-serif; text-anchor: end" x="58.54" y="290.169945" transform="rotate(-0 58.54 290.169945)">0.4</text>
     </g>
    </g>
    <g id="ytick_2">
     <g id="line2d_9">
      <g>
       <use xlink:href="#m3face79f1a" x="65.54" y="239.423309" style="stroke: #000000; stroke-width: 0.8"/>
      </g>
     </g>
     <g id="text_10">
      <text style="font: 15px 'DejaVu Sans', 'Bitstream Vera Sans', 'Computer Modern Sans Serif', 'Lucida Grande', 'Verdana', 'Geneva', 'Lucid', 'Arial', 'Helvetica', 'Avant Garde', sans-serif; text-anchor: end" x="58.54" y="245.122138" transform="rotate(-0 58.54 245.122138)">0.5</text>
     </g>
    </g>
    <g id="ytick_3">
     <g id="line2d_10">
      <g>
       <use xlink:href="#m3face79f1a" x="65.54" y="194.375502" style="stroke: #000000; stroke-width: 0.8"/>
      </g>
     </g>
     <g id="text_11">
      <text style="font: 15px 'DejaVu Sans', 'Bitstream Vera Sans', 'Computer Modern Sans Serif', 'Lucida Grande', 'Verdana', 'Geneva', 'Lucid', 'Arial', 'Helvetica', 'Avant Garde', sans-serif; text-anchor: end" x="58.54" y="200.07433" transform="rotate(-0 58.54 200.07433)">0.6</text>
     </g>
    </g>
    <g id="ytick_4">
     <g id="line2d_11">
      <g>
       <use xlink:href="#m3face79f1a" x="65.54" y="149.327694" style="stroke: #000000; stroke-width: 0.8"/>
      </g>
     </g>
     <g id="text_12">
      <text style="font: 15px 'DejaVu Sans', 'Bitstream Vera Sans', 'Computer Modern Sans Serif', 'Lucida Grande', 'Verdana', 'Geneva', 'Lucid', 'Arial', 'Helvetica', 'Avant Garde', sans-serif; text-anchor: end" x="58.54" y="155.026522" transform="rotate(-0 58.54 155.026522)">0.7</text>
     </g>
    </g>
    <g id="ytick_5">
     <g id="line2d_12">
      <g>
       <use xlink:href="#m3face79f1a" x="65.54" y="104.279886" style="stroke: #000000; stroke-width: 0.8"/>
      </g>
     </g>
     <g id="text_13">
      <text style="font: 15px 'DejaVu Sans', 'Bitstream Vera Sans', 'Computer Modern Sans Serif', 'Lucida Grande', 'Verdana', 'Geneva', 'Lucid', 'Arial', 'Helvetica', 'Avant Garde', sans-serif; text-anchor: end" x="58.54" y="109.978714" transform="rotate(-0 58.54 109.978714)">0.8</text>
     </g>
    </g>
    <g id="ytick_6">
     <g id="line2d_13">
      <g>
       <use xlink:href="#m3face79f1a" x="65.54" y="59.232079" style="stroke: #000000; stroke-width: 0.8"/>
      </g>
     </g>
     <g id="text_14">
      <text style="font: 15px 'DejaVu Sans', 'Bitstream Vera Sans', 'Computer Modern Sans Serif', 'Lucida Grande', 'Verdana', 'Geneva', 'Lucid', 'Arial', 'Helvetica', 'Avant Garde', sans-serif; text-anchor: end" x="58.54" y="64.930907" transform="rotate(-0 58.54 64.930907)">0.9</text>
     </g>
    </g>
    <g id="text_15">
     <text style="font: 15px 'DejaVu Sans', 'Bitstream Vera Sans', 'Computer Modern Sans Serif', 'Lucida Grande', 'Verdana', 'Geneva', 'Lucid', 'Arial', 'Helvetica', 'Avant Garde', sans-serif; text-anchor: middle" x="27.565781" y="160.1" transform="rotate(-90 27.565781 160.1)">Accuracy</text>
    </g>
   </g>
   <g id="line2d_14">
    <path d="M 94.551818 290.918182 
L 96.353794 242.279608 
L 98.155771 209.146616 
L 99.957747 178.461874 
L 101.759723 155.529916 
L 103.5617 146.634612 
L 105.363676 135.699094 
L 107.165652 131.70029 
L 108.967628 123.621056 
L 110.769605 120.193525 
L 112.571581 109.910852 
L 114.373557 112.359115 
L 116.175534 104.116656 
L 117.97751 101.260371 
L 119.779486 99.465007 
L 121.581462 97.098343 
L 123.383439 94.160459 
L 125.185415 94.078833 
L 126.987391 92.120244 
L 128.789368 90.732901 
L 130.591344 88.611087 
L 132.39332 85.999626 
L 134.195296 85.754803 
L 135.997273 83.796187 
L 137.799249 79.797383 
L 139.601225 80.531853 
L 141.403202 80.450255 
L 143.205178 75.961776 
L 145.007154 77.838793 
L 146.80913 78.41004 
L 148.611107 73.51354 
L 150.413083 72.779069 
L 152.215059 74.248011 
L 154.017036 73.595139 
L 155.819012 75.880177 
L 157.620988 71.228501 
L 159.422964 69.025089 
L 161.224941 71.881373 
L 163.026917 70.820453 
L 166.63087 66.903275 
L 168.432846 66.903275 
L 170.234822 65.434306 
L 172.036798 66.168777 
L 173.838775 63.965364 
L 175.640751 64.618236 
L 177.442727 64.455012 
L 179.244704 62.169973 
L 181.04668 62.251599 
L 182.848656 58.579217 
L 184.650632 61.027454 
L 186.452609 60.292983 
L 188.254585 59.068865 
L 190.056561 58.579217 
L 193.660514 59.803335 
L 195.46249 56.21258 
L 197.264466 58.660816 
L 199.066443 58.334394 
L 200.868419 59.884934 
L 202.670395 56.294179 
L 204.472372 58.334394 
L 206.274348 54.825237 
L 208.076324 56.130954 
L 209.8783 58.252768 
L 211.680277 56.539002 
L 213.482253 56.130954 
L 215.284229 53.601092 
L 217.086206 55.478082 
L 218.888182 55.641307 
L 220.690158 57.191874 
L 222.492134 53.356268 
L 224.294111 55.314884 
L 226.096087 50.25516 
L 227.898063 52.050551 
L 229.70004 52.948247 
L 231.502016 53.601092 
L 233.303992 53.927541 
L 235.105968 50.744807 
L 236.907945 53.356268 
L 238.709921 50.663208 
L 240.511897 50.663208 
L 242.313874 50.25516 
L 244.11585 52.458573 
L 245.917826 54.00914 
L 247.719802 49.847111 
L 249.521779 48.296571 
L 251.323755 49.031042 
L 253.125731 52.13215 
L 254.927708 48.133346 
L 256.729684 51.397679 
L 258.53166 48.867817 
L 260.333636 50.010336 
L 262.135613 51.724102 
L 263.937589 50.418385 
L 265.739565 47.562073 
L 267.541542 45.929906 
L 269.343518 46.256356 
L 271.145494 50.581582 
L 272.94747 48.051747 
L 274.749447 47.970121 
L 276.551423 49.357464 
L 278.353399 46.827602 
L 280.155375 48.214945 
L 281.957352 43.318445 
L 283.759328 46.501179 
L 287.363281 46.093131 
L 289.165257 43.889718 
L 290.967233 46.093131 
L 292.769209 46.337955 
L 294.571186 47.888522 
L 296.373162 42.910397 
L 298.175138 43.726494 
L 299.977115 43.889718 
L 301.779091 44.460964 
L 303.581067 46.501179 
L 305.383043 44.216141 
L 308.986996 44.624189 
L 310.788972 44.29774 
L 312.590949 46.256356 
L 314.392925 45.195435 
L 316.194901 43.48167 
L 317.996877 45.440259 
L 319.798854 45.195435 
L 323.402806 47.072426 
L 325.204783 44.216141 
L 327.006759 42.747199 
L 328.808735 41.686279 
L 330.610711 45.032238 
L 332.412688 47.398875 
L 334.214664 43.073622 
L 336.01664 43.48167 
L 337.818617 42.175926 
L 339.620593 41.196631 
L 341.422569 40.054112 
L 343.224545 41.441455 
L 345.026522 44.787414 
L 346.828498 43.48167 
L 348.630474 40.788583 
L 350.432451 41.196631 
L 352.234427 42.502375 
L 354.036403 40.217337 
L 355.838379 41.931102 
L 357.640356 41.60468 
L 359.442332 39.482866 
L 361.244308 42.583974 
L 363.046285 41.196631 
L 364.848261 39.564465 
L 366.650237 40.543759 
L 368.452213 41.359856 
L 370.25419 40.135738 
L 372.056166 40.46216 
L 373.858142 41.27823 
L 375.660119 40.46216 
L 377.462095 40.870209 
L 379.264071 39.646064 
L 381.066047 39.482866 
L 382.868024 40.706984 
L 384.67 39.319641 
L 386.471976 40.380562 
L 388.273953 38.58517 
L 390.075929 43.236846 
L 391.877905 40.46216 
L 393.679881 40.054112 
L 395.481858 41.849503 
L 397.283834 40.625385 
L 399.08581 42.502375 
L 400.887787 42.094327 
L 402.689763 37.442651 
L 404.491739 40.870209 
L 406.293715 38.748395 
L 408.095692 37.769074 
L 409.897668 38.829994 
L 411.699644 38.993219 
L 413.501621 37.769074 
L 415.303597 40.543759 
L 417.105573 40.298936 
L 418.907549 37.361052 
L 420.709526 40.054112 
L 422.511502 36.463356 
L 424.313478 39.482866 
L 426.115455 37.687475 
L 427.917431 39.809288 
L 429.719407 38.013897 
L 431.521383 39.972513 
L 433.32336 38.421946 
L 435.125336 39.564465 
L 436.927312 39.074818 
L 438.729289 37.279426 
L 440.531265 38.911593 
L 442.333241 37.361052 
L 444.135217 35.320837 
L 445.937194 38.177122 
L 447.73917 37.442651 
L 449.541146 36.218533 
L 451.343123 36.626554 
L 453.145099 36.626554 
L 454.947075 38.748395 
L 456.749051 40.217337 
L 458.551028 39.074818 
L 460.353004 35.810484 
L 463.956957 37.769074 
L 465.758933 35.157612 
L 467.560909 35.076013 
L 469.362885 36.136907 
L 471.164862 36.70818 
L 472.966838 34.749564 
L 474.768814 35.239211 
L 476.570791 36.300132 
L 478.372767 37.197827 
L 480.174743 35.239211 
L 481.976719 35.157612 
L 483.778696 35.565661 
L 485.580672 34.178318 
L 487.382648 38.013897 
L 489.184625 35.973709 
L 490.986601 37.442651 
L 492.788577 37.034603 
L 494.590553 35.728885 
L 496.39253 37.687475 
L 498.194506 36.381731 
L 499.996482 35.320837 
L 501.798458 36.626554 
L 503.600435 34.994388 
L 507.204387 38.421946 
L 509.006364 34.994388 
L 510.80834 34.912789 
L 512.610316 36.463356 
L 514.412292 34.749564 
L 516.214269 35.402436 
L 518.016245 34.749564 
L 519.818221 35.973709 
L 521.620198 33.607045 
L 525.22415 35.64726 
L 527.026126 34.83119 
L 528.828103 38.748395 
L 530.630079 34.994388 
L 532.432055 36.218533 
L 534.234032 34.994388 
L 536.036008 32.872574 
L 537.837984 33.117398 
L 539.63996 35.892083 
L 541.441937 34.749564 
L 543.243913 34.50474 
L 545.045889 34.667965 
L 546.847866 32.790975 
L 548.649842 32.872574 
L 550.451818 31.974878 
L 552.253794 33.199023 
L 554.055771 33.117398 
L 555.857747 31.81168 
L 557.659723 34.586366 
L 559.4617 33.362221 
L 561.263676 32.62775 
L 563.065652 33.688671 
L 564.867628 38.258721 
L 566.669605 36.055308 
L 568.471581 33.280622 
L 570.273557 34.096719 
L 572.075534 30.587535 
L 573.87751 35.157612 
L 575.679486 37.932298 
L 577.481462 33.525446 
L 579.283439 33.525446 
L 581.085415 32.546151 
L 582.887391 35.076013 
L 586.491344 33.443847 
L 588.29332 32.464552 
L 590.095296 36.300132 
L 591.897273 36.789779 
L 593.699249 32.301328 
L 595.501225 34.994388 
L 597.303202 33.362221 
L 599.105178 34.423141 
L 600.907154 35.973709 
L 602.70913 35.484062 
L 604.511107 33.688671 
L 606.313083 32.138103 
L 608.115059 32.9542 
L 609.917036 37.850699 
L 611.719012 34.423141 
L 613.520988 32.382927 
L 615.322964 33.362221 
L 617.124941 30.587535 
L 618.926917 33.607045 
L 620.728893 31.485231 
L 622.53087 32.301328 
L 624.332846 32.9542 
L 626.134822 32.709376 
L 627.936798 30.424337 
L 629.738775 31.566857 
L 631.540751 35.076013 
L 633.342727 30.342712 
L 635.144704 33.933494 
L 636.94668 32.464552 
L 638.748656 32.219729 
L 640.550632 31.81168 
L 642.352609 33.280622 
L 644.154585 32.62775 
L 645.956561 31.322033 
L 647.758538 32.62775 
L 649.560514 29.281818 
L 651.36249 30.505936 
L 653.164466 32.301328 
L 654.966443 31.240407 
L 656.768419 31.077209 
L 658.570395 32.546151 
L 660.372372 34.341543 
L 662.174348 31.648456 
L 663.976324 31.730055 
L 665.7783 31.403632 
L 667.580277 29.363417 
L 669.382253 31.730055 
L 671.184229 30.75076 
L 672.986206 32.464552 
L 674.788182 35.892083 
L 674.788182 35.892083 
" clip-path="url(#pf07a8768ca)" style="fill: none; stroke: #1f77b4; stroke-width: 1.5; stroke-linecap: square"/>
   </g>
   <g id="line2d_15">
    <path d="M 94.551818 252.399043 
L 96.353794 216.164929 
L 98.155771 171.851609 
L 99.957747 146.144965 
L 101.759723 126.314143 
L 103.5617 116.031496 
L 105.363676 114.562528 
L 107.165652 109.421204 
L 108.967628 102.321292 
L 110.769605 97.914439 
L 112.571581 95.466176 
L 114.373557 89.590382 
L 116.175534 84.693882 
L 117.97751 87.142145 
L 119.779486 86.897295 
L 121.581462 82.735293 
L 123.383439 83.22494 
L 125.185415 78.328441 
L 126.987391 77.104296 
L 128.789368 76.125001 
L 130.591344 72.207796 
L 132.39332 75.145707 
L 134.195296 69.025089 
L 135.997273 70.249207 
L 137.799249 68.535441 
L 139.601225 64.86306 
L 141.403202 68.045767 
L 143.205178 66.821649 
L 145.007154 64.373413 
L 146.80913 64.128589 
L 148.611107 63.394091 
L 150.413083 64.128589 
L 152.215059 62.169973 
L 159.422964 60.211384 
L 161.224941 58.007944 
L 163.026917 60.701031 
L 164.828893 58.987266 
L 166.63087 60.701031 
L 168.432846 57.518297 
L 170.234822 59.96656 
L 172.036798 59.232089 
L 173.838775 56.294179 
L 175.640751 58.987266 
L 177.442727 53.601092 
L 179.244704 52.866621 
L 181.04668 54.090766 
L 182.848656 54.580413 
L 184.650632 54.825237 
L 186.452609 53.111445 
L 188.254585 53.601092 
L 190.056561 52.376974 
L 191.858538 52.621797 
L 193.660514 51.152855 
L 195.46249 52.866621 
L 197.264466 53.845915 
L 199.066443 51.152855 
L 200.868419 50.418385 
L 202.670395 50.663208 
L 204.472372 51.642503 
L 206.274348 52.376974 
L 208.076324 51.152855 
L 209.8783 50.908032 
L 211.680277 52.13215 
L 213.482253 49.683914 
L 215.284229 51.642503 
L 217.086206 50.173561 
L 218.888182 51.397679 
L 220.690158 48.704592 
L 222.492134 51.152855 
L 224.294111 51.152855 
L 226.096087 49.683914 
L 227.898063 51.397679 
L 229.70004 51.887326 
L 231.502016 51.152855 
L 233.303992 51.887326 
L 235.105968 49.928737 
L 236.907945 49.43909 
L 238.709921 47.970121 
L 240.511897 47.23565 
L 242.313874 49.928737 
L 245.917826 48.949416 
L 247.719802 46.501179 
L 249.521779 48.214945 
L 251.323755 50.173561 
L 253.125731 49.43909 
L 254.927708 49.43909 
L 256.729684 46.011532 
L 258.53166 48.704592 
L 260.333636 49.928737 
L 262.135613 50.173561 
L 263.937589 49.43909 
L 265.739565 47.970121 
L 267.541542 45.766708 
L 269.343518 47.23565 
L 271.145494 50.908032 
L 272.94747 49.683914 
L 274.749447 47.23565 
L 276.551423 46.746003 
L 278.353399 50.418385 
L 280.155375 47.480474 
L 281.957352 48.459769 
L 283.759328 47.725298 
L 285.561304 48.459769 
L 287.363281 49.928737 
L 289.165257 49.194239 
L 290.967233 48.704592 
L 292.769209 49.683914 
L 294.571186 48.949416 
L 296.373162 47.970121 
L 298.175138 48.949416 
L 299.977115 48.704592 
L 301.779091 48.214945 
L 303.581067 48.704592 
L 305.383043 46.990827 
L 307.18502 45.766708 
L 308.986996 46.990827 
L 310.788972 47.970121 
L 312.590949 46.256356 
L 314.392925 45.521885 
L 316.194901 47.480474 
L 317.996877 47.725298 
L 319.798854 45.766708 
L 321.60083 48.459769 
L 323.402806 50.173561 
L 325.204783 46.746003 
L 327.006759 46.990827 
L 328.808735 45.521885 
L 330.610711 44.542563 
L 332.412688 47.480474 
L 334.214664 48.459769 
L 336.01664 46.501179 
L 337.818617 49.194239 
L 339.620593 47.480474 
L 341.422569 48.214945 
L 343.224545 47.970121 
L 346.828498 46.011532 
L 348.630474 44.29774 
L 350.432451 46.746003 
L 352.234427 47.480474 
L 354.036403 45.766708 
L 355.838379 45.766708 
L 357.640356 46.746003 
L 359.442332 46.746003 
L 361.244308 45.766708 
L 363.046285 47.970121 
L 364.848261 46.990827 
L 366.650237 49.43909 
L 368.452213 46.990827 
L 370.25419 46.256356 
L 372.056166 44.29774 
L 373.858142 48.949416 
L 375.660119 45.277061 
L 377.462095 45.032238 
L 379.264071 46.256356 
L 381.066047 48.214945 
L 382.868024 46.990827 
L 384.67 48.704592 
L 386.471976 46.990827 
L 388.273953 46.501179 
L 390.075929 45.766708 
L 391.877905 46.256356 
L 393.679881 46.011532 
L 395.481858 47.725298 
L 397.283834 45.521885 
L 399.08581 45.032238 
L 400.887787 44.29774 
L 404.491739 44.787414 
L 406.293715 47.970121 
L 408.095692 46.011532 
L 409.897668 48.704592 
L 411.699644 45.766708 
L 413.501621 44.787414 
L 415.303597 45.521885 
L 417.105573 46.011532 
L 418.907549 45.277061 
L 420.709526 46.746003 
L 422.511502 46.501179 
L 424.313478 46.501179 
L 426.115455 46.746003 
L 427.917431 46.256356 
L 429.719407 46.256356 
L 431.521383 44.29774 
L 433.32336 45.521885 
L 436.927312 44.052916 
L 438.729289 45.032238 
L 440.531265 43.808092 
L 442.333241 46.501179 
L 444.135217 45.521885 
L 445.937194 46.011532 
L 447.73917 45.277061 
L 449.541146 47.480474 
L 451.343123 46.501179 
L 453.145099 46.990827 
L 454.947075 42.094327 
L 456.749051 45.032238 
L 458.551028 44.29774 
L 460.353004 46.011532 
L 462.15498 46.501179 
L 463.956957 45.521885 
L 465.758933 45.766708 
L 467.560909 45.766708 
L 469.362885 45.521885 
L 472.966838 46.990827 
L 474.768814 46.256356 
L 476.570791 48.459769 
L 478.372767 46.746003 
L 480.174743 46.256356 
L 481.976719 44.542563 
L 483.778696 47.23565 
L 485.580672 45.766708 
L 487.382648 45.032238 
L 489.184625 44.542563 
L 490.986601 45.032238 
L 492.788577 43.318445 
L 494.590553 47.725298 
L 496.39253 45.521885 
L 498.194506 45.032238 
L 499.996482 45.521885 
L 501.798458 45.277061 
L 503.600435 48.214945 
L 505.402411 45.521885 
L 509.006364 46.011532 
L 510.80834 44.052916 
L 512.610316 46.501179 
L 514.412292 45.032238 
L 516.214269 44.787414 
L 518.016245 45.521885 
L 519.818221 46.746003 
L 521.620198 47.23565 
L 523.422174 44.542563 
L 525.22415 45.521885 
L 527.026126 43.563269 
L 528.828103 47.725298 
L 530.630079 44.787414 
L 532.432055 45.032238 
L 534.234032 47.480474 
L 536.036008 46.746003 
L 537.837984 44.542563 
L 539.63996 44.052916 
L 541.441937 41.849503 
L 543.243913 43.318445 
L 545.045889 45.032238 
L 546.847866 45.277061 
L 548.649842 44.29774 
L 550.451818 44.052916 
L 552.253794 44.052916 
L 554.055771 45.521885 
L 555.857747 46.501179 
L 557.659723 44.542563 
L 559.4617 45.521885 
L 561.263676 45.521885 
L 563.065652 45.032238 
L 566.669605 45.032238 
L 568.471581 45.277061 
L 570.273557 43.563269 
L 572.075534 45.766708 
L 573.87751 45.032238 
L 575.679486 45.032238 
L 577.481462 43.318445 
L 579.283439 44.542563 
L 581.085415 45.277061 
L 582.887391 46.746003 
L 584.689368 43.563269 
L 586.491344 43.318445 
L 588.29332 45.277061 
L 590.095296 44.787414 
L 591.897273 46.011532 
L 593.699249 46.011532 
L 595.501225 47.970121 
L 597.303202 45.032238 
L 599.105178 45.766708 
L 600.907154 45.032238 
L 602.70913 43.808092 
L 604.511107 46.256356 
L 606.313083 43.563269 
L 608.115059 45.277061 
L 609.917036 47.23565 
L 611.719012 42.828798 
L 613.520988 44.787414 
L 615.322964 45.521885 
L 617.124941 45.521885 
L 618.926917 45.032238 
L 620.728893 43.808092 
L 622.53087 45.521885 
L 624.332846 44.29774 
L 627.936798 44.29774 
L 629.738775 44.787414 
L 631.540751 46.990827 
L 633.342727 42.583974 
L 635.144704 46.501179 
L 636.94668 43.563269 
L 638.748656 45.766708 
L 640.550632 44.052916 
L 642.352609 44.542563 
L 644.154585 44.542563 
L 645.956561 44.29774 
L 647.758538 44.787414 
L 649.560514 43.563269 
L 651.36249 44.542563 
L 653.164466 45.277061 
L 654.966443 41.60468 
L 656.768419 41.849503 
L 658.570395 44.542563 
L 660.372372 42.583974 
L 662.174348 44.542563 
L 663.976324 43.563269 
L 665.7783 45.032238 
L 667.580277 46.011532 
L 672.986206 43.073622 
L 674.788182 43.318445 
L 674.788182 43.318445 
" clip-path="url(#pf07a8768ca)" style="fill: none; stroke: #ff7f0e; stroke-width: 1.5; stroke-linecap: square"/>
   </g>
   <g id="patch_3">
    <path d="M 65.54 304 
L 65.54 16.2 
" style="fill: none; stroke: #000000; stroke-width: 0.8; stroke-linejoin: miter; stroke-linecap: square"/>
   </g>
   <g id="patch_4">
    <path d="M 703.8 304 
L 703.8 16.2 
" style="fill: none; stroke: #000000; stroke-width: 0.8; stroke-linejoin: miter; stroke-linecap: square"/>
   </g>
   <g id="patch_5">
    <path d="M 65.54 304 
L 703.8 304 
" style="fill: none; stroke: #000000; stroke-width: 0.8; stroke-linejoin: miter; stroke-linecap: square"/>
   </g>
   <g id="patch_6">
    <path d="M 65.54 16.2 
L 703.8 16.2 
" style="fill: none; stroke: #000000; stroke-width: 0.8; stroke-linejoin: miter; stroke-linecap: square"/>
   </g>
   <g id="legend_1">
    <g id="patch_7">
     <path d="M 497.976563 296.5 
L 693.3 296.5 
Q 696.3 296.5 696.3 293.5 
L 696.3 250.965625 
Q 696.3 247.965625 693.3 247.965625 
L 497.976563 247.965625 
Q 494.976563 247.965625 494.976563 250.965625 
L 494.976563 293.5 
Q 494.976563 296.5 497.976563 296.5 
z
" style="fill: #ffffff; opacity: 0.8; stroke: #cccccc; stroke-linejoin: miter"/>
    </g>
    <g id="line2d_16">
     <path d="M 500.976563 260.113281 
L 515.976563 260.113281 
L 530.976563 260.113281 
" style="fill: none; stroke: #1f77b4; stroke-width: 1.5; stroke-linecap: square"/>
    </g>
    <g id="text_16">
     <text style="font: 15px 'DejaVu Sans', 'Bitstream Vera Sans', 'Computer Modern Sans Serif', 'Lucida Grande', 'Verdana', 'Geneva', 'Lucid', 'Arial', 'Helvetica', 'Avant Garde', sans-serif; text-anchor: start" x="542.976563" y="265.363281" transform="rotate(-0 542.976563 265.363281)">Training Accuracy</text>
    </g>
    <g id="line2d_17">
     <path d="M 500.976563 282.130469 
L 515.976563 282.130469 
L 530.976563 282.130469 
" style="fill: none; stroke: #ff7f0e; stroke-width: 1.5; stroke-linecap: square"/>
    </g>
    <g id="text_17">
     <text style="font: 15px 'DejaVu Sans', 'Bitstream Vera Sans', 'Computer Modern Sans Serif', 'Lucida Grande', 'Verdana', 'Geneva', 'Lucid', 'Arial', 'Helvetica', 'Avant Garde', sans-serif; text-anchor: start" x="542.976563" y="287.380469" transform="rotate(-0 542.976563 287.380469)">Validation Accuracy</text>
    </g>
   </g>
  </g>
 </g>
 <defs>
  <clipPath id="pf07a8768ca">
   <rect x="65.54" y="16.2" width="638.26" height="287.8"/>
  </clipPath>
 </defs>
</svg>
