<?xml version="1.0" encoding="utf-8" standalone="no"?>
<!DOCTYPE svg PUBLIC "-//W3C//DTD SVG 1.1//EN"
  "http://www.w3.org/Graphics/SVG/1.1/DTD/svg11.dtd">
<svg xmlns:xlink="http://www.w3.org/1999/xlink" width="720pt" height="360pt" viewBox="0 0 720 360" xmlns="http://www.w3.org/2000/svg" version="1.1">
 <metadata>
  <rdf:RDF xmlns:dc="http://purl.org/dc/elements/1.1/" xmlns:cc="http://creativecommons.org/ns#" xmlns:rdf="http://www.w3.org/1999/02/22-rdf-syntax-ns#">
   <cc:Work>
    <dc:type rdf:resource="http://purl.org/dc/dcmitype/StillImage"/>
    <dc:date>2023-07-19T13:45:25.167439</dc:date>
    <dc:format>image/svg+xml</dc:format>
    <dc:creator>
     <cc:Agent>
      <dc:title>Matplotlib v3.7.2, https://matplotlib.org/</dc:title>
     </cc:Agent>
    </dc:creator>
   </cc:Work>
  </rdf:RDF>
 </metadata>
 <defs>
  <style type="text/css">*{stroke-linejoin: round; stroke-linecap: butt}</style>
 </defs>
 <g id="figure_1">
  <g id="patch_1">
   <path d="M 0 360 
L 720 360 
L 720 0 
L 0 0 
z
" style="fill: #ffffff"/>
  </g>
  <g id="axes_1">
   <g id="patch_2">
    <path d="M 65.54 304 
L 703.8 304 
L 703.8 16.2 
L 65.54 16.2 
z
" style="fill: #ffffff"/>
   </g>
   <g id="matplotlib.axis_1">
    <g id="xtick_1">
     <g id="line2d_1">
      <defs>
       <path id="m10743ae182" d="M 0 0 
L 0 3.5 
" style="stroke: #000000; stroke-width: 0.8"/>
      </defs>
      <g>
       <use xlink:href="#m10743ae182" x="93.071623" y="304" style="stroke: #000000; stroke-width: 0.8"/>
      </g>
     </g>
     <g id="text_1">
      <text style="font: 15px 'DejaVu Sans', 'Bitstream Vera Sans', 'Computer Modern Sans Serif', 'Lucida Grande', 'Verdana', 'Geneva', 'Lucid', 'Arial', 'Helvetica', 'Avant Garde', sans-serif; text-anchor: middle" x="93.071623" y="322.397656" transform="rotate(-0 93.071623 322.397656)">0</text>
     </g>
    </g>
    <g id="xtick_2">
     <g id="line2d_2">
      <g>
       <use xlink:href="#m10743ae182" x="167.081364" y="304" style="stroke: #000000; stroke-width: 0.8"/>
      </g>
     </g>
     <g id="text_2">
      <text style="font: 15px 'DejaVu Sans', 'Bitstream Vera Sans', 'Computer Modern Sans Serif', 'Lucida Grande', 'Verdana', 'Geneva', 'Lucid', 'Arial', 'Helvetica', 'Avant Garde', sans-serif; text-anchor: middle" x="167.081364" y="322.397656" transform="rotate(-0 167.081364 322.397656)">50</text>
     </g>
    </g>
    <g id="xtick_3">
     <g id="line2d_3">
      <g>
       <use xlink:href="#m10743ae182" x="241.091104" y="304" style="stroke: #000000; stroke-width: 0.8"/>
      </g>
     </g>
     <g id="text_3">
      <text style="font: 15px 'DejaVu Sans', 'Bitstream Vera Sans', 'Computer Modern Sans Serif', 'Lucida Grande', 'Verdana', 'Geneva', 'Lucid', 'Arial', 'Helvetica', 'Avant Garde', sans-serif; text-anchor: middle" x="241.091104" y="322.397656" transform="rotate(-0 241.091104 322.397656)">100</text>
     </g>
    </g>
    <g id="xtick_4">
     <g id="line2d_4">
      <g>
       <use xlink:href="#m10743ae182" x="315.100844" y="304" style="stroke: #000000; stroke-width: 0.8"/>
      </g>
     </g>
     <g id="text_4">
      <text style="font: 15px 'DejaVu Sans', 'Bitstream Vera Sans', 'Computer Modern Sans Serif', 'Lucida Grande', 'Verdana', 'Geneva', 'Lucid', 'Arial', 'Helvetica', 'Avant Garde', sans-serif; text-anchor: middle" x="315.100844" y="322.397656" transform="rotate(-0 315.100844 322.397656)">150</text>
     </g>
    </g>
    <g id="xtick_5">
     <g id="line2d_5">
      <g>
       <use xlink:href="#m10743ae182" x="389.110584" y="304" style="stroke: #000000; stroke-width: 0.8"/>
      </g>
     </g>
     <g id="text_5">
      <text style="font: 15px 'DejaVu Sans', 'Bitstream Vera Sans', 'Computer Modern Sans Serif', 'Lucida Grande', 'Verdana', 'Geneva', 'Lucid', 'Arial', 'Helvetica', 'Avant Garde', sans-serif; text-anchor: middle" x="389.110584" y="322.397656" transform="rotate(-0 389.110584 322.397656)">200</text>
     </g>
    </g>
    <g id="xtick_6">
     <g id="line2d_6">
      <g>
       <use xlink:href="#m10743ae182" x="463.120325" y="304" style="stroke: #000000; stroke-width: 0.8"/>
      </g>
     </g>
     <g id="text_6">
      <text style="font: 15px 'DejaVu Sans', 'Bitstream Vera Sans', 'Computer Modern Sans Serif', 'Lucida Grande', 'Verdana', 'Geneva', 'Lucid', 'Arial', 'Helvetica', 'Avant Garde', sans-serif; text-anchor: middle" x="463.120325" y="322.397656" transform="rotate(-0 463.120325 322.397656)">250</text>
     </g>
    </g>
    <g id="xtick_7">
     <g id="line2d_7">
      <g>
       <use xlink:href="#m10743ae182" x="537.130065" y="304" style="stroke: #000000; stroke-width: 0.8"/>
      </g>
     </g>
     <g id="text_7">
      <text style="font: 15px 'DejaVu Sans', 'Bitstream Vera Sans', 'Computer Modern Sans Serif', 'Lucida Grande', 'Verdana', 'Geneva', 'Lucid', 'Arial', 'Helvetica', 'Avant Garde', sans-serif; text-anchor: middle" x="537.130065" y="322.397656" transform="rotate(-0 537.130065 322.397656)">300</text>
     </g>
    </g>
    <g id="xtick_8">
     <g id="line2d_8">
      <g>
       <use xlink:href="#m10743ae182" x="611.139805" y="304" style="stroke: #000000; stroke-width: 0.8"/>
      </g>
     </g>
     <g id="text_8">
      <text style="font: 15px 'DejaVu Sans', 'Bitstream Vera Sans', 'Computer Modern Sans Serif', 'Lucida Grande', 'Verdana', 'Geneva', 'Lucid', 'Arial', 'Helvetica', 'Avant Garde', sans-serif; text-anchor: middle" x="611.139805" y="322.397656" transform="rotate(-0 611.139805 322.397656)">350</text>
     </g>
    </g>
    <g id="xtick_9">
     <g id="line2d_9">
      <g>
       <use xlink:href="#m10743ae182" x="685.149545" y="304" style="stroke: #000000; stroke-width: 0.8"/>
      </g>
     </g>
     <g id="text_9">
      <text style="font: 15px 'DejaVu Sans', 'Bitstream Vera Sans', 'Computer Modern Sans Serif', 'Lucida Grande', 'Verdana', 'Geneva', 'Lucid', 'Arial', 'Helvetica', 'Avant Garde', sans-serif; text-anchor: middle" x="685.149545" y="322.397656" transform="rotate(-0 685.149545 322.397656)">400</text>
     </g>
    </g>
    <g id="text_10">
     <text style="font: 15px 'DejaVu Sans', 'Bitstream Vera Sans', 'Computer Modern Sans Serif', 'Lucida Grande', 'Verdana', 'Geneva', 'Lucid', 'Arial', 'Helvetica', 'Avant Garde', sans-serif; text-anchor: middle" x="384.67" y="340.914844" transform="rotate(-0 384.67 340.914844)">Epoch</text>
    </g>
   </g>
   <g id="matplotlib.axis_2">
    <g id="ytick_1">
     <g id="line2d_10">
      <defs>
       <path id="m571cb69560" d="M 0 0 
L -3.5 0 
" style="stroke: #000000; stroke-width: 0.8"/>
      </defs>
      <g>
       <use xlink:href="#m571cb69560" x="65.54" y="273.107667" style="stroke: #000000; stroke-width: 0.8"/>
      </g>
     </g>
     <g id="text_11">
      <text style="font: 15px 'DejaVu Sans', 'Bitstream Vera Sans', 'Computer Modern Sans Serif', 'Lucida Grande', 'Verdana', 'Geneva', 'Lucid', 'Arial', 'Helvetica', 'Avant Garde', sans-serif; text-anchor: end" x="58.54" y="278.806495" transform="rotate(-0 58.54 278.806495)">0.4</text>
     </g>
    </g>
    <g id="ytick_2">
     <g id="line2d_11">
      <g>
       <use xlink:href="#m571cb69560" x="65.54" y="229.590999" style="stroke: #000000; stroke-width: 0.8"/>
      </g>
     </g>
     <g id="text_12">
      <text style="font: 15px 'DejaVu Sans', 'Bitstream Vera Sans', 'Computer Modern Sans Serif', 'Lucida Grande', 'Verdana', 'Geneva', 'Lucid', 'Arial', 'Helvetica', 'Avant Garde', sans-serif; text-anchor: end" x="58.54" y="235.289827" transform="rotate(-0 58.54 235.289827)">0.5</text>
     </g>
    </g>
    <g id="ytick_3">
     <g id="line2d_12">
      <g>
       <use xlink:href="#m571cb69560" x="65.54" y="186.074331" style="stroke: #000000; stroke-width: 0.8"/>
      </g>
     </g>
     <g id="text_13">
      <text style="font: 15px 'DejaVu Sans', 'Bitstream Vera Sans', 'Computer Modern Sans Serif', 'Lucida Grande', 'Verdana', 'Geneva', 'Lucid', 'Arial', 'Helvetica', 'Avant Garde', sans-serif; text-anchor: end" x="58.54" y="191.773159" transform="rotate(-0 58.54 191.773159)">0.6</text>
     </g>
    </g>
    <g id="ytick_4">
     <g id="line2d_13">
      <g>
       <use xlink:href="#m571cb69560" x="65.54" y="142.557663" style="stroke: #000000; stroke-width: 0.8"/>
      </g>
     </g>
     <g id="text_14">
      <text style="font: 15px 'DejaVu Sans', 'Bitstream Vera Sans', 'Computer Modern Sans Serif', 'Lucida Grande', 'Verdana', 'Geneva', 'Lucid', 'Arial', 'Helvetica', 'Avant Garde', sans-serif; text-anchor: end" x="58.54" y="148.256491" transform="rotate(-0 58.54 148.256491)">0.7</text>
     </g>
    </g>
    <g id="ytick_5">
     <g id="line2d_14">
      <g>
       <use xlink:href="#m571cb69560" x="65.54" y="99.040995" style="stroke: #000000; stroke-width: 0.8"/>
      </g>
     </g>
     <g id="text_15">
      <text style="font: 15px 'DejaVu Sans', 'Bitstream Vera Sans', 'Computer Modern Sans Serif', 'Lucida Grande', 'Verdana', 'Geneva', 'Lucid', 'Arial', 'Helvetica', 'Avant Garde', sans-serif; text-anchor: end" x="58.54" y="104.739823" transform="rotate(-0 58.54 104.739823)">0.8</text>
     </g>
    </g>
    <g id="ytick_6">
     <g id="line2d_15">
      <g>
       <use xlink:href="#m571cb69560" x="65.54" y="55.524327" style="stroke: #000000; stroke-width: 0.8"/>
      </g>
     </g>
     <g id="text_16">
      <text style="font: 15px 'DejaVu Sans', 'Bitstream Vera Sans', 'Computer Modern Sans Serif', 'Lucida Grande', 'Verdana', 'Geneva', 'Lucid', 'Arial', 'Helvetica', 'Avant Garde', sans-serif; text-anchor: end" x="58.54" y="61.223155" transform="rotate(-0 58.54 61.223155)">0.9</text>
     </g>
    </g>
    <g id="text_17">
     <text style="font: 15px 'DejaVu Sans', 'Bitstream Vera Sans', 'Computer Modern Sans Serif', 'Lucida Grande', 'Verdana', 'Geneva', 'Lucid', 'Arial', 'Helvetica', 'Avant Garde', sans-serif; text-anchor: middle" x="27.565781" y="160.1" transform="rotate(-90 27.565781 160.1)">Accuracy</text>
    </g>
   </g>
   <g id="line2d_16">
    <path d="M 94.551818 290.918182 
L 96.032013 236.4139 
L 97.512208 203.67976 
L 98.992403 184.039306 
L 100.472597 170.630136 
L 101.952792 162.190262 
L 103.432987 151.77843 
L 104.913182 142.549783 
L 106.393377 139.710199 
L 107.873571 135.214166 
L 109.353766 134.977534 
L 110.833961 124.565727 
L 112.314156 122.357162 
L 113.794351 117.151259 
L 115.274545 114.31165 
L 116.75474 111.156557 
L 118.234935 105.240757 
L 119.71513 106.108408 
L 121.195325 105.792899 
L 122.675519 103.189947 
L 124.155714 102.164542 
L 125.635909 97.037516 
L 127.116104 97.984044 
L 128.596299 94.986706 
L 130.076494 95.302215 
L 131.556688 93.409159 
L 133.036883 90.806182 
L 134.517078 87.966598 
L 135.997273 88.518739 
L 137.477468 86.704561 
L 138.957662 84.574873 
L 140.437857 83.943854 
L 141.918052 84.96926 
L 143.398247 81.340903 
L 144.878442 82.997327 
L 146.358636 75.977245 
L 147.838831 77.081527 
L 149.319026 78.974583 
L 150.799221 72.191133 
L 152.279416 76.135 
L 153.75961 73.137661 
L 155.239805 76.213877 
L 156.72 71.165728 
L 158.200195 74.241944 
L 159.68039 69.272673 
L 161.160584 70.613587 
L 162.640779 68.562751 
L 164.120974 70.929096 
L 165.601169 68.799383 
L 167.081364 68.957137 
L 168.561558 65.249903 
L 170.041753 68.799383 
L 171.521948 68.720505 
L 173.002143 65.171026 
L 174.482338 67.142959 
L 175.962532 65.565412 
L 178.922922 68.957137 
L 180.403117 63.751234 
L 181.883312 60.675018 
L 183.363506 63.751234 
L 184.843701 62.09481 
L 186.323896 62.331442 
L 187.804091 62.725829 
L 189.284286 64.934394 
L 190.764481 59.965123 
L 192.244675 61.937056 
L 195.205065 55.942379 
L 196.68526 59.886245 
L 198.165455 59.176349 
L 199.645649 58.229821 
L 201.125844 59.334104 
L 202.606039 60.122877 
L 204.086234 58.229821 
L 205.566429 57.283294 
L 207.046623 55.469115 
L 208.526818 56.415643 
L 210.007013 59.886245 
L 211.487208 57.993189 
L 212.967403 54.759219 
L 214.447597 54.995851 
L 215.927792 57.67768 
L 217.407987 54.838097 
L 218.888182 55.62687 
L 220.368377 55.784624 
L 221.848571 54.049323 
L 223.328766 53.102795 
L 224.808961 54.522587 
L 226.289156 59.097472 
L 229.249545 51.604126 
L 230.72974 51.683004 
L 232.209935 51.998513 
L 233.69013 51.446372 
L 235.170325 51.288617 
L 236.650519 51.683004 
L 238.130714 49.395561 
L 239.610909 52.708409 
L 241.091104 52.07739 
L 242.571299 53.733814 
L 244.051494 51.919636 
L 245.531688 50.815353 
L 247.011883 50.420967 
L 248.492078 50.89423 
L 249.972273 44.741773 
L 251.452468 48.606788 
L 252.932662 47.029242 
L 254.412857 46.555978 
L 255.893052 49.080052 
L 257.373247 49.632193 
L 258.853442 49.474439 
L 260.333636 46.082688 
L 261.813831 46.240442 
L 263.294026 45.924933 
L 264.774221 44.978405 
L 266.254416 47.265874 
L 267.73461 46.634855 
L 269.214805 48.764543 
L 270.695 46.950364 
L 272.175195 47.896892 
L 273.65539 46.555978 
L 275.135584 45.609424 
L 276.615779 47.265874 
L 278.095974 50.420967 
L 279.576169 45.293915 
L 282.536558 47.265874 
L 284.016753 44.978405 
L 285.496948 43.795245 
L 286.977143 46.31932 
L 288.457338 46.4771 
L 289.937532 44.426264 
L 291.417727 43.243104 
L 292.897922 42.848718 
L 294.378117 44.031877 
L 295.858312 45.767179 
L 297.338506 44.031877 
L 298.818701 43.795245 
L 300.298896 43.953 
L 301.779091 45.767179 
L 303.259286 45.372792 
L 304.739481 45.530547 
L 306.219675 42.138822 
L 307.69987 44.584019 
L 309.180065 45.451669 
L 310.66026 45.13616 
L 312.140455 43.558614 
L 313.620649 43.637491 
L 315.100844 45.846056 
L 316.581039 42.375454 
L 318.061234 43.243104 
L 319.541429 41.823312 
L 321.021623 43.558614 
L 322.501818 46.240442 
L 323.982013 40.71903 
L 325.462208 43.558614 
L 326.942403 43.006472 
L 328.422597 41.507803 
L 329.902792 43.164227 
L 331.382987 41.90219 
L 332.863182 43.321982 
L 335.823571 42.927595 
L 337.303766 39.851379 
L 338.783961 41.271171 
L 340.264156 42.217699 
L 341.744351 44.189632 
L 343.224545 44.426264 
L 344.70474 40.166889 
L 346.184935 40.955662 
L 347.66513 38.904852 
L 349.145325 39.220361 
L 350.625519 39.220361 
L 352.105714 49.789948 
L 353.585909 40.482398 
L 355.066104 40.561275 
L 356.546299 42.76984 
L 358.026494 40.71903 
L 359.506688 37.721692 
L 360.986883 42.690963 
L 362.467078 40.955662 
L 363.947273 44.584019 
L 365.427468 41.823312 
L 366.907662 37.248428 
L 368.387857 43.08535 
L 369.868052 40.955662 
L 371.348247 39.772502 
L 372.828442 39.299238 
L 374.308636 37.642814 
L 375.788831 40.640153 
L 377.269026 39.614747 
L 378.749221 37.879446 
L 380.229416 39.693625 
L 381.70961 38.273833 
L 383.189805 38.904852 
L 384.67 40.955662 
L 386.150195 36.696286 
L 387.63039 38.983729 
L 389.110584 38.983729 
L 392.070974 37.011796 
L 393.551169 39.693625 
L 395.031364 38.825974 
L 396.511558 37.48506 
L 397.991753 37.327305 
L 399.471948 38.116078 
L 400.952143 36.3019 
L 402.432338 38.983729 
L 403.912532 36.380777 
L 405.392727 37.958324 
L 406.872922 35.276495 
L 408.353117 39.930257 
L 409.833312 39.299238 
L 411.313506 39.299238 
L 412.793701 37.48506 
L 414.273896 37.800569 
L 415.754091 37.958324 
L 417.234286 40.166889 
L 418.714481 37.958324 
L 420.194675 39.062606 
L 421.67487 38.273833 
L 423.155065 36.380777 
L 424.63526 38.825974 
L 426.115455 34.803231 
L 427.595649 36.854041 
L 429.075844 37.406182 
L 430.556039 35.749759 
L 432.036234 38.037201 
L 433.516429 35.513127 
L 434.996623 38.904852 
L 436.476818 35.592004 
L 437.957013 36.223023 
L 439.437208 34.487721 
L 440.917403 38.273833 
L 442.397597 37.48506 
L 443.877792 35.039863 
L 445.357987 36.696286 
L 446.838182 35.592004 
L 448.318377 35.11874 
L 449.798571 36.223023 
L 451.278766 35.670881 
L 452.758961 34.172212 
L 454.239156 34.645476 
L 455.719351 34.487721 
L 457.199545 35.355372 
L 460.159935 36.696286 
L 461.64013 36.854041 
L 463.120325 39.220361 
L 464.600519 37.563937 
L 466.080714 36.854041 
L 467.560909 35.592004 
L 469.041104 35.11874 
L 470.521299 33.698948 
L 472.001494 37.16955 
L 473.481688 37.48506 
L 474.961883 36.223023 
L 476.442078 37.48506 
L 477.922273 34.645476 
L 479.402468 36.065268 
L 480.882662 37.248428 
L 482.362857 35.513127 
L 483.843052 32.75242 
L 485.323247 34.487721 
L 486.803442 33.93558 
L 488.283636 33.225684 
L 489.763831 35.513127 
L 491.244026 36.144145 
L 492.724221 35.749759 
L 494.204416 40.482398 
L 497.164805 34.487721 
L 498.645 39.851379 
L 500.125195 36.144145 
L 501.60539 34.014458 
L 503.085584 34.566599 
L 504.565779 33.541194 
L 506.045974 34.251089 
L 507.526169 35.355372 
L 509.006364 36.854041 
L 510.486558 34.487721 
L 511.966753 34.408844 
L 513.446948 33.620071 
L 514.927143 34.014458 
L 516.407338 32.358034 
L 517.887532 33.304562 
L 519.367727 31.648138 
L 520.847922 36.696286 
L 522.328117 34.882108 
L 523.808312 36.696286 
L 525.288506 39.693625 
L 526.768701 37.721692 
L 528.248896 35.197617 
L 529.729091 33.304562 
L 531.209286 35.907513 
L 532.689481 35.749759 
L 534.169675 33.304562 
L 535.64987 32.121402 
L 537.130065 34.093335 
L 538.61026 31.174874 
L 540.090455 30.543855 
L 541.570649 31.648138 
L 543.050844 31.88477 
L 544.531039 32.358034 
L 546.011234 36.538532 
L 547.491429 32.042524 
L 548.971623 31.648138 
L 550.451818 33.856703 
L 553.412208 31.569261 
L 554.892403 35.276495 
L 556.372597 33.777826 
L 557.852792 34.566599 
L 559.332987 35.197617 
L 560.813182 31.88477 
L 562.293377 31.490383 
L 563.773571 34.645476 
L 565.253766 33.93558 
L 566.733961 30.938242 
L 568.214156 31.095997 
L 569.694351 31.805892 
L 571.174545 34.329967 
L 572.65474 31.727015 
L 574.134935 33.146807 
L 575.61513 31.017119 
L 577.095325 31.963647 
L 578.575519 34.014458 
L 580.055714 32.515788 
L 581.535909 30.780487 
L 583.016104 32.989052 
L 584.496299 32.594666 
L 585.976494 34.329967 
L 587.456688 34.566599 
L 588.936883 33.698948 
L 590.417078 30.859365 
L 591.897273 29.676205 
L 593.377468 30.543855 
L 594.857662 31.174874 
L 596.337857 33.462316 
L 597.818052 32.436911 
L 599.298247 32.989052 
L 600.778442 31.963647 
L 602.258636 32.594666 
L 603.738831 31.805892 
L 605.219026 31.88477 
L 606.699221 30.938242 
L 608.179416 31.490383 
L 609.65961 30.228346 
L 611.139805 32.358034 
L 612.62 30.780487 
L 614.100195 34.251089 
L 615.58039 30.70161 
L 617.060584 29.833959 
L 618.540779 34.408844 
L 620.020974 31.805892 
L 621.501169 31.017119 
L 622.981364 31.569261 
L 624.461558 32.279156 
L 625.941753 30.307223 
L 627.421948 31.253751 
L 628.902143 32.831298 
L 630.382338 29.833959 
L 631.862532 31.490383 
L 633.342727 32.75242 
L 634.822922 30.70161 
L 636.303117 32.436911 
L 637.783312 31.174874 
L 639.263506 30.622733 
L 640.743701 29.281818 
L 642.223896 31.490383 
L 643.704091 32.121402 
L 645.184286 31.88477 
L 646.664481 31.490383 
L 648.144675 30.464978 
L 649.62487 30.70161 
L 651.105065 39.614747 
L 652.58526 30.780487 
L 654.065455 31.490383 
L 655.545649 32.673543 
L 657.025844 29.991714 
L 658.506039 32.594666 
L 659.986234 31.88477 
L 661.466429 31.017119 
L 662.946623 29.676205 
L 664.426818 31.174874 
L 665.907013 33.383439 
L 667.387208 29.833959 
L 668.867403 32.042524 
L 670.347597 31.963647 
L 671.827792 30.464978 
L 673.307987 29.755082 
L 674.788182 31.017119 
L 674.788182 31.017119 
" clip-path="url(#p3cbab8cd00)" style="fill: none; stroke: #1f77b4; stroke-width: 1.5; stroke-linecap: square"/>
   </g>
   <g id="line2d_17">
    <path d="M 94.551818 248.747787 
L 96.032013 193.878947 
L 97.512208 171.647604 
L 98.992403 152.017811 
L 100.472597 148.706753 
L 101.952792 139.956117 
L 103.432987 130.495974 
L 104.913182 126.475409 
L 106.393377 113.940711 
L 107.873571 112.994702 
L 110.833961 106.372612 
L 112.314156 111.81219 
L 113.794351 101.169536 
L 115.274545 94.54742 
L 116.75474 91.709393 
L 118.234935 89.580847 
L 119.71513 89.817349 
L 121.195325 83.668264 
L 122.675519 85.32378 
L 124.155714 84.850775 
L 125.635909 80.593708 
L 127.116104 80.357206 
L 128.596299 75.390632 
L 130.076494 76.573143 
L 131.556688 78.70169 
L 133.036883 69.241547 
L 134.517078 70.424058 
L 135.997273 71.370067 
L 137.477468 77.046148 
L 138.957662 65.930489 
L 140.437857 70.897063 
L 141.918052 66.876498 
L 143.398247 67.349503 
L 144.878442 65.457485 
L 146.358636 64.511475 
L 147.838831 66.166991 
L 149.319026 63.092436 
L 150.799221 61.673422 
L 152.279416 60.490911 
L 153.75961 61.43692 
L 155.239805 61.673422 
L 156.72 60.963915 
L 158.200195 59.071871 
L 159.68039 58.835369 
L 161.160584 59.308373 
L 162.640779 59.544876 
L 164.120974 59.071871 
L 165.601169 56.943351 
L 167.081364 59.544876 
L 168.561558 61.909924 
L 170.041753 55.287835 
L 171.521948 56.470346 
L 173.002143 57.416355 
L 174.482338 56.233844 
L 175.962532 57.179853 
L 177.442727 55.287835 
L 178.922922 54.3418 
L 180.403117 52.449782 
L 181.883312 52.449782 
L 183.363506 53.632293 
L 184.843701 54.578302 
L 186.323896 58.362364 
L 187.804091 54.3418 
L 189.284286 54.3418 
L 190.764481 53.159288 
L 192.244675 52.922786 
L 193.72487 53.159288 
L 195.205065 55.287835 
L 196.68526 53.868795 
L 198.165455 52.686284 
L 199.645649 53.159288 
L 201.125844 51.740275 
L 202.606039 51.976777 
L 204.086234 55.287835 
L 205.566429 50.321235 
L 207.046623 50.321235 
L 208.526818 51.976777 
L 210.007013 50.084733 
L 211.487208 52.686284 
L 212.967403 51.503772 
L 214.447597 48.665719 
L 215.927792 50.794266 
L 217.407987 54.3418 
L 218.888182 52.922786 
L 220.368377 50.321235 
L 221.848571 49.375226 
L 223.328766 49.138724 
L 224.808961 49.375226 
L 226.289156 49.848231 
L 227.769351 48.902221 
L 229.249545 50.321235 
L 230.72974 50.321235 
L 232.209935 48.665719 
L 233.69013 49.848231 
L 235.170325 48.429217 
L 236.650519 49.375226 
L 238.130714 48.192715 
L 239.610909 49.848231 
L 241.091104 48.665719 
L 242.571299 47.010203 
L 244.051494 47.246705 
L 245.531688 47.956212 
L 247.011883 47.246705 
L 248.492078 47.483208 
L 249.972273 46.537199 
L 251.452468 47.483208 
L 252.932662 49.611728 
L 254.412857 50.084733 
L 255.893052 47.71971 
L 257.373247 48.192715 
L 258.853442 48.902221 
L 260.333636 48.902221 
L 261.813831 47.246705 
L 263.294026 46.300696 
L 264.774221 45.827666 
L 266.254416 46.300696 
L 267.73461 46.537199 
L 269.214805 46.064194 
L 270.695 46.300696 
L 272.175195 45.827666 
L 275.135584 47.71971 
L 276.615779 47.71971 
L 278.095974 46.537199 
L 279.576169 47.71971 
L 281.056364 48.665719 
L 282.536558 47.010203 
L 284.016753 46.537199 
L 285.496948 47.010203 
L 286.977143 44.17215 
L 288.457338 46.300696 
L 289.937532 47.010203 
L 291.417727 44.881657 
L 292.897922 45.118159 
L 294.378117 48.192715 
L 295.858312 46.300696 
L 297.338506 45.354661 
L 298.818701 46.537199 
L 300.298896 48.902221 
L 301.779091 45.354661 
L 303.259286 46.064194 
L 304.739481 46.300696 
L 306.219675 45.827666 
L 307.69987 45.827666 
L 309.180065 46.064194 
L 310.66026 42.989639 
L 312.140455 46.300696 
L 313.620649 48.429217 
L 315.100844 45.354661 
L 316.581039 43.935648 
L 318.061234 47.71971 
L 319.541429 45.354661 
L 321.021623 46.773701 
L 322.501818 45.118159 
L 323.982013 46.537199 
L 325.462208 46.537199 
L 326.942403 44.881657 
L 328.422597 44.17215 
L 329.902792 46.064194 
L 331.382987 44.881657 
L 332.863182 42.753136 
L 334.343377 43.699145 
L 335.823571 42.753136 
L 337.303766 45.354661 
L 338.783961 43.226141 
L 340.264156 44.17215 
L 341.744351 46.537199 
L 343.224545 43.699145 
L 344.70474 44.645154 
L 346.184935 43.935648 
L 347.66513 44.408652 
L 349.145325 45.354661 
L 350.625519 44.645154 
L 352.105714 44.408652 
L 353.585909 46.773701 
L 355.066104 44.881657 
L 356.546299 43.699145 
L 358.026494 42.753136 
L 359.506688 44.645154 
L 360.986883 44.881657 
L 362.467078 44.881657 
L 363.947273 45.591164 
L 365.427468 45.118159 
L 366.907662 46.064194 
L 368.387857 44.408652 
L 369.868052 45.591164 
L 371.348247 43.699145 
L 372.828442 43.462643 
L 374.308636 43.462643 
L 375.788831 45.118159 
L 377.269026 42.989639 
L 378.749221 43.699145 
L 380.229416 43.462643 
L 381.70961 44.408652 
L 383.189805 43.462643 
L 384.67 43.935648 
L 386.150195 43.935648 
L 387.63039 44.17215 
L 389.110584 43.462643 
L 390.590779 45.827666 
L 392.070974 42.989639 
L 393.551169 44.881657 
L 395.031364 45.118159 
L 396.511558 44.645154 
L 397.991753 43.226141 
L 399.471948 41.097594 
L 400.952143 43.226141 
L 402.432338 40.62459 
L 403.912532 43.699145 
L 405.392727 44.17215 
L 406.872922 43.226141 
L 408.353117 45.591164 
L 409.833312 43.935648 
L 411.313506 42.043629 
L 412.793701 44.408652 
L 414.273896 43.699145 
L 415.754091 44.881657 
L 417.234286 43.226141 
L 418.714481 41.334097 
L 420.194675 42.753136 
L 421.67487 43.462643 
L 423.155065 44.881657 
L 424.63526 43.462643 
L 426.115455 42.516634 
L 427.595649 41.334097 
L 429.075844 43.935648 
L 430.556039 42.516634 
L 432.036234 44.17215 
L 433.516429 42.989639 
L 434.996623 42.280132 
L 436.476818 40.861092 
L 437.957013 44.17215 
L 439.437208 42.043629 
L 440.917403 42.989639 
L 442.397597 44.408652 
L 443.877792 42.753136 
L 445.357987 43.226141 
L 446.838182 42.280132 
L 448.318377 41.097594 
L 449.798571 43.226141 
L 451.278766 42.516634 
L 452.758961 42.989639 
L 454.239156 44.408652 
L 455.719351 42.989639 
L 457.199545 44.645154 
L 458.67974 42.753136 
L 460.159935 44.645154 
L 461.64013 42.989639 
L 463.120325 46.537199 
L 464.600519 41.097594 
L 466.080714 42.753136 
L 467.560909 41.807127 
L 469.041104 44.17215 
L 470.521299 41.334097 
L 472.001494 41.807127 
L 473.481688 42.516634 
L 474.961883 42.989639 
L 476.442078 41.097594 
L 477.922273 42.989639 
L 479.402468 42.989639 
L 480.882662 41.334097 
L 482.362857 42.989639 
L 483.843052 41.570625 
L 485.323247 42.043629 
L 486.803442 44.645154 
L 488.283636 42.753136 
L 489.763831 41.570625 
L 491.244026 45.118159 
L 492.724221 43.226141 
L 494.204416 42.516634 
L 495.68461 44.881657 
L 497.164805 42.280132 
L 498.645 40.62459 
L 500.125195 40.62459 
L 501.60539 42.043629 
L 503.085584 42.043629 
L 504.565779 39.915083 
L 507.526169 39.915083 
L 509.006364 41.570625 
L 510.486558 40.62459 
L 511.966753 40.62459 
L 513.446948 42.753136 
L 514.927143 39.442078 
L 516.407338 41.097594 
L 517.887532 42.280132 
L 519.367727 42.516634 
L 520.847922 40.861092 
L 522.328117 42.280132 
L 523.808312 41.570625 
L 525.288506 42.043629 
L 526.768701 39.915083 
L 528.248896 41.097594 
L 529.729091 40.388088 
L 531.209286 42.753136 
L 532.689481 41.097594 
L 534.169675 41.570625 
L 535.64987 41.807127 
L 537.130065 41.097594 
L 538.61026 43.226141 
L 540.090455 41.097594 
L 541.570649 43.226141 
L 543.050844 42.043629 
L 544.531039 42.280132 
L 546.011234 43.226141 
L 547.491429 41.334097 
L 548.971623 42.280132 
L 550.451818 41.097594 
L 551.932013 41.807127 
L 553.412208 42.043629 
L 556.372597 41.570625 
L 557.852792 41.570625 
L 559.332987 40.151585 
L 560.813182 40.151585 
L 562.293377 42.280132 
L 563.773571 42.753136 
L 565.253766 42.043629 
L 566.733961 42.753136 
L 569.694351 39.442078 
L 571.174545 42.043629 
L 572.65474 39.205576 
L 574.134935 40.861092 
L 575.61513 41.334097 
L 577.095325 41.097594 
L 578.575519 41.807127 
L 580.055714 41.334097 
L 581.535909 41.334097 
L 583.016104 41.097594 
L 584.496299 41.570625 
L 587.456688 41.570625 
L 588.936883 44.881657 
L 590.417078 40.62459 
L 591.897273 41.570625 
L 593.377468 41.097594 
L 594.857662 41.334097 
L 596.337857 42.043629 
L 597.818052 42.043629 
L 599.298247 42.753136 
L 600.778442 43.226141 
L 602.258636 41.097594 
L 603.738831 40.62459 
L 605.219026 43.226141 
L 606.699221 42.280132 
L 608.179416 41.570625 
L 609.65961 42.516634 
L 611.139805 40.151585 
L 612.62 39.442078 
L 614.100195 40.62459 
L 615.58039 40.62459 
L 617.060584 43.699145 
L 618.540779 41.570625 
L 621.501169 42.516634 
L 622.981364 41.570625 
L 624.461558 41.807127 
L 625.941753 41.570625 
L 627.421948 37.786563 
L 628.902143 40.388088 
L 630.382338 40.861092 
L 631.862532 42.516634 
L 633.342727 40.388088 
L 634.822922 39.678581 
L 636.303117 42.043629 
L 637.783312 42.989639 
L 639.263506 42.043629 
L 640.743701 42.043629 
L 642.223896 41.807127 
L 643.704091 40.151585 
L 645.184286 38.969074 
L 646.664481 41.097594 
L 648.144675 39.678581 
L 649.62487 42.516634 
L 651.105065 40.861092 
L 652.58526 41.570625 
L 654.065455 39.678581 
L 655.545649 42.043629 
L 657.025844 42.989639 
L 658.506039 43.699145 
L 659.986234 42.043629 
L 661.466429 41.807127 
L 662.946623 42.753136 
L 664.426818 41.097594 
L 667.387208 39.678581 
L 668.867403 39.915083 
L 670.347597 42.516634 
L 671.827792 41.570625 
L 673.307987 41.807127 
L 674.788182 40.62459 
L 674.788182 40.62459 
" clip-path="url(#p3cbab8cd00)" style="fill: none; stroke: #ff7f0e; stroke-width: 1.5; stroke-linecap: square"/>
   </g>
   <g id="patch_3">
    <path d="M 65.54 304 
L 65.54 16.2 
" style="fill: none; stroke: #000000; stroke-width: 0.8; stroke-linejoin: miter; stroke-linecap: square"/>
   </g>
   <g id="patch_4">
    <path d="M 703.8 304 
L 703.8 16.2 
" style="fill: none; stroke: #000000; stroke-width: 0.8; stroke-linejoin: miter; stroke-linecap: square"/>
   </g>
   <g id="patch_5">
    <path d="M 65.54 304 
L 703.8 304 
" style="fill: none; stroke: #000000; stroke-width: 0.8; stroke-linejoin: miter; stroke-linecap: square"/>
   </g>
   <g id="patch_6">
    <path d="M 65.54 16.2 
L 703.8 16.2 
" style="fill: none; stroke: #000000; stroke-width: 0.8; stroke-linejoin: miter; stroke-linecap: square"/>
   </g>
   <g id="legend_1">
    <g id="patch_7">
     <path d="M 497.976563 296.5 
L 693.3 296.5 
Q 696.3 296.5 696.3 293.5 
L 696.3 250.965625 
Q 696.3 247.965625 693.3 247.965625 
L 497.976563 247.965625 
Q 494.976563 247.965625 494.976563 250.965625 
L 494.976563 293.5 
Q 494.976563 296.5 497.976563 296.5 
z
" style="fill: #ffffff; opacity: 0.8; stroke: #cccccc; stroke-linejoin: miter"/>
    </g>
    <g id="line2d_18">
     <path d="M 500.976563 260.113281 
L 515.976563 260.113281 
L 530.976563 260.113281 
" style="fill: none; stroke: #1f77b4; stroke-width: 1.5; stroke-linecap: square"/>
    </g>
    <g id="text_18">
     <text style="font: 15px 'DejaVu Sans', 'Bitstream Vera Sans', 'Computer Modern Sans Serif', 'Lucida Grande', 'Verdana', 'Geneva', 'Lucid', 'Arial', 'Helvetica', 'Avant Garde', sans-serif; text-anchor: start" x="542.976563" y="265.363281" transform="rotate(-0 542.976563 265.363281)">Training Accuracy</text>
    </g>
    <g id="line2d_19">
     <path d="M 500.976563 282.130469 
L 515.976563 282.130469 
L 530.976563 282.130469 
" style="fill: none; stroke: #ff7f0e; stroke-width: 1.5; stroke-linecap: square"/>
    </g>
    <g id="text_19">
     <text style="font: 15px 'DejaVu Sans', 'Bitstream Vera Sans', 'Computer Modern Sans Serif', 'Lucida Grande', 'Verdana', 'Geneva', 'Lucid', 'Arial', 'Helvetica', 'Avant Garde', sans-serif; text-anchor: start" x="542.976563" y="287.380469" transform="rotate(-0 542.976563 287.380469)">Validation Accuracy</text>
    </g>
   </g>
  </g>
 </g>
 <defs>
  <clipPath id="p3cbab8cd00">
   <rect x="65.54" y="16.2" width="638.26" height="287.8"/>
  </clipPath>
 </defs>
</svg>
