<?xml version="1.0" encoding="utf-8" standalone="no"?>
<!DOCTYPE svg PUBLIC "-//W3C//DTD SVG 1.1//EN"
  "http://www.w3.org/Graphics/SVG/1.1/DTD/svg11.dtd">
<svg xmlns:xlink="http://www.w3.org/1999/xlink" width="720pt" height="360pt" viewBox="0 0 720 360" xmlns="http://www.w3.org/2000/svg" version="1.1">
 <metadata>
  <rdf:RDF xmlns:dc="http://purl.org/dc/elements/1.1/" xmlns:cc="http://creativecommons.org/ns#" xmlns:rdf="http://www.w3.org/1999/02/22-rdf-syntax-ns#">
   <cc:Work>
    <dc:type rdf:resource="http://purl.org/dc/dcmitype/StillImage"/>
    <dc:date>2023-07-19T13:43:54.998511</dc:date>
    <dc:format>image/svg+xml</dc:format>
    <dc:creator>
     <cc:Agent>
      <dc:title>Matplotlib v3.7.2, https://matplotlib.org/</dc:title>
     </cc:Agent>
    </dc:creator>
   </cc:Work>
  </rdf:RDF>
 </metadata>
 <defs>
  <style type="text/css">*{stroke-linejoin: round; stroke-linecap: butt}</style>
 </defs>
 <g id="figure_1">
  <g id="patch_1">
   <path d="M 0 360 
L 720 360 
L 720 0 
L 0 0 
z
" style="fill: #ffffff"/>
  </g>
  <g id="axes_1">
   <g id="patch_2">
    <path d="M 65.54 304 
L 703.8 304 
L 703.8 16.2 
L 65.54 16.2 
z
" style="fill: #ffffff"/>
   </g>
   <g id="matplotlib.axis_1">
    <g id="xtick_1">
     <g id="line2d_1">
      <defs>
       <path id="mbc71852925" d="M 0 0 
L 0 3.5 
" style="stroke: #000000; stroke-width: 0.8"/>
      </defs>
      <g>
       <use xlink:href="#mbc71852925" x="92.793526" y="304" style="stroke: #000000; stroke-width: 0.8"/>
      </g>
     </g>
     <g id="text_1">
      <text style="font: 15px 'DejaVu Sans', 'Bitstream Vera Sans', 'Computer Modern Sans Serif', 'Lucida Grande', 'Verdana', 'Geneva', 'Lucid', 'Arial', 'Helvetica', 'Avant Garde', sans-serif; text-anchor: middle" x="92.793526" y="322.397656" transform="rotate(-0 92.793526 322.397656)">0</text>
     </g>
    </g>
    <g id="xtick_2">
     <g id="line2d_2">
      <g>
       <use xlink:href="#mbc71852925" x="180.708127" y="304" style="stroke: #000000; stroke-width: 0.8"/>
      </g>
     </g>
     <g id="text_2">
      <text style="font: 15px 'DejaVu Sans', 'Bitstream Vera Sans', 'Computer Modern Sans Serif', 'Lucida Grande', 'Verdana', 'Geneva', 'Lucid', 'Arial', 'Helvetica', 'Avant Garde', sans-serif; text-anchor: middle" x="180.708127" y="322.397656" transform="rotate(-0 180.708127 322.397656)">50</text>
     </g>
    </g>
    <g id="xtick_3">
     <g id="line2d_3">
      <g>
       <use xlink:href="#mbc71852925" x="268.622727" y="304" style="stroke: #000000; stroke-width: 0.8"/>
      </g>
     </g>
     <g id="text_3">
      <text style="font: 15px 'DejaVu Sans', 'Bitstream Vera Sans', 'Computer Modern Sans Serif', 'Lucida Grande', 'Verdana', 'Geneva', 'Lucid', 'Arial', 'Helvetica', 'Avant Garde', sans-serif; text-anchor: middle" x="268.622727" y="322.397656" transform="rotate(-0 268.622727 322.397656)">100</text>
     </g>
    </g>
    <g id="xtick_4">
     <g id="line2d_4">
      <g>
       <use xlink:href="#mbc71852925" x="356.537328" y="304" style="stroke: #000000; stroke-width: 0.8"/>
      </g>
     </g>
     <g id="text_4">
      <text style="font: 15px 'DejaVu Sans', 'Bitstream Vera Sans', 'Computer Modern Sans Serif', 'Lucida Grande', 'Verdana', 'Geneva', 'Lucid', 'Arial', 'Helvetica', 'Avant Garde', sans-serif; text-anchor: middle" x="356.537328" y="322.397656" transform="rotate(-0 356.537328 322.397656)">150</text>
     </g>
    </g>
    <g id="xtick_5">
     <g id="line2d_5">
      <g>
       <use xlink:href="#mbc71852925" x="444.451928" y="304" style="stroke: #000000; stroke-width: 0.8"/>
      </g>
     </g>
     <g id="text_5">
      <text style="font: 15px 'DejaVu Sans', 'Bitstream Vera Sans', 'Computer Modern Sans Serif', 'Lucida Grande', 'Verdana', 'Geneva', 'Lucid', 'Arial', 'Helvetica', 'Avant Garde', sans-serif; text-anchor: middle" x="444.451928" y="322.397656" transform="rotate(-0 444.451928 322.397656)">200</text>
     </g>
    </g>
    <g id="xtick_6">
     <g id="line2d_6">
      <g>
       <use xlink:href="#mbc71852925" x="532.366529" y="304" style="stroke: #000000; stroke-width: 0.8"/>
      </g>
     </g>
     <g id="text_6">
      <text style="font: 15px 'DejaVu Sans', 'Bitstream Vera Sans', 'Computer Modern Sans Serif', 'Lucida Grande', 'Verdana', 'Geneva', 'Lucid', 'Arial', 'Helvetica', 'Avant Garde', sans-serif; text-anchor: middle" x="532.366529" y="322.397656" transform="rotate(-0 532.366529 322.397656)">250</text>
     </g>
    </g>
    <g id="xtick_7">
     <g id="line2d_7">
      <g>
       <use xlink:href="#mbc71852925" x="620.281129" y="304" style="stroke: #000000; stroke-width: 0.8"/>
      </g>
     </g>
     <g id="text_7">
      <text style="font: 15px 'DejaVu Sans', 'Bitstream Vera Sans', 'Computer Modern Sans Serif', 'Lucida Grande', 'Verdana', 'Geneva', 'Lucid', 'Arial', 'Helvetica', 'Avant Garde', sans-serif; text-anchor: middle" x="620.281129" y="322.397656" transform="rotate(-0 620.281129 322.397656)">300</text>
     </g>
    </g>
    <g id="text_8">
     <text style="font: 15px 'DejaVu Sans', 'Bitstream Vera Sans', 'Computer Modern Sans Serif', 'Lucida Grande', 'Verdana', 'Geneva', 'Lucid', 'Arial', 'Helvetica', 'Avant Garde', sans-serif; text-anchor: middle" x="384.67" y="340.914844" transform="rotate(-0 384.67 340.914844)">Epochs</text>
    </g>
   </g>
   <g id="matplotlib.axis_2">
    <g id="ytick_1">
     <g id="line2d_8">
      <defs>
       <path id="m8588fc4deb" d="M 0 0 
L -3.5 0 
" style="stroke: #000000; stroke-width: 0.8"/>
      </defs>
      <g>
       <use xlink:href="#m8588fc4deb" x="65.54" y="283.742209" style="stroke: #000000; stroke-width: 0.8"/>
      </g>
     </g>
     <g id="text_9">
      <text style="font: 15px 'DejaVu Sans', 'Bitstream Vera Sans', 'Computer Modern Sans Serif', 'Lucida Grande', 'Verdana', 'Geneva', 'Lucid', 'Arial', 'Helvetica', 'Avant Garde', sans-serif; text-anchor: end" x="58.54" y="289.441037" transform="rotate(-0 58.54 289.441037)">0.2</text>
     </g>
    </g>
    <g id="ytick_2">
     <g id="line2d_9">
      <g>
       <use xlink:href="#m8588fc4deb" x="65.54" y="240.37373" style="stroke: #000000; stroke-width: 0.8"/>
      </g>
     </g>
     <g id="text_10">
      <text style="font: 15px 'DejaVu Sans', 'Bitstream Vera Sans', 'Computer Modern Sans Serif', 'Lucida Grande', 'Verdana', 'Geneva', 'Lucid', 'Arial', 'Helvetica', 'Avant Garde', sans-serif; text-anchor: end" x="58.54" y="246.072558" transform="rotate(-0 58.54 246.072558)">0.4</text>
     </g>
    </g>
    <g id="ytick_3">
     <g id="line2d_10">
      <g>
       <use xlink:href="#m8588fc4deb" x="65.54" y="197.00525" style="stroke: #000000; stroke-width: 0.8"/>
      </g>
     </g>
     <g id="text_11">
      <text style="font: 15px 'DejaVu Sans', 'Bitstream Vera Sans', 'Computer Modern Sans Serif', 'Lucida Grande', 'Verdana', 'Geneva', 'Lucid', 'Arial', 'Helvetica', 'Avant Garde', sans-serif; text-anchor: end" x="58.54" y="202.704078" transform="rotate(-0 58.54 202.704078)">0.6</text>
     </g>
    </g>
    <g id="ytick_4">
     <g id="line2d_11">
      <g>
       <use xlink:href="#m8588fc4deb" x="65.54" y="153.63677" style="stroke: #000000; stroke-width: 0.8"/>
      </g>
     </g>
     <g id="text_12">
      <text style="font: 15px 'DejaVu Sans', 'Bitstream Vera Sans', 'Computer Modern Sans Serif', 'Lucida Grande', 'Verdana', 'Geneva', 'Lucid', 'Arial', 'Helvetica', 'Avant Garde', sans-serif; text-anchor: end" x="58.54" y="159.335598" transform="rotate(-0 58.54 159.335598)">0.8</text>
     </g>
    </g>
    <g id="ytick_5">
     <g id="line2d_12">
      <g>
       <use xlink:href="#m8588fc4deb" x="65.54" y="110.26829" style="stroke: #000000; stroke-width: 0.8"/>
      </g>
     </g>
     <g id="text_13">
      <text style="font: 15px 'DejaVu Sans', 'Bitstream Vera Sans', 'Computer Modern Sans Serif', 'Lucida Grande', 'Verdana', 'Geneva', 'Lucid', 'Arial', 'Helvetica', 'Avant Garde', sans-serif; text-anchor: end" x="58.54" y="115.967118" transform="rotate(-0 58.54 115.967118)">1.0</text>
     </g>
    </g>
    <g id="ytick_6">
     <g id="line2d_13">
      <g>
       <use xlink:href="#m8588fc4deb" x="65.54" y="66.89981" style="stroke: #000000; stroke-width: 0.8"/>
      </g>
     </g>
     <g id="text_14">
      <text style="font: 15px 'DejaVu Sans', 'Bitstream Vera Sans', 'Computer Modern Sans Serif', 'Lucida Grande', 'Verdana', 'Geneva', 'Lucid', 'Arial', 'Helvetica', 'Avant Garde', sans-serif; text-anchor: end" x="58.54" y="72.598638" transform="rotate(-0 58.54 72.598638)">1.2</text>
     </g>
    </g>
    <g id="ytick_7">
     <g id="line2d_14">
      <g>
       <use xlink:href="#m8588fc4deb" x="65.54" y="23.531331" style="stroke: #000000; stroke-width: 0.8"/>
      </g>
     </g>
     <g id="text_15">
      <text style="font: 15px 'DejaVu Sans', 'Bitstream Vera Sans', 'Computer Modern Sans Serif', 'Lucida Grande', 'Verdana', 'Geneva', 'Lucid', 'Arial', 'Helvetica', 'Avant Garde', sans-serif; text-anchor: end" x="58.54" y="29.230159" transform="rotate(-0 58.54 29.230159)">1.4</text>
     </g>
    </g>
    <g id="text_16">
     <text style="font: 15px 'DejaVu Sans', 'Bitstream Vera Sans', 'Computer Modern Sans Serif', 'Lucida Grande', 'Verdana', 'Geneva', 'Lucid', 'Arial', 'Helvetica', 'Avant Garde', sans-serif; text-anchor: middle" x="27.565781" y="160.1" transform="rotate(-90 27.565781 160.1)">Loss</text>
    </g>
   </g>
   <g id="line2d_15">
    <path d="M 94.551818 29.281818 
L 96.31011 42.604975 
L 98.068402 54.310695 
L 99.826694 68.79282 
L 101.584986 81.516783 
L 103.343278 98.068403 
L 106.859862 119.820633 
L 108.618154 128.82084 
L 110.376446 136.284726 
L 112.134738 145.350811 
L 113.89303 149.420745 
L 115.651322 156.15668 
L 117.409614 162.028306 
L 119.167906 161.374918 
L 120.926198 169.849603 
L 122.68449 174.087029 
L 124.442782 174.724778 
L 126.201074 177.801801 
L 129.717658 185.554673 
L 131.47595 189.979652 
L 133.234242 188.335098 
L 134.992534 190.986689 
L 136.750826 194.902868 
L 138.509118 199.299218 
L 140.26741 199.196673 
L 142.025702 198.058074 
L 143.783994 205.145254 
L 145.542287 207.242046 
L 147.300579 205.194368 
L 149.058871 207.099951 
L 150.817163 208.390274 
L 154.333747 211.265463 
L 156.092039 214.172564 
L 157.850331 216.509655 
L 159.608623 216.681452 
L 161.366915 217.349833 
L 163.125207 217.402863 
L 164.883499 220.589172 
L 166.641791 222.968404 
L 168.400083 221.224375 
L 170.158375 224.470029 
L 171.916667 225.492272 
L 173.674959 225.919611 
L 175.433251 225.687889 
L 177.191543 226.990387 
L 178.949835 227.569205 
L 180.708127 232.188883 
L 182.466419 228.977286 
L 184.224711 229.71696 
L 185.983003 229.317571 
L 187.741295 231.753905 
L 189.499587 230.978668 
L 191.257879 234.170302 
L 193.016171 234.399285 
L 194.774463 235.263974 
L 196.532755 238.043985 
L 198.291047 235.996423 
L 200.049339 233.460846 
L 201.807631 239.533415 
L 203.565923 240.621471 
L 205.324215 237.708955 
L 207.082507 239.515404 
L 208.840799 239.421816 
L 210.599091 242.520301 
L 212.357383 240.244202 
L 214.115675 244.400183 
L 215.873967 244.452283 
L 217.632259 243.833869 
L 219.390551 241.60883 
L 221.148843 244.548527 
L 222.907135 248.325953 
L 224.665427 246.505512 
L 226.423719 243.114209 
L 228.182011 246.936542 
L 229.940303 249.160586 
L 231.698595 248.322586 
L 233.456887 248.639283 
L 235.215179 247.510869 
L 236.973471 252.779883 
L 238.731763 249.689437 
L 240.490055 252.78968 
L 242.248347 249.059449 
L 244.006639 249.939377 
L 245.764931 253.014449 
L 247.523223 252.115864 
L 249.281515 253.139981 
L 251.039807 254.443804 
L 252.798099 250.953781 
L 254.556391 250.078144 
L 256.314683 252.068662 
L 258.072975 255.967555 
L 259.831267 256.836251 
L 261.589559 254.847989 
L 263.347851 257.959398 
L 265.106143 255.845636 
L 266.864435 255.24584 
L 268.622727 257.755697 
L 270.381019 257.571783 
L 272.139311 256.384646 
L 273.897603 260.178266 
L 275.655895 257.644983 
L 277.414187 260.052255 
L 279.172479 257.198508 
L 280.930771 259.901662 
L 282.689063 260.103224 
L 284.447355 261.943996 
L 286.205647 262.322635 
L 287.963939 259.907698 
L 289.722231 260.947118 
L 291.480523 264.062896 
L 293.238815 261.49502 
L 294.997107 257.956671 
L 296.755399 262.59213 
L 298.513691 262.103191 
L 300.271983 265.084525 
L 302.030275 262.699167 
L 303.788567 264.899746 
L 305.54686 266.123777 
L 307.305152 263.08262 
L 309.063444 265.786646 
L 310.821736 265.830436 
L 312.580028 268.019072 
L 314.33832 267.457638 
L 316.096612 265.564572 
L 317.854904 264.720705 
L 319.613196 262.27131 
L 321.371488 262.588602 
L 323.12978 263.820188 
L 324.888072 269.969394 
L 326.646364 266.89871 
L 330.162948 270.308839 
L 331.92124 266.086237 
L 333.679532 266.003861 
L 335.437824 269.215457 
L 337.196116 271.438997 
L 338.954408 268.71928 
L 340.7127 268.501219 
L 342.470992 269.245934 
L 344.229284 273.580946 
L 345.987576 268.607022 
L 347.745868 270.166898 
L 349.50416 268.752174 
L 353.020744 266.420925 
L 354.779036 271.665692 
L 356.537328 268.372863 
L 358.29562 267.985584 
L 360.053912 273.750129 
L 361.812204 269.360248 
L 363.570496 278.318411 
L 365.328788 269.709392 
L 367.08708 272.53665 
L 368.845372 270.754105 
L 370.603664 273.653499 
L 372.361956 270.661964 
L 374.120248 275.314028 
L 375.87854 272.809874 
L 377.636832 272.610431 
L 379.395124 268.416129 
L 381.153416 276.381472 
L 382.911708 269.188193 
L 384.67 275.576647 
L 386.428292 274.373085 
L 388.186584 272.954868 
L 389.944876 271.346746 
L 391.703168 272.66785 
L 393.46146 273.579666 
L 395.219752 276.660312 
L 396.978044 274.868451 
L 398.736336 273.63019 
L 400.494628 274.840925 
L 402.25292 273.86715 
L 404.011212 277.052635 
L 405.769504 276.342158 
L 407.527796 276.251801 
L 409.286088 272.460691 
L 411.04438 277.395256 
L 412.802672 274.019995 
L 414.560964 275.55305 
L 416.319256 276.655627 
L 418.077548 273.464455 
L 419.83584 276.973202 
L 421.594132 274.856063 
L 423.352424 279.557513 
L 425.110716 276.180695 
L 426.869008 275.510472 
L 428.6273 276.69856 
L 430.385592 276.340442 
L 432.143884 278.807001 
L 433.902176 280.559958 
L 435.660468 279.693879 
L 437.41876 276.311067 
L 440.935344 280.438352 
L 442.693636 275.379027 
L 444.451928 276.755956 
L 446.21022 276.377976 
L 447.968512 277.698759 
L 449.726804 279.765699 
L 451.485096 280.978124 
L 453.243388 278.521589 
L 455.00168 276.978728 
L 456.759972 280.453919 
L 458.518264 281.483749 
L 460.276556 281.948781 
L 462.034848 279.739035 
L 463.79314 280.607292 
L 465.551433 278.560496 
L 467.309725 281.057234 
L 469.068017 279.068166 
L 470.826309 278.363334 
L 472.584601 282.936973 
L 474.342893 280.172999 
L 476.101185 283.621097 
L 477.859477 282.285537 
L 479.617769 279.558152 
L 481.376061 279.947907 
L 483.134353 281.16596 
L 484.892645 281.411344 
L 486.650937 282.255719 
L 488.409229 278.137373 
L 491.925813 282.952664 
L 493.684105 280.355083 
L 495.442397 281.571573 
L 497.200689 280.145588 
L 498.958981 283.90362 
L 500.717273 282.177004 
L 502.475565 279.346664 
L 504.233857 281.58538 
L 505.992149 282.840448 
L 507.750441 282.924873 
L 509.508733 282.061346 
L 511.267025 284.199783 
L 513.025317 279.231701 
L 514.783609 283.853349 
L 516.541901 284.301194 
L 518.300193 280.302851 
L 520.058485 282.813978 
L 521.816777 283.010596 
L 523.575069 280.969141 
L 525.333361 284.207292 
L 527.091653 284.573261 
L 528.849945 285.578088 
L 530.608237 285.170859 
L 532.366529 280.31437 
L 534.124821 279.618828 
L 535.883113 284.13639 
L 537.641405 285.193329 
L 539.399697 285.090099 
L 541.157989 284.331538 
L 542.916281 282.42748 
L 544.674573 285.607705 
L 546.432865 282.962122 
L 548.191157 282.489151 
L 549.949449 284.219234 
L 551.707741 282.463799 
L 553.466033 282.559785 
L 555.224325 285.445786 
L 556.982617 286.10405 
L 558.740909 280.537873 
L 562.257493 286.234077 
L 564.015785 283.52883 
L 565.774077 286.086935 
L 567.532369 285.625231 
L 569.290661 284.056589 
L 571.048953 286.110529 
L 572.807245 285.292036 
L 574.565537 287.794671 
L 576.323829 283.371144 
L 578.082121 283.370384 
L 579.840413 287.051077 
L 581.598705 285.402724 
L 585.115289 287.109262 
L 586.873581 283.825444 
L 588.631873 283.264934 
L 590.390165 285.534635 
L 592.148457 285.624055 
L 593.906749 285.046374 
L 595.665041 283.15065 
L 597.423333 285.308315 
L 599.181625 285.371255 
L 600.939917 286.594302 
L 602.698209 288.177155 
L 604.456501 283.20916 
L 606.214793 285.102978 
L 607.973085 286.706311 
L 609.731377 289.712077 
L 611.489669 285.718561 
L 613.247961 288.572322 
L 615.006253 287.169446 
L 616.764545 288.461685 
L 618.522837 284.841454 
L 620.281129 288.184988 
L 622.039421 287.055485 
L 623.797713 286.883077 
L 625.556006 284.938811 
L 627.314298 286.866744 
L 629.07259 285.359374 
L 630.830882 286.874912 
L 632.589174 288.037544 
L 634.347466 287.009576 
L 636.105758 287.379293 
L 637.86405 290.143281 
L 639.622342 285.862692 
L 641.380634 287.816682 
L 643.138926 288.01354 
L 644.897218 288.629149 
L 646.65551 288.289155 
L 648.413802 287.791172 
L 650.172094 287.682445 
L 651.930386 289.549334 
L 653.688678 285.471161 
L 655.44697 287.582365 
L 657.205262 288.734386 
L 658.963554 288.941878 
L 660.721846 290.471268 
L 662.480138 289.472858 
L 664.23843 289.253527 
L 665.996722 286.577583 
L 667.755014 287.442974 
L 669.513306 290.918182 
L 671.271598 290.727706 
L 673.02989 286.952752 
L 674.788182 285.026079 
L 674.788182 285.026079 
" clip-path="url(#p919155db4a)" style="fill: none; stroke: #1f77b4; stroke-width: 1.5; stroke-linecap: square"/>
   </g>
   <g id="line2d_16">
    <path d="M 94.551818 37.096833 
L 96.31011 47.620372 
L 99.826694 87.431203 
L 101.584986 103.788977 
L 103.343278 115.675813 
L 105.10157 126.118959 
L 106.859862 140.441915 
L 108.618154 148.50687 
L 110.376446 156.024898 
L 112.134738 161.716573 
L 113.89303 170.55217 
L 115.651322 172.613781 
L 117.409614 179.129154 
L 119.167906 183.822903 
L 120.926198 187.719657 
L 122.68449 192.511054 
L 124.442782 196.003597 
L 126.201074 194.664095 
L 127.959366 199.103032 
L 131.47595 207.207356 
L 133.234242 208.899176 
L 134.992534 208.474182 
L 136.750826 213.287021 
L 138.509118 215.304067 
L 140.26741 217.792352 
L 142.025702 215.433445 
L 145.542287 220.882178 
L 147.300579 219.432893 
L 150.817163 224.753916 
L 152.575455 226.216746 
L 154.333747 219.951087 
L 156.092039 225.312494 
L 157.850331 228.226794 
L 159.608623 226.882219 
L 163.125207 230.6809 
L 164.883499 233.050018 
L 166.641791 232.383266 
L 168.400083 231.836397 
L 170.158375 233.641522 
L 171.916667 237.407238 
L 173.674959 234.689569 
L 175.433251 237.055974 
L 177.191543 236.065474 
L 178.949835 235.996817 
L 180.708127 237.181112 
L 182.466419 234.977295 
L 184.224711 237.681044 
L 185.983003 239.388916 
L 187.741295 238.676429 
L 189.499587 239.151293 
L 191.257879 237.90558 
L 193.016171 240.498996 
L 194.774463 240.225539 
L 196.532755 240.072742 
L 198.291047 242.484053 
L 200.049339 241.367194 
L 201.807631 241.644296 
L 203.565923 243.620125 
L 205.324215 242.814915 
L 207.082507 242.537691 
L 208.840799 242.409593 
L 210.599091 242.883663 
L 212.357383 246.346421 
L 214.115675 245.605279 
L 215.873967 244.698526 
L 217.632259 244.63049 
L 219.390551 244.708556 
L 221.148843 243.225485 
L 222.907135 244.192668 
L 224.665427 242.438674 
L 226.423719 243.162166 
L 228.182011 240.777396 
L 229.940303 246.278152 
L 231.698595 246.542193 
L 233.456887 245.944226 
L 235.215179 246.257149 
L 236.973471 245.070812 
L 238.731763 241.907316 
L 240.490055 245.222556 
L 242.248347 244.904877 
L 244.006639 245.064628 
L 245.764931 244.360284 
L 247.523223 243.829701 
L 249.281515 245.887719 
L 251.039807 245.066948 
L 252.798099 243.105769 
L 254.556391 245.950947 
L 256.314683 245.641353 
L 258.072975 248.891039 
L 259.831267 245.149996 
L 261.589559 246.503884 
L 263.347851 245.442886 
L 266.864435 248.068206 
L 268.622727 246.705278 
L 270.381019 245.819444 
L 272.139311 248.015602 
L 273.897603 244.099804 
L 277.414187 249.489025 
L 279.172479 248.381025 
L 280.930771 246.698383 
L 282.689063 247.005328 
L 284.447355 247.981487 
L 286.205647 249.301544 
L 287.963939 247.429772 
L 289.722231 246.100907 
L 291.480523 244.959465 
L 293.238815 248.756136 
L 294.997107 250.453196 
L 296.755399 248.297815 
L 298.513691 249.250497 
L 300.271983 248.561915 
L 302.030275 250.491564 
L 303.788567 248.827533 
L 305.54686 243.917072 
L 307.305152 248.483351 
L 309.063444 247.573884 
L 310.821736 247.230484 
L 312.580028 245.838811 
L 314.33832 244.650097 
L 316.096612 246.501292 
L 317.854904 246.874121 
L 319.613196 248.822905 
L 321.371488 250.291591 
L 323.12978 251.415416 
L 324.888072 250.536393 
L 326.646364 250.139595 
L 328.404656 250.726601 
L 330.162948 249.991108 
L 331.92124 250.878843 
L 335.437824 248.819862 
L 337.196116 246.634502 
L 338.954408 248.070688 
L 340.7127 246.700483 
L 342.470992 248.536886 
L 344.229284 248.968562 
L 345.987576 247.9543 
L 347.745868 247.536867 
L 349.50416 247.632278 
L 351.262452 249.977214 
L 353.020744 249.140462 
L 354.779036 247.829362 
L 356.537328 248.285181 
L 358.29562 247.886432 
L 360.053912 248.988518 
L 361.812204 248.66753 
L 363.570496 247.806349 
L 365.328788 250.306189 
L 367.08708 247.124889 
L 368.845372 248.500205 
L 370.603664 250.062234 
L 372.361956 249.734796 
L 374.120248 248.82529 
L 375.87854 248.189273 
L 377.636832 250.374187 
L 379.395124 250.438132 
L 381.153416 248.428182 
L 382.911708 247.275405 
L 384.67 250.401781 
L 386.428292 249.244707 
L 389.944876 247.567053 
L 391.703168 248.7425 
L 393.46146 244.228974 
L 395.219752 247.02401 
L 396.978044 245.850366 
L 398.736336 248.586646 
L 400.494628 249.896434 
L 402.25292 248.628277 
L 404.011212 244.363386 
L 405.769504 246.466292 
L 407.527796 249.078636 
L 409.286088 248.326735 
L 412.802672 245.610598 
L 414.560964 247.320183 
L 416.319256 242.321381 
L 418.077548 245.629681 
L 419.83584 246.562775 
L 421.594132 247.000222 
L 423.352424 246.767446 
L 425.110716 246.19003 
L 428.6273 249.458089 
L 430.385592 247.716205 
L 432.143884 248.379261 
L 433.902176 246.663725 
L 437.41876 248.488922 
L 439.177052 248.554308 
L 440.935344 246.258493 
L 442.693636 248.933833 
L 444.451928 247.834487 
L 446.21022 246.987168 
L 447.968512 245.03346 
L 449.726804 242.807316 
L 451.485096 245.636461 
L 453.243388 246.382532 
L 455.00168 246.746993 
L 456.759972 248.896538 
L 458.518264 248.844386 
L 460.276556 250.032778 
L 462.034848 248.919176 
L 463.79314 248.025509 
L 465.551433 249.871599 
L 467.309725 249.12342 
L 469.068017 247.721899 
L 470.826309 246.677154 
L 472.584601 246.964576 
L 474.342893 245.065649 
L 476.101185 246.627186 
L 477.859477 245.163839 
L 479.617769 242.134805 
L 481.376061 247.138117 
L 483.134353 245.618392 
L 484.892645 243.789181 
L 486.650937 245.810157 
L 488.409229 246.745416 
L 490.167521 246.007622 
L 491.925813 247.589206 
L 493.684105 248.694136 
L 495.442397 249.039079 
L 497.200689 246.945815 
L 498.958981 245.058644 
L 500.717273 246.654257 
L 502.475565 247.139591 
L 504.233857 248.696785 
L 505.992149 243.700485 
L 507.750441 246.781431 
L 509.508733 249.544459 
L 511.267025 246.966211 
L 513.025317 250.746092 
L 514.783609 250.543457 
L 516.541901 248.224538 
L 518.300193 249.850183 
L 520.058485 249.091535 
L 521.816777 245.712917 
L 523.575069 246.669845 
L 525.333361 247.17673 
L 527.091653 245.609357 
L 528.849945 245.083343 
L 532.366529 247.604877 
L 534.124821 249.632684 
L 535.883113 247.757991 
L 537.641405 247.821323 
L 539.399697 246.228307 
L 541.157989 248.520264 
L 542.916281 245.561077 
L 544.674573 248.275158 
L 546.432865 249.544317 
L 548.191157 246.763866 
L 549.949449 244.337284 
L 553.466033 247.65363 
L 555.224325 248.053782 
L 556.982617 250.949367 
L 558.740909 248.506771 
L 560.499201 249.385949 
L 562.257493 249.929399 
L 564.015785 249.340835 
L 567.532369 244.87084 
L 569.290661 244.897704 
L 571.048953 248.518003 
L 572.807245 249.163035 
L 574.565537 248.856633 
L 576.323829 249.830718 
L 578.082121 251.26302 
L 579.840413 246.194425 
L 581.598705 249.837807 
L 583.356997 251.309943 
L 585.115289 248.412465 
L 586.873581 248.218076 
L 588.631873 247.300666 
L 590.390165 249.431386 
L 592.148457 250.439625 
L 593.906749 250.337131 
L 595.665041 246.423892 
L 597.423333 248.165511 
L 599.181625 245.586765 
L 600.939917 249.08608 
L 602.698209 248.437307 
L 604.456501 246.814202 
L 606.214793 248.624684 
L 607.973085 248.440312 
L 609.731377 247.121321 
L 611.489669 245.134357 
L 613.247961 245.857035 
L 615.006253 245.516202 
L 616.764545 247.841208 
L 618.522837 247.394545 
L 620.281129 245.109813 
L 622.039421 246.988913 
L 623.797713 245.747911 
L 625.556006 246.740272 
L 629.07259 249.860833 
L 630.830882 248.318754 
L 632.589174 248.878301 
L 634.347466 248.072723 
L 636.105758 247.011409 
L 637.86405 247.413222 
L 639.622342 246.801781 
L 641.380634 244.5884 
L 643.138926 245.341607 
L 644.897218 244.246054 
L 646.65551 246.807992 
L 648.413802 246.383411 
L 650.172094 245.366455 
L 651.930386 245.351727 
L 653.688678 243.467606 
L 655.44697 247.241994 
L 657.205262 244.541638 
L 658.963554 246.386636 
L 660.721846 246.376587 
L 662.480138 242.223702 
L 664.23843 242.575108 
L 665.996722 243.625334 
L 667.755014 241.749271 
L 669.513306 242.395518 
L 671.271598 243.862678 
L 673.02989 239.630215 
L 674.788182 240.339742 
L 674.788182 240.339742 
" clip-path="url(#p919155db4a)" style="fill: none; stroke: #ff7f0e; stroke-width: 1.5; stroke-linecap: square"/>
   </g>
   <g id="patch_3">
    <path d="M 65.54 304 
L 65.54 16.2 
" style="fill: none; stroke: #000000; stroke-width: 0.8; stroke-linejoin: miter; stroke-linecap: square"/>
   </g>
   <g id="patch_4">
    <path d="M 703.8 304 
L 703.8 16.2 
" style="fill: none; stroke: #000000; stroke-width: 0.8; stroke-linejoin: miter; stroke-linecap: square"/>
   </g>
   <g id="patch_5">
    <path d="M 65.54 304 
L 703.8 304 
" style="fill: none; stroke: #000000; stroke-width: 0.8; stroke-linejoin: miter; stroke-linecap: square"/>
   </g>
   <g id="patch_6">
    <path d="M 65.54 16.2 
L 703.8 16.2 
" style="fill: none; stroke: #000000; stroke-width: 0.8; stroke-linejoin: miter; stroke-linecap: square"/>
   </g>
   <g id="legend_1">
    <g id="patch_7">
     <path d="M 533.559375 72.234375 
L 693.3 72.234375 
Q 696.3 72.234375 696.3 69.234375 
L 696.3 26.7 
Q 696.3 23.7 693.3 23.7 
L 533.559375 23.7 
Q 530.559375 23.7 530.559375 26.7 
L 530.559375 69.234375 
Q 530.559375 72.234375 533.559375 72.234375 
z
" style="fill: #ffffff; opacity: 0.8; stroke: #cccccc; stroke-linejoin: miter"/>
    </g>
    <g id="line2d_17">
     <path d="M 536.559375 35.847656 
L 551.559375 35.847656 
L 566.559375 35.847656 
" style="fill: none; stroke: #1f77b4; stroke-width: 1.5; stroke-linecap: square"/>
    </g>
    <g id="text_17">
     <text style="font: 15px 'DejaVu Sans', 'Bitstream Vera Sans', 'Computer Modern Sans Serif', 'Lucida Grande', 'Verdana', 'Geneva', 'Lucid', 'Arial', 'Helvetica', 'Avant Garde', sans-serif; text-anchor: start" x="578.559375" y="41.097656" transform="rotate(-0 578.559375 41.097656)">Training Loss</text>
    </g>
    <g id="line2d_18">
     <path d="M 536.559375 57.864844 
L 551.559375 57.864844 
L 566.559375 57.864844 
" style="fill: none; stroke: #ff7f0e; stroke-width: 1.5; stroke-linecap: square"/>
    </g>
    <g id="text_18">
     <text style="font: 15px 'DejaVu Sans', 'Bitstream Vera Sans', 'Computer Modern Sans Serif', 'Lucida Grande', 'Verdana', 'Geneva', 'Lucid', 'Arial', 'Helvetica', 'Avant Garde', sans-serif; text-anchor: start" x="578.559375" y="63.114844" transform="rotate(-0 578.559375 63.114844)">Validation Loss</text>
    </g>
   </g>
  </g>
 </g>
 <defs>
  <clipPath id="p919155db4a">
   <rect x="65.54" y="16.2" width="638.26" height="287.8"/>
  </clipPath>
 </defs>
</svg>
