<?xml version="1.0" encoding="utf-8" standalone="no"?>
<!DOCTYPE svg PUBLIC "-//W3C//DTD SVG 1.1//EN"
  "http://www.w3.org/Graphics/SVG/1.1/DTD/svg11.dtd">
<svg xmlns:xlink="http://www.w3.org/1999/xlink" width="720pt" height="360pt" viewBox="0 0 720 360" xmlns="http://www.w3.org/2000/svg" version="1.1">
 <metadata>
  <rdf:RDF xmlns:dc="http://purl.org/dc/elements/1.1/" xmlns:cc="http://creativecommons.org/ns#" xmlns:rdf="http://www.w3.org/1999/02/22-rdf-syntax-ns#">
   <cc:Work>
    <dc:type rdf:resource="http://purl.org/dc/dcmitype/StillImage"/>
    <dc:date>2023-07-19T13:45:25.323486</dc:date>
    <dc:format>image/svg+xml</dc:format>
    <dc:creator>
     <cc:Agent>
      <dc:title>Matplotlib v3.7.2, https://matplotlib.org/</dc:title>
     </cc:Agent>
    </dc:creator>
   </cc:Work>
  </rdf:RDF>
 </metadata>
 <defs>
  <style type="text/css">*{stroke-linejoin: round; stroke-linecap: butt}</style>
 </defs>
 <g id="figure_1">
  <g id="patch_1">
   <path d="M 0 360 
L 720 360 
L 720 0 
L 0 0 
z
" style="fill: #ffffff"/>
  </g>
  <g id="axes_1">
   <g id="patch_2">
    <path d="M 65.54 304 
L 703.8 304 
L 703.8 16.2 
L 65.54 16.2 
z
" style="fill: #ffffff"/>
   </g>
   <g id="matplotlib.axis_1">
    <g id="xtick_1">
     <g id="line2d_1">
      <defs>
       <path id="m5c854edbc9" d="M 0 0 
L 0 3.5 
" style="stroke: #000000; stroke-width: 0.8"/>
      </defs>
      <g>
       <use xlink:href="#m5c854edbc9" x="93.071623" y="304" style="stroke: #000000; stroke-width: 0.8"/>
      </g>
     </g>
     <g id="text_1">
      <text style="font: 15px 'DejaVu Sans', 'Bitstream Vera Sans', 'Computer Modern Sans Serif', 'Lucida Grande', 'Verdana', 'Geneva', 'Lucid', 'Arial', 'Helvetica', 'Avant Garde', sans-serif; text-anchor: middle" x="93.071623" y="322.397656" transform="rotate(-0 93.071623 322.397656)">0</text>
     </g>
    </g>
    <g id="xtick_2">
     <g id="line2d_2">
      <g>
       <use xlink:href="#m5c854edbc9" x="167.081364" y="304" style="stroke: #000000; stroke-width: 0.8"/>
      </g>
     </g>
     <g id="text_2">
      <text style="font: 15px 'DejaVu Sans', 'Bitstream Vera Sans', 'Computer Modern Sans Serif', 'Lucida Grande', 'Verdana', 'Geneva', 'Lucid', 'Arial', 'Helvetica', 'Avant Garde', sans-serif; text-anchor: middle" x="167.081364" y="322.397656" transform="rotate(-0 167.081364 322.397656)">50</text>
     </g>
    </g>
    <g id="xtick_3">
     <g id="line2d_3">
      <g>
       <use xlink:href="#m5c854edbc9" x="241.091104" y="304" style="stroke: #000000; stroke-width: 0.8"/>
      </g>
     </g>
     <g id="text_3">
      <text style="font: 15px 'DejaVu Sans', 'Bitstream Vera Sans', 'Computer Modern Sans Serif', 'Lucida Grande', 'Verdana', 'Geneva', 'Lucid', 'Arial', 'Helvetica', 'Avant Garde', sans-serif; text-anchor: middle" x="241.091104" y="322.397656" transform="rotate(-0 241.091104 322.397656)">100</text>
     </g>
    </g>
    <g id="xtick_4">
     <g id="line2d_4">
      <g>
       <use xlink:href="#m5c854edbc9" x="315.100844" y="304" style="stroke: #000000; stroke-width: 0.8"/>
      </g>
     </g>
     <g id="text_4">
      <text style="font: 15px 'DejaVu Sans', 'Bitstream Vera Sans', 'Computer Modern Sans Serif', 'Lucida Grande', 'Verdana', 'Geneva', 'Lucid', 'Arial', 'Helvetica', 'Avant Garde', sans-serif; text-anchor: middle" x="315.100844" y="322.397656" transform="rotate(-0 315.100844 322.397656)">150</text>
     </g>
    </g>
    <g id="xtick_5">
     <g id="line2d_5">
      <g>
       <use xlink:href="#m5c854edbc9" x="389.110584" y="304" style="stroke: #000000; stroke-width: 0.8"/>
      </g>
     </g>
     <g id="text_5">
      <text style="font: 15px 'DejaVu Sans', 'Bitstream Vera Sans', 'Computer Modern Sans Serif', 'Lucida Grande', 'Verdana', 'Geneva', 'Lucid', 'Arial', 'Helvetica', 'Avant Garde', sans-serif; text-anchor: middle" x="389.110584" y="322.397656" transform="rotate(-0 389.110584 322.397656)">200</text>
     </g>
    </g>
    <g id="xtick_6">
     <g id="line2d_6">
      <g>
       <use xlink:href="#m5c854edbc9" x="463.120325" y="304" style="stroke: #000000; stroke-width: 0.8"/>
      </g>
     </g>
     <g id="text_6">
      <text style="font: 15px 'DejaVu Sans', 'Bitstream Vera Sans', 'Computer Modern Sans Serif', 'Lucida Grande', 'Verdana', 'Geneva', 'Lucid', 'Arial', 'Helvetica', 'Avant Garde', sans-serif; text-anchor: middle" x="463.120325" y="322.397656" transform="rotate(-0 463.120325 322.397656)">250</text>
     </g>
    </g>
    <g id="xtick_7">
     <g id="line2d_7">
      <g>
       <use xlink:href="#m5c854edbc9" x="537.130065" y="304" style="stroke: #000000; stroke-width: 0.8"/>
      </g>
     </g>
     <g id="text_7">
      <text style="font: 15px 'DejaVu Sans', 'Bitstream Vera Sans', 'Computer Modern Sans Serif', 'Lucida Grande', 'Verdana', 'Geneva', 'Lucid', 'Arial', 'Helvetica', 'Avant Garde', sans-serif; text-anchor: middle" x="537.130065" y="322.397656" transform="rotate(-0 537.130065 322.397656)">300</text>
     </g>
    </g>
    <g id="xtick_8">
     <g id="line2d_8">
      <g>
       <use xlink:href="#m5c854edbc9" x="611.139805" y="304" style="stroke: #000000; stroke-width: 0.8"/>
      </g>
     </g>
     <g id="text_8">
      <text style="font: 15px 'DejaVu Sans', 'Bitstream Vera Sans', 'Computer Modern Sans Serif', 'Lucida Grande', 'Verdana', 'Geneva', 'Lucid', 'Arial', 'Helvetica', 'Avant Garde', sans-serif; text-anchor: middle" x="611.139805" y="322.397656" transform="rotate(-0 611.139805 322.397656)">350</text>
     </g>
    </g>
    <g id="xtick_9">
     <g id="line2d_9">
      <g>
       <use xlink:href="#m5c854edbc9" x="685.149545" y="304" style="stroke: #000000; stroke-width: 0.8"/>
      </g>
     </g>
     <g id="text_9">
      <text style="font: 15px 'DejaVu Sans', 'Bitstream Vera Sans', 'Computer Modern Sans Serif', 'Lucida Grande', 'Verdana', 'Geneva', 'Lucid', 'Arial', 'Helvetica', 'Avant Garde', sans-serif; text-anchor: middle" x="685.149545" y="322.397656" transform="rotate(-0 685.149545 322.397656)">400</text>
     </g>
    </g>
    <g id="text_10">
     <text style="font: 15px 'DejaVu Sans', 'Bitstream Vera Sans', 'Computer Modern Sans Serif', 'Lucida Grande', 'Verdana', 'Geneva', 'Lucid', 'Arial', 'Helvetica', 'Avant Garde', sans-serif; text-anchor: middle" x="384.67" y="340.914844" transform="rotate(-0 384.67 340.914844)">Epochs</text>
    </g>
   </g>
   <g id="matplotlib.axis_2">
    <g id="ytick_1">
     <g id="line2d_10">
      <defs>
       <path id="mc5cf7ea7a1" d="M 0 0 
L -3.5 0 
" style="stroke: #000000; stroke-width: 0.8"/>
      </defs>
      <g>
       <use xlink:href="#mc5cf7ea7a1" x="65.54" y="270.784516" style="stroke: #000000; stroke-width: 0.8"/>
      </g>
     </g>
     <g id="text_11">
      <text style="font: 15px 'DejaVu Sans', 'Bitstream Vera Sans', 'Computer Modern Sans Serif', 'Lucida Grande', 'Verdana', 'Geneva', 'Lucid', 'Arial', 'Helvetica', 'Avant Garde', sans-serif; text-anchor: end" x="58.54" y="276.483344" transform="rotate(-0 58.54 276.483344)">0.2</text>
     </g>
    </g>
    <g id="ytick_2">
     <g id="line2d_11">
      <g>
       <use xlink:href="#mc5cf7ea7a1" x="65.54" y="227.824111" style="stroke: #000000; stroke-width: 0.8"/>
      </g>
     </g>
     <g id="text_12">
      <text style="font: 15px 'DejaVu Sans', 'Bitstream Vera Sans', 'Computer Modern Sans Serif', 'Lucida Grande', 'Verdana', 'Geneva', 'Lucid', 'Arial', 'Helvetica', 'Avant Garde', sans-serif; text-anchor: end" x="58.54" y="233.522939" transform="rotate(-0 58.54 233.522939)">0.4</text>
     </g>
    </g>
    <g id="ytick_3">
     <g id="line2d_12">
      <g>
       <use xlink:href="#mc5cf7ea7a1" x="65.54" y="184.863705" style="stroke: #000000; stroke-width: 0.8"/>
      </g>
     </g>
     <g id="text_13">
      <text style="font: 15px 'DejaVu Sans', 'Bitstream Vera Sans', 'Computer Modern Sans Serif', 'Lucida Grande', 'Verdana', 'Geneva', 'Lucid', 'Arial', 'Helvetica', 'Avant Garde', sans-serif; text-anchor: end" x="58.54" y="190.562533" transform="rotate(-0 58.54 190.562533)">0.6</text>
     </g>
    </g>
    <g id="ytick_4">
     <g id="line2d_13">
      <g>
       <use xlink:href="#mc5cf7ea7a1" x="65.54" y="141.9033" style="stroke: #000000; stroke-width: 0.8"/>
      </g>
     </g>
     <g id="text_14">
      <text style="font: 15px 'DejaVu Sans', 'Bitstream Vera Sans', 'Computer Modern Sans Serif', 'Lucida Grande', 'Verdana', 'Geneva', 'Lucid', 'Arial', 'Helvetica', 'Avant Garde', sans-serif; text-anchor: end" x="58.54" y="147.602128" transform="rotate(-0 58.54 147.602128)">0.8</text>
     </g>
    </g>
    <g id="ytick_5">
     <g id="line2d_14">
      <g>
       <use xlink:href="#mc5cf7ea7a1" x="65.54" y="98.942895" style="stroke: #000000; stroke-width: 0.8"/>
      </g>
     </g>
     <g id="text_15">
      <text style="font: 15px 'DejaVu Sans', 'Bitstream Vera Sans', 'Computer Modern Sans Serif', 'Lucida Grande', 'Verdana', 'Geneva', 'Lucid', 'Arial', 'Helvetica', 'Avant Garde', sans-serif; text-anchor: end" x="58.54" y="104.641723" transform="rotate(-0 58.54 104.641723)">1.0</text>
     </g>
    </g>
    <g id="ytick_6">
     <g id="line2d_15">
      <g>
       <use xlink:href="#mc5cf7ea7a1" x="65.54" y="55.982489" style="stroke: #000000; stroke-width: 0.8"/>
      </g>
     </g>
     <g id="text_16">
      <text style="font: 15px 'DejaVu Sans', 'Bitstream Vera Sans', 'Computer Modern Sans Serif', 'Lucida Grande', 'Verdana', 'Geneva', 'Lucid', 'Arial', 'Helvetica', 'Avant Garde', sans-serif; text-anchor: end" x="58.54" y="61.681317" transform="rotate(-0 58.54 61.681317)">1.2</text>
     </g>
    </g>
    <g id="text_17">
     <text style="font: 15px 'DejaVu Sans', 'Bitstream Vera Sans', 'Computer Modern Sans Serif', 'Lucida Grande', 'Verdana', 'Geneva', 'Lucid', 'Arial', 'Helvetica', 'Avant Garde', sans-serif; text-anchor: middle" x="27.565781" y="160.1" transform="rotate(-90 27.565781 160.1)">Loss</text>
    </g>
   </g>
   <g id="line2d_16">
    <path d="M 94.551818 29.281818 
L 96.032013 61.814618 
L 97.512208 90.509863 
L 98.992403 107.870847 
L 100.472597 121.916711 
L 101.952792 128.981119 
L 103.432987 139.596084 
L 104.913182 146.487329 
L 106.393377 150.69277 
L 107.873571 156.570936 
L 109.353766 161.565848 
L 110.833961 168.309677 
L 112.314156 168.434405 
L 113.794351 174.670037 
L 115.274545 178.567343 
L 116.75474 181.735943 
L 118.234935 188.184299 
L 121.195325 191.353219 
L 122.675519 192.604117 
L 124.155714 195.248259 
L 125.635909 200.249252 
L 127.116104 200.182202 
L 128.596299 203.690202 
L 130.076494 205.841715 
L 131.556688 205.8664 
L 133.036883 206.628248 
L 134.517078 211.768386 
L 135.997273 210.893928 
L 137.477468 213.849156 
L 138.957662 214.765621 
L 140.437857 215.19545 
L 141.918052 217.336382 
L 144.878442 219.315993 
L 146.358636 223.779771 
L 147.838831 225.743961 
L 149.319026 223.925535 
L 150.799221 230.329759 
L 152.279416 226.915089 
L 153.75961 229.325758 
L 155.239805 228.907862 
L 156.72 230.37048 
L 158.200195 231.005813 
L 159.68039 233.37315 
L 161.160584 231.006773 
L 162.640779 235.514299 
L 164.120974 233.254048 
L 165.601169 235.272396 
L 167.081364 236.288694 
L 168.561558 239.780075 
L 170.041753 238.514217 
L 171.521948 238.193708 
L 173.002143 240.430337 
L 174.482338 239.673015 
L 175.962532 240.997884 
L 177.442727 240.001743 
L 178.922922 236.84854 
L 180.403117 242.601811 
L 181.883312 243.912685 
L 183.363506 243.24658 
L 184.843701 245.772856 
L 186.323896 245.294925 
L 187.804091 245.849739 
L 189.284286 244.917852 
L 190.764481 245.220212 
L 192.244675 245.350337 
L 193.72487 249.300329 
L 195.205065 250.716254 
L 198.165455 248.585757 
L 199.645649 251.373967 
L 201.125844 247.628916 
L 202.606039 250.742097 
L 204.086234 250.095798 
L 207.046623 252.885167 
L 208.526818 252.872447 
L 210.007013 251.311647 
L 211.487208 251.392628 
L 212.967403 255.310829 
L 214.447597 253.833308 
L 215.927792 253.052709 
L 217.407987 254.697229 
L 218.888182 254.629347 
L 220.368377 255.2394 
L 221.848571 255.719673 
L 223.328766 257.876558 
L 224.808961 254.398332 
L 226.289156 249.805313 
L 227.769351 257.395446 
L 229.249545 259.012029 
L 230.72974 259.166115 
L 232.209935 258.977127 
L 233.69013 259.217405 
L 235.170325 260.525693 
L 236.650519 259.125638 
L 238.130714 260.030638 
L 239.610909 259.16721 
L 241.091104 257.916894 
L 242.571299 257.553591 
L 244.051494 260.53365 
L 245.531688 260.444796 
L 247.011883 261.617335 
L 248.492078 262.244683 
L 249.972273 265.302218 
L 251.452468 263.908609 
L 252.932662 265.098458 
L 254.412857 265.789898 
L 255.893052 262.464424 
L 257.373247 262.249721 
L 258.853442 263.482649 
L 261.813831 266.574577 
L 263.294026 265.91334 
L 264.774221 266.846828 
L 266.254416 263.486506 
L 267.73461 265.973592 
L 269.214805 263.351202 
L 270.695 266.384709 
L 272.175195 265.60307 
L 273.65539 266.776301 
L 275.135584 266.69751 
L 276.615779 266.130088 
L 278.095974 261.517003 
L 279.576169 267.192981 
L 281.056364 268.239876 
L 282.536558 266.131724 
L 284.016753 268.446754 
L 285.496948 267.711482 
L 286.977143 268.263463 
L 288.457338 267.953302 
L 289.937532 269.537317 
L 291.417727 270.4615 
L 292.897922 270.764709 
L 294.378117 269.265022 
L 295.858312 268.539023 
L 297.338506 272.069316 
L 300.298896 270.502582 
L 301.779091 266.553682 
L 303.259286 269.1617 
L 304.739481 269.361027 
L 306.219675 272.585186 
L 307.69987 270.08709 
L 310.66026 269.204767 
L 312.140455 269.865956 
L 313.620649 271.744406 
L 315.100844 268.262877 
L 316.581039 272.750587 
L 318.061234 272.015981 
L 319.541429 273.017848 
L 322.501818 269.568237 
L 323.982013 275.49342 
L 325.462208 271.064019 
L 326.942403 273.669162 
L 328.422597 271.702828 
L 329.902792 271.946591 
L 331.382987 273.933638 
L 332.863182 273.226565 
L 334.343377 272.690537 
L 335.823571 272.669953 
L 337.303766 277.887122 
L 338.783961 273.291775 
L 340.264156 273.448057 
L 341.744351 270.44968 
L 343.224545 271.152406 
L 344.70474 272.499878 
L 346.184935 274.378347 
L 347.66513 278.228583 
L 349.145325 276.792522 
L 350.625519 277.190368 
L 352.105714 267.078959 
L 353.585909 274.985488 
L 355.066104 274.111305 
L 356.546299 273.405896 
L 358.026494 274.757527 
L 359.506688 279.80594 
L 360.986883 274.559097 
L 362.467078 276.235714 
L 363.947273 271.694851 
L 365.427468 274.722689 
L 366.907662 278.759407 
L 368.387857 273.617565 
L 369.868052 273.423597 
L 371.348247 276.959082 
L 372.828442 277.57522 
L 374.308636 279.492214 
L 375.788831 274.863397 
L 377.269026 276.000913 
L 378.749221 278.108956 
L 380.229416 277.663767 
L 381.70961 278.447521 
L 383.189805 277.35833 
L 384.67 274.092583 
L 386.150195 279.157327 
L 387.63039 278.261001 
L 389.110584 276.306138 
L 390.590779 278.889561 
L 392.070974 279.70516 
L 393.551169 277.630382 
L 395.031364 278.156251 
L 396.511558 278.219701 
L 397.991753 278.454505 
L 399.471948 279.253885 
L 400.952143 281.576635 
L 402.432338 279.303696 
L 403.912532 279.343601 
L 405.392727 278.135638 
L 406.872922 281.822975 
L 408.353117 275.523177 
L 409.833312 277.093269 
L 411.313506 278.30997 
L 412.793701 277.798463 
L 414.273896 279.542354 
L 415.754091 279.695228 
L 417.234286 276.714413 
L 418.714481 278.549476 
L 420.194675 274.651235 
L 421.67487 280.601128 
L 423.155065 282.165899 
L 424.63526 277.735881 
L 426.115455 282.232729 
L 427.595649 280.296322 
L 429.075844 280.916262 
L 430.556039 281.769852 
L 432.036234 279.234703 
L 433.516429 280.45545 
L 434.996623 278.199641 
L 436.476818 282.342241 
L 437.957013 280.901487 
L 439.437208 281.452611 
L 442.397597 279.373535 
L 443.877792 283.697732 
L 445.357987 279.764736 
L 446.838182 280.943575 
L 448.318377 283.21346 
L 451.278766 280.554383 
L 452.758961 285.334384 
L 454.239156 282.60777 
L 455.719351 282.376 
L 457.199545 282.953286 
L 458.67974 282.218197 
L 460.159935 280.351356 
L 461.64013 280.937756 
L 463.120325 277.525233 
L 467.560909 282.481636 
L 469.041104 282.730732 
L 470.521299 284.09521 
L 472.001494 281.470894 
L 473.481688 276.99639 
L 474.961883 282.326461 
L 476.442078 280.139643 
L 477.922273 284.388429 
L 479.402468 281.085943 
L 480.882662 280.956115 
L 482.362857 282.841524 
L 483.843052 284.954743 
L 485.323247 284.759251 
L 486.803442 284.966388 
L 488.283636 284.561563 
L 489.763831 283.140597 
L 491.244026 279.970285 
L 492.724221 282.48983 
L 494.204416 275.914062 
L 495.68461 279.411083 
L 497.164805 283.35007 
L 498.645 276.506585 
L 500.125195 282.35104 
L 501.60539 283.348304 
L 503.085584 283.57404 
L 504.565779 285.222074 
L 506.045974 282.853169 
L 507.526169 283.066118 
L 509.006364 281.646269 
L 510.486558 282.673389 
L 511.966753 284.216572 
L 513.446948 286.111499 
L 514.927143 283.549669 
L 516.407338 285.200901 
L 517.887532 283.05859 
L 519.367727 286.569124 
L 520.847922 280.378022 
L 522.328117 283.968763 
L 523.808312 281.096567 
L 525.288506 276.79724 
L 526.768701 278.405331 
L 528.248896 283.70188 
L 529.729091 284.998015 
L 531.209286 281.067404 
L 532.689481 281.747436 
L 534.169675 285.092179 
L 535.64987 287.165832 
L 537.130065 284.341009 
L 538.61026 287.428276 
L 540.090455 289.261979 
L 541.570649 287.652601 
L 543.050844 286.598959 
L 544.531039 286.595022 
L 546.011234 280.180856 
L 547.491429 286.267455 
L 548.971623 287.537046 
L 550.451818 284.371801 
L 551.932013 286.495647 
L 553.412208 288.03148 
L 554.892403 283.93904 
L 556.372597 284.292635 
L 557.852792 283.334153 
L 559.332987 282.704104 
L 560.813182 286.777592 
L 562.293377 288.522287 
L 563.773571 283.642371 
L 565.253766 283.850787 
L 566.733961 286.716579 
L 568.214156 287.782192 
L 569.694351 287.868734 
L 571.174545 285.087621 
L 572.65474 285.772147 
L 575.61513 285.896425 
L 577.095325 286.33866 
L 578.575519 284.539542 
L 580.055714 285.735165 
L 581.535909 288.534124 
L 583.016104 285.982162 
L 584.496299 286.256403 
L 585.976494 284.189893 
L 587.456688 284.893435 
L 588.936883 284.813425 
L 590.417078 288.579914 
L 591.897273 290.152936 
L 593.377468 289.095971 
L 594.857662 287.258139 
L 596.337857 284.30042 
L 597.818052 286.386541 
L 599.298247 286.187813 
L 602.258636 286.208717 
L 603.738831 286.464426 
L 605.219026 287.329327 
L 606.699221 286.533429 
L 608.179416 287.481224 
L 609.65961 289.226386 
L 611.139805 287.489447 
L 612.62 287.495824 
L 614.100195 285.411917 
L 615.58039 288.253289 
L 617.060584 290.071628 
L 618.540779 282.114395 
L 620.020974 287.717678 
L 621.501169 285.385676 
L 622.981364 286.895859 
L 624.461558 287.947789 
L 625.941753 289.528588 
L 628.902143 284.852078 
L 630.382338 288.909176 
L 631.862532 286.338603 
L 633.342727 285.50948 
L 634.822922 288.212117 
L 636.303117 285.733802 
L 637.783312 287.999397 
L 639.263506 287.926827 
L 640.743701 290.918182 
L 642.223896 287.716996 
L 643.704091 288.824201 
L 645.184286 287.968165 
L 646.664481 286.628457 
L 648.144675 288.111786 
L 649.62487 288.170427 
L 651.105065 275.877269 
L 652.58526 286.559563 
L 654.065455 288.345646 
L 655.545649 286.092263 
L 657.025844 289.432753 
L 658.506039 285.204831 
L 659.986234 286.849255 
L 661.466429 288.86089 
L 662.946623 289.33702 
L 664.426818 287.718109 
L 665.907013 286.83037 
L 667.387208 290.648646 
L 668.867403 285.730198 
L 670.347597 287.617725 
L 671.827792 288.502234 
L 673.307987 290.562019 
L 674.788182 289.096756 
L 674.788182 289.096756 
" clip-path="url(#p86ba34627e)" style="fill: none; stroke: #1f77b4; stroke-width: 1.5; stroke-linecap: square"/>
   </g>
   <g id="line2d_17">
    <path d="M 94.551818 53.862372 
L 96.032013 90.835935 
L 97.512208 114.805981 
L 98.992403 132.923889 
L 100.472597 141.243139 
L 101.952792 153.210135 
L 103.432987 161.121794 
L 106.393377 176.153262 
L 107.873571 180.571197 
L 109.353766 183.162091 
L 110.833961 187.483759 
L 112.314156 184.905272 
L 113.794351 195.528239 
L 115.274545 200.434848 
L 116.75474 204.408756 
L 118.234935 205.980207 
L 119.71513 209.922991 
L 121.195325 215.305718 
L 122.675519 215.77468 
L 124.155714 215.046831 
L 125.635909 222.341088 
L 127.116104 221.999275 
L 128.596299 221.87799 
L 130.076494 222.809231 
L 131.556688 222.222659 
L 133.036883 229.032213 
L 134.517078 230.871456 
L 135.997273 229.835409 
L 137.477468 222.384574 
L 138.957662 230.860266 
L 140.437857 229.409094 
L 141.918052 236.353786 
L 143.398247 233.621724 
L 144.878442 238.449682 
L 147.838831 237.353901 
L 149.319026 239.548811 
L 150.799221 241.389367 
L 152.279416 242.811591 
L 153.75961 243.411312 
L 155.239805 244.244391 
L 156.72 246.111091 
L 158.200195 246.812584 
L 159.68039 244.251183 
L 161.160584 246.414149 
L 162.640779 246.008857 
L 164.120974 248.376828 
L 165.601169 248.223311 
L 167.081364 247.227882 
L 168.561558 245.867273 
L 170.041753 250.492876 
L 171.521948 249.370478 
L 173.002143 250.895627 
L 174.482338 249.898654 
L 175.962532 249.896945 
L 177.442727 249.603016 
L 178.922922 252.011841 
L 180.403117 251.740875 
L 181.883312 254.603689 
L 183.363506 253.272534 
L 184.843701 250.729243 
L 186.323896 247.044994 
L 187.804091 251.958087 
L 189.284286 253.5255 
L 190.764481 254.370677 
L 192.244675 255.550281 
L 193.72487 254.226852 
L 195.205065 251.824262 
L 196.68526 254.758915 
L 198.165455 253.849068 
L 199.645649 253.827322 
L 201.125844 256.346864 
L 202.606039 254.456395 
L 204.086234 250.971076 
L 205.566429 256.987318 
L 207.046623 255.568237 
L 208.526818 255.299888 
L 210.007013 256.135188 
L 211.487208 255.542611 
L 212.967403 254.698196 
L 214.447597 257.440705 
L 215.927792 257.03864 
L 217.407987 254.03798 
L 218.888182 256.161313 
L 220.368377 256.725019 
L 221.848571 257.741337 
L 223.328766 257.086223 
L 224.808961 258.454104 
L 226.289156 259.064771 
L 229.249545 258.751586 
L 230.72974 257.913828 
L 232.209935 260.706564 
L 233.69013 258.49556 
L 235.170325 258.163068 
L 236.650519 259.280134 
L 238.130714 258.43906 
L 239.610909 258.282009 
L 241.091104 259.971961 
L 242.571299 259.526884 
L 244.051494 260.06836 
L 245.531688 260.83773 
L 247.011883 259.370057 
L 248.492078 260.976366 
L 249.972273 260.253955 
L 251.452468 259.392309 
L 252.932662 258.371504 
L 254.412857 257.161973 
L 255.893052 259.869049 
L 257.373247 260.596245 
L 258.853442 260.35922 
L 260.333636 260.924647 
L 263.294026 260.549818 
L 264.774221 260.136902 
L 266.254416 257.849293 
L 269.214805 259.374942 
L 270.695 260.951684 
L 272.175195 260.40607 
L 273.65539 260.500013 
L 275.135584 260.160447 
L 276.615779 261.418815 
L 278.095974 261.34932 
L 279.576169 260.183745 
L 281.056364 259.392629 
L 282.536558 260.360276 
L 284.016753 261.514494 
L 285.496948 256.605642 
L 286.977143 261.533999 
L 288.457338 261.755226 
L 289.937532 261.346522 
L 291.417727 261.423319 
L 292.897922 261.249151 
L 294.378117 259.324196 
L 295.858312 262.35664 
L 297.338506 262.79111 
L 298.818701 261.095266 
L 300.298896 258.287809 
L 301.779091 261.484361 
L 303.259286 262.442556 
L 304.739481 262.348913 
L 306.219675 261.152413 
L 307.69987 261.844659 
L 309.180065 262.027393 
L 310.66026 260.652605 
L 312.140455 261.763458 
L 313.620649 257.532753 
L 315.100844 263.146492 
L 316.581039 263.125812 
L 318.061234 259.031233 
L 319.541429 261.318454 
L 321.021623 258.301598 
L 322.501818 263.031276 
L 323.982013 261.599603 
L 325.462208 258.774792 
L 326.942403 261.973316 
L 328.422597 262.610041 
L 329.902792 259.704413 
L 331.382987 262.393251 
L 332.863182 260.66633 
L 334.343377 261.475226 
L 335.823571 263.818564 
L 337.303766 261.731495 
L 338.783961 262.184642 
L 340.264156 262.047072 
L 341.744351 260.195566 
L 343.224545 263.287337 
L 344.70474 263.603627 
L 346.184935 263.257489 
L 347.66513 261.713299 
L 349.145325 260.871123 
L 350.625519 260.221566 
L 352.105714 261.327945 
L 353.585909 259.195204 
L 355.066104 262.04493 
L 356.546299 260.620402 
L 358.026494 261.956214 
L 359.506688 260.018232 
L 360.986883 260.723963 
L 362.467078 257.343669 
L 363.947273 259.757207 
L 365.427468 260.120078 
L 366.907662 256.693273 
L 368.387857 257.330713 
L 369.868052 259.578461 
L 371.348247 260.673967 
L 372.828442 261.549815 
L 375.788831 260.18034 
L 377.269026 262.463252 
L 378.749221 263.909054 
L 380.229416 262.784369 
L 381.70961 261.470201 
L 383.189805 262.142407 
L 384.67 261.16215 
L 386.150195 261.485568 
L 387.63039 261.046348 
L 389.110584 261.534364 
L 390.590779 259.889694 
L 392.070974 260.786443 
L 393.551169 258.799892 
L 395.031364 260.170737 
L 396.511558 258.396848 
L 397.991753 260.349697 
L 399.471948 262.726352 
L 400.952143 261.240832 
L 402.432338 262.345159 
L 403.912532 260.36493 
L 405.392727 258.96684 
L 406.872922 259.852085 
L 408.353117 257.879784 
L 409.833312 261.624969 
L 411.313506 261.911063 
L 412.793701 262.668129 
L 414.273896 260.683096 
L 415.754091 259.256218 
L 417.234286 260.194545 
L 418.714481 261.986064 
L 420.194675 260.626166 
L 421.67487 261.782634 
L 423.155065 260.249823 
L 424.63526 261.146648 
L 426.115455 261.32725 
L 427.595649 262.647234 
L 429.075844 258.828444 
L 430.556039 260.947456 
L 432.036234 261.488955 
L 433.516429 259.624047 
L 434.996623 262.758206 
L 436.476818 261.835057 
L 437.957013 258.649397 
L 439.437208 261.981548 
L 440.917403 261.021212 
L 442.397597 262.368794 
L 443.877792 260.481877 
L 445.357987 259.413018 
L 446.838182 260.81783 
L 448.318377 261.267238 
L 449.798571 260.285166 
L 451.278766 261.973895 
L 452.758961 260.34447 
L 454.239156 258.526525 
L 455.719351 260.578356 
L 457.199545 260.835956 
L 458.67974 259.007362 
L 460.159935 259.757501 
L 461.64013 260.9385 
L 463.120325 255.909775 
L 464.600519 262.829773 
L 467.560909 261.219284 
L 469.041104 260.6895 
L 470.521299 259.914385 
L 472.001494 260.201587 
L 473.481688 259.15022 
L 474.961883 261.386641 
L 476.442078 263.397271 
L 477.922273 258.922509 
L 479.402468 256.996581 
L 480.882662 259.543982 
L 482.362857 259.026144 
L 483.843052 260.613117 
L 485.323247 259.037923 
L 486.803442 258.235393 
L 488.283636 259.749947 
L 489.763831 261.743252 
L 491.244026 257.761515 
L 492.724221 257.056391 
L 494.204416 259.897197 
L 495.68461 257.522024 
L 497.164805 260.547042 
L 498.645 260.673605 
L 500.125195 261.699554 
L 501.60539 258.123871 
L 503.085584 259.222801 
L 504.565779 261.26712 
L 506.045974 259.999827 
L 507.526169 262.548474 
L 509.006364 261.612131 
L 510.486558 262.127905 
L 511.966753 261.644478 
L 513.446948 261.57658 
L 514.927143 263.609071 
L 516.407338 261.7755 
L 517.887532 257.532677 
L 519.367727 259.927918 
L 520.847922 259.862302 
L 522.328117 259.956476 
L 523.808312 257.797792 
L 525.288506 259.955804 
L 526.768701 261.294458 
L 528.248896 261.542136 
L 529.729091 260.659259 
L 531.209286 258.074367 
L 532.689481 260.609471 
L 534.169675 260.199282 
L 535.64987 258.083649 
L 537.130065 262.413966 
L 538.61026 260.260795 
L 540.090455 259.088464 
L 541.570649 258.285108 
L 543.050844 259.149189 
L 544.531039 259.690137 
L 546.011234 258.868492 
L 547.491429 261.662284 
L 548.971623 259.069368 
L 550.451818 260.113059 
L 551.932013 260.312574 
L 553.412208 259.154573 
L 554.892403 258.435405 
L 556.372597 259.636268 
L 557.852792 261.803772 
L 559.332987 261.006364 
L 560.813182 261.322251 
L 562.293377 258.255897 
L 563.773571 258.859344 
L 565.253766 258.716876 
L 566.733961 260.275688 
L 568.214156 258.723445 
L 569.694351 260.2828 
L 571.174545 260.936269 
L 572.65474 259.73653 
L 574.134935 259.674466 
L 575.61513 258.094167 
L 577.095325 259.140176 
L 578.575519 260.719297 
L 580.055714 260.394172 
L 583.016104 258.480017 
L 584.496299 256.441076 
L 585.976494 256.738853 
L 587.456688 258.630897 
L 588.936883 254.313133 
L 590.417078 255.853544 
L 591.897273 257.976999 
L 593.377468 256.433151 
L 594.857662 257.574985 
L 596.337857 256.675221 
L 597.818052 258.507224 
L 599.298247 258.730185 
L 600.778442 257.136309 
L 602.258636 257.759658 
L 603.738831 258.155872 
L 605.219026 255.266875 
L 606.699221 257.442933 
L 608.179416 256.942219 
L 609.65961 254.552937 
L 611.139805 257.948115 
L 614.100195 255.564806 
L 615.58039 256.595022 
L 617.060584 252.342196 
L 618.540779 255.845574 
L 620.020974 257.357913 
L 621.501169 256.299415 
L 622.981364 259.484211 
L 624.461558 258.804246 
L 625.941753 259.314568 
L 627.421948 258.169693 
L 628.902143 259.070693 
L 630.382338 255.671636 
L 631.862532 255.712836 
L 633.342727 258.945273 
L 634.822922 257.114947 
L 636.303117 258.053562 
L 637.783312 257.497109 
L 639.263506 257.600681 
L 640.743701 256.077817 
L 642.223896 255.301086 
L 643.704091 258.000307 
L 645.184286 259.84398 
L 646.664481 256.586975 
L 648.144675 260.46128 
L 649.62487 258.479947 
L 651.105065 259.54525 
L 652.58526 259.460947 
L 654.065455 257.048895 
L 655.545649 255.518087 
L 657.025844 255.454218 
L 658.506039 256.794726 
L 661.466429 257.818015 
L 662.946623 256.448636 
L 664.426818 258.580759 
L 665.907013 257.173169 
L 668.867403 257.964631 
L 670.347597 253.042889 
L 671.827792 255.719571 
L 673.307987 254.806773 
L 674.788182 254.843166 
L 674.788182 254.843166 
" clip-path="url(#p86ba34627e)" style="fill: none; stroke: #ff7f0e; stroke-width: 1.5; stroke-linecap: square"/>
   </g>
   <g id="patch_3">
    <path d="M 65.54 304 
L 65.54 16.2 
" style="fill: none; stroke: #000000; stroke-width: 0.8; stroke-linejoin: miter; stroke-linecap: square"/>
   </g>
   <g id="patch_4">
    <path d="M 703.8 304 
L 703.8 16.2 
" style="fill: none; stroke: #000000; stroke-width: 0.8; stroke-linejoin: miter; stroke-linecap: square"/>
   </g>
   <g id="patch_5">
    <path d="M 65.54 304 
L 703.8 304 
" style="fill: none; stroke: #000000; stroke-width: 0.8; stroke-linejoin: miter; stroke-linecap: square"/>
   </g>
   <g id="patch_6">
    <path d="M 65.54 16.2 
L 703.8 16.2 
" style="fill: none; stroke: #000000; stroke-width: 0.8; stroke-linejoin: miter; stroke-linecap: square"/>
   </g>
   <g id="legend_1">
    <g id="patch_7">
     <path d="M 533.559375 72.234375 
L 693.3 72.234375 
Q 696.3 72.234375 696.3 69.234375 
L 696.3 26.7 
Q 696.3 23.7 693.3 23.7 
L 533.559375 23.7 
Q 530.559375 23.7 530.559375 26.7 
L 530.559375 69.234375 
Q 530.559375 72.234375 533.559375 72.234375 
z
" style="fill: #ffffff; opacity: 0.8; stroke: #cccccc; stroke-linejoin: miter"/>
    </g>
    <g id="line2d_18">
     <path d="M 536.559375 35.847656 
L 551.559375 35.847656 
L 566.559375 35.847656 
" style="fill: none; stroke: #1f77b4; stroke-width: 1.5; stroke-linecap: square"/>
    </g>
    <g id="text_18">
     <text style="font: 15px 'DejaVu Sans', 'Bitstream Vera Sans', 'Computer Modern Sans Serif', 'Lucida Grande', 'Verdana', 'Geneva', 'Lucid', 'Arial', 'Helvetica', 'Avant Garde', sans-serif; text-anchor: start" x="578.559375" y="41.097656" transform="rotate(-0 578.559375 41.097656)">Training Loss</text>
    </g>
    <g id="line2d_19">
     <path d="M 536.559375 57.864844 
L 551.559375 57.864844 
L 566.559375 57.864844 
" style="fill: none; stroke: #ff7f0e; stroke-width: 1.5; stroke-linecap: square"/>
    </g>
    <g id="text_19">
     <text style="font: 15px 'DejaVu Sans', 'Bitstream Vera Sans', 'Computer Modern Sans Serif', 'Lucida Grande', 'Verdana', 'Geneva', 'Lucid', 'Arial', 'Helvetica', 'Avant Garde', sans-serif; text-anchor: start" x="578.559375" y="63.114844" transform="rotate(-0 578.559375 63.114844)">Validation Loss</text>
    </g>
   </g>
  </g>
 </g>
 <defs>
  <clipPath id="p86ba34627e">
   <rect x="65.54" y="16.2" width="638.26" height="287.8"/>
  </clipPath>
 </defs>
</svg>
