<?xml version="1.0" encoding="UTF-8" standalone="no"?>
<!-- Created with matplotlib (https://matplotlib.org/) -->

<svg
   height="308.55496pt"
   version="1.1"
   viewBox="0 0 687.6593 308.55496"
   width="687.6593pt"
   id="svg207"
   sodipodi:docname="cnn_dataset1_loss_comparison.svg"
   inkscape:version="1.2.2 (1:1.2.2+202305151915+b0a8486541)"
   xmlns:inkscape="http://www.inkscape.org/namespaces/inkscape"
   xmlns:sodipodi="http://sodipodi.sourceforge.net/DTD/sodipodi-0.dtd"
   xmlns:xlink="http://www.w3.org/1999/xlink"
   xmlns="http://www.w3.org/2000/svg"
   xmlns:svg="http://www.w3.org/2000/svg">
  <sodipodi:namedview
     id="namedview209"
     pagecolor="#ffffff"
     bordercolor="#666666"
     borderopacity="1.0"
     inkscape:showpageshadow="2"
     inkscape:pageopacity="0.0"
     inkscape:pagecheckerboard="0"
     inkscape:deskcolor="#d1d1d1"
     inkscape:document-units="pt"
     showgrid="false"
     inkscape:zoom="1.446875"
     inkscape:cx="443.7149"
     inkscape:cy="192.82937"
     inkscape:window-width="1920"
     inkscape:window-height="1080"
     inkscape:window-x="0"
     inkscape:window-y="0"
     inkscape:window-maximized="1"
     inkscape:current-layer="svg207" />
  <defs
     id="defs4">
    <style
       type="text/css"
       id="style2">
*{stroke-linecap:butt;stroke-linejoin:round;}
  </style>
  </defs>
  <g
     id="figure_1"
     transform="translate(-16.540725,-35.48)">
    <g
       id="axes_1">
      <g
         id="patch_2">
        <path
           d="M 65.45,304 H 703.8 V 35.88 H 65.45 Z"
           style="fill:#ffffff"
           id="path9" />
      </g>
      <g
         id="matplotlib.axis_1">
        <g
           id="xtick_1">
          <g
             id="line2d_1">
            <defs
               id="defs13">
              <path
                 d="M 0,0 V 3.5"
                 id="m608e97ff06"
                 style="stroke:#000000;stroke-width:0.8" />
            </defs>
            <g
               id="g17">
              <use
                 style="stroke:#000000;stroke-width:0.8"
                 x="94.175026"
                 xlink:href="#m608e97ff06"
                 y="304"
                 id="use15" />
            </g>
          </g>
          <g
             id="text_1">
            <text
               style="font-style:normal;font-weight:normal;font-size:15px;font-family:'DejaVu Sans';text-anchor:middle"
               x="94.175026"
               y="322.39764"
               id="text20">0</text>
          </g>
        </g>
        <g
           id="xtick_2">
          <g
             id="line2d_2">
            <g
               id="g26">
              <use
                 style="stroke:#000000;stroke-width:0.8"
                 x="166.89661"
                 xlink:href="#m608e97ff06"
                 y="304"
                 id="use24" />
            </g>
          </g>
          <g
             id="text_2">
            <text
               style="font-style:normal;font-weight:normal;font-size:15px;font-family:'DejaVu Sans';text-anchor:middle"
               x="166.89661"
               y="322.39764"
               id="text29">250</text>
          </g>
        </g>
        <g
           id="xtick_3">
          <g
             id="line2d_3">
            <g
               id="g35">
              <use
                 style="stroke:#000000;stroke-width:0.8"
                 x="239.61818"
                 xlink:href="#m608e97ff06"
                 y="304"
                 id="use33" />
            </g>
          </g>
          <g
             id="text_3">
            <text
               style="font-style:normal;font-weight:normal;font-size:15px;font-family:'DejaVu Sans';text-anchor:middle"
               x="239.61818"
               y="322.39764"
               id="text38">500</text>
          </g>
        </g>
        <g
           id="xtick_4">
          <g
             id="line2d_4">
            <g
               id="g44">
              <use
                 style="stroke:#000000;stroke-width:0.8"
                 x="312.33975"
                 xlink:href="#m608e97ff06"
                 y="304"
                 id="use42" />
            </g>
          </g>
          <g
             id="text_4">
            <text
               style="font-style:normal;font-weight:normal;font-size:15px;font-family:'DejaVu Sans';text-anchor:middle"
               x="312.33975"
               y="322.39764"
               id="text47">750</text>
          </g>
        </g>
        <g
           id="xtick_5">
          <g
             id="line2d_5">
            <g
               id="g53">
              <use
                 style="stroke:#000000;stroke-width:0.8"
                 x="385.06134"
                 xlink:href="#m608e97ff06"
                 y="304"
                 id="use51" />
            </g>
          </g>
          <g
             id="text_5">
            <text
               style="font-style:normal;font-weight:normal;font-size:15px;font-family:'DejaVu Sans';text-anchor:middle"
               x="385.06134"
               y="322.39764"
               id="text56">1000</text>
          </g>
        </g>
        <g
           id="xtick_6">
          <g
             id="line2d_6">
            <g
               id="g62">
              <use
                 style="stroke:#000000;stroke-width:0.8"
                 x="457.7829"
                 xlink:href="#m608e97ff06"
                 y="304"
                 id="use60" />
            </g>
          </g>
          <g
             id="text_6">
            <text
               style="font-style:normal;font-weight:normal;font-size:15px;font-family:'DejaVu Sans';text-anchor:middle"
               x="457.7829"
               y="322.39764"
               id="text65">1250</text>
          </g>
        </g>
        <g
           id="xtick_7">
          <g
             id="line2d_7">
            <g
               id="g71">
              <use
                 style="stroke:#000000;stroke-width:0.8"
                 x="530.50446"
                 xlink:href="#m608e97ff06"
                 y="304"
                 id="use69" />
            </g>
          </g>
          <g
             id="text_7">
            <text
               style="font-style:normal;font-weight:normal;font-size:15px;font-family:'DejaVu Sans';text-anchor:middle"
               x="530.50446"
               y="322.39764"
               id="text74">1500</text>
          </g>
        </g>
        <g
           id="xtick_8">
          <g
             id="line2d_8">
            <g
               id="g80">
              <use
                 style="stroke:#000000;stroke-width:0.8"
                 x="603.22607"
                 xlink:href="#m608e97ff06"
                 y="304"
                 id="use78" />
            </g>
          </g>
          <g
             id="text_8">
            <text
               style="font-style:normal;font-weight:normal;font-size:15px;font-family:'DejaVu Sans';text-anchor:middle"
               x="603.22607"
               y="322.39764"
               id="text83">1750</text>
          </g>
        </g>
        <g
           id="xtick_9">
          <g
             id="line2d_9">
            <g
               id="g89">
              <use
                 style="stroke:#000000;stroke-width:0.8"
                 x="675.94763"
                 xlink:href="#m608e97ff06"
                 y="304"
                 id="use87" />
            </g>
          </g>
          <g
             id="text_9">
            <text
               style="font-style:normal;font-weight:normal;font-size:15px;font-family:'DejaVu Sans';text-anchor:middle"
               x="675.94763"
               y="322.39764"
               id="text92">2000</text>
          </g>
        </g>
        <g
           id="text_10">
          <text
             style="font-style:normal;font-weight:normal;font-size:15px;font-family:'DejaVu Sans';text-anchor:middle"
             x="384.625"
             y="340.91486"
             id="text96">Epochs</text>
        </g>
      </g>
      <g
         id="matplotlib.axis_2">
        <g
           id="ytick_1">
          <g
             id="line2d_10">
            <defs
               id="defs101">
              <path
                 d="M 0,0 H -3.5"
                 id="m83b10d5194"
                 style="stroke:#000000;stroke-width:0.8" />
            </defs>
            <g
               id="g105">
              <use
                 style="stroke:#000000;stroke-width:0.8"
                 x="65.449997"
                 xlink:href="#m83b10d5194"
                 y="303.74213"
                 id="use103" />
            </g>
          </g>
          <g
             id="text_11">
            <text
               style="font-style:normal;font-weight:normal;font-size:15px;font-family:'DejaVu Sans';text-anchor:end"
               x="58.450001"
               y="309.44098"
               id="text108">0.0</text>
          </g>
        </g>
        <g
           id="ytick_2">
          <g
             id="line2d_11">
            <g
               id="g114">
              <use
                 style="stroke:#000000;stroke-width:0.8"
                 x="65.449997"
                 xlink:href="#m83b10d5194"
                 y="256.74448"
                 id="use112" />
            </g>
          </g>
          <g
             id="text_12">
            <text
               style="font-style:normal;font-weight:normal;font-size:15px;font-family:'DejaVu Sans';text-anchor:end"
               x="58.450001"
               y="262.4433"
               id="text117">0.2</text>
          </g>
        </g>
        <g
           id="ytick_3">
          <g
             id="line2d_12">
            <g
               id="g123">
              <use
                 style="stroke:#000000;stroke-width:0.8"
                 x="65.449997"
                 xlink:href="#m83b10d5194"
                 y="209.74683"
                 id="use121" />
            </g>
          </g>
          <g
             id="text_13">
            <text
               style="font-style:normal;font-weight:normal;font-size:15px;font-family:'DejaVu Sans';text-anchor:end"
               x="58.450001"
               y="215.44565"
               id="text126">0.4</text>
          </g>
        </g>
        <g
           id="ytick_4">
          <g
             id="line2d_13">
            <g
               id="g132">
              <use
                 style="stroke:#000000;stroke-width:0.8"
                 x="65.449997"
                 xlink:href="#m83b10d5194"
                 y="162.74916"
                 id="use130" />
            </g>
          </g>
          <g
             id="text_14">
            <text
               style="font-style:normal;font-weight:normal;font-size:15px;font-family:'DejaVu Sans';text-anchor:end"
               x="58.450001"
               y="168.448"
               id="text135">0.6</text>
          </g>
        </g>
        <g
           id="ytick_5">
          <g
             id="line2d_14">
            <g
               id="g141">
              <use
                 style="stroke:#000000;stroke-width:0.8"
                 x="65.449997"
                 xlink:href="#m83b10d5194"
                 y="115.7515"
                 id="use139" />
            </g>
          </g>
          <g
             id="text_15">
            <text
               style="font-style:normal;font-weight:normal;font-size:15px;font-family:'DejaVu Sans';text-anchor:end"
               x="58.450001"
               y="121.45033"
               id="text144">0.8</text>
          </g>
        </g>
        <g
           id="ytick_6">
          <g
             id="line2d_15">
            <g
               id="g150">
              <use
                 style="stroke:#000000;stroke-width:0.8"
                 x="65.449997"
                 xlink:href="#m83b10d5194"
                 y="68.753845"
                 id="use148" />
            </g>
          </g>
          <g
             id="text_16">
            <text
               style="font-style:normal;font-weight:normal;font-size:15px;font-family:'DejaVu Sans';text-anchor:end"
               x="58.450001"
               y="74.452675"
               id="text153">1.0</text>
          </g>
        </g>
        <g
           id="text_17">
          <text
             style="font-style:normal;font-weight:normal;font-size:15px;font-family:'DejaVu Sans';text-anchor:middle"
             transform="rotate(-90,27.475781,169.94)"
             x="27.47578"
             y="169.94"
             id="text157">Loss</text>
        </g>
      </g>
      <g
         id="line2d_16">
        <path
           clip-path="url(#pbbb2035b51)"
           d="m 94.465909,48.067273 0.581773,12.624018 0.290886,2.225756 0.581773,13.607688 0.290886,4.104685 0.290886,8.781785 0.290887,4.234805 0.290886,8.42019 1.745318,28.67545 0.290886,-1.27037 0.290886,6.74362 0.290887,1.71068 0.290886,5.46561 0.581771,5.54923 0.29089,0.64298 0.29088,3.17295 0.87266,4.55104 0.29089,-0.69852 0.58177,2.81452 0.29089,3.04753 0.29088,0.003 0.29089,3.08135 0.29089,0.11043 0.29088,3.38464 0.29089,-2.15652 0.29089,5.58473 0.29088,-4.47355 0.58177,7.46856 0.29089,-1.91662 0.29089,2.44402 0.29088,-2.01613 0.29089,4.89233 0.29089,1.13601 0.29088,-1.05097 0.29089,0.92223 0.29089,3.97189 0.29088,-0.41256 0.29089,-2.00954 0.29088,1.90166 0.29089,-0.48407 0.29089,0.76721 0.29088,1.78283 0.29089,3.53359 0.29089,-4.13775 0.29088,5.49892 0.29089,0.16623 0.29089,-1.89089 0.29088,2.65199 0.29089,-0.4666 0.29088,2.63349 0.29089,0.84417 0.29089,-0.96955 0.29088,0.68191 0.29089,1.95245 0.29089,-0.96084 0.29088,0.73456 0.58177,-0.4085 0.29089,0.29581 0.29089,-0.78725 0.29088,2.75647 0.29089,1.05586 0.29089,-0.17472 0.29088,0.94372 0.29089,1.43965 0.29088,-0.45557 0.29089,0.82724 0.29089,-0.0427 0.29088,0.11165 0.58178,2.53281 0.29088,-1.22324 0.58177,3.08098 0.29089,-2.84377 0.29089,1.40466 0.29088,0.0227 0.29089,0.43686 0.29089,-0.14547 0.29088,-1.41751 0.29089,1.97128 0.29089,0.11145 0.29088,3.87802 0.29089,-0.4866 0.29089,-1.82857 0.29088,-2.84527 0.29089,4.22825 0.29088,0.0935 0.29089,0.28944 0.29089,3.56369 0.29088,-0.76171 0.29089,0.61481 0.29089,-2.32721 0.29088,-0.43567 0.58177,4.32239 0.58178,-1.91356 0.29088,2.10427 0.29089,-1.14482 0.29089,3.05239 0.29088,-2.56049 0.29089,2.09016 0.58177,-2.58241 0.29089,2.94018 0.29088,-0.79611 0.29089,-1.79931 0.29089,2.64386 0.29088,-1.59801 0.29089,-0.95516 0.58177,4.5057 0.29089,-0.62882 0.29088,1.28576 0.29089,-2.57619 0.29089,-0.47542 0.29088,5.33795 0.29089,-3.22575 0.29088,-1.46189 0.29089,-0.20097 0.29089,2.31009 0.29088,-0.26288 0.29089,-1.99136 0.29089,5.96821 0.29088,-2.13953 0.29089,1.02464 0.29089,-0.13328 0.29088,-1.73993 0.58177,2.65955 0.29089,-5.20714 0.29089,5.43363 0.29088,-0.72148 0.29089,-1.23933 0.29089,1.48977 0.29088,-4.11529 0.29089,7.56839 0.29088,-0.92149 0.29089,-2.81427 0.29089,3.15577 0.29088,-3.28324 0.29089,2.56352 0.29089,-0.98064 0.29088,-0.35609 0.29089,1.49029 0.29089,-1.09876 0.29088,1.51443 0.29089,-0.42373 0.29088,1.16364 0.29089,-1.19966 0.29089,0.55207 0.29088,-1.43463 0.29089,1.53374 0.29089,-0.56574 0.29088,-0.0183 0.29089,0.97785 0.29088,-2.75615 0.29089,6.18786 0.29089,-2.52783 0.29088,1.27092 0.29089,-1.90971 0.29089,0.88056 0.29088,-1.62154 0.29089,2.06137 0.29088,0.0122 0.29089,1.14019 0.29089,-0.10195 0.29088,-2.4784 0.29089,2.44614 0.29089,-2.2165 0.29088,2.25353 0.29089,-0.33852 0.29089,-1.10186 0.29088,2.86713 0.29089,-5.35506 0.29088,5.61237 0.29089,-2.93616 0.29089,-1.71207 0.29088,3.51557 0.29089,1.19154 0.58177,-2.24661 0.29089,0.22639 0.29088,2.81373 0.29089,-3.06194 0.29089,0.93228 0.29088,1.78073 0.29089,-0.19228 0.29089,2.37505 0.29088,-0.95892 0.29089,-0.14062 0.29089,-2.74551 0.29088,-1.5562 0.29089,0.71975 0.29088,1.72451 0.29089,0.25414 0.29089,-2.71681 0.29088,2.99696 0.29089,1.00391 0.29089,-0.91737 0.29088,-1.44844 0.29089,3.32974 0.58177,-2.62099 0.29089,4.03058 0.29088,-3.52932 0.58178,3.69207 0.29088,-0.79959 0.29089,-1.43306 0.29088,1.24381 0.29089,-2.94625 0.58177,2.04134 0.29089,-0.72131 0.29089,0.65081 0.29088,-1.21768 0.29089,5.63395 0.29089,-4.33088 0.29088,0.27751 0.29089,2.54307 0.29089,-0.78345 0.29088,2.41346 0.29089,-2.45336 0.29088,-4.2614 0.29089,0.49437 0.29089,2.28018 0.29088,0.81158 0.29089,2.69786 0.29088,-0.42405 0.58178,-2.01879 0.29088,2.43012 0.29089,-3.19013 0.58177,3.50373 0.29089,-0.5989 0.29089,1.69956 0.29088,-1.82484 0.29089,-1.08205 0.29088,-2.0676 0.29089,1.53301 0.29089,-0.28699 0.29088,1.33889 0.29089,-1.03294 0.29089,-0.1668 0.29088,1.88399 0.29089,-3.17471 0.29088,4.30655 0.58178,-1.72088 0.29088,1.25936 0.29089,-1.73138 0.29089,-0.0238 0.29088,1.28758 0.29089,-2.42913 0.58177,1.50454 0.29089,1.19594 0.29088,-1.3911 0.29089,0.50229 0.29089,0.93333 0.58177,-0.47313 0.29089,1.56428 0.29088,0.53832 0.29089,-2.57879 0.29088,0.96276 0.29089,1.93815 0.29089,0.42867 0.29088,-1.49889 0.29089,-0.84899 0.58177,3.79054 0.29089,-3.23006 0.29088,1.11643 0.29089,-4.63104 0.29089,2.00369 0.29088,0.69288 0.29089,-1.11186 0.58177,3.33519 0.29089,-4.75427 0.29089,7.02311 0.29088,-4.19494 0.29089,0.076 0.29088,0.3737 0.29089,3.51551 0.29089,-3.51361 0.29088,2.41815 0.29089,-1.56546 0.29089,0.76326 0.29088,0.11295 0.29089,0.50506 0.29088,-1.03529 0.29089,-0.53797 0.29089,1.01234 0.29088,0.57229 0.58178,-2.09961 0.29088,4.12278 0.58178,-4.16866 0.29088,4.26037 0.29089,-2.03937 0.29088,0.0603 0.29089,0.39772 0.29089,2.10113 0.29088,-2.29643 0.29089,0.26288 0.29089,1.48357 0.29088,-1.95761 0.29089,2.11292 0.29088,-3.44804 0.29089,2.92099 0.29089,-0.5858 0.29088,2.44216 0.29089,0.81919 0.29089,-3.05276 0.29088,2.07332 0.29089,-2.41884 0.29089,0.0922 0.29088,1.66892 0.29089,-0.54347 0.29088,-1.77048 0.29089,1.07341 0.29089,-0.007 0.29088,-1.02249 0.29089,-0.13208 0.29089,2.18948 0.29088,-0.55632 0.29089,2.47162 0.29088,-2.53075 0.29089,-0.74427 0.29089,2.60497 0.29088,-0.74293 0.29089,-1.34264 0.29089,0.0436 0.29088,1.03581 0.29089,0.1086 0.29088,-4.55148 0.29089,5.02876 0.29089,0.93405 0.29088,-0.20153 0.29089,-1.0986 0.58177,2.08202 0.29089,-3.0552 0.29089,-0.5342 0.29088,0.95683 0.29089,1.73118 0.29088,-0.0179 0.29089,-0.79303 0.29089,1.10313 0.29088,0.29205 0.29089,1.09435 0.29089,-0.64479 0.29088,-0.0999 0.29089,-0.36394 0.29088,0.62995 0.29089,-0.4498 0.58177,-2.27254 0.29089,5.2136 0.29089,-0.84475 0.29088,-1.25266 0.29089,-0.44346 0.29089,-2.33409 0.29088,-0.6883 0.58177,4.32263 0.58178,-1.90933 0.29088,-1.79626 0.29089,0.41448 0.29089,1.56836 0.29088,0.12378 0.29089,-0.37817 0.29088,-1.28478 0.29089,3.60497 0.29089,-3.67461 0.29088,1.17788 0.29089,2.53023 0.29089,-1.75696 0.29088,-0.1113 0.29089,1.25183 0.29089,1.98742 0.29088,-3.84376 0.29089,0.38686 0.29088,-1.17034 0.29089,3.79186 0.29089,-3.09091 0.29088,-1.12245 0.29089,2.26887 0.29089,1.26608 0.58177,-1.75622 0.29088,2.43127 0.29089,-0.25168 0.29089,-1.28843 0.29088,-0.4454 0.29089,1.02938 0.29089,-1.06318 0.29088,2.21588 0.29089,-0.49274 0.29088,1.69187 0.58178,-1.74326 0.29088,2.06824 0.29089,-0.30374 0.29089,1.79804 0.58177,-4.004 0.29089,0.7133 0.29088,-1.14607 0.29089,0.44646 0.29088,2.36007 0.29089,-0.077 0.29089,-0.97192 0.29088,-1.78692 0.29089,0.74484 0.58177,3.76858 0.29089,-0.97478 0.29088,1.21919 0.29089,-3.07067 0.29089,0.45833 0.29088,-0.0848 0.29089,-0.30887 0.29089,-1.32453 0.29088,2.19764 0.29089,0.36031 0.29089,-1.5754 0.29088,-0.77803 0.29089,3.11472 0.29088,0.0231 0.29089,0.31679 0.58177,-1.45719 0.29089,0.10722 0.58177,0.3965 0.29089,-2.47523 0.29088,2.06797 0.29089,0.36427 0.29089,-2.17785 0.29088,2.79667 0.29089,-0.97139 0.29089,-0.0455 0.29088,1.71461 0.29089,-0.30344 0.29088,3.41267 0.29089,-4.04134 0.29089,-1.66144 0.58177,4.74842 0.29089,-2.81658 0.29088,-0.26169 0.29089,3.44033 0.29089,-0.94999 0.29088,-2.8404 0.29089,1.93806 0.29089,-1.95094 0.29088,2.74862 0.29089,-2.2527 0.29088,0.0916 0.29089,1.29944 0.29089,-0.17475 0.29088,2.46582 0.29089,-4.57769 0.29088,-2.16948 0.29089,4.58459 0.29089,0.93679 0.29088,4.11188 0.58178,-5.97079 0.29088,0.62979 0.29089,-0.70679 0.29089,3.36492 0.29088,-2.01075 0.29089,1.91442 0.29088,-2.61649 0.29089,0.61226 0.29089,-1.59901 0.29088,4.62392 0.29089,-1.20988 0.29089,1.01717 0.29088,-2.97766 0.29089,-1.22854 0.29088,0.82942 0.29089,2.54763 0.29089,-2.12252 0.29088,-0.60232 0.29089,4.13628 0.29089,-1.30505 0.29088,1.72012 0.29089,-5.35977 0.29088,3.713 0.29089,-0.4013 0.29089,0.0343 0.29088,-0.63527 0.29089,1.79232 0.29089,-1.35243 0.29088,0.84872 0.29089,-4.04038 0.29089,3.63377 0.29088,1.94005 0.29089,-2.80227 0.29088,0.78844 0.29089,2.69651 0.29089,-0.97456 0.29088,-2.08007 0.58178,2.76205 0.29088,-5.60491 0.29089,4.45719 0.29088,2.6424 0.29089,-3.62669 0.29089,0.43161 0.29088,2.07985 0.29089,-2.33052 0.58177,2.90799 0.29089,-0.58163 0.29089,-3.00904 0.29088,4.55247 0.29089,0.0651 0.29088,-4.57494 0.58178,3.21784 0.29088,-1.2112 0.29089,-0.22051 0.29089,-1.68349 0.29088,0.97676 0.29089,2.17079 0.29088,0.54718 0.29089,-3.45071 0.58177,5.07285 0.29089,-0.47717 0.29089,-1.0218 0.29088,-0.11084 0.29089,-0.62672 0.29089,-1.72517 0.29088,2.40734 0.29089,-3.85973 0.29088,5.36324 0.58178,-3.47614 0.29088,0.17855 0.29089,-0.73335 0.29089,4.12204 0.29088,-2.87161 0.29089,-0.6683 0.29088,2.16185 0.29089,-1.44567 0.29089,2.86294 0.29088,-0.81991 0.29089,-3.94543 0.29089,-2.22861 0.29088,6.72766 0.29089,-1.10294 0.29088,2.19421 0.58178,-4.9674 0.29088,1.88552 0.29089,2.90225 0.29089,-1.06046 0.29088,-1.80243 0.29089,2.47205 0.29089,-1.48557 0.29088,1.66023 0.29089,-5.39888 0.29088,4.61167 0.29089,1.0167 0.29089,0.56773 0.29088,-2.71112 0.29089,3.1181 0.29089,-3.89903 0.29088,5.53772 0.58177,-5.69359 0.29089,2.19185 0.29089,-2.50623 0.29088,2.9664 0.29089,1.20283 0.29089,-5.98746 0.29088,6.73029 0.29089,-2.54967 0.29089,1.62506 0.29088,0.72752 0.29089,-2.45397 0.29089,2.65619 0.29088,-2.24545 0.29089,1.26669 0.29088,-2.13869 0.29089,1.11133 0.29089,-0.14633 0.58177,0.84425 0.29089,1.6261 0.29088,-2.72385 0.29089,2.57675 0.29088,-0.50136 0.58178,-2.90387 0.29088,1.21772 0.29089,-1.12678 0.29089,1.82468 0.29088,-1.46698 0.29089,5.46527 0.58177,-2.1052 0.29089,-3.41818 0.29088,1.48327 0.29089,0.37436 0.29089,-0.67047 0.29088,2.73578 0.29089,-2.18602 0.29089,-4.24161 0.29088,3.85169 0.29089,-1.15416 0.29088,6.61772 0.29089,-3.17925 0.29089,-0.54489 0.29088,-4.44548 0.29089,8.80225 0.29089,-7.07875 0.58177,2.73498 0.29088,-0.0786 0.29089,1.62528 0.29089,-2.45283 0.29088,2.12629 0.29089,-1.5612 0.29089,0.10722 0.29088,0.40055 0.29089,1.80672 0.29088,-0.0106 0.29089,-3.70368 0.29089,1.74821 0.58177,-1.30513 0.29089,0.44845 0.29088,3.21056 0.29089,-2.67032 0.29088,1.71609 0.29089,0.43929 0.29089,1.09798 0.29088,-0.84348 0.29089,2.45743 0.29089,-6.91983 0.29088,5.08061 0.29089,-1.08255 0.29089,0.28068 0.29088,-3.17301 0.29089,0.11684 0.29088,2.12497 0.29089,-2.33775 0.29089,3.5406 0.29088,-0.93529 0.29089,-0.0134 0.29089,-1.21222 0.29088,2.01151 0.29089,-0.82074 0.29088,0.16349 0.29089,0.74039 0.29089,0.18005 0.29088,2.0915 0.29089,-0.85032 0.29089,-1.98348 0.29088,2.30503 0.29089,-1.61707 0.29088,0.22118 0.29089,-5.41455 0.29089,5.23499 0.29088,-2.8812 0.29089,5.73781 0.29089,0.11231 0.29088,-1.62891 0.29089,-5.93289 0.29089,6.462 0.29088,0.91253 0.29089,-5.79599 0.29088,2.63703 0.29089,0.56902 0.29089,-4.34563 0.29088,7.77034 0.29089,-3.85874 0.29089,0.20436 0.29088,-0.6863 0.29089,2.77132 0.29088,0.29272 0.29089,-1.8761 0.29089,0.10089 0.29088,1.16202 0.29089,-1.75694 0.29089,-0.032 0.29088,2.85846 0.29089,-4.26383 0.29089,3.22674 0.58177,-4.39716 0.58177,7.82566 0.29089,-2.49849 0.29088,0.86277 0.29089,-3.49603 0.29089,3.37194 0.29088,-1.65783 0.29089,0.62387 0.29088,-0.61743 0.29089,1.54188 0.29089,-1.42525 0.29088,1.57749 0.29089,0.10533 0.29089,-3.92419 0.29088,1.3419 0.29089,-0.62627 0.29089,3.95607 0.29088,-4.69306 0.29089,-0.93736 0.29088,4.09334 0.29089,-1.11705 0.29089,0.99607 0.29088,1.77652 0.29089,-4.32419 0.29089,3.97615 0.29088,-2.01503 0.29089,0.2213 0.29088,1.01822 0.29089,-2.64385 0.29089,1.82044 0.29088,-0.0182 0.29089,2.25058 0.29089,-2.29801 0.29088,0.15014 0.29089,-0.57782 0.29088,2.58153 0.29089,-1.37064 0.29089,-0.12072 0.29088,-1.20223 0.58178,-1.52999 0.29088,0.47883 0.29089,1.65721 0.29089,0.40738 0.29088,0.068 0.29089,2.33632 0.29089,-2.63288 0.29088,2.63635 0.29089,-2.14226 0.58177,-0.38147 0.29089,0.47814 0.29088,-1.58589 0.29089,2.39224 0.29089,-0.69349 0.29088,3.74278 0.29089,-3.94984 0.29088,-1.87272 0.29089,3.24111 0.29089,1.50762 0.29088,-1.39247 0.29089,0.35791 0.29089,0.70765 0.29088,-1.02851 0.29089,0.11845 0.29089,-1.41674 0.29088,1.34623 0.58177,-1.89135 0.29089,0.0637 0.29089,-1.96621 0.58177,5.27567 0.29089,0.65408 0.29088,-4.88491 0.29089,5.12095 0.29088,-2.40134 0.29089,1.67257 0.29089,-0.27906 0.29088,-1.45619 0.58178,-1.16311 0.58177,1.54007 0.58177,-0.3497 0.29089,1.59079 0.29088,-2.80358 0.58178,3.46219 0.29088,-1.31265 0.29089,0.99022 0.29088,-3.38021 0.29089,-1.87189 0.29089,6.09459 0.29088,-1.48982 0.29089,0.72045 0.29089,-3.67868 0.29088,4.61469 0.29089,-4.2624 0.29088,3.92788 0.29089,-3.08743 0.29089,1.18359 0.29088,-3.40321 0.29089,2.56852 0.29089,0.19195 0.29088,1.75516 0.29089,-1.04249 0.29089,1.3156 0.29088,-3.725 0.29089,1.82396 0.29088,2.54037 0.29089,-2.4074 0.29089,0.52225 0.29088,-2.0952 0.29089,4.07819 0.29089,-0.66619 0.58177,-0.48499 0.29088,1.13994 0.29089,-1.67309 0.29089,1.98928 0.29088,-4.17436 0.29089,-0.99921 0.29089,2.65342 0.29088,1.53781 0.29089,-0.38676 0.29089,2.19163 0.29088,-4.87642 0.29089,2.73621 0.29088,-0.37658 0.58178,-0.0342 0.29088,-0.29111 0.29089,3.37949 0.29089,-3.90816 0.29088,0.11688 0.29089,-0.27778 0.29088,1.58808 0.29089,-3.63177 0.29089,4.89678 0.29088,0.53618 0.29089,2.49876 0.29089,-5.13354 0.29088,4.78912 0.29089,-7.51536 0.29088,1.02262 0.29089,4.31762 0.29089,0.1672 0.29088,-6.91123 0.29089,2.82511 0.29089,4.19269 0.29088,-0.0392 0.29089,-0.29001 0.29089,-0.49161 0.58177,-1.80581 0.29088,2.87035 0.29089,-2.84533 0.29089,4.25394 0.29088,-7.27435 0.29089,7.13763 0.58177,-1.58268 0.29089,-1.12473 0.29088,-0.59858 0.29089,-0.87205 0.29089,3.03373 0.29088,-2.69932 0.29089,1.80961 0.29089,3.63438 0.29088,-3.77059 0.29089,0.2673 0.29089,-1.16903 0.29088,-0.57532 0.29089,1.67731 0.29088,2.49259 0.29089,-0.16972 0.29089,-1.42328 0.29088,0.37154 0.29089,-0.0966 0.29089,0.2054 0.29088,1.36672 0.29089,-2.20358 0.29088,-0.0249 0.29089,-4.12588 0.29089,5.9244 0.29088,-0.33661 0.29089,-2.43935 0.29089,-1.32155 0.29088,-0.66258 0.29089,1.97263 0.29089,0.30647 0.29088,-2.15037 0.29089,4.42605 0.29088,-2.86232 0.29089,5.24807 0.29089,-3.85488 0.29088,-0.16585 0.29089,-0.3944 0.29089,-1.73338 0.29088,3.17193 0.29089,0.23851 0.29089,-4.3628 0.58177,5.90844 0.29088,-2.83934 0.29089,0.12629 0.29089,0.80219 0.29088,0.21868 0.29089,0.88349 0.29089,-3.23992 0.29088,5.80109 0.29089,-5.93052 0.29088,1.38745 0.29089,-1.79949 0.58177,2.27029 0.29089,0.71496 0.29089,2.73603 0.29088,-5.11488 0.29089,-1.08128 0.29089,4.17518 0.29088,1.26288 0.29089,-0.0593 0.29088,-4.78688 0.29089,2.4914 0.29089,0.30087 0.29088,-0.10053 0.29089,2.18292 0.29089,-1.56489 0.29088,-0.6046 0.29089,-1.93428 0.29088,4.89268 0.29089,-1.26022 0.29089,-4.32777 0.29088,5.09373 0.29089,-2.62716 0.29089,1.16834 0.29088,-0.59875 0.29089,0.85019 0.29089,-3.11339 0.29088,3.97505 0.29089,-0.33201 0.29088,-0.0197 0.29089,-2.34024 0.29089,0.71618 0.29088,1.70369 0.29089,0.97346 0.29088,-4.17767 0.29089,-1.5276 0.29089,0.91923 0.29088,2.93247 0.29089,-2.91424 0.29089,2.75096 0.29088,1.0006 0.29089,-1.51074 0.29088,-0.0542 0.29089,0.46328 0.29089,1.60591 0.29088,0.0218 0.29089,-5.16576 0.29089,4.5247 0.29088,0.0962 0.29089,-1.3015 0.29089,0.91254 0.29088,-0.7531 0.29089,-3.46378 0.29088,4.34952 0.29089,0.37764 0.29089,-0.76228 0.29088,-1.82726 0.29089,4.77071 0.29089,-3.55238 0.29088,-0.29642 0.29089,3.64124 0.29088,-4.59455 0.58178,3.98705 0.29088,-0.44469 0.29089,0.0191 0.29089,-4.32779 0.29088,4.65366 0.29089,-2.26191 0.29089,0.57197 0.29088,-0.0619 0.58177,-1.85962 0.29089,2.89162 0.29089,0.0155 0.29088,-1.11539 0.29089,-2.02211 0.29089,1.31632 0.29088,-1.24618 0.29089,3.09958 0.29088,-0.0539 0.58178,-2.67063 0.29088,4.34112 0.29089,-5.83314 0.29089,3.36766 0.29088,-1.67058 0.29089,1.2484 0.29089,3.97937 0.29088,-2.15432 0.29089,0.69533 0.29088,-1.50173 0.58178,1.9652 0.29088,-0.61768 0.29089,-0.97265 0.29089,-1.411 0.29088,-2.2503 0.58177,4.09907 0.29089,-0.43577 0.29089,2.48425 0.29088,-1.69704 0.29089,1.3481 0.29089,-3.80273 0.29088,1.22371 0.29089,0.38794 0.29088,0.71221 0.29089,2.39628 0.29089,-5.73193 0.29088,3.24957 0.29089,0.32412 0.58177,-3.55877 0.29089,6.73286 0.29089,-7.02935 0.29088,1.24773 0.29089,2.71513 0.29088,-0.36444 0.29089,0.70566 0.29089,1.26498 0.29088,-1.81813 0.29089,2.40026 0.29089,-4.51924 0.29088,0.0462 0.29089,3.48456 0.58177,-4.08382 0.29089,3.05694 0.29088,1.47107 0.29089,0.75598 0.29089,0.0675 0.29088,-5.88262 0.29089,3.83908 0.29089,-2.2458 0.29088,1.38182 0.29089,0.0417 0.29088,1.44503 0.29089,-1.31614 0.29089,2.88486 0.29088,-3.10996 0.29089,2.83285 0.29089,-3.39795 0.29088,-0.73585 0.29089,2.80947 0.29088,-0.69739 0.29089,-2.06917 0.29089,0.3225 0.29088,-0.61629 0.29089,1.14911 0.29089,-1.31401 0.29088,2.01815 0.29089,0.87792 0.29089,-1.58368 0.29088,0.79967 0.29089,-0.79914 0.29088,3.47246 0.29089,-4.02297 0.29089,2.85102 0.29088,-2.60367 0.29089,2.25816 0.29089,-2.24897 0.29088,-0.57907 0.29089,3.03696 0.29089,-3.53546 0.29088,3.19006 0.29089,-3.26962 0.29088,4.27181 0.29089,-1.66081 0.29089,0.35274 0.29088,0.81933 0.29089,1.24642 0.29089,-2.39406 0.29088,-0.40482 0.58177,3.85789 0.29089,0.10642 0.29089,-4.19409 0.29088,0.0473 0.29089,1.32896 0.29089,-0.0358 0.29088,-1.55288 0.29089,0.79795 0.29089,-2.15629 0.29088,0.88511 0.29089,0.29636 0.58177,2.50744 0.29089,-5.10357 0.29088,4.75303 0.29089,1.84166 0.29089,-1.42647 0.29088,3.25648 0.58177,-4.97341 0.29089,-4.75696 0.29089,3.71745 0.29088,0.0863 0.29089,0.75431 0.29089,3.25453 0.29088,-2.47678 0.29089,1.05583 0.29088,2.7139 0.29089,-0.76002 0.29089,-2.42872 0.29088,0.38945 0.29089,0.0962 0.29089,1.33392 0.29088,-3.28323 0.29089,1.66593 0.29088,4.90494 0.29089,-10.15313 0.29089,4.33657 0.29088,1.86842 0.29089,-0.77667 0.29089,-3.35021 0.29088,4.8548 0.29089,-4.49803 0.29088,3.37794 0.29089,0.0641 0.87266,-0.48916 0.29089,-1.90604 0.29088,3.53717 0.29089,-1.84371 0.29089,0.38164 0.29088,-3.43035 0.58177,5.15907 0.29089,-1.68603 0.29089,0.0114 0.29088,-0.61407 0.29089,0.22561 0.29089,-2.68328 0.29088,4.29745 0.29089,-1.48512 0.29088,0.18435 0.29089,-0.8252 0.29089,-0.0367 0.29088,-0.3016 0.29089,2.29976 0.29089,1.40351 0.29088,-2.657 0.29089,1.29355 0.29089,-3.14145 0.58177,4.32275 0.29088,-3.46318 0.29089,2.60896 0.29089,1.40337 0.58177,-2.99422 0.58177,1.34131 0.29089,-4.40311 0.58177,5.33457 0.29089,-2.57859 0.29088,-0.0874 0.29089,4.40197 0.29089,-4.71679 0.29088,5.0253 0.29089,-1.101 0.29089,-1.95431 0.29088,1.7982 0.29089,-1.28999 0.29088,-3.22209 0.29089,3.06306 0.29089,-2.65137 0.29088,3.80361 0.58178,-4.51289 0.29088,1.12095 0.29089,2.51286 0.58177,1.54198 0.29089,-2.46594 0.29088,3.08823 0.29089,-3.32583 0.29089,0.17944 0.29088,-2.57929 0.29089,-0.90037 0.29088,2.8914 0.29089,0.58007 0.29089,1.43353 0.29088,-0.70374 0.29089,0.7776 0.58177,-4.20934 0.87266,5.33292 0.58177,-1.51014 0.29089,-0.37742 0.29089,-1.0598 0.29088,1.60102 0.29089,0.0996 0.29089,-2.04977 0.29088,3.99561 0.29089,-3.38154 0.29088,-0.94821 0.29089,2.50965 0.29089,-1.20508 0.29088,3.77668 0.29089,-1.20845 0.29089,-2.09769 0.29088,2.10524 0.29089,-3.46778 0.87266,4.22637 0.29089,-4.59169 0.29088,2.69774 0.29089,-0.25085 0.29088,-0.57833 0.29089,-3.14932 0.29089,2.5692 0.29088,-1.07572 0.29089,1.83856 0.29089,0.81967 0.29088,1.80502 0.29089,-6.10777 0.29088,2.24577 0.29089,-0.3247 0.29089,2.43211 0.29088,-1.83144 0.29089,-3.49737 0.29089,7.88482 0.29088,-2.19305 0.29089,2.0462 0.58177,-4.74088 0.29089,1.17293 0.29088,2.92517 0.29089,-1.7525 0.29089,-3.13535 0.29088,4.15379 0.29089,-0.24554 0.29089,-0.94543 0.29088,-1.36264 0.29089,3.3915 0.29088,-2.37489 0.58178,0.22663 0.29088,-0.10056 0.29089,-1.70919 0.29089,0.85651 0.29088,-0.2891 0.29089,0.81343 0.29088,0.28427 0.58178,0.83855 0.29088,-0.85295 0.29089,-0.003 0.29089,0.24488 0.29088,0.40465 0.29089,0.72123 0.29088,-0.6588 0.29089,-3.21164 0.29089,3.55536 0.29088,0.45766 0.29089,-1.83249 0.29089,0.47259 0.29088,0.004 0.29089,-0.4623 0.29088,2.92572 0.29089,-4.63491 0.29089,1.94395 0.29088,-0.78568 0.29089,-1.55923 0.29089,1.61385 0.29088,2.4175 0.29089,0.4788 0.29089,-0.82545 0.29088,-2.58068 0.29089,2.98527 0.29088,-0.60338 0.29089,-2.29569 0.29089,6.02132 0.58177,-7.027 0.29089,6.74874 0.29088,-7.96861 0.29089,6.73371 0.29088,-1.65416 0.29089,-3.58309 0.87266,5.41869 0.29089,-0.7181 0.29088,1.11283 0.29089,-1.78889 0.29088,0.82606 0.29089,-4.72945 0.29089,2.66274 0.29088,-0.0899 0.29089,1.44363 0.29089,-2.29863 0.29088,-0.22886 0.58178,2.84634 0.29088,-2.72417 0.58177,3.03141 0.58178,-1.25854 0.29088,-1.27415 0.29089,1.50256 0.29089,-2.49855 0.29088,4.27638 0.29089,-4.70236 0.29088,3.02069 0.29089,-0.9152 0.87266,2.56143 0.58177,-3.82218 0.29089,0.49852 0.58177,5.30677 0.29089,-3.29284 0.29088,0.032 0.29089,-1.57795 0.29089,-0.372 0.29088,0.014 0.58178,1.9026 0.29088,1.00273 0.29089,-4.41386 0.29088,4.82572 0.29089,-0.51653 0.29089,-2.80286 0.29088,-0.24637 0.58178,4.2954 0.58177,-3.01078 0.29089,0.44732 0.29088,-0.1212 0.29089,-1.92474 0.29088,3.05427 0.29089,0.0163 0.29089,0.44972 0.29088,1.00972 0.58178,-5.40275 0.87265,3.55685 0.29089,-2.83124 0.29089,3.02524 0.29088,-1.50313 0.29089,-0.52099 0.29089,-0.94931 0.29088,4.44768 0.29089,-0.74626 0.29088,-1.77984 0.29089,2.87607 0.58177,-3.08783 0.29089,-0.38018 0.29089,-0.75818 0.58177,0.74395 0.29089,0.98328 0.29088,3.43491 0.29089,-4.50207 0.58177,3.22189 0.29089,-1.30535 0.58177,1.94947 0.29089,-0.0376 0.29088,-4.5242 0.29089,-0.57019 0.29089,2.23444 0.29088,-0.69184 0.29089,1.005 0.29088,-1.59597 0.29089,3.50758 0.29089,-1.21577 0.29088,-3.01727 0.29089,3.05289 0.29089,0.16443 0.29088,-0.0819 0.29089,1.48399 0.29089,0.79458 0.29088,2.48347 0.29089,-8.23947 0.29088,-1.03249 0.29089,4.89829 0.29089,-1.32526 0.29088,-0.54529 0.29089,1.41851 0.58177,0.85007 0.29089,1.51267 0.29088,-3.34827 0.29089,3.74895 0.29089,-5.61834 0.29088,2.07383 0.29089,3.61846 0.29088,-4.02562 0.29089,1.93952 0.29089,0.76326 0.29088,-1.37552 0.29089,0.69918 0.29089,-2.88042 0.29088,2.52508 0.29089,0.26205 0.29089,-0.6703 0.29088,3.36463 0.29089,-2.76269 0.58177,-2.36675 0.29089,4.22827 0.29088,-5.39826 0.29089,5.41128 0.29089,-2.03946 0.29088,-4.74667 0.29089,3.04424 0.29088,5.05123 0.29089,-3.79002 0.29089,-1.24419 0.29088,2.2333 0.29089,1.27411 0.58177,-2.68819 0.29089,2.99014 0.29089,-3.1323 0.29088,1.92812 0.29089,1.00586 0.29088,-2.46887 0.29089,-1.12563 0.29089,3.10889 0.29088,-3.27473 0.29089,1.77834 0.29089,1.04403 0.29088,-2.79626 0.29089,3.05326 0.29088,-3.25528 0.29089,1.70306 0.29089,0.66925 0.29088,-0.35347 0.29089,-0.0393 0.29089,2.04002 0.29088,-2.81202 0.29089,-4.24635 0.29089,6.45979 0.29088,-3.10306 0.29089,2.22673 0.29089,0.68973 0.29088,-3.08131 0.29089,-0.35919 0.29088,1.71545 0.29089,-4.52371 0.29089,4.8478 0.29088,-3.29475 0.29089,2.20932 0.29089,-0.65108 0.29088,2.18471 0.29089,-0.59832 0.29088,3.15008 0.29089,-3.79959 0.29089,-1.18042 0.29088,2.6116 0.29089,-1.24728 0.29089,-2.92485 0.29088,1.26405 0.29089,3.64787 0.29088,-4.11638 0.58178,5.14037 0.29088,-1.74137 0.29089,0.33016 0.29089,-0.58613 0.29088,3.24549 0.29089,-3.03792 0.29089,2.2642 1.16354,-6.26246 0.29089,2.8624 0.29088,0.83087 0.29089,-0.0539 0.29089,-0.19239 0.29088,2.7832 0.29089,-1.39855 0.29088,-2.56238 0.29089,2.69496 0.29089,0.56011 0.29088,-2.10262 0.29089,2.37476 0.29089,-3.27528 0.29088,0.42674 0.29089,2.11375 0.29089,-2.797 0.29088,3.34004 0.29089,-3.92127 0.29088,4.53345 0.29089,-3.15838 0.29089,2.13986 0.29088,-0.1424 0.29089,-2.07269 0.29089,-0.10611 0.29088,-0.83624 0.29089,1.73555 0.29088,2.66898 0.29089,-2.86455 0.29089,0.82383 0.29088,-1.02643 0.29089,-0.60251 0.29089,2.76474 0.29088,-2.3739 0.58177,4.52356 0.29089,-7.44994 0.29089,-0.19646 0.29088,6.04497 0.29089,0.008 0.29089,-1.41636 0.29088,0.82568 0.29089,-4.19725 0.29089,4.46559 0.29088,-0.47974 0.29089,-0.0539 0.29088,0.25605 0.29089,-1.83249 0.29089,0.17673 0.58177,1.51503 0.29089,-0.99234 0.29088,0.30006 0.29089,-1.61739 0.29088,5.63176 0.29089,-3.83801 0.29089,2.02371 0.29088,-2.21548 0.29089,-0.12597 0.29089,-2.11711 0.29088,-0.2799 0.58178,2.92778 0.29088,-1.83571 0.29089,0.30032 0.29088,-1.25473 0.29089,4.50782 0.29089,-2.20212 0.29088,0.15726 0.29089,-2.19637 0.29089,-3.53654 0.29088,6.88661 0.58177,-2.52139 0.58178,5.6727 0.58177,-7.07652 0.29089,1.44465 0.29088,0.20158 0.29089,2.13638 0.29089,-0.96943 0.29088,1.71016 0.29089,-0.70104 0.29088,0.23775 0.29089,-0.19134 0.29089,-0.59291 0.29088,0.47857 0.29089,-4.36554 0.29089,1.15794 0.29088,-0.21443 0.29089,3.27636 0.29088,1.7954 0.29089,-3.89545 0.29089,-2.16396 0.29088,4.51436 0.29089,-6.32043 0.29088,6.65238 0.29089,2.23313 0.29089,-4.96863 0.29088,-1.61545 0.29089,7.09895 0.29089,-2.73461 0.29088,0.20639 0.29089,-0.76046 0.29089,-1.25286 0.58177,1.235 0.29088,-0.67921 0.29089,0.0623 0.29089,-0.92225 0.29088,0.23192 0.29089,1.49433 0.29089,0.17307 0.29088,-0.86026 0.29089,1.41219 0.29088,-1.78872 0.29089,0.11491 0.29089,-3.78391 0.29088,5.32073 0.29089,-0.59892 0.29089,0.49026 0.29088,-2.34478 0.29089,2.69802 0.29089,-0.17585 0.29088,-1.37682 0.29089,2.98819 0.29088,-5.30845 0.29089,6.0104 0.29089,-4.18783 0.29088,-1.24081 0.29089,0.19724 0.29089,-0.0368 0.29088,4.30472 0.29089,-1.92166 0.29088,-5.24784 0.29089,2.05163 0.29089,4.05073 0.29088,-2.322 0.29089,3.05666 0.29089,-2.06628 0.29088,3.53043 0.29089,-3.02394 0.29089,0.91851 0.29088,-0.82152 0.29089,-1.95219 0.29088,3.43459 0.29089,-1.44507 0.29089,0.5764 0.29088,-5.00368 0.58178,4.617 0.29088,-0.27377 0.29089,-1.83694 0.29088,4.32184 0.29089,-4.00988 0.29089,2.34414 0.58177,1.24325 0.29089,-2.87598 0.29088,0.96203 0.29089,-2.0092 0.29088,1.10174 0.29089,-0.19476 0.29089,2.17923 0.29088,-2.39821 0.29089,1.17974 0.29089,-0.80583 0.29088,1.97044 0.29089,-1.50549 0.29089,-2.2307 0.29088,-0.46093 0.29089,2.57812 0.29088,0.34398 0.29089,-1.20575 0.29089,2.37702 0.29088,-3.54483 0.29089,0.0205 0.29089,4.50237 0.29088,1.1988 0.29089,-2.78176 0.29088,-4.31443 0.29089,2.61569 0.29089,-0.60966 0.29088,0.30301 0.29089,4.49429 0.29089,-5.93159 0.29088,-1.46987 0.29089,5.92947 0.58177,-1.22748 0.29089,-3.20372 0.29088,0.21638 0.29089,5.21538 0.29089,-3.3771 0.29088,-0.14255 0.29089,1.07469 0.29089,3.68302 0.29088,-3.43801 0.29089,0.15634 0.29088,-1.19631 0.29089,0.44523 0.29089,-0.37284 0.29088,-2.16432 0.29089,-4.72028 0.29089,7.5839 0.29088,0.13458 0.29089,-2.50138 0.29088,3.06729 0.29089,0.81817 0.29089,-0.56944 0.29088,-1.38842 0.29089,2.38562 0.29089,-2.61649 0.29088,-0.0604 0.29089,2.47565 0.29089,-1.50483 0.29088,2.36685 0.58177,-0.92044 0.29089,-2.67244 0.29089,-1.0345 0.29088,3.68233 0.29089,0.37374 0.58177,-2.3748 0.29089,-1.38108 0.29088,0.2838 0.29089,1.98189 0.29089,-0.0764 0.29088,-0.49003 0.29089,0.92378 0.29089,-1.22085 0.29088,0.73178 0.29089,-2.39587 0.29089,1.86425 0.29088,-0.16729 0.29089,-1.72569 0.29088,0.64047 0.29089,2.79649 0.58177,1.54155 0.29089,-4.17796 0.29089,-1.7005 0.29088,2.06635 0.29089,2.96183 0.29088,-3.12818 0.29089,-0.62922 0.29089,4.99844 0.29088,-1.61593 0.29089,0.23661 0.29089,-0.18585 0.29088,-3.73531 0.29089,2.64587 0.29089,-0.97266 0.29088,-1.64531 0.29089,0.31533 0.29088,1.08529 0.29089,0.44701 0.29089,1.78682 0.29088,-0.0412 0.29089,1.33021 0.29089,-1.54284 0.29088,-0.53133 0.29089,0.72311 0.29088,-0.43831 0.29089,0.35625 0.29089,-1.82328 0.58177,2.37765 0.29089,-0.76773 0.29088,-0.1443 0.29089,0.93779 0.29088,-3.51817 0.29089,2.25713 0.29089,0.50444 0.29088,-1.23294 0.29089,2.65133 0.29089,-3.286 0.29088,0.72933 0.29089,-4.41127 0.29089,5.11805 0.29088,-2.81631 0.29089,5.94238 0.29088,-5.46126 0.29089,-2.79098 0.29089,5.38991 0.58177,-0.60427 0.29089,0.91662 0.29088,-2.25973 0.58178,2.99296 0.29088,-3.1921 0.29089,2.9867 0.29088,0.21121 0.29089,-0.40891 0.29089,-2.22293 0.29088,-0.95047 0.29089,6.47651 0.29089,-5.22872 0.29088,1.91797 0.29089,-0.0787 0.29089,2.14982 0.29088,-2.50909 0.29089,-7.68682 0.29088,6.971 0.29089,0.56922 0.29089,1.43726 0.29088,-0.59042 0.29089,-1.07955 0.29089,-0.15943 0.29088,-5.19152 0.58177,7.52264 0.58178,-4.13002 0.29088,-0.27068 0.58178,2.359 0.29088,-0.83173 0.29089,1.03722 0.29088,1.88681 0.29089,-0.76686 0.29089,-2.14965 0.29088,-0.051 0.29089,3.07766 0.29089,-2.24051 0.29088,0.31276 0.29089,-3.46435 0.29089,-0.2395 0.29088,5.61239 0.29089,0.2548 0.29088,-1.60541 0.58178,-4.9489 0.29088,4.32799 0.29089,-0.53051 0.29089,0.5112 0.29088,1.59399 0.29089,-1.59981 0.29088,4.39291 0.29089,-3.91581 0.29089,0.0212 0.29088,-1.40541 0.29089,0.7385 0.29089,-1.52074 0.29088,0.0817 0.29089,-0.0431 0.29089,2.02568 0.29088,0.38741 0.29089,-2.34628 0.29088,3.73151 0.29089,-0.0164 0.29089,0.38727 0.29088,-3.36101 0.29089,-0.34357 0.29089,1.93565 0.29088,0.56614 0.29089,2.51483 0.29088,-5.74451 0.29089,1.7878 0.29089,0.51626 0.29088,-0.76041 0.29089,1.04111 0.29089,-2.90779 0.29088,0.23438 0.29089,2.14781 0.29089,1.04605 0.29088,1.56159 0.29089,-1.92993 0.29088,2.37304 0.29089,-3.79466 0.29089,-1.2514 0.58177,4.20839 0.29089,-2.55798 0.29088,0.6575 0.29089,2.59443 0.29088,-3.61342 0.29089,-1.18097 0.29089,5.67612 0.29088,-1.90559 0.29089,0.47691 0.29089,-1.58396 0.29088,2.35825 0.29089,-5.16743 0.29088,4.70321 0.29089,-3.81858 0.29089,3.23488 0.29088,-2.66095 0.29089,-0.0943 0.29089,0.36433 0.29088,-2.88155 0.29089,3.01362 0.29089,-0.17415 0.29088,1.63246 0.29089,-0.0674 0.29088,0.32246 0.29089,-2.7224 0.29089,1.34132 0.29088,-1.30867 0.29089,0.30886 0.29089,2.1385 0.29088,-1.62411 0.29089,-0.68006 0.29088,1.92887 0.58178,1.39227 0.29088,-2.52928 0.29089,0.92474 0.29089,-1.22733 0.29088,2.28349 0.29089,-2.20623 0.29088,1.3888 0.29089,2.02646 0.29089,-3.84437 0.29088,0.67842 0.29089,3.0368 0.29089,0.12557 0.29088,-0.5261 0.29089,-1.98292 0.29088,1.80071 0.29089,-3.83652 0.29089,2.8745 0.29088,-1.9799 0.29089,2.27547 0.29089,-3.90485 0.29088,2.79906 0.58178,-0.67413 0.58177,2.95246 0.29088,-6.05316 0.29089,4.4732 0.29089,1.4495 0.29088,-1.35923 0.29089,-2.71912 0.29089,1.14019 0.29088,-0.67489 0.29089,3.73341 0.29088,-1.89076 0.29089,2.33388 0.29089,-3.07675 0.29088,2.02306 0.58178,-0.74662 0.29088,-0.64154 0.29089,-1.31906 0.29088,6.26872 0.29089,-8.28282 0.58177,3.86557 0.29089,-0.97316 0.29089,1.81052 0.29088,-0.23604 0.29089,-0.38645 0.29089,-1.61668 0.29088,-5.06419 0.29089,4.52291 0.29088,-1.07746 0.29089,3.37069 0.29089,-0.85604 0.29088,0.25315 0.29089,-2.16174 0.29089,2.5325 0.29088,-0.11165 0.29089,-3.25397 0.58177,3.92845 0.58177,-2.87086 0.29089,0.58694 0.29089,-0.13086 0.29088,1.69167 0.29089,2.49723 0.29089,-3.84396 0.29088,3.69131 0.58177,-4.03036 0.29089,4.41849 v 0"
           style="fill:none;stroke:#1f77b4;stroke-width:1.5;stroke-linecap:square"
           id="path161" />
      </g>
      <g
         id="line2d_17">
        <path
           clip-path="url(#pbbb2035b51)"
           d="m 94.465909,53.816057 2.908863,67.402323 1.163545,18.23875 0.581773,5.94002 0.581773,5.49243 0.290886,3.09369 2.036201,12.78151 2.61798,11.96651 2.32709,7.66657 0.29089,0.73951 0.87266,3.21093 0.29088,0.83135 0.29089,0.487 0.29088,1.40773 0.58178,1.19309 0.58177,2.08692 0.58177,1.16555 0.29089,0.99247 0.87266,1.38918 0.29088,1.06928 0.29089,0.62042 0.29089,-0.18222 1.16354,2.60444 0.29089,0.56359 0.29088,0.13672 0.29089,0.96782 0.29089,0.0813 0.29088,1.21401 0.87266,1.13413 0.29089,0.61984 0.29088,0.22701 0.87266,1.56575 0.29089,0.1278 0.29089,0.32344 0.29088,0.50008 0.87266,0.71646 0.29089,0.55554 0.29088,0.0102 0.58178,0.76304 0.29088,-0.4003 0.29089,0.81445 0.29089,-0.32105 0.29088,1.31909 0.58178,0.48842 0.58177,0.57884 0.58177,1.154 0.29089,0.004 0.29088,0.5011 0.58178,0.39791 0.29088,0.45017 0.29089,0.0697 0.58177,0.65884 0.29089,-0.09 0.29088,0.81623 0.29089,0.0332 0.58177,0.64061 0.29089,0.089 0.29088,0.379 0.29089,-0.0101 0.29089,0.45219 0.29088,-0.0157 0.29089,0.47537 0.29089,-0.0853 0.58177,0.74619 0.29088,-0.0436 0.29089,0.45291 0.29089,0.01 0.29088,0.48174 0.29089,0.12764 0.29089,0.25885 0.58177,-0.044 0.29088,0.3299 0.29089,-0.33479 0.58177,1.06962 0.29089,0.18045 0.29089,-0.18591 0.29088,0.64552 0.29089,4.7e-4 0.87266,0.39532 0.58177,0.45162 0.29089,0.16064 0.29088,-0.0285 0.29089,0.31606 0.29089,-0.24072 0.58177,0.54028 0.29088,-0.1124 0.29089,0.50243 0.29089,-0.0994 0.29088,0.40528 0.29089,0.0408 0.29089,-0.27761 0.29088,0.72634 0.29089,0.20029 0.29089,-0.14265 0.29088,0.51703 0.29089,0.0414 0.29088,-0.32969 0.29089,0.83011 0.29089,-0.0125 0.29088,0.28486 0.58178,-0.33808 0.58177,0.70741 0.29088,-0.23451 0.29089,0.52727 0.29089,0.12679 0.29088,0.27279 0.29089,-0.26488 0.29089,0.68361 0.29088,-0.034 0.29089,-0.17413 0.29088,0.40202 0.29089,-0.2303 0.29089,0.0768 0.29088,0.44415 0.58178,-0.10574 0.29088,0.1387 0.29089,0.27227 0.58177,0.17101 0.58177,0.35635 0.29089,-0.21883 0.29089,0.19345 0.29088,0.008 0.29089,0.426 0.58177,-0.14916 0.29089,0.18559 0.58177,-0.0319 0.29089,0.09 0.29088,-0.36846 0.87266,1.09799 0.58178,-0.18767 0.58177,0.34093 0.29088,-0.28449 0.58178,0.66376 0.29088,0.11586 0.29089,-0.46324 0.29089,0.66841 0.29088,-0.16969 0.29089,-1.07313 0.58177,1.11237 0.29089,0.26021 0.58177,0.17513 0.29089,0.16856 0.29088,-0.19175 0.29089,0.25516 0.29088,0.0461 0.58178,-0.37077 0.29088,0.81311 0.29089,0.20798 0.29089,-0.67015 0.29088,0.0391 0.29089,0.67403 0.29089,0.10384 0.29088,-0.27691 0.29089,0.14021 0.58177,0.4213 0.29089,-0.21588 0.29088,0.82347 0.29089,-0.3705 0.29089,0.1192 0.29088,-0.1085 0.29089,0.41563 0.29088,-0.27073 0.29089,-0.60282 0.29089,0.47451 0.29088,-0.0153 0.29089,0.83328 0.29089,-0.58106 0.29088,0.58068 0.29089,0.11639 0.29089,-0.30804 0.29088,0.48919 0.29089,-0.20634 0.29088,0.41587 0.29089,-0.65338 0.29089,0.18383 0.29088,-0.27934 0.29089,0.99342 0.29089,-0.73914 0.29088,0.22547 0.29089,0.378 0.29088,-0.71615 0.29089,0.79859 0.29089,0.059 0.29088,0.36498 0.29089,-0.21945 0.29089,0.0992 0.29088,-0.27279 0.29089,0.5999 0.29089,-0.31027 0.58177,-0.11988 0.29088,0.61316 0.29089,-0.14345 0.29089,0.10977 0.29088,-0.16875 0.29089,0.69109 0.29089,-0.56236 0.29088,0.64857 0.29089,0.0383 0.29088,-0.59022 0.29089,0.69338 0.29089,0.23135 0.29088,-0.23906 0.58178,0.17152 0.29088,-0.26946 0.87266,0.50406 0.58177,-0.50137 0.29089,0.31065 0.29089,0.60599 0.29088,-0.43738 0.58178,0.41077 0.29088,-0.063 0.29089,-0.30432 0.29088,0.70933 0.29089,-0.43721 0.29089,0.29369 0.29088,0.0517 0.29089,0.20275 0.29089,0.0499 0.87265,-0.5764 0.58178,1.00982 0.29088,-0.33927 0.58178,0.0322 0.29088,0.46158 0.29089,-0.21699 0.58177,0.0317 0.29089,-0.38786 0.29088,0.0934 0.29089,0.45055 0.29089,0.24566 0.29088,-0.20321 0.29089,0.0373 0.29089,-0.0962 0.58177,0.75935 0.29088,-0.42477 0.29089,0.0195 0.29089,0.2193 0.29088,-0.0924 0.58178,0.4259 0.29088,-0.0756 0.29089,0.46596 0.58177,-0.29679 0.29089,-0.0145 0.29088,0.31726 0.29089,-0.0169 0.29089,0.099 0.29088,-0.0642 0.58178,0.29693 0.29088,-0.3133 0.29089,0.60497 0.87266,-0.0696 0.29088,-0.31815 0.29089,0.49255 0.29089,-0.37494 0.29088,0.0256 1.74532,0.91388 0.29089,-0.002 0.58177,0.29102 0.29089,-0.0177 0.29088,0.10861 0.29089,-0.29341 0.29088,0.008 0.29089,-0.25452 0.58177,1.06658 0.29089,-0.53556 0.58177,0.0546 0.29089,-0.12821 0.29088,0.71833 0.29089,-0.23908 0.29089,0.23349 0.29088,-0.4171 0.29089,0.38031 0.58177,0.0197 0.29089,-0.32512 0.58177,0.59322 0.29089,0.2233 0.29088,0.49153 0.29089,-0.005 0.29089,-0.5748 0.29088,-0.005 0.29089,-0.19966 0.29089,0.0801 0.29088,0.56754 0.29089,-0.25455 0.58177,0.52853 0.58177,-0.43463 0.58178,0.70752 0.29088,-0.54351 0.29089,0.58903 0.29089,0.13509 0.29088,-0.0458 0.29089,-0.82661 0.29088,0.95952 0.29089,-0.29682 0.29089,0.64939 0.29088,0.12442 1.16355,-0.23803 0.29088,0.12181 0.29089,0.46567 0.29089,-0.47086 0.29088,0.0975 0.29089,0.30172 0.29089,-0.53504 0.29088,0.40658 0.29089,-0.11744 0.29088,0.88863 0.29089,-0.0371 0.29089,-0.22665 0.29088,0.0821 0.29089,0.23784 0.29089,-0.27403 0.29088,0.47801 0.29089,-0.17114 0.29089,-0.44924 0.29088,0.54717 0.58177,0.0453 0.29089,-0.2419 0.29089,0.30231 0.29088,-0.2733 0.29089,0.4848 0.58177,0.31545 0.29089,-0.28906 0.29088,0.48665 0.87266,-0.008 0.29089,-0.31474 0.58177,0.34267 0.29089,0.12911 0.29089,0.34257 1.16354,-0.0741 0.29089,-0.23721 0.29088,0.71674 0.29089,0.14904 0.58177,-0.19454 0.29089,0.49926 0.58177,-0.57384 0.58177,0.35456 0.29089,0.22797 0.29089,-0.25229 0.58177,0.004 0.29088,0.4505 0.87266,0.12557 0.29089,0.15199 0.29089,-0.27681 0.29088,0.14834 0.29089,-0.31806 0.29089,0.5822 0.29088,0.17996 0.29089,-0.18956 0.58177,-0.0251 0.29089,0.20406 0.29088,0.0581 0.29089,-0.65341 0.29089,0.9241 0.29088,-0.98376 0.29089,0.73412 0.58177,0.29014 0.29089,-0.0821 0.29088,-0.36796 0.87266,0.55878 0.29089,0.44452 0.29089,-0.36591 0.29088,-0.12816 0.29089,0.77084 0.29088,-0.37602 0.58178,0.43373 0.58177,-0.53258 0.29089,0.43257 0.29088,-0.2547 0.29089,0.72181 0.29088,-0.0996 0.58178,-0.0421 0.29088,0.35438 0.29089,0.0592 0.29089,-0.24748 0.29088,0.33272 0.29089,-0.29462 0.29088,0.23672 0.29089,-0.003 0.29089,0.16701 0.29088,-0.56058 0.29089,0.62021 0.29089,0.10607 0.58177,-0.36979 0.29089,0.0952 0.29088,0.92387 0.58177,-0.35158 0.29089,0.0693 0.29089,0.45578 0.58177,0.13958 0.29089,-0.10759 0.29088,-0.26332 0.29089,0.30168 0.29088,-0.49105 0.29089,0.87791 0.29089,0.14003 0.29088,-0.18034 0.58178,-0.64442 0.29088,0.90111 0.29089,0.0927 0.29089,-0.6606 0.29088,0.007 0.29089,0.75295 0.29088,0.25063 0.29089,-0.38936 0.29089,0.34761 0.29088,-0.31983 0.29089,0.44869 0.29089,-0.20884 0.29088,0.50042 0.29089,0.17484 0.29088,-0.0547 0.29089,-1.05816 0.29089,1.26858 0.29088,-0.24917 0.29089,0.34941 0.29089,-0.42371 0.29088,0.61224 0.29089,-0.34534 0.29089,0.0371 0.58177,0.58273 0.29088,-0.23034 0.87266,0.18599 0.29089,-0.23793 0.29089,0.31701 0.29088,-0.0914 0.29089,0.23773 0.29088,-0.56612 0.29089,0.89741 0.29089,-0.97986 0.29088,0.94254 0.29089,-0.0258 0.29089,0.17691 0.29088,0.0316 0.29089,-0.23657 0.29088,0.26979 0.29089,-0.63893 0.29089,1.25756 0.29088,-0.48426 0.29089,0.65587 0.29089,-0.0801 0.29088,0.37032 0.29089,-0.55184 0.58177,0.37035 0.29089,-0.42019 0.29088,0.45627 0.29089,-0.018 0.29089,0.34333 0.29088,-0.3827 0.29089,0.38206 0.29089,0.0623 0.29088,-0.34454 0.29089,0.585 0.29088,-0.12043 0.29089,0.12048 0.87266,-0.16758 0.29089,-0.47652 0.29088,1.12237 0.29089,-0.12639 0.29089,-0.48244 0.29088,0.48588 0.29089,-0.34372 0.29089,0.54365 0.29088,-1.15602 0.29089,1.0826 0.29088,0.29398 0.29089,-0.27063 0.29089,0.15719 0.29088,-0.0579 0.29089,0.2295 0.29089,-0.0182 0.29088,-0.53393 0.29089,0.88378 0.29088,-0.72023 0.29089,0.68866 0.58177,-0.33668 0.29089,0.32501 0.29089,-0.35947 0.29088,0.45092 0.29089,-0.24322 0.29088,0.36794 0.29089,0.11948 0.29089,-0.0604 0.29088,0.42087 0.58178,-0.98497 0.29088,0.79521 0.58178,0.0902 0.29088,-0.35188 0.29089,0.39139 0.29088,-0.0667 0.29089,0.65329 0.58177,-0.37684 0.58178,0.12468 0.29088,-0.6903 0.29089,0.83226 0.29088,-0.0648 0.58178,0.49352 0.29088,-0.0303 0.29089,-0.68034 0.29089,1.07995 0.58177,-0.72161 0.29088,0.89017 0.29089,-0.41489 0.29089,0.20686 0.29088,-0.0629 0.29089,0.14589 0.29089,-0.80854 0.29088,0.32325 0.29089,0.62397 0.29088,-0.78887 0.29089,1.11653 0.29089,0.19221 0.29088,-1.60699 0.29089,1.85027 0.29089,-0.0769 0.29088,-1.04399 0.29089,0.93237 0.29089,-0.38672 0.29088,0.009 0.29089,0.93953 0.29088,-0.46415 0.29089,0.17167 0.29089,-0.55663 0.29088,0.69292 0.29089,-0.77602 0.29089,1.08037 0.29088,-0.0151 0.29089,-0.19462 0.29088,-0.71745 0.29089,0.72662 0.29089,-0.25291 0.29088,-0.45752 0.29089,1.03399 0.29089,-0.28201 0.29088,-0.67806 0.29089,1.29898 0.29088,-0.37419 0.29089,-0.18327 0.29089,0.55544 0.29088,-0.18715 0.29089,0.10944 0.29089,0.31995 0.29088,0.15033 0.58178,-0.54663 0.29088,0.16086 0.29089,0.42624 0.29088,-1.88646 0.29089,1.68969 0.29089,-0.40143 0.29088,0.96327 0.29089,-0.85393 0.29089,0.94451 0.29088,-0.72702 0.58177,1.05065 0.29089,-0.22484 0.29089,-0.0756 0.29088,-0.86014 0.29089,0.87449 0.29089,-0.6254 0.29088,0.71119 0.29089,-0.54204 0.29089,0.0286 0.29088,0.58115 0.29089,-0.11822 0.29088,-0.71255 0.29089,0.92014 0.29089,0.351 0.29088,-0.58124 0.29089,0.60013 0.29089,0.0989 0.29088,-0.18452 0.29089,0.21375 0.29088,0.0741 0.29089,-0.2806 0.58177,0.0835 0.29089,0.64614 0.29089,-0.48612 0.29088,0.41171 0.29089,-0.0336 0.29089,0.3174 0.29088,-0.31953 0.29089,0.01 0.29088,-0.20721 0.29089,0.51803 0.29089,0.19672 0.29088,-0.67435 0.29089,0.53438 0.29089,-0.43481 0.29088,0.19303 0.29089,0.57973 0.29088,-0.47969 0.29089,0.68717 0.29089,-0.97386 0.29088,0.61191 0.29089,-0.0202 0.29089,-0.83838 0.29088,1.33053 0.29089,0.10216 0.29088,-0.0335 0.29089,-0.59065 0.29089,0.49228 0.58177,0.0765 0.29089,-1.70696 0.29088,2.01316 0.29089,-0.27395 0.29089,0.35241 0.29088,-0.34184 0.29089,0.56412 0.29089,-0.25391 0.29088,-0.0638 0.29089,-0.3478 0.29088,0.3345 0.58178,0.16651 0.29088,0.34692 0.29089,-1.47793 0.29089,1.24626 0.29088,-0.63978 0.29089,0.57115 0.29088,0.30684 0.29089,-0.51868 0.29089,-0.0586 0.58177,0.66636 0.29089,0.35669 0.29088,-0.37985 0.58178,-0.21829 0.58177,0.28935 0.29088,-0.46397 0.58178,1.29693 0.29088,-0.24872 0.29089,-0.55174 0.29089,-0.26927 0.29088,0.62362 0.29089,-0.12955 0.87266,0.43828 0.29088,-2.84921 0.29089,2.78255 0.29089,0.012 0.29088,-0.49635 0.29089,0.69599 0.29088,-0.25405 0.29089,0.41459 0.29089,-0.21064 0.29088,0.19888 0.29089,-0.67629 0.29089,0.36816 0.29088,0.13783 0.29089,0.31902 0.29088,-0.57057 0.29089,0.2833 0.29089,0.0231 0.29088,0.59442 0.29089,-0.13282 0.29089,-0.54249 0.29088,0.44737 0.29089,-0.72727 0.29088,0.54047 0.29089,0.82151 0.29089,-0.0865 0.29088,-0.54987 0.29089,0.30744 0.58177,-0.14902 0.29089,0.46426 0.29089,-1.02748 0.29088,0.58902 0.29089,-0.67447 0.58177,1.42988 0.29089,-0.48935 0.29088,0.21763 0.29089,-0.74101 0.29089,0.50194 0.29088,0.94315 0.29089,-0.93817 0.29088,-0.45757 0.58178,1.27341 0.29088,-1.07238 0.29089,0.73735 0.29089,-0.2767 0.87266,0.74018 0.29088,-0.10901 0.29089,-1.3421 0.29088,1.69546 0.29089,-0.59829 0.29089,0.55703 0.58177,0.0537 0.29089,-0.88003 0.29088,0.93145 0.29089,0.0751 0.58177,-0.63395 0.29089,0.81463 0.29088,0.27924 0.58178,-0.069 0.29088,-1.42571 0.29089,0.73677 0.58177,0.71601 0.29089,-0.14774 0.29088,-0.41558 0.29089,0.51355 0.58177,0.13629 0.29089,-2.00353 0.29089,1.69959 0.29088,0.50834 0.29089,-0.72516 0.29088,0.57332 0.29089,-0.0341 0.29089,-1.79664 0.29088,1.5962 0.29089,0.1984 0.29089,-0.36804 0.29088,0.94869 0.29089,-0.12676 0.29088,-0.26199 0.29089,0.0266 0.29089,-0.94848 0.29088,1.13265 0.29089,-1.40728 0.29089,1.27089 0.29088,-0.12629 0.29089,0.17184 0.29089,-0.60808 0.29088,0.43727 0.29089,-0.008 0.29088,0.57123 0.58178,-0.0806 0.29088,-1.30457 0.29089,1.20021 0.29089,0.41131 0.29088,-0.43724 0.29089,0.75551 0.29088,-0.27101 0.29089,-0.97014 0.29089,0.0653 0.29088,0.86833 0.29089,-0.0752 0.29089,-1.58893 0.29088,0.71224 0.29089,1.06249 0.29089,-0.88988 0.29088,0.80314 0.29089,0.21426 0.29088,-0.26539 0.58178,0.57012 0.29088,-3.04757 0.29089,3.31642 0.29089,-0.65532 0.29088,0.0244 0.58178,0.67729 0.29088,-0.35879 0.29089,-1.13843 0.29088,1.13265 0.29089,0.38543 0.29089,-1.3836 0.29088,1.04211 0.29089,0.25129 0.29089,-1.40492 0.29088,1.56935 0.29089,0.38833 0.29088,-2.30763 0.29089,1.53749 0.29089,-0.49579 0.29088,0.7842 0.29089,-1.70055 0.29089,2.32077 0.29088,-1.38631 0.58178,1.18849 0.29088,-3.1082 0.29089,2.63363 0.29088,0.20353 0.29089,-1.18283 0.29089,1.29736 0.29088,-0.17368 0.29089,0.16566 0.29089,0.66963 0.29088,-0.6203 0.29089,0.28936 0.29088,-0.0284 0.29089,0.42405 0.29089,-1.50037 0.29088,1.74902 0.29089,-0.11726 0.29089,-0.44519 0.29088,0.45761 0.58178,-0.60002 0.29088,0.89147 0.29089,-0.41516 0.29088,-0.94655 0.87266,1.36915 0.29089,0.0655 0.29088,-0.14315 0.29089,-1.34349 0.29089,1.75901 0.58177,-0.98222 0.29089,0.96033 0.29088,-0.64688 0.58177,0.64818 0.29089,-0.80168 0.29089,0.80359 0.29088,-2.71339 0.29089,1.86737 0.29089,0.8184 0.29088,-1.99236 0.29089,1.49063 0.29089,-0.32723 0.29088,1.02772 0.29089,-0.0636 0.29088,0.17277 0.29089,-0.15677 0.29089,0.27038 0.29088,-1.94457 0.29089,1.22287 0.29089,-0.0956 0.29088,-0.24432 0.29089,-0.0191 0.29088,1.22405 0.29089,-1.06068 0.29089,-0.46387 0.29088,-0.1539 0.29089,1.19463 0.29089,-1.17008 0.29088,1.45959 0.29089,0.30391 0.29089,0.0439 0.29088,-1.56187 0.29089,-0.51342 0.29088,1.58982 0.29089,-0.19852 0.29089,-0.0273 0.29088,0.74916 0.29089,-1.13045 0.29089,-0.27344 0.29088,1.00811 0.29089,-0.24119 0.29088,-1.59998 0.29089,2.18315 0.29089,-0.48827 0.29088,1.06811 0.29089,-1.62157 0.29089,1.22087 0.58177,-1.3872 0.29089,1.85651 0.29088,-1.75127 0.29089,0.39936 0.29088,0.96831 0.29089,-0.79614 0.29089,0.143 0.29088,-0.11098 0.29089,0.91591 0.29089,-0.87261 0.29088,0.67284 0.29089,0.0928 0.29088,-1.04568 0.29089,0.69076 0.29089,0.3796 0.29088,-1.91732 0.29089,1.85243 0.29089,-1.34954 0.29088,1.75087 0.29089,-2.85659 0.29088,3.00876 0.58178,-1.60518 0.58177,1.35808 0.29089,-0.42353 0.29088,0.30583 0.29089,-1.1183 0.29089,1.19583 0.29088,-0.97503 0.29089,-0.14768 0.29088,1.05799 0.58178,-2.76102 0.29088,2.1895 0.29089,0.83477 0.29089,0.35055 0.29088,-0.25578 0.29089,0.17173 0.29088,-0.21017 0.29089,-1.45329 0.29089,1.47677 0.29088,-0.42462 0.29089,0.65548 0.29089,-2.6204 0.29088,1.69386 0.29089,0.08 0.29089,-0.99377 0.29088,-0.0409 0.29089,1.14731 0.29088,-0.13341 0.29089,0.82469 0.29089,-0.44443 0.29088,0.88686 0.29089,-0.49427 0.29089,0.16772 0.58177,0.0238 0.29088,-1.4861 0.29089,1.84955 0.29089,-0.50277 0.29088,-3.79224 0.29089,4.18079 0.29089,-0.11805 0.58177,-1.90993 0.58177,2.1645 0.29089,-0.067 0.29088,-0.32872 0.29089,0.26969 0.29089,-0.78717 0.29088,0.58915 0.29089,-0.45799 0.29089,0.70886 0.29088,0.0368 0.29089,0.41283 0.29089,-0.7851 0.29088,0.34474 0.29089,-0.15869 0.29088,-1.47247 0.29089,1.44192 0.29089,-0.14919 0.29088,-2.37399 0.29089,2.96759 0.29089,-4.33891 0.29088,3.40889 0.29089,0.76423 0.29088,0.0192 0.29089,-0.42768 0.58177,0.47913 0.29089,0.0661 0.29089,-0.0684 0.29088,-2.11063 0.29089,2.39606 0.29089,-0.11447 0.29088,0.0968 0.29089,-1.61604 0.29088,0.55811 0.29089,1.29165 0.29089,-1.60231 0.29088,0.32516 0.29089,0.9961 0.29089,-1.05185 0.58177,1.1768 0.29088,-0.72591 0.29089,-0.0331 0.29089,0.33332 0.29088,0.70509 0.29089,-0.52554 0.29089,0.57072 0.29088,-0.96168 0.29089,1.06518 0.58177,0.11501 0.29089,-0.65185 0.29088,0.95844 0.29089,-0.16027 0.29089,-1.07413 0.29088,-2.949 0.29089,3.35093 0.29088,0.44276 0.58178,0.23268 0.29088,-0.57725 0.29089,0.10315 0.29089,0.5432 0.29088,-1.12694 0.29089,-0.50525 0.29088,1.59186 0.29089,-0.10053 0.29089,-0.6341 0.58177,0.75226 0.29089,-1.94016 0.29088,1.89003 0.29089,0.0865 0.29089,-0.0651 0.29088,-0.67255 0.29089,-0.16295 0.29088,1.2433 0.29089,-0.64603 0.58177,0.26306 0.29089,-2.94055 0.29089,2.28837 0.29088,-0.47562 0.29089,1.47481 0.29088,-0.7734 0.58178,1.09306 0.29088,-1.68258 0.29089,0.59413 0.29089,-0.70079 0.29088,1.14745 0.29089,-0.83651 0.29089,1.08556 0.29088,-1.62301 0.29089,-0.88048 0.29088,1.96876 0.58178,-0.0423 0.29088,-1.64111 0.29089,2.33339 0.29089,-0.91971 0.29088,0.86489 0.58177,0.55581 0.29089,-0.67055 0.58177,-0.29257 0.58178,0.70118 0.29088,-1.78446 0.29089,0.17777 0.29089,1.30447 0.29088,0.32844 0.29089,-1.3573 0.29088,-0.64928 0.29089,1.85954 0.29089,-0.81824 0.29088,1.10072 0.29089,0.1559 0.29089,-1.85397 0.29088,1.99382 0.29089,-0.8195 0.29088,1.02777 0.29089,-0.12618 0.29089,-1.26474 0.29088,-0.17665 0.29089,0.0789 0.29089,0.45166 0.29088,-0.46061 0.29089,-7.6e-4 0.58177,0.89375 0.29089,0.38343 0.29088,-1.08938 0.29089,1.48886 0.29089,-0.22741 0.29088,0.37531 0.29089,-1.66767 0.29089,1.66356 0.58177,-0.1961 0.29088,0.23374 0.29089,-1.70874 0.29089,1.28497 0.29088,-0.0158 0.29089,0.38059 0.29089,-1.21941 0.29088,1.10075 0.29089,-0.26756 0.29088,-0.70324 0.29089,-0.10119 0.29089,0.66958 0.29088,-0.10035 0.29089,0.0961 0.29089,-0.73439 0.58177,1.11986 0.29089,-0.31778 0.29088,0.3878 0.29089,-3.8942 0.29089,3.49221 0.29088,-0.48494 0.29089,1.01294 0.29088,-0.99786 0.29089,0.41608 0.29089,0.077 0.29088,-2.13664 0.29089,2.65447 0.29089,-0.008 0.29088,0.12691 0.29089,-2.19378 0.29088,2.30799 0.29089,-0.52388 0.29089,0.0588 0.29088,-1.28225 0.29089,0.35908 0.58177,1.13117 0.29089,-1.2183 0.29088,1.20841 0.29089,-0.52104 0.29089,0.39426 0.58177,0.0766 0.58177,0.7094 0.29089,-1.37666 0.29089,0.71784 0.29088,-1.13461 0.29089,1.69908 0.29088,-0.48457 0.29089,-1.47327 0.29089,0.60262 0.29088,-0.83599 0.29089,-0.0104 0.29089,2.00961 0.29088,-0.71923 0.29089,-0.31407 0.29088,1.15087 0.29089,-1.73094 0.29089,1.59276 0.29088,0.16893 0.87266,-1.82144 0.29089,1.48861 0.29088,-0.0364 0.29089,-1.65508 0.29089,1.26531 0.29088,0.55032 0.29089,-0.59891 0.29089,-0.18377 0.29088,0.29001 0.29089,0.64268 0.29088,-0.42762 0.29089,-0.80282 0.58177,1.06165 0.29089,0.10516 0.29089,-0.16029 0.29088,0.0354 0.29089,-0.72641 0.29089,0.43185 0.29088,-2.73204 0.58177,3.41598 0.29089,-0.6847 0.29089,-1.81342 0.29088,0.41587 0.29089,1.80719 0.29089,-0.42869 0.29088,0.38035 0.29089,-1.2378 0.29088,0.56714 0.29089,-5.34593 0.29089,6.24412 0.29088,-1.37094 0.29089,1.1787 0.58177,0.51694 0.29089,-0.58359 0.29088,-1.89906 0.29089,2.42803 0.29089,-0.49364 0.29088,0.49655 0.29089,-0.0888 0.29089,-2.52456 0.29088,2.59841 0.29089,-0.80593 0.29089,-0.46319 0.29088,0.15865 0.29089,-0.46248 0.29088,1.05591 0.29089,0.34526 0.29089,-1.40968 0.29088,0.86849 0.29089,-0.6812 0.29089,1.29076 0.58177,-2.45079 0.58177,2.6356 0.29089,-1.13733 0.29088,0.18993 0.29089,0.88815 0.29089,-0.11599 0.29088,0.13354 0.29089,-0.25232 0.29089,-0.0213 0.29088,-0.68355 0.29089,-0.11131 0.29088,0.23439 0.29089,-0.0535 0.29089,1.04996 0.29088,-0.3426 0.29089,0.38307 0.29089,-1.17989 0.29088,0.83448 0.29089,-0.33864 0.29088,-0.96697 0.29089,1.31438 0.29089,-0.0536 0.29088,-1.39417 0.29089,1.42024 0.29089,-0.70785 0.29088,0.0236 0.58178,1.05694 0.29088,-0.61655 0.29089,-0.14656 0.29088,0.0866 0.29089,0.75147 0.29089,0.41259 0.29088,-0.97354 0.58178,0.88139 0.29088,-2.29298 0.29089,1.35226 0.29088,-0.19262 0.29089,-0.99018 0.29089,1.52328 0.58177,-3.68819 0.29089,2.79185 0.29088,-0.0771 0.29089,0.65506 0.29088,-1.70661 0.29089,2.53053 0.29089,-2.20175 0.29088,0.50248 0.29089,1.25107 0.29089,-1.62965 0.29088,0.61728 0.29089,1.14501 0.29089,0.2561 0.87266,-0.3021 0.29088,-1.04731 0.29089,-0.1125 0.29088,1.35381 0.58178,0.22968 0.29088,-3.57134 0.29089,3.65348 0.29089,-3.0637 0.29088,2.43218 0.29089,-0.76649 0.29088,0.1794 0.29089,1.25859 0.29089,-2.07639 0.29088,2.06831 0.29089,-1.72595 0.29089,0.58453 0.29088,-0.31271 0.29089,1.24822 0.29089,-1.35238 0.29088,1.57819 0.58177,-1.20929 0.29089,-1.30158 0.29089,1.89313 0.29088,-0.0209 0.29089,-0.59629 0.29089,0.0481 0.29088,1.5502 0.29089,-2.39759 0.29088,0.82544 0.29089,1.2568 0.29089,-1.29934 0.29088,-2.14818 0.29089,2.39929 0.29088,0.1648 0.29089,0.44902 0.29089,-0.53004 0.29088,0.22757 0.29089,-0.7795 0.29089,0.71874 0.58177,-2.2448 0.29089,3.04975 0.29088,-0.27529 0.29089,0.0919 0.29088,-1.3249 0.58178,0.56841 0.29088,1.01172 0.29089,-1.95429 0.29089,0.86996 0.29088,-0.66721 0.29089,1.23645 0.29088,-0.48275 0.29089,0.16346 0.29089,-0.68672 0.29088,0.17458 0.29089,1.13729 0.29089,-0.97351 0.58177,1.28884 0.29089,0.11686 0.29088,-0.74581 0.29089,0.50337 0.29088,-2.04777 0.29089,1.88413 0.29089,0.59213 0.29088,-0.30596 0.29089,-1.08659 0.29089,0.94117 0.29088,0.5609 0.29089,-0.6555 0.58177,-0.57474 0.29089,-0.12213 0.29088,0.68629 0.29089,-0.24698 0.29089,-0.0472 0.29088,-1.01414 0.29089,1.277 0.29089,-1.42043 0.29088,1.70665 0.29089,-1.23519 0.29089,0.90083 0.29088,-0.61196 0.29089,1.13291 0.29088,-0.48237 0.29089,-3.26831 0.29089,3.74837 0.58177,-1.50385 0.29089,-0.52679 0.29088,0.0361 0.29089,1.5957 0.29088,0.26595 0.29089,-0.25164 0.58177,-2.47646 0.29089,2.73092 0.29089,-1.19679 0.29088,0.46005 0.29089,0.91634 0.29088,-0.27673 0.29089,0.4067 0.29089,-3.34016 0.29088,2.28049 0.29089,-0.39996 0.29089,-0.0156 0.29088,-1.50572 0.29089,2.15447 0.29089,1.06222 0.29088,-1.55588 0.29089,-0.31974 0.29088,0.0203 0.29089,0.92704 0.29089,-3.12406 0.29088,3.38209 0.29089,-1.54597 0.29089,1.70133 0.29088,-0.60119 0.58177,-0.55541 0.29089,1.68845 0.29089,-2.24237 0.29088,1.20793 0.29089,-0.0224 0.29089,-3.98456 0.29088,5.27285 0.29089,-0.40549 0.29089,-0.89227 0.29088,0.61193 0.29089,-3.47932 0.29088,3.06705 0.29089,0.15171 0.29089,0.58458 0.29088,-3.21001 0.29089,2.95585 0.29089,-0.56615 0.29088,-2.40705 0.29089,2.65195 0.29088,0.79268 0.29089,-1.88403 0.29089,-0.79667 0.58177,2.01612 0.29089,0.42931 0.29088,-2.76792 0.29089,2.39113 0.58177,-1.04149 0.29089,0.90675 0.29088,-0.71058 0.29089,1.15856 0.29089,0.51435 0.29088,-1.35764 0.29089,0.7568 0.29089,-1.41844 0.29088,0.94579 0.29089,0.24488 0.29088,-1.59978 0.58178,2.08476 0.29088,-1.55285 0.29089,0.74636 0.29089,-1.41557 0.58177,1.03601 0.29088,1.44239 0.29089,-1.89093 0.58177,1.15612 0.29089,-0.16654 0.58177,0.63442 0.29089,-0.2288 0.29089,-3.60867 0.29088,0.33209 0.29089,3.20563 0.29088,-0.0989 0.29089,0.18948 0.29089,-2.62524 0.58177,2.99695 0.29089,-0.65182 0.29088,0.99557 0.29089,-0.22122 0.29088,0.25347 0.29089,-0.65249 0.29089,-0.35195 0.29088,0.42816 0.29089,-2.22899 0.29089,2.51083 0.29088,-0.1641 0.29089,-0.90102 0.29089,1.31508 0.29088,-1.6679 0.29089,0.8015 0.29088,-0.53407 0.29089,0.96214 0.29089,-2.3419 0.29088,0.82168 0.29089,0.32167 0.29089,0.49934 0.29088,-1.74916 0.29089,2.4408 0.29088,-0.58899 0.29089,0.89274 0.29089,0.16014 0.29088,-1.36345 0.29089,0.24752 0.29088,-0.0699 0.29089,1.12898 0.29089,-1.41654 0.29088,1.2944 0.29089,-2.28819 0.29089,2.33375 0.29088,-1.25617 0.29089,0.73083 0.29089,-1.83579 0.29088,1.82516 0.29089,0.65527 0.29088,-2.59437 0.29089,-0.63765 0.29089,2.71305 0.29088,-1.40119 0.29089,1.47316 0.29089,-0.13342 0.29088,-0.37495 0.29089,0.57655 0.29088,-1.17822 0.58178,1.36698 0.29088,-1.47583 0.29089,0.44672 0.29089,1.43617 0.58177,-1.38972 0.29089,0.47847 0.29088,0.0488 0.58177,-0.13114 0.29089,0.54194 0.29089,-1.4131 0.29088,2.00115 0.29089,-2.21383 0.29089,0.6985 0.58177,0.47927 0.29088,-4.23156 0.29089,3.90723 0.29089,1.46456 0.29088,-2.5107 0.29089,2.03677 0.29089,-1.08503 0.29088,1.23389 0.29089,-0.11967 0.29089,-3.85634 0.29088,2.6599 0.29089,0.3866 0.29088,0.83328 0.29089,-2.89118 0.29089,1.70249 0.29088,-1.11899 0.29089,1.09679 0.29089,-0.91241 0.29088,1.4226 0.29089,0.39826 0.29088,-0.42228 0.29089,-0.18991 0.29089,0.84955 0.29088,-3.54968 0.58178,3.14579 0.29088,-0.85771 0.58177,1.85706 0.29089,-0.97819 0.29089,-0.003 0.29088,-3.09661 0.29089,3.49687 0.29089,-0.19299 0.29088,-0.89414 0.29089,-0.46005 0.29089,0.86946 0.29088,0.0486 0.29089,-0.72404 0.29088,1.47317 0.29089,-1.8629 0.29089,1.30748 0.29088,-0.69172 0.29089,0.21539 0.29089,0.0446 0.29088,0.40323 0.29089,0.62667 0.58177,-1.33654 0.29089,1.39106 0.58177,-1.78449 0.29089,1.30775 0.29088,-3.00418 0.29089,0.60508 0.29089,-0.83185 0.29088,3.04521 0.29089,-3.5396 0.58177,3.05229 0.29089,0.31834 0.29088,-2.10301 0.29089,1.08488 0.29089,1.82337 0.29088,-2.26385 0.29089,1.18056 0.29088,-0.12756 0.29089,0.68089 0.29089,-1.41059 0.29088,1.41699 0.29089,-0.10076 0.29089,-0.7275 0.29088,0.53875 0.29089,-0.47807 0.29088,-0.2191 0.29089,0.36138 0.29089,-1.7524 0.29088,-0.58735 0.29089,2.6336 0.29089,-1.65813 0.29088,2.28321 0.29089,-1.3944 0.29089,0.45354 0.29088,-0.60864 0.29089,-1.80197 0.29088,2.47331 0.29089,0.74249 0.29089,0.3829 0.29088,-0.61078 0.29089,0.139 0.29089,-0.85623 0.29088,-0.27104 0.29089,0.99239 0.29088,0.48698 0.29089,-2.98481 0.29089,3.1679 0.29088,-3.65461 0.29089,2.66804 0.29089,-3.39024 0.29088,4.07571 0.29089,-1.37618 0.29089,0.0191 0.29088,1.20257 0.29089,-0.42192 0.29088,-3.16337 0.29089,4.11678 0.29089,-3.54497 0.29088,2.1357 0.29089,0.77761 0.29089,-2.22756 0.29088,1.58368 0.29089,-1.77169 0.29088,2.14737 0.29089,-0.0444 0.29089,-0.36522 0.29088,-1.57616 0.29089,1.56349 0.29089,0.26033 0.58177,1.01673 0.29089,-0.79239 0.29088,-1.99379 0.29089,2.2685 0.29088,-1.17702 0.29089,-0.0521 0.29089,0.88024 0.29088,-2.54504 0.29089,2.15405 0.29089,-0.25571 0.29088,0.17858 0.29089,-1.27672 0.29088,1.60346 0.29089,0.69737 0.58177,-1.06149 0.29089,0.0734 0.29089,-0.85798 0.29088,0.80426 0.29089,-0.66903 0.29088,0.69427 0.29089,-0.9964 0.29089,2.10834 0.29088,0.0998 0.29089,-2.3724 0.29089,0.85476 0.29088,0.35214 0.29089,1.83892 0.29089,-0.8678 0.29088,0.19519 0.29089,-0.44333 0.29088,0.11955 0.29089,-0.61526 0.29089,0.21969 0.29088,0.58976 0.29089,-0.89087 0.29089,0.0265 0.29088,1.19138 0.29089,-1.16591 0.29089,0.30697 0.29088,-0.31364 0.29089,-0.005 0.29088,0.44614 0.29089,1.04019 0.29089,-0.40209 0.29088,-0.66603 0.29089,0.12593 0.29089,-3.13489 0.29088,3.01945 0.29089,-0.26021 0.29089,-0.59212 0.58177,1.78068 0.29088,-1.3421 0.29089,0.15944 0.29089,-0.5351 0.29088,1.55284 0.29089,-1.21845 0.29089,0.97451 0.29088,-0.75812 0.58177,1.03309 0.29089,-1.82251 0.29089,1.58033 0.29088,-2.13607 0.29089,0.968 0.29089,-0.1053 0.29088,-1.17703 0.29089,2.12392 0.29088,-2.14819 0.29089,1.60137 0.29089,-0.18879 0.29088,0.31192 0.29089,-0.46527 0.29089,-2.27863 0.29088,3.52164 0.29089,-0.12572 0.29089,-2.11545 0.29088,0.6144 0.29089,-1.4007 0.29088,3.03729 0.58178,-1.66276 0.29088,1.34323 0.29089,-0.12436 0.29089,0.43112 0.29088,-3.18519 0.29089,2.18507 0.29088,1.10781 0.29089,-3.11601 0.29089,3.40612 0.29088,-1.56728 0.29089,0.70458 0.29089,-0.51253 0.29088,1.50359 0.29089,-1.17432 0.29089,0.47879 0.29088,-0.26682 0.29089,0.10452 0.29088,-0.81218 0.29089,0.43429 0.29089,-3.23893 0.58177,3.38593 0.29089,-1.26196 0.29088,1.50138 0.29089,-1.95349 0.29088,2.67196 0.58178,-4.72708 0.29088,3.73407 0.29089,0.22971 0.29089,-2.1828 0.29088,1.37006 0.29089,-0.50884 0.29089,0.55071 0.29088,0.21389 0.29089,-0.21626 0.29088,-0.92785 0.29089,2.03873 0.29089,-1.21439 0.29088,1.00546 0.29089,-2.22228 0.29089,1.8915 0.29088,-0.42498 0.29089,0.84467 0.29088,-0.0508 0.29089,-3.37513 0.29089,3.36468 0.29088,0.15547 0.29089,-1.01082 0.29089,1.44946 0.29088,-0.77459 0.58177,-2.65991 0.58178,1.67395 0.29088,0.56424 0.29089,-0.0996 0.29089,0.96444 0.29088,-1.15311 0.29089,0.92541 0.29089,0.16135 0.29088,-0.27613 0.29089,-0.77693 0.29088,-1.52516 0.29089,2.28623 0.58177,-1.75796 0.29089,2.605 0.29089,0.098 0.58177,-2.44715 0.29088,2.12153 0.29089,-0.39637 0.29089,-1.36261 0.29088,1.10025 0.29089,-3.75364 0.29089,3.6364 0.29088,-1.13227 0.29089,0.4334 0.87266,-2.15537 0.29088,2.71567 0.29089,-2.34599 0.29089,1.40448 0.58177,1.42231 0.29088,-3.03692 0.29089,2.21483 0.58177,-1.37562 0.29089,1.89539 0.29089,-0.57917 0.29088,-1.91068 0.29089,2.10853 0.29089,-1.93509 0.58177,1.74278 0.29088,0.23927 0.29089,-2.65767 0.29089,3.05079 0.29088,-0.5756 0.29089,0.2305 0.29089,-0.54841 0.29088,0.43716 0.29089,0.70082 0.29088,-0.1218 0.29089,-3.44273 0.29089,3.9063 0.58177,-2.06239 0.29089,-0.40404 0.29088,2.30503 0.29089,-0.69413 0.29088,-0.31511 0.29089,-0.13908 0.29089,0.0103 0.29088,0.64532 0.29089,-2.54486 0.29089,3.59785 0.29088,-1.18727 0.58178,0.76332 0.29088,-5.39757 0.29089,5.81884 0.29088,-0.66821 0.29089,-4.99458 0.29089,3.22944 0.29088,-0.12285 0.29089,0.0871 0.58177,1.47565 0.29089,0.28427 0.29088,-1.85476 0.29089,-0.73974 0.29089,2.24352 0.29088,0.58078 0.29089,-0.005 0.29089,-1.4763 0.29088,0.85601 0.29089,0.0641 0.29089,-0.5225 0.29088,0.15298 0.29089,-0.30336 0.29088,-1.83359 0.29089,2.80966 v 0"
           style="fill:none;stroke:#ff7f0e;stroke-width:1.5;stroke-linecap:square"
           id="path164" />
      </g>
      <g
         id="patch_3">
        <path
           d="M 65.45,304 V 35.88"
           style="fill:none;stroke:#000000;stroke-width:0.8;stroke-linecap:square;stroke-linejoin:miter"
           id="path167" />
      </g>
      <g
         id="patch_4">
        <path
           d="M 703.8,304 V 35.88"
           style="fill:none;stroke:#000000;stroke-width:0.8;stroke-linecap:square;stroke-linejoin:miter"
           id="path170" />
      </g>
      <g
         id="patch_5">
        <path
           d="M 65.45,304 H 703.8"
           style="fill:none;stroke:#000000;stroke-width:0.8;stroke-linecap:square;stroke-linejoin:miter"
           id="path173" />
      </g>
      <g
         id="patch_6">
        <path
           d="M 65.45,35.88 H 703.8"
           style="fill:none;stroke:#000000;stroke-width:0.8;stroke-linecap:square;stroke-linejoin:miter"
           id="path176" />
      </g>
      <g
         id="legend_1">
        <g
           id="patch_7">
          <path
             d="M 532.15313,91.914375 H 693.3 q 3,0 3,-3 V 46.38 q 0,-3 -3,-3 H 532.15313 q -3,0 -3,3 v 42.534375 q 0,3 3,3 z"
             style="opacity:0.8;fill:#ffffff;stroke:#cccccc;stroke-linejoin:miter"
             id="path182" />
        </g>
        <g
           id="line2d_18">
          <path
             d="m 535.15313,55.527656 h 30"
             style="fill:none;stroke:#1f77b4;stroke-width:1.5;stroke-linecap:square"
             id="path185" />
        </g>
        <g
           id="line2d_19" />
        <g
           id="text_19">
          <text
             style="font-style:normal;font-weight:normal;font-size:15px;font-family:'DejaVu Sans';text-anchor:start"
             x="577.15314"
             y="60.777657"
             id="text189">Training Loss</text>
        </g>
        <g
           id="line2d_20">
          <path
             d="m 535.15313,77.544844 h 30"
             style="fill:none;stroke:#ff7f0e;stroke-width:1.5;stroke-linecap:square"
             id="path192" />
        </g>
        <g
           id="line2d_21" />
        <g
           id="text_20">
          <text
             style="font-style:normal;font-weight:normal;font-size:15px;font-family:'DejaVu Sans';text-anchor:start"
             x="577.15314"
             y="82.794846"
             id="text196">Validation Loss</text>
        </g>
      </g>
    </g>
  </g>
  <defs
     id="defs205">
    <clipPath
       id="pbbb2035b51">
      <rect
         height="268.12"
         width="638.34998"
         x="65.449997"
         y="35.880001"
         id="rect202" />
    </clipPath>
  </defs>
</svg>
