<?xml version="1.0" encoding="UTF-8" standalone="no"?>
<svg
   width="687.56927pt"
   height="327.24197pt"
   viewBox="0 0 687.56927 327.24197"
   version="1.1"
   id="svg24"
   sodipodi:docname="cnn_loss_comparison.svg"
   inkscape:version="1.3 (0e150ed6c4, 2023-07-21)"
   xmlns:inkscape="http://www.inkscape.org/namespaces/inkscape"
   xmlns:sodipodi="http://sodipodi.sourceforge.net/DTD/sodipodi-0.dtd"
   xmlns:xlink="http://www.w3.org/1999/xlink"
   xmlns="http://www.w3.org/2000/svg"
   xmlns:svg="http://www.w3.org/2000/svg"
   xmlns:rdf="http://www.w3.org/1999/02/22-rdf-syntax-ns#"
   xmlns:cc="http://creativecommons.org/ns#"
   xmlns:dc="http://purl.org/dc/elements/1.1/">
  <sodipodi:namedview
     id="namedview24"
     pagecolor="#ffffff"
     bordercolor="#000000"
     borderopacity="0.25"
     inkscape:showpageshadow="2"
     inkscape:pageopacity="0.0"
     inkscape:pagecheckerboard="0"
     inkscape:deskcolor="#d1d1d1"
     inkscape:document-units="pt"
     inkscape:zoom="1.0302083"
     inkscape:cx="458.15976"
     inkscape:cy="217.91709"
     inkscape:window-width="1920"
     inkscape:window-height="1080"
     inkscape:window-x="0"
     inkscape:window-y="0"
     inkscape:window-maximized="1"
     inkscape:current-layer="svg24" />
  <metadata
     id="metadata1">
    <rdf:RDF>
      <cc:Work>
        <dc:type
           rdf:resource="http://purl.org/dc/dcmitype/StillImage" />
        <dc:date>2023-10-30T22:14:59.492598</dc:date>
        <dc:format>image/svg+xml</dc:format>
        <dc:creator>
          <cc:Agent>
            <dc:title>Matplotlib v3.7.3, https://matplotlib.org/</dc:title>
          </cc:Agent>
        </dc:creator>
      </cc:Work>
    </rdf:RDF>
  </metadata>
  <defs
     id="defs1">
    <style
       type="text/css"
       id="style1">*{stroke-linejoin: round; stroke-linecap: butt}</style>
  </defs>
  <g
     id="figure_1"
     transform="translate(-16.630726,-16.792997)">
    <g
       id="axes_1">
      <g
         id="patch_2">
        <path
           d="M 65.54,304 H 703.8 V 19.37536 H 65.54 Z"
           style="fill:#ffffff"
           id="path2" />
      </g>
      <g
         id="matplotlib.axis_1">
        <g
           id="xtick_1">
          <g
             id="line2d_1">
            <defs
               id="defs2">
              <path
                 id="m7fb183d75d"
                 d="M 0,0 V 3.5"
                 style="stroke:#000000;stroke-width:0.8" />
            </defs>
            <g
               id="g2">
              <use
                 xlink:href="#m7fb183d75d"
                 x="93.521202"
                 y="304"
                 style="stroke:#000000;stroke-width:0.8"
                 id="use2" />
            </g>
          </g>
          <g
             id="text_1">
            <text
               style="font-style:normal;font-variant:normal;font-weight:normal;font-stretch:normal;font-size:15px;line-height:normal;font-family:'DejaVu Sans', 'Bitstream Vera Sans', 'Computer Modern Sans Serif', 'Lucida Grande', Verdana, Geneva, Lucid, Arial, Helvetica, 'Avant Garde', sans-serif;text-anchor:middle"
               x="93.521202"
               y="322.39764"
               id="text2">0</text>
          </g>
        </g>
        <g
           id="xtick_2">
          <g
             id="line2d_2">
            <g
               id="g3">
              <use
                 xlink:href="#m7fb183d75d"
                 x="196.58272"
                 y="304"
                 style="stroke:#000000;stroke-width:0.8"
                 id="use3" />
            </g>
          </g>
          <g
             id="text_2">
            <text
               style="font-style:normal;font-variant:normal;font-weight:normal;font-stretch:normal;font-size:15px;line-height:normal;font-family:'DejaVu Sans', 'Bitstream Vera Sans', 'Computer Modern Sans Serif', 'Lucida Grande', Verdana, Geneva, Lucid, Arial, Helvetica, 'Avant Garde', sans-serif;text-anchor:middle"
               x="196.58272"
               y="322.39764"
               id="text3">100</text>
          </g>
        </g>
        <g
           id="xtick_3">
          <g
             id="line2d_3">
            <g
               id="g4">
              <use
                 xlink:href="#m7fb183d75d"
                 x="299.64426"
                 y="304"
                 style="stroke:#000000;stroke-width:0.8"
                 id="use4" />
            </g>
          </g>
          <g
             id="text_3">
            <text
               style="font-style:normal;font-variant:normal;font-weight:normal;font-stretch:normal;font-size:15px;line-height:normal;font-family:'DejaVu Sans', 'Bitstream Vera Sans', 'Computer Modern Sans Serif', 'Lucida Grande', Verdana, Geneva, Lucid, Arial, Helvetica, 'Avant Garde', sans-serif;text-anchor:middle"
               x="299.64426"
               y="322.39764"
               id="text4">200</text>
          </g>
        </g>
        <g
           id="xtick_4">
          <g
             id="line2d_4">
            <g
               id="g5">
              <use
                 xlink:href="#m7fb183d75d"
                 x="402.70578"
                 y="304"
                 style="stroke:#000000;stroke-width:0.8"
                 id="use5" />
            </g>
          </g>
          <g
             id="text_4">
            <text
               style="font-style:normal;font-variant:normal;font-weight:normal;font-stretch:normal;font-size:15px;line-height:normal;font-family:'DejaVu Sans', 'Bitstream Vera Sans', 'Computer Modern Sans Serif', 'Lucida Grande', Verdana, Geneva, Lucid, Arial, Helvetica, 'Avant Garde', sans-serif;text-anchor:middle"
               x="402.70578"
               y="322.39764"
               id="text5">300</text>
          </g>
        </g>
        <g
           id="xtick_5">
          <g
             id="line2d_5">
            <g
               id="g6">
              <use
                 xlink:href="#m7fb183d75d"
                 x="505.76727"
                 y="304"
                 style="stroke:#000000;stroke-width:0.8"
                 id="use6" />
            </g>
          </g>
          <g
             id="text_5">
            <text
               style="font-style:normal;font-variant:normal;font-weight:normal;font-stretch:normal;font-size:15px;line-height:normal;font-family:'DejaVu Sans', 'Bitstream Vera Sans', 'Computer Modern Sans Serif', 'Lucida Grande', Verdana, Geneva, Lucid, Arial, Helvetica, 'Avant Garde', sans-serif;text-anchor:middle"
               x="505.76727"
               y="322.39764"
               id="text6">400</text>
          </g>
        </g>
        <g
           id="xtick_6">
          <g
             id="line2d_6">
            <g
               id="g7">
              <use
                 xlink:href="#m7fb183d75d"
                 x="608.8288"
                 y="304"
                 style="stroke:#000000;stroke-width:0.8"
                 id="use7" />
            </g>
          </g>
          <g
             id="text_6">
            <text
               style="font-style:normal;font-variant:normal;font-weight:normal;font-stretch:normal;font-size:15px;line-height:normal;font-family:'DejaVu Sans', 'Bitstream Vera Sans', 'Computer Modern Sans Serif', 'Lucida Grande', Verdana, Geneva, Lucid, Arial, Helvetica, 'Avant Garde', sans-serif;text-anchor:middle"
               x="608.8288"
               y="322.39764"
               id="text7">500</text>
          </g>
        </g>
        <g
           id="text_7">
          <text
             style="font-style:normal;font-variant:normal;font-weight:normal;font-stretch:normal;font-size:15px;line-height:normal;font-family:'DejaVu Sans', 'Bitstream Vera Sans', 'Computer Modern Sans Serif', 'Lucida Grande', Verdana, Geneva, Lucid, Arial, Helvetica, 'Avant Garde', sans-serif;text-anchor:middle"
             x="384.67001"
             y="340.91486"
             id="text8">Epochs</text>
        </g>
      </g>
      <g
         id="matplotlib.axis_2">
        <g
           id="ytick_1">
          <g
             id="line2d_7">
            <defs
               id="defs8">
              <path
                 id="mc443c77a83"
                 d="M 0,0 H -3.5"
                 style="stroke:#000000;stroke-width:0.8" />
            </defs>
            <g
               id="g8">
              <use
                 xlink:href="#mc443c77a83"
                 x="65.540001"
                 y="275.76712"
                 style="stroke:#000000;stroke-width:0.8"
                 id="use8" />
            </g>
          </g>
          <g
             id="text_8">
            <text
               style="font-style:normal;font-variant:normal;font-weight:normal;font-stretch:normal;font-size:15px;line-height:normal;font-family:'DejaVu Sans', 'Bitstream Vera Sans', 'Computer Modern Sans Serif', 'Lucida Grande', Verdana, Geneva, Lucid, Arial, Helvetica, 'Avant Garde', sans-serif;text-anchor:end"
               x="58.540001"
               y="281.46597"
               id="text9">0.2</text>
          </g>
        </g>
        <g
           id="ytick_2">
          <g
             id="line2d_8">
            <g
               id="g9">
              <use
                 xlink:href="#mc443c77a83"
                 x="65.540001"
                 y="233.47748"
                 style="stroke:#000000;stroke-width:0.8"
                 id="use9" />
            </g>
          </g>
          <g
             id="text_9">
            <text
               style="font-style:normal;font-variant:normal;font-weight:normal;font-stretch:normal;font-size:15px;line-height:normal;font-family:'DejaVu Sans', 'Bitstream Vera Sans', 'Computer Modern Sans Serif', 'Lucida Grande', Verdana, Geneva, Lucid, Arial, Helvetica, 'Avant Garde', sans-serif;text-anchor:end"
               x="58.540001"
               y="239.1763"
               id="text10">0.4</text>
          </g>
        </g>
        <g
           id="ytick_3">
          <g
             id="line2d_9">
            <g
               id="g10">
              <use
                 xlink:href="#mc443c77a83"
                 x="65.540001"
                 y="191.18784"
                 style="stroke:#000000;stroke-width:0.8"
                 id="use10" />
            </g>
          </g>
          <g
             id="text_10">
            <text
               style="font-style:normal;font-variant:normal;font-weight:normal;font-stretch:normal;font-size:15px;line-height:normal;font-family:'DejaVu Sans', 'Bitstream Vera Sans', 'Computer Modern Sans Serif', 'Lucida Grande', Verdana, Geneva, Lucid, Arial, Helvetica, 'Avant Garde', sans-serif;text-anchor:end"
               x="58.540001"
               y="196.88666"
               id="text11">0.6</text>
          </g>
        </g>
        <g
           id="ytick_4">
          <g
             id="line2d_10">
            <g
               id="g11">
              <use
                 xlink:href="#mc443c77a83"
                 x="65.540001"
                 y="148.89818"
                 style="stroke:#000000;stroke-width:0.8"
                 id="use11" />
            </g>
          </g>
          <g
             id="text_11">
            <text
               style="font-style:normal;font-variant:normal;font-weight:normal;font-stretch:normal;font-size:15px;line-height:normal;font-family:'DejaVu Sans', 'Bitstream Vera Sans', 'Computer Modern Sans Serif', 'Lucida Grande', Verdana, Geneva, Lucid, Arial, Helvetica, 'Avant Garde', sans-serif;text-anchor:end"
               x="58.540001"
               y="154.597"
               id="text12">0.8</text>
          </g>
        </g>
        <g
           id="ytick_5">
          <g
             id="line2d_11">
            <g
               id="g12">
              <use
                 xlink:href="#mc443c77a83"
                 x="65.540001"
                 y="106.60853"
                 style="stroke:#000000;stroke-width:0.8"
                 id="use12" />
            </g>
          </g>
          <g
             id="text_12">
            <text
               style="font-style:normal;font-variant:normal;font-weight:normal;font-stretch:normal;font-size:15px;line-height:normal;font-family:'DejaVu Sans', 'Bitstream Vera Sans', 'Computer Modern Sans Serif', 'Lucida Grande', Verdana, Geneva, Lucid, Arial, Helvetica, 'Avant Garde', sans-serif;text-anchor:end"
               x="58.540001"
               y="112.30736"
               id="text13">1.0</text>
          </g>
        </g>
        <g
           id="ytick_6">
          <g
             id="line2d_12">
            <g
               id="g13">
              <use
                 xlink:href="#mc443c77a83"
                 x="65.540001"
                 y="64.318878"
                 style="stroke:#000000;stroke-width:0.8"
                 id="use13" />
            </g>
          </g>
          <g
             id="text_13">
            <text
               style="font-style:normal;font-variant:normal;font-weight:normal;font-stretch:normal;font-size:15px;line-height:normal;font-family:'DejaVu Sans', 'Bitstream Vera Sans', 'Computer Modern Sans Serif', 'Lucida Grande', Verdana, Geneva, Lucid, Arial, Helvetica, 'Avant Garde', sans-serif;text-anchor:end"
               x="58.540001"
               y="70.017708"
               id="text14">1.2</text>
          </g>
        </g>
        <g
           id="ytick_7">
          <g
             id="line2d_13">
            <g
               id="g14">
              <use
                 xlink:href="#mc443c77a83"
                 x="65.540001"
                 y="22.029228"
                 style="stroke:#000000;stroke-width:0.8"
                 id="use14" />
            </g>
          </g>
          <g
             id="text_14">
            <text
               style="font-style:normal;font-variant:normal;font-weight:normal;font-stretch:normal;font-size:15px;line-height:normal;font-family:'DejaVu Sans', 'Bitstream Vera Sans', 'Computer Modern Sans Serif', 'Lucida Grande', Verdana, Geneva, Lucid, Arial, Helvetica, 'Avant Garde', sans-serif;text-anchor:end"
               x="58.540001"
               y="27.728056"
               id="text15">1.4</text>
          </g>
        </g>
        <g
           id="text_15">
          <text
             style="font-style:normal;font-variant:normal;font-weight:normal;font-stretch:normal;font-size:15px;line-height:normal;font-family:'DejaVu Sans', 'Bitstream Vera Sans', 'Computer Modern Sans Serif', 'Lucida Grande', Verdana, Geneva, Lucid, Arial, Helvetica, 'Avant Garde', sans-serif;text-anchor:middle"
             x="27.565781"
             y="161.68768"
             transform="rotate(-90,27.565781,161.68768)"
             id="text16">Loss</text>
        </g>
      </g>
      <g
         id="line2d_14">
        <path
           d="m 94.551818,32.312844 1.030615,20.729551 1.030616,24.470916 1.030615,19.204401 1.030615,15.816678 2.061231,18.32216 1.03062,8.09326 2.06122,11.73989 1.03062,5.93401 2.06123,6.45739 1.03062,7.79955 1.03061,-0.44849 1.03062,4.03052 1.03061,3.54377 1.03062,3.13527 1.03061,5.42486 1.03062,1.01476 2.06123,6.35699 1.03061,-0.27444 1.03062,3.59876 1.03061,2.38364 1.03062,0.58056 1.03061,1.61217 1.03062,1.10608 1.03061,3.84852 1.03062,0.0468 1.03062,0.31801 1.03061,-0.31477 1.03061,3.50364 1.03062,1.98544 1.03061,1.42169 1.03062,3.27021 1.03062,-1.39647 1.03061,0.90485 1.03062,2.95906 1.03061,-1.42611 1.03062,0.39933 1.03061,4.7266 1.03062,-2.88022 1.03061,2.61966 1.03062,0.44397 1.03061,1.27897 1.03062,-0.15808 1.03061,2.05096 2.06123,1.84028 1.03062,3.32401 1.03061,-3.1308 1.03062,2.18634 1.03061,0.073 1.03062,1.16349 1.03061,2.31554 1.03062,-1.38469 1.03061,0.63877 1.03062,1.8477 1.03062,0.54393 1.03061,0.31756 1.03062,-0.31763 1.03061,0.71554 1.03062,-1.43888 1.03061,2.10871 1.03062,0.16564 2.06123,3.39403 1.03061,0.33816 1.03062,-1.96593 1.03061,3.73458 1.03062,1.6377 1.03061,-3.00342 1.03062,1.27574 1.03061,1.48933 1.03062,0.71977 1.03061,1.12602 1.03062,-1.76122 1.03061,0.42848 1.03062,1.90778 1.03061,0.57501 1.03062,-1.00877 1.03061,-0.58475 1.03062,0.47782 1.03062,1.30712 1.03061,1.6197 1.03062,-0.51023 1.03061,-2.49608 2.06123,4.41104 1.03062,-0.99461 1.03061,1.95554 1.03062,0.76128 1.03061,0.39806 1.03062,-1.74404 1.03061,1.24731 1.03062,-2.09858 1.03061,2.14941 1.03062,0.63232 1.03061,1.37958 1.03062,-3.44006 1.03061,2.78202 1.03062,-2.48473 1.03061,1.96418 1.03062,0.74232 1.03061,0.4115 1.03062,1.67653 1.03062,-0.70639 1.03061,0.15355 1.03062,-1.56667 1.03061,2.86465 1.03062,0.72314 1.03061,-1.61397 1.03062,2.85212 1.03061,-2.11767 1.03062,1.62163 1.03061,-1.66478 1.03062,3.09387 1.03061,-1.96655 2.06123,0.83534 1.03062,0.92344 1.03061,-0.33844 1.03062,2.26445 1.03061,-3.24262 1.03062,2.29568 1.03061,3.35328 1.03062,-4.37765 1.03061,1.36159 1.03062,-1.50356 1.03062,-0.87131 1.03061,4.27519 1.03062,-2.24176 1.03061,-0.003 1.03062,0.3134 1.03061,0.4544 1.03062,1.02659 1.03061,-0.082 1.03062,0.43335 1.03061,0.75764 1.03062,2.08276 1.03061,-4.28596 2.06123,1.59532 2.06123,-1.26511 1.03062,0.24026 1.03061,4.61465 1.03062,-3.38343 1.03061,-0.46015 1.03062,1.41894 1.03061,0.75563 1.03062,0.0252 1.03061,1.62342 1.03062,-0.95697 1.03062,0.44255 1.03061,0.11414 1.03062,-0.39062 1.03061,1.06877 1.03062,-1.25565 1.03061,0.0227 1.03062,-1.53275 1.03061,3.44054 1.03062,0.0615 1.03061,-2.01935 1.03062,1.82828 1.03061,-0.77285 1.03062,-0.21742 1.03061,0.61283 1.03062,1.31732 1.03061,-1.52571 1.03062,1.07053 1.03061,0.0534 1.03062,0.27185 1.03062,-2.24229 1.03061,2.31967 1.03061,0.51191 1.03062,-1.86187 1.03062,2.82112 1.03061,-3.96397 1.03062,5.79953 1.03061,-1.72578 1.03062,-1.0977 1.03061,-0.33398 1.03062,4.91636 1.03061,-4.94716 1.03062,1.8278 1.03061,0.77328 1.03062,-0.24076 1.03061,-1.90847 1.03062,1.32609 1.03061,0.0677 1.03062,0.34603 1.03061,-0.29096 1.03062,2.01966 1.03061,-3.76893 1.03062,3.13675 1.03061,-1.14477 1.03062,-0.51237 1.03061,0.0101 1.03062,2.16315 1.03062,-1.56603 1.03061,1.20311 2.06123,0.41422 1.03062,0.67929 1.03061,-1.23239 1.03062,-0.99819 1.03061,0.92484 1.03062,1.13559 1.03061,0.71607 1.03062,-2.77927 1.03061,-0.33471 1.03062,0.23433 1.03061,2.95495 1.03062,0.85015 1.03061,-0.25972 1.03062,-0.61972 1.03061,3.52532 1.03062,-3.43391 1.03062,0.68456 1.03061,-1.10649 1.03061,1.5113 1.03062,-1.06611 1.03061,1.99796 1.03062,-1.02572 1.03062,-0.23206 1.03061,-2.91692 1.03062,2.52047 1.03061,-1.63675 1.03062,2.1967 1.03061,0.007 1.03062,-0.77261 1.03061,1.4947 1.03062,-3.73582 1.03061,0.67077 1.03062,3.80471 1.03061,-0.16706 1.03062,-0.82254 1.03061,1.88167 1.03062,0.84838 1.03061,-3.8274 1.03062,3.07392 1.03061,-3.34786 1.03062,4.27728 1.03061,-0.38234 1.03062,-2.03527 1.03061,-1.58404 1.03062,-0.54795 1.03062,1.56823 1.03061,2.23356 1.03062,-3.12085 1.03061,2.08183 1.03062,2.71266 1.03061,-0.84747 1.03062,-4.73227 1.03061,0.0184 1.03062,4.74248 1.03061,-1.98571 1.03062,-0.77825 2.06123,-1.1432 1.03061,3.9074 1.03062,-0.38814 1.03061,-1.03414 1.03062,1.11962 1.03061,-2.78232 1.03062,1.8565 1.03061,-0.49733 1.03062,0.16379 1.03061,0.40038 1.03062,1.89468 1.03062,0.58187 1.03061,-3.68821 1.03062,1.11239 1.03061,-0.23996 1.03062,0.88022 1.03061,-3.00493 1.03062,4.61004 1.03061,-2.16981 1.03062,-0.41854 1.03061,0.18185 1.03062,2.73245 1.03061,-1.20412 2.06123,-2.87793 1.03062,2.25995 1.03061,0.0636 1.03062,0.63198 1.03061,0.26285 1.03062,-1.60617 1.03061,1.07599 1.03062,3.27336 1.03061,-2.07168 1.03062,0.79322 2.06123,0.82917 2.06123,-3.25497 1.03062,2.43578 1.03061,-0.16459 1.03062,0.0302 1.03061,-0.27425 1.03062,-3.12179 2.06123,2.73635 1.03061,1.68895 1.03062,-1.22844 1.03061,-0.50128 1.03062,2.21928 1.03061,-3.24944 1.03062,1.69311 1.03061,-1.73861 1.03062,1.35859 1.03061,0.0715 1.03062,1.25024 1.03061,-0.61915 2.06124,2.73786 1.03061,-2.70875 1.03062,0.48074 1.03061,-1.8411 1.03062,2.25854 1.03061,0.0262 1.03062,-1.39406 1.03061,0.91553 1.03062,-1.92093 1.03061,0.54365 1.03062,-0.64046 1.03061,0.83032 1.03062,2.37321 1.03061,-1.27792 1.03062,0.3799 1.03061,-0.25463 1.03062,1.19846 1.03061,0.97409 1.03062,-0.61473 1.03061,-2.50247 1.03062,3.64325 1.03062,-1.73207 1.03061,-1.03984 1.03061,1.98764 1.03062,-0.43815 1.03062,-2.23428 1.03061,1.50575 1.03062,-0.12812 1.03061,0.54147 1.03062,2.02381 1.03061,-2.23419 1.03062,-1.80496 1.03061,0.31991 1.03062,-1.807 1.03061,3.8329 1.03062,0.64382 1.03061,-1.69502 1.03062,-1.02044 1.03061,3.64569 1.03062,1.97387 1.03061,-6.7454 1.03062,2.66496 1.03061,-1.49648 1.03062,2.92101 1.03061,1.40104 1.03062,-2.25526 1.03062,1.57728 1.03061,-2.02613 1.03061,2.45172 1.03062,-2.78706 1.03062,1.11883 1.03061,-1.9884 1.03062,0.9637 1.03061,3.22784 1.03062,-1.4092 1.03061,0.63913 1.03062,-3.7613 1.03061,4.09355 1.03062,-0.10235 1.03061,1.01703 1.03062,-4.09008 1.03061,0.25039 1.03062,2.08246 1.03061,1.75282 1.03062,-1.90891 1.03061,-0.27184 1.03062,2.45453 1.03061,-1.27121 1.03062,0.63935 1.03061,-2.77426 1.03062,0.0144 1.03062,1.75207 1.03061,-2.32571 1.03062,-0.56522 1.03061,2.53858 1.03062,-0.31741 1.03061,1.80385 2.06123,-2.75554 1.03062,2.49659 1.03061,-1.03873 1.03062,1.83548 1.03061,-1.24328 1.03062,-0.85687 1.03061,1.3038 1.03062,-0.48935 1.03061,0.32959 1.03062,-0.60664 1.03061,1.03782 1.03062,0.59381 1.03061,-3.08483 1.03062,2.52465 1.03062,-1.60097 1.03061,1.26663 1.03062,-1.07781 1.03061,-0.17123 1.03061,3.92449 1.03062,-3.4527 1.03062,2.19376 1.03061,-0.29168 1.03062,-1.2127 1.03061,-0.18506 1.03062,-1.25992 1.03061,0.5159 1.03062,3.58364 1.03061,-3.32602 1.03062,0.46664 1.03061,-1.05375 1.03062,5.41698 1.03061,-2.37939 1.03062,-3.11352 1.03061,1.01545 1.03062,1.86619 1.03061,-1.17178 1.03062,1.65705 1.03061,0.48496 1.03062,-3.03188 1.03061,-0.36665 1.03062,2.54126 1.03061,-0.0123 1.03062,-1.61789 1.03062,1.53337 1.03061,-2.14654 1.03062,2.14927 1.03061,1.58464 1.03062,-1.49811 1.03061,-0.94017 1.03062,1.61314 1.03061,-1.72563 1.03062,2.4689 1.03061,-1.72885 1.03062,-0.45609 1.03061,0.15665 1.03062,0.8947 1.03061,1.65499 1.03062,-1.94016 1.03061,-0.25104 1.03062,-1.46865 1.03061,2.81261 1.03062,-3.41402 1.03061,2.35616 1.03062,-0.26135 1.03061,-0.78782 1.03062,0.11312 1.03062,0.3528 1.03061,1.25615 1.03062,-1.51566 2.06123,0.86781 1.03061,-0.59745 1.03062,1.09606 1.03061,-2.14404 1.03062,2.5824 1.03061,-1.98161 1.03062,1.58338 1.03061,-0.93911 1.03062,0.30427 1.03061,-1.54529 1.03062,2.02607 1.03061,0.0948 1.03062,-0.71332 1.03061,1.5797 1.03062,-1.49051 1.03061,-0.21663 1.03062,2.0372 1.03062,-2.10382 1.03061,1.71541 1.03062,-0.042 1.03061,1.82062 1.03062,-2.68476 1.03061,-0.0467 1.03062,1.09283 1.03061,-0.17805 1.03062,-0.53634 1.03061,-2.05024 1.03062,3.1371 1.03061,-1.90416 1.03062,0.51709 1.03061,1.32436 1.03062,-3.20464 1.03061,1.91706 1.03062,2.56515 1.03061,-0.28576 1.03062,-2.08554 1.03061,1.98387 1.03062,-1.91658 1.03061,-0.59017 1.03062,-0.19921 1.03061,0.47145 1.03062,0.63274 1.03061,1.24261 1.03062,-0.52076 1.03062,-0.35298 1.03061,-1.54693 1.03062,0.74042 1.03061,-0.67799 1.03062,-1.68872 1.03061,3.97261 1.03062,-0.19239 1.03061,2.24051 1.03062,-4.82146 1.03061,2.03025 1.03062,-0.53467 1.03061,0.0848 1.03062,2.31218 1.03061,-0.86446 1.03062,-0.44073 1.03061,-1.17151 1.03062,-1.48024 1.03061,1.84604 1.03062,0.61031 1.03061,-0.19156 1.03062,1.04013 1.03061,-0.64464 1.03062,0.99218 1.03062,-5.51223 1.03061,4.20745 1.03062,1.51221 1.03061,-2.3348 1.03062,0.77464 1.03061,-1.65949 1.03062,1.78095 2.06123,-1.27169 1.03061,2.32551 1.03062,-0.53321 1.03061,1.77356 1.03062,-3.8487 1.03061,2.07723 1.03062,2.839 1.03061,-4.62426 1.03062,2.28877 1.03061,-1.69718 1.03062,2.47056 1.03061,-3.58737 1.03062,0.74086 1.03062,-0.0484 2.06123,1.58877 1.03061,0.93221 1.03062,-1.13756 1.03061,2.13404 1.03062,-3.28101 1.03061,3.41169 1.03062,-5.61624 1.03061,5.74148 v 0"
           clip-path="url(#p467833f36d)"
           style="fill:none;stroke:#1f77b4;stroke-width:1.5;stroke-linecap:square"
           id="path16" />
      </g>
      <g
         id="line2d_15">
        <path
           d="m 94.551818,50.261755 1.030615,24.040564 1.030616,31.203121 1.030615,19.78173 1.030615,13.31236 1.030615,9.96916 1.030616,7.02534 1.03062,8.10348 1.03061,6.8888 1.03061,4.3609 1.03062,5.89003 1.03062,5.09816 1.03061,4.28428 3.09185,10.35324 1.03061,4.3436 2.06123,5.59929 1.03062,2.87709 1.03061,0.22992 1.03062,5.8756 2.06123,0.57317 1.03061,2.75011 1.03062,1.30169 1.03061,3.37227 1.03062,-0.9704 1.03061,3.30428 1.03062,-2.44459 1.03062,3.18919 1.03061,-0.4863 1.03061,4.22526 1.03062,0.25381 1.03061,0.87462 1.03062,-0.0527 1.03062,2.53808 1.03061,1.34692 1.03062,-0.26141 1.03061,-0.69675 1.03062,2.6953 1.03061,0.70349 1.03062,-0.87673 1.03061,0.65927 1.03062,3.53648 1.03061,-2.00524 1.03062,0.22366 1.03061,-1.80135 1.03062,2.80314 1.03061,-0.71001 1.03062,-0.15599 1.03061,2.26765 1.03062,0.12755 1.03061,-0.39767 1.03062,0.0865 1.03061,1.23584 2.06123,1.9106 1.03062,-0.37484 1.03062,-0.51321 1.03061,0.93574 1.03062,1.19855 1.03061,-1.37344 1.03062,0.43748 1.03061,1.75718 1.03062,0.79785 1.03061,-0.84015 1.03062,1.41684 1.03061,-0.92756 1.03062,-0.37086 2.06123,2.211 1.03061,-0.19581 1.03062,-1.65942 1.03061,3.47025 1.03062,-1.50882 1.03061,0.50763 1.03062,-0.5749 1.03061,0.11339 1.03062,0.71407 1.03061,0.35731 1.03062,-0.25341 1.03061,0.73347 1.03062,-0.0327 1.03062,-1.24465 1.03061,2.42767 1.03062,-0.45099 1.03061,-1.83518 1.03062,1.88907 1.03061,0.23245 1.03062,-1.9601 1.03061,1.9534 1.03062,-1.80549 1.03061,0.011 1.03062,-0.71852 1.03061,3.20622 1.03062,1.33711 1.03061,-1.59161 1.03062,1.02847 1.03061,0.073 1.03062,-0.57355 1.03061,-2.1833 1.03062,0.76806 1.03061,-0.50825 1.03062,1.78092 1.03061,-0.96994 1.03062,1.35845 1.03062,0.95487 1.03061,-2.37771 1.03062,0.55004 1.03061,-1.31718 1.03062,2.36679 1.03061,0.53092 1.03062,2.01112 1.03061,-0.87965 2.06123,0.27806 1.03062,-4.32175 1.03061,2.7414 1.03062,1.69698 1.03061,-2.16913 1.03062,0.84895 1.03061,-0.91624 1.03062,-1.21413 1.03061,3.07957 1.03062,-2.14208 1.03061,-0.47984 1.03062,1.85927 1.03061,-0.48782 1.03062,-0.76906 1.03062,0.8248 1.03061,1.80259 1.03062,-4.47219 1.03061,3.89148 1.03062,0.63607 1.03061,-1.38172 1.03062,1.02102 1.03061,-2.38593 1.03062,1.87301 1.03061,-1.30473 1.03062,0.8489 1.03061,1.26604 1.03062,-1.97437 1.03061,-0.28168 1.03062,-0.93634 1.03061,0.2359 1.03062,2.74127 1.03061,-1.60243 1.03062,0.27826 1.03061,-0.22508 2.06123,1.34553 1.03062,-0.19552 1.03061,-3.03886 1.03062,2.06505 1.03062,-0.79756 1.03061,2.4143 1.03062,0.0739 2.06123,-3.32025 1.03061,3.98252 1.03062,-0.64476 1.03061,0.75156 1.03062,-1.51009 1.03061,0.4027 1.03062,-0.85463 2.06123,2.7446 1.03061,-1.90495 1.03062,0.76 1.03061,0.18235 1.03062,-2.12763 1.03061,2.87879 1.03062,-3.52577 1.03062,2.47119 1.03061,-1.44958 1.03061,0.56977 1.03062,-0.63041 1.03062,1.41816 1.03061,-2.60382 1.03062,0.83489 1.03061,2.27919 1.03062,0.24212 1.03061,0.57192 1.03062,-0.79627 1.03061,-2.84829 1.03062,2.56838 1.03061,-2.73485 1.03062,0.28416 3.09184,3.61077 2.06123,-2.96702 1.03062,-0.46579 1.03061,0.78768 1.03062,0.0323 1.03061,0.23328 1.03062,-0.36348 1.03061,-0.694 1.03062,2.17433 1.03062,-0.6094 1.03061,1.59755 1.03062,0.14162 1.03061,-1.06933 1.03062,-0.1186 1.03061,-0.44125 1.03062,0.57102 1.03061,-0.73208 1.03062,0.14388 1.03061,-1.36779 1.03062,1.45363 1.03061,-2.45103 1.03062,2.59508 1.03061,1.01759 1.03062,-1.75131 1.03061,-1.13906 1.03062,2.75552 1.03061,-1.48213 1.03062,-0.74537 2.06123,0.0691 1.03061,0.69507 1.03062,2.05542 1.03061,-2.0422 1.03062,-0.17373 2.06123,0.47358 1.03062,1.45108 1.03061,-1.72377 1.03062,-0.0555 1.03061,1.84636 1.03062,-0.4903 1.03061,0.092 1.03062,-0.57951 1.03061,0.87626 1.03062,-1.83939 1.03061,-0.82283 1.03062,0.66091 1.03061,-1.75027 1.03062,0.54299 1.03061,-1.42092 1.03062,2.14946 1.03061,-1.54534 1.03062,1.23172 1.03061,0.44117 1.03062,-0.62473 1.03061,0.009 1.03062,0.97939 1.03062,0.006 1.03061,-1.68013 1.03062,1.27305 1.03061,0.78428 1.03062,-0.6917 1.03061,-1.35125 1.03062,3.24322 1.03061,-1.40377 1.03062,0.38377 1.03061,2.18731 1.03062,-1.23605 1.03061,-1.75117 1.03062,-0.49495 1.03061,-0.74466 1.03062,3.35671 1.03061,-1.33528 1.03062,-3.62646 1.03061,3.40049 1.03062,-2.06911 1.03061,2.19061 1.03062,-0.2334 1.03061,0.1809 1.03062,-0.34514 1.03062,-0.5682 1.03061,1.21038 1.03062,-1.27751 1.03061,2.16444 1.03062,-0.0847 1.03061,-0.70825 1.03062,-1.02467 1.03061,0.63201 1.03062,-0.005 1.03061,-1.16501 1.03062,-0.19962 1.03061,-0.38397 1.03062,2.90978 1.03061,-1.51322 1.03062,1.33546 1.03061,-1.17886 1.03062,2.25684 1.03061,-2.58006 1.03062,3.03376 1.03061,-3.17325 1.03062,-1.05535 1.03061,-0.71459 1.03062,0.0584 1.03061,2.16301 1.03062,-2.30677 1.03062,2.55452 1.03061,0.36986 1.03062,-2.94275 1.03061,0.4484 1.03062,1.79413 1.03061,-0.26342 1.03062,0.0109 1.03061,1.08962 1.03062,-2.35958 1.03061,1.72329 1.03062,-1.88544 1.03061,1.90764 1.03062,1.06933 1.03061,-2.6198 1.03062,-2.07388 1.03061,4.70086 1.03062,-0.73441 1.03061,-0.2646 1.03062,-0.95592 2.06123,0.83617 1.03062,-0.6275 1.03061,-0.0986 1.03062,-2.17273 2.06123,4.23867 1.03061,-2.91982 1.03062,0.55588 1.03061,-0.7339 1.03062,3.29599 1.03061,-3.92846 1.03062,1.6238 1.03061,2.6895 1.03062,-1.71427 1.03061,-0.8318 1.03062,0.4496 1.03061,0.77312 1.03062,-1.75719 1.03061,1.798 1.03062,-0.51869 1.03061,0.0369 1.03062,-1.79245 1.03062,-1.06623 1.03061,0.87843 1.03061,1.41149 1.03062,0.2538 1.03062,0.51944 1.03061,-0.13826 1.03062,-0.86175 1.03061,-1.19334 1.03062,-3.47562 1.03061,4.04868 1.03062,-2.96069 1.03061,2.3347 1.03062,-0.12387 2.06123,0.39391 1.03061,-0.95407 1.03062,3.92554 1.03061,-1.26723 1.03062,-0.74935 1.03061,-1.24567 1.03062,3.08083 1.03061,0.90301 1.03062,-1.65576 2.06123,2.53541 1.03062,-3.12488 1.03061,0.82186 1.03061,0.1485 1.03062,-2.95702 1.03062,2.6127 1.03061,0.25629 1.03062,-0.14302 1.03061,-1.60002 1.03062,2.34517 1.03061,-1.2815 1.03062,0.25991 1.03061,-0.18797 1.03062,-1.32952 1.03061,0.63402 1.03062,0.28061 1.03061,2.83275 1.03062,-3.65976 1.03061,1.78329 1.03062,-0.8323 1.03061,-0.15743 1.03062,0.90033 1.03061,-0.67386 1.03062,1.14774 1.03061,-1.85706 1.03062,-0.25164 1.03062,1.18655 1.03061,0.62829 1.03062,-0.16482 1.03061,1.08297 1.03062,-0.72651 1.03061,0.0583 1.03062,-1.26581 1.03061,2.08424 1.03062,-0.99625 1.03061,0.53726 2.06123,-3.43781 1.03062,3.41132 1.03061,-0.54901 1.03062,-0.21251 1.03061,-0.59778 1.03062,0.39171 1.03061,-2.45668 1.03062,2.22863 1.03061,0.29257 1.03062,-3.20639 1.03062,0.42201 1.03061,3.67606 1.03062,-2.11917 1.03061,-0.79184 1.03061,1.98984 1.03062,-0.19495 1.03062,0.96466 2.06123,-2.84831 1.03061,3.80755 1.03062,-3.28226 1.03061,0.67977 1.03062,0.24334 1.03061,-1.40305 1.03062,2.59787 1.03061,-2.12075 2.06123,2.24601 1.03062,-1.85578 1.03061,0.50701 1.03062,-0.89216 1.03061,1.22148 1.03062,-0.23936 1.03061,-1.50242 1.03062,2.12632 1.03061,0.39912 1.03062,1.04934 1.03061,-3.263 1.03062,0.16434 1.03062,1.43311 1.03061,-1.05791 1.03062,-4.66157 1.03061,2.49128 1.03062,1.55878 1.03061,0.74836 1.03062,-0.32434 1.03061,-1.08376 1.03062,0.5302 1.03061,-1.12023 1.03062,-0.189 1.03061,1.78989 1.03062,-1.32625 1.03061,0.88419 1.03062,-3.23013 1.03061,2.39726 1.03062,0.43664 1.03061,-0.50003 1.03062,-1.97736 1.03061,4.02114 1.03062,-1.21907 1.03061,-1.03286 1.03062,-0.33258 1.03062,0.34631 1.03061,-0.12668 1.03062,1.39656 1.03061,0.64734 1.03062,-1.02563 1.03061,-2.79632 1.03062,4.20899 1.03061,0.16526 1.03062,-3.48546 2.06123,3.85325 1.03061,-4.61354 1.03062,2.07766 1.03061,1.63996 1.03062,-1.93302 1.03061,1.17688 1.03062,-0.34896 1.03061,-3.03501 1.03062,2.87819 1.03061,-0.8627 1.03062,-1.71396 1.03062,-0.05 1.03061,1.56328 1.03062,-0.28374 1.03061,-0.83831 1.03062,1.89307 1.03061,0.68477 1.03062,-1.12885 1.03061,-3.5246 1.03062,4.53615 1.03061,-1.23144 1.03062,0.51357 1.03061,1.66591 1.03062,-0.78716 1.03061,-3.70868 1.03062,1.44156 1.03061,2.73802 1.03062,-3.63418 1.03061,0.82227 1.03062,-0.26146 1.03061,-1.09259 1.03062,2.75533 1.03061,-1.72985 1.03062,0.1615 1.03061,0.74721 1.03062,1.39834 1.03061,-0.22872 1.03062,-1.32925 1.03062,0.99235 1.03061,0.70732 2.06123,0.67686 1.03062,0.22128 1.03061,-0.52961 1.03062,1.78755 1.03061,-2.28001 1.03062,-2.95578 1.03061,1.57844 1.03062,3.8248 1.03061,-4.37657 1.03062,2.20614 1.03061,0.14876 1.03062,-2.19062 1.03061,1.91156 1.03062,0.19567 1.03061,2.08351 1.03062,-2.47095 1.03061,-1.29023 1.03062,3.25385 1.03061,-2.60874 1.03062,2.82397 1.03062,-1.26857 1.03061,1.32573 1.03062,-0.72096 1.03061,-2.8917 1.03062,1.38403 1.03061,0.65715 1.03062,-0.061 1.03061,0.3928 1.03062,0.80578 1.03061,-2.19592 1.03062,-0.553 1.03061,-0.78589 1.03062,-1.55166 1.03061,1.91642 1.03062,1.39278 1.03061,-0.71149 1.03062,-1.10577 1.03061,3.05143 1.03062,-2.10712 1.03061,-0.15686 1.03062,-1.6505 1.03062,0.1384 1.03061,3.23853 1.03062,0.15565 1.03061,0.85202 1.03062,-4.37962 1.03061,1.70842 1.03062,2.70143 1.03061,-0.91742 1.03062,0.54383 1.03061,-3.18994 v 0"
           clip-path="url(#p467833f36d)"
           style="fill:none;stroke:#ff7f0e;stroke-width:1.5;stroke-linecap:square"
           id="path17" />
      </g>
      <g
         id="patch_3">
        <path
           d="M 65.54,304 V 19.37536"
           style="fill:none;stroke:#000000;stroke-width:0.8;stroke-linecap:square;stroke-linejoin:miter"
           id="path18" />
      </g>
      <g
         id="patch_4">
        <path
           d="M 703.8,304 V 19.37536"
           style="fill:none;stroke:#000000;stroke-width:0.8;stroke-linecap:square;stroke-linejoin:miter"
           id="path19" />
      </g>
      <g
         id="patch_5">
        <path
           d="M 65.54,304 H 703.8"
           style="fill:none;stroke:#000000;stroke-width:0.8;stroke-linecap:square;stroke-linejoin:miter"
           id="path20" />
      </g>
      <g
         id="patch_6">
        <path
           d="M 65.54,19.37536 H 703.8"
           style="fill:none;stroke:#000000;stroke-width:0.8;stroke-linecap:square;stroke-linejoin:miter"
           id="path21" />
      </g>
      <g
         id="legend_1">
        <g
           id="patch_7">
          <path
             d="M 533.55938,75.409735 H 693.3 q 3,0 3,-3 V 29.87536 q 0,-3 -3,-3 H 533.55938 q -3,0 -3,3 v 42.534375 q 0,3 3,3 z"
             style="opacity:0.8;fill:#ffffff;stroke:#cccccc;stroke-linejoin:miter"
             id="path22" />
        </g>
        <g
           id="line2d_16">
          <path
             d="m 536.55938,39.023016 h 15 15"
             style="fill:none;stroke:#1f77b4;stroke-width:1.5;stroke-linecap:square"
             id="path23" />
        </g>
        <g
           id="text_16">
          <text
             style="font-style:normal;font-variant:normal;font-weight:normal;font-stretch:normal;font-size:15px;line-height:normal;font-family:'DejaVu Sans', 'Bitstream Vera Sans', 'Computer Modern Sans Serif', 'Lucida Grande', Verdana, Geneva, Lucid, Arial, Helvetica, 'Avant Garde', sans-serif;text-anchor:start"
             x="578.55939"
             y="44.273018"
             id="text23">Training Loss</text>
        </g>
        <g
           id="line2d_17">
          <path
             d="m 536.55938,61.040204 h 15 15"
             style="fill:none;stroke:#ff7f0e;stroke-width:1.5;stroke-linecap:square"
             id="path24" />
        </g>
        <g
           id="text_17">
          <text
             style="font-style:normal;font-variant:normal;font-weight:normal;font-stretch:normal;font-size:15px;line-height:normal;font-family:'DejaVu Sans', 'Bitstream Vera Sans', 'Computer Modern Sans Serif', 'Lucida Grande', Verdana, Geneva, Lucid, Arial, Helvetica, 'Avant Garde', sans-serif;text-anchor:start"
             x="578.55939"
             y="66.290207"
             id="text24">Validation Loss</text>
        </g>
      </g>
    </g>
  </g>
  <defs
     id="defs24">
    <clipPath
       id="p467833f36d">
      <rect
         x="65.540001"
         y="19.37536"
         width="638.26001"
         height="284.62463"
         id="rect24" />
    </clipPath>
  </defs>
</svg>
