<?xml version="1.0" encoding="UTF-8" standalone="no"?>
<svg
   width="720pt"
   height="360pt"
   viewBox="0 0 720 360"
   version="1.1"
   id="svg198"
   sodipodi:docname="cnn_acc_comparison.svg"
   inkscape:version="1.2.2 (1:1.2.2+202305151915+b0a8486541)"
   xmlns:inkscape="http://www.inkscape.org/namespaces/inkscape"
   xmlns:sodipodi="http://sodipodi.sourceforge.net/DTD/sodipodi-0.dtd"
   xmlns:xlink="http://www.w3.org/1999/xlink"
   xmlns="http://www.w3.org/2000/svg"
   xmlns:svg="http://www.w3.org/2000/svg"
   xmlns:rdf="http://www.w3.org/1999/02/22-rdf-syntax-ns#"
   xmlns:cc="http://creativecommons.org/ns#"
   xmlns:dc="http://purl.org/dc/elements/1.1/">
  <sodipodi:namedview
     id="namedview200"
     pagecolor="#ffffff"
     bordercolor="#666666"
     borderopacity="1.0"
     inkscape:showpageshadow="2"
     inkscape:pageopacity="0.0"
     inkscape:pagecheckerboard="0"
     inkscape:deskcolor="#d1d1d1"
     inkscape:document-units="pt"
     showgrid="false"
     inkscape:zoom="0.98847635"
     inkscape:cx="373.80763"
     inkscape:cy="239.76294"
     inkscape:window-width="1920"
     inkscape:window-height="1000"
     inkscape:window-x="0"
     inkscape:window-y="0"
     inkscape:window-maximized="1"
     inkscape:current-layer="svg198" />
  <metadata
     id="metadata2">
    <rdf:RDF>
      <cc:Work>
        <dc:type
           rdf:resource="http://purl.org/dc/dcmitype/StillImage" />
        <dc:date>2023-07-04T23:27:51.106185</dc:date>
        <dc:format>image/svg+xml</dc:format>
        <dc:creator>
          <cc:Agent>
            <dc:title>Matplotlib v3.7.1, https://matplotlib.org/</dc:title>
          </cc:Agent>
        </dc:creator>
      </cc:Work>
    </rdf:RDF>
  </metadata>
  <defs
     id="defs6">
    <style
       type="text/css"
       id="style4">*{stroke-linejoin: round; stroke-linecap: butt}</style>
  </defs>
  <g
     id="figure_1">
    <g
       id="patch_1">
      <path
         d="M 0 360  L 720 360  L 720 0  L 0 0  z "
         style="fill: #ffffff"
         id="path8" />
    </g>
    <g
       id="axes_1">
      <g
         id="patch_2">
        <path
           d="M 58.52 309.04  L 705.96 309.04  L 705.96 31.56  L 58.52 31.56  z "
           style="fill: #ffffff"
           id="path11" />
      </g>
      <g
         id="matplotlib.axis_1">
        <g
           id="xtick_1">
          <g
             id="line2d_1">
            <defs
               id="defs15">
              <path
                 id="mf9f8b6dc64"
                 d="M 0 0  L 0 3.5  "
                 style="stroke: #000000; stroke-width: 0.8" />
            </defs>
            <g
               id="g19">
              <use
                 xlink:href="#mf9f8b6dc64"
                 x="86.969753"
                 y="309.04"
                 style="stroke: #000000; stroke-width: 0.8"
                 id="use17" />
            </g>
          </g>
          <g
             id="text_1">
            <text
               style="font: 13px 'DejaVu Sans', 'Bitstream Vera Sans', 'Computer Modern Sans Serif', 'Lucida Grande', 'Verdana', 'Geneva', 'Lucid', 'Arial', 'Helvetica', 'Avant Garde', sans-serif; text-anchor: middle"
               x="86.969753"
               y="325.917969"
               id="text22"
               transform="rotate(-0 86.969753 325.917969)">0</text>
          </g>
        </g>
        <g
           id="xtick_2">
          <g
             id="line2d_2">
            <g
               id="g28">
              <use
                 xlink:href="#mf9f8b6dc64"
                 x="184.9035"
                 y="309.04"
                 style="stroke: #000000; stroke-width: 0.8"
                 id="use26" />
            </g>
          </g>
          <g
             id="text_2">
            <text
               style="font: 13px 'DejaVu Sans', 'Bitstream Vera Sans', 'Computer Modern Sans Serif', 'Lucida Grande', 'Verdana', 'Geneva', 'Lucid', 'Arial', 'Helvetica', 'Avant Garde', sans-serif; text-anchor: middle"
               x="184.9035"
               y="325.917969"
               id="text31"
               transform="rotate(-0 184.9035 325.917969)">100</text>
          </g>
        </g>
        <g
           id="xtick_3">
          <g
             id="line2d_3">
            <g
               id="g37">
              <use
                 xlink:href="#mf9f8b6dc64"
                 x="282.837247"
                 y="309.04"
                 style="stroke: #000000; stroke-width: 0.8"
                 id="use35" />
            </g>
          </g>
          <g
             id="text_3">
            <text
               style="font: 13px 'DejaVu Sans', 'Bitstream Vera Sans', 'Computer Modern Sans Serif', 'Lucida Grande', 'Verdana', 'Geneva', 'Lucid', 'Arial', 'Helvetica', 'Avant Garde', sans-serif; text-anchor: middle"
               x="282.837247"
               y="325.917969"
               id="text40"
               transform="rotate(-0 282.837247 325.917969)">200</text>
          </g>
        </g>
        <g
           id="xtick_4">
          <g
             id="line2d_4">
            <g
               id="g46">
              <use
                 xlink:href="#mf9f8b6dc64"
                 x="380.770994"
                 y="309.04"
                 style="stroke: #000000; stroke-width: 0.8"
                 id="use44" />
            </g>
          </g>
          <g
             id="text_4">
            <text
               style="font: 13px 'DejaVu Sans', 'Bitstream Vera Sans', 'Computer Modern Sans Serif', 'Lucida Grande', 'Verdana', 'Geneva', 'Lucid', 'Arial', 'Helvetica', 'Avant Garde', sans-serif; text-anchor: middle"
               x="380.770994"
               y="325.917969"
               id="text49"
               transform="rotate(-0 380.770994 325.917969)">300</text>
          </g>
        </g>
        <g
           id="xtick_5">
          <g
             id="line2d_5">
            <g
               id="g55">
              <use
                 xlink:href="#mf9f8b6dc64"
                 x="478.704741"
                 y="309.04"
                 style="stroke: #000000; stroke-width: 0.8"
                 id="use53" />
            </g>
          </g>
          <g
             id="text_5">
            <text
               style="font: 13px 'DejaVu Sans', 'Bitstream Vera Sans', 'Computer Modern Sans Serif', 'Lucida Grande', 'Verdana', 'Geneva', 'Lucid', 'Arial', 'Helvetica', 'Avant Garde', sans-serif; text-anchor: middle"
               x="478.704741"
               y="325.917969"
               id="text58"
               transform="rotate(-0 478.704741 325.917969)">400</text>
          </g>
        </g>
        <g
           id="xtick_6">
          <g
             id="line2d_6">
            <g
               id="g64">
              <use
                 xlink:href="#mf9f8b6dc64"
                 x="576.638487"
                 y="309.04"
                 style="stroke: #000000; stroke-width: 0.8"
                 id="use62" />
            </g>
          </g>
          <g
             id="text_6">
            <text
               style="font: 13px 'DejaVu Sans', 'Bitstream Vera Sans', 'Computer Modern Sans Serif', 'Lucida Grande', 'Verdana', 'Geneva', 'Lucid', 'Arial', 'Helvetica', 'Avant Garde', sans-serif; text-anchor: middle"
               x="576.638487"
               y="325.917969"
               id="text67"
               transform="rotate(-0 576.638487 325.917969)">500</text>
          </g>
        </g>
        <g
           id="xtick_7">
          <g
             id="line2d_7">
            <g
               id="g73">
              <use
                 xlink:href="#mf9f8b6dc64"
                 x="674.572234"
                 y="309.04"
                 style="stroke: #000000; stroke-width: 0.8"
                 id="use71" />
            </g>
          </g>
          <g
             id="text_7">
            <text
               style="font: 13px 'DejaVu Sans', 'Bitstream Vera Sans', 'Computer Modern Sans Serif', 'Lucida Grande', 'Verdana', 'Geneva', 'Lucid', 'Arial', 'Helvetica', 'Avant Garde', sans-serif; text-anchor: middle"
               x="674.572234"
               y="325.917969"
               id="text76"
               transform="rotate(-0 674.572234 325.917969)">600</text>
          </g>
        </g>
        <g
           id="text_8">
          <text
             style="font: 13px 'DejaVu Sans', 'Bitstream Vera Sans', 'Computer Modern Sans Serif', 'Lucida Grande', 'Verdana', 'Geneva', 'Lucid', 'Arial', 'Helvetica', 'Avant Garde', sans-serif; text-anchor: middle"
             x="382.24"
             y="342.499531"
             id="text80"
             transform="rotate(-0 382.24 342.499531)">Epoch</text>
        </g>
      </g>
      <g
         id="matplotlib.axis_2">
        <g
           id="ytick_1">
          <g
             id="line2d_8">
            <defs
               id="defs85">
              <path
                 id="mb4feaea282"
                 d="M 0 0  L -3.5 0  "
                 style="stroke: #000000; stroke-width: 0.8" />
            </defs>
            <g
               id="g89">
              <use
                 xlink:href="#mb4feaea282"
                 x="58.52"
                 y="272.549359"
                 style="stroke: #000000; stroke-width: 0.8"
                 id="use87" />
            </g>
          </g>
          <g
             id="text_9">
            <text
               style="font: 13px 'DejaVu Sans', 'Bitstream Vera Sans', 'Computer Modern Sans Serif', 'Lucida Grande', 'Verdana', 'Geneva', 'Lucid', 'Arial', 'Helvetica', 'Avant Garde', sans-serif; text-anchor: end"
               x="51.52"
               y="277.488343"
               id="text92"
               transform="rotate(-0 51.52 277.488343)">0.4</text>
          </g>
        </g>
        <g
           id="ytick_2">
          <g
             id="line2d_9">
            <g
               id="g98">
              <use
                 xlink:href="#mb4feaea282"
                 x="58.52"
                 y="232.576523"
                 style="stroke: #000000; stroke-width: 0.8"
                 id="use96" />
            </g>
          </g>
          <g
             id="text_10">
            <text
               style="font: 13px 'DejaVu Sans', 'Bitstream Vera Sans', 'Computer Modern Sans Serif', 'Lucida Grande', 'Verdana', 'Geneva', 'Lucid', 'Arial', 'Helvetica', 'Avant Garde', sans-serif; text-anchor: end"
               x="51.52"
               y="237.515507"
               id="text101"
               transform="rotate(-0 51.52 237.515507)">0.5</text>
          </g>
        </g>
        <g
           id="ytick_3">
          <g
             id="line2d_10">
            <g
               id="g107">
              <use
                 xlink:href="#mb4feaea282"
                 x="58.52"
                 y="192.603687"
                 style="stroke: #000000; stroke-width: 0.8"
                 id="use105" />
            </g>
          </g>
          <g
             id="text_11">
            <text
               style="font: 13px 'DejaVu Sans', 'Bitstream Vera Sans', 'Computer Modern Sans Serif', 'Lucida Grande', 'Verdana', 'Geneva', 'Lucid', 'Arial', 'Helvetica', 'Avant Garde', sans-serif; text-anchor: end"
               x="51.52"
               y="197.542671"
               id="text110"
               transform="rotate(-0 51.52 197.542671)">0.6</text>
          </g>
        </g>
        <g
           id="ytick_4">
          <g
             id="line2d_11">
            <g
               id="g116">
              <use
                 xlink:href="#mb4feaea282"
                 x="58.52"
                 y="152.630851"
                 style="stroke: #000000; stroke-width: 0.8"
                 id="use114" />
            </g>
          </g>
          <g
             id="text_12">
            <text
               style="font: 13px 'DejaVu Sans', 'Bitstream Vera Sans', 'Computer Modern Sans Serif', 'Lucida Grande', 'Verdana', 'Geneva', 'Lucid', 'Arial', 'Helvetica', 'Avant Garde', sans-serif; text-anchor: end"
               x="51.52"
               y="157.569835"
               id="text119"
               transform="rotate(-0 51.52 157.569835)">0.7</text>
          </g>
        </g>
        <g
           id="ytick_5">
          <g
             id="line2d_12">
            <g
               id="g125">
              <use
                 xlink:href="#mb4feaea282"
                 x="58.52"
                 y="112.658015"
                 style="stroke: #000000; stroke-width: 0.8"
                 id="use123" />
            </g>
          </g>
          <g
             id="text_13">
            <text
               style="font: 13px 'DejaVu Sans', 'Bitstream Vera Sans', 'Computer Modern Sans Serif', 'Lucida Grande', 'Verdana', 'Geneva', 'Lucid', 'Arial', 'Helvetica', 'Avant Garde', sans-serif; text-anchor: end"
               x="51.52"
               y="117.596999"
               id="text128"
               transform="rotate(-0 51.52 117.596999)">0.8</text>
          </g>
        </g>
        <g
           id="ytick_6">
          <g
             id="line2d_13">
            <g
               id="g134">
              <use
                 xlink:href="#mb4feaea282"
                 x="58.52"
                 y="72.685179"
                 style="stroke: #000000; stroke-width: 0.8"
                 id="use132" />
            </g>
          </g>
          <g
             id="text_14">
            <text
               style="font: 13px 'DejaVu Sans', 'Bitstream Vera Sans', 'Computer Modern Sans Serif', 'Lucida Grande', 'Verdana', 'Geneva', 'Lucid', 'Arial', 'Helvetica', 'Avant Garde', sans-serif; text-anchor: end"
               x="51.52"
               y="77.624164"
               id="text137"
               transform="rotate(-0 51.52 77.624164)">0.9</text>
          </g>
        </g>
        <g
           id="ytick_7">
          <g
             id="line2d_14">
            <g
               id="g143">
              <use
                 xlink:href="#mb4feaea282"
                 x="58.52"
                 y="32.712343"
                 style="stroke: #000000; stroke-width: 0.8"
                 id="use141" />
            </g>
          </g>
          <g
             id="text_15">
            <text
               style="font: 13px 'DejaVu Sans', 'Bitstream Vera Sans', 'Computer Modern Sans Serif', 'Lucida Grande', 'Verdana', 'Geneva', 'Lucid', 'Arial', 'Helvetica', 'Avant Garde', sans-serif; text-anchor: end"
               x="51.52"
               y="37.651328"
               id="text146"
               transform="rotate(-0 51.52 37.651328)">1.0</text>
          </g>
        </g>
        <g
           id="text_16">
          <text
             style="font: 13px 'DejaVu Sans', 'Bitstream Vera Sans', 'Computer Modern Sans Serif', 'Lucida Grande', 'Verdana', 'Geneva', 'Lucid', 'Arial', 'Helvetica', 'Avant Garde', sans-serif; text-anchor: middle"
             x="24.142344"
             y="170.3"
             transform="rotate(-90 24.142344 170.3)"
             id="text150">Accuracy</text>
        </g>
      </g>
      <g
         id="line2d_15">
        <path
           d="M 87.949091 296.427273  L 88.928428 251.971032  L 89.907766 216.897185  L 90.887103 194.983933  L 91.866441 182.264148  L 92.845778 166.962638  L 93.825116 165.451376  L 94.804453 156.761631  L 95.783791 146.434681  L 98.721803 137.115248  L 99.701141 128.488474  L 100.680478 129.936765  L 101.659815 122.317484  L 102.639153 121.184049  L 103.61849 120.491389  L 104.597828 117.531836  L 105.577165 113.312906  L 106.556503 111.990534  L 107.53584 107.960518  L 108.515178 110.668186  L 109.494515 106.512227  L 110.473853 107.582691  L 112.432528 102.356268  L 113.411865 102.545158  L 114.391203 99.585605  L 116.349877 98.3892  L 117.329215 95.996364  L 118.308552 96.374191  L 119.28789 100.026404  L 120.267227 95.492618  L 121.246565 96.248249  L 122.225902 92.847921  L 123.20524 90.14023  L 124.184577 90.706947  L 125.163915 92.533065  L 126.143252 88.75491  L 127.12259 87.180677  L 128.101927 88.628968  L 129.081265 87.621475  L 130.060602 84.724894  L 131.039939 84.221124  L 132.019277 84.53598  L 132.998614 84.724894  L 133.977952 83.84332  L 134.957289 83.654407  L 135.936627 84.976755  L 136.915964 83.339574  L 137.895302 83.969263  L 138.874639 80.946739  L 139.853977 79.309534  L 140.833314 78.994702  L 141.812652 79.561419  L 142.791989 81.072681  L 143.771327 77.609358  L 144.750664 79.246563  L 145.730002 76.97967  L 146.709339 75.720293  L 147.688676 78.679846  L 148.668014 78.490932  L 149.647351 78.868759  L 150.626689 75.783264  L 151.606026 77.67233  L 152.585364 74.90169  L 153.564701 77.168584  L 154.544039 77.042641  L 155.523376 76.412953  L 156.502714 74.586858  L 157.482051 74.649829  L 158.461389 74.586858  L 159.440726 74.209031  L 160.420064 74.272002  L 161.399401 72.823711  L 162.378738 72.005109  L 163.358076 75.468408  L 164.337413 71.942138  L 165.316751 74.334973  L 166.296088 71.816195  L 167.275426 72.382936  L 168.254763 70.682761  L 169.234101 70.053072  L 170.213438 73.012625  L 171.192776 71.312449  L 172.172113 70.053072  L 173.151451 70.619789  L 174.130788 69.801187  L 175.110126 70.619789  L 176.089463 68.289925  L 177.0688 71.627305  L 178.048138 69.927129  L 179.027475 70.493847  L 180.006813 67.597265  L 180.98615 69.738216  L 181.965488 67.282433  L 182.944825 68.478839  L 183.924163 69.045556  L 184.9035 66.65272  L 185.882838 68.289925  L 186.862175 66.337888  L 188.82085 67.030548  L 189.800188 67.723208  L 190.779525 65.897113  L 191.758863 66.526802  L 192.7382 65.7082  L 193.717537 67.975093  L 194.696875 66.023032  L 195.676212 65.078511  L 196.65555 67.030548  L 197.634887 64.32288  L 199.593562 67.345404  L 200.5729 65.20443  L 201.552237 65.645228  L 202.531575 62.748647  L 203.510912 64.51177  L 204.49025 65.771171  L 205.469587 64.133966  L 206.448925 63.063479  L 207.428262 65.393343  L 208.407599 65.267401  L 209.386937 63.12645  L 210.366274 63.12645  L 211.345612 60.481754  L 212.324949 63.81911  L 213.304287 65.267401  L 214.283624 63.63022  L 215.262962 61.363327  L 216.242299 62.307848  L 217.221637 63.567249  L 218.200974 63.189422  L 219.180312 61.993016  L 220.159649 65.519286  L 221.138987 63.378335  L 222.118324 61.615188  L 223.097661 62.43379  L 224.076999 62.370819  L 225.056336 63.12645  L 226.035674 59.789094  L 227.015011 60.103926  L 227.994349 61.363327  L 228.973686 62.811618  L 229.953024 61.930044  L 230.932361 59.852065  L 231.911699 61.174413  L 232.891036 61.48927  L 233.870374 61.048471  L 234.849711 59.096434  L 235.829049 60.166897  L 236.808386 59.474238  L 237.787723 61.867073  L 238.767061 61.237385  L 239.746398 60.29284  L 240.725736 61.930044  L 241.705073 59.159405  L 242.684411 59.789094  L 243.663748 59.285348  L 244.643086 59.474238  L 245.622423 61.174413  L 246.601761 60.229869  L 247.581098 58.592688  L 248.560436 61.426298  L 249.539773 58.340803  L 250.519111 61.48927  L 251.498448 57.962976  L 252.477786 58.088918  L 253.457123 60.418782  L 254.43646 59.978008  L 255.415798 60.481754  L 256.395135 57.018455  L 257.374473 61.993016  L 258.35381 57.585172  L 259.333148 59.159405  L 260.312485 58.214861  L 261.291823 59.726123  L 262.27116 57.900004  L 263.250498 60.670667  L 264.229835 56.829541  L 265.209173 57.522201  L 266.18851 57.711114  L 267.167848 57.207345  L 268.147185 59.726123  L 269.126522 58.340803  L 270.10586 58.844549  L 271.085197 59.978008  L 272.064535 57.585172  L 273.043872 56.703598  L 274.02321 57.144397  L 275.002547 56.199852  L 275.981885 56.010939  L 276.961222 56.136881  L 277.94056 55.759054  L 278.919897 55.633135  L 279.899235 58.088918  L 280.878572 58.151889  L 281.85791 55.507193  L 282.837247 54.562648  L 283.816584 57.396258  L 284.795922 57.711114  L 285.775259 55.759054  L 286.754597 55.696083  L 287.733934 55.507193  L 288.713272 57.333287  L 289.692609 56.010939  L 290.671947 57.396258  L 291.651284 56.325795  L 292.630622 55.822025  L 293.609959 57.774086  L 294.589297 56.262824  L 295.568634 53.618103  L 296.547972 54.877504  L 297.527309 55.759054  L 298.506646 56.892512  L 299.485984 53.303271  L 300.465321 57.018455  L 301.444659 55.003423  L 302.423996 55.947967  L 304.382671 55.444221  L 305.362009 55.822025  L 306.341346 56.325795  L 307.320684 57.522201  L 309.279359 52.799501  L 310.258696 56.07391  L 311.238034 55.38125  L 312.217371 53.2403  L 313.196709 54.877504  L 314.176046 56.199852  L 315.155383 56.010939  L 316.134721 52.736553  L 317.114058 52.736553  L 318.093396 55.696083  L 320.052071 54.121873  L 321.031408 55.696083  L 322.010746 55.003423  L 322.990083 55.129365  L 323.969421 54.436705  L 324.948758 54.310763  L 325.928096 54.058902  L 326.907433 52.673582  L 327.886771 55.822025  L 328.866108 54.499677  L 329.845445 54.625619  L 330.824783 53.995931  L 331.80412 54.562648  L 332.783458 53.932959  L 333.762795 55.318279  L 334.742133 57.522201  L 335.72147 54.121873  L 336.700808 55.066394  L 337.680145 54.814533  L 338.659483 52.106841  L 339.63882 52.106841  L 340.618158 54.940475  L 341.597495 54.877504  L 342.576833 51.729038  L 343.55617 56.451714  L 344.535507 52.988415  L 345.514845 53.681074  L 346.494182 54.940475  L 347.47352 52.04387  L 348.452857 55.003423  L 349.432195 51.792009  L 350.411532 53.744046  L 351.39087 53.2403  L 352.370207 52.988415  L 353.349545 54.436705  L 354.328882 53.681074  L 355.30822 53.429213  L 356.287557 52.358726  L 357.266895 52.862472  L 358.246232 53.618103  L 359.22557 53.932959  L 360.204907 52.295755  L 361.184244 53.114357  L 362.163582 51.666066  L 363.142919 51.666066  L 364.122257 53.429213  L 365.101594 54.247792  L 367.060269 51.85498  L 368.039607 53.177328  L 369.018944 53.303271  L 369.998282 53.932959  L 370.977619 50.847464  L 371.956957 52.484669  L 372.936294 52.673582  L 373.915632 53.366242  L 374.894969 50.910435  L 375.874306 54.373734  L 376.853644 52.673582  L 377.832981 53.177328  L 378.812319 51.35121  L 379.791656 50.217775  L 380.770994 53.618103  L 381.750331 52.925443  L 382.729669 53.051386  L 383.709006 52.925443  L 384.688344 52.169812  L 385.667681 51.225291  L 386.647019 52.232784  L 387.626356 52.736553  L 388.605694 51.288263  L 389.585031 49.525116  L 390.564368 51.16232  L 391.543706 53.555132  L 392.523043 51.666066  L 393.502381 51.477153  L 394.481718 53.051386  L 395.461056 52.610611  L 396.440393 50.46966  L 397.419731 53.114357  L 398.399068 52.799501  L 399.378406 51.036378  L 400.357743 50.46966  L 401.337081 50.65855  L 402.316418 51.099349  L 403.295756 54.814533  L 404.275093 51.036378  L 405.25443 51.666066  L 406.233768 51.414181  L 407.213105 50.532632  L 408.192443 48.895427  L 409.17178 51.980922  L 410.151118 51.729038  L 411.130455 50.091833  L 412.109793 51.036378  L 413.08913 51.792009  L 414.068468 50.847464  L 415.047805 51.729038  L 416.027143 51.603095  L 417.00648 52.106841  L 417.985818 51.099349  L 418.965155 49.777001  L 419.944493 51.288263  L 420.92383 50.406689  L 421.903167 49.965891  L 422.882505 51.16232  L 423.861842 50.973406  L 424.84118 51.540124  L 425.820517 50.280747  L 427.779192 50.028862  L 428.75853 50.154804  L 429.737867 50.46966  L 430.717205 52.925443  L 431.696542 49.714029  L 432.67588 51.980922  L 433.655217 51.16232  L 434.634555 47.950882  L 435.613892 50.217775  L 436.593229 49.462144  L 438.551904 50.532632  L 439.531242 49.525116  L 440.510579 49.588087  L 441.489917 51.666066  L 442.469254 49.399173  L 443.448592 49.399173  L 444.427929 50.46966  L 445.407267 51.917951  L 446.386604 52.04387  L 449.324617 50.784493  L 450.303954 50.46966  L 451.283291 49.084341  L 452.262629 51.917951  L 453.241966 50.46966  L 454.221304 50.595579  L 455.200641 50.46966  L 456.179979 49.336202  L 457.159316 47.63605  L 458.138654 51.288263  L 459.117991 50.46966  L 460.097329 48.580571  L 461.076666 49.462144  L 462.056004 50.784493  L 463.035341 50.280747  L 464.014679 50.910435  L 464.994016 50.280747  L 465.973354 49.210259  L 466.952691 50.343718  L 467.932028 51.85498  L 468.911366 47.82494  L 469.890703 47.698997  L 470.870041 48.643542  L 471.849378 48.454628  L 472.828716 50.091833  L 473.808053 47.950882  L 474.787391 50.847464  L 475.766728 51.099349  L 476.746066 47.573079  L 477.725403 49.336202  L 478.704741 51.980922  L 479.684078 49.839972  L 480.663416 50.910435  L 481.642753 48.643542  L 482.62209 50.595579  L 483.601428 49.273231  L 484.580765 49.525116  L 485.560103 49.336202  L 486.53944 48.265739  L 487.518778 50.721522  L 488.498115 49.839972  L 489.477453 50.46966  L 490.45679 48.454628  L 491.436128 49.588087  L 492.415465 49.651058  L 493.394803 50.217775  L 494.37414 49.588087  L 495.353478 48.454628  L 496.332815 47.698997  L 497.312152 48.5176  L 498.29149 50.65855  L 499.270827 51.85498  L 500.250165 50.217775  L 501.229502 49.651058  L 502.20884 48.454628  L 503.188177 48.454628  L 504.167515 47.82494  L 505.146852 48.076825  L 507.105527 48.139796  L 508.084865 48.076825  L 509.064202 49.273231  L 510.04354 48.265739  L 511.022877 49.651058  L 512.002214 49.273231  L 512.981552 50.154804  L 513.960889 50.280747  L 514.940227 48.706513  L 515.919564 49.588087  L 516.898902 48.202767  L 517.878239 47.761969  L 518.857577 49.210259  L 520.816252 48.454628  L 521.795589 47.950882  L 522.774927 48.076825  L 523.754264 48.769485  L 524.733602 47.761969  L 525.712939 49.147288  L 526.692277 48.076825  L 527.671614 48.013854  L 529.630289 48.076825  L 530.609626 47.195251  L 531.588964 47.384165  L 533.547639 49.02137  L 534.526976 47.887911  L 535.506314 47.761969  L 536.485651 47.384165  L 537.464989 49.147288  L 538.444326 48.076825  L 539.423664 49.588087  L 540.403001 49.147288  L 541.382339 47.887911  L 542.361676 48.832456  L 543.341013 47.761969  L 544.320351 49.399173  L 545.299688 47.258223  L 546.279026 46.43962  L 547.258363 47.887911  L 548.237701 46.691505  L 549.217038 47.761969  L 550.196376 48.202767  L 551.175713 46.754477  L 552.155051 47.384165  L 553.134388 49.588087  L 554.113726 49.147288  L 555.093063 47.258223  L 556.072401 49.965891  L 557.051738 47.258223  L 558.031075 48.139796  L 559.010413 47.195251  L 559.98975 44.613526  L 560.969088 47.384165  L 561.948425 48.454628  L 563.9071 47.321194  L 564.886438 46.376649  L 565.865775 47.447136  L 566.845113 47.510108  L 567.82445 48.769485  L 568.803788 47.258223  L 569.783125 46.880419  L 570.762463 47.069309  L 571.7418 48.391681  L 572.721137 47.63605  L 573.700475 48.076825  L 574.679812 48.076825  L 575.65915 46.943366  L 576.638487 45.117272  L 577.617825 48.580571  L 578.597162 47.761969  L 579.5765 47.13228  L 580.555837 48.32871  L 581.535175 48.643542  L 582.514512 46.187759  L 584.473187 47.447136  L 585.452525 49.210259  L 586.431862 47.510108  L 587.4112 48.076825  L 588.390537 45.621018  L 589.369874 47.321194  L 590.349212 47.887911  L 591.328549 47.195251  L 592.307887 46.061817  L 593.287224 47.761969  L 594.266562 47.384165  L 595.245899 46.628534  L 596.225237 47.195251  L 597.204574 47.510108  L 598.183912 47.069309  L 599.163249 47.82494  L 600.142587 47.63605  L 601.121924 46.376649  L 603.080599 46.250707  L 604.059936 47.006338  L 605.039274 47.384165  L 606.018611 45.495076  L 606.997949 46.376649  L 607.977286 47.950882  L 608.956624 45.621018  L 610.915299 47.510108  L 611.894636 46.943366  L 612.873974 50.028862  L 613.853311 47.069309  L 614.832649 47.82494  L 615.811986 48.202767  L 616.791324 48.454628  L 617.770661 45.683989  L 618.749998 47.573079  L 619.729336 46.691505  L 620.708673 47.006338  L 621.688011 48.076825  L 622.667348 47.82494  L 623.646686 44.928358  L 624.626023 45.935874  L 625.605361 47.63605  L 626.584698 48.643542  L 627.564036 47.006338  L 628.543373 45.746961  L 629.522711 47.384165  L 630.502048 44.802416  L 631.481386 46.880419  L 632.460723 45.243214  L 633.440061 45.117272  L 634.419398 46.124788  L 635.398735 47.761969  L 636.378073 45.243214  L 637.35741 47.63605  L 638.336748 47.63605  L 639.316085 46.061817  L 640.295423 46.817448  L 641.27476 46.376649  L 642.254098 45.054301  L 643.233435 45.432128  L 644.212773 46.313678  L 645.19211 46.061817  L 646.171448 47.069309  L 647.150785 45.809932  L 648.130123 49.210259  L 649.10946 47.384165  L 650.088797 46.187759  L 651.068135 47.761969  L 652.047472 46.502592  L 653.02681 47.573079  L 654.006147 46.376649  L 654.985485 46.691505  L 655.964822 46.754477  L 657.923497 44.99133  L 658.902835 46.754477  L 659.882172 45.495076  L 660.86151 46.502592  L 661.840847 46.124788  L 662.820185 44.613526  L 663.799522 45.306186  L 664.778859 46.754477  L 665.758197 46.817448  L 666.737534 48.076825  L 667.716872 45.117272  L 668.696209 46.313678  L 669.675547 46.250707  L 670.654884 46.43962  L 671.634222 45.054301  L 672.613559 46.250707  L 673.592897 44.172727  L 674.572234 45.621018  L 675.551572 46.250707  L 676.530909 47.510108  L 676.530909 47.510108  "
           clip-path="url(#pfe2d062dc8)"
           style="fill: none; stroke: #1f77b4; stroke-width: 1.5; stroke-linecap: square"
           id="path154" />
      </g>
      <g
         id="line2d_16">
        <path
           d="M 87.949091 237.488124  L 88.928428 223.320061  L 90.887103 165.89215  L 91.866441 153.990992  L 92.845778 151.913012  L 94.804453 131.133171  L 96.763128 125.277036  L 97.742466 118.476357  L 98.721803 116.398378  L 99.701141 109.975526  L 100.680478 107.330829  L 101.659815 100.341237  L 102.639153 103.930478  L 103.61849 102.797043  L 104.597828 101.096868  L 105.577165 96.563081  L 106.556503 92.596036  L 107.53584 93.918385  L 108.515178 90.895861  L 109.494515 87.495533  L 110.473853 83.15066  L 111.45319 85.984271  L 112.432528 86.928816  L 113.411865 82.583943  L 114.391203 79.372505  L 115.37054 80.50594  L 116.349877 81.450485  L 117.329215 79.750333  L 118.308552 80.50594  L 119.28789 78.616874  L 120.267227 77.48344  L 121.246565 82.772833  L 122.225902 73.894198  L 123.20524 77.294526  L 124.184577 73.138567  L 125.163915 73.894198  L 126.143252 73.327457  L 127.12259 75.972178  L 128.101927 73.705285  L 129.081265 72.76074  L 130.060602 72.005109  L 131.039939 71.438392  L 132.019277 71.816195  L 132.998614 72.382936  L 133.977952 69.549302  L 134.957289 67.84915  L 135.936627 68.415867  L 136.915964 70.116043  L 137.895302 70.493847  L 138.874639 72.005109  L 139.853977 66.337888  L 140.833314 66.904605  L 141.812652 67.282433  L 142.791989 68.793695  L 143.771327 68.226954  L 144.750664 70.493847  L 145.730002 69.360412  L 146.709339 67.660236  L 147.688676 68.226954  L 148.668014 64.826626  L 149.647351 64.448799  L 150.626689 68.982585  L 151.606026 69.549302  L 152.585364 68.793695  L 153.564701 68.604781  L 154.544039 67.84915  L 155.523376 62.748647  L 156.502714 64.637712  L 157.482051 63.882081  L 158.461389 67.282433  L 159.440726 65.393343  L 160.420064 66.526802  L 161.399401 63.693191  L 162.378738 66.337888  L 163.358076 68.038064  L 164.337413 65.20443  L 165.316751 63.693191  L 166.296088 62.748647  L 167.275426 66.715692  L 168.254763 65.960061  L 169.234101 62.370819  L 170.213438 67.660236  L 171.192776 63.504278  L 172.172113 62.559733  L 173.151451 62.559733  L 174.130788 64.259909  L 175.110126 61.993016  L 176.089463 63.315364  L 177.0688 62.93756  L 178.048138 65.771171  L 179.027475 61.993016  L 180.006813 63.693191  L 180.98615 64.826626  L 181.965488 62.370819  L 183.924163 66.148974  L 184.9035 62.181929  L 185.882838 59.537209  L 186.862175 62.93756  L 187.841513 60.29284  L 188.82085 60.103926  L 189.800188 60.481754  L 190.779525 61.804102  L 191.758863 60.859557  L 192.7382 63.693191  L 193.717537 62.181929  L 194.696875 62.181929  L 195.676212 62.93756  L 196.65555 60.103926  L 197.634887 59.915036  L 198.614225 60.859557  L 199.593562 62.748647  L 200.5729 62.93756  L 201.552237 61.426298  L 203.510912 60.670667  L 204.49025 60.481754  L 205.469587 62.181929  L 206.448925 62.181929  L 207.428262 59.915036  L 208.407599 59.537209  L 209.386937 60.481754  L 210.366274 61.237385  L 211.345612 60.670667  L 212.324949 62.370819  L 213.304287 60.481754  L 215.262962 59.726123  L 216.242299 61.615188  L 217.221637 60.103926  L 218.200974 61.426298  L 219.180312 59.537209  L 220.159649 59.915036  L 221.138987 61.237385  L 222.118324 59.537209  L 223.097661 60.670667  L 224.076999 58.781578  L 226.035674 59.159405  L 227.015011 58.214861  L 228.973686 62.181929  L 229.953024 62.370819  L 230.932361 61.048471  L 231.911699 60.670667  L 232.891036 57.45923  L 233.870374 58.592688  L 234.849711 59.915036  L 235.829049 60.29284  L 236.808386 60.103926  L 237.787723 58.403774  L 238.767061 60.859557  L 239.746398 61.993016  L 240.725736 60.481754  L 241.705073 58.403774  L 242.684411 59.159405  L 243.663748 58.214861  L 244.643086 59.915036  L 245.622423 58.214861  L 246.601761 57.45923  L 247.581098 58.403774  L 248.560436 59.915036  L 249.539773 62.559733  L 250.519111 59.915036  L 251.498448 59.726123  L 252.477786 59.159405  L 253.457123 58.970492  L 255.415798 62.370819  L 256.395135 61.615188  L 257.374473 58.592688  L 258.35381 58.970492  L 259.333148 61.615188  L 260.312485 59.915036  L 261.291823 59.537209  L 262.27116 57.270316  L 263.250498 58.781578  L 264.229835 58.592688  L 265.209173 58.025947  L 266.18851 59.726123  L 268.147185 59.726123  L 269.126522 58.781578  L 270.10586 63.693191  L 271.085197 59.348295  L 272.064535 58.781578  L 273.043872 59.159405  L 274.02321 58.592688  L 275.002547 60.29284  L 275.981885 59.915036  L 276.961222 58.403774  L 277.94056 59.159405  L 278.919897 61.804102  L 279.899235 59.537209  L 280.878572 59.915036  L 281.85791 59.159405  L 282.837247 60.103926  L 283.816584 60.29284  L 284.795922 59.537209  L 285.775259 58.592688  L 287.733934 58.970492  L 288.713272 59.726123  L 289.692609 58.970492  L 290.671947 56.892512  L 291.651284 58.592688  L 292.630622 58.592688  L 293.609959 58.025947  L 294.589297 58.025947  L 295.568634 56.892512  L 296.547972 58.970492  L 297.527309 58.214861  L 298.506646 55.759054  L 299.485984 58.592688  L 300.465321 58.781578  L 301.444659 58.403774  L 302.423996 61.993016  L 303.403334 59.159405  L 304.382671 58.403774  L 305.362009 56.703598  L 306.341346 58.781578  L 307.320684 58.781578  L 308.300021 59.348295  L 309.279359 58.025947  L 310.258696 57.45923  L 311.238034 58.403774  L 312.217371 58.403774  L 313.196709 58.592688  L 314.176046 57.45923  L 315.155383 57.45923  L 316.134721 57.270316  L 317.114058 59.915036  L 318.093396 58.025947  L 319.072733 58.403774  L 320.052071 58.970492  L 321.031408 58.970492  L 322.010746 57.648143  L 323.969421 57.648143  L 324.948758 60.481754  L 325.928096 56.703598  L 326.907433 58.214861  L 327.886771 59.159405  L 328.866108 57.45923  L 329.845445 59.159405  L 330.824783 59.348295  L 331.80412 56.325795  L 332.783458 59.537209  L 333.762795 59.159405  L 334.742133 57.837057  L 335.72147 58.025947  L 336.700808 60.481754  L 337.680145 58.592688  L 338.659483 57.837057  L 339.63882 58.214861  L 340.618158 60.103926  L 341.597495 58.592688  L 342.576833 58.781578  L 343.55617 59.348295  L 344.535507 58.970492  L 345.514845 60.859557  L 346.494182 58.403774  L 347.47352 59.159405  L 348.452857 59.348295  L 349.432195 57.648143  L 350.411532 57.081426  L 351.39087 57.45923  L 352.370207 55.38125  L 353.349545 58.970492  L 354.328882 57.837057  L 355.30822 57.081426  L 356.287557 56.514685  L 357.266895 60.859557  L 358.246232 56.325795  L 359.22557 56.136881  L 360.204907 58.025947  L 361.184244 57.270316  L 362.163582 57.270316  L 363.142919 57.837057  L 364.122257 58.592688  L 365.101594 56.892512  L 366.080932 58.214861  L 367.060269 57.270316  L 368.039607 57.837057  L 369.018944 55.759054  L 369.998282 58.781578  L 370.977619 56.703598  L 371.956957 59.348295  L 372.936294 57.45923  L 373.915632 57.837057  L 374.894969 55.947967  L 375.874306 56.325795  L 376.853644 57.837057  L 377.832981 55.759054  L 378.812319 56.325795  L 379.791656 56.703598  L 380.770994 58.214861  L 381.750331 58.592688  L 382.729669 57.837057  L 383.709006 57.270316  L 384.688344 57.45923  L 385.667681 56.514685  L 386.647019 58.025947  L 387.626356 56.892512  L 388.605694 55.947967  L 389.585031 57.837057  L 390.564368 58.403774  L 391.543706 58.781578  L 392.523043 56.514685  L 393.502381 58.970492  L 394.481718 60.103926  L 395.461056 55.570164  L 396.440393 57.648143  L 397.419731 57.648143  L 398.399068 57.270316  L 399.378406 57.270316  L 400.357743 57.45923  L 401.337081 55.003423  L 402.316418 55.947967  L 403.295756 58.970492  L 404.275093 56.703598  L 405.25443 57.45923  L 406.233768 57.270316  L 407.213105 58.592688  L 408.192443 56.514685  L 409.17178 57.837057  L 410.151118 56.703598  L 411.130455 57.081426  L 412.109793 57.837057  L 413.08913 56.703598  L 414.068468 56.514685  L 415.047805 59.159405  L 416.027143 58.214861  L 417.00648 56.892512  L 417.985818 58.592688  L 418.965155 58.403774  L 419.944493 56.892512  L 420.92383 57.270316  L 421.903167 56.136881  L 424.84118 56.703598  L 425.820517 57.081426  L 426.799855 58.025947  L 427.779192 57.45923  L 429.737867 57.45923  L 430.717205 56.892512  L 431.696542 58.781578  L 432.67588 57.648143  L 433.655217 56.325795  L 434.634555 57.081426  L 435.613892 54.814533  L 436.593229 55.192336  L 437.572567 58.025947  L 438.551904 56.136881  L 439.531242 58.025947  L 440.510579 58.025947  L 441.489917 57.081426  L 442.469254 57.45923  L 443.448592 58.403774  L 444.427929 57.270316  L 445.407267 58.214861  L 446.386604 56.514685  L 447.365942 58.214861  L 448.345279 56.325795  L 449.324617 57.081426  L 450.303954 56.703598  L 451.283291 57.081426  L 452.262629 56.136881  L 453.241966 56.892512  L 455.200641 56.514685  L 456.179979 55.38125  L 457.159316 58.592688  L 458.138654 58.214861  L 459.117991 57.45923  L 460.097329 55.759054  L 462.056004 56.514685  L 463.035341 55.947967  L 464.014679 58.970492  L 464.994016 57.837057  L 465.973354 57.837057  L 467.932028 57.45923  L 468.911366 55.759054  L 469.890703 57.837057  L 470.870041 56.892512  L 471.849378 56.325795  L 472.828716 56.136881  L 473.808053 56.892512  L 474.787391 58.214861  L 475.766728 57.081426  L 476.746066 56.325795  L 477.725403 55.947967  L 478.704741 57.45923  L 479.684078 57.45923  L 480.663416 55.003423  L 481.642753 55.38125  L 482.62209 56.325795  L 483.601428 55.192336  L 484.580765 57.648143  L 485.560103 57.648143  L 486.53944 57.837057  L 487.518778 55.759054  L 488.498115 55.38125  L 489.477453 57.45923  L 490.45679 57.648143  L 491.436128 55.570164  L 492.415465 56.325795  L 493.394803 57.270316  L 494.37414 54.625619  L 495.353478 55.759054  L 496.332815 58.025947  L 497.312152 58.214861  L 498.29149 55.759054  L 499.270827 56.892512  L 500.250165 56.703598  L 501.229502 55.192336  L 502.20884 56.892512  L 503.188177 55.003423  L 504.167515 54.814533  L 505.146852 56.703598  L 506.12619 57.837057  L 507.105527 56.325795  L 508.084865 57.45923  L 509.064202 57.081426  L 510.04354 56.514685  L 511.022877 56.514685  L 512.002214 57.270316  L 512.981552 56.703598  L 513.960889 57.837057  L 514.940227 57.270316  L 515.919564 58.025947  L 516.898902 56.325795  L 517.878239 57.648143  L 518.857577 55.003423  L 519.836914 57.270316  L 520.816252 58.025947  L 521.795589 57.081426  L 522.774927 54.814533  L 523.754264 57.648143  L 524.733602 56.892512  L 525.712939 57.270316  L 526.692277 56.136881  L 527.671614 56.325795  L 528.650951 55.947967  L 529.630289 56.325795  L 531.588964 57.45923  L 532.568301 56.136881  L 533.547639 55.192336  L 535.506314 57.837057  L 536.485651 57.45923  L 537.464989 56.136881  L 538.444326 55.759054  L 539.423664 56.703598  L 540.403001 56.325795  L 541.382339 58.592688  L 542.361676 55.38125  L 543.341013 56.325795  L 544.320351 55.947967  L 545.299688 56.892512  L 546.279026 57.081426  L 547.258363 56.514685  L 548.237701 56.514685  L 549.217038 57.270316  L 550.196376 58.403774  L 551.175713 56.703598  L 552.155051 57.270316  L 553.134388 57.648143  L 554.113726 57.081426  L 555.093063 57.837057  L 556.072401 58.403774  L 557.051738 55.570164  L 558.031075 56.325795  L 559.010413 56.325795  L 559.98975 55.947967  L 560.969088 56.136881  L 561.948425 55.947967  L 562.927763 56.325795  L 563.9071 54.247792  L 564.886438 58.214861  L 565.865775 54.247792  L 567.82445 55.38125  L 568.803788 53.303271  L 569.783125 54.436705  L 570.762463 55.192336  L 571.7418 53.869988  L 572.721137 56.514685  L 573.700475 54.058902  L 574.679812 56.136881  L 575.65915 56.136881  L 576.638487 54.436705  L 577.617825 56.325795  L 578.597162 56.325795  L 579.5765 55.38125  L 580.555837 56.325795  L 581.535175 57.45923  L 582.514512 58.214861  L 583.49385 56.325795  L 584.473187 56.514685  L 585.452525 55.947967  L 586.431862 56.136881  L 587.4112 55.003423  L 588.390537 55.570164  L 589.369874 57.270316  L 590.349212 55.570164  L 591.328549 55.38125  L 592.307887 56.703598  L 593.287224 55.003423  L 594.266562 57.081426  L 595.245899 55.570164  L 596.225237 56.703598  L 597.204574 55.38125  L 598.183912 56.514685  L 599.163249 56.703598  L 600.142587 56.325795  L 601.121924 56.703598  L 602.101262 54.436705  L 603.080599 54.058902  L 604.059936 55.759054  L 605.039274 54.625619  L 606.018611 55.38125  L 606.997949 53.303271  L 607.977286 56.514685  L 608.956624 54.625619  L 609.935961 54.625619  L 610.915299 54.814533  L 611.894636 55.38125  L 612.873974 55.003423  L 613.853311 56.514685  L 614.832649 56.136881  L 615.811986 55.192336  L 616.791324 55.192336  L 617.770661 55.003423  L 618.749998 55.759054  L 619.729336 55.947967  L 620.708673 55.192336  L 621.688011 56.325795  L 622.667348 56.136881  L 623.646686 58.214861  L 624.626023 55.759054  L 625.605361 56.892512  L 626.584698 57.270316  L 627.564036 56.514685  L 628.543373 56.514685  L 629.522711 55.759054  L 630.502048 54.625619  L 631.481386 55.192336  L 632.460723 55.570164  L 633.440061 56.703598  L 634.419398 54.436705  L 635.398735 56.703598  L 636.378073 55.003423  L 637.35741 58.214861  L 638.336748 55.570164  L 639.316085 57.270316  L 640.295423 56.703598  L 641.27476 55.38125  L 642.254098 57.45923  L 643.233435 55.192336  L 644.212773 55.192336  L 646.171448 57.081426  L 647.150785 56.892512  L 648.130123 55.192336  L 649.10946 56.325795  L 650.088797 56.136881  L 651.068135 57.081426  L 652.047472 55.003423  L 653.02681 55.38125  L 654.006147 55.38125  L 654.985485 55.759054  L 655.964822 55.192336  L 656.94416 55.192336  L 657.923497 55.003423  L 658.902835 56.703598  L 659.882172 59.348295  L 660.86151 55.003423  L 661.840847 55.38125  L 662.820185 55.003423  L 663.799522 56.514685  L 665.758197 56.514685  L 666.737534 56.325795  L 667.716872 56.703598  L 669.675547 55.192336  L 670.654884 57.270316  L 671.634222 56.514685  L 672.613559 55.570164  L 673.592897 54.814533  L 674.572234 56.325795  L 675.551572 56.325795  L 676.530909 56.892512  L 676.530909 56.892512  "
           clip-path="url(#pfe2d062dc8)"
           style="fill: none; stroke: #ff7f0e; stroke-width: 1.5; stroke-linecap: square"
           id="path157" />
      </g>
      <g
         id="patch_3">
        <path
           d="M 58.52 309.04  L 58.52 31.56  "
           style="fill: none; stroke: #000000; stroke-width: 0.8; stroke-linejoin: miter; stroke-linecap: square"
           id="path160" />
      </g>
      <g
         id="patch_4">
        <path
           d="M 705.96 309.04  L 705.96 31.56  "
           style="fill: none; stroke: #000000; stroke-width: 0.8; stroke-linejoin: miter; stroke-linecap: square"
           id="path163" />
      </g>
      <g
         id="patch_5">
        <path
           d="M 58.52 309.04  L 705.96 309.04  "
           style="fill: none; stroke: #000000; stroke-width: 0.8; stroke-linejoin: miter; stroke-linecap: square"
           id="path166" />
      </g>
      <g
         id="patch_6">
        <path
           d="M 58.52 31.56  L 705.96 31.56  "
           style="fill: none; stroke: #000000; stroke-width: 0.8; stroke-linejoin: miter; stroke-linecap: square"
           id="path169" />
      </g>
      <g
         id="text_17">
        <text
           style="font: 16px 'DejaVu Sans', 'Bitstream Vera Sans', 'Computer Modern Sans Serif', 'Lucida Grande', 'Verdana', 'Geneva', 'Lucid', 'Arial', 'Helvetica', 'Avant Garde', sans-serif; text-anchor: middle"
           x="382.24"
           y="25.56"
           id="text172"
           transform="rotate(-0 382.24 25.56)">Training/Validation Accuracy Comparison</text>
      </g>
      <g
         id="legend_1">
        <g
           id="patch_7">
          <path
             d="M 527.579688 302.54  L 696.86 302.54  Q 699.46 302.54 699.46 299.94  L 699.46 263.076875  Q 699.46 260.476875 696.86 260.476875  L 527.579688 260.476875  Q 524.979688 260.476875 524.979688 263.076875  L 524.979688 299.94  Q 524.979688 302.54 527.579688 302.54  z "
             style="fill: #ffffff; opacity: 0.8; stroke: #cccccc; stroke-linejoin: miter"
             id="path175" />
        </g>
        <g
           id="line2d_17">
          <path
             d="M 530.179688 271.004844  L 543.179688 271.004844  L 556.179688 271.004844  "
             style="fill: none; stroke: #1f77b4; stroke-width: 1.5; stroke-linecap: square"
             id="path178" />
        </g>
        <g
           id="text_18">
          <text
             style="text-anchor:start;-inkscape-font-specification:'DejaVu Sans, Bitstream Vera Sans, Computer Modern Sans Serif, Lucida Grande, Verdana, Geneva, Lucid, Arial, Helvetica, Avant Garde, sans-serif, Normal';font-family:'DejaVu Sans', 'Bitstream Vera Sans', 'Computer Modern Sans Serif', 'Lucida Grande', Verdana, Geneva, Lucid, Arial, Helvetica, 'Avant Garde', sans-serif;font-weight:normal;font-style:normal;font-stretch:normal;font-variant:normal;font-size:10px;font-variant-ligatures:normal;font-variant-caps:normal;font-variant-numeric:normal;font-variant-east-asian:normal;stroke-linecap:butt;stroke-linejoin:round"
             x="566.579688"
             y="275.554844"
             id="text181"
             transform="rotate(-0 566.579688 275.554844)">Training Accuracy</text>
        </g>
        <g
           id="line2d_18">
          <path
             d="M 530.179688 290.086406  L 543.179688 290.086406  L 556.179688 290.086406  "
             style="fill: none; stroke: #ff7f0e; stroke-width: 1.5; stroke-linecap: square"
             id="path184" />
        </g>
        <g
           id="text_19">
          <text
             style="text-anchor:start;-inkscape-font-specification:'DejaVu Sans, Bitstream Vera Sans, Computer Modern Sans Serif, Lucida Grande, Verdana, Geneva, Lucid, Arial, Helvetica, Avant Garde, sans-serif, Normal';font-family:'DejaVu Sans', 'Bitstream Vera Sans', 'Computer Modern Sans Serif', 'Lucida Grande', Verdana, Geneva, Lucid, Arial, Helvetica, 'Avant Garde', sans-serif;font-weight:normal;font-style:normal;font-stretch:normal;font-variant:normal;font-size:10px;font-variant-ligatures:normal;font-variant-caps:normal;font-variant-numeric:normal;font-variant-east-asian:normal;stroke-linecap:butt;stroke-linejoin:round"
             x="566.579688"
             y="294.636406"
             id="text187"
             transform="rotate(-0 566.579688 294.636406)">Validation Accuracy</text>
        </g>
      </g>
    </g>
  </g>
  <defs
     id="defs196">
    <clipPath
       id="pfe2d062dc8">
      <rect
         x="58.52"
         y="31.56"
         width="647.44"
         height="277.48"
         id="rect193" />
    </clipPath>
  </defs>
</svg>
