<?xml version="1.0" encoding="UTF-8" standalone="no"?>
<svg
   width="687.56927pt"
   height="327.29871pt"
   viewBox="0 0 687.56927 327.29871"
   version="1.1"
   id="svg177"
   sodipodi:docname="cnn_loss_comparison.svg"
   inkscape:version="1.2.2 (1:1.2.2+202305151915+b0a8486541)"
   xmlns:inkscape="http://www.inkscape.org/namespaces/inkscape"
   xmlns:sodipodi="http://sodipodi.sourceforge.net/DTD/sodipodi-0.dtd"
   xmlns:xlink="http://www.w3.org/1999/xlink"
   xmlns="http://www.w3.org/2000/svg"
   xmlns:svg="http://www.w3.org/2000/svg"
   xmlns:rdf="http://www.w3.org/1999/02/22-rdf-syntax-ns#"
   xmlns:cc="http://creativecommons.org/ns#"
   xmlns:dc="http://purl.org/dc/elements/1.1/">
  <sodipodi:namedview
     id="namedview179"
     pagecolor="#ffffff"
     bordercolor="#666666"
     borderopacity="1.0"
     inkscape:showpageshadow="2"
     inkscape:pageopacity="0.0"
     inkscape:pagecheckerboard="0"
     inkscape:deskcolor="#d1d1d1"
     inkscape:document-units="pt"
     showgrid="false"
     inkscape:zoom="1.446875"
     inkscape:cx="431.2743"
     inkscape:cy="217.71058"
     inkscape:window-width="1920"
     inkscape:window-height="1080"
     inkscape:window-x="0"
     inkscape:window-y="0"
     inkscape:window-maximized="1"
     inkscape:current-layer="svg177" />
  <metadata
     id="metadata2">
    <rdf:RDF>
      <cc:Work>
        <dc:type
           rdf:resource="http://purl.org/dc/dcmitype/StillImage" />
        <dc:date>2023-07-18T10:49:15.308716</dc:date>
        <dc:format>image/svg+xml</dc:format>
        <dc:creator>
          <cc:Agent>
            <dc:title>Matplotlib v3.7.2, https://matplotlib.org/</dc:title>
          </cc:Agent>
        </dc:creator>
      </cc:Work>
    </rdf:RDF>
  </metadata>
  <defs
     id="defs6">
    <style
       type="text/css"
       id="style4">*{stroke-linejoin: round; stroke-linecap: butt}</style>
  </defs>
  <g
     id="figure_1"
     transform="translate(-16.63073,-16.736265)">
    <g
       id="axes_1">
      <g
         id="patch_2">
        <path
           d="M 65.54,304 H 703.8 V 21.327134 H 65.54 Z"
           style="fill:#ffffff"
           id="path11" />
      </g>
      <g
         id="matplotlib.axis_1">
        <g
           id="xtick_1">
          <g
             id="line2d_1">
            <defs
               id="defs15">
              <path
                 id="m8233b32cf7"
                 d="M 0,0 V 3.5"
                 style="stroke:#000000;stroke-width:0.8" />
            </defs>
            <g
               id="g19">
              <use
                 xlink:href="#m8233b32cf7"
                 x="93.28215"
                 y="304"
                 style="stroke:#000000;stroke-width:0.8"
                 id="use17" />
            </g>
          </g>
          <g
             id="text_1">
            <text
               style="font-style:normal;font-variant:normal;font-weight:normal;font-stretch:normal;font-size:15px;line-height:normal;font-family:'DejaVu Sans', 'Bitstream Vera Sans', 'Computer Modern Sans Serif', 'Lucida Grande', Verdana, Geneva, Lucid, Arial, Helvetica, 'Avant Garde', sans-serif;text-anchor:middle"
               x="93.28215"
               y="322.39764"
               id="text22">0</text>
          </g>
        </g>
        <g
           id="xtick_2">
          <g
             id="line2d_2">
            <g
               id="g28">
              <use
                 xlink:href="#m8233b32cf7"
                 x="220.24854"
                 y="304"
                 style="stroke:#000000;stroke-width:0.8"
                 id="use26" />
            </g>
          </g>
          <g
             id="text_2">
            <text
               style="font-style:normal;font-variant:normal;font-weight:normal;font-stretch:normal;font-size:15px;line-height:normal;font-family:'DejaVu Sans', 'Bitstream Vera Sans', 'Computer Modern Sans Serif', 'Lucida Grande', Verdana, Geneva, Lucid, Arial, Helvetica, 'Avant Garde', sans-serif;text-anchor:middle"
               x="220.24854"
               y="322.39764"
               id="text31">100</text>
          </g>
        </g>
        <g
           id="xtick_3">
          <g
             id="line2d_3">
            <g
               id="g37">
              <use
                 xlink:href="#m8233b32cf7"
                 x="347.2149"
                 y="304"
                 style="stroke:#000000;stroke-width:0.8"
                 id="use35" />
            </g>
          </g>
          <g
             id="text_3">
            <text
               style="font-style:normal;font-variant:normal;font-weight:normal;font-stretch:normal;font-size:15px;line-height:normal;font-family:'DejaVu Sans', 'Bitstream Vera Sans', 'Computer Modern Sans Serif', 'Lucida Grande', Verdana, Geneva, Lucid, Arial, Helvetica, 'Avant Garde', sans-serif;text-anchor:middle"
               x="347.2149"
               y="322.39764"
               id="text40">200</text>
          </g>
        </g>
        <g
           id="xtick_4">
          <g
             id="line2d_4">
            <g
               id="g46">
              <use
                 xlink:href="#m8233b32cf7"
                 x="474.1813"
                 y="304"
                 style="stroke:#000000;stroke-width:0.8"
                 id="use44" />
            </g>
          </g>
          <g
             id="text_4">
            <text
               style="font-style:normal;font-variant:normal;font-weight:normal;font-stretch:normal;font-size:15px;line-height:normal;font-family:'DejaVu Sans', 'Bitstream Vera Sans', 'Computer Modern Sans Serif', 'Lucida Grande', Verdana, Geneva, Lucid, Arial, Helvetica, 'Avant Garde', sans-serif;text-anchor:middle"
               x="474.1813"
               y="322.39764"
               id="text49">300</text>
          </g>
        </g>
        <g
           id="xtick_5">
          <g
             id="line2d_5">
            <g
               id="g55">
              <use
                 xlink:href="#m8233b32cf7"
                 x="601.14771"
                 y="304"
                 style="stroke:#000000;stroke-width:0.8"
                 id="use53" />
            </g>
          </g>
          <g
             id="text_5">
            <text
               style="font-style:normal;font-variant:normal;font-weight:normal;font-stretch:normal;font-size:15px;line-height:normal;font-family:'DejaVu Sans', 'Bitstream Vera Sans', 'Computer Modern Sans Serif', 'Lucida Grande', Verdana, Geneva, Lucid, Arial, Helvetica, 'Avant Garde', sans-serif;text-anchor:middle"
               x="601.14771"
               y="322.39764"
               id="text58">400</text>
          </g>
        </g>
        <g
           id="text_6">
          <text
             style="font-style:normal;font-variant:normal;font-weight:normal;font-stretch:normal;font-size:15px;line-height:normal;font-family:'DejaVu Sans', 'Bitstream Vera Sans', 'Computer Modern Sans Serif', 'Lucida Grande', Verdana, Geneva, Lucid, Arial, Helvetica, 'Avant Garde', sans-serif;text-anchor:middle"
             x="384.67001"
             y="340.91486"
             id="text62">Epochs</text>
        </g>
      </g>
      <g
         id="matplotlib.axis_2">
        <g
           id="ytick_1">
          <g
             id="line2d_6">
            <defs
               id="defs67">
              <path
                 id="md051c49484"
                 d="M 0,0 H -3.5"
                 style="stroke:#000000;stroke-width:0.8" />
            </defs>
            <g
               id="g71">
              <use
                 xlink:href="#md051c49484"
                 x="65.540001"
                 y="275.38077"
                 style="stroke:#000000;stroke-width:0.8"
                 id="use69" />
            </g>
          </g>
          <g
             id="text_7">
            <text
               style="font-style:normal;font-variant:normal;font-weight:normal;font-stretch:normal;font-size:15px;line-height:normal;font-family:'DejaVu Sans', 'Bitstream Vera Sans', 'Computer Modern Sans Serif', 'Lucida Grande', Verdana, Geneva, Lucid, Arial, Helvetica, 'Avant Garde', sans-serif;text-anchor:end"
               x="58.540001"
               y="281.07959"
               id="text74">0.2</text>
          </g>
        </g>
        <g
           id="ytick_2">
          <g
             id="line2d_7">
            <g
               id="g80">
              <use
                 xlink:href="#md051c49484"
                 x="65.540001"
                 y="233.14604"
                 style="stroke:#000000;stroke-width:0.8"
                 id="use78" />
            </g>
          </g>
          <g
             id="text_8">
            <text
               style="font-style:normal;font-variant:normal;font-weight:normal;font-stretch:normal;font-size:15px;line-height:normal;font-family:'DejaVu Sans', 'Bitstream Vera Sans', 'Computer Modern Sans Serif', 'Lucida Grande', Verdana, Geneva, Lucid, Arial, Helvetica, 'Avant Garde', sans-serif;text-anchor:end"
               x="58.540001"
               y="238.84488"
               id="text83">0.4</text>
          </g>
        </g>
        <g
           id="ytick_3">
          <g
             id="line2d_8">
            <g
               id="g89">
              <use
                 xlink:href="#md051c49484"
                 x="65.540001"
                 y="190.91133"
                 style="stroke:#000000;stroke-width:0.8"
                 id="use87" />
            </g>
          </g>
          <g
             id="text_9">
            <text
               style="font-style:normal;font-variant:normal;font-weight:normal;font-stretch:normal;font-size:15px;line-height:normal;font-family:'DejaVu Sans', 'Bitstream Vera Sans', 'Computer Modern Sans Serif', 'Lucida Grande', Verdana, Geneva, Lucid, Arial, Helvetica, 'Avant Garde', sans-serif;text-anchor:end"
               x="58.540001"
               y="196.61017"
               id="text92">0.6</text>
          </g>
        </g>
        <g
           id="ytick_4">
          <g
             id="line2d_9">
            <g
               id="g98">
              <use
                 xlink:href="#md051c49484"
                 x="65.540001"
                 y="148.67662"
                 style="stroke:#000000;stroke-width:0.8"
                 id="use96" />
            </g>
          </g>
          <g
             id="text_10">
            <text
               style="font-style:normal;font-variant:normal;font-weight:normal;font-stretch:normal;font-size:15px;line-height:normal;font-family:'DejaVu Sans', 'Bitstream Vera Sans', 'Computer Modern Sans Serif', 'Lucida Grande', Verdana, Geneva, Lucid, Arial, Helvetica, 'Avant Garde', sans-serif;text-anchor:end"
               x="58.540001"
               y="154.37546"
               id="text101">0.8</text>
          </g>
        </g>
        <g
           id="ytick_5">
          <g
             id="line2d_10">
            <g
               id="g107">
              <use
                 xlink:href="#md051c49484"
                 x="65.540001"
                 y="106.44192"
                 style="stroke:#000000;stroke-width:0.8"
                 id="use105" />
            </g>
          </g>
          <g
             id="text_11">
            <text
               style="font-style:normal;font-variant:normal;font-weight:normal;font-stretch:normal;font-size:15px;line-height:normal;font-family:'DejaVu Sans', 'Bitstream Vera Sans', 'Computer Modern Sans Serif', 'Lucida Grande', Verdana, Geneva, Lucid, Arial, Helvetica, 'Avant Garde', sans-serif;text-anchor:end"
               x="58.540001"
               y="112.14074"
               id="text110">1.0</text>
          </g>
        </g>
        <g
           id="ytick_6">
          <g
             id="line2d_11">
            <g
               id="g116">
              <use
                 xlink:href="#md051c49484"
                 x="65.540001"
                 y="64.207207"
                 style="stroke:#000000;stroke-width:0.8"
                 id="use114" />
            </g>
          </g>
          <g
             id="text_12">
            <text
               style="font-style:normal;font-variant:normal;font-weight:normal;font-stretch:normal;font-size:15px;line-height:normal;font-family:'DejaVu Sans', 'Bitstream Vera Sans', 'Computer Modern Sans Serif', 'Lucida Grande', Verdana, Geneva, Lucid, Arial, Helvetica, 'Avant Garde', sans-serif;text-anchor:end"
               x="58.540001"
               y="69.906036"
               id="text119">1.2</text>
          </g>
        </g>
        <g
           id="ytick_7">
          <g
             id="line2d_12">
            <g
               id="g125">
              <use
                 xlink:href="#md051c49484"
                 x="65.540001"
                 y="21.972494"
                 style="stroke:#000000;stroke-width:0.8"
                 id="use123" />
            </g>
          </g>
          <g
             id="text_13">
            <text
               style="font-style:normal;font-variant:normal;font-weight:normal;font-stretch:normal;font-size:15px;line-height:normal;font-family:'DejaVu Sans', 'Bitstream Vera Sans', 'Computer Modern Sans Serif', 'Lucida Grande', Verdana, Geneva, Lucid, Arial, Helvetica, 'Avant Garde', sans-serif;text-anchor:end"
               x="58.540001"
               y="27.671324"
               id="text128">1.4</text>
          </g>
        </g>
        <g
           id="text_14">
          <text
             style="font-style:normal;font-variant:normal;font-weight:normal;font-stretch:normal;font-size:15px;line-height:normal;font-family:'DejaVu Sans', 'Bitstream Vera Sans', 'Computer Modern Sans Serif', 'Lucida Grande', Verdana, Geneva, Lucid, Arial, Helvetica, 'Avant Garde', sans-serif;text-anchor:middle"
             x="27.565781"
             y="162.66357"
             transform="rotate(-90,27.565781,162.66357)"
             id="text132">Loss</text>
        </g>
      </g>
      <g
         id="line2d_13">
        <path
           d="m 94.551818,34.175901 1.269664,21.382189 1.269664,26.086778 1.269664,18.919502 1.269663,13.40122 2.539327,23.22843 1.26967,4.11914 2.53932,12.5689 1.26967,5.22559 2.53932,9.13085 1.26967,4.23062 1.26966,3.6581 1.26966,4.60272 1.26967,3.16429 1.26966,4.25688 1.26967,1.59077 1.26966,3.10443 1.26966,1.27015 1.26967,5.17163 1.26966,0.4638 1.26967,2.14887 1.26966,3.6075 1.26966,-1.14468 1.26967,2.63653 1.26966,1.41334 1.26966,3.03108 1.26967,0.68175 1.26966,1.11572 2.53933,3.98318 1.26966,0.56258 2.53933,3.6385 1.26967,-1.56678 1.26966,3.39807 1.26966,1.50687 1.26967,-0.48885 1.26966,0.88454 1.26966,4.27277 1.26967,-0.18526 1.26966,-1.49618 1.26967,2.78014 1.26966,0.92389 1.26966,0.1457 1.26967,0.86595 1.26966,1.69739 1.26966,0.29407 1.26967,0.63939 1.26966,-1.61008 1.26967,0.19021 1.26966,5.04118 1.26966,-2.15793 1.26967,3.98718 1.26966,-2.43424 1.26967,1.29148 1.26966,0.45009 1.26966,2.26222 1.26967,-2.13254 1.26966,3.19487 2.53933,-2.41237 1.26966,3.99433 1.26967,-1.09511 1.26966,3.37582 1.26966,-2.25307 1.26967,-1.48286 1.26966,2.34341 1.26966,0.71915 1.26967,-0.44586 1.26966,0.4637 1.26967,0.8435 1.26966,1.54209 1.26966,-0.26289 1.26967,0.19003 1.26966,1.52479 1.26967,0.60571 1.26966,-1.97479 1.26966,0.42957 1.26967,1.41146 1.26966,-1.45874 1.26967,0.90352 1.26966,2.44721 1.26966,0.33246 1.26967,-1.12148 1.26966,0.48126 1.26966,0.60652 1.26967,1.13353 1.26966,0.80883 1.26966,1.44023 1.26967,-2.71987 1.26966,-1.57262 1.26967,3.35576 1.26966,-0.27775 1.26966,1.22139 1.26967,0.91033 1.26966,-1.53439 1.26967,1.25547 1.26966,-0.0469 1.26966,-0.86112 1.26967,0.73243 1.26966,0.26268 1.26966,1.20933 1.26967,-0.21614 1.26966,0.69805 1.26967,-1.01461 1.26966,3.31988 1.26966,-2.35927 2.53933,1.35449 1.26967,-2.89995 1.26966,4.65092 1.26966,-1.45291 1.26967,1.48005 1.26966,-1.25288 1.26966,0.47119 1.26967,1.42153 1.26966,1.04181 1.26967,-2.43685 1.26966,-1.5737 2.53933,4.37868 2.53932,-2.84848 1.26967,3.90118 1.26966,-2.78342 1.26967,2.63217 1.26966,0.9698 1.26966,-2.66249 1.26967,1.88212 1.26966,0.11628 1.26967,-0.80761 2.53932,1.22088 1.26967,-2.60713 1.26966,3.39416 1.26966,0.49301 1.26967,0.0419 1.26966,-1.81943 2.53933,1.76756 1.26966,-1.41515 1.26967,1.88741 1.26966,0.0446 1.26966,0.61956 1.26967,-0.90582 1.26966,1.1722 1.26967,-1.11401 1.26966,1.55008 1.26966,-0.28795 1.26967,-3.68661 1.26966,5.22999 1.26967,-2.48545 1.26966,0.21456 1.26966,2.00507 1.26967,-3.1392 1.26966,1.62275 3.80899,0.43481 1.26967,2.74655 1.26966,-2.02471 1.26966,0.38221 1.26967,3.85863 1.26966,-2.43437 1.26966,0.0587 1.26967,-0.84114 1.26966,-0.0516 1.26967,-2.66127 1.26966,2.07923 1.26966,3.64222 1.26967,0.39378 1.26966,-1.11937 1.26967,-4.42218 2.53932,5.14641 1.26967,-2.28744 2.53932,-0.60327 1.26967,2.75421 1.26966,-2.31531 1.26967,0.012 1.26966,2.12523 1.26966,0.26798 1.26967,0.74858 1.26966,-0.90679 1.26966,-1.6738 1.26967,-0.97541 1.26966,0.13272 1.26967,2.49039 1.26966,0.95905 1.26966,-0.36248 1.26967,-0.65416 1.26966,0.42201 1.26967,0.57702 1.26966,1.24868 1.26966,-1.31147 1.26967,1.7515 1.26966,-1.33538 1.26967,-0.36186 1.26966,1.39484 1.26966,0.1576 1.26967,-0.83832 1.26966,1.38786 1.26966,-3.99906 1.26967,2.47594 1.26966,-0.33458 1.26967,-1.98278 1.26966,1.45637 1.26966,3.34523 1.26967,-3.97896 1.26966,1.72929 2.53933,1.62757 1.26966,0.28211 1.26967,-0.11934 1.26966,-1.28394 1.26966,-2.19493 1.26967,3.29214 1.26966,-0.80428 1.26967,2.03888 1.26966,0.64862 1.26966,-2.48153 1.26967,1.30059 1.26966,-2.19655 1.26966,2.18058 1.26967,2.55432 1.26966,-1.18649 1.26967,-4.99505 1.26966,4.73195 1.26966,-1.23479 1.26967,2.05251 1.26966,-0.0932 1.26967,-2.18509 1.26966,1.9594 1.26966,0.0939 1.26967,-4.01861 1.26966,0.81055 1.26966,2.807 1.26967,1.33696 1.26966,-0.17366 1.26966,0.16111 1.26967,-3.4242 1.26966,0.49839 1.26967,1.74783 1.26966,0.0392 1.26966,1.75894 1.26967,-3.17219 1.26966,2.15951 1.26967,0.24663 1.26966,0.75962 1.26966,-2.46509 1.26967,0.16989 1.26966,0.67649 1.26966,0.89733 1.26967,-0.79662 1.26966,0.28749 1.26967,-0.0428 1.26966,1.45906 1.26966,-3.05753 1.26967,0.49264 1.26966,0.13959 1.26966,-0.14555 1.26967,1.60003 2.53933,-0.45432 1.26966,2.21266 1.26966,-2.49879 1.26967,2.81919 1.26966,-1.82726 1.26967,-2.84396 1.26966,2.87045 1.26966,1.10966 1.26967,0.78115 1.26966,-2.33827 1.26966,0.80516 1.26967,0.61838 1.26966,-0.60603 1.26967,1.36066 1.26966,-1.73704 1.26966,2.06973 1.26967,-1.9233 1.26966,1.62177 1.26967,-2.77372 1.26966,5.49114 1.26966,-3.78818 1.26967,0.23296 1.26966,-1.29124 1.26966,2.31692 1.26967,-2.50456 2.53933,2.26436 1.26966,0.88082 1.26966,-0.21048 1.26967,-0.88347 1.26966,0.28213 1.26966,0.41742 1.26967,1.74365 1.26966,-2.62531 1.26967,1.89397 1.26966,-0.88596 1.26966,0.15075 1.26967,0.86322 1.26966,0.37881 1.26967,-2.34298 1.26966,0.67111 1.26966,0.53046 1.26967,-0.67334 1.26966,2.68755 1.26966,-3.44083 1.26967,0.14425 1.26966,0.3708 1.26967,-0.26117 1.26966,3.1515 1.26966,-2.18267 1.26967,-0.89433 1.26966,2.50316 1.26966,-0.75853 1.26967,-0.56385 1.26966,-0.39795 1.26967,1.27736 1.26966,0.19945 1.26966,-0.10102 1.26967,2.61187 1.26966,-4.01179 1.26967,1.75426 1.26966,0.71178 1.26966,-3.26009 1.26967,3.20069 1.26966,-1.43645 2.53933,-0.80112 1.26966,2.05556 1.26967,-0.90897 1.26966,0.5052 1.26966,-2.20615 1.26967,0.72528 1.26966,1.69686 1.26967,-1.78728 1.26966,0.0612 1.26966,0.71868 1.26967,0.51956 1.26966,-1.48756 2.53933,5.90184 1.26966,-2.0783 1.26967,-1.50703 1.26966,-2.52656 1.26966,3.0707 1.26967,-2.73498 1.26966,2.70553 1.26967,1.14608 1.26966,-0.28829 1.26966,-2.86378 1.26967,0.46093 1.26966,3.35033 1.26966,-1.69001 1.26967,-1.03745 1.26966,-0.4716 1.26967,2.17901 1.26966,-0.76668 1.26966,-1.43377 1.26967,-0.6614 1.26966,1.11316 1.26967,2.80457 1.26966,0.7281 2.53933,-2.21281 1.26966,2.04503 1.26966,-0.88543 1.26967,-3.10663 1.26966,2.14208 1.26966,-2.13552 1.26967,2.76724 1.26966,-3.13528 1.26967,2.76587 1.26966,1.07316 1.26966,-3.25117 1.26967,0.68585 1.26966,2.59376 1.26967,-1.44875 1.26966,1.0145 1.26966,-3.54448 1.26967,3.56837 1.26966,-3.79209 1.26966,2.53518 1.26967,-0.86392 1.26966,0.99714 1.26967,-2.24621 1.26966,3.8828 1.26966,-0.28247 1.26967,0.066 1.26966,-0.77369 1.26966,-2.4098 1.26967,5.39409 1.26966,-1.88527 1.26967,0.22694 1.26966,-0.96592 1.26966,1.74862 1.26967,-0.18105 1.26966,-1.18469 1.26967,-0.32333 1.26966,2.27364 1.26966,0.1104 1.26967,-1.57389 1.26966,-0.12449 1.26966,0.0319 1.26967,-2.96046 1.26966,2.62713 1.26967,-0.39201 1.26966,-0.80163 1.26966,0.50944 1.26967,2.24784 2.53932,-2.19524 1.26967,0.48422 1.26966,-0.81371 1.26967,1.18225 1.26966,0.77174 1.26966,1.0681 1.26967,0.0175 1.26966,-4.22683 1.26967,2.37249 1.26966,-0.47824 1.26966,-1.00062 1.26967,-0.2636 1.26966,2.44994 1.26967,-0.13253 1.26966,1.20322 1.26966,-1.14807 1.26967,0.73375 1.26966,2.86656 2.53933,-4.84349 1.26966,-0.45025 1.26967,0.2857 1.26966,-0.51852 1.26966,2.64072 1.26967,-1.02708 1.26966,-0.41486 1.26967,2.26027 1.26966,-3.44252 1.26966,3.76913 1.26967,0.581 1.26966,-2.0431 1.26966,-0.47695 1.26967,-3.01572 1.26966,3.04223 1.26966,-2.08864 2.53933,3.01896 1.26967,-1.64227 1.26966,3.57644 1.26966,-1.93468 1.26967,-1.03862 1.26966,1.47482 v 0"
           clip-path="url(#p982cb42b1d)"
           style="fill:none;stroke:#1f77b4;stroke-width:1.5;stroke-linecap:square"
           id="path136" />
      </g>
      <g
         id="line2d_14">
        <path
           d="m 94.551818,50.074118 2.539328,57.944622 1.269664,20.21459 1.269663,6.48279 1.269667,13.14663 1.26966,11.56825 1.26967,6.46015 2.53932,15.49747 1.26967,2.6003 2.53932,13.61427 1.26967,-0.61668 2.53932,12.87255 1.26967,0.90065 2.53933,7.91848 1.26966,1.22207 3.80899,6.80878 1.26967,0.8747 1.26966,2.29275 2.53933,-1.17873 1.26966,5.09974 1.26966,-0.17655 1.26967,1.05982 1.26966,-1.11895 1.26967,4.46115 1.26966,2.21375 1.26966,0.0653 1.26967,-0.0644 1.26966,0.0547 1.26967,1.91398 1.26966,0.12204 1.26966,1.22459 1.26967,-0.0383 1.26966,1.89235 1.26966,-2.76799 1.26967,1.79704 1.26966,3.06362 1.26967,1.41485 1.26966,-3.9586 1.26966,3.341 1.26967,0.33389 1.26966,0.59743 1.26966,0.23892 1.26967,0.9387 1.26966,-0.0964 1.26967,-1.54901 1.26966,0.18858 1.26966,1.77247 1.26967,0.39645 1.26966,0.22515 1.26967,-2.48984 1.26966,3.26189 1.26966,-0.80299 1.26967,2.50657 1.26966,-0.10991 1.26966,0.99651 1.26967,-1.47642 1.26966,1.46739 1.26967,-1.35686 1.26966,0.38073 1.26966,-2.55103 1.26967,2.95747 1.26966,0.81382 1.26966,-0.91129 1.26967,-0.24998 1.26966,1.14171 1.26967,-3.21304 1.26966,3.8731 1.26966,-0.12264 1.26967,-0.56216 1.26966,-2.45867 1.26967,2.29102 1.26966,-2.49526 1.26966,3.16708 1.26967,-0.23927 2.53933,1.57778 1.26966,-2.38228 1.26966,1.59457 1.26967,0.0171 1.26966,-0.0982 1.26966,-0.80833 1.26967,0.0692 1.26966,0.75602 1.26966,-1.65095 1.26967,0.68283 1.26966,2.51531 1.26967,0.0553 1.26966,0.41383 1.26966,0.66711 1.26967,-1.02057 1.26966,-0.33618 1.26967,0.3092 1.26966,0.10198 1.26966,-1.51477 1.26967,2.12242 1.26966,-3.19098 2.53933,0.19215 1.26966,2.46872 1.26967,0.36813 1.26966,-0.53071 1.26966,-0.18341 1.26967,1.60238 1.26966,-0.21863 1.26967,0.43812 1.26966,0.14248 1.26966,-4.1416 1.26967,3.10125 1.26966,-0.54499 1.26966,0.88103 1.26967,-4.17319 1.26966,3.65764 1.26967,-0.11124 1.26966,-0.65373 1.26966,1.53087 1.26967,-1.62998 1.26966,-0.7703 1.26966,3.21538 1.26967,-0.49025 1.26966,-1.96586 1.26967,2.03596 1.26966,-1.62452 1.26966,2.5249 1.26967,-1.98677 1.26966,0.78238 1.26967,-0.17093 2.53932,0.0215 1.26967,0.84909 1.26966,-0.43084 1.26966,0.85636 1.26967,-0.78562 1.26966,0.56579 1.26967,1.57984 1.26966,-1.20941 1.26966,-0.39279 3.80899,2.08879 1.26967,-0.49144 1.26966,-3.9084 1.26967,-0.0763 1.26966,1.40051 1.26966,0.15651 2.53933,1.29362 1.26967,-2.39701 1.26966,0.75814 1.26966,-0.22834 1.26967,-0.47025 1.26966,0.30169 1.26966,1.35555 1.26967,-0.96469 1.26966,-0.21007 1.26967,-1.37111 1.26966,-0.7855 1.26966,0.98649 1.26967,-0.99378 1.26966,1.02795 1.26966,-1.70421 1.26967,2.78439 1.26966,-0.92928 1.26967,0.46296 1.26966,0.72258 1.26966,-1.80512 1.26967,0.82746 1.26966,-0.44605 1.26967,1.12908 1.26966,-1.12641 1.26966,-0.12013 1.26967,1.58333 1.26966,-2.19108 1.26966,-1.02593 1.26967,1.10476 1.26966,-0.416 1.26967,2.07357 1.26966,-0.70776 1.26966,1.86362 1.26967,-0.29149 1.26966,0.46102 1.26966,-2.28311 1.26967,0.2714 1.26966,0.96255 1.26967,-0.73194 1.26966,-2.58952 1.26966,1.10243 1.26967,2.42677 1.26966,-2.53064 1.26967,1.83706 1.26966,-0.48843 1.26966,-0.32706 1.26967,-1.66877 1.26966,-0.92691 1.26967,2.689 1.26966,-0.23749 1.26966,1.15568 1.26967,-0.94498 1.26966,0.8786 1.26966,0.0563 1.26967,-1.74832 1.26966,3.02649 1.26967,-2.15303 1.26966,-1.79989 1.26966,2.56055 1.26967,-1.35941 1.26966,0.39033 1.26967,2.60654 1.26966,-1.72313 1.26966,1.5159 1.26967,0.0267 1.26966,-1.08051 1.26966,1.34802 1.26967,-1.75303 1.26966,1.16191 2.53933,-0.77365 1.26966,-0.10806 1.26967,2.70127 2.53932,-2.40938 1.26967,-0.41228 1.26966,-0.21054 1.26967,0.2694 1.26966,1.09356 1.26966,1.32226 1.26967,-2.12329 1.26966,0.6957 1.26967,1.19374 1.26966,-0.52833 1.26966,-0.6842 1.26967,0.14248 1.26966,0.72295 1.26966,-3.20555 1.26967,4.67316 1.26966,-1.84249 1.26966,-1.6151 1.26967,1.30368 2.53933,0.83092 1.26966,-3.68484 1.26966,2.45551 1.26967,-0.48247 1.26966,-1.01068 1.26967,1.57361 1.26966,-1.05692 1.26966,0.81655 1.26967,-2.40437 1.26966,4.70143 1.26966,-1.38347 1.26967,3.10794 1.26966,-1.61352 1.26967,-1.20449 1.26966,-1.76167 1.26966,0.5905 1.26967,0.23618 1.26966,-2.04719 1.26966,1.09143 1.26967,0.82806 1.26966,-1.27918 1.26967,0.50787 1.26966,-1.98808 1.26966,0.74138 1.26967,2.12 1.26966,-1.29404 1.26967,0.89259 1.26966,0.36137 1.26966,-2.18874 1.26967,0.002 1.26966,-0.86554 1.26966,1.07844 1.26967,-0.86222 1.26966,0.75713 1.26967,-1.05722 1.26966,1.72695 1.26966,-1.26459 1.26967,2.6881 1.26966,-2.25637 1.26967,1.397 1.26966,0.30719 1.26966,0.48721 1.26967,-2.37636 1.26966,1.00323 1.26966,0.0163 1.26967,0.26312 1.26966,-0.58467 1.26967,-0.36312 1.26966,1.65683 1.26966,0.19076 1.26967,-0.24404 2.53932,-1.61285 1.26967,-0.40085 1.26966,3.02731 1.26967,-3.36767 1.26966,0.15289 1.26966,1.72164 1.26967,0.0426 1.26966,0.5449 1.26967,0.18185 1.26966,-1.72986 1.26966,2.34733 1.26967,-0.56199 1.26966,-2.44803 2.53933,2.33711 1.26966,0.56432 1.26967,-2.13432 1.26966,0.27873 1.26966,0.0636 1.26967,1.47589 1.26966,-1.55231 1.26966,-0.29955 1.26967,0.80918 1.26966,-1.40052 1.26967,2.62703 1.26966,-1.31188 1.26966,0.3825 1.26967,-0.44604 1.26966,-0.74383 1.26967,-1.41779 1.26966,0.44087 1.26966,2.63061 1.26967,-1.13335 1.26966,0.78623 1.26966,-1.74183 1.26967,4.19648 2.53933,-1.65719 1.26966,-2.2093 1.26966,1.24143 1.26967,0.22053 1.26966,-2.45246 1.26967,2.60569 1.26966,0.0246 1.26966,-3.46647 1.26967,1.91804 1.26966,-0.32707 1.26966,2.72832 1.26967,0.15139 1.26966,-1.98409 1.26967,4.01378 1.26966,-4.97894 1.26966,0.55045 1.26967,1.48629 1.26966,0.65611 1.26967,1.12747 1.26966,-2.10012 1.26966,0.83509 1.26967,-1.15282 1.26966,-0.79046 1.26966,0.38454 1.26967,2.91611 1.26966,-0.45927 1.26967,-0.66323 1.26966,-2.97386 1.26966,3.31049 1.26967,-0.94919 1.26966,1.77442 1.26967,-2.67806 1.26966,2.23382 1.26966,-0.78945 1.26967,-3.21923 1.26966,0.41074 1.26966,2.78751 1.26967,0.42319 1.26966,-3.9053 1.26966,3.52859 1.26967,-2.49732 2.53933,1.68645 1.26966,-0.34889 1.26966,-2.11425 1.26967,4.53809 1.26966,-4.53406 1.26967,2.79606 1.26966,-1.14402 1.26966,1.12134 1.26967,-0.87926 1.26966,0.009 1.26966,-1.07635 1.26967,-1.57466 1.26966,0.63662 1.26967,3.12861 1.26966,-3.12218 1.26966,0.76047 1.26967,-0.20506 1.26966,-0.53178 1.26966,0.68538 1.26967,-0.62435 1.26966,1.10127 1.26967,0.88962 1.26966,-2.47608 1.26966,1.73151 1.26967,-0.65045 1.26966,0.1132 1.26967,-0.87145 1.26966,0.80474 1.26966,-0.55901 1.26967,0.43652 1.26966,-0.43573 1.26966,-2.72355 1.26967,2.71071 1.26966,-2.33415 1.26967,3.10767 1.26966,0.9583 1.26966,-5.16282 1.26967,3.33199 1.26966,-3.25844 1.26966,3.89819 1.26967,-1.17012 1.26966,0.56662 1.26967,0.10491 1.26966,0.50259 1.26966,-0.66749 1.26967,-0.84154 1.26966,2.72894 1.26967,-2.78601 1.26966,2.71657 1.26966,1.50899 1.26967,-2.50695 1.26966,1.40627 1.26967,-1.1568 1.26966,-0.6497 1.26966,-1.31963 1.26967,2.74103 1.26966,-0.9163 1.26966,-1.23225 1.26967,2.55974 1.26966,-0.83701 1.26967,1.59752 1.26966,0.10388 1.26966,0.38694 1.26967,-2.11253 1.26966,0.61772 1.26967,-3.17543 1.26966,0.52551 1.26966,-0.66312 1.26967,1.1095 1.26966,0.73931 2.53933,-0.0702 1.26966,-0.46811 1.26966,1.1926 1.26967,1.76234 2.53933,-2.13875 1.26966,0.65494 1.26966,-5.05565 1.26967,3.5788 1.26966,0.61705 v 0"
           clip-path="url(#p982cb42b1d)"
           style="fill:none;stroke:#ff7f0e;stroke-width:1.5;stroke-linecap:square"
           id="path139" />
      </g>
      <g
         id="patch_3">
        <path
           d="M 65.54,304 V 21.327134"
           style="fill:none;stroke:#000000;stroke-width:0.8;stroke-linecap:square;stroke-linejoin:miter"
           id="path142" />
      </g>
      <g
         id="patch_4">
        <path
           d="M 703.8,304 V 21.327134"
           style="fill:none;stroke:#000000;stroke-width:0.8;stroke-linecap:square;stroke-linejoin:miter"
           id="path145" />
      </g>
      <g
         id="patch_5">
        <path
           d="M 65.54,304 H 703.8"
           style="fill:none;stroke:#000000;stroke-width:0.8;stroke-linecap:square;stroke-linejoin:miter"
           id="path148" />
      </g>
      <g
         id="patch_6">
        <path
           d="M 65.54,21.327134 H 703.8"
           style="fill:none;stroke:#000000;stroke-width:0.8;stroke-linecap:square;stroke-linejoin:miter"
           id="path151" />
      </g>
      <g
         id="legend_1">
        <g
           id="patch_7">
          <path
             d="M 533.55938,77.361509 H 693.3 q 3,0 3,-3 V 31.827134 q 0,-3 -3,-3 H 533.55938 q -3,0 -3,3 v 42.534375 q 0,3 3,3 z"
             style="opacity:0.8;fill:#ffffff;stroke:#cccccc;stroke-linejoin:miter"
             id="path154" />
        </g>
        <g
           id="line2d_15">
          <path
             d="m 536.55938,40.97479 h 15 15"
             style="fill:none;stroke:#1f77b4;stroke-width:1.5;stroke-linecap:square"
             id="path157" />
        </g>
        <g
           id="text_15">
          <text
             style="font-style:normal;font-variant:normal;font-weight:normal;font-stretch:normal;font-size:15px;line-height:normal;font-family:'DejaVu Sans', 'Bitstream Vera Sans', 'Computer Modern Sans Serif', 'Lucida Grande', Verdana, Geneva, Lucid, Arial, Helvetica, 'Avant Garde', sans-serif;text-anchor:start"
             x="578.55939"
             y="46.224789"
             id="text160">Training Loss</text>
        </g>
        <g
           id="line2d_16">
          <path
             d="m 536.55938,62.991978 h 15 15"
             style="fill:none;stroke:#ff7f0e;stroke-width:1.5;stroke-linecap:square"
             id="path163" />
        </g>
        <g
           id="text_16">
          <text
             style="font-style:normal;font-variant:normal;font-weight:normal;font-stretch:normal;font-size:15px;line-height:normal;font-family:'DejaVu Sans', 'Bitstream Vera Sans', 'Computer Modern Sans Serif', 'Lucida Grande', Verdana, Geneva, Lucid, Arial, Helvetica, 'Avant Garde', sans-serif;text-anchor:start"
             x="578.55939"
             y="68.241982"
             id="text166">Validation Loss</text>
        </g>
      </g>
    </g>
  </g>
  <defs
     id="defs175">
    <clipPath
       id="p982cb42b1d">
      <rect
         x="65.540001"
         y="21.327133"
         width="638.26001"
         height="282.67285"
         id="rect172" />
    </clipPath>
  </defs>
</svg>
