<?xml version="1.0" encoding="utf-8" standalone="no"?>
<!DOCTYPE svg PUBLIC "-//W3C//DTD SVG 1.1//EN"
  "http://www.w3.org/Graphics/SVG/1.1/DTD/svg11.dtd">
<svg xmlns:xlink="http://www.w3.org/1999/xlink" width="720pt" height="360pt" viewBox="0 0 720 360" xmlns="http://www.w3.org/2000/svg" version="1.1">
 <metadata>
  <rdf:RDF xmlns:dc="http://purl.org/dc/elements/1.1/" xmlns:cc="http://creativecommons.org/ns#" xmlns:rdf="http://www.w3.org/1999/02/22-rdf-syntax-ns#">
   <cc:Work>
    <dc:type rdf:resource="http://purl.org/dc/dcmitype/StillImage"/>
    <dc:date>2023-07-04T23:27:51.252340</dc:date>
    <dc:format>image/svg+xml</dc:format>
    <dc:creator>
     <cc:Agent>
      <dc:title>Matplotlib v3.7.1, https://matplotlib.org/</dc:title>
     </cc:Agent>
    </dc:creator>
   </cc:Work>
  </rdf:RDF>
 </metadata>
 <defs>
  <style type="text/css">*{stroke-linejoin: round; stroke-linecap: butt}</style>
 </defs>
 <g id="figure_1">
  <g id="patch_1">
   <path d="M 0 360 
L 720 360 
L 720 0 
L 0 0 
z
" style="fill: #ffffff"/>
  </g>
  <g id="axes_1">
   <g id="patch_2">
    <path d="M 58.61 309.04 
L 705.96 309.04 
L 705.96 31.56 
L 58.61 31.56 
z
" style="fill: #ffffff"/>
   </g>
   <g id="matplotlib.axis_1">
    <g id="xtick_1">
     <g id="line2d_1">
      <defs>
       <path id="me6008e8a08" d="M 0 0 
L 0 3.5 
" style="stroke: #000000; stroke-width: 0.8"/>
      </defs>
      <g>
       <use xlink:href="#me6008e8a08" x="87.055799" y="309.04" style="stroke: #000000; stroke-width: 0.8"/>
      </g>
     </g>
     <g id="text_1">
      <text style="font: 13px 'DejaVu Sans', 'Bitstream Vera Sans', 'Computer Modern Sans Serif', 'Lucida Grande', 'Verdana', 'Geneva', 'Lucid', 'Arial', 'Helvetica', 'Avant Garde', sans-serif; text-anchor: middle" x="87.055799" y="325.917969" transform="rotate(-0 87.055799 325.917969)">0</text>
     </g>
    </g>
    <g id="xtick_2">
     <g id="line2d_2">
      <g>
       <use xlink:href="#me6008e8a08" x="184.975932" y="309.04" style="stroke: #000000; stroke-width: 0.8"/>
      </g>
     </g>
     <g id="text_2">
      <text style="font: 13px 'DejaVu Sans', 'Bitstream Vera Sans', 'Computer Modern Sans Serif', 'Lucida Grande', 'Verdana', 'Geneva', 'Lucid', 'Arial', 'Helvetica', 'Avant Garde', sans-serif; text-anchor: middle" x="184.975932" y="325.917969" transform="rotate(-0 184.975932 325.917969)">100</text>
     </g>
    </g>
    <g id="xtick_3">
     <g id="line2d_3">
      <g>
       <use xlink:href="#me6008e8a08" x="282.896065" y="309.04" style="stroke: #000000; stroke-width: 0.8"/>
      </g>
     </g>
     <g id="text_3">
      <text style="font: 13px 'DejaVu Sans', 'Bitstream Vera Sans', 'Computer Modern Sans Serif', 'Lucida Grande', 'Verdana', 'Geneva', 'Lucid', 'Arial', 'Helvetica', 'Avant Garde', sans-serif; text-anchor: middle" x="282.896065" y="325.917969" transform="rotate(-0 282.896065 325.917969)">200</text>
     </g>
    </g>
    <g id="xtick_4">
     <g id="line2d_4">
      <g>
       <use xlink:href="#me6008e8a08" x="380.816198" y="309.04" style="stroke: #000000; stroke-width: 0.8"/>
      </g>
     </g>
     <g id="text_4">
      <text style="font: 13px 'DejaVu Sans', 'Bitstream Vera Sans', 'Computer Modern Sans Serif', 'Lucida Grande', 'Verdana', 'Geneva', 'Lucid', 'Arial', 'Helvetica', 'Avant Garde', sans-serif; text-anchor: middle" x="380.816198" y="325.917969" transform="rotate(-0 380.816198 325.917969)">300</text>
     </g>
    </g>
    <g id="xtick_5">
     <g id="line2d_5">
      <g>
       <use xlink:href="#me6008e8a08" x="478.736331" y="309.04" style="stroke: #000000; stroke-width: 0.8"/>
      </g>
     </g>
     <g id="text_5">
      <text style="font: 13px 'DejaVu Sans', 'Bitstream Vera Sans', 'Computer Modern Sans Serif', 'Lucida Grande', 'Verdana', 'Geneva', 'Lucid', 'Arial', 'Helvetica', 'Avant Garde', sans-serif; text-anchor: middle" x="478.736331" y="325.917969" transform="rotate(-0 478.736331 325.917969)">400</text>
     </g>
    </g>
    <g id="xtick_6">
     <g id="line2d_6">
      <g>
       <use xlink:href="#me6008e8a08" x="576.656464" y="309.04" style="stroke: #000000; stroke-width: 0.8"/>
      </g>
     </g>
     <g id="text_6">
      <text style="font: 13px 'DejaVu Sans', 'Bitstream Vera Sans', 'Computer Modern Sans Serif', 'Lucida Grande', 'Verdana', 'Geneva', 'Lucid', 'Arial', 'Helvetica', 'Avant Garde', sans-serif; text-anchor: middle" x="576.656464" y="325.917969" transform="rotate(-0 576.656464 325.917969)">500</text>
     </g>
    </g>
    <g id="xtick_7">
     <g id="line2d_7">
      <g>
       <use xlink:href="#me6008e8a08" x="674.576597" y="309.04" style="stroke: #000000; stroke-width: 0.8"/>
      </g>
     </g>
     <g id="text_7">
      <text style="font: 13px 'DejaVu Sans', 'Bitstream Vera Sans', 'Computer Modern Sans Serif', 'Lucida Grande', 'Verdana', 'Geneva', 'Lucid', 'Arial', 'Helvetica', 'Avant Garde', sans-serif; text-anchor: middle" x="674.576597" y="325.917969" transform="rotate(-0 674.576597 325.917969)">600</text>
     </g>
    </g>
    <g id="text_8">
     <text style="font: 13px 'DejaVu Sans', 'Bitstream Vera Sans', 'Computer Modern Sans Serif', 'Lucida Grande', 'Verdana', 'Geneva', 'Lucid', 'Arial', 'Helvetica', 'Avant Garde', sans-serif; text-anchor: middle" x="382.285" y="342.499531" transform="rotate(-0 382.285 342.499531)">Epochs</text>
    </g>
   </g>
   <g id="matplotlib.axis_2">
    <g id="ytick_1">
     <g id="line2d_8">
      <defs>
       <path id="m07151adf33" d="M 0 0 
L -3.5 0 
" style="stroke: #000000; stroke-width: 0.8"/>
      </defs>
      <g>
       <use xlink:href="#m07151adf33" x="58.61" y="272.526811" style="stroke: #000000; stroke-width: 0.8"/>
      </g>
     </g>
     <g id="text_9">
      <text style="font: 13px 'DejaVu Sans', 'Bitstream Vera Sans', 'Computer Modern Sans Serif', 'Lucida Grande', 'Verdana', 'Geneva', 'Lucid', 'Arial', 'Helvetica', 'Avant Garde', sans-serif; text-anchor: end" x="51.61" y="277.465796" transform="rotate(-0 51.61 277.465796)">0.2</text>
     </g>
    </g>
    <g id="ytick_2">
     <g id="line2d_9">
      <g>
       <use xlink:href="#m07151adf33" x="58.61" y="232.524134" style="stroke: #000000; stroke-width: 0.8"/>
      </g>
     </g>
     <g id="text_10">
      <text style="font: 13px 'DejaVu Sans', 'Bitstream Vera Sans', 'Computer Modern Sans Serif', 'Lucida Grande', 'Verdana', 'Geneva', 'Lucid', 'Arial', 'Helvetica', 'Avant Garde', sans-serif; text-anchor: end" x="51.61" y="237.463118" transform="rotate(-0 51.61 237.463118)">0.4</text>
     </g>
    </g>
    <g id="ytick_3">
     <g id="line2d_10">
      <g>
       <use xlink:href="#m07151adf33" x="58.61" y="192.521456" style="stroke: #000000; stroke-width: 0.8"/>
      </g>
     </g>
     <g id="text_11">
      <text style="font: 13px 'DejaVu Sans', 'Bitstream Vera Sans', 'Computer Modern Sans Serif', 'Lucida Grande', 'Verdana', 'Geneva', 'Lucid', 'Arial', 'Helvetica', 'Avant Garde', sans-serif; text-anchor: end" x="51.61" y="197.460441" transform="rotate(-0 51.61 197.460441)">0.6</text>
     </g>
    </g>
    <g id="ytick_4">
     <g id="line2d_11">
      <g>
       <use xlink:href="#m07151adf33" x="58.61" y="152.518779" style="stroke: #000000; stroke-width: 0.8"/>
      </g>
     </g>
     <g id="text_12">
      <text style="font: 13px 'DejaVu Sans', 'Bitstream Vera Sans', 'Computer Modern Sans Serif', 'Lucida Grande', 'Verdana', 'Geneva', 'Lucid', 'Arial', 'Helvetica', 'Avant Garde', sans-serif; text-anchor: end" x="51.61" y="157.457763" transform="rotate(-0 51.61 157.457763)">0.8</text>
     </g>
    </g>
    <g id="ytick_5">
     <g id="line2d_12">
      <g>
       <use xlink:href="#m07151adf33" x="58.61" y="112.516101" style="stroke: #000000; stroke-width: 0.8"/>
      </g>
     </g>
     <g id="text_13">
      <text style="font: 13px 'DejaVu Sans', 'Bitstream Vera Sans', 'Computer Modern Sans Serif', 'Lucida Grande', 'Verdana', 'Geneva', 'Lucid', 'Arial', 'Helvetica', 'Avant Garde', sans-serif; text-anchor: end" x="51.61" y="117.455086" transform="rotate(-0 51.61 117.455086)">1.0</text>
     </g>
    </g>
    <g id="ytick_6">
     <g id="line2d_13">
      <g>
       <use xlink:href="#m07151adf33" x="58.61" y="72.513424" style="stroke: #000000; stroke-width: 0.8"/>
      </g>
     </g>
     <g id="text_14">
      <text style="font: 13px 'DejaVu Sans', 'Bitstream Vera Sans', 'Computer Modern Sans Serif', 'Lucida Grande', 'Verdana', 'Geneva', 'Lucid', 'Arial', 'Helvetica', 'Avant Garde', sans-serif; text-anchor: end" x="51.61" y="77.452408" transform="rotate(-0 51.61 77.452408)">1.2</text>
     </g>
    </g>
    <g id="ytick_7">
     <g id="line2d_14">
      <g>
       <use xlink:href="#m07151adf33" x="58.61" y="32.510746" style="stroke: #000000; stroke-width: 0.8"/>
      </g>
     </g>
     <g id="text_15">
      <text style="font: 13px 'DejaVu Sans', 'Bitstream Vera Sans', 'Computer Modern Sans Serif', 'Lucida Grande', 'Verdana', 'Geneva', 'Lucid', 'Arial', 'Helvetica', 'Avant Garde', sans-serif; text-anchor: end" x="51.61" y="37.449731" transform="rotate(-0 51.61 37.449731)">1.4</text>
     </g>
    </g>
    <g id="text_16">
     <text style="font: 13px 'DejaVu Sans', 'Bitstream Vera Sans', 'Computer Modern Sans Serif', 'Lucida Grande', 'Verdana', 'Geneva', 'Lucid', 'Arial', 'Helvetica', 'Avant Garde', sans-serif; text-anchor: middle" x="24.232344" y="170.3" transform="rotate(-90 24.232344 170.3)">Loss</text>
    </g>
   </g>
   <g id="line2d_15">
    <path d="M 88.035 44.172727 
L 89.993403 96.018339 
L 90.972604 115.11741 
L 91.951805 128.497069 
L 92.931007 138.504 
L 93.910208 146.320945 
L 95.868611 163.171948 
L 96.847812 167.967522 
L 98.806215 178.686728 
L 99.785416 185.123615 
L 100.764617 186.758298 
L 101.743819 191.628717 
L 102.72302 192.893695 
L 103.702221 194.974883 
L 104.681423 200.929094 
L 105.660624 203.522022 
L 106.639825 206.513482 
L 107.619027 210.395577 
L 108.598228 210.249322 
L 109.577429 212.319613 
L 110.556631 214.009524 
L 111.535832 216.911022 
L 112.515033 216.320098 
L 113.494235 217.95974 
L 114.473436 222.155908 
L 115.452637 221.607211 
L 116.431839 223.798126 
L 117.41104 223.558821 
L 118.390241 225.883105 
L 119.369443 224.320292 
L 120.348644 225.491458 
L 121.327845 228.852086 
L 122.307047 230.628328 
L 123.286248 234.229571 
L 124.265449 234.062238 
L 125.244651 232.077282 
L 126.223852 236.450279 
L 127.203053 235.729825 
L 129.161456 236.536819 
L 131.119859 242.423148 
L 132.09906 241.608804 
L 133.078261 242.023579 
L 134.057463 241.112109 
L 135.036664 241.927448 
L 136.015865 243.201982 
L 136.995067 243.028998 
L 137.974268 243.377303 
L 138.953469 244.903117 
L 139.932671 247.029715 
L 140.911872 247.294532 
L 141.891073 248.578252 
L 142.870275 247.34424 
L 143.849476 249.240647 
L 144.828677 249.623764 
L 145.807879 250.736788 
L 146.78708 252.287512 
L 147.766281 249.814642 
L 148.745483 251.431401 
L 149.724684 250.52324 
L 150.703885 252.560913 
L 151.683087 252.527366 
L 152.662288 254.009081 
L 153.641489 252.822554 
L 156.579093 255.379788 
L 157.558295 255.965645 
L 158.537496 255.97774 
L 159.516697 255.566601 
L 160.495899 255.757713 
L 161.4751 256.675453 
L 163.433502 256.621537 
L 164.412704 258.428179 
L 165.391905 257.607708 
L 166.371106 259.125004 
L 167.350308 258.837172 
L 168.329509 262.017245 
L 169.30871 260.674984 
L 170.287912 259.00236 
L 171.267113 258.485141 
L 172.246314 261.429969 
L 174.204717 261.975167 
L 176.16312 262.662598 
L 177.142321 259.596014 
L 178.121522 261.702076 
L 179.100724 261.638212 
L 180.079925 264.155881 
L 181.059126 262.202264 
L 182.038328 265.868335 
L 183.017529 264.32471 
L 183.99673 262.095022 
L 184.975932 266.029869 
L 185.955133 264.450604 
L 186.934334 266.515867 
L 187.913536 265.467169 
L 188.892737 265.15088 
L 189.871938 266.444217 
L 190.85114 266.898799 
L 191.830341 263.75171 
L 192.809542 267.393446 
L 193.788744 265.920827 
L 194.767945 266.059292 
L 195.747146 268.156368 
L 196.726348 267.298585 
L 197.705549 269.339814 
L 198.68475 267.42942 
L 199.663952 266.575982 
L 200.643153 267.258814 
L 201.622354 266.778392 
L 202.601556 270.622801 
L 203.580757 268.460396 
L 204.559958 269.036648 
L 205.53916 268.612124 
L 206.518361 269.613597 
L 207.497562 268.749865 
L 208.476764 268.615677 
L 209.455965 270.161135 
L 210.435166 270.21979 
L 211.414368 272.532366 
L 212.393569 271.143613 
L 213.37277 270.008101 
L 214.351972 270.338441 
L 215.331173 272.497 
L 216.310374 272.499122 
L 217.289576 270.90168 
L 219.247978 272.499257 
L 220.22718 270.540571 
L 221.206381 269.795674 
L 222.185582 272.514516 
L 223.164784 272.038452 
L 224.143985 272.028199 
L 225.123186 271.747157 
L 226.102388 275.994564 
L 227.081589 273.583409 
L 228.06079 273.501305 
L 229.039992 271.101833 
L 230.019193 273.15719 
L 230.998394 275.489756 
L 231.977596 272.492178 
L 232.956797 273.179281 
L 233.935998 275.24818 
L 234.9152 274.880934 
L 235.894401 275.390246 
L 236.873602 275.470822 
L 237.852804 273.26791 
L 238.832005 274.492092 
L 239.811206 274.222134 
L 240.790408 271.477723 
L 241.769609 276.725038 
L 244.707213 275.34342 
L 245.686414 274.403794 
L 246.665616 275.545589 
L 247.644817 277.952338 
L 248.624018 272.482992 
L 249.60322 276.768844 
L 250.582421 273.589171 
L 251.561622 277.537641 
L 252.540824 278.16757 
L 253.520025 275.878133 
L 254.499226 276.148852 
L 255.478428 274.021312 
L 256.457629 278.307915 
L 257.43683 273.887527 
L 258.416032 277.991695 
L 260.374434 275.97126 
L 261.353636 276.519761 
L 262.332837 277.252947 
L 263.312038 274.854108 
L 264.29124 279.397481 
L 265.270441 278.609613 
L 267.228844 280.27968 
L 268.208045 276.208887 
L 269.187246 277.682359 
L 271.145649 276.037041 
L 272.12485 278.059294 
L 273.104052 280.816142 
L 274.083253 280.646446 
L 275.062454 281.67313 
L 276.041656 281.026397 
L 277.020857 281.394585 
L 278.000058 280.84735 
L 278.97926 279.962881 
L 279.958461 279.920216 
L 280.937662 277.778314 
L 281.916864 281.835957 
L 282.896065 281.730205 
L 283.875266 278.904252 
L 284.854468 278.278001 
L 285.833669 280.586038 
L 286.81287 280.095227 
L 287.792072 281.861168 
L 288.771273 280.325659 
L 289.750474 279.646111 
L 290.729676 278.161579 
L 291.708877 280.30242 
L 292.688078 281.235754 
L 293.66728 278.704286 
L 294.646481 280.222595 
L 295.625682 283.320757 
L 296.604884 281.875763 
L 297.584085 281.184625 
L 298.563286 279.507304 
L 299.542488 282.341629 
L 300.521689 279.548875 
L 301.50089 281.510526 
L 302.480092 282.045141 
L 303.459293 280.903737 
L 304.438494 281.332502 
L 305.417696 280.990232 
L 306.396897 279.284397 
L 307.376098 279.872275 
L 308.3553 280.074364 
L 309.334501 283.593267 
L 310.313702 280.900739 
L 311.292903 281.084652 
L 312.272105 284.532964 
L 313.251306 281.662603 
L 314.230507 281.501761 
L 315.209709 281.103277 
L 316.18891 285.168139 
L 317.168111 285.451691 
L 318.147313 281.760039 
L 319.126514 282.31265 
L 320.105715 283.469081 
L 322.064118 281.519587 
L 323.043319 283.355953 
L 324.022521 283.782754 
L 325.001722 281.958905 
L 325.980923 283.041687 
L 326.960125 284.356523 
L 327.939326 280.504157 
L 328.918527 283.636951 
L 329.897729 282.984895 
L 330.87693 283.432151 
L 332.835333 282.146792 
L 333.814534 280.90605 
L 334.793735 279.03042 
L 335.772937 283.00512 
L 336.752138 281.812587 
L 338.710541 285.028467 
L 339.689742 286.030902 
L 340.668943 281.951317 
L 341.648145 282.02024 
L 342.627346 285.745663 
L 343.606547 280.881193 
L 344.585749 284.645553 
L 345.56495 283.95555 
L 346.544151 283.63133 
L 347.523353 285.90632 
L 348.502554 282.555406 
L 349.481755 286.209254 
L 350.460957 282.362855 
L 351.440158 283.820167 
L 352.419359 283.97765 
L 353.398561 283.501315 
L 354.377762 282.571101 
L 356.336165 286.74716 
L 357.315366 285.269778 
L 358.294567 284.439996 
L 359.273769 285.619749 
L 360.25297 285.707129 
L 361.232171 285.287365 
L 362.211373 286.878022 
L 364.169775 284.629983 
L 365.148977 282.951741 
L 366.128178 286.261391 
L 367.107379 286.661201 
L 368.086581 284.11205 
L 369.065782 285.575966 
L 370.044983 284.101457 
L 371.024185 287.075836 
L 372.003386 285.139718 
L 372.982587 286.025502 
L 373.961789 285.594752 
L 374.94099 286.820189 
L 375.920191 284.686722 
L 376.899393 284.115895 
L 377.878594 285.130141 
L 378.857795 287.354897 
L 379.836997 287.707248 
L 380.816198 284.963938 
L 381.795399 285.748498 
L 382.774601 284.890965 
L 383.753802 285.523058 
L 384.733003 285.493143 
L 385.712205 286.152421 
L 386.691406 285.181834 
L 387.670607 286.210372 
L 388.649809 288.312104 
L 389.62901 288.522193 
L 390.608211 288.202949 
L 391.587413 284.654935 
L 392.566614 284.910883 
L 393.545815 288.024698 
L 394.525017 285.87843 
L 395.504218 286.605509 
L 396.483419 288.909766 
L 397.462621 285.030434 
L 398.441822 284.879013 
L 399.421023 286.739598 
L 400.400225 289.241887 
L 401.379426 287.320172 
L 402.358627 286.012489 
L 403.337829 281.933181 
L 404.31703 288.136718 
L 405.296231 286.43983 
L 406.275433 286.324174 
L 407.254634 287.288579 
L 408.233835 289.44951 
L 409.213037 287.452458 
L 410.192238 287.764909 
L 411.171439 289.548627 
L 412.150641 286.780803 
L 413.129842 285.491876 
L 414.109043 287.23641 
L 415.088245 286.477344 
L 416.067446 287.062516 
L 417.046647 285.760646 
L 418.025849 287.395773 
L 419.00505 288.186433 
L 419.984251 287.490494 
L 420.963453 287.900538 
L 421.942654 287.790679 
L 422.921855 288.611366 
L 423.901057 287.670021 
L 424.880258 286.157833 
L 425.859459 288.271725 
L 426.838661 289.196757 
L 427.817862 288.809823 
L 428.797063 287.426659 
L 429.776265 286.958267 
L 430.755466 286.839982 
L 431.734667 288.861362 
L 432.713869 286.531335 
L 433.69307 287.617561 
L 434.672271 290.748255 
L 435.651473 288.944453 
L 436.630674 289.183079 
L 437.609875 288.087597 
L 438.589077 288.144073 
L 439.568278 289.057509 
L 440.547479 289.410022 
L 441.526681 287.330016 
L 442.505882 288.930016 
L 443.485083 288.615682 
L 445.443486 288.444747 
L 446.422687 287.524775 
L 447.401889 287.984923 
L 448.38109 287.178267 
L 449.360291 286.940751 
L 450.339493 289.35092 
L 451.318694 288.765078 
L 452.297895 287.290045 
L 453.277097 287.872662 
L 454.256298 287.372743 
L 455.235499 288.426742 
L 456.2147 288.761041 
L 457.193902 291.141784 
L 458.173103 287.493639 
L 459.152304 287.322586 
L 460.131506 291.095143 
L 461.110707 289.521516 
L 462.089908 288.377076 
L 463.06911 288.820987 
L 464.048311 286.641998 
L 465.027512 290.069794 
L 466.006714 289.622309 
L 466.985915 287.913284 
L 467.965116 286.757857 
L 468.944318 290.789665 
L 469.923519 289.948507 
L 470.90272 290.52017 
L 471.881922 290.504145 
L 472.861123 289.305744 
L 473.840324 289.881784 
L 474.819526 287.869769 
L 475.798727 287.172739 
L 476.777928 291.128284 
L 477.75713 290.565532 
L 478.736331 287.297967 
L 479.715532 288.601568 
L 480.694734 288.245754 
L 481.673935 288.703719 
L 482.653136 287.820598 
L 483.632338 290.051755 
L 484.611539 288.655545 
L 485.59074 289.504628 
L 486.569942 290.50223 
L 487.549143 288.884235 
L 488.528344 290.296721 
L 489.507546 289.472136 
L 490.486747 291.67823 
L 492.44515 288.440701 
L 494.403552 289.714016 
L 497.341156 292.2082 
L 498.320358 288.767587 
L 499.299559 288.459689 
L 500.27876 287.853661 
L 501.257962 290.022289 
L 502.237163 291.753819 
L 503.216364 291.396672 
L 504.195566 290.128637 
L 505.174767 291.254403 
L 506.153968 290.414556 
L 507.13317 291.192016 
L 508.112371 291.620929 
L 509.091572 289.960108 
L 510.070774 290.81682 
L 511.049975 288.357737 
L 512.029176 289.091639 
L 513.008378 289.316384 
L 513.987579 289.336331 
L 514.96678 290.73439 
L 515.945982 289.913213 
L 516.925183 290.492665 
L 517.904384 291.377976 
L 519.862787 289.963272 
L 520.841988 291.471839 
L 521.82119 291.564628 
L 522.800391 292.052404 
L 523.779592 289.524804 
L 524.758794 291.407785 
L 525.737995 291.165887 
L 527.696398 291.529361 
L 528.675599 291.022804 
L 529.6548 291.123642 
L 530.634002 292.65942 
L 531.613203 290.827994 
L 532.592404 291.2703 
L 533.571606 290.824167 
L 535.530008 291.664751 
L 536.50921 291.189514 
L 537.488411 290.072703 
L 538.467612 291.606924 
L 539.446814 290.725831 
L 540.426015 290.225675 
L 541.405216 290.128562 
L 542.384418 290.698025 
L 543.363619 290.721169 
L 544.34282 290.013258 
L 546.301223 293.956186 
L 547.280424 291.481474 
L 548.259626 292.116351 
L 549.238827 292.231639 
L 550.218028 290.365163 
L 551.19723 292.399149 
L 552.176431 291.788743 
L 553.155632 290.362298 
L 554.134834 290.661334 
L 555.114035 292.5208 
L 556.093236 288.899191 
L 557.072438 291.617893 
L 558.051639 291.526459 
L 559.03084 292.234768 
L 560.010042 293.595906 
L 560.989243 293.462423 
L 561.968444 292.341548 
L 562.947646 291.868693 
L 563.926847 292.311764 
L 564.906048 292.524937 
L 565.88525 292.985917 
L 566.864451 292.705068 
L 567.843652 290.627555 
L 569.802055 293.376023 
L 570.781256 292.05144 
L 571.760458 290.227881 
L 572.739659 291.983649 
L 573.71886 291.537794 
L 574.698062 291.441261 
L 575.677263 292.103413 
L 576.656464 294.459382 
L 577.635666 292.465707 
L 578.614867 292.614849 
L 579.594068 293.225569 
L 581.552471 288.839332 
L 582.531672 293.575152 
L 583.510874 292.875859 
L 584.490075 293.052527 
L 585.469276 290.901674 
L 586.448478 291.995578 
L 587.427679 290.36007 
L 588.40688 293.538884 
L 589.386082 292.957353 
L 590.365283 290.952892 
L 591.344484 292.883288 
L 592.323686 293.957744 
L 593.302887 292.0309 
L 594.282088 291.430019 
L 595.26129 292.267843 
L 596.240491 292.741116 
L 597.219692 292.458721 
L 598.198894 293.205386 
L 599.178095 291.018448 
L 601.136498 292.03085 
L 602.115699 293.432919 
L 603.0949 292.883372 
L 604.074101 292.653428 
L 605.053303 292.280804 
L 606.032504 294.253157 
L 607.011705 293.199792 
L 607.990907 292.333271 
L 608.970108 294.060253 
L 609.949309 292.099737 
L 610.928511 293.107833 
L 611.907712 292.482873 
L 612.886913 288.764839 
L 613.866115 291.246133 
L 614.845316 291.747297 
L 615.824517 291.117567 
L 616.803719 291.995967 
L 617.78292 294.295467 
L 618.762121 291.70695 
L 619.741323 292.57233 
L 620.720524 291.326173 
L 621.699725 292.10217 
L 622.678927 291.719237 
L 623.658128 295.730031 
L 624.637329 293.031388 
L 625.616531 292.341341 
L 626.595732 291.398983 
L 627.574933 292.614357 
L 628.554135 293.223599 
L 629.533336 293.525721 
L 630.512537 294.040956 
L 631.491739 292.189607 
L 632.47094 294.680828 
L 633.450141 295.648253 
L 635.408544 292.314113 
L 636.387745 294.137401 
L 637.366947 292.940308 
L 638.346148 291.315828 
L 639.325349 294.768002 
L 640.304551 293.018684 
L 641.283752 293.100087 
L 642.262953 294.681784 
L 643.242155 295.513657 
L 644.221356 293.875356 
L 645.200557 292.473304 
L 646.179759 292.072354 
L 647.15896 294.470125 
L 648.138161 291.550276 
L 649.117363 292.513529 
L 650.096564 295.512516 
L 651.075765 291.068741 
L 652.054967 293.624221 
L 653.034168 292.670106 
L 654.013369 293.229649 
L 654.992571 293.456445 
L 656.950973 294.990636 
L 657.930175 294.009076 
L 659.888577 292.95588 
L 660.867779 292.76834 
L 662.826181 295.169829 
L 663.805383 295.763042 
L 664.784584 292.443573 
L 665.763785 293.091335 
L 666.742987 293.415402 
L 667.722188 294.934231 
L 668.701389 293.888583 
L 669.680591 294.011224 
L 670.659792 292.205666 
L 671.638993 295.561703 
L 672.618195 294.871009 
L 673.597396 296.427273 
L 674.576597 295.802676 
L 675.555799 293.903986 
L 676.535 290.955072 
L 676.535 290.955072 
" clip-path="url(#pbaa7d22c08)" style="fill: none; stroke: #1f77b4; stroke-width: 1.5; stroke-linecap: square"/>
   </g>
   <g id="line2d_16">
    <path d="M 88.035 63.633897 
L 89.014201 91.682383 
L 90.972604 137.769788 
L 92.931007 158.45917 
L 94.889409 177.294938 
L 95.868611 183.637297 
L 96.847812 189.079017 
L 97.827013 195.949186 
L 98.806215 195.716892 
L 99.785416 204.493703 
L 100.764617 206.25968 
L 101.743819 211.635294 
L 102.72302 210.192646 
L 103.702221 215.933935 
L 104.681423 214.736213 
L 105.660624 223.356569 
L 106.639825 225.33337 
L 107.619027 225.445738 
L 108.598228 227.97786 
L 109.577429 231.20798 
L 110.556631 232.764659 
L 111.535832 234.655523 
L 112.515033 233.520622 
L 113.494235 237.720176 
L 114.473436 237.248081 
L 115.452637 237.939124 
L 116.431839 240.359807 
L 117.41104 240.566834 
L 118.390241 239.298421 
L 119.369443 242.723492 
L 120.348644 244.170778 
L 121.327845 240.382679 
L 122.307047 246.388988 
L 123.286248 246.476547 
L 124.265449 245.767639 
L 125.244651 247.205829 
L 126.223852 249.093122 
L 127.203053 247.120553 
L 128.182255 248.465246 
L 129.161456 246.733114 
L 130.140657 250.708605 
L 131.119859 252.036816 
L 132.09906 250.763743 
L 133.078261 251.428385 
L 134.057463 254.452975 
L 135.036664 254.514282 
L 136.015865 253.728426 
L 136.995067 255.04586 
L 137.974268 254.956042 
L 138.953469 255.031882 
L 139.932671 256.286382 
L 140.911872 255.821094 
L 141.891073 256.91294 
L 143.849476 255.998233 
L 144.828677 255.33228 
L 145.807879 256.609437 
L 146.78708 256.60623 
L 147.766281 255.985275 
L 148.745483 258.135269 
L 149.724684 258.761016 
L 150.703885 256.434014 
L 151.683087 255.997381 
L 152.662288 257.921512 
L 153.641489 256.795785 
L 154.620691 258.893145 
L 155.599892 260.244645 
L 156.579093 259.228837 
L 157.558295 259.799071 
L 158.537496 256.739246 
L 159.516697 259.289 
L 160.495899 259.249175 
L 161.4751 260.988346 
L 162.454301 258.756724 
L 163.433502 259.504074 
L 164.412704 260.705825 
L 165.391905 261.228981 
L 166.371106 263.589205 
L 167.350308 261.021668 
L 168.329509 260.194097 
L 169.30871 261.667223 
L 170.287912 259.631982 
L 171.267113 261.805968 
L 173.225516 262.31468 
L 174.204717 262.363285 
L 175.183918 262.226358 
L 176.16312 262.5556 
L 177.142321 262.12643 
L 178.121522 261.188959 
L 180.079925 263.598147 
L 181.059126 261.995989 
L 183.017529 263.181747 
L 183.99673 261.89494 
L 184.975932 264.172097 
L 185.955133 265.233092 
L 186.934334 262.482246 
L 187.913536 264.491755 
L 188.892737 264.963658 
L 189.871938 265.746969 
L 190.85114 261.95589 
L 191.830341 264.56628 
L 192.809542 262.753307 
L 193.788744 262.234185 
L 194.767945 264.19347 
L 195.747146 264.146683 
L 196.726348 265.818738 
L 197.705549 264.941391 
L 198.68475 265.897168 
L 199.663952 264.730252 
L 201.622354 262.8666 
L 202.601556 264.250095 
L 203.580757 264.03973 
L 204.559958 265.327336 
L 205.53916 263.834557 
L 206.518361 263.299114 
L 207.497562 266.196272 
L 208.476764 266.907201 
L 209.455965 266.236744 
L 210.435166 265.259743 
L 211.414368 265.773683 
L 212.393569 262.589136 
L 213.37277 264.533531 
L 214.351972 266.064326 
L 216.310374 263.701869 
L 217.289576 265.609756 
L 218.268777 263.80931 
L 219.247978 266.567998 
L 220.22718 267.1695 
L 221.206381 265.54776 
L 222.185582 266.844343 
L 223.164784 266.659744 
L 224.143985 265.570373 
L 225.123186 267.208525 
L 226.102388 266.426767 
L 227.081589 266.654979 
L 228.06079 264.264696 
L 229.039992 264.263737 
L 230.019193 264.933389 
L 230.998394 265.214631 
L 231.977596 264.153115 
L 232.956797 266.38381 
L 234.9152 265.973411 
L 235.894401 265.522889 
L 236.873602 267.0438 
L 237.852804 265.617374 
L 238.832005 262.73803 
L 239.811206 262.221339 
L 240.790408 265.694296 
L 241.769609 266.413921 
L 242.74881 266.489323 
L 243.728012 267.785331 
L 244.707213 267.347214 
L 245.686414 267.217619 
L 246.665616 268.610109 
L 247.644817 267.402528 
L 248.624018 266.001835 
L 249.60322 264.11273 
L 250.582421 264.722339 
L 251.561622 266.335187 
L 252.540824 265.615643 
L 253.520025 266.446718 
L 254.499226 265.216682 
L 255.478428 263.517892 
L 256.457629 263.387832 
L 257.43683 266.73126 
L 258.416032 265.626059 
L 259.395233 264.748554 
L 261.353636 267.087639 
L 262.332837 268.0143 
L 263.312038 267.764993 
L 264.29124 264.318833 
L 265.270441 265.441928 
L 266.249642 265.793366 
L 267.228844 265.863415 
L 268.208045 265.026787 
L 269.187246 264.63117 
L 270.166448 261.572004 
L 272.12485 266.521953 
L 273.104052 266.413623 
L 274.083253 265.484447 
L 275.062454 264.887764 
L 276.041656 265.012984 
L 277.020857 266.972097 
L 278.000058 266.748195 
L 278.97926 264.772264 
L 279.958461 266.602982 
L 280.937662 266.011998 
L 281.916864 265.002848 
L 282.896065 264.705663 
L 283.875266 265.590738 
L 284.854468 266.0662 
L 285.833669 266.903574 
L 286.81287 266.642216 
L 287.792072 263.235559 
L 288.771273 264.171298 
L 289.750474 264.913912 
L 290.729676 267.561158 
L 291.708877 265.01761 
L 292.688078 262.95719 
L 293.66728 266.368425 
L 294.646481 266.3924 
L 295.625682 267.207908 
L 296.604884 265.402446 
L 298.563286 268.779192 
L 299.542488 266.554729 
L 300.521689 268.646146 
L 301.50089 266.258471 
L 302.480092 263.475636 
L 303.459293 266.11305 
L 304.438494 265.157446 
L 305.417696 267.192625 
L 306.396897 267.327972 
L 307.376098 265.925163 
L 308.3553 265.063598 
L 309.334501 265.869635 
L 310.313702 265.2426 
L 311.292903 265.689092 
L 312.272105 266.570719 
L 313.251306 264.567988 
L 314.230507 265.866914 
L 315.209709 264.703008 
L 316.18891 266.000044 
L 317.168111 264.983126 
L 318.147313 263.251743 
L 319.126514 265.263263 
L 320.105715 265.476745 
L 321.084917 264.882772 
L 322.064118 267.555421 
L 323.043319 267.696848 
L 324.022521 265.847368 
L 325.001722 264.907614 
L 325.980923 267.270542 
L 326.960125 267.826065 
L 327.939326 265.30265 
L 328.918527 265.814041 
L 329.897729 265.945266 
L 330.87693 265.856903 
L 331.856131 267.739519 
L 332.835333 263.95311 
L 333.814534 265.074956 
L 334.793735 267.554607 
L 335.772937 267.385587 
L 336.752138 265.777462 
L 337.731339 265.775871 
L 338.710541 266.63796 
L 339.689742 264.787968 
L 340.668943 264.713651 
L 341.648145 267.094223 
L 342.627346 263.76742 
L 343.606547 268.19745 
L 344.585749 265.153863 
L 345.56495 264.536094 
L 346.544151 268.111683 
L 347.523353 265.611655 
L 348.502554 265.86419 
L 349.481755 265.617824 
L 350.460957 267.540805 
L 351.440158 266.160552 
L 352.419359 268.980779 
L 353.398561 265.425592 
L 354.377762 267.88351 
L 355.356963 267.955398 
L 356.336165 267.093311 
L 357.315366 262.708231 
L 358.294567 267.196267 
L 359.273769 268.879469 
L 360.25297 265.932245 
L 361.232171 267.615283 
L 362.211373 265.289327 
L 363.190574 264.948428 
L 364.169775 266.144157 
L 365.148977 267.715488 
L 366.128178 265.532098 
L 367.107379 266.851157 
L 368.086581 265.613577 
L 369.065782 266.445958 
L 370.044983 264.122726 
L 371.024185 267.72225 
L 372.003386 264.814806 
L 372.982587 267.229621 
L 373.961789 266.620662 
L 374.94099 266.354182 
L 375.920191 265.619866 
L 376.899393 264.520969 
L 377.878594 266.301824 
L 378.857795 266.055992 
L 379.836997 266.549677 
L 380.816198 265.359239 
L 381.795399 266.250907 
L 382.774601 265.387404 
L 383.753802 266.720295 
L 384.733003 265.796895 
L 385.712205 265.568364 
L 386.691406 264.609768 
L 388.649809 266.456923 
L 389.62901 263.814046 
L 390.608211 265.198233 
L 391.587413 263.35804 
L 392.566614 265.39208 
L 393.545815 263.647169 
L 394.525017 261.327072 
L 395.504218 266.235155 
L 396.483419 266.254346 
L 397.462621 267.186101 
L 398.441822 267.034927 
L 399.421023 268.016768 
L 400.400225 265.526516 
L 401.379426 268.326238 
L 402.358627 266.503111 
L 404.31703 265.18784 
L 405.296231 266.811508 
L 406.275433 265.178214 
L 407.254634 266.285909 
L 408.233835 265.389407 
L 409.213037 263.338709 
L 410.192238 263.066986 
L 411.171439 264.742927 
L 412.150641 264.975818 
L 413.129842 265.629054 
L 414.109043 265.321086 
L 415.088245 263.328763 
L 416.067446 263.795782 
L 417.046647 266.091647 
L 418.025849 263.193696 
L 419.00505 265.810098 
L 419.984251 267.842728 
L 420.963453 265.244087 
L 421.942654 267.177833 
L 422.921855 268.275326 
L 423.901057 266.45033 
L 424.880258 267.443664 
L 425.859459 266.739954 
L 426.838661 264.859966 
L 427.817862 267.635988 
L 428.797063 266.878562 
L 429.776265 265.874383 
L 430.755466 267.153319 
L 431.734667 265.852646 
L 432.713869 266.25243 
L 433.69307 266.213937 
L 434.672271 267.976571 
L 435.651473 268.263992 
L 436.630674 266.344617 
L 437.609875 262.542874 
L 438.589077 265.261531 
L 439.568278 265.846119 
L 440.547479 265.640174 
L 441.526681 266.212468 
L 442.505882 267.469882 
L 443.485083 264.86635 
L 444.464285 266.627636 
L 445.443486 265.341964 
L 446.422687 265.555781 
L 447.401889 264.008132 
L 448.38109 267.306215 
L 449.360291 267.158657 
L 450.339493 266.370401 
L 451.318694 267.141782 
L 452.297895 266.622641 
L 453.277097 265.768115 
L 454.256298 266.251023 
L 456.2147 268.352129 
L 457.193902 265.391583 
L 458.173103 264.584261 
L 459.152304 266.896495 
L 460.131506 267.377513 
L 461.110707 265.462311 
L 462.089908 268.125425 
L 464.048311 264.948619 
L 465.027512 266.265201 
L 466.006714 264.80816 
L 466.985915 265.836251 
L 467.965116 268.026833 
L 469.923519 267.092083 
L 470.90272 264.673167 
L 471.881922 265.229149 
L 472.861123 265.936862 
L 473.840324 268.644491 
L 474.819526 266.16969 
L 475.798727 266.154913 
L 476.777928 268.017128 
L 477.75713 267.226202 
L 478.736331 266.923984 
L 479.715532 267.594071 
L 480.694734 269.106974 
L 481.673935 269.067093 
L 482.653136 268.151343 
L 483.632338 266.857547 
L 484.611539 265.772994 
L 485.59074 265.980438 
L 486.569942 265.299994 
L 488.528344 268.643037 
L 489.507546 267.231248 
L 490.486747 267.512973 
L 491.465948 267.609322 
L 492.44515 267.575926 
L 493.424351 267.714042 
L 494.403552 268.205513 
L 495.382754 268.398636 
L 496.361955 265.994327 
L 497.341156 264.636621 
L 498.320358 267.792779 
L 499.299559 266.799783 
L 500.27876 267.261011 
L 501.257962 268.050023 
L 502.237163 267.599117 
L 503.216364 265.418305 
L 504.195566 267.657298 
L 505.174767 263.063368 
L 506.153968 265.550952 
L 507.13317 266.19714 
L 508.112371 262.589375 
L 509.091572 264.768821 
L 510.070774 265.309051 
L 511.049975 266.419176 
L 512.029176 264.095676 
L 513.008378 265.206706 
L 513.987579 267.81327 
L 514.96678 266.971179 
L 515.945982 266.433911 
L 516.925183 265.259594 
L 517.904384 263.326909 
L 518.883586 268.664064 
L 519.862787 266.922314 
L 520.841988 264.664831 
L 521.82119 267.357553 
L 522.800391 266.705607 
L 523.779592 267.134211 
L 524.758794 265.881104 
L 525.737995 265.640329 
L 526.717196 266.639579 
L 527.696398 265.058758 
L 528.675599 266.686321 
L 529.6548 266.775981 
L 530.634002 264.307707 
L 531.613203 263.786337 
L 532.592404 265.350336 
L 533.571606 265.33598 
L 534.550807 265.137039 
L 535.530008 264.818106 
L 536.50921 263.210336 
L 537.488411 266.427819 
L 538.467612 266.769952 
L 539.446814 266.586697 
L 540.426015 265.302986 
L 541.405216 264.825172 
L 542.384418 266.118501 
L 543.363619 266.741027 
L 544.34282 266.179901 
L 545.322022 264.81683 
L 546.301223 263.22136 
L 547.280424 264.617588 
L 548.259626 265.00717 
L 549.238827 264.425923 
L 550.218028 264.855638 
L 551.19723 263.298318 
L 553.155632 265.043045 
L 554.134834 263.353322 
L 555.114035 263.923046 
L 556.093236 265.471461 
L 557.072438 267.90406 
L 558.051639 264.577084 
L 559.03084 264.44844 
L 560.010042 263.554313 
L 560.989243 265.063339 
L 561.968444 262.650304 
L 562.947646 263.406341 
L 563.926847 267.291265 
L 564.906048 263.017207 
L 565.88525 266.290928 
L 566.864451 267.735445 
L 567.843652 267.171759 
L 568.822854 268.809831 
L 569.802055 266.159121 
L 570.781256 265.526695 
L 571.760458 267.832053 
L 572.739659 266.046866 
L 573.71886 266.41224 
L 574.698062 264.881318 
L 575.677263 265.183906 
L 576.656464 264.407528 
L 577.635666 264.797028 
L 578.614867 263.914186 
L 579.594068 264.481353 
L 580.57327 264.279533 
L 581.552471 262.970638 
L 582.531672 263.582872 
L 584.490075 265.650987 
L 585.469276 268.152076 
L 586.448478 265.887216 
L 587.427679 266.531952 
L 588.40688 265.654305 
L 589.386082 265.044261 
L 590.365283 266.156791 
L 591.344484 267.491416 
L 592.323686 265.170867 
L 593.302887 266.975676 
L 594.282088 265.711374 
L 595.26129 266.888802 
L 596.240491 266.390537 
L 597.219692 266.860497 
L 598.198894 261.69946 
L 599.178095 263.036338 
L 600.157296 264.067481 
L 601.136498 263.538979 
L 602.115699 266.735221 
L 603.0949 268.660338 
L 604.074101 265.270857 
L 605.053303 264.831202 
L 606.032504 265.475357 
L 607.011705 266.276571 
L 607.990907 265.057062 
L 608.970108 264.796507 
L 609.949309 266.335286 
L 610.928511 262.413565 
L 611.907712 265.611789 
L 612.886913 264.435928 
L 613.866115 261.702005 
L 614.845316 262.459505 
L 615.824517 263.850637 
L 616.803719 263.101526 
L 617.78292 265.194904 
L 618.762121 263.163072 
L 619.741323 264.532691 
L 620.720524 265.129087 
L 621.699725 259.312253 
L 622.678927 262.895429 
L 623.658128 262.815849 
L 624.637329 264.19648 
L 625.616531 263.401125 
L 626.595732 262.355876 
L 627.574933 263.24704 
L 628.554135 264.393925 
L 630.512537 263.935865 
L 631.491739 265.4487 
L 632.47094 264.114414 
L 633.450141 264.767531 
L 634.429343 264.456916 
L 635.408544 261.62809 
L 636.387745 266.110984 
L 637.366947 261.271958 
L 638.346148 267.583002 
L 639.325349 263.277628 
L 640.304551 264.854986 
L 641.283752 266.6832 
L 642.262953 263.014709 
L 643.242155 264.751469 
L 644.221356 263.189428 
L 645.200557 263.093154 
L 646.179759 261.745018 
L 647.15896 264.36227 
L 648.138161 263.390038 
L 649.117363 263.739121 
L 650.096564 264.306208 
L 651.075765 265.78381 
L 652.054967 264.621147 
L 653.034168 266.41455 
L 654.013369 267.308248 
L 654.992571 265.567449 
L 656.950973 267.321361 
L 657.930175 267.289325 
L 658.909376 265.557247 
L 659.888577 264.801102 
L 660.867779 265.378785 
L 661.84698 264.231691 
L 662.826181 267.176468 
L 663.805383 264.838286 
L 664.784584 264.994631 
L 665.763785 265.51254 
L 666.742987 263.204023 
L 667.722188 264.180392 
L 668.701389 261.922491 
L 669.680591 265.276535 
L 670.659792 263.354857 
L 672.618195 265.542905 
L 673.597396 267.018675 
L 674.576597 266.252087 
L 675.555799 265.160411 
L 676.535 265.050937 
L 676.535 265.050937 
" clip-path="url(#pbaa7d22c08)" style="fill: none; stroke: #ff7f0e; stroke-width: 1.5; stroke-linecap: square"/>
   </g>
   <g id="patch_3">
    <path d="M 58.61 309.04 
L 58.61 31.56 
" style="fill: none; stroke: #000000; stroke-width: 0.8; stroke-linejoin: miter; stroke-linecap: square"/>
   </g>
   <g id="patch_4">
    <path d="M 705.96 309.04 
L 705.96 31.56 
" style="fill: none; stroke: #000000; stroke-width: 0.8; stroke-linejoin: miter; stroke-linecap: square"/>
   </g>
   <g id="patch_5">
    <path d="M 58.61 309.04 
L 705.96 309.04 
" style="fill: none; stroke: #000000; stroke-width: 0.8; stroke-linejoin: miter; stroke-linecap: square"/>
   </g>
   <g id="patch_6">
    <path d="M 58.61 31.56 
L 705.96 31.56 
" style="fill: none; stroke: #000000; stroke-width: 0.8; stroke-linejoin: miter; stroke-linecap: square"/>
   </g>
   <g id="text_17">
    <text style="font: 16px 'DejaVu Sans', 'Bitstream Vera Sans', 'Computer Modern Sans Serif', 'Lucida Grande', 'Verdana', 'Geneva', 'Lucid', 'Arial', 'Helvetica', 'Avant Garde', sans-serif; text-anchor: middle" x="382.285" y="25.56" transform="rotate(-0 382.285 25.56)">Training/Validation Loss Comparison</text>
   </g>
   <g id="legend_1">
    <g id="patch_7">
     <path d="M 558.418125 80.123125 
L 696.86 80.123125 
Q 699.46 80.123125 699.46 77.523125 
L 699.46 40.66 
Q 699.46 38.06 696.86 38.06 
L 558.418125 38.06 
Q 555.818125 38.06 555.818125 40.66 
L 555.818125 77.523125 
Q 555.818125 80.123125 558.418125 80.123125 
z
" style="fill: #ffffff; opacity: 0.8; stroke: #cccccc; stroke-linejoin: miter"/>
    </g>
    <g id="line2d_17">
     <path d="M 561.018125 48.587969 
L 574.018125 48.587969 
L 587.018125 48.587969 
" style="fill: none; stroke: #1f77b4; stroke-width: 1.5; stroke-linecap: square"/>
    </g>
    <g id="text_18">
     <text style="font: 13px 'DejaVu Sans', 'Bitstream Vera Sans', 'Computer Modern Sans Serif', 'Lucida Grande', 'Verdana', 'Geneva', 'Lucid', 'Arial', 'Helvetica', 'Avant Garde', sans-serif; text-anchor: start" x="597.418125" y="53.137969" transform="rotate(-0 597.418125 53.137969)">Training Loss</text>
    </g>
    <g id="line2d_18">
     <path d="M 561.018125 67.669531 
L 574.018125 67.669531 
L 587.018125 67.669531 
" style="fill: none; stroke: #ff7f0e; stroke-width: 1.5; stroke-linecap: square"/>
    </g>
    <g id="text_19">
     <text style="font: 13px 'DejaVu Sans', 'Bitstream Vera Sans', 'Computer Modern Sans Serif', 'Lucida Grande', 'Verdana', 'Geneva', 'Lucid', 'Arial', 'Helvetica', 'Avant Garde', sans-serif; text-anchor: start" x="597.418125" y="72.219531" transform="rotate(-0 597.418125 72.219531)">Validation Loss</text>
    </g>
   </g>
  </g>
 </g>
 <defs>
  <clipPath id="pbaa7d22c08">
   <rect x="58.61" y="31.56" width="647.35" height="277.48"/>
  </clipPath>
 </defs>
</svg>
