<?xml version="1.0" encoding="UTF-8" standalone="no"?>
<svg
   width="687.56927pt"
   height="328.23499pt"
   viewBox="0 0 687.56927 328.23499"
   version="1.1"
   id="svg24"
   sodipodi:docname="cnn_acc_comparison.svg"
   inkscape:version="1.3 (0e150ed6c4, 2023-07-21)"
   xmlns:inkscape="http://www.inkscape.org/namespaces/inkscape"
   xmlns:sodipodi="http://sodipodi.sourceforge.net/DTD/sodipodi-0.dtd"
   xmlns:xlink="http://www.w3.org/1999/xlink"
   xmlns="http://www.w3.org/2000/svg"
   xmlns:svg="http://www.w3.org/2000/svg"
   xmlns:rdf="http://www.w3.org/1999/02/22-rdf-syntax-ns#"
   xmlns:cc="http://creativecommons.org/ns#"
   xmlns:dc="http://purl.org/dc/elements/1.1/">
  <sodipodi:namedview
     id="namedview24"
     pagecolor="#ffffff"
     bordercolor="#000000"
     borderopacity="0.25"
     inkscape:showpageshadow="2"
     inkscape:pageopacity="0.0"
     inkscape:pagecheckerboard="0"
     inkscape:deskcolor="#d1d1d1"
     inkscape:document-units="pt"
     inkscape:zoom="1.0302083"
     inkscape:cx="458.15976"
     inkscape:cy="218.88777"
     inkscape:window-width="1920"
     inkscape:window-height="1080"
     inkscape:window-x="0"
     inkscape:window-y="0"
     inkscape:window-maximized="1"
     inkscape:current-layer="svg24" />
  <metadata
     id="metadata1">
    <rdf:RDF>
      <cc:Work>
        <dc:type
           rdf:resource="http://purl.org/dc/dcmitype/StillImage" />
        <dc:date>2023-10-30T22:14:59.381444</dc:date>
        <dc:format>image/svg+xml</dc:format>
        <dc:creator>
          <cc:Agent>
            <dc:title>Matplotlib v3.7.3, https://matplotlib.org/</dc:title>
          </cc:Agent>
        </dc:creator>
      </cc:Work>
    </rdf:RDF>
  </metadata>
  <defs
     id="defs1">
    <style
       type="text/css"
       id="style1">*{stroke-linejoin: round; stroke-linecap: butt}</style>
  </defs>
  <g
     id="figure_1"
     transform="translate(-16.630729,-15.8)">
    <g
       id="axes_1">
      <g
         id="patch_2">
        <path
           d="M 65.54,304 H 703.8 V 16.2 H 65.54 Z"
           style="fill:#ffffff"
           id="path2" />
      </g>
      <g
         id="matplotlib.axis_1">
        <g
           id="xtick_1">
          <g
             id="line2d_1">
            <defs
               id="defs2">
              <path
                 id="m01ce0f816f"
                 d="M 0,0 V 3.5"
                 style="stroke:#000000;stroke-width:0.8" />
            </defs>
            <g
               id="g2">
              <use
                 xlink:href="#m01ce0f816f"
                 x="93.521202"
                 y="304"
                 style="stroke:#000000;stroke-width:0.8"
                 id="use2" />
            </g>
          </g>
          <g
             id="text_1">
            <text
               style="font-style:normal;font-variant:normal;font-weight:normal;font-stretch:normal;font-size:15px;line-height:normal;font-family:'DejaVu Sans', 'Bitstream Vera Sans', 'Computer Modern Sans Serif', 'Lucida Grande', Verdana, Geneva, Lucid, Arial, Helvetica, 'Avant Garde', sans-serif;text-anchor:middle"
               x="93.521202"
               y="322.39764"
               id="text2">0</text>
          </g>
        </g>
        <g
           id="xtick_2">
          <g
             id="line2d_2">
            <g
               id="g3">
              <use
                 xlink:href="#m01ce0f816f"
                 x="196.58272"
                 y="304"
                 style="stroke:#000000;stroke-width:0.8"
                 id="use3" />
            </g>
          </g>
          <g
             id="text_2">
            <text
               style="font-style:normal;font-variant:normal;font-weight:normal;font-stretch:normal;font-size:15px;line-height:normal;font-family:'DejaVu Sans', 'Bitstream Vera Sans', 'Computer Modern Sans Serif', 'Lucida Grande', Verdana, Geneva, Lucid, Arial, Helvetica, 'Avant Garde', sans-serif;text-anchor:middle"
               x="196.58272"
               y="322.39764"
               id="text3">100</text>
          </g>
        </g>
        <g
           id="xtick_3">
          <g
             id="line2d_3">
            <g
               id="g4">
              <use
                 xlink:href="#m01ce0f816f"
                 x="299.64426"
                 y="304"
                 style="stroke:#000000;stroke-width:0.8"
                 id="use4" />
            </g>
          </g>
          <g
             id="text_3">
            <text
               style="font-style:normal;font-variant:normal;font-weight:normal;font-stretch:normal;font-size:15px;line-height:normal;font-family:'DejaVu Sans', 'Bitstream Vera Sans', 'Computer Modern Sans Serif', 'Lucida Grande', Verdana, Geneva, Lucid, Arial, Helvetica, 'Avant Garde', sans-serif;text-anchor:middle"
               x="299.64426"
               y="322.39764"
               id="text4">200</text>
          </g>
        </g>
        <g
           id="xtick_4">
          <g
             id="line2d_4">
            <g
               id="g5">
              <use
                 xlink:href="#m01ce0f816f"
                 x="402.70578"
                 y="304"
                 style="stroke:#000000;stroke-width:0.8"
                 id="use5" />
            </g>
          </g>
          <g
             id="text_4">
            <text
               style="font-style:normal;font-variant:normal;font-weight:normal;font-stretch:normal;font-size:15px;line-height:normal;font-family:'DejaVu Sans', 'Bitstream Vera Sans', 'Computer Modern Sans Serif', 'Lucida Grande', Verdana, Geneva, Lucid, Arial, Helvetica, 'Avant Garde', sans-serif;text-anchor:middle"
               x="402.70578"
               y="322.39764"
               id="text5">300</text>
          </g>
        </g>
        <g
           id="xtick_5">
          <g
             id="line2d_5">
            <g
               id="g6">
              <use
                 xlink:href="#m01ce0f816f"
                 x="505.76727"
                 y="304"
                 style="stroke:#000000;stroke-width:0.8"
                 id="use6" />
            </g>
          </g>
          <g
             id="text_5">
            <text
               style="font-style:normal;font-variant:normal;font-weight:normal;font-stretch:normal;font-size:15px;line-height:normal;font-family:'DejaVu Sans', 'Bitstream Vera Sans', 'Computer Modern Sans Serif', 'Lucida Grande', Verdana, Geneva, Lucid, Arial, Helvetica, 'Avant Garde', sans-serif;text-anchor:middle"
               x="505.76727"
               y="322.39764"
               id="text6">400</text>
          </g>
        </g>
        <g
           id="xtick_6">
          <g
             id="line2d_6">
            <g
               id="g7">
              <use
                 xlink:href="#m01ce0f816f"
                 x="608.8288"
                 y="304"
                 style="stroke:#000000;stroke-width:0.8"
                 id="use7" />
            </g>
          </g>
          <g
             id="text_6">
            <text
               style="font-style:normal;font-variant:normal;font-weight:normal;font-stretch:normal;font-size:15px;line-height:normal;font-family:'DejaVu Sans', 'Bitstream Vera Sans', 'Computer Modern Sans Serif', 'Lucida Grande', Verdana, Geneva, Lucid, Arial, Helvetica, 'Avant Garde', sans-serif;text-anchor:middle"
               x="608.8288"
               y="322.39764"
               id="text7">500</text>
          </g>
        </g>
        <g
           id="text_7">
          <text
             style="font-style:normal;font-variant:normal;font-weight:normal;font-stretch:normal;font-size:15px;line-height:normal;font-family:'DejaVu Sans', 'Bitstream Vera Sans', 'Computer Modern Sans Serif', 'Lucida Grande', Verdana, Geneva, Lucid, Arial, Helvetica, 'Avant Garde', sans-serif;text-anchor:middle"
             x="384.67001"
             y="340.91486"
             id="text8">Epoch</text>
        </g>
      </g>
      <g
         id="matplotlib.axis_2">
        <g
           id="ytick_1">
          <g
             id="line2d_7">
            <defs
               id="defs8">
              <path
                 id="me6346cd23d"
                 d="M 0,0 H -3.5"
                 style="stroke:#000000;stroke-width:0.8" />
            </defs>
            <g
               id="g8">
              <use
                 xlink:href="#me6346cd23d"
                 x="65.540001"
                 y="302.41205"
                 style="stroke:#000000;stroke-width:0.8"
                 id="use8" />
            </g>
          </g>
          <g
             id="text_8">
            <text
               style="font-style:normal;font-variant:normal;font-weight:normal;font-stretch:normal;font-size:15px;line-height:normal;font-family:'DejaVu Sans', 'Bitstream Vera Sans', 'Computer Modern Sans Serif', 'Lucida Grande', Verdana, Geneva, Lucid, Arial, Helvetica, 'Avant Garde', sans-serif;text-anchor:end"
               x="58.540001"
               y="308.11087"
               id="text9">0.3</text>
          </g>
        </g>
        <g
           id="ytick_2">
          <g
             id="line2d_8">
            <g
               id="g9">
              <use
                 xlink:href="#me6346cd23d"
                 x="65.540001"
                 y="260.62079"
                 style="stroke:#000000;stroke-width:0.8"
                 id="use9" />
            </g>
          </g>
          <g
             id="text_9">
            <text
               style="font-style:normal;font-variant:normal;font-weight:normal;font-stretch:normal;font-size:15px;line-height:normal;font-family:'DejaVu Sans', 'Bitstream Vera Sans', 'Computer Modern Sans Serif', 'Lucida Grande', Verdana, Geneva, Lucid, Arial, Helvetica, 'Avant Garde', sans-serif;text-anchor:end"
               x="58.540001"
               y="266.31961"
               id="text10">0.4</text>
          </g>
        </g>
        <g
           id="ytick_3">
          <g
             id="line2d_9">
            <g
               id="g10">
              <use
                 xlink:href="#me6346cd23d"
                 x="65.540001"
                 y="218.82956"
                 style="stroke:#000000;stroke-width:0.8"
                 id="use10" />
            </g>
          </g>
          <g
             id="text_10">
            <text
               style="font-style:normal;font-variant:normal;font-weight:normal;font-stretch:normal;font-size:15px;line-height:normal;font-family:'DejaVu Sans', 'Bitstream Vera Sans', 'Computer Modern Sans Serif', 'Lucida Grande', Verdana, Geneva, Lucid, Arial, Helvetica, 'Avant Garde', sans-serif;text-anchor:end"
               x="58.540001"
               y="224.52838"
               id="text11">0.5</text>
          </g>
        </g>
        <g
           id="ytick_4">
          <g
             id="line2d_10">
            <g
               id="g11">
              <use
                 xlink:href="#me6346cd23d"
                 x="65.540001"
                 y="177.03831"
                 style="stroke:#000000;stroke-width:0.8"
                 id="use11" />
            </g>
          </g>
          <g
             id="text_11">
            <text
               style="font-style:normal;font-variant:normal;font-weight:normal;font-stretch:normal;font-size:15px;line-height:normal;font-family:'DejaVu Sans', 'Bitstream Vera Sans', 'Computer Modern Sans Serif', 'Lucida Grande', Verdana, Geneva, Lucid, Arial, Helvetica, 'Avant Garde', sans-serif;text-anchor:end"
               x="58.540001"
               y="182.73714"
               id="text12">0.6</text>
          </g>
        </g>
        <g
           id="ytick_5">
          <g
             id="line2d_11">
            <g
               id="g12">
              <use
                 xlink:href="#me6346cd23d"
                 x="65.540001"
                 y="135.24707"
                 style="stroke:#000000;stroke-width:0.8"
                 id="use12" />
            </g>
          </g>
          <g
             id="text_12">
            <text
               style="font-style:normal;font-variant:normal;font-weight:normal;font-stretch:normal;font-size:15px;line-height:normal;font-family:'DejaVu Sans', 'Bitstream Vera Sans', 'Computer Modern Sans Serif', 'Lucida Grande', Verdana, Geneva, Lucid, Arial, Helvetica, 'Avant Garde', sans-serif;text-anchor:end"
               x="58.540001"
               y="140.94589"
               id="text13">0.7</text>
          </g>
        </g>
        <g
           id="ytick_6">
          <g
             id="line2d_12">
            <g
               id="g13">
              <use
                 xlink:href="#me6346cd23d"
                 x="65.540001"
                 y="93.455826"
                 style="stroke:#000000;stroke-width:0.8"
                 id="use13" />
            </g>
          </g>
          <g
             id="text_13">
            <text
               style="font-style:normal;font-variant:normal;font-weight:normal;font-stretch:normal;font-size:15px;line-height:normal;font-family:'DejaVu Sans', 'Bitstream Vera Sans', 'Computer Modern Sans Serif', 'Lucida Grande', Verdana, Geneva, Lucid, Arial, Helvetica, 'Avant Garde', sans-serif;text-anchor:end"
               x="58.540001"
               y="99.154655"
               id="text14">0.8</text>
          </g>
        </g>
        <g
           id="ytick_7">
          <g
             id="line2d_13">
            <g
               id="g14">
              <use
                 xlink:href="#me6346cd23d"
                 x="65.540001"
                 y="51.664581"
                 style="stroke:#000000;stroke-width:0.8"
                 id="use14" />
            </g>
          </g>
          <g
             id="text_14">
            <text
               style="font-style:normal;font-variant:normal;font-weight:normal;font-stretch:normal;font-size:15px;line-height:normal;font-family:'DejaVu Sans', 'Bitstream Vera Sans', 'Computer Modern Sans Serif', 'Lucida Grande', Verdana, Geneva, Lucid, Arial, Helvetica, 'Avant Garde', sans-serif;text-anchor:end"
               x="58.540001"
               y="57.363411"
               id="text15">0.9</text>
          </g>
        </g>
        <g
           id="text_15">
          <text
             style="font-style:normal;font-variant:normal;font-weight:normal;font-stretch:normal;font-size:15px;line-height:normal;font-family:'DejaVu Sans', 'Bitstream Vera Sans', 'Computer Modern Sans Serif', 'Lucida Grande', Verdana, Geneva, Lucid, Arial, Helvetica, 'Avant Garde', sans-serif;text-anchor:middle"
             x="27.565781"
             y="160.10001"
             transform="rotate(-90,27.565781,160.1)"
             id="text16">Accuracy</text>
        </g>
      </g>
      <g
         id="line2d_14">
        <path
           d="m 94.551818,290.91818 1.030615,-41.33754 1.030616,-32.5785 1.030615,-20.54276 1.030615,-17.51804 1.030615,-9.13709 1.030616,-10.33439 1.03062,-7.18365 1.03061,-5.48227 2.06123,-12.85498 1.03062,-3.08771 1.03061,-0.37807 1.03062,-7.12066 1.03061,0.063 1.03062,-3.71785 1.03061,-2.52059 2.06123,-7.75078 1.03062,-0.63016 1.03061,-3.65485 1.03062,-2.26851 1.03061,0.8822 1.03062,-5.35622 1.03061,-1.38634 1.03062,-0.945216 1.03061,3.71787 2.06123,-8.885052 1.03062,0.693158 1.03062,1.008237 1.03061,0.189039 1.03061,-5.545283 1.03062,0.819199 1.03061,-3.150731 1.03062,0.378077 1.03062,-1.953454 1.03061,1.953454 1.03062,-2.646612 1.03061,2.709633 1.03062,-2.331531 1.03061,-3.528832 1.03062,0.378101 1.03061,1.638374 1.03062,-3.717845 1.03061,-1.197277 1.03062,2.016451 1.03061,-0.31508 1.03062,-3.276748 1.03061,-0.315081 1.03062,-2.016451 1.03061,1.260298 1.03062,-1.575378 1.03061,1.260297 1.03062,-0.882195 1.03061,-3.087735 1.03062,0.882221 1.03061,0.567115 1.03062,-3.465787 1.03062,1.512357 1.03061,1.260272 1.03062,-0.315055 1.03061,-1.071259 1.03062,-0.56714 1.03061,1.323318 1.03062,-2.142493 1.03061,0.126018 1.03062,-1.890434 1.03061,-0.126017 1.03062,0.504119 1.03061,0.882195 1.03062,-4.726083 1.03061,3.591828 2.06123,-3.71787 1.03062,0.441098 1.03061,-2.142493 1.03062,3.780891 1.03061,-2.268535 1.03062,-0.189038 1.03061,-1.890433 1.03062,3.465786 1.03061,-0.945217 1.03062,-0.756178 1.03062,0.31508 1.03061,-4.663087 1.03062,3.65485 1.03061,1.701395 1.03062,-2.646612 1.03061,-1.701395 1.03062,1.13428 1.03061,-1.701395 1.03062,1.701395 1.03061,-2.205514 1.03062,1.197276 2.06123,-0.252059 1.03061,-0.504119 1.03062,0.06302 1.03061,-2.835675 1.03062,2.646611 1.03061,-2.205489 1.03062,4.537046 1.03061,-3.528833 1.03062,-1.323293 1.03061,2.646612 1.03062,-3.150731 1.03062,1.701395 1.03061,0.756178 1.03062,0.567115 1.03061,-2.83565 1.03062,0.315081 1.03061,1.071234 1.03062,-3.591829 1.03061,3.276773 1.03062,-1.638374 1.03061,1.512332 1.03062,-3.213727 1.03061,1.953455 1.03062,-0.441123 1.03061,-1.449336 1.03062,0.189064 1.03061,3.213726 1.03062,-5.167181 1.03061,2.646612 1.03062,-1.512357 1.03061,-3.213752 1.03062,4.537071 1.03061,-1.827438 1.03062,2.83565 1.03062,0.882221 1.03061,-3.528832 1.03062,1.701395 1.03061,-2.394553 1.03062,2.079497 1.03061,-1.071259 1.03062,-1.386314 1.03061,-0.945217 1.03062,1.323293 1.03061,-0.063 1.03062,-2.142518 1.03061,1.827438 1.03062,-0.315081 1.03061,0.441098 1.03062,0.06302 1.03061,1.449336 1.03062,-1.323294 1.03061,-3.15073 1.03062,2.898671 1.03061,0.945216 1.03062,-1.890433 1.03061,-0.693182 1.03062,0.189063 1.03061,1.071234 2.06124,-1.071234 1.03061,-1.701395 1.03062,0.25206 1.03061,0.756178 1.03062,-0.06302 1.03061,0.252059 1.03062,1.575353 1.03061,-2.394552 1.03062,-1.638374 1.03061,3.150731 1.03062,-1.827438 1.03061,0.882221 1.03062,-0.441098 1.03061,0.315056 1.03062,-1.890434 1.03061,1.701395 1.03062,-0.441098 h 1.03061 l 1.03062,-1.575352 1.03062,2.898646 1.03061,-3.339769 1.03061,0.504119 1.03062,2.016475 1.03062,-0.882195 1.03061,1.512332 1.03062,-4.095948 1.03061,1.701395 1.03062,-0.756178 2.06123,-2.26851 1.03061,3.465786 1.03062,-0.063 1.03061,-2.142493 1.03062,0.693157 1.03061,1.260273 1.03062,-1.638374 1.03061,0.378101 1.03062,-0.504119 1.03061,0.693158 1.03062,-0.56714 1.03061,1.827437 1.03062,-1.38634 1.03061,-0.882195 1.03062,-0.06302 1.03061,1.827437 1.03062,-1.701395 1.03062,-0.56714 1.03061,0.378102 1.03062,0.882195 1.03061,-2.583591 1.03062,0.315056 1.03061,1.38634 1.03062,0.189038 1.03061,-0.630161 1.03062,-1.386315 1.03061,1.953455 1.03062,0.882195 1.03061,-0.378076 1.03062,0.189038 1.03061,-2.079472 1.03062,0.189039 1.03061,0.31508 1.03062,-0.378101 1.03061,-2.646612 1.03062,1.323318 1.03062,3.08771 1.03061,-4.158969 1.03061,2.079497 2.06123,-3.08771 1.03062,2.016451 1.03062,1.260297 h 1.03061 l 1.03062,-0.504119 1.03061,-0.189038 1.03062,-0.56714 1.03061,0.315081 1.03062,-0.126043 1.03061,-0.315055 1.03062,3.465786 1.03061,-1.008238 1.03062,-2.898646 1.03061,-0.441123 1.03062,-0.630136 1.03061,-0.06302 1.03062,0.252059 1.03061,2.898672 1.03062,-3.08771 1.03061,2.205514 1.03062,-4.411028 1.03061,2.394552 1.03062,0.315081 1.03061,1.890433 1.03062,2.142493 1.03062,-3.843888 1.03061,-0.31508 1.03062,2.583615 1.03061,-2.331556 1.03062,-1.827412 1.03061,0.504119 1.03062,3.465786 1.03061,1.13428 1.03062,-4.032926 1.03061,2.079472 1.03062,-0.504119 1.03061,0.189038 1.03062,-0.06302 1.03061,-1.70137 1.03062,1.44931 1.03061,-0.882195 1.03062,-1.323294 1.03061,1.512332 1.03062,0.8192 1.03061,-2.646612 1.03062,1.197276 1.03061,0.56714 2.06124,-2.898671 1.03061,2.583591 1.03062,-0.56714 1.03061,1.197276 1.03062,-1.197276 1.03061,2.205513 1.03062,-4.032926 1.03061,3.276748 1.03062,-1.512332 1.03061,1.575353 1.03062,-3.024688 1.03061,0.063 1.03062,1.638399 1.03061,2.079472 1.03062,-1.071259 1.03061,-1.260273 h 1.03062 l 1.03061,-0.378101 1.03062,1.260297 1.03061,-0.819199 1.03062,-2.142493 1.03061,1.575377 h 1.03062 l 1.03061,-2.331556 1.03062,0.315081 1.03062,3.40279 1.03061,0.56714 1.03062,-2.898671 h 1.03061 l 1.03062,1.008213 1.03061,0.378101 1.03062,1.449336 1.03061,-2.205514 2.06123,-1.008238 1.03062,0.126042 1.03061,1.575353 1.03062,-1.071234 1.03061,0.945217 1.03062,-1.071259 1.03061,0.756178 1.03062,0.189039 1.03061,-1.449336 h 1.03062 l 1.03061,-1.134255 1.03062,-1.890433 1.03062,0.567115 1.03061,3.528832 1.03062,-2.142493 1.03061,2.52057 1.03062,-1.701395 1.03061,-1.134255 1.03062,1.575352 1.03061,0.882221 1.03062,-0.441098 1.03061,-0.756178 1.03062,1.260272 1.03061,-1.071234 1.03062,-1.575353 1.03061,0.504094 1.03062,0.126042 1.03061,1.701396 1.03062,-2.016476 1.03061,-0.819175 1.03062,-0.252059 1.03061,2.772629 1.03062,-2.709633 1.03062,0.504119 1.03061,2.142493 1.03061,-1.323294 1.03062,-0.630136 1.03062,2.709608 2.06123,-2.83565 1.03061,0.8192 1.03062,-1.38634 1.03061,2.268535 1.03062,0.25206 1.03061,-0.06302 1.03062,-0.630137 1.03061,-1.890433 h 1.03062 l 1.03061,1.449336 1.03062,0.189038 1.03061,-2.331531 1.03062,-0.693182 1.03061,4.789104 1.03062,-2.331531 1.03061,0.441098 1.03062,-1.890434 1.03061,-0.756178 1.03062,1.890458 1.03062,-0.88222 1.03061,2.142493 1.03061,-2.142493 1.03062,1.449335 1.03062,-2.520569 1.03061,3.276748 1.03062,-0.882196 1.03061,-3.087709 1.03062,1.890433 1.03061,1.071234 1.03062,1.638374 1.03061,-4.158944 1.03062,0.315056 1.03061,0.441123 1.03062,0.819174 1.03061,1.575378 1.03062,-1.197276 1.03061,-2.142518 1.03062,1.323318 1.03061,-0.378076 1.03062,-0.756179 1.03061,0.693158 1.03062,0.252059 1.03061,-0.126042 1.03062,1.638374 1.03062,-0.063 1.03061,0.126017 1.03062,1.008238 1.03061,-2.583591 1.03062,0.819175 1.03061,-2.457549 1.03062,2.898671 1.03061,-0.693182 1.03062,-1.386314 1.03061,0.441097 1.03062,-1.260272 1.03061,1.890434 1.03062,-0.630162 1.03061,-0.882195 1.03062,2.142493 1.03061,-1.260298 1.03062,1.13428 1.03061,-2.079496 1.03062,-0.063 1.03061,1.890433 1.03062,-2.394552 1.03062,3.087709 1.03061,-1.323318 1.03062,0.819199 1.03061,-1.134255 1.03061,-1.827437 1.03062,1.764416 1.03062,-0.504119 1.03061,-1.197276 1.03062,-0.252059 1.03061,1.512356 1.03062,0.945217 1.03061,-0.630161 1.03062,-0.819175 1.03061,0.945217 1.03062,0.693157 2.06123,-2.268535 1.03061,1.13428 1.03062,0.630137 1.03061,1.449335 1.03062,-4.284986 1.03061,3.528808 1.03062,-3.717846 1.03061,1.386315 1.03062,1.953454 h 1.03061 l 1.03062,-2.646612 1.03061,2.016451 1.03062,0.06302 1.03062,-1.134255 1.03061,1.260297 1.03062,-1.575378 1.03061,-0.882195 1.03062,1.449335 1.03061,-0.378101 1.03062,-0.630136 1.03061,1.386314 1.03062,-2.142493 1.03061,1.386315 1.03062,1.008238 1.03061,-0.126018 1.03062,-1.827437 1.03061,-1.008213 1.03062,2.772629 1.03061,-1.008238 1.03062,3.150731 1.03061,-4.095947 1.03062,3.40279 1.03061,-2.268535 1.03062,-0.567115 1.03061,1.071234 h 1.03062 l 1.03062,-0.25206 1.03061,-1.512332 1.03062,1.134256 1.03061,-0.56714 1.03062,1.386314 1.03061,-0.756153 1.03062,-0.441123 1.03061,1.890458 1.03062,-1.386339 1.03061,0.441123 1.03062,-0.189064 h 1.03061 l 1.03062,-0.630136 2.06123,0.06302 1.03061,-1.386339 1.03062,2.016475 1.03061,-1.008237 1.03062,0.945216 1.03061,-1.260272 1.03062,0.252059 1.03062,1.197277 1.03061,-1.38634 1.03062,0.441098 1.03061,-1.575353 1.03062,2.520595 1.03061,0.063 1.03062,-1.575353 1.03061,-0.504119 1.03062,0.06302 1.03061,3.213727 1.03062,-3.717846 1.03061,1.827412 1.03062,-0.441097 1.03061,-1.890434 1.03062,4.284986 1.03061,-2.583591 1.03062,-1.638374 1.03061,1.95343 1.03062,-0.378077 2.06123,-0.441098 1.03061,1.701395 1.03062,-1.134255 1.03061,-0.693182 1.03062,0.693182 1.03061,-0.88222 1.03062,0.504119 1.03062,-0.630136 1.03061,1.575352 1.03062,0.25206 1.03061,-0.819175 1.03062,2.961668 1.03061,-5.35622 1.03062,1.260272 1.03061,-0.630136 1.03062,2.83565 1.03061,-1.071234 1.03062,-1.449335 1.03061,0.567115 2.06123,-0.06302 1.03062,-0.126018 2.06123,1.638374 1.03061,-2.331531 1.03062,1.449336 1.03061,0.189038 1.03062,-2.142493 1.03061,1.134255 1.03062,-1.701395 1.03062,3.96993 1.03061,-2.772653 1.03062,-1.197277 1.03061,2.772654 1.03062,0.441098 1.03061,1.512357 1.03062,-2.457574 1.03061,-0.252059 1.03062,0.630136 1.03061,-1.071234 1.03062,-0.441098 1.03061,-1.764416 1.03062,3.465811 1.03061,-0.441122 1.03062,-2.961668 1.03061,4.726084 1.03062,-2.394553 1.03061,0.315081 1.03062,-2.457573 1.03061,3.024688 1.03062,-1.260272 1.03062,0.252059 1.03061,0.630136 1.03062,-1.449335 1.03061,-0.06302 1.03062,2.016475 1.03061,-2.646611 1.03062,3.087709 1.03061,-2.772629 1.03062,3.465786 1.03061,-4.158968 v 0"
           clip-path="url(#p83178860a8)"
           style="fill:none;stroke:#1f77b4;stroke-width:1.5;stroke-linecap:square"
           id="path16" />
      </g>
      <g
         id="line2d_15">
        <path
           d="m 94.551818,267.12291 1.030615,-41.20529 1.030616,-51.79015 1.030615,-5.10341 1.030615,-24.94997 1.030615,-13.23107 1.030616,3.21325 2.06123,-17.95642 1.03061,-1.70115 1.03062,-2.07917 1.03062,-4.34734 1.03061,-7.18258 1.03062,-0.56704 1.03061,-4.72539 1.03062,-7.749601 1.03061,2.457175 1.03062,-5.103388 1.03061,-1.134106 1.03062,-2.835226 1.03061,2.457199 1.03062,-5.103413 1.03061,0.945093 1.03062,-1.323119 1.03061,-3.591281 1.03062,-0.189013 1.03061,-3.969333 1.03062,1.323119 1.03061,-3.780293 1.03062,6.04848 1.03062,-6.993573 1.03061,1.512133 1.03061,-1.701146 1.03062,-0.378027 1.03061,-2.079173 1.03062,0.756079 1.03062,-3.024265 1.03061,0.189038 1.03062,4.536348 1.03061,-5.859467 2.06123,-0.756054 1.03062,1.512108 1.03061,1.134106 1.03062,-5.103413 1.03061,3.402267 1.03062,-0.378027 1.03061,-1.134081 2.06123,-1.134106 1.03062,2.079173 1.03061,-1.890159 h 1.03062 l 1.03061,-0.378027 1.03062,0.945067 1.03061,-1.134081 1.03062,-0.756053 1.03061,0.945067 1.03062,-3.591281 1.03062,0.189014 1.03061,1.512108 1.03062,-0.189014 1.03061,0.189014 1.03062,-1.701122 1.03061,0.756054 1.03062,-2.079173 1.03061,1.323119 1.03062,-0.945067 1.03061,0.378027 1.03062,-1.512132 1.03061,0.378027 1.03062,-2.268187 1.03061,0.945092 1.03062,2.835227 1.03061,-2.835227 2.06123,-1.890159 1.03062,0.945067 1.03061,0.567065 1.03062,-0.378026 1.03061,0.56704 1.03062,0.378027 1.03061,-2.835227 1.03062,1.89016 1.03062,0.756053 1.03061,-0.945092 1.03062,0.189039 1.03061,1.701121 1.03062,-1.89016 1.03061,-0.56704 1.03062,1.890159 1.03061,-0.945067 1.03062,0.56704 1.03061,-0.189013 1.03062,0.56704 1.03061,-3.02424 1.03062,0.378027 h 1.03061 l 1.03062,-0.756054 2.06123,0.756054 1.03061,3.02424 1.03062,-1.701146 1.03061,0.945092 1.03062,-3.59128 1.03061,2.079148 1.03062,0.189013 1.03062,0.567066 1.03061,-2.079173 1.03062,1.323094 1.03061,0.189013 1.03062,-2.835226 1.03061,1.323119 1.03062,-0.567041 1.03061,-2.079173 1.03062,2.079173 1.03061,-0.567065 1.03062,2.268186 1.03061,-2.835226 1.03062,-0.378027 1.03061,1.134081 1.03062,0.567065 1.03061,1.701121 1.03062,-0.945067 1.03061,-2.646214 1.03062,2.835227 1.03061,0.378027 1.03062,-3.402267 1.03061,1.134081 1.03062,2.457199 1.03062,-3.02424 1.03061,0.567041 1.03062,3.402292 1.03061,-2.835227 1.03062,-3.780319 1.03061,2.4572 h 1.03062 l 1.03061,2.835227 1.03062,-0.567041 1.03061,-0.945067 1.03062,-0.189038 1.03061,-2.646189 1.03062,1.890135 1.03061,-0.378027 1.03062,0.756054 1.03061,1.512132 1.03062,-3.02424 1.03061,0.378027 1.03062,0.945067 1.03061,0.378027 1.03062,-0.56704 1.03061,-2.268187 1.03062,1.134106 1.03061,1.323094 1.03062,-0.945067 1.03062,1.701146 1.03061,-2.079173 1.03062,-0.756054 1.03061,1.512108 1.03062,2.646213 2.06123,-5.103413 1.03061,1.323119 1.03062,2.268162 1.03061,-3.402267 1.03062,1.323119 1.03061,0.945067 1.03062,-1.512108 1.03061,1.323094 1.03062,-1.512132 h 1.03061 l 1.03062,2.835227 1.03061,-3.969308 1.03062,2.646213 1.03062,-2.457199 h 1.03061 l 1.03061,2.268186 1.03062,0.756054 1.03062,-2.079173 1.03061,1.890159 1.03062,-0.756054 1.03061,-3.780293 1.03062,3.213253 1.03061,-0.567065 1.03062,0.567065 1.03061,-0.378027 1.03062,0.378027 1.03061,2.268162 1.03062,-1.701122 h 1.03061 l 1.03062,-0.945067 1.03061,-0.756078 1.03062,1.701145 1.03061,0.567041 1.03062,-2.4572 1.03061,0.945092 1.03062,0.756054 1.03061,-0.945092 2.06123,-0.378027 1.03062,1.134106 1.03062,-1.701146 1.03061,-0.567041 1.03062,-1.323119 1.03061,2.268187 1.03062,0.189013 h 1.03061 l 1.03062,-1.323094 1.03061,0.945067 1.03062,1.323119 1.03061,-1.323119 1.03062,2.268186 1.03061,0.189014 1.03062,-1.323094 h 1.03061 l 1.03062,1.13408 1.03061,-0.756053 1.03062,-3.024241 1.03061,0.567041 1.03062,1.323094 1.03062,-1.512108 1.03061,2.268187 1.03061,-1.134106 1.03062,-1.512108 1.03061,1.512108 1.03062,-0.378027 1.03062,-1.323094 1.03061,2.457175 1.03062,-0.756054 1.03061,-1.134081 1.03062,2.079173 1.03061,-1.134105 h 1.03062 l 1.03061,-0.756054 1.03062,0.756054 1.03061,0.189013 1.03062,-0.189013 1.03061,-0.378027 2.06123,1.890159 1.03062,-0.189013 1.03061,0.189013 1.03062,-1.890159 1.03061,2.079173 1.03062,-0.756079 1.03061,-0.378027 1.03062,-0.189013 h 1.03061 l 1.03062,0.756078 1.03062,-0.756078 2.06123,-0.756054 1.03061,0.378027 1.03062,-0.567041 1.03061,-0.378027 1.03062,-0.945092 1.03061,3.591306 1.03062,-2.4572 1.03061,-0.756054 1.03062,0.56704 1.03061,1.701121 1.03062,-0.756053 1.03061,1.701146 1.03062,-2.646214 1.03061,-0.378027 1.03062,3.024241 1.03061,-1.89016 1.03062,1.134081 1.03061,-1.323094 1.03062,0.945067 1.03061,-0.189013 1.03062,-1.701122 1.03062,2.079148 1.03061,-2.079148 1.03062,0.567041 1.03061,0.756054 2.06123,-3.213254 1.03062,2.646213 1.03061,-0.945067 1.03062,2.079148 1.03061,-1.701121 1.03062,0.189013 1.03061,1.323095 1.03062,-2.4572 1.03061,0.567065 h 1.03062 l 1.03061,1.512108 1.03062,-1.323095 h 1.03061 l 1.03062,-0.567065 1.03061,1.134106 1.03062,-0.378027 1.03061,1.512108 1.03062,-1.323095 1.03061,-0.756053 1.03062,2.079148 1.03062,-1.134081 h 1.03061 l 1.03062,0.189013 1.03061,1.323094 1.03062,-1.701121 1.03061,-0.378027 1.03062,1.890135 1.03061,-0.56704 1.03062,0.945067 1.03061,-3.213254 1.03062,2.646214 h 1.03061 l 1.03062,-1.512108 1.03061,0.378027 1.03062,1.134081 1.03061,-0.189014 1.03062,-0.756054 1.03061,-0.56704 1.03062,1.134081 1.03061,-1.512108 1.03062,1.512108 1.03062,-0.378027 1.03061,1.890159 1.03062,-0.378027 1.03061,-2.079173 1.03062,-1.512132 1.03061,1.512132 1.03062,2.079173 1.03061,-1.890159 1.03062,-1.323119 1.03061,2.646213 h 1.03062 l 1.03061,-1.134081 1.03062,-1.512132 1.03061,1.134105 1.03062,-1.890159 1.03061,0.56704 1.03062,2.835227 1.03061,-0.945067 1.03062,0.756054 1.03061,-0.189014 1.03062,-0.756054 1.03062,0.189014 1.03061,-0.378027 1.03061,-1.134106 1.03062,-0.378027 1.03062,-0.756053 1.03061,1.323119 1.03062,1.512107 1.03061,-0.56704 1.03062,1.512107 1.03061,-2.835226 1.03062,1.890159 1.03061,1.512133 1.03062,-0.567066 1.03061,-1.512107 1.03062,1.701121 1.03061,-0.378027 1.03062,-3.402267 1.03061,1.512132 1.03062,-0.756078 1.03061,1.890159 1.03062,-2.268186 h 1.03061 l 1.03062,1.890159 1.03061,-1.323119 1.03062,-1.512107 1.03062,0.945067 1.03061,0.378027 1.03061,-0.189014 1.03062,2.4572 1.03062,-2.646213 1.03061,-0.756054 1.03062,2.4572 1.03061,0.189013 1.03062,-0.56704 1.03061,-0.756079 1.03062,1.323119 1.03061,0.567041 1.03062,-1.134081 1.03061,0.189013 1.03062,-0.756053 1.03061,-2.646214 1.03062,2.835227 1.03061,-0.378052 1.03062,-2.079148 1.03061,2.4572 1.03062,-0.189013 1.03061,-0.567066 1.03062,0.567066 1.03061,-1.701146 1.03062,2.835226 1.03062,-2.457199 1.03061,3.402267 2.06123,-3.969308 1.03062,0.756054 1.03061,0.56704 1.03062,1.134106 h 1.03061 l 1.03062,-1.701146 4.12246,2.268186 1.03061,-3.59128 1.03062,1.512107 1.03061,0.378027 1.03062,0.945092 h 1.03061 l 1.03062,0.189014 1.03061,-0.756079 1.03062,0.189039 1.03062,-0.378052 1.03061,-2.646213 1.03062,2.268186 1.03061,1.134105 1.03061,-4.158345 1.03062,3.213253 1.03062,-0.189013 1.03061,0.756079 1.03062,-0.378052 h 1.03061 l 1.03062,0.567065 1.03061,0.189013 1.03062,-0.378026 1.03061,1.512107 1.03062,-1.701146 1.03061,0.756079 1.03062,-2.079173 1.03061,2.268186 h 1.03062 l 1.03061,-0.189013 1.03062,0.189013 1.03061,-1.134105 1.03062,0.945092 1.03061,1.890134 1.03062,-2.457174 1.03061,-0.378052 1.03062,-0.567041 1.03061,1.701146 1.03062,-0.945092 1.03062,1.134106 1.03061,-1.512133 1.03062,2.079173 1.03061,-2.079173 1.03062,0.189014 1.03061,0.567065 1.03062,-1.512132 1.03061,0.756053 1.03062,-0.756053 1.03061,2.079172 1.03062,0.945068 1.03061,-1.512108 1.03062,1.323094 1.03061,-3.02424 1.03062,2.268186 1.03061,-2.268186 1.03062,1.890159 1.03061,0.378027 h 1.03062 l 1.03061,0.189014 1.03062,-1.512133 1.03061,0.378027 h 1.03062 l 1.03062,0.378052 1.03061,0.756054 1.03062,-1.323119 1.03061,0.567065 1.03062,-0.189013 1.03061,1.13408 1.03062,-1.701146 1.03061,-0.56704 1.03062,1.512132 1.03061,0.189014 h 1.03062 l 1.03061,0.189013 1.03062,-1.323119 1.03061,0.567066 1.03062,1.323094 1.03061,-1.89016 1.03062,0.756079 1.03061,1.512108 1.03062,-1.134081 1.03061,-1.512133 1.03062,0.189014 1.03062,1.512132 1.03061,0.189014 1.03062,-0.945067 1.03061,-0.567066 1.03062,-1.13408 1.03061,2.457199 1.03062,1.323095 1.03061,-1.701122 1.03062,-0.567065 1.03061,2.835227 1.03062,-3.402267 1.03061,-0.189014 h 1.03062 l 1.03061,1.323119 1.03062,-1.701145 1.03061,-0.945068 1.03062,3.780294 1.03061,-0.378027 h 1.03062 l 1.03061,0.756054 1.03062,-1.323094 h 1.03061 l 1.03062,0.56704 2.06123,0.378027 1.03061,-2.646213 1.03062,2.079173 1.03062,-0.567041 1.03061,-0.189013 1.03062,0.378027 1.03061,0.756054 1.03062,-0.189014 1.03061,-0.945067 1.03062,-0.756079 h 1.03061 l 1.03062,2.079173 2.06123,-3.59128 1.03061,3.213253 2.06123,-2.268186 1.03062,0.756054 1.03061,0.189013 1.03062,-1.512107 1.03061,-0.378027 1.03062,0.378027 1.03061,1.323094 1.03062,-1.323094 3.09185,2.835226 1.03061,-4.158345 1.03062,3.969332 1.03061,-0.756054 1.03062,0.378027 1.03061,-2.4572 1.03062,0.945067 1.03061,0.756054 1.03062,2.646213 1.03061,-0.56704 1.03062,-3.02424 1.03061,1.701146 1.03062,1.134081 1.03061,-2.268187 1.03062,0.756079 1.03061,-0.378052 1.03062,0.567065 1.03061,-1.134105 1.03062,0.378027 1.03061,0.567065 1.03062,0.378027 1.03062,2.268186 1.03061,-3.402292 1.03062,-0.189013 1.03061,-0.756054 1.03062,2.646213 1.03061,-0.56704 1.03062,-0.189014 1.03061,-0.567065 1.03062,1.134106 1.03061,0.945067 v 0"
           clip-path="url(#p83178860a8)"
           style="fill:none;stroke:#ff7f0e;stroke-width:1.5;stroke-linecap:square"
           id="path17" />
      </g>
      <g
         id="patch_3">
        <path
           d="M 65.54,304 V 16.2"
           style="fill:none;stroke:#000000;stroke-width:0.8;stroke-linecap:square;stroke-linejoin:miter"
           id="path18" />
      </g>
      <g
         id="patch_4">
        <path
           d="M 703.8,304 V 16.2"
           style="fill:none;stroke:#000000;stroke-width:0.8;stroke-linecap:square;stroke-linejoin:miter"
           id="path19" />
      </g>
      <g
         id="patch_5">
        <path
           d="M 65.54,304 H 703.8"
           style="fill:none;stroke:#000000;stroke-width:0.8;stroke-linecap:square;stroke-linejoin:miter"
           id="path20" />
      </g>
      <g
         id="patch_6">
        <path
           d="M 65.54,16.2 H 703.8"
           style="fill:none;stroke:#000000;stroke-width:0.8;stroke-linecap:square;stroke-linejoin:miter"
           id="path21" />
      </g>
      <g
         id="legend_1">
        <g
           id="patch_7">
          <path
             d="M 497.97656,296.5 H 693.3 q 3,0 3,-3 v -42.53438 q 0,-3 -3,-3 H 497.97656 q -3,0 -3,3 V 293.5 q 0,3 3,3 z"
             style="opacity:0.8;fill:#ffffff;stroke:#cccccc;stroke-linejoin:miter"
             id="path22" />
        </g>
        <g
           id="line2d_16">
          <path
             d="m 500.97656,260.11328 h 15 15"
             style="fill:none;stroke:#1f77b4;stroke-width:1.5;stroke-linecap:square"
             id="path23" />
        </g>
        <g
           id="text_16">
          <text
             style="font-style:normal;font-variant:normal;font-weight:normal;font-stretch:normal;font-size:15px;line-height:normal;font-family:'DejaVu Sans', 'Bitstream Vera Sans', 'Computer Modern Sans Serif', 'Lucida Grande', Verdana, Geneva, Lucid, Arial, Helvetica, 'Avant Garde', sans-serif;text-anchor:start"
             x="542.97656"
             y="265.36328"
             id="text23">Training Accuracy</text>
        </g>
        <g
           id="line2d_17">
          <path
             d="m 500.97656,282.13047 h 15 15"
             style="fill:none;stroke:#ff7f0e;stroke-width:1.5;stroke-linecap:square"
             id="path24" />
        </g>
        <g
           id="text_17">
          <text
             style="font-style:normal;font-variant:normal;font-weight:normal;font-stretch:normal;font-size:15px;line-height:normal;font-family:'DejaVu Sans', 'Bitstream Vera Sans', 'Computer Modern Sans Serif', 'Lucida Grande', Verdana, Geneva, Lucid, Arial, Helvetica, 'Avant Garde', sans-serif;text-anchor:start"
             x="542.97656"
             y="287.38046"
             id="text24">Validation Accuracy</text>
        </g>
      </g>
    </g>
  </g>
  <defs
     id="defs24">
    <clipPath
       id="p83178860a8">
      <rect
         x="65.540001"
         y="16.200001"
         width="638.26001"
         height="287.79999"
         id="rect24" />
    </clipPath>
  </defs>
</svg>
