<?xml version="1.0" encoding="UTF-8" standalone="no"?>
<svg
   id="export"
   class="canvas"
   preserveAspectRatio="xMidYMid"
   width="321"
   height="88.042496"
   version="1.1"
   sodipodi:docname="cnn_architecture_dataset1.svg"
   inkscape:version="1.3 (1:1.3+202307231459+0e150ed6c4)"
   xmlns:inkscape="http://www.inkscape.org/namespaces/inkscape"
   xmlns:sodipodi="http://sodipodi.sourceforge.net/DTD/sodipodi-0.dtd"
   xmlns="http://www.w3.org/2000/svg"
   xmlns:svg="http://www.w3.org/2000/svg">
  <defs
     id="defs32" />
  <sodipodi:namedview
     id="namedview32"
     pagecolor="#ffffff"
     bordercolor="#000000"
     borderopacity="0.25"
     inkscape:showpageshadow="2"
     inkscape:pageopacity="0.0"
     inkscape:pagecheckerboard="0"
     inkscape:deskcolor="#d1d1d1"
     inkscape:zoom="1.76"
     inkscape:cx="119.03409"
     inkscape:cy="12.5"
     inkscape:window-width="1236"
     inkscape:window-height="995"
     inkscape:window-x="0"
     inkscape:window-y="0"
     inkscape:window-maximized="0"
     inkscape:current-layer="export" />
  <g
     id="origin"
     transform="rotate(-90,3.521248,84.021248)">
    <g
       id="edge-paths"
       class="edge-paths">
      <defs
         id="defs3">
        <marker
           id="arrowhead"
           viewBox="0 0 10 10"
           refX="9"
           refY="5"
           markerUnits="strokeWidth"
           markerWidth="8"
           markerHeight="6"
           orient="auto"
           style="fill:#000000">
          <path
             d="M 0,0 10,5 0,10 4,5 Z"
             style="stroke-width:1"
             id="path1" />
        </marker>
        <marker
           id="arrowhead-select"
           viewBox="0 0 10 10"
           refX="9"
           refY="5"
           markerUnits="strokeWidth"
           markerWidth="8"
           markerHeight="6"
           orient="auto"
           style="fill:#ee0000">
          <path
             d="M 0,0 10,5 0,10 4,5 Z"
             style="stroke-width:1"
             id="path2" />
        </marker>
        <marker
           id="arrowhead-hover"
           viewBox="0 0 10 10"
           refX="9"
           refY="5"
           markerUnits="strokeWidth"
           markerWidth="8"
           markerHeight="6"
           orient="auto">
          <path
             d="M 0,0 10,5 0,10 4,5 Z"
             style="stroke-width:1"
             id="path3" />
        </marker>
      </defs>
      <path
         id="edge-input_1"
         class="edge-path"
         d="m 43.521248,101 v 1.66667 c 0,1.66666 0,5 0,8.33333 0,3.33333 0,6.66667 0,8.33333 V 121"
         style="fill:none;stroke:#000000;stroke-width:1px;marker-end:url(#arrowhead)" />
      <path
         class="edge-path-hit-test"
         d="m 43.521248,101 v 1.66667 c 0,1.66666 0,5 0,8.33333 0,3.33333 0,6.66667 0,8.33333 V 121"
         style="fill:none;stroke:#000000;stroke-width:0.5em;stroke-opacity:0.00100002"
         id="path5" />
      <path
         id="edge-conv1d"
         class="edge-path"
         d="m 43.521248,161 v 1.66667 c 0,1.66666 0,5 0,8.33333 0,3.33333 0,6.66667 0,8.33333 V 181"
         style="fill:none;stroke:#000000;stroke-width:1px;marker-end:url(#arrowhead)" />
      <path
         class="edge-path-hit-test"
         d="m 43.521248,161 v 1.66667 c 0,1.66666 0,5 0,8.33333 0,3.33333 0,6.66667 0,8.33333 V 181"
         style="fill:none;stroke:#000000;stroke-width:0.5em;stroke-opacity:0.00100002"
         id="path6" />
      <path
         id="edge-max_pooling1d"
         class="edge-path"
         d="m 43.521248,201 v 1.66667 c 0,1.66666 0,5 0,8.33333 0,3.33333 0,6.66667 0,8.33333 V 221"
         style="fill:none;stroke:#000000;stroke-width:1px;marker-end:url(#arrowhead)" />
      <path
         class="edge-path-hit-test"
         d="m 43.521248,201 v 1.66667 c 0,1.66666 0,5 0,8.33333 0,3.33333 0,6.66667 0,8.33333 V 221"
         style="fill:none;stroke:#000000;stroke-width:0.5em;stroke-opacity:0.00100002"
         id="path7" />
      <path
         id="edge-flatten"
         class="edge-path"
         d="m 43.521248,241 v 1.66667 c 0,1.66666 0,5 0,8.33333 0,3.33333 0,6.66667 0,8.33333 V 261"
         style="fill:none;stroke:#000000;stroke-width:1px;marker-end:url(#arrowhead)" />
      <path
         class="edge-path-hit-test"
         d="m 43.521248,241 v 1.66667 c 0,1.66666 0,5 0,8.33333 0,3.33333 0,6.66667 0,8.33333 V 261"
         style="fill:none;stroke:#000000;stroke-width:0.5em;stroke-opacity:0.00100002"
         id="path8" />
      <path
         id="edge-dropout"
         class="edge-path"
         d="m 43.521248,281 v 1.66667 c 0,1.66666 0,5 0,8.33333 0,3.33333 0,6.66667 0,8.33333 V 301"
         style="fill:none;stroke:#000000;stroke-width:1px;marker-end:url(#arrowhead)" />
      <path
         class="edge-path-hit-test"
         d="m 43.521248,281 v 1.66667 c 0,1.66666 0,5 0,8.33333 0,3.33333 0,6.66667 0,8.33333 V 301"
         style="fill:none;stroke:#000000;stroke-width:0.5em;stroke-opacity:0.00100002"
         id="path9" />
      <path
         id="edge-dense"
         class="edge-path"
         d="m 43.521248,341 v 1.66667 c 0,1.66666 0,5 0,8.33333 0,3.33333 0,6.66667 0,8.33333 V 361"
         style="fill:none;stroke:#000000;stroke-width:1px;marker-end:url(#arrowhead)" />
      <path
         class="edge-path-hit-test"
         d="m 43.521248,341 v 1.66667 c 0,1.66666 0,5 0,8.33333 0,3.33333 0,6.66667 0,8.33333 V 361"
         style="fill:none;stroke:#000000;stroke-width:0.5em;stroke-opacity:0.00100002"
         id="path10" />
    </g>
    <g
       id="nodes"
       class="nodes">
      <g
         id="node-name-input_1"
         class="node graph-node"
         style="opacity:1"
         transform="translate(9.3264236,81)">
        <g
           class="node-item node-item-type node-item-type-data"
           id="g14">
          <path
             d="m 5,0 h 58.389648 a 5,5 0 0 1 5,5 v 10 a 5,5 0 0 1 -5,5 H 5 A 5,5 0 0 1 0,15 V 5 A 5,5 0 0 1 5,0 Z"
             style="fill:#555555;stroke:#000000;stroke-width:0"
             id="path14" />
          <text
             x="6"
             y="13"
             style="font-size:11px;font-family:'-apple-system', BlinkMacSystemFont, 'Segoe WPC', 'Segoe UI', Ubuntu, 'Droid Sans', sans-serif, 'PingFang SC';fill:#ffffff"
             id="text14">InputLayer</text>
          <title
             id="title14">input_1</title>
        </g>
        <path
           class="node border"
           d="m 5,0 h 58.389648 a 5,5 0 0 1 5,5 v 10 a 5,5 0 0 1 -5,5 H 5 A 5,5 0 0 1 0,15 V 5 A 5,5 0 0 1 5,0 Z"
           style="fill:none;stroke:#333333;stroke-width:1px"
           id="path15" />
      </g>
      <g
         id="node-name-conv1d"
         class="node graph-node"
         style="opacity:1"
         transform="translate(17.016869,121)">
        <g
           class="node-item node-item-type node-item-type-layer"
           id="g16">
          <path
             d="m 5,0 h 43.008759 a 5,5 0 0 1 5,5 V 20 H 0 V 5 A 5,5 0 0 1 5,0 Z"
             style="fill:#335588;stroke:#000000;stroke-width:0"
             id="path16" />
          <text
             x="6"
             y="13"
             style="font-size:11px;font-family:'-apple-system', BlinkMacSystemFont, 'Segoe WPC', 'Segoe UI', Ubuntu, 'Droid Sans', sans-serif, 'PingFang SC';fill:#ffffff"
             id="text16">Conv1D</text>
          <title
             id="title16">conv1d</title>
        </g>
        <g
           class="node-item node-item-type node-item-type-activation"
           transform="translate(0,20)"
           id="g17">
          <path
             d="m 0,0 h 53.008759 v 15 a 5,5 0 0 1 -5,5 H 5 A 5,5 0 0 1 0,15 Z"
             style="fill:#702921;stroke:#000000;stroke-width:0"
             id="path17" />
          <text
             x="6"
             y="13"
             style="font-size:11px;font-family:'-apple-system', BlinkMacSystemFont, 'Segoe WPC', 'Segoe UI', Ubuntu, 'Droid Sans', sans-serif, 'PingFang SC';fill:#ffffff"
             id="text17">ReLU</text>
        </g>
        <line
           class="node"
           x1="0"
           x2="53.008759"
           y1="20"
           y2="20"
           style="fill:none;stroke:#333333;stroke-width:1px"
           id="line17" />
        <path
           class="node border"
           d="m 5,0 h 43.008759 a 5,5 0 0 1 5,5 v 30 a 5,5 0 0 1 -5,5 H 5 A 5,5 0 0 1 0,35 V 5 A 5,5 0 0 1 5,0 Z"
           style="fill:none;stroke:#333333;stroke-width:1px"
           id="path18" />
      </g>
      <g
         id="node-name-max_pooling1d"
         class="node graph-node"
         style="opacity:1"
         transform="translate(0,181)">
        <g
           class="node-item node-item-type node-item-type-pool"
           id="g19">
          <path
             d="m 5,0 h 77.042496 a 5,5 0 0 1 5,5 v 10 a 5,5 0 0 1 -5,5 H 5 A 5,5 0 0 1 0,15 V 5 A 5,5 0 0 1 5,0 Z"
             style="fill:#335533;stroke:#000000;stroke-width:0"
             id="path19" />
          <text
             x="6"
             y="13"
             style="font-size:11px;font-family:'-apple-system', BlinkMacSystemFont, 'Segoe WPC', 'Segoe UI', Ubuntu, 'Droid Sans', sans-serif, 'PingFang SC';fill:#ffffff"
             id="text19">MaxPooling1D</text>
          <title
             id="title19">max_pooling1d</title>
        </g>
        <path
           class="node border"
           d="m 5,0 h 77.042496 a 5,5 0 0 1 5,5 v 10 a 5,5 0 0 1 -5,5 H 5 A 5,5 0 0 1 0,15 V 5 A 5,5 0 0 1 5,0 Z"
           style="fill:none;stroke:#333333;stroke-width:1px"
           id="path20" />
      </g>
      <g
         id="node-name-flatten"
         class="node graph-node"
         style="opacity:1"
         transform="translate(18.59156,221)">
        <g
           class="node-item node-item-type node-item-type-shape"
           id="g21">
          <path
             d="m 5,0 h 39.859375 a 5,5 0 0 1 5,5 v 10 a 5,5 0 0 1 -5,5 H 5 A 5,5 0 0 1 0,15 V 5 A 5,5 0 0 1 5,0 Z"
             style="fill:#6c4f47;stroke:#000000;stroke-width:0"
             id="path21" />
          <text
             x="6"
             y="13"
             style="font-size:11px;font-family:'-apple-system', BlinkMacSystemFont, 'Segoe WPC', 'Segoe UI', Ubuntu, 'Droid Sans', sans-serif, 'PingFang SC';fill:#ffffff"
             id="text21">Flatten</text>
          <title
             id="title21">flatten</title>
        </g>
        <path
           class="node border"
           d="m 5,0 h 39.859375 a 5,5 0 0 1 5,5 v 10 a 5,5 0 0 1 -5,5 H 5 A 5,5 0 0 1 0,15 V 5 A 5,5 0 0 1 5,0 Z"
           style="fill:none;stroke:#333333;stroke-width:1px"
           id="path22" />
      </g>
      <g
         id="node-name-dropout"
         class="node graph-node"
         style="opacity:1"
         transform="translate(15.090393,261)">
        <g
           class="node-item node-item-type node-item-type-dropout"
           id="g23">
          <path
             d="m 5,0 h 46.86171 a 5,5 0 0 1 5,5 v 10 a 5,5 0 0 1 -5,5 H 5 A 5,5 0 0 1 0,15 V 5 A 5,5 0 0 1 5,0 Z"
             style="fill:#454770;stroke:#000000;stroke-width:0"
             id="path23" />
          <text
             x="6"
             y="13"
             style="font-size:11px;font-family:'-apple-system', BlinkMacSystemFont, 'Segoe WPC', 'Segoe UI', Ubuntu, 'Droid Sans', sans-serif, 'PingFang SC';fill:#ffffff"
             id="text23">Dropout</text>
          <title
             id="title23">dropout</title>
        </g>
        <path
           class="node border"
           d="m 5,0 h 46.86171 a 5,5 0 0 1 5,5 v 10 a 5,5 0 0 1 -5,5 H 5 A 5,5 0 0 1 0,15 V 5 A 5,5 0 0 1 5,0 Z"
           style="fill:none;stroke:#333333;stroke-width:1px"
           id="path24" />
      </g>
      <g
         id="node-name-dense"
         class="node graph-node"
         style="opacity:1"
         transform="translate(20.833748,301)">
        <g
           class="node-item node-item-type node-item-type-layer"
           id="g25">
          <path
             d="m 5,0 h 35.375 a 5,5 0 0 1 5,5 V 20 H 0 V 5 A 5,5 0 0 1 5,0 Z"
             style="fill:#335588;stroke:#000000;stroke-width:0"
             id="path25" />
          <text
             x="6"
             y="13"
             style="font-size:11px;font-family:'-apple-system', BlinkMacSystemFont, 'Segoe WPC', 'Segoe UI', Ubuntu, 'Droid Sans', sans-serif, 'PingFang SC';fill:#ffffff"
             id="text25">Dense</text>
          <title
             id="title25">dense</title>
        </g>
        <g
           class="node-item node-item-type node-item-type-activation"
           transform="translate(0,20)"
           id="g26">
          <path
             d="m 0,0 h 45.375 v 15 a 5,5 0 0 1 -5,5 H 5 A 5,5 0 0 1 0,15 Z"
             style="fill:#702921;stroke:#000000;stroke-width:0"
             id="path26" />
          <text
             x="6"
             y="13"
             style="font-size:11px;font-family:'-apple-system', BlinkMacSystemFont, 'Segoe WPC', 'Segoe UI', Ubuntu, 'Droid Sans', sans-serif, 'PingFang SC';fill:#ffffff"
             id="text26">ReLU</text>
        </g>
        <line
           class="node"
           x1="0"
           x2="45.375"
           y1="20"
           y2="20"
           style="fill:none;stroke:#333333;stroke-width:1px"
           id="line26" />
        <path
           class="node border"
           d="m 5,0 h 35.375 a 5,5 0 0 1 5,5 v 30 a 5,5 0 0 1 -5,5 H 5 A 5,5 0 0 1 0,35 V 5 A 5,5 0 0 1 5,0 Z"
           style="fill:none;stroke:#333333;stroke-width:1px"
           id="path27" />
      </g>
      <g
         id="node-name-dense_1"
         class="node graph-node"
         style="opacity:1"
         transform="translate(15.409882,361)">
        <g
           class="node-item node-item-type node-item-type-layer"
           id="g28">
          <path
             d="m 5,0 h 46.222733 a 5,5 0 0 1 5,5 V 20 H 0 V 5 A 5,5 0 0 1 5,0 Z"
             style="fill:#335588;stroke:#000000;stroke-width:0"
             id="path28" />
          <text
             x="6"
             y="13"
             style="font-size:11px;font-family:'-apple-system', BlinkMacSystemFont, 'Segoe WPC', 'Segoe UI', Ubuntu, 'Droid Sans', sans-serif, 'PingFang SC';fill:#ffffff"
             id="text28">Dense</text>
          <title
             id="title28">dense_1</title>
        </g>
        <g
           class="node-item node-item-type node-item-type-activation"
           transform="translate(0,20)"
           id="g29">
          <path
             d="m 0,0 h 56.222733 v 15 a 5,5 0 0 1 -5,5 H 5 A 5,5 0 0 1 0,15 Z"
             style="fill:#702921;stroke:#000000;stroke-width:0"
             id="path29" />
          <text
             x="6"
             y="13"
             style="font-size:11px;font-family:'-apple-system', BlinkMacSystemFont, 'Segoe WPC', 'Segoe UI', Ubuntu, 'Droid Sans', sans-serif, 'PingFang SC';fill:#ffffff"
             id="text29">Softmax</text>
        </g>
        <line
           class="node"
           x1="0"
           x2="56.222733"
           y1="20"
           y2="20"
           style="fill:none;stroke:#333333;stroke-width:1px"
           id="line29" />
        <path
           class="node border"
           d="m 5,0 h 46.222733 a 5,5 0 0 1 5,5 v 30 a 5,5 0 0 1 -5,5 H 5 A 5,5 0 0 1 0,35 V 5 A 5,5 0 0 1 5,0 Z"
           style="fill:none;stroke:#333333;stroke-width:1px"
           id="path30" />
      </g>
    </g>
  </g>
</svg>
