<?xml version="1.0" encoding="utf-8" standalone="no"?>
<!DOCTYPE svg PUBLIC "-//W3C//DTD SVG 1.1//EN"
  "http://www.w3.org/Graphics/SVG/1.1/DTD/svg11.dtd">
<!-- Created with matplotlib (https://matplotlib.org/) -->
<svg height="360pt" version="1.1" viewBox="0 0 720 360" width="720pt" xmlns="http://www.w3.org/2000/svg" xmlns:xlink="http://www.w3.org/1999/xlink">
 <defs>
  <style type="text/css">
*{stroke-linecap:butt;stroke-linejoin:round;}
  </style>
 </defs>
 <g id="figure_1">
  <g id="patch_1">
   <path d="M 0 360 
L 720 360 
L 720 0 
L 0 0 
z
" style="fill:#ffffff;"/>
  </g>
  <g id="axes_1">
   <g id="patch_2">
    <path d="M 65.45 304 
L 703.8 304 
L 703.8 35.88 
L 65.45 35.88 
z
" style="fill:#ffffff;"/>
   </g>
   <g id="matplotlib.axis_1">
    <g id="xtick_1">
     <g id="line2d_1">
      <defs>
       <path d="M 0 0 
L 0 3.5 
" id="m608e97ff06" style="stroke:#000000;stroke-width:0.8;"/>
      </defs>
      <g>
       <use style="stroke:#000000;stroke-width:0.8;" x="94.175023" xlink:href="#m608e97ff06" y="304"/>
      </g>
     </g>
     <g id="text_1">
      <text style="font-family:DejaVu Sans;font-size:15px;font-style:normal;font-weight:normal;text-anchor:middle;" transform="rotate(-0, 94.175023, 322.397656)" x="94.175023" y="322.397656">0</text>
     </g>
    </g>
    <g id="xtick_2">
     <g id="line2d_2">
      <g>
       <use style="stroke:#000000;stroke-width:0.8;" x="166.896599" xlink:href="#m608e97ff06" y="304"/>
      </g>
     </g>
     <g id="text_2">
      <text style="font-family:DejaVu Sans;font-size:15px;font-style:normal;font-weight:normal;text-anchor:middle;" transform="rotate(-0, 166.896599, 322.397656)" x="166.896599" y="322.397656">250</text>
     </g>
    </g>
    <g id="xtick_3">
     <g id="line2d_3">
      <g>
       <use style="stroke:#000000;stroke-width:0.8;" x="239.618176" xlink:href="#m608e97ff06" y="304"/>
      </g>
     </g>
     <g id="text_3">
      <text style="font-family:DejaVu Sans;font-size:15px;font-style:normal;font-weight:normal;text-anchor:middle;" transform="rotate(-0, 239.618176, 322.397656)" x="239.618176" y="322.397656">500</text>
     </g>
    </g>
    <g id="xtick_4">
     <g id="line2d_4">
      <g>
       <use style="stroke:#000000;stroke-width:0.8;" x="312.339753" xlink:href="#m608e97ff06" y="304"/>
      </g>
     </g>
     <g id="text_4">
      <text style="font-family:DejaVu Sans;font-size:15px;font-style:normal;font-weight:normal;text-anchor:middle;" transform="rotate(-0, 312.339753, 322.397656)" x="312.339753" y="322.397656">750</text>
     </g>
    </g>
    <g id="xtick_5">
     <g id="line2d_5">
      <g>
       <use style="stroke:#000000;stroke-width:0.8;" x="385.061329" xlink:href="#m608e97ff06" y="304"/>
      </g>
     </g>
     <g id="text_5">
      <text style="font-family:DejaVu Sans;font-size:15px;font-style:normal;font-weight:normal;text-anchor:middle;" transform="rotate(-0, 385.061329, 322.397656)" x="385.061329" y="322.397656">1000</text>
     </g>
    </g>
    <g id="xtick_6">
     <g id="line2d_6">
      <g>
       <use style="stroke:#000000;stroke-width:0.8;" x="457.782906" xlink:href="#m608e97ff06" y="304"/>
      </g>
     </g>
     <g id="text_6">
      <text style="font-family:DejaVu Sans;font-size:15px;font-style:normal;font-weight:normal;text-anchor:middle;" transform="rotate(-0, 457.782906, 322.397656)" x="457.782906" y="322.397656">1250</text>
     </g>
    </g>
    <g id="xtick_7">
     <g id="line2d_7">
      <g>
       <use style="stroke:#000000;stroke-width:0.8;" x="530.504483" xlink:href="#m608e97ff06" y="304"/>
      </g>
     </g>
     <g id="text_7">
      <text style="font-family:DejaVu Sans;font-size:15px;font-style:normal;font-weight:normal;text-anchor:middle;" transform="rotate(-0, 530.504483, 322.397656)" x="530.504483" y="322.397656">1500</text>
     </g>
    </g>
    <g id="xtick_8">
     <g id="line2d_8">
      <g>
       <use style="stroke:#000000;stroke-width:0.8;" x="603.226059" xlink:href="#m608e97ff06" y="304"/>
      </g>
     </g>
     <g id="text_8">
      <text style="font-family:DejaVu Sans;font-size:15px;font-style:normal;font-weight:normal;text-anchor:middle;" transform="rotate(-0, 603.226059, 322.397656)" x="603.226059" y="322.397656">1750</text>
     </g>
    </g>
    <g id="xtick_9">
     <g id="line2d_9">
      <g>
       <use style="stroke:#000000;stroke-width:0.8;" x="675.947636" xlink:href="#m608e97ff06" y="304"/>
      </g>
     </g>
     <g id="text_9">
      <text style="font-family:DejaVu Sans;font-size:15px;font-style:normal;font-weight:normal;text-anchor:middle;" transform="rotate(-0, 675.947636, 322.397656)" x="675.947636" y="322.397656">2000</text>
     </g>
    </g>
    <g id="text_10">
     <text style="font-family:DejaVu Sans;font-size:15px;font-style:normal;font-weight:normal;text-anchor:middle;" transform="rotate(-0, 384.625, 340.914844)" x="384.625" y="340.914844">Epochs</text>
    </g>
   </g>
   <g id="matplotlib.axis_2">
    <g id="ytick_1">
     <g id="line2d_10">
      <defs>
       <path d="M 0 0 
L -3.5 0 
" id="m83b10d5194" style="stroke:#000000;stroke-width:0.8;"/>
      </defs>
      <g>
       <use style="stroke:#000000;stroke-width:0.8;" x="65.45" xlink:href="#m83b10d5194" y="303.742135"/>
      </g>
     </g>
     <g id="text_11">
      <text style="font-family:DejaVu Sans;font-size:15px;font-style:normal;font-weight:normal;text-anchor:end;" transform="rotate(-0, 58.45, 309.440964)" x="58.45" y="309.440964">0.0</text>
     </g>
    </g>
    <g id="ytick_2">
     <g id="line2d_11">
      <g>
       <use style="stroke:#000000;stroke-width:0.8;" x="65.45" xlink:href="#m83b10d5194" y="256.744478"/>
      </g>
     </g>
     <g id="text_12">
      <text style="font-family:DejaVu Sans;font-size:15px;font-style:normal;font-weight:normal;text-anchor:end;" transform="rotate(-0, 58.45, 262.443306)" x="58.45" y="262.443306">0.2</text>
     </g>
    </g>
    <g id="ytick_3">
     <g id="line2d_12">
      <g>
       <use style="stroke:#000000;stroke-width:0.8;" x="65.45" xlink:href="#m83b10d5194" y="209.74682"/>
      </g>
     </g>
     <g id="text_13">
      <text style="font-family:DejaVu Sans;font-size:15px;font-style:normal;font-weight:normal;text-anchor:end;" transform="rotate(-0, 58.45, 215.445648)" x="58.45" y="215.445648">0.4</text>
     </g>
    </g>
    <g id="ytick_4">
     <g id="line2d_13">
      <g>
       <use style="stroke:#000000;stroke-width:0.8;" x="65.45" xlink:href="#m83b10d5194" y="162.749163"/>
      </g>
     </g>
     <g id="text_14">
      <text style="font-family:DejaVu Sans;font-size:15px;font-style:normal;font-weight:normal;text-anchor:end;" transform="rotate(-0, 58.45, 168.447991)" x="58.45" y="168.447991">0.6</text>
     </g>
    </g>
    <g id="ytick_5">
     <g id="line2d_14">
      <g>
       <use style="stroke:#000000;stroke-width:0.8;" x="65.45" xlink:href="#m83b10d5194" y="115.751505"/>
      </g>
     </g>
     <g id="text_15">
      <text style="font-family:DejaVu Sans;font-size:15px;font-style:normal;font-weight:normal;text-anchor:end;" transform="rotate(-0, 58.45, 121.450333)" x="58.45" y="121.450333">0.8</text>
     </g>
    </g>
    <g id="ytick_6">
     <g id="line2d_15">
      <g>
       <use style="stroke:#000000;stroke-width:0.8;" x="65.45" xlink:href="#m83b10d5194" y="68.753847"/>
      </g>
     </g>
     <g id="text_16">
      <text style="font-family:DejaVu Sans;font-size:15px;font-style:normal;font-weight:normal;text-anchor:end;" transform="rotate(-0, 58.45, 74.452676)" x="58.45" y="74.452676">1.0</text>
     </g>
    </g>
    <g id="text_17">
     <text style="font-family:DejaVu Sans;font-size:15px;font-style:normal;font-weight:normal;text-anchor:middle;" transform="rotate(-90, 27.475781, 169.94)" x="27.475781" y="169.94">Loss</text>
    </g>
   </g>
   <g id="line2d_16">
    <path clip-path="url(#pbbb2035b51)" d="M 94.465909 48.067273 
L 95.047682 60.691291 
L 95.338568 62.917047 
L 95.920341 76.524735 
L 96.211227 80.62942 
L 96.502113 89.411205 
L 96.793 93.64601 
L 97.083886 102.066205 
L 98.829204 130.741649 
L 99.12009 129.471283 
L 99.410976 136.214899 
L 99.701863 137.925584 
L 99.992749 143.391187 
L 100.574522 148.940422 
L 100.865408 149.583399 
L 101.156294 152.756352 
L 102.028953 157.307393 
L 102.319839 156.608866 
L 102.901612 159.423395 
L 103.192498 162.47092 
L 103.483385 162.473469 
L 103.774271 165.55482 
L 104.065157 165.665246 
L 104.356044 169.049891 
L 104.64693 166.893369 
L 104.937816 172.478096 
L 105.228702 168.004552 
L 105.810475 175.473111 
L 106.101361 173.55649 
L 106.392248 176.000508 
L 106.683134 173.984385 
L 106.97402 178.876707 
L 107.264907 180.012723 
L 107.555793 178.961753 
L 107.846679 179.883976 
L 108.137566 183.855867 
L 108.428452 183.443309 
L 108.719338 181.43377 
L 109.010224 183.335432 
L 109.301111 182.851357 
L 109.591997 183.618571 
L 109.882883 185.401403 
L 110.17377 188.934992 
L 110.464656 184.797237 
L 110.755542 190.296161 
L 111.046429 190.462389 
L 111.337315 188.571498 
L 111.628201 191.22349 
L 111.919087 190.756895 
L 112.209974 193.390377 
L 112.50086 194.234549 
L 112.791746 193.265005 
L 113.082633 193.946907 
L 113.373519 195.899363 
L 113.664405 194.938524 
L 113.955292 195.673076 
L 114.537064 195.264579 
L 114.827951 195.560387 
L 115.118837 194.773137 
L 115.409723 197.529609 
L 115.700609 198.585467 
L 115.991496 198.410751 
L 116.282382 199.354474 
L 116.573268 200.794121 
L 116.864155 200.338549 
L 117.155041 201.165795 
L 117.445927 201.123075 
L 117.736814 201.23472 
L 118.318586 203.767531 
L 118.609473 202.54429 
L 119.191245 205.625269 
L 119.482131 202.781502 
L 119.773018 204.186162 
L 120.063904 204.208887 
L 120.35479 204.645753 
L 120.645677 204.500276 
L 120.936563 203.082766 
L 121.227449 205.054054 
L 121.518336 205.165503 
L 121.809222 209.043516 
L 122.100108 208.55692 
L 122.390995 206.72835 
L 122.681881 203.883084 
L 122.972767 208.111327 
L 123.263653 208.204876 
L 123.55454 208.494318 
L 123.845426 212.058007 
L 124.136312 211.296297 
L 124.427199 211.911108 
L 124.718085 209.583903 
L 125.008971 209.148228 
L 125.590744 213.470622 
L 126.172517 211.557061 
L 126.463403 213.661333 
L 126.754289 212.516506 
L 127.045175 215.568905 
L 127.336062 213.008411 
L 127.626948 215.098571 
L 128.208721 212.516156 
L 128.499607 215.456343 
L 128.790493 214.660234 
L 129.08138 212.860923 
L 129.372266 215.504777 
L 129.663152 213.906767 
L 129.954039 212.951615 
L 130.535811 217.45731 
L 130.826697 216.828493 
L 131.117584 218.114252 
L 131.40847 215.538056 
L 131.699356 215.062637 
L 131.990243 220.400593 
L 132.281129 217.174836 
L 132.572015 215.712954 
L 132.862902 215.511983 
L 133.153788 217.822072 
L 133.444674 217.559186 
L 133.73556 215.567827 
L 134.026447 221.536042 
L 134.317333 219.39651 
L 134.608219 220.421154 
L 134.899106 220.287869 
L 135.189992 218.547939 
L 135.771765 221.207487 
L 136.062651 216.000351 
L 136.353537 221.433985 
L 136.644424 220.712501 
L 136.93531 219.473174 
L 137.226196 220.962936 
L 137.517082 216.847654 
L 137.807969 224.416037 
L 138.098855 223.494549 
L 138.389741 220.68028 
L 138.680628 223.836046 
L 138.971514 220.552814 
L 139.2624 223.116335 
L 139.553287 222.135691 
L 139.844173 221.779599 
L 140.135059 223.269894 
L 140.425946 222.171127 
L 140.716832 223.685561 
L 141.007718 223.261833 
L 141.298604 224.42547 
L 141.589491 223.225815 
L 141.880377 223.777884 
L 142.171263 222.343252 
L 142.46215 223.876987 
L 142.753036 223.311247 
L 143.043922 223.292983 
L 143.334809 224.270826 
L 143.625695 221.514682 
L 143.916581 227.702539 
L 144.207468 225.174714 
L 144.498354 226.445626 
L 144.78924 224.535918 
L 145.080126 225.416485 
L 145.371013 223.794944 
L 145.661899 225.856307 
L 145.952785 225.868542 
L 146.243672 227.008732 
L 146.534558 226.90678 
L 146.825444 224.428376 
L 147.116331 226.874516 
L 147.407217 224.658018 
L 147.698103 226.911549 
L 147.98899 226.573028 
L 148.279876 225.471166 
L 148.570762 228.338296 
L 148.861648 222.983239 
L 149.152535 228.595608 
L 149.443421 225.659454 
L 149.734307 223.947383 
L 150.025194 227.462953 
L 150.31608 228.65449 
L 150.897853 226.407879 
L 151.188739 226.634271 
L 151.479625 229.448002 
L 151.770512 226.386057 
L 152.061398 227.318337 
L 152.352284 229.099067 
L 152.64317 228.906788 
L 152.934057 231.281838 
L 153.224943 230.322918 
L 153.515829 230.182301 
L 153.806716 227.436789 
L 154.097602 225.880594 
L 154.388488 226.600341 
L 154.679375 228.32485 
L 154.970261 228.578989 
L 155.261147 225.862176 
L 155.552033 228.859145 
L 155.84292 229.863046 
L 156.133806 228.945676 
L 156.424692 227.49724 
L 156.715579 230.82698 
L 157.297351 228.205992 
L 157.588238 232.23657 
L 157.879124 228.707253 
L 158.460897 232.399317 
L 158.751783 231.599727 
L 159.042669 230.16667 
L 159.333555 231.41048 
L 159.624442 228.464228 
L 160.206214 230.505575 
L 160.497101 229.78426 
L 160.787987 230.435074 
L 161.078873 229.217393 
L 161.36976 234.851339 
L 161.660646 230.520464 
L 161.951532 230.797966 
L 162.242419 233.341037 
L 162.533305 232.557589 
L 162.824191 234.971052 
L 163.115077 232.517692 
L 163.405964 228.256289 
L 163.69685 228.750658 
L 163.987736 231.030843 
L 164.278623 231.842423 
L 164.569509 234.540285 
L 164.860395 234.116228 
L 165.442168 232.097437 
L 165.733054 234.52756 
L 166.023941 231.337429 
L 166.605713 234.841156 
L 166.896599 234.242257 
L 167.187486 235.941821 
L 167.478372 234.116977 
L 167.769258 233.034927 
L 168.060145 230.967331 
L 168.351031 232.500345 
L 168.641917 232.213347 
L 168.932804 233.552239 
L 169.22369 232.519303 
L 169.514576 232.352501 
L 169.805463 234.236486 
L 170.096349 231.061776 
L 170.387235 235.368329 
L 170.969008 233.647455 
L 171.259894 234.906811 
L 171.55078 233.175432 
L 171.841667 233.151656 
L 172.132553 234.439243 
L 172.423439 232.010114 
L 173.005212 233.514646 
L 173.296098 234.710589 
L 173.586985 233.319495 
L 173.877871 233.821785 
L 174.168757 234.755108 
L 174.75053 234.281979 
L 175.041416 235.846262 
L 175.332302 236.384584 
L 175.623189 233.80579 
L 175.914075 234.768554 
L 176.204961 236.706703 
L 176.495848 237.135369 
L 176.786734 235.636482 
L 177.07762 234.787491 
L 177.659393 238.578027 
L 177.950279 235.347971 
L 178.241165 236.464399 
L 178.532052 231.833361 
L 178.822938 233.837052 
L 179.113824 234.529927 
L 179.404711 233.418065 
L 179.986483 236.75326 
L 180.27737 231.998986 
L 180.568256 239.0221 
L 180.859142 234.827157 
L 181.150028 234.903107 
L 181.440915 235.276811 
L 181.731801 238.792318 
L 182.022687 235.278709 
L 182.313574 237.696864 
L 182.60446 236.131404 
L 182.895346 236.894662 
L 183.186233 237.007609 
L 183.477119 237.512673 
L 183.768005 236.477376 
L 184.058892 235.939412 
L 184.349778 236.951752 
L 184.640664 237.524039 
L 185.222437 235.424425 
L 185.513323 239.547214 
L 186.095096 235.378547 
L 186.385982 239.638921 
L 186.676868 237.599548 
L 186.967755 237.659852 
L 187.258641 238.057571 
L 187.549527 240.158698 
L 187.840414 237.862266 
L 188.1313 238.125152 
L 188.422186 239.608723 
L 188.713072 237.651112 
L 189.003959 239.764033 
L 189.294845 236.315988 
L 189.585731 239.236979 
L 189.876618 238.651183 
L 190.167504 241.093337 
L 190.45839 241.912529 
L 190.749277 238.859766 
L 191.040163 240.93309 
L 191.331049 238.514249 
L 191.621936 238.606439 
L 191.912822 240.275364 
L 192.203708 239.731888 
L 192.494594 237.96141 
L 192.785481 239.034818 
L 193.076367 239.027541 
L 193.367253 238.005047 
L 193.65814 237.872966 
L 193.949026 240.062446 
L 194.239912 239.506133 
L 194.530799 241.97775 
L 194.821685 239.447005 
L 195.112571 238.702726 
L 195.403458 241.307698 
L 195.694344 240.564771 
L 195.98523 239.222132 
L 196.276116 239.265727 
L 196.567003 240.301542 
L 196.857889 240.410141 
L 197.148775 235.858658 
L 197.439662 240.887422 
L 197.730548 241.821467 
L 198.021434 241.619936 
L 198.312321 240.521344 
L 198.894093 242.60336 
L 199.184979 239.548159 
L 199.475866 239.013962 
L 199.766752 239.970788 
L 200.057638 241.701971 
L 200.348525 241.684057 
L 200.639411 240.891029 
L 200.930297 241.994159 
L 201.221184 242.286213 
L 201.51207 243.38056 
L 201.802956 242.735769 
L 202.093843 242.635847 
L 202.384729 242.271912 
L 202.675615 242.901864 
L 202.966501 242.452056 
L 203.548274 240.179518 
L 203.83916 245.393122 
L 204.130047 244.548371 
L 204.420933 243.29571 
L 204.711819 242.852246 
L 205.002706 240.518158 
L 205.293592 239.829856 
L 205.875365 244.152495 
L 206.457137 242.243164 
L 206.748023 240.4469 
L 207.03891 240.861378 
L 207.329796 242.429743 
L 207.620682 242.553525 
L 207.911569 242.175352 
L 208.202455 240.890567 
L 208.493341 244.495539 
L 208.784228 240.820934 
L 209.075114 241.998809 
L 209.366 244.529043 
L 209.656887 242.772081 
L 209.947773 242.660779 
L 210.238659 243.912607 
L 210.529545 245.900027 
L 210.820432 242.05627 
L 211.111318 242.443127 
L 211.402204 241.272787 
L 211.693091 245.064647 
L 211.983977 241.973737 
L 212.274863 240.851293 
L 212.56575 243.120161 
L 212.856636 244.38624 
L 213.438409 242.630021 
L 213.729295 245.061289 
L 214.020181 244.809612 
L 214.311067 243.521185 
L 214.601954 243.075781 
L 214.89284 244.10516 
L 215.183726 243.041977 
L 215.474613 245.257862 
L 215.765499 244.76512 
L 216.056385 246.456995 
L 216.638158 244.713731 
L 216.929044 246.781968 
L 217.219931 246.478228 
L 217.510817 248.276275 
L 218.092589 244.27227 
L 218.383476 244.985567 
L 218.674362 243.839501 
L 218.965248 244.285962 
L 219.256135 246.646029 
L 219.547021 246.569011 
L 219.837907 245.597093 
L 220.128794 243.810172 
L 220.41968 244.555011 
L 221.001452 248.323592 
L 221.292339 247.348813 
L 221.583225 248.568003 
L 221.874111 245.497329 
L 222.164998 245.955657 
L 222.455884 245.870873 
L 222.74677 245.562004 
L 223.037657 244.237472 
L 223.328543 246.435113 
L 223.619429 246.795417 
L 223.910316 245.220024 
L 224.201202 244.441986 
L 224.492088 247.556707 
L 224.782974 247.579803 
L 225.073861 247.896593 
L 225.655633 246.439396 
L 225.94652 246.546618 
L 226.528292 246.943125 
L 226.819179 244.467891 
L 227.110065 246.535861 
L 227.400951 246.900132 
L 227.691838 244.722282 
L 227.982724 247.518952 
L 228.27361 246.547564 
L 228.564496 246.502032 
L 228.855383 248.216642 
L 229.146269 247.913197 
L 229.437155 251.325873 
L 229.728042 247.284534 
L 230.018928 245.623086 
L 230.600701 250.371509 
L 230.891587 247.554931 
L 231.182473 247.293243 
L 231.47336 250.733574 
L 231.764246 249.78358 
L 232.055132 246.943178 
L 232.346018 248.881242 
L 232.636905 246.930299 
L 232.927791 249.67892 
L 233.218677 247.426216 
L 233.509564 247.517814 
L 233.80045 248.817247 
L 234.091336 248.642503 
L 234.382223 251.108322 
L 234.673109 246.53063 
L 234.963995 244.361148 
L 235.254882 248.945742 
L 235.545768 249.882528 
L 235.836654 253.994413 
L 236.418427 248.023624 
L 236.709313 248.653414 
L 237.000199 247.946624 
L 237.291086 251.311544 
L 237.581972 249.300793 
L 237.872858 251.215212 
L 238.163745 248.598719 
L 238.454631 249.210977 
L 238.745517 247.611969 
L 239.036404 252.235889 
L 239.32729 251.02601 
L 239.618176 252.043182 
L 239.909062 249.065517 
L 240.199949 247.836982 
L 240.490835 248.666405 
L 240.781721 251.214032 
L 241.072608 249.091506 
L 241.363494 248.489189 
L 241.65438 252.625466 
L 241.945267 251.320417 
L 242.236153 253.040539 
L 242.527039 247.680768 
L 242.817925 251.393772 
L 243.108812 250.992468 
L 243.399698 251.026819 
L 243.690584 250.391552 
L 243.981471 252.183866 
L 244.272357 250.831436 
L 244.563243 251.680164 
L 244.85413 247.639779 
L 245.145016 251.273555 
L 245.435902 253.213602 
L 245.726789 250.411329 
L 246.017675 251.199773 
L 246.308561 253.896284 
L 246.599447 252.921719 
L 246.890334 250.841654 
L 247.472106 253.603704 
L 247.762993 247.998794 
L 248.053879 252.455982 
L 248.344765 255.098376 
L 248.635652 251.471693 
L 248.926538 251.903304 
L 249.217424 253.983148 
L 249.508311 251.652635 
L 250.090083 254.560625 
L 250.380969 253.978988 
L 250.671856 250.969949 
L 250.962742 255.522423 
L 251.253628 255.587574 
L 251.544515 251.01263 
L 252.126287 254.23047 
L 252.417174 253.01927 
L 252.70806 252.798761 
L 252.998946 251.115266 
L 253.289833 252.092026 
L 253.580719 254.262824 
L 253.871605 254.810002 
L 254.162491 251.359295 
L 254.744264 256.432145 
L 255.03515 255.954968 
L 255.326037 254.933174 
L 255.616923 254.822334 
L 255.907809 254.195611 
L 256.198696 252.47044 
L 256.489582 254.877782 
L 256.780468 251.018051 
L 257.071355 256.381288 
L 257.653127 252.905146 
L 257.944013 253.083696 
L 258.2349 252.350346 
L 258.525786 256.472392 
L 258.816672 253.600781 
L 259.107559 252.93248 
L 259.398445 255.094328 
L 259.689331 253.648658 
L 259.980218 256.511596 
L 260.271104 255.69169 
L 260.56199 251.746257 
L 260.852877 249.517647 
L 261.143763 256.24531 
L 261.434649 255.142373 
L 261.725535 257.33658 
L 262.307308 252.369184 
L 262.598194 254.254701 
L 262.889081 257.156951 
L 263.179967 256.096489 
L 263.470853 254.294059 
L 263.76174 256.76611 
L 264.052626 255.280543 
L 264.343512 256.940773 
L 264.634398 251.541886 
L 264.925285 256.153561 
L 265.216171 257.170257 
L 265.507057 257.737993 
L 265.797944 255.02687 
L 266.08883 258.144966 
L 266.379716 254.245936 
L 266.670603 259.783665 
L 267.252375 254.090073 
L 267.543262 256.281923 
L 267.834148 253.775689 
L 268.125034 256.742093 
L 268.41592 257.94492 
L 268.706807 251.957456 
L 268.997693 258.687749 
L 269.288579 256.138081 
L 269.579466 257.763145 
L 269.870352 258.490661 
L 270.161238 256.036689 
L 270.452125 258.692875 
L 270.743011 256.447426 
L 271.033897 257.714122 
L 271.324784 255.575433 
L 271.61567 256.68676 
L 271.906556 256.540428 
L 272.488329 257.384681 
L 272.779215 259.010785 
L 273.070101 256.286927 
L 273.360988 258.863676 
L 273.651874 258.362317 
L 274.233647 255.458452 
L 274.524533 256.676171 
L 274.815419 255.549389 
L 275.106306 257.374068 
L 275.397192 255.907094 
L 275.688078 261.372358 
L 276.269851 259.267162 
L 276.560737 255.848985 
L 276.851623 257.332252 
L 277.14251 257.706611 
L 277.433396 257.036136 
L 277.724282 259.771924 
L 278.015169 257.585904 
L 278.306055 253.344285 
L 278.596941 257.195977 
L 278.887828 256.041822 
L 279.178714 262.659545 
L 279.4696 259.480293 
L 279.760486 258.935403 
L 280.051373 254.489917 
L 280.342259 263.292172 
L 280.633145 256.213421 
L 281.214918 258.948404 
L 281.505804 258.869842 
L 281.796691 260.495116 
L 282.087577 258.042288 
L 282.378463 260.168585 
L 282.66935 258.60738 
L 282.960236 258.714599 
L 283.251122 259.11515 
L 283.542008 260.92187 
L 283.832895 260.911239 
L 284.123781 257.207563 
L 284.414667 258.955771 
L 284.99644 257.650645 
L 285.287326 258.099091 
L 285.578213 261.309654 
L 285.869099 258.639332 
L 286.159985 260.35542 
L 286.450871 260.794709 
L 286.741758 261.892692 
L 287.032644 261.049209 
L 287.32353 263.506641 
L 287.614417 256.586814 
L 287.905303 261.667416 
L 288.196189 260.584866 
L 288.487076 260.865547 
L 288.777962 257.692535 
L 289.068848 257.809376 
L 289.359735 259.934353 
L 289.650621 257.596602 
L 289.941507 261.137201 
L 290.232393 260.201906 
L 290.52328 260.188555 
L 290.814166 258.976329 
L 291.105052 260.987837 
L 291.395939 260.167104 
L 291.686825 260.330594 
L 291.977711 261.070978 
L 292.268598 261.251027 
L 292.559484 263.342525 
L 292.85037 262.492214 
L 293.141257 260.50873 
L 293.432143 262.813763 
L 293.723029 261.196693 
L 294.013915 261.417871 
L 294.304802 256.003322 
L 294.595688 261.238306 
L 294.886574 258.35711 
L 295.177461 264.09492 
L 295.468347 264.207234 
L 295.759233 262.578322 
L 296.05012 256.645431 
L 296.341006 263.107435 
L 296.631892 264.019958 
L 296.922779 258.223969 
L 297.213665 260.861005 
L 297.504551 261.430015 
L 297.795437 257.084395 
L 298.086324 264.854729 
L 298.37721 260.995985 
L 298.668096 261.200349 
L 298.958983 260.514049 
L 299.249869 263.285368 
L 299.540755 263.578091 
L 299.831642 261.701988 
L 300.122528 261.802883 
L 300.413414 262.964905 
L 300.704301 261.207958 
L 300.995187 261.175963 
L 301.286073 264.034423 
L 301.576959 259.770586 
L 301.867846 262.997334 
L 302.449618 258.60017 
L 303.031391 266.425829 
L 303.322277 263.927337 
L 303.613164 264.79011 
L 303.90405 261.294079 
L 304.194936 264.66602 
L 304.485823 263.008192 
L 304.776709 263.632062 
L 305.067595 263.014625 
L 305.358481 264.556505 
L 305.649368 263.131256 
L 305.940254 264.708747 
L 306.23114 264.814082 
L 306.522027 260.889893 
L 306.812913 262.231793 
L 307.103799 261.605515 
L 307.394686 265.561593 
L 307.685572 260.868534 
L 307.976458 259.931173 
L 308.267344 264.024514 
L 308.558231 262.907455 
L 308.849117 263.903533 
L 309.140003 265.680048 
L 309.43089 261.355855 
L 309.721776 265.33201 
L 310.012662 263.316977 
L 310.303549 263.538278 
L 310.594435 264.556501 
L 310.885321 261.912651 
L 311.176208 263.733086 
L 311.467094 263.714874 
L 311.75798 265.965446 
L 312.048866 263.667442 
L 312.339753 263.817576 
L 312.630639 263.23976 
L 312.921525 265.821289 
L 313.212412 264.450648 
L 313.503298 264.329927 
L 313.794184 263.127705 
L 314.375957 261.59771 
L 314.666843 262.076539 
L 314.95773 263.733755 
L 315.248616 264.141134 
L 315.539502 264.209146 
L 315.830388 266.545472 
L 316.121275 263.912589 
L 316.412161 266.548938 
L 316.703047 264.406678 
L 317.28482 264.02521 
L 317.575706 264.503354 
L 317.866593 262.917455 
L 318.157479 265.309705 
L 318.448365 264.616214 
L 318.739252 268.358988 
L 319.030138 264.40915 
L 319.321024 262.536429 
L 319.61191 265.77754 
L 319.902797 267.28516 
L 320.193683 265.89269 
L 320.484569 266.250602 
L 320.775456 266.958247 
L 321.066342 265.92974 
L 321.357228 266.048192 
L 321.648115 264.631446 
L 321.939001 265.977684 
L 322.520774 264.086331 
L 322.81166 264.150067 
L 323.102546 262.183863 
L 323.684319 267.459526 
L 323.975205 268.113607 
L 324.266091 263.228698 
L 324.556978 268.349653 
L 324.847864 265.948306 
L 325.13875 267.620883 
L 325.429637 267.341823 
L 325.720523 265.885634 
L 326.302296 264.722519 
L 326.884068 266.262592 
L 327.465841 265.912894 
L 327.756727 267.503684 
L 328.047613 264.700102 
L 328.629386 268.162289 
L 328.920272 266.849642 
L 329.211159 267.839859 
L 329.502045 264.45965 
L 329.792931 262.587759 
L 330.083817 268.682354 
L 330.374704 267.192529 
L 330.66559 267.912976 
L 330.956476 264.234301 
L 331.247363 268.848995 
L 331.538249 264.586587 
L 331.829135 268.514466 
L 332.120022 265.42704 
L 332.410908 266.61063 
L 332.701794 263.207416 
L 332.992681 265.775943 
L 333.283567 265.967894 
L 333.574453 267.723052 
L 333.865339 266.680564 
L 334.156226 267.996156 
L 334.447112 264.271159 
L 334.737998 266.095124 
L 335.028885 268.635495 
L 335.319771 266.228087 
L 335.610657 266.75034 
L 335.901544 264.655138 
L 336.19243 268.733334 
L 336.483316 268.06714 
L 337.065089 267.582155 
L 337.355975 268.722093 
L 337.646861 267.049002 
L 337.937748 269.038284 
L 338.228634 264.86392 
L 338.51952 263.864711 
L 338.810407 266.518135 
L 339.101293 268.055939 
L 339.392179 267.669177 
L 339.683066 269.860806 
L 339.973952 264.984386 
L 340.264838 267.720601 
L 340.555725 267.344015 
L 341.137497 267.309825 
L 341.428383 267.018709 
L 341.71927 270.398197 
L 342.010156 266.490045 
L 342.301042 266.606918 
L 342.591929 266.329143 
L 342.882815 267.917223 
L 343.173701 264.285446 
L 343.464588 269.182235 
L 343.755474 269.71841 
L 344.04636 272.217168 
L 344.337247 267.083626 
L 344.628133 271.872755 
L 344.919019 264.35739 
L 345.209905 265.380014 
L 345.500792 269.697635 
L 345.791678 269.864833 
L 346.082564 262.953602 
L 346.373451 265.778709 
L 346.664337 269.971404 
L 346.955223 269.932253 
L 347.24611 269.642243 
L 347.536996 269.150626 
L 348.118769 267.344824 
L 348.409655 270.215168 
L 348.700541 267.369836 
L 348.991427 271.62378 
L 349.282314 264.349427 
L 349.5732 271.487061 
L 350.154973 269.90438 
L 350.445859 268.779649 
L 350.736745 268.181072 
L 351.027632 267.309023 
L 351.318518 270.342749 
L 351.609404 267.643426 
L 351.90029 269.453045 
L 352.191177 273.087421 
L 352.482063 269.316826 
L 352.772949 269.584131 
L 353.063836 268.415098 
L 353.354722 267.839782 
L 353.645608 269.517093 
L 353.936495 272.009681 
L 354.227381 271.839959 
L 354.518267 270.416685 
L 354.809154 270.788219 
L 355.10004 270.691592 
L 355.390926 270.896992 
L 355.681812 272.263715 
L 355.972699 270.060131 
L 356.263585 270.03527 
L 356.554471 265.909389 
L 356.845358 271.833792 
L 357.136244 271.49718 
L 357.42713 269.057827 
L 357.718017 267.736285 
L 358.008903 267.073702 
L 358.299789 269.046327 
L 358.590676 269.352801 
L 358.881562 267.202435 
L 359.172448 271.62848 
L 359.463334 268.766161 
L 359.754221 274.014234 
L 360.045107 270.159353 
L 360.335993 269.993499 
L 360.62688 269.599097 
L 360.917766 267.865722 
L 361.208652 271.037655 
L 361.499539 271.276156 
L 361.790425 266.913357 
L 362.372198 272.821796 
L 362.663084 269.982462 
L 362.95397 270.108754 
L 363.244856 270.910943 
L 363.535743 271.129624 
L 363.826629 272.013109 
L 364.117515 268.773189 
L 364.408402 274.574283 
L 364.699288 268.643759 
L 364.990174 270.031208 
L 365.281061 268.231716 
L 365.862833 270.502008 
L 366.15372 271.216972 
L 366.444606 273.952998 
L 366.735492 268.838119 
L 367.026378 267.756836 
L 367.317265 271.932016 
L 367.608151 273.194899 
L 367.899037 273.135641 
L 368.189924 268.348764 
L 368.48081 270.840161 
L 368.771696 271.141029 
L 369.062583 271.040502 
L 369.353469 273.223416 
L 369.644355 271.658534 
L 369.935242 271.053934 
L 370.226128 269.119654 
L 370.517014 274.012333 
L 370.8079 272.752115 
L 371.098787 268.424339 
L 371.389673 273.518075 
L 371.680559 270.890913 
L 371.971446 272.059246 
L 372.262332 271.460504 
L 372.553218 272.310689 
L 372.844105 269.197299 
L 373.134991 273.172355 
L 373.425877 272.840337 
L 373.716763 272.820651 
L 374.00765 270.480407 
L 374.298536 271.196585 
L 374.589422 272.900281 
L 374.880309 273.87374 
L 375.171195 269.696074 
L 375.462081 268.16847 
L 375.752968 269.087702 
L 376.043854 272.020175 
L 376.33474 269.105928 
L 376.625627 271.856889 
L 376.916513 272.857492 
L 377.207399 271.346752 
L 377.498285 271.292568 
L 377.789172 271.75585 
L 378.080058 273.36176 
L 378.370944 273.38354 
L 378.661831 268.217776 
L 378.952717 272.742482 
L 379.243603 272.838706 
L 379.53449 271.53721 
L 379.825376 272.449755 
L 380.116262 271.696649 
L 380.407149 268.232868 
L 380.698035 272.582389 
L 380.988921 272.960032 
L 381.279807 272.197755 
L 381.570694 270.370488 
L 381.86158 275.141201 
L 382.152466 271.588824 
L 382.443353 271.292396 
L 382.734239 274.93364 
L 383.025125 270.339086 
L 383.606898 274.326143 
L 383.897784 273.881447 
L 384.188671 273.900513 
L 384.479557 269.572716 
L 384.770443 274.226382 
L 385.061329 271.964472 
L 385.352216 272.536444 
L 385.643102 272.47456 
L 386.224875 270.614942 
L 386.515761 273.506562 
L 386.806647 273.522021 
L 387.097534 272.406633 
L 387.38842 270.384523 
L 387.679306 271.700844 
L 387.970193 270.454656 
L 388.261079 273.554243 
L 388.551965 273.500333 
L 389.133738 270.829699 
L 389.424624 275.170819 
L 389.71551 269.337678 
L 390.006397 272.705337 
L 390.297283 271.034763 
L 390.588169 272.283163 
L 390.879056 276.26253 
L 391.169942 274.108207 
L 391.460828 274.803545 
L 391.751715 273.301813 
L 392.333487 275.26701 
L 392.624373 274.649333 
L 392.91526 273.67668 
L 393.206146 272.265683 
L 393.497032 270.015384 
L 394.078805 274.11445 
L 394.369691 273.678679 
L 394.660578 276.162934 
L 394.951464 274.465891 
L 395.24235 275.813994 
L 395.533237 272.011264 
L 395.824123 273.234971 
L 396.115009 273.622906 
L 396.405895 274.335117 
L 396.696782 276.731399 
L 396.987668 270.999466 
L 397.278554 274.249041 
L 397.569441 274.573163 
L 398.151213 271.014387 
L 398.4421 277.747248 
L 398.732986 270.717899 
L 399.023872 271.965628 
L 399.314758 274.680765 
L 399.605645 274.316321 
L 399.896531 275.02198 
L 400.187417 276.286961 
L 400.478304 274.468829 
L 400.76919 276.869091 
L 401.060076 272.349847 
L 401.350963 272.396051 
L 401.641849 275.880614 
L 402.223622 271.796787 
L 402.514508 274.853732 
L 402.805394 276.324801 
L 403.09628 277.080776 
L 403.387167 277.148278 
L 403.678053 271.265662 
L 403.968939 275.104742 
L 404.259826 272.858938 
L 404.550712 274.240763 
L 404.841598 274.282492 
L 405.132485 275.727521 
L 405.423371 274.411375 
L 405.714257 277.29624 
L 406.005144 274.186285 
L 406.29603 277.019134 
L 406.586916 273.62118 
L 406.877802 272.885326 
L 407.168689 275.694805 
L 407.459575 274.997409 
L 407.750461 272.928245 
L 408.041348 273.250742 
L 408.332234 272.63445 
L 408.62312 273.783556 
L 408.914007 272.469553 
L 409.204893 274.487701 
L 409.495779 275.365618 
L 409.786666 273.781938 
L 410.077552 274.581605 
L 410.368438 273.782474 
L 410.659324 277.254934 
L 410.950211 273.231956 
L 411.241097 276.082977 
L 411.531983 273.479312 
L 411.82287 275.737474 
L 412.113756 273.488501 
L 412.404642 272.909434 
L 412.695529 275.946386 
L 412.986415 272.410933 
L 413.277301 275.600992 
L 413.568188 272.331373 
L 413.859074 276.603181 
L 414.14996 274.942371 
L 414.440846 275.295107 
L 414.731733 276.114442 
L 415.022619 277.360855 
L 415.313505 274.9668 
L 415.604392 274.561975 
L 416.186164 278.419875 
L 416.477051 278.526287 
L 416.767937 274.332197 
L 417.058823 274.379551 
L 417.34971 275.708514 
L 417.640596 275.672719 
L 417.931482 274.119835 
L 418.222368 274.917792 
L 418.513255 272.761495 
L 418.804141 273.646608 
L 419.095027 273.942966 
L 419.6768 276.450408 
L 419.967686 271.346839 
L 420.258573 276.099868 
L 420.549459 277.941532 
L 420.840345 276.515063 
L 421.131231 279.771536 
L 421.713004 274.798133 
L 422.00389 270.041174 
L 422.294777 273.758621 
L 422.585663 273.844918 
L 422.876549 274.599232 
L 423.167436 277.853761 
L 423.458322 275.376979 
L 423.749208 276.432811 
L 424.040095 279.146712 
L 424.330981 278.386694 
L 424.621867 275.957975 
L 424.912753 276.347419 
L 425.20364 276.443666 
L 425.494526 277.777586 
L 425.785412 274.494361 
L 426.076299 276.160294 
L 426.367185 281.065226 
L 426.658071 270.912102 
L 426.948958 275.248668 
L 427.239844 277.117086 
L 427.53073 276.340423 
L 427.821617 272.990206 
L 428.112503 277.845009 
L 428.403389 273.346977 
L 428.694275 276.724916 
L 428.985162 276.789041 
L 429.857821 276.299878 
L 430.148707 274.393841 
L 430.439593 277.931014 
L 430.73048 276.087296 
L 431.021366 276.468939 
L 431.312252 273.038591 
L 431.894025 278.197664 
L 432.184911 276.511632 
L 432.475797 276.522998 
L 432.766684 275.908926 
L 433.05757 276.134541 
L 433.348456 273.451265 
L 433.639343 277.748715 
L 433.930229 276.263586 
L 434.221115 276.447941 
L 434.512002 275.622744 
L 434.802888 275.586042 
L 435.093774 275.284441 
L 435.384661 277.584198 
L 435.675547 278.987707 
L 435.966433 276.330713 
L 436.257319 277.624259 
L 436.548206 274.482809 
L 437.129978 278.805559 
L 437.420865 275.342382 
L 437.711751 277.951337 
L 438.002637 279.354713 
L 438.58441 276.360487 
L 439.166183 277.701799 
L 439.457069 273.298686 
L 440.038841 278.633257 
L 440.329728 276.054668 
L 440.620614 275.967223 
L 440.9115 280.369189 
L 441.202387 275.652403 
L 441.493273 280.677701 
L 441.784159 279.576698 
L 442.075046 277.622388 
L 442.365932 279.420592 
L 442.656818 278.130599 
L 442.947704 274.908506 
L 443.238591 277.971574 
L 443.529477 275.320197 
L 443.820363 279.123808 
L 444.402136 274.610919 
L 444.693022 275.731871 
L 444.983909 278.24473 
L 445.565681 279.786712 
L 445.856568 277.320771 
L 446.147454 280.409004 
L 446.43834 277.083173 
L 446.729226 277.262613 
L 447.020113 274.683316 
L 447.310999 273.78295 
L 447.601885 276.674348 
L 447.892772 277.254421 
L 448.183658 278.687949 
L 448.474544 277.984212 
L 448.765431 278.761808 
L 449.347203 274.552467 
L 450.219862 279.885387 
L 450.801635 278.375247 
L 451.092521 277.997835 
L 451.383407 276.938032 
L 451.674294 278.539052 
L 451.96518 278.63866 
L 452.256066 276.588891 
L 452.546953 280.584498 
L 452.837839 277.202958 
L 453.128725 276.254748 
L 453.419612 278.764404 
L 453.710498 277.559321 
L 454.001384 281.336005 
L 454.29227 280.127552 
L 454.583157 278.029857 
L 454.874043 280.135098 
L 455.164929 276.667322 
L 456.037588 280.89369 
L 456.328475 276.302005 
L 456.619361 278.999742 
L 456.910247 278.748894 
L 457.201134 278.170558 
L 457.49202 275.02124 
L 457.782906 277.590443 
L 458.073792 276.51472 
L 458.364679 278.353278 
L 458.655565 279.17295 
L 458.946451 280.977966 
L 459.237338 274.870196 
L 459.528224 277.115966 
L 459.81911 276.791268 
L 460.109997 279.223382 
L 460.400883 277.391937 
L 460.691769 273.894571 
L 460.982656 281.779387 
L 461.273542 279.586342 
L 461.564428 281.632539 
L 462.146201 276.891664 
L 462.437087 278.064594 
L 462.727973 280.989761 
L 463.01886 279.237264 
L 463.309746 276.101913 
L 463.600632 280.255698 
L 463.891519 280.010156 
L 464.182405 279.06473 
L 464.473291 277.702091 
L 464.764177 281.093592 
L 465.055064 278.718696 
L 465.636836 278.945327 
L 465.927723 278.844766 
L 466.218609 277.135578 
L 466.509495 277.992095 
L 466.800382 277.702986 
L 467.091268 278.516423 
L 467.382154 278.800686 
L 467.963927 279.63924 
L 468.254813 278.786293 
L 468.545699 278.783667 
L 468.836586 279.028553 
L 469.127472 279.433201 
L 469.418358 280.154427 
L 469.709245 279.495633 
L 470.000131 276.283993 
L 470.291017 279.839351 
L 470.581904 280.297007 
L 470.87279 278.464522 
L 471.163676 278.937112 
L 471.454563 278.941407 
L 471.745449 278.479106 
L 472.036335 281.404835 
L 472.327221 276.769922 
L 472.618108 278.713866 
L 472.908994 277.928189 
L 473.19988 276.368957 
L 473.490767 277.982811 
L 473.781653 280.400309 
L 474.072539 280.879107 
L 474.363426 280.053663 
L 474.654312 277.472985 
L 474.945198 280.458247 
L 475.236085 279.854869 
L 475.526971 277.559179 
L 475.817857 283.580503 
L 476.39963 276.553497 
L 476.690516 283.302241 
L 476.981402 275.333626 
L 477.272289 282.067343 
L 477.563175 280.413181 
L 477.854061 276.830093 
L 478.72672 282.248778 
L 479.017607 281.530683 
L 479.308493 282.64351 
L 479.599379 280.854619 
L 479.890265 281.680683 
L 480.181152 276.951235 
L 480.472038 279.613967 
L 480.762924 279.524097 
L 481.053811 280.967726 
L 481.344697 278.669105 
L 481.635583 278.440239 
L 482.217356 281.286581 
L 482.508242 278.562411 
L 483.090015 281.593817 
L 483.671787 280.335279 
L 483.962674 279.061128 
L 484.25356 280.56369 
L 484.544446 278.065139 
L 484.835333 282.341525 
L 485.126219 277.639164 
L 485.417105 280.659849 
L 485.707992 279.744647 
L 486.58065 282.306082 
L 487.162423 278.483902 
L 487.453309 278.982416 
L 488.035082 284.289191 
L 488.325968 280.996353 
L 488.616855 281.02837 
L 488.907741 279.450425 
L 489.198627 279.078416 
L 489.489514 279.092418 
L 490.071286 280.995024 
L 490.362172 281.997749 
L 490.653059 277.583893 
L 490.943945 282.40961 
L 491.234831 281.893076 
L 491.525718 279.090218 
L 491.816604 278.843852 
L 492.398377 283.139251 
L 492.980149 280.128468 
L 493.271036 280.57579 
L 493.561922 280.454589 
L 493.852808 278.529855 
L 494.143694 281.584117 
L 494.434581 281.60041 
L 494.725467 282.050133 
L 495.016353 283.059847 
L 495.598126 277.657101 
L 496.470785 281.213948 
L 496.761671 278.382709 
L 497.052558 281.407948 
L 497.343444 279.904821 
L 497.63433 279.383828 
L 497.925216 278.434519 
L 498.216103 282.882202 
L 498.506989 282.135941 
L 498.797875 280.356096 
L 499.088762 283.232174 
L 499.670534 280.144344 
L 499.961421 279.764163 
L 500.252307 279.005978 
L 500.83408 279.749928 
L 501.124966 280.733206 
L 501.415852 284.168118 
L 501.706738 279.666047 
L 502.288511 282.887943 
L 502.579397 281.582591 
L 503.16117 283.532058 
L 503.452056 283.494476 
L 503.742943 278.970276 
L 504.033829 278.400086 
L 504.324715 280.634529 
L 504.615602 279.942692 
L 504.906488 280.947691 
L 505.197374 279.351724 
L 505.48826 282.859303 
L 505.779147 281.643532 
L 506.070033 278.626259 
L 506.360919 281.679149 
L 506.651806 281.843584 
L 506.942692 281.76169 
L 507.233578 283.245678 
L 507.524465 284.040259 
L 507.815351 286.523728 
L 508.106237 278.284258 
L 508.397123 277.251773 
L 508.68801 282.15006 
L 508.978896 280.824799 
L 509.269782 280.279506 
L 509.560669 281.698024 
L 510.142441 282.548086 
L 510.433328 284.060758 
L 510.724214 280.712487 
L 511.0151 284.461438 
L 511.305987 278.843099 
L 511.596873 280.916933 
L 511.887759 284.535394 
L 512.178645 280.509767 
L 512.469532 282.449287 
L 512.760418 283.212548 
L 513.051304 281.837027 
L 513.342191 282.536209 
L 513.633077 279.655787 
L 513.923963 282.18087 
L 514.21485 282.442919 
L 514.505736 281.772624 
L 514.796622 285.13725 
L 515.087509 282.374558 
L 515.669281 280.007815 
L 515.960167 284.236079 
L 516.251054 278.837821 
L 516.54194 284.249096 
L 516.832826 282.209636 
L 517.123713 277.462969 
L 517.414599 280.507211 
L 517.705485 285.558438 
L 517.996372 281.768417 
L 518.287258 280.524231 
L 518.578144 282.757534 
L 518.869031 284.031638 
L 519.450803 281.343452 
L 519.741689 284.333593 
L 520.032576 281.201291 
L 520.323462 283.129411 
L 520.614348 284.135266 
L 520.905235 281.6664 
L 521.196121 280.540772 
L 521.487007 283.649658 
L 521.777894 280.374933 
L 522.06878 282.153267 
L 522.359666 283.197297 
L 522.650553 280.401036 
L 522.941439 283.4543 
L 523.232325 280.199025 
L 523.523211 281.902078 
L 523.814098 282.571332 
L 524.104984 282.217863 
L 524.39587 282.178508 
L 524.686757 284.218529 
L 524.977643 281.406507 
L 525.268529 277.160159 
L 525.559416 283.619955 
L 525.850302 280.516888 
L 526.141188 282.743616 
L 526.432075 283.433348 
L 526.722961 280.352041 
L 527.013847 279.992849 
L 527.304733 281.7083 
L 527.59562 277.18459 
L 527.886506 282.032388 
L 528.177392 278.73764 
L 528.468279 280.946961 
L 528.759165 280.295879 
L 529.050051 282.480586 
L 529.340938 281.882275 
L 529.631824 285.032351 
L 529.92271 281.232758 
L 530.213596 280.052345 
L 530.504483 282.66394 
L 530.795369 281.416662 
L 531.086255 278.491815 
L 531.377142 279.755859 
L 531.668028 283.403728 
L 531.958914 279.287347 
L 532.540687 284.427722 
L 532.831573 282.686345 
L 533.12246 283.016513 
L 533.413346 282.430382 
L 533.704232 285.675866 
L 533.995118 282.637948 
L 534.286005 284.902151 
L 535.44955 278.639693 
L 535.740436 281.502085 
L 536.031323 282.332962 
L 536.322209 282.279032 
L 536.613095 282.08664 
L 536.903982 284.869835 
L 537.194868 283.471286 
L 537.485754 280.908906 
L 537.77664 283.603874 
L 538.067527 284.163978 
L 538.358413 282.061357 
L 538.649299 284.43612 
L 538.940186 281.160837 
L 539.231072 281.587579 
L 539.521958 283.701332 
L 539.812845 280.904331 
L 540.103731 284.244367 
L 540.394617 280.323099 
L 540.685504 284.856552 
L 540.97639 281.698173 
L 541.267276 283.838026 
L 541.558162 283.695627 
L 541.849049 281.622936 
L 542.139935 281.516831 
L 542.430821 280.680588 
L 542.721708 282.416143 
L 543.012594 285.085119 
L 543.30348 282.220571 
L 543.594367 283.044399 
L 543.885253 282.017969 
L 544.176139 281.415465 
L 544.467026 284.180201 
L 544.757912 281.806301 
L 545.339684 286.329856 
L 545.630571 278.87992 
L 545.921457 278.683461 
L 546.212343 284.728428 
L 546.50323 284.736109 
L 546.794116 283.319753 
L 547.085002 284.14543 
L 547.375889 279.948183 
L 547.666775 284.413768 
L 547.957661 283.934029 
L 548.248548 283.880178 
L 548.539434 284.136234 
L 548.83032 282.30374 
L 549.121206 282.48047 
L 549.702979 283.995498 
L 549.993865 283.003159 
L 550.284752 283.303218 
L 550.575638 281.685826 
L 550.866524 287.317591 
L 551.157411 283.479576 
L 551.448297 285.503295 
L 551.739183 283.287809 
L 552.030069 283.161839 
L 552.320956 281.044735 
L 552.611842 280.764833 
L 553.193615 283.692608 
L 553.484501 281.856901 
L 553.775387 282.157219 
L 554.066274 280.902489 
L 554.35716 285.410309 
L 554.648046 283.208192 
L 554.938933 283.36545 
L 555.229819 281.169076 
L 555.520705 277.632536 
L 555.811591 284.519152 
L 556.393364 281.997759 
L 556.975137 287.670459 
L 557.556909 280.593941 
L 557.847796 282.038595 
L 558.138682 282.24017 
L 558.429568 284.376554 
L 558.720455 283.407121 
L 559.011341 285.117277 
L 559.302227 284.416236 
L 559.593113 284.653995 
L 559.884 284.46265 
L 560.174886 283.869737 
L 560.465772 284.348307 
L 560.756659 279.982773 
L 561.047545 281.140715 
L 561.338431 280.926281 
L 561.629318 284.202644 
L 561.920204 285.998045 
L 562.21109 282.102594 
L 562.501977 279.93863 
L 562.792863 284.452993 
L 563.083749 278.132559 
L 563.374635 284.784939 
L 563.665522 287.018074 
L 563.956408 282.049438 
L 564.247294 280.433986 
L 564.538181 287.532937 
L 564.829067 284.798331 
L 565.119953 285.004718 
L 565.41084 284.244262 
L 565.701726 282.991397 
L 566.283499 284.226404 
L 566.574385 283.54719 
L 566.865271 283.609435 
L 567.156157 282.687187 
L 567.447044 282.91911 
L 567.73793 284.413437 
L 568.028816 284.586512 
L 568.319703 283.726255 
L 568.610589 285.138439 
L 568.901475 283.349718 
L 569.192362 283.464626 
L 569.483248 279.680722 
L 569.774134 285.001446 
L 570.065021 284.402535 
L 570.355907 284.892786 
L 570.646793 282.548006 
L 570.937679 285.246028 
L 571.228566 285.070179 
L 571.519452 283.693365 
L 571.810338 286.681548 
L 572.101225 281.373099 
L 572.392111 287.383498 
L 572.682997 283.195668 
L 572.973884 281.954865 
L 573.26477 282.152103 
L 573.555656 282.115331 
L 573.846542 286.420054 
L 574.137429 284.498393 
L 574.428315 279.250551 
L 574.719201 281.302181 
L 575.010088 285.352907 
L 575.300974 283.030909 
L 575.59186 286.087567 
L 575.882747 284.021288 
L 576.173633 287.551718 
L 576.464519 284.527781 
L 576.755406 285.446286 
L 577.046292 284.624769 
L 577.337178 282.672582 
L 577.628064 286.10717 
L 577.918951 284.662101 
L 578.209837 285.238496 
L 578.500723 280.234822 
L 579.082496 284.851823 
L 579.373382 284.578052 
L 579.664269 282.741115 
L 579.955155 287.062947 
L 580.246041 283.053068 
L 580.536928 285.397209 
L 581.1187 286.640457 
L 581.409586 283.764477 
L 581.700473 284.726508 
L 581.991359 282.717312 
L 582.282245 283.819046 
L 582.573132 283.624289 
L 582.864018 285.803521 
L 583.154904 283.405311 
L 583.445791 284.585048 
L 583.736677 283.779219 
L 584.027563 285.749657 
L 584.31845 284.244173 
L 584.609336 282.013471 
L 584.900222 281.552545 
L 585.191108 284.130663 
L 585.481995 284.474645 
L 585.772881 283.268892 
L 586.063767 285.645908 
L 586.354654 282.101076 
L 586.64554 282.121614 
L 586.936426 286.62398 
L 587.227313 287.822784 
L 587.518199 285.041019 
L 587.809085 280.726593 
L 588.099972 283.342277 
L 588.390858 282.732624 
L 588.681744 283.035628 
L 588.97263 287.529915 
L 589.263517 281.59833 
L 589.554403 280.128456 
L 589.845289 286.057934 
L 590.427062 284.830454 
L 590.717948 281.62673 
L 591.008835 281.843106 
L 591.299721 287.058488 
L 591.590607 283.681391 
L 591.881494 283.538844 
L 592.17238 284.613529 
L 592.463266 288.29655 
L 592.754152 284.858535 
L 593.045039 285.014882 
L 593.335925 283.818568 
L 593.626811 284.263796 
L 593.917698 283.890962 
L 594.208584 281.726636 
L 594.49947 277.006362 
L 594.790357 284.590259 
L 595.081243 284.724843 
L 595.372129 282.223465 
L 595.663015 285.290745 
L 595.953902 286.108916 
L 596.244788 285.539476 
L 596.535674 284.15106 
L 596.826561 286.536682 
L 597.117447 283.920193 
L 597.408333 283.859759 
L 597.69922 286.335412 
L 597.990106 284.830577 
L 598.280992 287.197428 
L 598.862765 286.276986 
L 599.153651 283.604555 
L 599.444537 282.57005 
L 599.735424 286.252385 
L 600.02631 286.626125 
L 600.608083 284.251323 
L 600.898969 282.870244 
L 601.189855 283.154043 
L 601.480742 285.135932 
L 601.771628 285.059501 
L 602.062514 284.569468 
L 602.353401 285.493251 
L 602.644287 284.272401 
L 602.935173 285.004183 
L 603.226059 282.608309 
L 603.516946 284.472556 
L 603.807832 284.305271 
L 604.098718 282.579581 
L 604.389605 283.220052 
L 604.680491 286.01654 
L 605.262264 287.558091 
L 605.55315 283.380131 
L 605.844036 281.679634 
L 606.134923 283.74598 
L 606.425809 286.707807 
L 606.716695 283.579627 
L 607.007581 282.950406 
L 607.298468 287.948852 
L 607.589354 286.332915 
L 607.88024 286.569532 
L 608.171127 286.383681 
L 608.462013 282.648374 
L 608.752899 285.294239 
L 609.043786 284.321576 
L 609.334672 282.676266 
L 609.625558 282.9916 
L 609.916445 284.076891 
L 610.207331 284.523903 
L 610.498217 286.310722 
L 610.789103 286.269492 
L 611.07999 287.599704 
L 611.370876 286.056858 
L 611.661762 285.525529 
L 611.952649 286.248637 
L 612.243535 285.810329 
L 612.534421 286.166575 
L 612.825308 284.343305 
L 613.40708 286.720948 
L 613.697967 285.953223 
L 613.988853 285.808916 
L 614.279739 286.746709 
L 614.570625 283.228543 
L 614.861512 285.485668 
L 615.152398 285.990107 
L 615.443284 284.757173 
L 615.734171 287.408497 
L 616.025057 284.122501 
L 616.315943 284.851835 
L 616.60683 280.44056 
L 616.897716 285.558613 
L 617.188602 282.742302 
L 617.479488 288.684681 
L 617.770375 283.22342 
L 618.061261 280.432445 
L 618.352147 285.822347 
L 618.93392 285.218081 
L 619.224806 286.134696 
L 619.515693 283.874968 
L 620.097465 286.867928 
L 620.388352 283.675829 
L 620.679238 286.662534 
L 620.970124 286.873744 
L 621.26101 286.464825 
L 621.551897 284.241902 
L 621.842783 283.291427 
L 622.133669 289.767942 
L 622.424556 284.539219 
L 622.715442 286.457192 
L 623.006328 286.378518 
L 623.297215 288.528337 
L 623.588101 286.019254 
L 623.878987 278.33243 
L 624.169874 285.303429 
L 624.46076 285.872651 
L 624.751646 287.309912 
L 625.042532 286.719488 
L 625.333419 285.639938 
L 625.624305 285.480512 
L 625.915191 280.288995 
L 626.496964 287.811633 
L 627.078737 283.681606 
L 627.369623 283.410931 
L 627.951396 285.769933 
L 628.242282 284.938204 
L 628.533168 285.975416 
L 628.824054 287.862231 
L 629.114941 287.095367 
L 629.405827 284.945718 
L 629.696713 284.89467 
L 629.9876 287.972332 
L 630.278486 285.731817 
L 630.569372 286.044581 
L 630.860259 282.580233 
L 631.151145 282.340729 
L 631.442031 287.953124 
L 631.732918 288.207916 
L 632.023804 286.602515 
L 632.605576 281.653606 
L 632.896463 285.981603 
L 633.187349 285.451092 
L 633.478235 285.962288 
L 633.769122 287.556275 
L 634.060008 285.956474 
L 634.350894 290.349384 
L 634.641781 286.43357 
L 634.932667 286.454785 
L 635.223553 285.049376 
L 635.51444 285.787881 
L 635.805326 284.267136 
L 636.096212 284.348832 
L 636.387098 284.305724 
L 636.677985 286.3314 
L 636.968871 286.71881 
L 637.259757 284.372529 
L 637.550644 288.104044 
L 637.84153 288.087604 
L 638.132416 288.474869 
L 638.423303 285.113856 
L 638.714189 284.770286 
L 639.005075 286.70594 
L 639.295961 287.272084 
L 639.586848 289.786908 
L 639.877734 284.042399 
L 640.16862 285.830201 
L 640.459507 286.346456 
L 640.750393 285.586054 
L 641.041279 286.627165 
L 641.332166 283.719373 
L 641.623052 283.953749 
L 641.913938 286.101557 
L 642.204825 287.147613 
L 642.495711 288.709201 
L 642.786597 286.779267 
L 643.077483 289.152309 
L 643.36837 285.35765 
L 643.659256 284.106254 
L 644.241029 288.314645 
L 644.531915 285.75666 
L 644.822801 286.414156 
L 645.113688 289.008586 
L 645.404574 285.395171 
L 645.69546 284.214196 
L 645.986347 289.890317 
L 646.277233 287.984727 
L 646.568119 288.461636 
L 646.859005 286.877683 
L 647.149892 289.235935 
L 647.440778 284.0685 
L 647.731664 288.77171 
L 648.022551 284.953135 
L 648.313437 288.188009 
L 648.604323 285.527064 
L 648.89521 285.43274 
L 649.186096 285.797072 
L 649.476982 282.915521 
L 649.767869 285.929139 
L 650.058755 285.754992 
L 650.349641 287.387455 
L 650.640527 287.320007 
L 650.931414 287.642474 
L 651.2223 284.920073 
L 651.513186 286.26139 
L 651.804073 284.952716 
L 652.094959 285.261582 
L 652.385845 287.40008 
L 652.676732 285.775966 
L 652.967618 285.095909 
L 653.258504 287.024778 
L 653.840277 288.417052 
L 654.131163 285.887767 
L 654.422049 286.812513 
L 654.712936 285.58518 
L 655.003822 287.868667 
L 655.294708 285.662445 
L 655.585595 287.051236 
L 655.876481 289.077701 
L 656.167367 285.233329 
L 656.458254 285.911748 
L 656.74914 288.948546 
L 657.040026 289.07412 
L 657.330913 288.548021 
L 657.621799 286.565099 
L 657.912685 288.365808 
L 658.203571 284.529287 
L 658.494458 287.403789 
L 658.785344 285.423891 
L 659.07623 287.699365 
L 659.367117 283.794515 
L 659.658003 286.593572 
L 660.239776 285.919443 
L 660.821548 288.871903 
L 661.112434 282.818742 
L 661.403321 287.291936 
L 661.694207 288.741442 
L 661.985093 287.382211 
L 662.27598 284.663094 
L 662.566866 285.803279 
L 662.857752 285.128393 
L 663.148639 288.861801 
L 663.439525 286.971044 
L 663.730411 289.304918 
L 664.021298 286.228168 
L 664.312184 288.251232 
L 664.893956 287.504609 
L 665.184843 286.863073 
L 665.475729 285.544007 
L 665.766615 291.812727 
L 666.057502 283.529906 
L 666.639274 287.395477 
L 666.930161 286.422316 
L 667.221047 288.232842 
L 667.511933 287.996804 
L 667.80282 287.610349 
L 668.093706 285.99367 
L 668.384592 280.929485 
L 668.675478 285.452393 
L 668.966365 284.37493 
L 669.257251 287.745623 
L 669.548137 286.889583 
L 669.839024 287.142731 
L 670.12991 284.980993 
L 670.420796 287.513493 
L 670.711683 287.401843 
L 671.002569 284.147867 
L 671.584342 288.076319 
L 672.166114 285.205462 
L 672.457 285.792398 
L 672.747887 285.661538 
L 673.038773 287.353209 
L 673.329659 289.850443 
L 673.620546 286.006484 
L 673.911432 289.697786 
L 674.493205 285.667427 
L 674.784091 290.085918 
L 674.784091 290.085918 
" style="fill:none;stroke:#1f77b4;stroke-linecap:square;stroke-width:1.5;"/>
   </g>
   <g id="line2d_17">
    <path clip-path="url(#pbbb2035b51)" d="M 94.465909 53.816057 
L 97.374772 121.21838 
L 98.538317 139.457127 
L 99.12009 145.397154 
L 99.701863 150.88958 
L 99.992749 153.98327 
L 102.028953 166.764776 
L 104.64693 178.731292 
L 106.97402 186.39786 
L 107.264907 187.137369 
L 108.137566 190.3483 
L 108.428452 191.17965 
L 108.719338 191.666652 
L 109.010224 193.074378 
L 109.591997 194.267471 
L 110.17377 196.354389 
L 110.755542 197.519945 
L 111.046429 198.51241 
L 111.919087 199.901592 
L 112.209974 200.970868 
L 112.50086 201.591295 
L 112.791746 201.409072 
L 113.955292 204.013512 
L 114.246178 204.577101 
L 114.537064 204.713817 
L 114.827951 205.681638 
L 115.118837 205.762931 
L 115.409723 206.976942 
L 116.282382 208.111068 
L 116.573268 208.730914 
L 116.864155 208.957916 
L 117.736814 210.523669 
L 118.0277 210.651471 
L 118.318586 210.974906 
L 118.609473 211.474991 
L 119.482131 212.191446 
L 119.773018 212.746988 
L 120.063904 212.757178 
L 120.645677 213.520225 
L 120.936563 213.119923 
L 121.227449 213.934366 
L 121.518336 213.613319 
L 121.809222 214.932413 
L 122.390995 215.42083 
L 122.972767 215.999672 
L 123.55454 217.153673 
L 123.845426 217.158057 
L 124.136312 217.659157 
L 124.718085 218.057071 
L 125.008971 218.507237 
L 125.299858 218.576904 
L 125.88163 219.235737 
L 126.172517 219.145753 
L 126.463403 219.961983 
L 126.754289 219.995227 
L 127.336062 220.635837 
L 127.626948 220.724869 
L 127.917834 221.103868 
L 128.208721 221.093825 
L 128.499607 221.546008 
L 128.790493 221.530272 
L 129.08138 222.005642 
L 129.372266 221.920371 
L 129.954039 222.666561 
L 130.244925 222.622966 
L 130.535811 223.075877 
L 130.826697 223.085682 
L 131.117584 223.567424 
L 131.40847 223.695065 
L 131.699356 223.95391 
L 132.281129 223.909916 
L 132.572015 224.239822 
L 132.862902 223.905035 
L 133.444674 224.974654 
L 133.73556 225.155098 
L 134.026447 224.969191 
L 134.317333 225.614711 
L 134.608219 225.61518 
L 135.480878 226.010504 
L 136.062651 226.462119 
L 136.353537 226.622758 
L 136.644424 226.594269 
L 136.93531 226.91033 
L 137.226196 226.669609 
L 137.807969 227.209885 
L 138.098855 227.097491 
L 138.389741 227.599921 
L 138.680628 227.500483 
L 138.971514 227.905765 
L 139.2624 227.94653 
L 139.553287 227.668924 
L 139.844173 228.39526 
L 140.135059 228.595552 
L 140.425946 228.452896 
L 140.716832 228.969928 
L 141.007718 229.011373 
L 141.298604 228.681677 
L 141.589491 229.511794 
L 141.880377 229.499293 
L 142.171263 229.784148 
L 142.753036 229.446069 
L 143.334809 230.153476 
L 143.625695 229.918974 
L 143.916581 230.446237 
L 144.207468 230.57303 
L 144.498354 230.845819 
L 144.78924 230.580937 
L 145.080126 231.264554 
L 145.371013 231.230546 
L 145.661899 231.056419 
L 145.952785 231.458437 
L 146.243672 231.228144 
L 146.534558 231.304934 
L 146.825444 231.749084 
L 147.407217 231.643343 
L 147.698103 231.782041 
L 147.98899 232.054311 
L 148.570762 232.225322 
L 149.152535 232.581673 
L 149.443421 232.362837 
L 149.734307 232.556287 
L 150.025194 232.564095 
L 150.31608 232.990093 
L 150.897853 232.840931 
L 151.188739 233.026523 
L 151.770512 232.994568 
L 152.061398 233.084594 
L 152.352284 232.716134 
L 153.224943 233.814124 
L 153.806716 233.626452 
L 154.388488 233.967382 
L 154.679375 233.682891 
L 155.261147 234.346647 
L 155.552033 234.462515 
L 155.84292 233.999267 
L 156.133806 234.66768 
L 156.424692 234.497986 
L 156.715579 233.424865 
L 157.297351 234.537232 
L 157.588238 234.797443 
L 158.17001 234.972571 
L 158.460897 235.141131 
L 158.751783 234.949377 
L 159.042669 235.204545 
L 159.333555 235.250689 
L 159.915328 234.879919 
L 160.206214 235.693032 
L 160.497101 235.901013 
L 160.787987 235.230856 
L 161.078873 235.269948 
L 161.36976 235.943978 
L 161.660646 236.047821 
L 161.951532 235.770915 
L 162.242419 235.911119 
L 162.824191 236.332417 
L 163.115077 236.116537 
L 163.405964 236.940015 
L 163.69685 236.56951 
L 163.987736 236.688712 
L 164.278623 236.580211 
L 164.569509 236.995837 
L 164.860395 236.725107 
L 165.151282 236.122286 
L 165.442168 236.596802 
L 165.733054 236.581493 
L 166.023941 237.414768 
L 166.314827 236.833706 
L 166.605713 237.41439 
L 166.896599 237.530783 
L 167.187486 237.222741 
L 167.478372 237.711928 
L 167.769258 237.505593 
L 168.060145 237.921457 
L 168.351031 237.268079 
L 168.641917 237.451906 
L 168.932804 237.17257 
L 169.22369 238.165987 
L 169.514576 237.426849 
L 169.805463 237.652317 
L 170.096349 238.030321 
L 170.387235 237.314167 
L 170.678121 238.112756 
L 170.969008 238.171814 
L 171.259894 238.536792 
L 171.55078 238.31734 
L 171.841667 238.416506 
L 172.132553 238.143717 
L 172.423439 238.743625 
L 172.714326 238.433355 
L 173.296098 238.313467 
L 173.586985 238.926632 
L 173.877871 238.783179 
L 174.168757 238.892947 
L 174.459643 238.724198 
L 174.75053 239.415294 
L 175.041416 238.852931 
L 175.332302 239.501504 
L 175.623189 239.539769 
L 175.914075 238.949554 
L 176.204961 239.642926 
L 176.495848 239.874277 
L 176.786734 239.635223 
L 177.368506 239.806738 
L 177.659393 239.537283 
L 178.532052 240.041338 
L 179.113824 239.539972 
L 179.404711 239.85062 
L 179.695597 240.456607 
L 179.986483 240.019229 
L 180.568256 240.430002 
L 180.859142 240.367029 
L 181.150028 240.062712 
L 181.440915 240.772045 
L 181.731801 240.334835 
L 182.022687 240.628521 
L 182.313574 240.680198 
L 182.60446 240.882947 
L 182.895346 240.932817 
L 183.768005 240.356419 
L 184.349778 241.366245 
L 184.640664 241.026968 
L 185.222437 241.059134 
L 185.513323 241.520714 
L 185.804209 241.30372 
L 186.385982 241.335396 
L 186.676868 240.947538 
L 186.967755 241.040904 
L 187.258641 241.491455 
L 187.549527 241.737113 
L 187.840414 241.533901 
L 188.1313 241.571236 
L 188.422186 241.474998 
L 189.003959 242.234347 
L 189.294845 241.809582 
L 189.585731 241.829114 
L 189.876618 242.048412 
L 190.167504 241.956047 
L 190.749277 242.381954 
L 191.040163 242.306368 
L 191.331049 242.772326 
L 191.912822 242.475537 
L 192.203708 242.461048 
L 192.494594 242.778314 
L 192.785481 242.76138 
L 193.076367 242.860335 
L 193.367253 242.796109 
L 193.949026 243.093037 
L 194.239912 242.779742 
L 194.530799 243.384706 
L 195.403458 243.315116 
L 195.694344 242.996967 
L 195.98523 243.489516 
L 196.276116 243.114579 
L 196.567003 243.140134 
L 198.312321 244.054009 
L 198.603207 244.052069 
L 199.184979 244.343094 
L 199.475866 244.325397 
L 199.766752 244.434009 
L 200.057638 244.140596 
L 200.348525 244.14816 
L 200.639411 243.893636 
L 201.221184 244.960222 
L 201.51207 244.42466 
L 202.093843 244.479222 
L 202.384729 244.351014 
L 202.675615 245.069339 
L 202.966501 244.830257 
L 203.257388 245.063751 
L 203.548274 244.646647 
L 203.83916 245.026963 
L 204.420933 245.046677 
L 204.711819 244.721561 
L 205.293592 245.31478 
L 205.584478 245.538077 
L 205.875365 246.029611 
L 206.166251 246.024117 
L 206.457137 245.449322 
L 206.748023 245.443933 
L 207.03891 245.244269 
L 207.329796 245.324368 
L 207.620682 245.891907 
L 207.911569 245.637362 
L 208.493341 246.165886 
L 209.075114 245.73126 
L 209.656887 246.438776 
L 209.947773 245.895268 
L 210.238659 246.4843 
L 210.529545 246.619392 
L 210.820432 246.573615 
L 211.111318 245.747 
L 211.402204 246.706519 
L 211.693091 246.409702 
L 211.983977 247.059088 
L 212.274863 247.183506 
L 213.438409 246.945485 
L 213.729295 247.067295 
L 214.020181 247.532962 
L 214.311067 247.062102 
L 214.601954 247.159555 
L 214.89284 247.461267 
L 215.183726 246.92623 
L 215.474613 247.332814 
L 215.765499 247.215374 
L 216.056385 248.103996 
L 216.347272 248.066907 
L 216.638158 247.840256 
L 216.929044 247.922337 
L 217.219931 248.160179 
L 217.510817 247.886148 
L 217.801703 248.364158 
L 218.092589 248.193017 
L 218.383476 247.74378 
L 218.674362 248.290953 
L 219.256135 248.336282 
L 219.547021 248.094384 
L 219.837907 248.396695 
L 220.128794 248.123395 
L 220.41968 248.608191 
L 221.001452 248.923643 
L 221.292339 248.634576 
L 221.583225 249.121231 
L 222.455884 249.113559 
L 222.74677 248.798818 
L 223.328543 249.141495 
L 223.619429 249.270603 
L 223.910316 249.613167 
L 225.073861 249.539056 
L 225.364747 249.301851 
L 225.655633 250.018589 
L 225.94652 250.167631 
L 226.528292 249.973086 
L 226.819179 250.472355 
L 227.400951 249.898513 
L 227.982724 250.253074 
L 228.27361 250.481042 
L 228.564496 250.228752 
L 229.146269 250.233227 
L 229.437155 250.683732 
L 230.309814 250.809299 
L 230.600701 250.96129 
L 230.891587 250.684481 
L 231.182473 250.832823 
L 231.47336 250.514759 
L 231.764246 251.096963 
L 232.055132 251.276917 
L 232.346018 251.087361 
L 232.927791 251.062258 
L 233.218677 251.266318 
L 233.509564 251.324458 
L 233.80045 250.671046 
L 234.091336 251.595149 
L 234.382223 250.611386 
L 234.673109 251.34551 
L 235.254882 251.635652 
L 235.545768 251.553526 
L 235.836654 251.185571 
L 236.709313 251.744349 
L 237.000199 252.188873 
L 237.291086 251.822956 
L 237.581972 251.694805 
L 237.872858 252.465643 
L 238.163745 252.089624 
L 238.745517 252.523349 
L 239.32729 251.99077 
L 239.618176 252.42334 
L 239.909062 252.168644 
L 240.199949 252.89045 
L 240.490835 252.790836 
L 241.072608 252.748765 
L 241.363494 253.10314 
L 241.65438 253.162289 
L 241.945267 252.914807 
L 242.236153 253.247532 
L 242.527039 252.952911 
L 242.817925 253.189633 
L 243.108812 253.186531 
L 243.399698 253.35354 
L 243.690584 252.792962 
L 243.981471 253.413175 
L 244.272357 253.519239 
L 244.85413 253.149446 
L 245.145016 253.244612 
L 245.435902 254.168481 
L 246.017675 253.816899 
L 246.308561 253.886164 
L 246.599447 254.341943 
L 247.18122 254.481517 
L 247.472106 254.373927 
L 247.762993 254.110606 
L 248.053879 254.412294 
L 248.344765 253.921243 
L 248.635652 254.799147 
L 248.926538 254.939176 
L 249.217424 254.758836 
L 249.799197 254.114416 
L 250.090083 255.015528 
L 250.380969 255.10825 
L 250.671856 254.447649 
L 250.962742 254.454961 
L 251.253628 255.207909 
L 251.544515 255.45854 
L 251.835401 255.069183 
L 252.126287 255.416794 
L 252.417174 255.096965 
L 252.70806 255.545652 
L 252.998946 255.336814 
L 253.289833 255.837227 
L 253.580719 256.012069 
L 253.871605 255.957342 
L 254.162491 254.89918 
L 254.453378 256.16776 
L 254.744264 255.918594 
L 255.03515 256.268004 
L 255.326037 255.84429 
L 255.616923 256.456527 
L 255.907809 256.111189 
L 256.198696 256.148316 
L 256.780468 256.731048 
L 257.071355 256.500706 
L 257.944013 256.686697 
L 258.2349 256.448771 
L 258.525786 256.765781 
L 258.816672 256.674344 
L 259.107559 256.912067 
L 259.398445 256.34595 
L 259.689331 257.243357 
L 259.980218 256.263505 
L 260.271104 257.20604 
L 260.56199 257.180205 
L 260.852877 257.357106 
L 261.143763 257.38868 
L 261.434649 257.152109 
L 261.725535 257.421903 
L 262.016422 256.78297 
L 262.307308 258.040531 
L 262.598194 257.556274 
L 262.889081 258.212144 
L 263.179967 258.132062 
L 263.470853 258.502378 
L 263.76174 257.950543 
L 264.343512 258.32089 
L 264.634398 257.900698 
L 264.925285 258.356974 
L 265.216171 258.338968 
L 265.507057 258.682304 
L 265.797944 258.2996 
L 266.08883 258.681656 
L 266.379716 258.743911 
L 266.670603 258.399371 
L 266.961489 258.984366 
L 267.252375 258.863935 
L 267.543262 258.984422 
L 268.41592 258.816839 
L 268.706807 258.34032 
L 268.997693 259.462691 
L 269.288579 259.336301 
L 269.579466 258.853861 
L 269.870352 259.339739 
L 270.161238 258.996022 
L 270.452125 259.53967 
L 270.743011 258.383649 
L 271.033897 259.466248 
L 271.324784 259.760232 
L 271.61567 259.489601 
L 271.906556 259.646794 
L 272.197442 259.588888 
L 272.488329 259.818394 
L 272.779215 259.800189 
L 273.070101 259.266265 
L 273.360988 260.150041 
L 273.651874 259.429814 
L 273.94276 260.118474 
L 274.524533 259.781792 
L 274.815419 260.106799 
L 275.106306 259.747329 
L 275.397192 260.198247 
L 275.688078 259.955033 
L 275.978964 260.322974 
L 276.269851 260.442445 
L 276.560737 260.382018 
L 276.851623 260.802893 
L 277.433396 259.817925 
L 277.724282 260.613134 
L 278.306055 260.70329 
L 278.596941 260.351414 
L 278.887828 260.742802 
L 279.178714 260.676107 
L 279.4696 261.329396 
L 280.051373 260.952561 
L 280.633145 261.077239 
L 280.924032 260.386938 
L 281.214918 261.219205 
L 281.505804 261.154415 
L 282.087577 261.64793 
L 282.378463 261.617595 
L 282.66935 260.937252 
L 282.960236 262.017205 
L 283.542008 261.295585 
L 283.832895 262.185758 
L 284.123781 261.770874 
L 284.414667 261.977731 
L 284.705554 261.914874 
L 284.99644 262.060761 
L 285.287326 261.252218 
L 285.578213 261.575468 
L 285.869099 262.199439 
L 286.159985 261.41057 
L 286.450871 262.527101 
L 286.741758 262.719307 
L 287.032644 261.112315 
L 287.32353 262.962587 
L 287.614417 262.885734 
L 287.905303 261.84174 
L 288.196189 262.774107 
L 288.487076 262.387387 
L 288.777962 262.396158 
L 289.068848 263.335686 
L 289.359735 262.871539 
L 289.650621 263.043215 
L 289.941507 262.48658 
L 290.232393 263.179497 
L 290.52328 262.403477 
L 290.814166 263.483849 
L 291.105052 263.468733 
L 291.395939 263.274111 
L 291.686825 262.556661 
L 291.977711 263.283285 
L 292.268598 263.030371 
L 292.559484 262.572846 
L 292.85037 263.606836 
L 293.141257 263.324835 
L 293.432143 262.646771 
L 293.723029 263.945752 
L 294.013915 263.571564 
L 294.304802 263.388294 
L 294.595688 263.943728 
L 294.886574 263.756578 
L 295.177461 263.866024 
L 295.468347 264.185969 
L 295.759233 264.336296 
L 296.341006 263.789672 
L 296.631892 263.950525 
L 296.922779 264.376771 
L 297.213665 262.490306 
L 297.504551 264.180002 
L 297.795437 263.778565 
L 298.086324 264.741837 
L 298.37721 263.887913 
L 298.668096 264.83242 
L 298.958983 264.105401 
L 299.540755 265.156052 
L 299.831642 264.931211 
L 300.122528 264.85565 
L 300.413414 263.995513 
L 300.704301 264.869996 
L 300.995187 264.244596 
L 301.286073 264.955788 
L 301.576959 264.413748 
L 301.867846 264.442349 
L 302.158732 265.023502 
L 302.449618 264.905281 
L 302.740505 264.192734 
L 303.031391 265.112866 
L 303.322277 265.463874 
L 303.613164 264.882633 
L 303.90405 265.482758 
L 304.194936 265.581653 
L 304.485823 265.397133 
L 304.776709 265.610878 
L 305.067595 265.684972 
L 305.358481 265.404368 
L 305.940254 265.487874 
L 306.23114 266.134006 
L 306.522027 265.647886 
L 306.812913 266.059601 
L 307.103799 266.02595 
L 307.394686 266.343349 
L 307.685572 266.023825 
L 307.976458 266.033846 
L 308.267344 265.826636 
L 308.558231 266.344673 
L 308.849117 266.541393 
L 309.140003 265.867037 
L 309.43089 266.401416 
L 309.721776 265.966605 
L 310.012662 266.159645 
L 310.303549 266.739366 
L 310.594435 266.259685 
L 310.885321 266.946846 
L 311.176208 265.972989 
L 311.467094 266.584896 
L 311.75798 266.564668 
L 312.048866 265.72629 
L 312.339753 267.056817 
L 312.630639 267.158976 
L 312.921525 267.125498 
L 313.212412 266.534848 
L 313.503298 267.027131 
L 314.085071 267.103676 
L 314.375957 265.396724 
L 314.666843 267.409876 
L 314.95773 267.135932 
L 315.248616 267.48834 
L 315.539502 267.146497 
L 315.830388 267.710615 
L 316.121275 267.456707 
L 316.412161 267.392866 
L 316.703047 267.045066 
L 316.993934 267.37957 
L 317.575706 267.546078 
L 317.866593 267.892999 
L 318.157479 266.415065 
L 318.448365 267.66133 
L 318.739252 267.021553 
L 319.030138 267.592702 
L 319.321024 267.89954 
L 319.61191 267.380862 
L 319.902797 267.322263 
L 320.484569 267.988617 
L 320.775456 268.345314 
L 321.066342 267.965458 
L 321.648115 267.747171 
L 322.229887 268.036516 
L 322.520774 267.57255 
L 323.102546 268.869479 
L 323.393432 268.620757 
L 323.684319 268.069017 
L 323.975205 267.799751 
L 324.266091 268.423372 
L 324.556978 268.293816 
L 325.429637 268.732105 
L 325.720523 265.882889 
L 326.011409 268.665445 
L 326.302296 268.677448 
L 326.593182 268.181104 
L 326.884068 268.877088 
L 327.174954 268.623044 
L 327.465841 269.037626 
L 327.756727 268.826991 
L 328.047613 269.025868 
L 328.3385 268.349576 
L 328.629386 268.717737 
L 328.920272 268.855571 
L 329.211159 269.174591 
L 329.502045 268.604016 
L 329.792931 268.887316 
L 330.083817 268.910402 
L 330.374704 269.504823 
L 330.66559 269.372001 
L 330.956476 268.829508 
L 331.247363 269.276883 
L 331.538249 268.549612 
L 331.829135 269.09008 
L 332.120022 269.911586 
L 332.410908 269.825083 
L 332.701794 269.275213 
L 332.992681 269.582653 
L 333.574453 269.433629 
L 333.865339 269.897895 
L 334.156226 268.870407 
L 334.447112 269.459429 
L 334.737998 268.784961 
L 335.319771 270.214842 
L 335.610657 269.725487 
L 335.901544 269.943125 
L 336.19243 269.20211 
L 336.483316 269.704047 
L 336.774203 270.647199 
L 337.065089 269.709029 
L 337.355975 269.251462 
L 337.937748 270.524867 
L 338.228634 269.452488 
L 338.51952 270.189841 
L 338.810407 269.913145 
L 339.683066 270.653319 
L 339.973952 270.544315 
L 340.264838 269.202208 
L 340.555725 270.897668 
L 340.846611 270.299381 
L 341.137497 270.856409 
L 341.71927 270.910102 
L 342.010156 270.030074 
L 342.301042 270.961523 
L 342.591929 271.03658 
L 343.173701 270.40263 
L 343.464588 271.217259 
L 343.755474 271.496497 
L 344.337247 271.427523 
L 344.628133 270.001812 
L 344.919019 270.738576 
L 345.500792 271.454594 
L 345.791678 271.306854 
L 346.082564 270.891274 
L 346.373451 271.404822 
L 346.955223 271.541111 
L 347.24611 269.537577 
L 347.536996 271.237172 
L 347.827882 271.745514 
L 348.118769 271.020347 
L 348.409655 271.59367 
L 348.700541 271.55953 
L 348.991427 269.762891 
L 349.282314 271.359091 
L 349.5732 271.557492 
L 349.864086 271.189446 
L 350.154973 272.138141 
L 350.445859 272.011379 
L 350.736745 271.749393 
L 351.027632 271.776019 
L 351.318518 270.827545 
L 351.609404 271.960186 
L 351.90029 270.552911 
L 352.191177 271.823795 
L 352.482063 271.69751 
L 352.772949 271.869351 
L 353.063836 271.26127 
L 353.354722 271.698536 
L 353.645608 271.690577 
L 353.936495 272.261807 
L 354.518267 272.181231 
L 354.809154 270.876658 
L 355.10004 272.07687 
L 355.390926 272.488185 
L 355.681812 272.05094 
L 355.972699 272.806452 
L 356.263585 272.535436 
L 356.554471 271.565297 
L 356.845358 271.630626 
L 357.136244 272.498963 
L 357.42713 272.423731 
L 357.718017 270.834797 
L 358.008903 271.547039 
L 358.299789 272.609526 
L 358.590676 271.719647 
L 358.881562 272.522795 
L 359.172448 272.737054 
L 359.463334 272.471665 
L 360.045107 273.041784 
L 360.335993 269.99421 
L 360.62688 273.310633 
L 360.917766 272.655306 
L 361.208652 272.679673 
L 361.790425 273.356963 
L 362.081311 272.998172 
L 362.372198 271.859743 
L 362.663084 272.992394 
L 362.95397 273.377819 
L 363.244856 271.994225 
L 363.535743 273.036329 
L 363.826629 273.287617 
L 364.117515 271.882703 
L 364.408402 273.452046 
L 364.699288 273.840383 
L 364.990174 271.532749 
L 365.281061 273.070245 
L 365.571947 272.57445 
L 365.862833 273.358647 
L 366.15372 271.658103 
L 366.444606 273.978868 
L 366.735492 272.592561 
L 367.317265 273.781049 
L 367.608151 270.672851 
L 367.899037 273.306477 
L 368.189924 273.510014 
L 368.48081 272.327185 
L 368.771696 273.624538 
L 369.062583 273.450858 
L 369.353469 273.616519 
L 369.644355 274.286154 
L 369.935242 273.665853 
L 370.226128 273.955215 
L 370.517014 273.926789 
L 370.8079 274.350843 
L 371.098787 272.850471 
L 371.389673 274.599486 
L 371.680559 274.482232 
L 371.971446 274.03704 
L 372.262332 274.494646 
L 372.844105 273.894634 
L 373.134991 274.7861 
L 373.425877 274.370945 
L 373.716763 273.42439 
L 374.589422 274.793539 
L 374.880309 274.859026 
L 375.171195 274.715877 
L 375.462081 273.372388 
L 375.752968 275.131405 
L 376.33474 274.149182 
L 376.625627 275.10951 
L 376.916513 274.462626 
L 377.498285 275.110805 
L 377.789172 274.309128 
L 378.080058 275.112722 
L 378.370944 272.399332 
L 378.661831 274.266699 
L 378.952717 275.085096 
L 379.243603 273.092743 
L 379.53449 274.583368 
L 379.825376 274.256139 
L 380.116262 275.283863 
L 380.407149 275.220307 
L 380.698035 275.39308 
L 380.988921 275.236306 
L 381.279807 275.506689 
L 381.570694 273.562122 
L 381.86158 274.784994 
L 382.152466 274.689433 
L 382.443353 274.445106 
L 382.734239 274.426008 
L 383.025125 275.650062 
L 383.316012 274.589382 
L 383.606898 274.125508 
L 383.897784 273.971609 
L 384.188671 275.166242 
L 384.479557 273.996162 
L 384.770443 275.455753 
L 385.061329 275.759665 
L 385.352216 275.803588 
L 385.643102 274.241719 
L 385.933988 273.728301 
L 386.224875 275.318116 
L 386.515761 275.119601 
L 386.806647 275.092276 
L 387.097534 275.841442 
L 387.38842 274.710993 
L 387.679306 274.437549 
L 387.970193 275.445656 
L 388.261079 275.204471 
L 388.551965 273.604488 
L 388.842851 275.787645 
L 389.133738 275.299366 
L 389.424624 276.367476 
L 389.71551 274.745912 
L 390.006397 275.966781 
L 390.588169 274.579578 
L 390.879056 276.436094 
L 391.169942 274.684818 
L 391.460828 275.084181 
L 391.751715 276.052488 
L 392.042601 275.256351 
L 392.333487 275.399354 
L 392.624373 275.288373 
L 392.91526 276.204279 
L 393.206146 275.331672 
L 393.497032 276.004513 
L 393.787919 276.097347 
L 394.078805 275.05167 
L 394.369691 275.742427 
L 394.660578 276.122034 
L 394.951464 274.204714 
L 395.24235 276.057145 
L 395.533237 274.707603 
L 395.824123 276.458474 
L 396.115009 273.601882 
L 396.405895 276.610641 
L 396.987668 275.005456 
L 397.569441 276.363537 
L 397.860327 275.940006 
L 398.151213 276.24584 
L 398.4421 275.127541 
L 398.732986 276.323365 
L 399.023872 275.34834 
L 399.314758 275.200661 
L 399.605645 276.258654 
L 400.187417 273.497633 
L 400.478304 275.687135 
L 400.76919 276.5219 
L 401.060076 276.872454 
L 401.350963 276.616668 
L 401.641849 276.788405 
L 401.932735 276.578231 
L 402.223622 275.124943 
L 402.514508 276.60171 
L 402.805394 276.177093 
L 403.09628 276.832566 
L 403.387167 274.212172 
L 403.678053 275.906032 
L 403.968939 275.986066 
L 404.259826 274.992301 
L 404.550712 274.951444 
L 404.841598 276.098748 
L 405.132485 275.965344 
L 405.423371 276.790032 
L 405.714257 276.345602 
L 406.005144 277.232459 
L 406.29603 276.738189 
L 406.586916 276.90591 
L 407.168689 276.929663 
L 407.459575 275.443562 
L 407.750461 277.293105 
L 408.041348 276.790335 
L 408.332234 272.998098 
L 408.62312 277.178888 
L 408.914007 277.060842 
L 409.495779 275.150905 
L 410.077552 277.315413 
L 410.368438 277.248445 
L 410.659324 276.919724 
L 410.950211 277.18941 
L 411.241097 276.40224 
L 411.531983 276.991395 
L 411.82287 276.533398 
L 412.113756 277.242258 
L 412.404642 277.279058 
L 412.695529 277.691895 
L 412.986415 276.906792 
L 413.277301 277.251525 
L 413.568188 277.092838 
L 413.859074 275.620367 
L 414.14996 277.062291 
L 414.440846 276.913102 
L 414.731733 274.539113 
L 415.022619 277.506699 
L 415.313505 273.167793 
L 415.604392 276.576681 
L 415.895278 277.340908 
L 416.186164 277.36008 
L 416.477051 276.932403 
L 417.058823 277.411529 
L 417.34971 277.477627 
L 417.640596 277.409197 
L 417.931482 275.298568 
L 418.222368 277.694629 
L 418.513255 277.580164 
L 418.804141 277.676939 
L 419.095027 276.060904 
L 419.385914 276.619014 
L 419.6768 277.910662 
L 419.967686 276.308355 
L 420.258573 276.633508 
L 420.549459 277.62961 
L 420.840345 276.577765 
L 421.422118 277.754563 
L 421.713004 277.028646 
L 422.00389 276.995547 
L 422.294777 277.328872 
L 422.585663 278.033964 
L 422.876549 277.508421 
L 423.167436 278.079142 
L 423.458322 277.117461 
L 423.749208 278.182642 
L 424.330981 278.297647 
L 424.621867 277.645796 
L 424.912753 278.604236 
L 425.20364 278.443968 
L 425.494526 277.36984 
L 425.785412 274.420845 
L 426.076299 277.77177 
L 426.367185 278.214529 
L 426.948958 278.447209 
L 427.239844 277.869958 
L 427.53073 277.973108 
L 427.821617 278.516307 
L 428.112503 277.389371 
L 428.403389 276.884125 
L 428.694275 278.47598 
L 428.985162 278.375445 
L 429.276048 277.741349 
L 429.857821 278.493615 
L 430.148707 276.553451 
L 430.439593 278.443485 
L 430.73048 278.529944 
L 431.021366 278.464815 
L 431.312252 277.792261 
L 431.603139 277.629312 
L 431.894025 278.872614 
L 432.184911 278.226582 
L 432.766684 278.489639 
L 433.05757 275.54909 
L 433.348456 277.837463 
L 433.639343 277.361841 
L 433.930229 278.836648 
L 434.221115 278.063248 
L 434.802888 279.156314 
L 435.093774 277.473726 
L 435.384661 278.067863 
L 435.675547 277.367067 
L 435.966433 278.51452 
L 436.257319 277.678006 
L 436.548206 278.763566 
L 436.839092 277.140561 
L 437.129978 276.260084 
L 437.420865 278.22884 
L 438.002637 278.186583 
L 438.293524 276.545471 
L 438.58441 278.878859 
L 438.875296 277.959151 
L 439.166183 278.824042 
L 439.747955 279.379849 
L 440.038841 278.709302 
L 440.620614 278.416731 
L 441.202387 279.117914 
L 441.493273 277.333452 
L 441.784159 277.511216 
L 442.075046 278.815692 
L 442.365932 279.144126 
L 442.656818 277.786832 
L 442.947704 277.137551 
L 443.238591 278.997094 
L 443.529477 278.178848 
L 443.820363 279.27957 
L 444.11125 279.435465 
L 444.402136 277.581503 
L 444.693022 279.575322 
L 444.983909 278.755817 
L 445.274795 279.78359 
L 445.565681 279.657414 
L 445.856568 278.392666 
L 446.147454 278.216023 
L 446.43834 278.2949 
L 446.729226 278.746557 
L 447.020113 278.28595 
L 447.310999 278.285193 
L 447.892772 279.178938 
L 448.183658 279.562373 
L 448.474544 278.472987 
L 448.765431 279.961846 
L 449.056317 279.734435 
L 449.347203 280.109755 
L 449.63809 278.442082 
L 449.928976 280.105641 
L 450.510748 279.909536 
L 450.801635 280.143278 
L 451.092521 278.43454 
L 451.383407 279.719511 
L 451.674294 279.703682 
L 451.96518 280.084265 
L 452.256066 278.864862 
L 452.546953 279.96561 
L 452.837839 279.698051 
L 453.128725 278.994813 
L 453.419612 278.89362 
L 453.710498 279.563203 
L 454.001384 279.462854 
L 454.29227 279.558954 
L 454.583157 278.824564 
L 455.164929 279.944424 
L 455.455816 279.626643 
L 455.746702 280.014444 
L 456.037588 276.120241 
L 456.328475 279.612455 
L 456.619361 279.127513 
L 456.910247 280.14045 
L 457.201134 279.142595 
L 457.49202 279.55867 
L 457.782906 279.6357 
L 458.073792 277.49906 
L 458.364679 280.153534 
L 458.655565 280.145381 
L 458.946451 280.272289 
L 459.237338 278.07851 
L 459.528224 280.386501 
L 459.81911 279.862623 
L 460.109997 279.921408 
L 460.400883 278.639156 
L 460.691769 278.998243 
L 461.273542 280.129408 
L 461.564428 278.911113 
L 461.855314 280.119523 
L 462.146201 279.59848 
L 462.437087 279.992741 
L 463.01886 280.069329 
L 463.600632 280.778734 
L 463.891519 279.402068 
L 464.182405 280.119905 
L 464.473291 278.985301 
L 464.764177 280.684382 
L 465.055064 280.199811 
L 465.34595 278.726538 
L 465.636836 279.329165 
L 465.927723 278.493169 
L 466.218609 278.482778 
L 466.509495 280.492385 
L 466.800382 279.773161 
L 467.091268 279.45909 
L 467.382154 280.609962 
L 467.673041 278.87902 
L 467.963927 280.471779 
L 468.254813 280.640713 
L 469.127472 278.819269 
L 469.418358 280.307884 
L 469.709245 280.271506 
L 470.000131 278.61643 
L 470.291017 279.881738 
L 470.581904 280.432062 
L 470.87279 279.833155 
L 471.163676 279.649384 
L 471.454563 279.939392 
L 471.745449 280.582067 
L 472.036335 280.154448 
L 472.327221 279.351635 
L 472.908994 280.413281 
L 473.19988 280.518436 
L 473.490767 280.358152 
L 473.781653 280.393584 
L 474.072539 279.667169 
L 474.363426 280.099021 
L 474.654312 277.36698 
L 475.236085 280.782964 
L 475.526971 280.098261 
L 475.817857 278.284843 
L 476.108743 278.700709 
L 476.39963 280.507898 
L 476.690516 280.079207 
L 476.981402 280.459561 
L 477.272289 279.221757 
L 477.563175 279.788899 
L 477.854061 274.442966 
L 478.144948 280.687094 
L 478.435834 279.316153 
L 478.72672 280.494851 
L 479.308493 281.011792 
L 479.599379 280.428198 
L 479.890265 278.529137 
L 480.181152 280.957172 
L 480.472038 280.463534 
L 480.762924 280.960078 
L 481.053811 280.871278 
L 481.344697 278.34672 
L 481.635583 280.945133 
L 481.92647 280.1392 
L 482.217356 279.676009 
L 482.508242 279.834656 
L 482.799129 279.372179 
L 483.090015 280.428091 
L 483.380901 280.773355 
L 483.671787 279.363668 
L 483.962674 280.232162 
L 484.25356 279.550958 
L 484.544446 280.841724 
L 485.126219 278.390933 
L 485.707992 281.02653 
L 485.998878 279.8892 
L 486.289764 280.079132 
L 486.58065 280.967284 
L 486.871537 280.851287 
L 487.162423 280.984833 
L 487.453309 280.732508 
L 487.744196 280.711165 
L 488.035082 280.02761 
L 488.325968 279.916302 
L 488.616855 280.150691 
L 488.907741 280.097204 
L 489.198627 281.147165 
L 489.489514 280.804558 
L 489.7804 281.187631 
L 490.071286 280.007741 
L 490.362172 280.842225 
L 490.653059 280.503577 
L 490.943945 279.53661 
L 491.234831 280.850995 
L 491.525718 280.797371 
L 491.816604 279.403203 
L 492.10749 280.823442 
L 492.398377 280.115592 
L 492.689263 280.13917 
L 493.271036 281.196107 
L 493.561922 280.579559 
L 493.852808 280.433004 
L 494.143694 280.519591 
L 494.434581 281.271059 
L 494.725467 281.683654 
L 495.016353 280.710115 
L 495.598126 281.591499 
L 495.889012 279.298521 
L 496.179899 280.650785 
L 496.470785 280.458159 
L 496.761671 279.467982 
L 497.052558 280.991258 
L 497.63433 277.303074 
L 497.925216 280.094923 
L 498.216103 280.017805 
L 498.506989 280.67286 
L 498.797875 278.966254 
L 499.088762 281.496775 
L 499.379648 279.295035 
L 499.670534 279.797512 
L 499.961421 281.048576 
L 500.252307 279.41893 
L 500.543193 280.036209 
L 500.83408 281.181218 
L 501.124966 281.437322 
L 501.997625 281.135219 
L 502.288511 280.087909 
L 502.579397 279.975409 
L 502.870284 281.329222 
L 503.452056 281.558899 
L 503.742943 277.987564 
L 504.033829 281.641039 
L 504.324715 278.577339 
L 504.615602 281.009521 
L 504.906488 280.243031 
L 505.197374 280.422429 
L 505.48826 281.681019 
L 505.779147 279.60463 
L 506.070033 281.672939 
L 506.360919 279.946994 
L 506.651806 280.531516 
L 506.942692 280.218813 
L 507.233578 281.467029 
L 507.524465 280.114651 
L 507.815351 281.692842 
L 508.397123 280.483551 
L 508.68801 279.181972 
L 508.978896 281.0751 
L 509.269782 281.05422 
L 509.560669 280.45793 
L 509.851555 280.506071 
L 510.142441 282.056273 
L 510.433328 279.658679 
L 510.724214 280.484122 
L 511.0151 281.740921 
L 511.305987 280.441582 
L 511.596873 278.293404 
L 511.887759 280.692693 
L 512.178645 280.857494 
L 512.469532 281.306514 
L 512.760418 280.77647 
L 513.051304 281.004042 
L 513.342191 280.224541 
L 513.633077 280.943283 
L 514.21485 278.698482 
L 514.505736 281.748227 
L 514.796622 281.472945 
L 515.087509 281.564853 
L 515.378395 280.239948 
L 515.960167 280.808363 
L 516.251054 281.820081 
L 516.54194 279.865788 
L 516.832826 280.735752 
L 517.123713 280.068545 
L 517.414599 281.304989 
L 517.705485 280.822239 
L 517.996372 280.985698 
L 518.287258 280.298976 
L 518.578144 280.473564 
L 518.869031 281.61085 
L 519.159917 280.637345 
L 519.741689 281.926178 
L 520.032576 282.043044 
L 520.323462 281.297233 
L 520.614348 281.8006 
L 520.905235 279.752834 
L 521.196121 281.636965 
L 521.487007 282.229091 
L 521.777894 281.923126 
L 522.06878 280.836535 
L 522.359666 281.777708 
L 522.650553 282.338607 
L 522.941439 281.683113 
L 523.523211 281.108367 
L 523.814098 280.986239 
L 524.104984 281.672526 
L 524.39587 281.425547 
L 524.686757 281.3783 
L 524.977643 280.364164 
L 525.268529 281.64116 
L 525.559416 280.220733 
L 525.850302 281.927379 
L 526.141188 280.692192 
L 526.432075 281.593018 
L 526.722961 280.981063 
L 527.013847 282.113972 
L 527.304733 281.631604 
L 527.59562 278.363286 
L 527.886506 282.111659 
L 528.468279 280.607814 
L 528.759165 280.081019 
L 529.050051 280.117158 
L 529.340938 281.712857 
L 529.631824 281.978809 
L 529.92271 281.727166 
L 530.504483 279.250708 
L 530.795369 281.981629 
L 531.086255 280.784837 
L 531.377142 281.244889 
L 531.668028 282.161235 
L 531.958914 281.884504 
L 532.249801 282.2912 
L 532.540687 278.951043 
L 532.831573 281.231529 
L 533.12246 280.831571 
L 533.413346 280.815919 
L 533.704232 279.3102 
L 533.995118 281.464671 
L 534.286005 282.526888 
L 534.576891 280.971008 
L 534.867777 280.651267 
L 535.158664 280.671555 
L 535.44955 281.598586 
L 535.740436 278.474533 
L 536.031323 281.85662 
L 536.322209 280.310651 
L 536.613095 282.011981 
L 536.903982 281.410795 
L 537.485754 280.855377 
L 537.77664 282.543828 
L 538.067527 280.301463 
L 538.358413 281.50939 
L 538.649299 281.487041 
L 538.940186 277.502484 
L 539.231072 282.775335 
L 539.521958 282.369837 
L 539.812845 281.477565 
L 540.103731 282.089503 
L 540.394617 278.610178 
L 540.685504 281.677235 
L 540.97639 281.828944 
L 541.267276 282.413525 
L 541.558162 279.20351 
L 541.849049 282.159365 
L 542.139935 281.593214 
L 542.430821 279.18616 
L 542.721708 281.838114 
L 543.012594 282.630792 
L 543.30348 280.746757 
L 543.594367 279.950091 
L 544.176139 281.966213 
L 544.467026 282.395523 
L 544.757912 279.627603 
L 545.048798 282.018734 
L 545.630571 280.977243 
L 545.921457 281.883989 
L 546.212343 281.17341 
L 546.50323 282.331966 
L 546.794116 282.846319 
L 547.085002 281.488676 
L 547.375889 282.24548 
L 547.666775 280.827042 
L 547.957661 281.772834 
L 548.248548 282.017715 
L 548.539434 280.417934 
L 549.121206 282.50269 
L 549.412093 280.949839 
L 549.702979 281.6962 
L 549.993865 280.280626 
L 550.575638 281.316642 
L 550.866524 282.75903 
L 551.157411 280.8681 
L 551.739183 282.024216 
L 552.030069 281.857678 
L 552.611842 282.492099 
L 552.902728 282.263305 
L 553.193615 278.654626 
L 553.484501 278.986723 
L 553.775387 282.192348 
L 554.066274 282.093484 
L 554.35716 282.282961 
L 554.648046 279.657723 
L 555.229819 282.654668 
L 555.520705 282.002847 
L 555.811591 282.998415 
L 556.102478 282.777198 
L 556.393364 283.030668 
L 556.68425 282.378182 
L 556.975137 282.026226 
L 557.266023 282.454392 
L 557.556909 280.225403 
L 557.847796 282.736231 
L 558.138682 282.57213 
L 558.429568 281.671106 
L 558.720455 282.986194 
L 559.011341 281.318288 
L 559.302227 282.119788 
L 559.593113 281.585716 
L 559.884 282.547864 
L 560.174886 280.20596 
L 560.465772 281.027645 
L 560.756659 281.349312 
L 561.047545 281.848651 
L 561.338431 280.099494 
L 561.629318 282.540293 
L 561.920204 281.951302 
L 562.21109 282.844041 
L 562.501977 283.004185 
L 562.792863 281.640729 
L 563.083749 281.888254 
L 563.374635 281.818318 
L 563.665522 282.947298 
L 563.956408 281.530765 
L 564.247294 282.825163 
L 564.538181 280.536975 
L 564.829067 282.870717 
L 565.119953 281.614546 
L 565.41084 282.345379 
L 565.701726 280.509587 
L 565.992612 282.334751 
L 566.283499 282.99002 
L 566.574385 280.395647 
L 566.865271 279.758002 
L 567.156157 282.471046 
L 567.447044 281.069857 
L 567.73793 282.543023 
L 568.028816 282.409602 
L 568.319703 282.034649 
L 568.610589 282.611204 
L 568.901475 281.432981 
L 569.483248 282.799965 
L 569.774134 281.324131 
L 570.065021 281.770849 
L 570.355907 283.207022 
L 570.937679 281.817304 
L 571.228566 282.295768 
L 571.519452 282.344533 
L 572.101225 282.213393 
L 572.392111 282.755334 
L 572.682997 281.34223 
L 572.973884 283.343378 
L 573.26477 281.129549 
L 573.555656 281.828053 
L 574.137429 282.307318 
L 574.428315 278.075756 
L 574.719201 281.982991 
L 575.010088 283.447549 
L 575.300974 280.936852 
L 575.59186 282.973622 
L 575.882747 281.888594 
L 576.173633 283.122476 
L 576.464519 283.002813 
L 576.755406 279.146467 
L 577.046292 281.806365 
L 577.337178 282.192968 
L 577.628064 283.026247 
L 577.918951 280.135067 
L 578.209837 281.837559 
L 578.500723 280.718573 
L 578.79161 281.815359 
L 579.082496 280.902951 
L 579.373382 282.325554 
L 579.664269 282.723809 
L 579.955155 282.301535 
L 580.246041 282.111616 
L 580.536928 282.961166 
L 580.827814 279.411486 
L 581.409586 282.55728 
L 581.700473 281.69957 
L 582.282245 283.556634 
L 582.573132 282.578442 
L 582.864018 282.575299 
L 583.154904 279.478688 
L 583.445791 282.97556 
L 583.736677 282.782573 
L 584.027563 281.888427 
L 584.31845 281.42838 
L 584.609336 282.297845 
L 584.900222 282.346445 
L 585.191108 281.622411 
L 585.481995 283.095577 
L 585.772881 281.232685 
L 586.063767 282.540155 
L 586.354654 281.848444 
L 586.64554 282.063826 
L 586.936426 282.108454 
L 587.227313 282.511677 
L 587.518199 283.138345 
L 588.099972 281.801806 
L 588.390858 283.192872 
L 588.97263 281.408381 
L 589.263517 282.71613 
L 589.554403 279.711951 
L 589.845289 280.317027 
L 590.136176 279.485175 
L 590.427062 282.530387 
L 590.717948 278.990788 
L 591.299721 282.043084 
L 591.590607 282.36142 
L 591.881494 280.25841 
L 592.17238 281.34329 
L 592.463266 283.166656 
L 592.754152 280.902815 
L 593.045039 282.083372 
L 593.335925 281.955814 
L 593.626811 282.636703 
L 593.917698 281.226107 
L 594.208584 282.643099 
L 594.49947 282.542344 
L 594.790357 281.814836 
L 595.081243 282.353588 
L 595.372129 281.875522 
L 595.663015 281.656422 
L 595.953902 282.017797 
L 596.244788 280.265405 
L 596.535674 279.678047 
L 596.826561 282.311651 
L 597.117447 280.65352 
L 597.408333 282.93673 
L 597.69922 281.542326 
L 597.990106 281.995875 
L 598.280992 281.387235 
L 598.571879 279.58526 
L 598.862765 282.058566 
L 599.153651 282.801065 
L 599.444537 283.183964 
L 599.735424 282.57318 
L 600.02631 282.712176 
L 600.317196 281.855955 
L 600.608083 281.584912 
L 600.898969 282.577298 
L 601.189855 283.064281 
L 601.480742 280.079466 
L 601.771628 283.247369 
L 602.062514 279.592758 
L 602.353401 282.260798 
L 602.644287 278.870562 
L 602.935173 282.946271 
L 603.226059 281.570086 
L 603.516946 281.589177 
L 603.807832 282.79175 
L 604.098718 282.369834 
L 604.389605 279.206458 
L 604.680491 283.323244 
L 604.971377 279.778273 
L 605.262264 281.91397 
L 605.55315 282.691577 
L 605.844036 280.464022 
L 606.134923 282.047696 
L 606.425809 280.276006 
L 606.716695 282.423377 
L 607.007581 282.379026 
L 607.298468 282.013807 
L 607.589354 280.437655 
L 607.88024 282.001144 
L 608.171127 282.26147 
L 608.752899 283.278199 
L 609.043786 282.485809 
L 609.334672 280.492016 
L 609.625558 282.760516 
L 609.916445 281.583504 
L 610.207331 281.531436 
L 610.498217 282.411683 
L 610.789103 279.866645 
L 611.07999 282.020695 
L 611.370876 281.76498 
L 611.661762 281.943562 
L 611.952649 280.66684 
L 612.243535 282.270297 
L 612.534421 282.967674 
L 613.116194 281.906182 
L 613.40708 281.979556 
L 613.697967 281.121577 
L 613.988853 281.925842 
L 614.279739 281.256814 
L 614.570625 281.951078 
L 614.861512 280.954684 
L 615.152398 283.063017 
L 615.443284 283.162808 
L 615.734171 280.79041 
L 616.025057 281.645171 
L 616.315943 281.997306 
L 616.60683 283.836225 
L 616.897716 282.968432 
L 617.188602 283.163622 
L 617.479488 282.720293 
L 617.770375 282.839841 
L 618.061261 282.224575 
L 618.352147 282.444269 
L 618.643034 283.034028 
L 618.93392 282.143156 
L 619.224806 282.169625 
L 619.515693 283.361003 
L 619.806579 282.195095 
L 620.097465 282.502058 
L 620.388352 282.188425 
L 620.679238 282.183036 
L 620.970124 282.629183 
L 621.26101 283.669375 
L 621.551897 283.267283 
L 621.842783 282.601246 
L 622.133669 282.727177 
L 622.424556 279.592287 
L 622.715442 282.611738 
L 623.006328 282.351526 
L 623.297215 281.759414 
L 623.878987 283.540086 
L 624.169874 282.197991 
L 624.46076 282.357433 
L 624.751646 281.822333 
L 625.042532 283.375169 
L 625.333419 282.156721 
L 625.624305 283.13123 
L 625.915191 282.37311 
L 626.496964 283.406202 
L 626.78785 281.583694 
L 627.078737 283.164017 
L 627.369623 281.027953 
L 627.660509 281.995949 
L 627.951396 281.890654 
L 628.242282 280.713623 
L 628.533168 282.837537 
L 628.824054 280.689354 
L 629.114941 282.290724 
L 629.405827 282.101928 
L 629.696713 282.413849 
L 629.9876 281.948583 
L 630.278486 279.669953 
L 630.569372 283.191586 
L 630.860259 283.065869 
L 631.151145 280.950416 
L 631.442031 281.564816 
L 631.732918 280.164116 
L 632.023804 283.201409 
L 632.605576 281.538654 
L 632.896463 282.881876 
L 633.187349 282.757524 
L 633.478235 283.188639 
L 633.769122 280.00345 
L 634.060008 282.188516 
L 634.350894 283.296331 
L 634.641781 280.180318 
L 634.932667 283.586438 
L 635.223553 282.019163 
L 635.51444 282.723742 
L 635.805326 282.21121 
L 636.096212 283.714796 
L 636.387098 282.540479 
L 636.677985 283.019268 
L 636.968871 282.752452 
L 637.259757 282.856973 
L 637.550644 282.044786 
L 637.84153 282.479084 
L 638.132416 279.240151 
L 638.714189 282.626077 
L 639.005075 281.364115 
L 639.295961 282.865499 
L 639.586848 280.912013 
L 639.877734 283.583971 
L 640.459507 278.856887 
L 640.750393 282.590963 
L 641.041279 282.820668 
L 641.332166 280.637872 
L 641.623052 282.007935 
L 641.913938 281.499091 
L 642.204825 282.049798 
L 642.495711 282.263695 
L 642.786597 282.047431 
L 643.077483 281.119583 
L 643.36837 283.158312 
L 643.659256 281.943917 
L 643.950142 282.949383 
L 644.241029 280.727096 
L 644.531915 282.618598 
L 644.822801 282.193621 
L 645.113688 283.038294 
L 645.404574 282.98749 
L 645.69546 279.612364 
L 645.986347 282.977037 
L 646.277233 283.132512 
L 646.568119 282.121688 
L 646.859005 283.57115 
L 647.149892 282.796561 
L 647.731664 280.136649 
L 648.313437 281.810604 
L 648.604323 282.374836 
L 648.89521 282.275191 
L 649.186096 283.239634 
L 649.476982 282.08652 
L 649.767869 283.011934 
L 650.058755 283.173277 
L 650.349641 282.89715 
L 650.640527 282.120219 
L 650.931414 280.595058 
L 651.2223 282.881286 
L 651.804073 281.123335 
L 652.094959 283.728328 
L 652.385845 283.826327 
L 652.967618 281.379179 
L 653.258504 283.500707 
L 653.549391 283.104338 
L 653.840277 281.741726 
L 654.131163 282.841977 
L 654.422049 279.088336 
L 654.712936 282.724737 
L 655.003822 281.592474 
L 655.294708 282.025872 
L 656.167367 279.870496 
L 656.458254 282.586166 
L 656.74914 280.240178 
L 657.040026 281.64466 
L 657.621799 283.066971 
L 657.912685 280.030054 
L 658.203571 282.244876 
L 658.785344 280.869262 
L 659.07623 282.764653 
L 659.367117 282.185484 
L 659.658003 280.274803 
L 659.948889 282.383331 
L 660.239776 280.448241 
L 660.821548 282.191021 
L 661.112434 282.430293 
L 661.403321 279.772625 
L 661.694207 282.823412 
L 661.985093 282.247807 
L 662.27598 282.47831 
L 662.566866 281.929898 
L 662.857752 282.367064 
L 663.148639 283.067876 
L 663.439525 282.946081 
L 663.730411 279.503352 
L 664.021298 283.409653 
L 664.60307 281.34726 
L 664.893956 280.943221 
L 665.184843 283.24825 
L 665.475729 282.554125 
L 665.766615 282.239007 
L 666.057502 282.099927 
L 666.348388 282.110183 
L 666.639274 282.755496 
L 666.930161 280.21064 
L 667.221047 283.80849 
L 667.511933 282.621219 
L 668.093706 283.384541 
L 668.384592 277.986973 
L 668.675478 283.805815 
L 668.966365 283.137598 
L 669.257251 278.143016 
L 669.548137 281.372461 
L 669.839024 281.249613 
L 670.12991 281.336738 
L 670.711683 282.812389 
L 671.002569 283.096664 
L 671.293455 281.241904 
L 671.584342 280.502158 
L 671.875228 282.745676 
L 672.166114 283.326458 
L 672.457 283.321448 
L 672.747887 281.845146 
L 673.038773 282.701157 
L 673.329659 282.765247 
L 673.620546 282.242745 
L 673.911432 282.395732 
L 674.202318 282.092366 
L 674.493205 280.258782 
L 674.784091 283.068438 
L 674.784091 283.068438 
" style="fill:none;stroke:#ff7f0e;stroke-linecap:square;stroke-width:1.5;"/>
   </g>
   <g id="patch_3">
    <path d="M 65.45 304 
L 65.45 35.88 
" style="fill:none;stroke:#000000;stroke-linecap:square;stroke-linejoin:miter;stroke-width:0.8;"/>
   </g>
   <g id="patch_4">
    <path d="M 703.8 304 
L 703.8 35.88 
" style="fill:none;stroke:#000000;stroke-linecap:square;stroke-linejoin:miter;stroke-width:0.8;"/>
   </g>
   <g id="patch_5">
    <path d="M 65.45 304 
L 703.8 304 
" style="fill:none;stroke:#000000;stroke-linecap:square;stroke-linejoin:miter;stroke-width:0.8;"/>
   </g>
   <g id="patch_6">
    <path d="M 65.45 35.88 
L 703.8 35.88 
" style="fill:none;stroke:#000000;stroke-linecap:square;stroke-linejoin:miter;stroke-width:0.8;"/>
   </g>
   <g id="text_18">
    <text style="font-family:DejaVu Sans;font-size:18px;font-style:normal;font-weight:normal;text-anchor:middle;" transform="rotate(-0, 384.625, 29.88)" x="384.625" y="29.88">Training/Validation Loss Comparison</text>
   </g>
   <g id="legend_1">
    <g id="patch_7">
     <path d="M 532.153125 91.914375 
L 693.3 91.914375 
Q 696.3 91.914375 696.3 88.914375 
L 696.3 46.38 
Q 696.3 43.38 693.3 43.38 
L 532.153125 43.38 
Q 529.153125 43.38 529.153125 46.38 
L 529.153125 88.914375 
Q 529.153125 91.914375 532.153125 91.914375 
z
" style="fill:#ffffff;opacity:0.8;stroke:#cccccc;stroke-linejoin:miter;"/>
    </g>
    <g id="line2d_18">
     <path d="M 535.153125 55.527656 
L 565.153125 55.527656 
" style="fill:none;stroke:#1f77b4;stroke-linecap:square;stroke-width:1.5;"/>
    </g>
    <g id="line2d_19"/>
    <g id="text_19">
     <text style="font-family:DejaVu Sans;font-size:15px;font-style:normal;font-weight:normal;text-anchor:start;" transform="rotate(-0, 577.153125, 60.777656)" x="577.153125" y="60.777656">Training Loss</text>
    </g>
    <g id="line2d_20">
     <path d="M 535.153125 77.544844 
L 565.153125 77.544844 
" style="fill:none;stroke:#ff7f0e;stroke-linecap:square;stroke-width:1.5;"/>
    </g>
    <g id="line2d_21"/>
    <g id="text_20">
     <text style="font-family:DejaVu Sans;font-size:15px;font-style:normal;font-weight:normal;text-anchor:start;" transform="rotate(-0, 577.153125, 82.794844)" x="577.153125" y="82.794844">Validation Loss</text>
    </g>
   </g>
  </g>
 </g>
 <defs>
  <clipPath id="pbbb2035b51">
   <rect height="268.12" width="638.35" x="65.45" y="35.88"/>
  </clipPath>
 </defs>
</svg>
