<?xml version="1.0" encoding="utf-8" standalone="no"?>
<!DOCTYPE svg PUBLIC "-//W3C//DTD SVG 1.1//EN"
  "http://www.w3.org/Graphics/SVG/1.1/DTD/svg11.dtd">
<!-- Created with matplotlib (https://matplotlib.org/) -->
<svg height="360pt" version="1.1" viewBox="0 0 720 360" width="720pt" xmlns="http://www.w3.org/2000/svg" xmlns:xlink="http://www.w3.org/1999/xlink">
 <defs>
  <style type="text/css">
*{stroke-linecap:butt;stroke-linejoin:round;}
  </style>
 </defs>
 <g id="figure_1">
  <g id="patch_1">
   <path d="M 0 360 
L 720 360 
L 720 0 
L 0 0 
z
" style="fill:#ffffff;"/>
  </g>
  <g id="axes_1">
   <g id="patch_2">
    <path d="M 65.45 304 
L 703.8 304 
L 703.8 35.88 
L 65.45 35.88 
z
" style="fill:#ffffff;"/>
   </g>
   <g id="matplotlib.axis_1">
    <g id="xtick_1">
     <g id="line2d_1">
      <defs>
       <path d="M 0 0 
L 0 3.5 
" id="mbfbd6d839a" style="stroke:#000000;stroke-width:0.8;"/>
      </defs>
      <g>
       <use style="stroke:#000000;stroke-width:0.8;" x="94.175023" xlink:href="#mbfbd6d839a" y="304"/>
      </g>
     </g>
     <g id="text_1">
      <text style="font-family:DejaVu Sans;font-size:15px;font-style:normal;font-weight:normal;text-anchor:middle;" transform="rotate(-0, 94.175023, 322.397656)" x="94.175023" y="322.397656">0</text>
     </g>
    </g>
    <g id="xtick_2">
     <g id="line2d_2">
      <g>
       <use style="stroke:#000000;stroke-width:0.8;" x="166.896599" xlink:href="#mbfbd6d839a" y="304"/>
      </g>
     </g>
     <g id="text_2">
      <text style="font-family:DejaVu Sans;font-size:15px;font-style:normal;font-weight:normal;text-anchor:middle;" transform="rotate(-0, 166.896599, 322.397656)" x="166.896599" y="322.397656">250</text>
     </g>
    </g>
    <g id="xtick_3">
     <g id="line2d_3">
      <g>
       <use style="stroke:#000000;stroke-width:0.8;" x="239.618176" xlink:href="#mbfbd6d839a" y="304"/>
      </g>
     </g>
     <g id="text_3">
      <text style="font-family:DejaVu Sans;font-size:15px;font-style:normal;font-weight:normal;text-anchor:middle;" transform="rotate(-0, 239.618176, 322.397656)" x="239.618176" y="322.397656">500</text>
     </g>
    </g>
    <g id="xtick_4">
     <g id="line2d_4">
      <g>
       <use style="stroke:#000000;stroke-width:0.8;" x="312.339753" xlink:href="#mbfbd6d839a" y="304"/>
      </g>
     </g>
     <g id="text_4">
      <text style="font-family:DejaVu Sans;font-size:15px;font-style:normal;font-weight:normal;text-anchor:middle;" transform="rotate(-0, 312.339753, 322.397656)" x="312.339753" y="322.397656">750</text>
     </g>
    </g>
    <g id="xtick_5">
     <g id="line2d_5">
      <g>
       <use style="stroke:#000000;stroke-width:0.8;" x="385.061329" xlink:href="#mbfbd6d839a" y="304"/>
      </g>
     </g>
     <g id="text_5">
      <text style="font-family:DejaVu Sans;font-size:15px;font-style:normal;font-weight:normal;text-anchor:middle;" transform="rotate(-0, 385.061329, 322.397656)" x="385.061329" y="322.397656">1000</text>
     </g>
    </g>
    <g id="xtick_6">
     <g id="line2d_6">
      <g>
       <use style="stroke:#000000;stroke-width:0.8;" x="457.782906" xlink:href="#mbfbd6d839a" y="304"/>
      </g>
     </g>
     <g id="text_6">
      <text style="font-family:DejaVu Sans;font-size:15px;font-style:normal;font-weight:normal;text-anchor:middle;" transform="rotate(-0, 457.782906, 322.397656)" x="457.782906" y="322.397656">1250</text>
     </g>
    </g>
    <g id="xtick_7">
     <g id="line2d_7">
      <g>
       <use style="stroke:#000000;stroke-width:0.8;" x="530.504483" xlink:href="#mbfbd6d839a" y="304"/>
      </g>
     </g>
     <g id="text_7">
      <text style="font-family:DejaVu Sans;font-size:15px;font-style:normal;font-weight:normal;text-anchor:middle;" transform="rotate(-0, 530.504483, 322.397656)" x="530.504483" y="322.397656">1500</text>
     </g>
    </g>
    <g id="xtick_8">
     <g id="line2d_8">
      <g>
       <use style="stroke:#000000;stroke-width:0.8;" x="603.226059" xlink:href="#mbfbd6d839a" y="304"/>
      </g>
     </g>
     <g id="text_8">
      <text style="font-family:DejaVu Sans;font-size:15px;font-style:normal;font-weight:normal;text-anchor:middle;" transform="rotate(-0, 603.226059, 322.397656)" x="603.226059" y="322.397656">1750</text>
     </g>
    </g>
    <g id="xtick_9">
     <g id="line2d_9">
      <g>
       <use style="stroke:#000000;stroke-width:0.8;" x="675.947636" xlink:href="#mbfbd6d839a" y="304"/>
      </g>
     </g>
     <g id="text_9">
      <text style="font-family:DejaVu Sans;font-size:15px;font-style:normal;font-weight:normal;text-anchor:middle;" transform="rotate(-0, 675.947636, 322.397656)" x="675.947636" y="322.397656">2000</text>
     </g>
    </g>
    <g id="text_10">
     <text style="font-family:DejaVu Sans;font-size:15px;font-style:normal;font-weight:normal;text-anchor:middle;" transform="rotate(-0, 384.625, 340.914844)" x="384.625" y="340.914844">Epoch</text>
    </g>
   </g>
   <g id="matplotlib.axis_2">
    <g id="ytick_1">
     <g id="line2d_10">
      <defs>
       <path d="M 0 0 
L -3.5 0 
" id="m5f58d93a6d" style="stroke:#000000;stroke-width:0.8;"/>
      </defs>
      <g>
       <use style="stroke:#000000;stroke-width:0.8;" x="65.45" xlink:href="#m5f58d93a6d" y="286.059728"/>
      </g>
     </g>
     <g id="text_11">
      <text style="font-family:DejaVu Sans;font-size:15px;font-style:normal;font-weight:normal;text-anchor:end;" transform="rotate(-0, 58.45, 291.758556)" x="58.45" y="291.758556">0.4</text>
     </g>
    </g>
    <g id="ytick_2">
     <g id="line2d_11">
      <g>
       <use style="stroke:#000000;stroke-width:0.8;" x="65.45" xlink:href="#m5f58d93a6d" y="245.637345"/>
      </g>
     </g>
     <g id="text_12">
      <text style="font-family:DejaVu Sans;font-size:15px;font-style:normal;font-weight:normal;text-anchor:end;" transform="rotate(-0, 58.45, 251.336174)" x="58.45" y="251.336174">0.5</text>
     </g>
    </g>
    <g id="ytick_3">
     <g id="line2d_12">
      <g>
       <use style="stroke:#000000;stroke-width:0.8;" x="65.45" xlink:href="#m5f58d93a6d" y="205.214963"/>
      </g>
     </g>
     <g id="text_13">
      <text style="font-family:DejaVu Sans;font-size:15px;font-style:normal;font-weight:normal;text-anchor:end;" transform="rotate(-0, 58.45, 210.913791)" x="58.45" y="210.913791">0.6</text>
     </g>
    </g>
    <g id="ytick_4">
     <g id="line2d_13">
      <g>
       <use style="stroke:#000000;stroke-width:0.8;" x="65.45" xlink:href="#m5f58d93a6d" y="164.792581"/>
      </g>
     </g>
     <g id="text_14">
      <text style="font-family:DejaVu Sans;font-size:15px;font-style:normal;font-weight:normal;text-anchor:end;" transform="rotate(-0, 58.45, 170.491409)" x="58.45" y="170.491409">0.7</text>
     </g>
    </g>
    <g id="ytick_5">
     <g id="line2d_14">
      <g>
       <use style="stroke:#000000;stroke-width:0.8;" x="65.45" xlink:href="#m5f58d93a6d" y="124.370198"/>
      </g>
     </g>
     <g id="text_15">
      <text style="font-family:DejaVu Sans;font-size:15px;font-style:normal;font-weight:normal;text-anchor:end;" transform="rotate(-0, 58.45, 130.069026)" x="58.45" y="130.069026">0.8</text>
     </g>
    </g>
    <g id="ytick_6">
     <g id="line2d_15">
      <g>
       <use style="stroke:#000000;stroke-width:0.8;" x="65.45" xlink:href="#m5f58d93a6d" y="83.947816"/>
      </g>
     </g>
     <g id="text_16">
      <text style="font-family:DejaVu Sans;font-size:15px;font-style:normal;font-weight:normal;text-anchor:end;" transform="rotate(-0, 58.45, 89.646644)" x="58.45" y="89.646644">0.9</text>
     </g>
    </g>
    <g id="ytick_7">
     <g id="line2d_16">
      <g>
       <use style="stroke:#000000;stroke-width:0.8;" x="65.45" xlink:href="#m5f58d93a6d" y="43.525433"/>
      </g>
     </g>
     <g id="text_17">
      <text style="font-family:DejaVu Sans;font-size:15px;font-style:normal;font-weight:normal;text-anchor:end;" transform="rotate(-0, 58.45, 49.224261)" x="58.45" y="49.224261">1.0</text>
     </g>
    </g>
    <g id="text_18">
     <text style="font-family:DejaVu Sans;font-size:15px;font-style:normal;font-weight:normal;text-anchor:middle;" transform="rotate(-90, 27.475781, 169.94)" x="27.475781" y="169.94">Accuracy</text>
    </g>
   </g>
   <g id="line2d_17">
    <path clip-path="url(#p5f8690a728)" d="M 94.465909 291.812727 
L 94.756795 273.645369 
L 95.047682 245.637345 
L 95.338568 253.207078 
L 95.920341 222.171174 
L 96.211227 225.199067 
L 96.793 200.218949 
L 97.374772 193.406165 
L 97.665658 196.434083 
L 97.956545 194.920112 
L 98.247431 179.780647 
L 98.538317 177.509727 
L 98.829204 182.051566 
L 99.12009 171.453941 
L 99.410976 169.939994 
L 99.701863 175.238807 
L 99.992749 165.398154 
L 100.574522 152.529609 
L 100.865408 163.884208 
L 101.156294 160.099341 
L 101.44718 147.987769 
L 101.738067 156.314475 
L 102.028953 154.800528 
L 102.319839 152.529609 
L 102.610726 160.856315 
L 103.192498 155.557502 
L 103.483385 157.071448 
L 103.774271 151.772635 
L 104.065157 151.015662 
L 104.356044 152.529609 
L 104.937816 137.390143 
L 105.228702 149.501716 
L 105.519589 147.987769 
L 105.810475 141.931983 
L 106.101361 150.258689 
L 106.392248 129.82041 
L 106.683134 143.445929 
L 106.97402 138.90409 
L 107.264907 141.17501 
L 107.846679 135.119223 
L 108.137566 130.577384 
L 108.428452 137.390143 
L 108.719338 132.848304 
L 109.010224 142.688956 
L 109.301111 141.931983 
L 109.591997 131.334357 
L 109.882883 136.63317 
L 110.17377 123.007651 
L 110.464656 128.306464 
L 110.755542 127.549491 
L 111.046429 134.36225 
L 111.337315 124.521598 
L 111.628201 132.09133 
L 112.209974 122.250678 
L 112.791746 122.250678 
L 113.082633 126.792517 
L 113.373519 117.708838 
L 113.664405 125.278571 
L 113.955292 126.035544 
L 114.246178 128.306464 
L 114.827951 121.493704 
L 115.118837 130.577384 
L 115.409723 118.465811 
L 115.700609 118.465811 
L 115.991496 121.493704 
L 116.282382 117.708838 
L 116.573268 118.465811 
L 116.864155 116.194892 
L 117.155041 115.437918 
L 117.445927 116.194892 
L 117.736814 124.521598 
L 118.318586 110.139105 
L 118.609473 115.437918 
L 118.900359 108.625159 
L 119.191245 110.139105 
L 119.482131 119.979758 
L 119.773018 116.951865 
L 120.063904 118.465811 
L 120.35479 116.194892 
L 120.645677 111.653052 
L 120.936563 121.493704 
L 121.227449 121.493704 
L 121.809222 107.868185 
L 122.100108 110.139105 
L 122.390995 116.951865 
L 122.681881 120.736731 
L 122.972767 117.708838 
L 123.263653 110.896079 
L 123.55454 110.896079 
L 123.845426 106.354239 
L 124.136312 106.354239 
L 124.427199 107.868185 
L 124.718085 107.868185 
L 125.008971 109.382132 
L 125.590744 109.382132 
L 125.88163 104.840292 
L 126.172517 113.166998 
L 126.463403 105.597266 
L 127.045175 102.569373 
L 127.336062 111.653052 
L 127.626948 104.840292 
L 127.917834 112.410025 
L 128.499607 103.326346 
L 128.790493 106.354239 
L 129.08138 106.354239 
L 129.372266 105.597266 
L 129.663152 110.139105 
L 129.954039 106.354239 
L 130.244925 110.896079 
L 130.826697 97.27056 
L 131.117584 95.756613 
L 131.40847 108.625159 
L 131.699356 107.111212 
L 131.990243 98.027533 
L 132.281129 101.812399 
L 132.862902 112.410025 
L 133.153788 110.896079 
L 133.444674 106.354239 
L 133.73556 105.597266 
L 134.026447 104.083319 
L 134.608219 98.784506 
L 134.899106 104.840292 
L 135.189992 105.597266 
L 135.480878 105.597266 
L 135.771765 98.027533 
L 136.062651 107.868185 
L 136.353537 92.728696 
L 136.644424 100.298453 
L 136.93531 104.083319 
L 137.226196 101.055426 
L 137.517082 102.569373 
L 137.807969 101.055426 
L 138.098855 98.784506 
L 138.389741 104.083319 
L 138.680628 101.812399 
L 138.971514 98.027533 
L 139.2624 98.784506 
L 139.553287 102.569373 
L 139.844173 101.055426 
L 140.135059 104.840292 
L 140.425946 104.083319 
L 140.716832 104.083319 
L 141.007718 98.027533 
L 141.298604 97.27056 
L 141.589491 102.569373 
L 141.880377 101.055426 
L 142.171263 101.812399 
L 142.46215 101.812399 
L 142.753036 99.541479 
L 143.043922 101.055426 
L 143.334809 97.27056 
L 143.625695 100.298453 
L 143.916581 98.027533 
L 144.207468 100.298453 
L 144.498354 98.784506 
L 144.78924 101.055426 
L 145.080126 101.055426 
L 145.371013 100.298453 
L 145.661899 94.99964 
L 145.952785 97.27056 
L 146.243672 95.756613 
L 146.534558 99.541479 
L 146.825444 97.27056 
L 147.116331 96.513586 
L 147.407217 99.541479 
L 147.698103 98.027533 
L 147.98899 94.242667 
L 148.279876 95.756613 
L 148.570762 94.99964 
L 148.861648 105.597266 
L 149.152535 93.485669 
L 150.025194 99.541479 
L 150.31608 95.756613 
L 150.606966 96.513586 
L 150.897853 100.298453 
L 151.188739 98.784506 
L 151.479625 95.756613 
L 151.770512 101.055426 
L 152.061398 98.784506 
L 152.352284 98.027533 
L 152.64317 94.99964 
L 152.934057 90.457776 
L 153.224943 94.242667 
L 153.515829 96.513586 
L 153.806716 91.971723 
L 154.097602 99.541479 
L 154.388488 98.027533 
L 154.679375 98.027533 
L 154.970261 100.298453 
L 155.552033 94.242667 
L 156.133806 95.756613 
L 156.424692 95.756613 
L 157.006465 98.784506 
L 157.588238 89.700803 
L 157.879124 95.756613 
L 158.17001 94.99964 
L 158.460897 93.485669 
L 158.751783 102.569373 
L 159.042669 98.784506 
L 159.333555 92.728696 
L 159.915328 101.055426 
L 160.206214 94.99964 
L 160.497101 95.756613 
L 160.787987 92.728696 
L 161.078873 94.242667 
L 161.660646 95.756613 
L 161.951532 97.27056 
L 162.242419 85.915936 
L 162.533305 95.756613 
L 162.824191 92.728696 
L 163.115077 91.971723 
L 163.405964 99.541479 
L 163.69685 98.784506 
L 164.278623 94.99964 
L 164.569509 94.99964 
L 164.860395 93.485669 
L 165.151282 94.242667 
L 165.442168 93.485669 
L 165.733054 90.457776 
L 166.023941 94.242667 
L 166.314827 94.99964 
L 166.605713 91.214749 
L 166.896599 90.457776 
L 167.187486 88.94383 
L 167.478372 92.728696 
L 167.769258 94.242667 
L 168.060145 94.99964 
L 168.351031 89.700803 
L 168.641917 97.27056 
L 168.932804 89.700803 
L 169.514576 94.99964 
L 169.805463 88.186856 
L 170.096349 97.27056 
L 170.387235 91.214749 
L 170.678121 94.242667 
L 170.969008 89.700803 
L 171.259894 93.485669 
L 171.55078 94.99964 
L 172.132553 91.971723 
L 172.423439 92.728696 
L 172.714326 94.99964 
L 173.005212 87.429883 
L 173.296098 95.756613 
L 173.586985 94.242667 
L 173.877871 88.94383 
L 174.168757 92.728696 
L 174.459643 88.186856 
L 174.75053 96.513586 
L 175.041416 92.728696 
L 175.623189 91.214749 
L 175.914075 92.728696 
L 176.204961 91.214749 
L 176.495848 88.186856 
L 176.786734 95.756613 
L 177.07762 91.971723 
L 177.368506 95.756613 
L 177.659393 90.457776 
L 177.950279 94.242667 
L 178.241165 93.485669 
L 178.532052 93.485669 
L 178.822938 94.99964 
L 179.113824 92.728696 
L 179.404711 96.513586 
L 179.695597 91.971723 
L 179.986483 90.457776 
L 180.27737 94.242667 
L 180.568256 85.158963 
L 180.859142 91.971723 
L 181.150028 95.756613 
L 181.440915 90.457776 
L 181.731801 94.242667 
L 182.022687 94.242667 
L 182.313574 91.214749 
L 182.60446 94.242667 
L 182.895346 94.242667 
L 183.477119 87.429883 
L 183.768005 91.214749 
L 184.058892 97.27056 
L 184.349778 91.214749 
L 184.640664 88.186856 
L 184.93155 89.700803 
L 185.222437 95.756613 
L 185.513323 84.40199 
L 186.095096 95.756613 
L 186.385982 89.700803 
L 186.676868 91.214749 
L 186.967755 87.429883 
L 187.258641 91.214749 
L 187.549527 90.457776 
L 187.840414 88.186856 
L 188.1313 98.027533 
L 188.422186 88.186856 
L 188.713072 87.429883 
L 189.003959 85.915936 
L 189.294845 92.728696 
L 189.585731 92.728696 
L 189.876618 86.67291 
L 190.167504 88.186856 
L 190.45839 82.888043 
L 190.749277 91.971723 
L 191.040163 86.67291 
L 191.331049 91.214749 
L 191.621936 88.186856 
L 191.912822 88.94383 
L 192.203708 85.158963 
L 192.494594 85.915936 
L 193.076367 91.214749 
L 193.367253 88.94383 
L 193.65814 89.700803 
L 193.949026 89.700803 
L 194.530799 85.158963 
L 194.821685 84.40199 
L 195.112571 88.186856 
L 195.403458 89.700803 
L 195.694344 94.99964 
L 195.98523 89.700803 
L 196.276116 92.728696 
L 196.567003 87.429883 
L 196.857889 85.158963 
L 197.148775 94.99964 
L 197.730548 84.40199 
L 198.021434 90.457776 
L 198.312321 85.915936 
L 198.603207 91.214749 
L 198.894093 89.700803 
L 199.184979 88.94383 
L 199.475866 88.94383 
L 199.766752 89.700803 
L 200.057638 85.158963 
L 200.348525 88.186856 
L 200.639411 88.94383 
L 201.221184 83.645017 
L 201.51207 84.40199 
L 201.802956 84.40199 
L 202.093843 86.67291 
L 202.384729 79.86015 
L 202.675615 86.67291 
L 202.966501 79.86015 
L 203.257388 88.186856 
L 203.548274 89.700803 
L 203.83916 88.186856 
L 204.130047 88.186856 
L 204.420933 83.645017 
L 204.711819 85.158963 
L 205.002706 87.429883 
L 205.293592 91.214749 
L 205.584478 89.700803 
L 205.875365 82.13107 
L 206.166251 90.457776 
L 206.457137 85.915936 
L 206.748023 91.214749 
L 207.03891 90.457776 
L 207.329796 86.67291 
L 207.620682 90.457776 
L 207.911569 83.645017 
L 208.202455 88.186856 
L 208.493341 85.158963 
L 208.784228 88.186856 
L 209.075114 88.94383 
L 209.366 85.158963 
L 209.656887 90.457776 
L 210.238659 85.158963 
L 210.529545 88.94383 
L 211.111318 84.40199 
L 211.402204 85.915936 
L 211.693091 83.645017 
L 211.983977 91.214749 
L 212.274863 88.94383 
L 212.56575 88.94383 
L 212.856636 85.158963 
L 213.147522 86.67291 
L 213.438409 86.67291 
L 213.729295 88.186856 
L 214.020181 85.915936 
L 214.311067 90.457776 
L 214.601954 89.700803 
L 214.89284 91.214749 
L 215.183726 90.457776 
L 215.474613 82.888043 
L 215.765499 88.94383 
L 216.056385 85.158963 
L 216.347272 82.888043 
L 216.638158 94.242667 
L 217.219931 81.374097 
L 217.510817 84.40199 
L 217.801703 82.888043 
L 218.092589 85.915936 
L 218.383476 86.67291 
L 218.674362 89.700803 
L 218.965248 83.645017 
L 219.256135 84.40199 
L 219.547021 90.457776 
L 219.837907 83.645017 
L 220.128794 86.67291 
L 220.41968 87.429883 
L 220.710566 85.915936 
L 221.001452 78.346204 
L 221.292339 84.40199 
L 221.583225 83.645017 
L 221.874111 85.158963 
L 222.164998 87.429883 
L 222.455884 86.67291 
L 222.74677 84.40199 
L 223.037657 88.186856 
L 223.328543 85.158963 
L 223.619429 84.40199 
L 223.910316 82.888043 
L 224.201202 87.429883 
L 224.492088 83.645017 
L 225.073861 85.158963 
L 225.364747 82.888043 
L 225.655633 85.915936 
L 225.94652 79.86015 
L 226.237406 85.158963 
L 226.528292 82.13107 
L 227.110065 88.186856 
L 227.400951 80.617124 
L 227.691838 85.158963 
L 227.982724 85.915936 
L 228.27361 85.915936 
L 228.564496 86.67291 
L 229.146269 79.86015 
L 229.437155 79.103177 
L 229.728042 80.617124 
L 230.018928 85.158963 
L 230.600701 79.103177 
L 231.182473 84.40199 
L 231.47336 82.888043 
L 231.764246 79.86015 
L 232.055132 85.915936 
L 232.346018 78.346204 
L 232.636905 83.645017 
L 232.927791 86.67291 
L 233.218677 88.186856 
L 233.509564 79.86015 
L 233.80045 84.40199 
L 234.091336 82.13107 
L 234.382223 81.374097 
L 234.673109 82.888043 
L 234.963995 89.700803 
L 235.254882 82.888043 
L 235.545768 82.888043 
L 235.836654 76.832257 
L 236.418427 82.888043 
L 236.709313 83.645017 
L 237.000199 83.645017 
L 237.291086 79.86015 
L 237.581972 82.13107 
L 237.872858 80.617124 
L 238.163745 86.67291 
L 238.454631 83.645017 
L 238.745517 86.67291 
L 239.036404 78.346204 
L 239.32729 78.346204 
L 239.618176 74.561337 
L 239.909062 85.158963 
L 240.199949 82.13107 
L 240.490835 82.13107 
L 240.781721 80.617124 
L 241.072608 82.888043 
L 241.363494 79.103177 
L 241.65438 80.617124 
L 241.945267 83.645017 
L 242.236153 79.103177 
L 242.817925 85.158963 
L 243.108812 84.40199 
L 243.399698 76.832257 
L 243.981471 83.645017 
L 244.272357 75.318311 
L 244.85413 85.915936 
L 245.145016 85.915936 
L 245.435902 77.58923 
L 245.726789 78.346204 
L 246.017675 83.645017 
L 246.308561 74.561337 
L 246.599447 81.374097 
L 246.890334 81.374097 
L 247.18122 78.346204 
L 247.762993 81.374097 
L 248.344765 76.832257 
L 248.635652 88.186856 
L 248.926538 77.58923 
L 249.217424 78.346204 
L 249.508311 83.645017 
L 250.090083 74.561337 
L 250.962742 84.40199 
L 251.253628 76.075284 
L 251.544515 80.617124 
L 251.835401 79.86015 
L 252.126287 82.13107 
L 252.417174 81.374097 
L 252.70806 75.318311 
L 252.998946 81.374097 
L 253.289833 82.888043 
L 253.871605 77.58923 
L 254.162491 78.346204 
L 254.453378 73.047391 
L 255.03515 79.103177 
L 255.616923 76.075284 
L 255.907809 79.86015 
L 256.198696 79.103177 
L 256.489582 80.617124 
L 256.780468 83.645017 
L 257.071355 76.075284 
L 257.362241 81.374097 
L 257.653127 78.346204 
L 257.944013 79.103177 
L 258.2349 79.103177 
L 258.525786 70.776471 
L 258.816672 79.86015 
L 259.107559 79.86015 
L 259.398445 78.346204 
L 259.689331 78.346204 
L 259.980218 77.58923 
L 260.271104 79.103177 
L 260.852877 85.915936 
L 261.143763 78.346204 
L 261.434649 76.832257 
L 261.725535 79.103177 
L 262.016422 77.58923 
L 262.307308 77.58923 
L 262.598194 81.374097 
L 262.889081 74.561337 
L 263.179967 77.58923 
L 263.76174 77.58923 
L 264.052626 78.346204 
L 264.343512 72.290418 
L 264.634398 81.374097 
L 264.925285 79.86015 
L 265.216171 75.318311 
L 265.507057 73.047391 
L 265.797944 82.13107 
L 266.08883 76.075284 
L 266.379716 79.86015 
L 266.670603 71.533444 
L 266.961489 76.832257 
L 267.252375 78.346204 
L 267.543262 70.776471 
L 267.834148 75.318311 
L 268.125034 76.832257 
L 268.41592 77.58923 
L 268.706807 83.645017 
L 268.997693 75.318311 
L 269.288579 76.075284 
L 269.579466 73.804364 
L 269.870352 73.047391 
L 270.161238 79.86015 
L 270.743011 70.776471 
L 271.033897 73.047391 
L 271.324784 73.804364 
L 271.61567 76.832257 
L 271.906556 75.318311 
L 272.197442 77.58923 
L 272.488329 77.58923 
L 272.779215 76.075284 
L 273.070101 72.290418 
L 273.360988 75.318311 
L 273.651874 74.561337 
L 273.94276 78.346204 
L 274.233647 76.075284 
L 274.524533 77.58923 
L 274.815419 82.888043 
L 275.106306 77.58923 
L 275.397192 78.346204 
L 275.688078 70.776471 
L 275.978964 72.290418 
L 276.269851 74.561337 
L 276.560737 78.346204 
L 276.851623 76.832257 
L 277.14251 74.561337 
L 277.433396 76.832257 
L 277.724282 70.776471 
L 278.015169 74.561337 
L 278.306055 79.86015 
L 278.887828 76.075284 
L 279.178714 70.019498 
L 279.4696 78.346204 
L 279.760486 72.290418 
L 280.051373 79.86015 
L 280.342259 73.047391 
L 280.633145 82.13107 
L 280.924032 73.804364 
L 281.214918 75.318311 
L 281.505804 73.804364 
L 281.796691 70.776471 
L 282.087577 78.346204 
L 282.378463 71.533444 
L 282.66935 73.804364 
L 282.960236 73.047391 
L 283.251122 78.346204 
L 283.832895 73.804364 
L 284.123781 79.86015 
L 284.414667 77.58923 
L 284.705554 79.103177 
L 284.99644 77.58923 
L 285.287326 77.58923 
L 285.578213 72.290418 
L 285.869099 76.075284 
L 286.159985 73.047391 
L 286.450871 76.832257 
L 286.741758 71.533444 
L 287.032644 73.047391 
L 287.32353 68.505551 
L 287.614417 73.804364 
L 287.905303 69.262524 
L 288.196189 70.776471 
L 288.487076 70.019498 
L 288.777962 79.103177 
L 289.068848 73.804364 
L 289.359735 76.832257 
L 289.650621 76.075284 
L 289.941507 72.290418 
L 290.232393 73.804364 
L 290.52328 73.047391 
L 290.814166 76.075284 
L 291.105052 72.290418 
L 291.395939 74.561337 
L 291.686825 73.804364 
L 292.268598 73.804364 
L 292.559484 67.748578 
L 293.141257 71.533444 
L 293.432143 71.533444 
L 293.723029 75.318311 
L 294.013915 71.533444 
L 294.304802 82.13107 
L 294.595688 70.019498 
L 294.886574 73.804364 
L 295.177461 67.748578 
L 295.468347 66.234631 
L 296.05012 76.832257 
L 296.631892 66.991605 
L 296.922779 74.561337 
L 297.213665 72.290418 
L 297.504551 73.804364 
L 297.795437 76.075284 
L 298.086324 65.477658 
L 298.37721 69.262524 
L 298.668096 76.075284 
L 298.958983 71.533444 
L 299.540755 70.019498 
L 299.831642 72.290418 
L 300.122528 72.290418 
L 300.413414 67.748578 
L 300.704301 74.561337 
L 300.995187 73.804364 
L 301.286073 72.290418 
L 301.576959 76.832257 
L 301.867846 72.290418 
L 302.158732 72.290418 
L 302.449618 76.075284 
L 302.740505 68.505551 
L 303.031391 65.477658 
L 303.322277 72.290418 
L 303.613164 68.505551 
L 303.90405 77.58923 
L 304.194936 66.991605 
L 304.485823 71.533444 
L 304.776709 66.991605 
L 305.067595 70.019498 
L 305.358481 66.991605 
L 305.649368 70.776471 
L 306.23114 63.963711 
L 306.522027 76.075284 
L 306.812913 70.776471 
L 307.103799 73.804364 
L 307.394686 67.748578 
L 307.976458 76.075284 
L 308.267344 66.234631 
L 308.558231 72.290418 
L 308.849117 68.505551 
L 309.140003 67.748578 
L 309.43089 73.047391 
L 309.721776 69.262524 
L 310.012662 68.505551 
L 310.303549 70.019498 
L 310.885321 75.318311 
L 311.176208 70.019498 
L 311.467094 70.776471 
L 311.75798 66.991605 
L 312.048866 70.776471 
L 312.339753 68.505551 
L 312.630639 72.290418 
L 312.921525 66.991605 
L 313.212412 72.290418 
L 313.503298 70.776471 
L 313.794184 73.804364 
L 314.085071 70.019498 
L 314.375957 73.804364 
L 314.666843 73.047391 
L 314.95773 70.776471 
L 315.539502 69.262524 
L 315.830388 67.748578 
L 316.121275 72.290418 
L 316.412161 66.234631 
L 317.28482 68.505551 
L 317.575706 73.804364 
L 318.739252 65.477658 
L 319.321024 73.047391 
L 319.61191 65.477658 
L 319.902797 66.991605 
L 320.193683 70.019498 
L 320.484569 66.234631 
L 320.775456 66.991605 
L 321.066342 72.290418 
L 321.357228 72.290418 
L 321.648115 67.748578 
L 321.939001 70.019498 
L 322.229887 66.234631 
L 322.520774 66.991605 
L 322.81166 73.047391 
L 323.102546 72.290418 
L 323.393432 66.991605 
L 323.684319 64.720685 
L 323.975205 68.505551 
L 324.266091 70.019498 
L 324.556978 65.477658 
L 324.847864 70.776471 
L 325.13875 64.720685 
L 325.429637 66.991605 
L 325.720523 67.748578 
L 326.011409 69.262524 
L 326.302296 76.075284 
L 326.593182 73.047391 
L 326.884068 66.991605 
L 327.174954 68.505551 
L 327.465841 69.262524 
L 327.756727 67.748578 
L 328.047613 70.776471 
L 328.629386 66.234631 
L 328.920272 66.234631 
L 329.792931 73.804364 
L 330.083817 66.991605 
L 330.374704 71.533444 
L 330.66559 62.449765 
L 330.956476 73.804364 
L 331.247363 70.019498 
L 331.538249 70.019498 
L 331.829135 66.991605 
L 332.120022 70.019498 
L 332.410908 66.234631 
L 332.701794 73.804364 
L 332.992681 70.019498 
L 333.283567 71.533444 
L 333.574453 66.991605 
L 333.865339 68.505551 
L 334.156226 71.533444 
L 334.447112 73.047391 
L 335.028885 63.206738 
L 335.319771 66.991605 
L 335.610657 69.262524 
L 335.901544 68.505551 
L 336.19243 65.477658 
L 336.483316 66.991605 
L 336.774203 69.262524 
L 337.065089 69.262524 
L 337.355975 63.963711 
L 337.646861 62.449765 
L 337.937748 59.421872 
L 338.228634 71.533444 
L 338.51952 71.533444 
L 338.810407 69.262524 
L 339.101293 70.019498 
L 339.392179 61.692792 
L 339.973952 67.748578 
L 340.264838 68.505551 
L 340.555725 68.505551 
L 340.846611 67.748578 
L 341.137497 67.748578 
L 341.428383 69.262524 
L 341.71927 65.477658 
L 342.010156 69.262524 
L 342.301042 63.963711 
L 342.591929 69.262524 
L 342.882815 67.748578 
L 343.173701 72.290418 
L 343.464588 63.206738 
L 343.755474 67.748578 
L 344.04636 63.963711 
L 344.337247 67.748578 
L 344.628133 65.477658 
L 344.919019 73.047391 
L 345.209905 66.991605 
L 345.500792 64.720685 
L 345.791678 66.991605 
L 346.373451 74.561337 
L 346.664337 66.234631 
L 346.955223 69.262524 
L 347.24611 67.748578 
L 347.536996 63.963711 
L 347.827882 70.776471 
L 348.118769 72.290418 
L 348.409655 64.720685 
L 348.700541 66.234631 
L 348.991427 64.720685 
L 349.282314 71.533444 
L 349.5732 63.206738 
L 349.864086 64.720685 
L 350.154973 63.206738 
L 350.445859 66.234631 
L 350.736745 67.748578 
L 351.027632 62.449765 
L 351.318518 64.720685 
L 351.609404 64.720685 
L 351.90029 70.019498 
L 352.191177 60.935818 
L 352.482063 69.262524 
L 352.772949 62.449765 
L 353.063836 65.477658 
L 353.354722 65.477658 
L 353.645608 70.019498 
L 353.936495 63.206738 
L 354.227381 62.449765 
L 354.518267 65.477658 
L 354.809154 66.991605 
L 355.10004 65.477658 
L 355.390926 66.234631 
L 355.681812 65.477658 
L 355.972699 65.477658 
L 356.263585 63.963711 
L 356.554471 60.935818 
L 356.845358 61.692792 
L 357.136244 61.692792 
L 357.42713 66.991605 
L 357.718017 67.748578 
L 358.008903 69.262524 
L 358.590676 63.206738 
L 358.881562 66.991605 
L 359.172448 59.421872 
L 359.463334 68.505551 
L 359.754221 63.206738 
L 360.045107 63.206738 
L 360.335993 65.477658 
L 360.62688 64.720685 
L 360.917766 73.047391 
L 361.208652 63.206738 
L 361.499539 62.449765 
L 361.790425 68.505551 
L 362.081311 63.206738 
L 362.372198 61.692792 
L 362.663084 66.991605 
L 362.95397 64.720685 
L 363.244856 64.720685 
L 363.535743 66.991605 
L 363.826629 64.720685 
L 364.117515 65.477658 
L 364.408402 60.178845 
L 364.699288 63.206738 
L 364.990174 63.206738 
L 365.281061 66.234631 
L 365.571947 66.234631 
L 366.15372 64.720685 
L 366.444606 62.449765 
L 366.735492 70.776471 
L 367.026378 63.963711 
L 367.317265 60.935818 
L 367.608151 60.935818 
L 368.189924 66.234631 
L 368.771696 60.935818 
L 369.062583 70.019498 
L 369.353469 63.206738 
L 369.644355 63.206738 
L 370.226128 69.262524 
L 370.517014 63.963711 
L 370.8079 62.449765 
L 371.098787 63.963711 
L 371.389673 63.206738 
L 371.680559 68.505551 
L 371.971446 65.477658 
L 372.262332 66.234631 
L 372.553218 64.720685 
L 372.844105 65.477658 
L 373.134991 63.963711 
L 373.425877 63.963711 
L 373.716763 68.505551 
L 374.00765 64.720685 
L 374.589422 60.935818 
L 374.880309 64.720685 
L 375.171195 63.206738 
L 375.462081 66.991605 
L 375.752968 73.804364 
L 376.043854 62.449765 
L 376.33474 64.720685 
L 376.625627 64.720685 
L 376.916513 63.206738 
L 377.207399 63.206738 
L 377.498285 60.935818 
L 377.789172 62.449765 
L 378.080058 59.421872 
L 378.661831 66.991605 
L 378.952717 62.449765 
L 379.243603 65.477658 
L 379.825376 57.907925 
L 380.407149 68.505551 
L 380.698035 65.477658 
L 380.988921 59.421872 
L 381.279807 63.206738 
L 381.570694 63.206738 
L 381.86158 58.664899 
L 382.152466 65.477658 
L 382.443353 65.477658 
L 382.734239 59.421872 
L 383.025125 66.234631 
L 383.316012 62.449765 
L 383.606898 63.206738 
L 384.188671 61.692792 
L 384.479557 61.692792 
L 384.770443 58.664899 
L 385.352216 61.692792 
L 385.643102 63.963711 
L 385.933988 62.449765 
L 386.224875 62.449765 
L 386.515761 63.963711 
L 386.806647 63.963711 
L 387.097534 61.692792 
L 387.38842 69.262524 
L 387.679306 63.963711 
L 387.970193 64.720685 
L 388.261079 61.692792 
L 388.551965 64.720685 
L 388.842851 64.720685 
L 389.133738 65.477658 
L 389.424624 60.178845 
L 389.71551 65.477658 
L 390.006397 63.963711 
L 390.297283 65.477658 
L 390.588169 63.963711 
L 390.879056 57.150952 
L 391.169942 56.393979 
L 391.460828 63.206738 
L 391.751715 64.720685 
L 392.333487 60.935818 
L 392.624373 62.449765 
L 392.91526 61.692792 
L 393.206146 66.991605 
L 393.497032 66.991605 
L 394.078805 61.692792 
L 394.369691 61.692792 
L 394.660578 58.664899 
L 394.951464 63.963711 
L 395.24235 60.935818 
L 395.533237 70.019498 
L 395.824123 63.963711 
L 396.115009 65.477658 
L 396.405895 60.178845 
L 396.696782 58.664899 
L 396.987668 63.963711 
L 397.278554 60.935818 
L 397.569441 62.449765 
L 397.860327 62.449765 
L 398.151213 64.720685 
L 398.4421 54.880032 
L 399.023872 67.748578 
L 399.314758 64.720685 
L 399.605645 60.178845 
L 399.896531 63.206738 
L 400.187417 58.664899 
L 400.478304 57.907925 
L 400.76919 61.692792 
L 401.060076 63.963711 
L 401.350963 64.720685 
L 401.641849 59.421872 
L 401.932735 63.963711 
L 402.223622 62.449765 
L 402.514508 63.963711 
L 402.805394 59.421872 
L 403.09628 63.206738 
L 403.387167 57.907925 
L 403.678053 68.505551 
L 403.968939 60.178845 
L 404.259826 63.963711 
L 404.841598 62.449765 
L 405.132485 60.935818 
L 405.423371 60.935818 
L 406.005144 63.963711 
L 406.29603 60.178845 
L 406.586916 62.449765 
L 406.877802 67.748578 
L 407.168689 58.664899 
L 407.459575 62.449765 
L 407.750461 63.963711 
L 408.041348 64.720685 
L 408.914007 62.449765 
L 409.204893 60.178845 
L 409.495779 60.178845 
L 409.786666 63.206738 
L 410.077552 60.178845 
L 410.368438 60.935818 
L 410.659324 60.178845 
L 410.950211 64.720685 
L 411.241097 57.907925 
L 411.531983 66.234631 
L 411.82287 63.206738 
L 412.113756 62.449765 
L 412.404642 65.477658 
L 412.695529 60.935818 
L 412.986415 65.477658 
L 413.277301 61.692792 
L 413.568188 64.720685 
L 413.859074 60.935818 
L 414.14996 60.935818 
L 414.440846 61.692792 
L 414.731733 60.935818 
L 415.022619 55.637005 
L 415.313505 64.720685 
L 415.604392 61.692792 
L 415.895278 57.150952 
L 416.477051 60.178845 
L 416.767937 60.935818 
L 417.058823 64.720685 
L 417.640596 58.664899 
L 417.931482 63.206738 
L 418.513255 64.720685 
L 419.095027 61.692792 
L 419.385914 61.692792 
L 419.6768 58.664899 
L 420.258573 62.449765 
L 420.549459 59.421872 
L 420.840345 59.421872 
L 421.131231 57.907925 
L 421.422118 60.935818 
L 421.713004 59.421872 
L 422.00389 64.720685 
L 422.294777 62.449765 
L 422.585663 65.477658 
L 422.876549 62.449765 
L 423.167436 57.150952 
L 423.458322 57.907925 
L 423.749208 60.935818 
L 424.040095 59.421872 
L 424.330981 59.421872 
L 424.621867 57.907925 
L 424.912753 60.935818 
L 425.20364 61.692792 
L 425.494526 60.935818 
L 425.785412 63.963711 
L 426.367185 57.907925 
L 427.239844 63.963711 
L 427.53073 60.935818 
L 427.821617 63.963711 
L 428.112503 60.935818 
L 428.403389 66.991605 
L 428.694275 58.664899 
L 428.985162 59.421872 
L 429.276048 60.935818 
L 429.566934 56.393979 
L 430.148707 63.206738 
L 430.439593 59.421872 
L 430.73048 61.692792 
L 431.021366 62.449765 
L 431.312252 64.720685 
L 431.603139 61.692792 
L 431.894025 61.692792 
L 432.184911 60.178845 
L 432.475797 57.907925 
L 432.766684 59.421872 
L 433.05757 62.449765 
L 433.348456 62.449765 
L 433.639343 57.907925 
L 433.930229 57.907925 
L 434.221115 62.449765 
L 434.512002 59.421872 
L 434.802888 60.935818 
L 435.384661 57.907925 
L 435.675547 58.664899 
L 435.966433 62.449765 
L 436.257319 62.449765 
L 436.548206 63.206738 
L 436.839092 59.421872 
L 437.129978 57.150952 
L 437.420865 60.178845 
L 437.711751 60.178845 
L 438.002637 57.150952 
L 438.58441 60.935818 
L 438.875296 62.449765 
L 439.166183 57.907925 
L 439.457069 62.449765 
L 439.747955 59.421872 
L 440.038841 58.664899 
L 440.329728 60.935818 
L 440.9115 57.907925 
L 441.202387 63.206738 
L 441.493273 55.637005 
L 441.784159 54.123059 
L 442.075046 57.907925 
L 442.365932 58.664899 
L 442.656818 57.150952 
L 442.947704 60.935818 
L 443.238591 59.421872 
L 443.529477 62.449765 
L 443.820363 57.150952 
L 444.11125 59.421872 
L 444.402136 60.178845 
L 444.693022 62.449765 
L 444.983909 59.421872 
L 445.274795 57.907925 
L 445.565681 57.907925 
L 445.856568 58.664899 
L 446.147454 54.880032 
L 446.43834 60.178845 
L 447.020113 61.692792 
L 447.310999 66.234631 
L 447.601885 57.907925 
L 447.892772 62.449765 
L 448.183658 55.637005 
L 448.474544 59.421872 
L 448.765431 57.150952 
L 449.056317 59.421872 
L 449.347203 65.477658 
L 449.63809 62.449765 
L 449.928976 57.150952 
L 450.219862 57.907925 
L 450.801635 63.206738 
L 451.092521 58.664899 
L 451.383407 60.178845 
L 451.674294 57.150952 
L 452.256066 60.178845 
L 452.546953 55.637005 
L 452.837839 61.692792 
L 453.128725 60.935818 
L 453.419612 57.907925 
L 453.710498 57.907925 
L 454.001384 58.664899 
L 454.29227 57.150952 
L 454.583157 59.421872 
L 454.874043 60.178845 
L 455.164929 57.150952 
L 455.455816 58.664899 
L 455.746702 56.393979 
L 456.037588 59.421872 
L 456.328475 63.963711 
L 456.619361 59.421872 
L 456.910247 62.449765 
L 457.201134 60.935818 
L 457.49202 60.935818 
L 457.782906 63.206738 
L 458.073792 60.935818 
L 458.364679 57.150952 
L 458.655565 59.421872 
L 458.946451 55.637005 
L 459.237338 63.206738 
L 459.528224 60.935818 
L 460.109997 59.421872 
L 460.691769 62.449765 
L 460.982656 54.123059 
L 461.273542 60.178845 
L 461.564428 57.150952 
L 461.855314 57.150952 
L 462.146201 59.421872 
L 462.437087 58.664899 
L 462.727973 54.880032 
L 463.01886 60.935818 
L 463.309746 58.664899 
L 463.600632 53.366086 
L 463.891519 55.637005 
L 464.473291 63.206738 
L 464.764177 57.150952 
L 465.055064 57.150952 
L 465.34595 58.664899 
L 465.636836 57.907925 
L 465.927723 58.664899 
L 466.218609 60.178845 
L 466.509495 57.150952 
L 466.800382 60.178845 
L 467.091268 57.150952 
L 467.382154 59.421872 
L 467.963927 55.637005 
L 468.254813 57.907925 
L 468.545699 58.664899 
L 468.836586 57.907925 
L 469.127472 59.421872 
L 469.418358 57.150952 
L 469.709245 57.907925 
L 470.000131 57.907925 
L 470.291017 56.393979 
L 470.581904 56.393979 
L 470.87279 57.150952 
L 471.163676 59.421872 
L 471.454563 57.150952 
L 471.745449 60.935818 
L 472.036335 57.907925 
L 472.327221 62.449765 
L 472.618108 57.907925 
L 472.908994 60.935818 
L 473.19988 58.664899 
L 473.490767 62.449765 
L 473.781653 56.393979 
L 474.072539 57.150952 
L 474.363426 59.421872 
L 474.945198 55.637005 
L 475.236085 57.907925 
L 475.526971 62.449765 
L 475.817857 53.366086 
L 476.108743 56.393979 
L 476.39963 63.963711 
L 476.690516 54.880032 
L 476.981402 57.907925 
L 477.272289 54.880032 
L 477.854061 60.178845 
L 478.144948 57.150952 
L 478.435834 57.150952 
L 478.72672 54.123059 
L 479.017607 56.393979 
L 479.308493 54.123059 
L 479.599379 54.880032 
L 479.890265 54.880032 
L 480.181152 63.206738 
L 480.472038 55.637005 
L 480.762924 55.637005 
L 481.053811 58.664899 
L 481.344697 56.393979 
L 481.635583 59.421872 
L 481.92647 56.393979 
L 482.508242 57.907925 
L 482.799129 59.421872 
L 483.090015 57.150952 
L 483.671787 58.664899 
L 483.962674 61.692792 
L 484.25356 59.421872 
L 484.544446 60.178845 
L 484.835333 54.123059 
L 485.126219 59.421872 
L 485.417105 58.664899 
L 485.707992 58.664899 
L 485.998878 60.935818 
L 486.289764 58.664899 
L 486.58065 54.123059 
L 486.871537 59.421872 
L 487.162423 58.664899 
L 487.453309 61.692792 
L 487.744196 56.393979 
L 488.035082 53.366086 
L 488.325968 56.393979 
L 488.616855 56.393979 
L 488.907741 58.664899 
L 489.198627 59.421872 
L 489.489514 57.907925 
L 489.7804 58.664899 
L 490.071286 58.664899 
L 490.362172 54.880032 
L 490.653059 57.907925 
L 490.943945 56.393979 
L 491.234831 58.664899 
L 491.525718 58.664899 
L 491.816604 63.963711 
L 492.10749 54.880032 
L 492.398377 51.852139 
L 492.689263 54.880032 
L 492.980149 53.366086 
L 493.271036 57.907925 
L 493.561922 57.907925 
L 493.852808 54.880032 
L 494.143694 55.637005 
L 494.434581 58.664899 
L 494.725467 55.637005 
L 495.016353 54.880032 
L 495.30724 57.150952 
L 495.598126 60.935818 
L 495.889012 60.178845 
L 496.179899 56.393979 
L 496.470785 57.907925 
L 496.761671 57.907925 
L 497.052558 57.150952 
L 497.343444 54.123059 
L 497.63433 59.421872 
L 497.925216 54.880032 
L 498.216103 57.907925 
L 498.506989 57.150952 
L 498.797875 57.907925 
L 499.088762 50.338193 
L 499.379648 56.393979 
L 499.670534 59.421872 
L 499.961421 55.637005 
L 500.252307 60.178845 
L 500.543193 56.393979 
L 500.83408 58.664899 
L 501.124966 58.664899 
L 501.415852 51.852139 
L 501.706738 58.664899 
L 501.997625 53.366086 
L 502.579397 54.880032 
L 502.870284 53.366086 
L 503.16117 55.637005 
L 503.452056 53.366086 
L 503.742943 59.421872 
L 504.033829 57.907925 
L 504.324715 59.421872 
L 504.615602 59.421872 
L 504.906488 57.907925 
L 505.197374 60.935818 
L 505.48826 54.123059 
L 505.779147 54.880032 
L 506.070033 57.907925 
L 506.651806 57.907925 
L 506.942692 57.150952 
L 507.233578 57.907925 
L 507.524465 54.123059 
L 507.815351 51.852139 
L 508.106237 60.935818 
L 508.397123 58.664899 
L 508.978896 57.150952 
L 509.269782 60.178845 
L 509.851555 56.393979 
L 510.142441 56.393979 
L 510.724214 59.421872 
L 511.0151 54.880032 
L 511.305987 57.150952 
L 511.887759 53.366086 
L 512.178645 54.880032 
L 512.469532 54.880032 
L 512.760418 55.637005 
L 513.051304 54.880032 
L 513.342191 56.393979 
L 513.633077 60.935818 
L 513.923963 57.150952 
L 514.21485 57.150952 
L 514.505736 57.907925 
L 514.796622 54.880032 
L 515.087509 54.880032 
L 515.378395 56.393979 
L 515.669281 56.393979 
L 515.960167 54.123059 
L 516.251054 55.637005 
L 516.54194 52.609112 
L 516.832826 55.637005 
L 517.123713 57.150952 
L 517.414599 57.150952 
L 517.705485 51.095166 
L 517.996372 54.880032 
L 518.287258 57.150952 
L 518.578144 57.150952 
L 518.869031 57.907925 
L 519.159917 56.393979 
L 519.450803 60.935818 
L 519.741689 56.393979 
L 520.323462 53.366086 
L 520.614348 53.366086 
L 520.905235 61.692792 
L 521.487007 51.095166 
L 521.777894 57.150952 
L 522.06878 57.150952 
L 522.359666 51.095166 
L 522.650553 54.880032 
L 522.941439 54.880032 
L 523.232325 57.150952 
L 523.523211 56.393979 
L 524.104984 59.421872 
L 524.39587 56.393979 
L 524.686757 51.095166 
L 524.977643 57.907925 
L 525.268529 58.664899 
L 525.559416 55.637005 
L 525.850302 59.421872 
L 526.141188 57.150952 
L 526.432075 56.393979 
L 526.722961 59.421872 
L 527.013847 59.421872 
L 527.304733 55.637005 
L 527.59562 59.421872 
L 527.886506 54.123059 
L 528.468279 58.664899 
L 528.759165 58.664899 
L 529.050051 54.123059 
L 529.340938 57.907925 
L 529.631824 54.123059 
L 529.92271 60.178845 
L 530.213596 57.907925 
L 530.504483 54.123059 
L 530.795369 57.150952 
L 531.086255 62.449765 
L 531.377142 62.449765 
L 531.668028 57.150952 
L 531.958914 57.907925 
L 532.249801 55.637005 
L 532.540687 56.393979 
L 532.831573 55.637005 
L 533.12246 57.907925 
L 533.413346 58.664899 
L 533.704232 53.366086 
L 533.995118 54.123059 
L 534.286005 54.123059 
L 534.576891 54.880032 
L 535.158664 61.692792 
L 535.44955 60.935818 
L 535.740436 57.150952 
L 536.031323 58.664899 
L 536.322209 57.150952 
L 536.613095 54.123059 
L 536.903982 54.123059 
L 537.485754 57.907925 
L 537.77664 52.609112 
L 538.358413 55.637005 
L 538.649299 58.664899 
L 538.940186 58.664899 
L 539.231072 57.150952 
L 539.521958 58.664899 
L 539.812845 57.907925 
L 540.103731 55.637005 
L 540.394617 56.393979 
L 540.685504 56.393979 
L 540.97639 57.150952 
L 541.267276 55.637005 
L 541.558162 54.880032 
L 541.849049 52.609112 
L 542.139935 55.637005 
L 542.430821 55.637005 
L 542.721708 56.393979 
L 543.012594 52.609112 
L 543.30348 54.123059 
L 543.594367 60.935818 
L 544.176139 57.150952 
L 544.467026 52.609112 
L 544.757912 57.150952 
L 545.048798 54.880032 
L 545.339684 54.123059 
L 545.630571 60.178845 
L 545.921457 61.692792 
L 546.50323 52.609112 
L 546.794116 58.664899 
L 547.085002 54.123059 
L 547.375889 54.880032 
L 547.666775 54.123059 
L 547.957661 57.150952 
L 548.248548 52.609112 
L 548.539434 57.907925 
L 549.121206 54.880032 
L 549.412093 56.393979 
L 549.702979 54.123059 
L 549.993865 55.637005 
L 550.284752 56.393979 
L 550.575638 55.637005 
L 550.866524 51.095166 
L 551.157411 56.393979 
L 551.448297 53.366086 
L 551.739183 59.421872 
L 552.030069 54.880032 
L 552.320956 56.393979 
L 552.611842 56.393979 
L 552.902728 54.880032 
L 553.193615 57.907925 
L 553.484501 59.421872 
L 553.775387 57.907925 
L 554.066274 57.907925 
L 554.35716 53.366086 
L 554.648046 56.393979 
L 554.938933 56.393979 
L 555.229819 58.664899 
L 555.520705 57.150952 
L 556.102478 52.609112 
L 556.68425 57.150952 
L 556.975137 52.609112 
L 557.266023 53.366086 
L 557.556909 56.393979 
L 557.847796 55.637005 
L 558.138682 56.393979 
L 558.429568 56.393979 
L 558.720455 57.150952 
L 559.011341 53.366086 
L 559.302227 53.366086 
L 559.593113 57.150952 
L 559.884 54.880032 
L 560.174886 54.880032 
L 560.465772 54.123059 
L 560.756659 59.421872 
L 561.047545 57.907925 
L 561.338431 60.935818 
L 561.920204 54.123059 
L 562.501977 59.421872 
L 562.792863 55.637005 
L 563.083749 57.150952 
L 563.665522 54.123059 
L 563.956408 56.393979 
L 564.247294 57.150952 
L 564.538181 54.123059 
L 564.829067 55.637005 
L 565.119953 51.852139 
L 565.41084 53.366086 
L 565.701726 57.150952 
L 565.992612 58.664899 
L 566.283499 55.637005 
L 566.574385 56.393979 
L 566.865271 54.880032 
L 567.156157 55.637005 
L 567.447044 53.366086 
L 567.73793 57.150952 
L 568.028816 54.880032 
L 568.319703 54.880032 
L 568.610589 54.123059 
L 568.901475 57.907925 
L 569.192362 54.880032 
L 569.483248 54.880032 
L 569.774134 55.637005 
L 570.065021 51.095166 
L 570.646793 54.123059 
L 570.937679 52.609112 
L 571.228566 56.393979 
L 571.810338 51.852139 
L 572.101225 57.150952 
L 572.392111 51.095166 
L 572.682997 57.150952 
L 573.26477 57.150952 
L 573.555656 56.393979 
L 573.846542 52.609112 
L 574.719201 58.664899 
L 575.010088 52.609112 
L 575.300974 60.935818 
L 575.59186 49.581219 
L 575.882747 54.123059 
L 576.173633 52.609112 
L 576.464519 54.880032 
L 577.046292 54.880032 
L 577.337178 57.150952 
L 577.628064 54.880032 
L 577.918951 57.907925 
L 578.209837 51.095166 
L 578.500723 59.421872 
L 578.79161 53.366086 
L 579.082496 55.637005 
L 579.373382 52.609112 
L 579.664269 53.366086 
L 579.955155 52.609112 
L 580.246041 55.637005 
L 580.536928 52.609112 
L 580.827814 54.880032 
L 581.1187 54.880032 
L 581.409586 55.637005 
L 581.700473 53.366086 
L 581.991359 54.880032 
L 582.282245 53.366086 
L 582.573132 57.150952 
L 582.864018 51.852139 
L 583.154904 52.609112 
L 583.445791 54.123059 
L 583.736677 54.880032 
L 584.027563 53.366086 
L 584.31845 56.393979 
L 584.609336 57.907925 
L 584.900222 55.637005 
L 585.191108 57.150952 
L 585.481995 55.637005 
L 585.772881 53.366086 
L 586.354654 57.150952 
L 586.64554 57.150952 
L 587.518199 50.338193 
L 587.809085 56.393979 
L 588.099972 57.907925 
L 588.390858 55.637005 
L 588.681744 56.393979 
L 588.97263 52.609112 
L 589.263517 57.907925 
L 589.554403 58.664899 
L 589.845289 56.393979 
L 590.136176 52.609112 
L 590.427062 54.880032 
L 590.717948 60.935818 
L 591.008835 53.366086 
L 591.299721 52.609112 
L 591.590607 56.393979 
L 591.881494 57.150952 
L 592.463266 51.095166 
L 592.754152 54.880032 
L 593.335925 56.393979 
L 593.626811 54.123059 
L 593.917698 53.366086 
L 594.208584 57.150952 
L 594.49947 59.421872 
L 594.790357 51.852139 
L 595.081243 53.366086 
L 595.372129 56.393979 
L 595.663015 51.852139 
L 595.953902 50.338193 
L 596.244788 54.880032 
L 596.535674 53.366086 
L 596.826561 52.609112 
L 597.408333 57.150952 
L 597.69922 51.852139 
L 597.990106 54.123059 
L 598.280992 53.366086 
L 598.571879 53.366086 
L 598.862765 54.880032 
L 599.153651 58.664899 
L 599.444537 57.907925 
L 599.735424 52.609112 
L 600.02631 51.095166 
L 600.317196 54.123059 
L 600.608083 58.664899 
L 600.898969 56.393979 
L 601.480742 54.880032 
L 601.771628 57.150952 
L 602.062514 54.880032 
L 602.644287 56.393979 
L 602.935173 54.123059 
L 603.226059 56.393979 
L 603.516946 54.123059 
L 603.807832 53.366086 
L 604.098718 57.907925 
L 604.389605 59.421872 
L 604.680491 51.095166 
L 604.971377 54.123059 
L 605.262264 54.123059 
L 605.55315 57.150952 
L 605.844036 58.664899 
L 606.134923 54.880032 
L 606.425809 53.366086 
L 606.716695 54.880032 
L 607.007581 54.880032 
L 607.298468 50.338193 
L 607.589354 54.880032 
L 607.88024 51.852139 
L 608.171127 50.338193 
L 608.462013 54.880032 
L 608.752899 54.123059 
L 609.043786 55.637005 
L 609.334672 59.421872 
L 609.625558 54.880032 
L 609.916445 54.123059 
L 610.207331 51.852139 
L 610.498217 54.123059 
L 610.789103 54.880032 
L 611.07999 53.366086 
L 611.370876 57.150952 
L 611.661762 54.123059 
L 611.952649 52.609112 
L 612.243535 57.907925 
L 612.534421 54.880032 
L 612.825308 54.880032 
L 613.116194 55.637005 
L 613.40708 53.366086 
L 613.697967 57.150952 
L 613.988853 56.393979 
L 614.279739 52.609112 
L 614.570625 53.366086 
L 614.861512 56.393979 
L 615.152398 54.123059 
L 615.734171 54.123059 
L 616.025057 57.907925 
L 616.315943 55.637005 
L 616.60683 54.880032 
L 616.897716 52.609112 
L 617.188602 55.637005 
L 617.479488 51.095166 
L 617.770375 57.150952 
L 618.061261 60.178845 
L 618.352147 54.880032 
L 618.643034 52.609112 
L 618.93392 51.852139 
L 619.224806 53.366086 
L 619.515693 56.393979 
L 620.097465 51.095166 
L 620.388352 55.637005 
L 620.679238 55.637005 
L 620.970124 50.338193 
L 621.26101 54.123059 
L 621.551897 56.393979 
L 621.842783 54.880032 
L 622.133669 48.067273 
L 622.424556 51.852139 
L 622.715442 53.366086 
L 623.006328 48.824246 
L 623.297215 52.609112 
L 623.588101 54.123059 
L 623.878987 61.692792 
L 624.169874 54.123059 
L 624.46076 54.123059 
L 624.751646 51.852139 
L 625.042532 54.123059 
L 625.333419 54.123059 
L 625.624305 54.880032 
L 625.915191 59.421872 
L 626.206078 52.609112 
L 627.078737 54.880032 
L 627.369623 54.123059 
L 627.951396 54.123059 
L 628.242282 57.150952 
L 628.533168 53.366086 
L 628.824054 51.852139 
L 629.405827 54.880032 
L 629.696713 54.880032 
L 629.9876 51.095166 
L 630.278486 56.393979 
L 630.569372 54.880032 
L 630.860259 56.393979 
L 631.151145 56.393979 
L 631.442031 51.852139 
L 631.732918 51.095166 
L 632.023804 51.852139 
L 632.605576 58.664899 
L 632.896463 55.637005 
L 633.187349 57.150952 
L 633.478235 54.880032 
L 633.769122 54.880032 
L 634.060008 54.123059 
L 634.350894 50.338193 
L 634.932667 55.637005 
L 635.223553 53.366086 
L 635.51444 54.880032 
L 635.805326 55.637005 
L 636.096212 55.637005 
L 636.387098 54.123059 
L 636.677985 54.123059 
L 637.259757 55.637005 
L 637.550644 51.852139 
L 637.84153 50.338193 
L 638.132416 54.123059 
L 638.423303 54.880032 
L 638.714189 53.366086 
L 639.005075 56.393979 
L 639.295961 52.609112 
L 639.586848 50.338193 
L 639.877734 54.123059 
L 640.16862 52.609112 
L 640.459507 54.880032 
L 640.750393 54.880032 
L 641.041279 53.366086 
L 641.332166 54.123059 
L 641.623052 56.393979 
L 641.913938 56.393979 
L 642.495711 52.609112 
L 642.786597 51.095166 
L 643.077483 51.095166 
L 643.36837 54.880032 
L 643.659256 55.637005 
L 643.950142 55.637005 
L 644.241029 51.852139 
L 644.531915 54.123059 
L 644.822801 54.123059 
L 645.113688 52.609112 
L 645.404574 52.609112 
L 645.69546 56.393979 
L 645.986347 49.581219 
L 646.277233 51.095166 
L 646.568119 54.880032 
L 646.859005 53.366086 
L 647.149892 52.609112 
L 647.440778 56.393979 
L 647.731664 51.095166 
L 648.022551 54.880032 
L 648.313437 51.852139 
L 648.89521 53.366086 
L 649.186096 57.150952 
L 649.476982 57.150952 
L 649.767869 53.366086 
L 650.058755 54.880032 
L 650.349641 50.338193 
L 650.931414 55.637005 
L 651.2223 54.123059 
L 651.513186 54.123059 
L 651.804073 55.637005 
L 652.385845 52.609112 
L 652.676732 55.637005 
L 652.967618 56.393979 
L 653.258504 51.095166 
L 653.549391 52.609112 
L 654.131163 51.095166 
L 654.422049 51.095166 
L 654.712936 55.637005 
L 655.003822 51.852139 
L 655.294708 54.880032 
L 655.585595 54.123059 
L 655.876481 52.609112 
L 656.458254 56.393979 
L 656.74914 54.880032 
L 657.040026 51.852139 
L 657.330913 51.852139 
L 657.621799 53.366086 
L 657.912685 54.123059 
L 658.203571 58.664899 
L 658.494458 51.095166 
L 658.785344 53.366086 
L 659.07623 52.609112 
L 659.367117 55.637005 
L 659.658003 54.880032 
L 659.948889 51.095166 
L 660.239776 55.637005 
L 660.530662 54.880032 
L 660.821548 50.338193 
L 661.112434 55.637005 
L 661.403321 52.609112 
L 661.694207 52.609112 
L 661.985093 55.637005 
L 662.27598 54.880032 
L 662.857752 56.393979 
L 663.148639 50.338193 
L 663.439525 53.366086 
L 663.730411 52.609112 
L 664.021298 54.123059 
L 664.312184 54.880032 
L 664.60307 51.852139 
L 664.893956 54.123059 
L 665.184843 54.123059 
L 665.475729 49.581219 
L 665.766615 50.338193 
L 666.348388 57.907925 
L 666.639274 51.852139 
L 666.930161 54.123059 
L 667.221047 54.123059 
L 667.511933 53.366086 
L 667.80282 54.880032 
L 668.093706 55.637005 
L 668.384592 58.664899 
L 668.675478 54.123059 
L 668.966365 57.907925 
L 669.257251 51.095166 
L 669.839024 54.123059 
L 670.12991 57.907925 
L 670.420796 51.095166 
L 670.711683 55.637005 
L 671.002569 54.880032 
L 671.584342 51.095166 
L 672.166114 54.123059 
L 672.457 53.366086 
L 672.747887 54.123059 
L 673.038773 54.123059 
L 673.329659 51.852139 
L 673.620546 54.880032 
L 673.911432 51.095166 
L 674.202318 51.095166 
L 674.493205 53.366086 
L 674.784091 52.609112 
L 674.784091 52.609112 
" style="fill:none;stroke:#1f77b4;stroke-linecap:square;stroke-width:1.5;"/>
   </g>
   <g id="line2d_18">
    <path clip-path="url(#p5f8690a728)" d="M 94.465909 245.637345 
L 94.756795 238.824586 
L 95.047682 236.553666 
L 95.338568 236.553666 
L 95.629454 186.593406 
L 95.920341 218.386308 
L 96.211227 179.780647 
L 96.502113 172.967887 
L 96.793 157.071448 
L 97.083886 168.426047 
L 97.374772 170.696967 
L 97.665658 163.884208 
L 97.956545 161.613288 
L 98.247431 147.987769 
L 98.538317 145.716849 
L 98.829204 150.258689 
L 99.12009 150.258689 
L 99.410976 145.716849 
L 99.701863 152.529609 
L 100.283635 136.63317 
L 100.574522 138.90409 
L 100.865408 134.36225 
L 101.156294 138.90409 
L 101.44718 129.82041 
L 101.738067 132.09133 
L 102.028953 138.90409 
L 102.319839 125.278571 
L 102.610726 127.549491 
L 102.901612 123.007651 
L 103.192498 125.278571 
L 103.483385 125.278571 
L 103.774271 129.82041 
L 104.065157 125.278571 
L 104.356044 129.82041 
L 104.64693 125.278571 
L 104.937816 123.007651 
L 105.228702 125.278571 
L 105.519589 125.278571 
L 106.101361 129.82041 
L 106.392248 125.278571 
L 106.683134 116.194892 
L 106.97402 125.278571 
L 107.264907 118.465811 
L 107.555793 123.007651 
L 107.846679 111.653052 
L 108.428452 123.007651 
L 108.719338 109.382132 
L 109.010224 120.736731 
L 109.591997 111.653052 
L 109.882883 113.923972 
L 110.17377 118.465811 
L 110.464656 109.382132 
L 110.755542 111.653052 
L 111.046429 107.111212 
L 111.628201 102.569373 
L 111.919087 109.382132 
L 112.209974 100.298453 
L 112.50086 107.111212 
L 112.791746 95.756613 
L 113.373519 107.111212 
L 114.537064 98.027533 
L 115.118837 98.027533 
L 115.409723 93.485669 
L 115.991496 98.027533 
L 116.573268 93.485669 
L 116.864155 95.756613 
L 117.155041 93.485669 
L 117.445927 93.485669 
L 117.736814 91.214749 
L 118.0277 98.027533 
L 118.318586 91.214749 
L 118.609473 88.94383 
L 118.900359 93.485669 
L 119.191245 91.214749 
L 119.482131 95.756613 
L 119.773018 88.94383 
L 120.063904 91.214749 
L 120.35479 88.94383 
L 120.645677 88.94383 
L 120.936563 102.569373 
L 121.227449 93.485669 
L 121.518336 98.027533 
L 121.809222 98.027533 
L 122.100108 88.94383 
L 122.390995 91.214749 
L 122.681881 95.756613 
L 122.972767 91.214749 
L 123.263653 91.214749 
L 123.55454 88.94383 
L 123.845426 98.027533 
L 124.136312 91.214749 
L 124.427199 88.94383 
L 125.008971 93.485669 
L 125.299858 93.485669 
L 125.590744 91.214749 
L 125.88163 91.214749 
L 126.172517 95.756613 
L 126.463403 88.94383 
L 126.754289 93.485669 
L 127.045175 93.485669 
L 127.336062 91.214749 
L 127.626948 93.485669 
L 127.917834 91.214749 
L 128.208721 91.214749 
L 128.499607 88.94383 
L 128.790493 93.485669 
L 129.08138 91.214749 
L 129.372266 93.485669 
L 129.663152 88.94383 
L 129.954039 93.485669 
L 130.244925 93.485669 
L 130.535811 91.214749 
L 130.826697 93.485669 
L 131.40847 93.485669 
L 131.699356 91.214749 
L 131.990243 93.485669 
L 132.572015 93.485669 
L 132.862902 91.214749 
L 133.153788 93.485669 
L 133.444674 91.214749 
L 134.026447 91.214749 
L 134.317333 93.485669 
L 134.608219 91.214749 
L 135.480878 91.214749 
L 135.771765 88.94383 
L 136.062651 88.94383 
L 136.353537 91.214749 
L 136.93531 91.214749 
L 137.226196 88.94383 
L 137.517082 88.94383 
L 137.807969 91.214749 
L 138.098855 88.94383 
L 138.389741 91.214749 
L 138.680628 88.94383 
L 138.971514 88.94383 
L 139.2624 91.214749 
L 139.844173 91.214749 
L 140.135059 88.94383 
L 140.716832 88.94383 
L 141.007718 93.485669 
L 141.298604 88.94383 
L 141.880377 88.94383 
L 142.46215 93.485669 
L 142.753036 88.94383 
L 145.952785 88.94383 
L 146.243672 91.214749 
L 146.534558 88.94383 
L 146.825444 88.94383 
L 147.116331 91.214749 
L 147.407217 88.94383 
L 147.698103 91.214749 
L 147.98899 88.94383 
L 148.279876 91.214749 
L 148.570762 88.94383 
L 148.861648 91.214749 
L 149.152535 86.67291 
L 149.443421 88.94383 
L 150.025194 88.94383 
L 150.31608 86.67291 
L 150.606966 88.94383 
L 150.897853 86.67291 
L 151.188739 91.214749 
L 151.479625 91.214749 
L 151.770512 86.67291 
L 152.061398 91.214749 
L 152.352284 91.214749 
L 152.64317 86.67291 
L 152.934057 86.67291 
L 153.224943 91.214749 
L 153.515829 91.214749 
L 153.806716 88.94383 
L 154.097602 91.214749 
L 154.388488 86.67291 
L 154.679375 91.214749 
L 154.970261 86.67291 
L 155.261147 88.94383 
L 155.84292 88.94383 
L 156.133806 86.67291 
L 156.424692 91.214749 
L 156.715579 88.94383 
L 157.006465 88.94383 
L 157.297351 86.67291 
L 157.879124 91.214749 
L 158.17001 86.67291 
L 158.460897 86.67291 
L 158.751783 88.94383 
L 159.042669 86.67291 
L 159.333555 86.67291 
L 159.624442 88.94383 
L 160.206214 88.94383 
L 160.497101 84.40199 
L 160.787987 86.67291 
L 161.078873 86.67291 
L 161.36976 88.94383 
L 161.660646 86.67291 
L 161.951532 88.94383 
L 162.242419 86.67291 
L 162.533305 88.94383 
L 162.824191 86.67291 
L 163.115077 91.214749 
L 163.405964 84.40199 
L 163.69685 88.94383 
L 163.987736 88.94383 
L 164.569509 84.40199 
L 164.860395 86.67291 
L 165.151282 86.67291 
L 165.442168 91.214749 
L 165.733054 86.67291 
L 166.023941 88.94383 
L 166.314827 86.67291 
L 166.605713 86.67291 
L 166.896599 84.40199 
L 167.187486 88.94383 
L 167.769258 88.94383 
L 168.060145 84.40199 
L 168.351031 86.67291 
L 168.641917 86.67291 
L 168.932804 88.94383 
L 169.22369 86.67291 
L 169.514576 86.67291 
L 169.805463 91.214749 
L 170.096349 84.40199 
L 170.387235 88.94383 
L 170.678121 84.40199 
L 170.969008 88.94383 
L 171.259894 86.67291 
L 171.55078 86.67291 
L 171.841667 84.40199 
L 172.132553 86.67291 
L 172.423439 84.40199 
L 173.005212 88.94383 
L 173.586985 84.40199 
L 173.877871 84.40199 
L 174.459643 88.94383 
L 174.75053 84.40199 
L 175.041416 88.94383 
L 175.332302 84.40199 
L 176.204961 84.40199 
L 176.786734 88.94383 
L 177.368506 84.40199 
L 177.659393 84.40199 
L 177.950279 88.94383 
L 178.241165 84.40199 
L 178.822938 84.40199 
L 179.113824 86.67291 
L 179.404711 84.40199 
L 179.695597 86.67291 
L 179.986483 84.40199 
L 182.60446 84.40199 
L 182.895346 86.67291 
L 183.186233 86.67291 
L 183.477119 84.40199 
L 183.768005 86.67291 
L 184.058892 84.40199 
L 184.349778 86.67291 
L 184.640664 84.40199 
L 188.422186 84.40199 
L 188.713072 82.13107 
L 189.003959 84.40199 
L 190.45839 84.40199 
L 190.749277 82.13107 
L 191.040163 84.40199 
L 192.203708 84.40199 
L 192.494594 82.13107 
L 192.785481 84.40199 
L 193.076367 82.13107 
L 193.367253 84.40199 
L 194.530799 84.40199 
L 194.821685 82.13107 
L 195.403458 82.13107 
L 195.694344 84.40199 
L 195.98523 84.40199 
L 196.276116 82.13107 
L 196.857889 82.13107 
L 197.148775 84.40199 
L 197.439662 84.40199 
L 197.730548 82.13107 
L 198.021434 82.13107 
L 198.312321 84.40199 
L 198.603207 82.13107 
L 198.894093 82.13107 
L 199.184979 84.40199 
L 199.475866 82.13107 
L 199.766752 84.40199 
L 200.057638 84.40199 
L 200.348525 82.13107 
L 200.639411 84.40199 
L 200.930297 82.13107 
L 201.51207 82.13107 
L 201.802956 84.40199 
L 202.093843 82.13107 
L 202.384729 84.40199 
L 202.675615 82.13107 
L 202.966501 82.13107 
L 203.257388 84.40199 
L 203.548274 82.13107 
L 204.711819 82.13107 
L 205.002706 84.40199 
L 205.293592 82.13107 
L 205.584478 84.40199 
L 205.875365 84.40199 
L 206.166251 82.13107 
L 207.03891 82.13107 
L 207.329796 84.40199 
L 207.620682 84.40199 
L 207.911569 82.13107 
L 208.784228 82.13107 
L 209.075114 86.67291 
L 209.366 82.13107 
L 210.820432 82.13107 
L 211.111318 84.40199 
L 211.693091 79.86015 
L 211.983977 82.13107 
L 212.856636 82.13107 
L 213.147522 79.86015 
L 213.438409 82.13107 
L 213.729295 79.86015 
L 214.020181 82.13107 
L 214.601954 82.13107 
L 214.89284 79.86015 
L 215.183726 79.86015 
L 215.474613 82.13107 
L 217.219931 82.13107 
L 217.510817 79.86015 
L 217.801703 82.13107 
L 218.092589 82.13107 
L 218.383476 79.86015 
L 218.674362 82.13107 
L 218.965248 79.86015 
L 219.256135 82.13107 
L 219.837907 82.13107 
L 220.128794 79.86015 
L 220.710566 79.86015 
L 221.001452 82.13107 
L 221.292339 79.86015 
L 221.583225 79.86015 
L 221.874111 82.13107 
L 222.164998 82.13107 
L 222.455884 79.86015 
L 222.74677 79.86015 
L 223.037657 82.13107 
L 223.328543 82.13107 
L 223.619429 79.86015 
L 223.910316 79.86015 
L 224.201202 82.13107 
L 224.492088 79.86015 
L 224.782974 82.13107 
L 225.073861 79.86015 
L 225.364747 79.86015 
L 225.655633 77.58923 
L 225.94652 82.13107 
L 226.237406 82.13107 
L 226.528292 79.86015 
L 226.819179 82.13107 
L 227.110065 82.13107 
L 227.400951 79.86015 
L 227.982724 79.86015 
L 228.27361 82.13107 
L 228.564496 79.86015 
L 228.855383 82.13107 
L 229.146269 79.86015 
L 229.728042 79.86015 
L 230.018928 82.13107 
L 230.309814 79.86015 
L 230.891587 79.86015 
L 231.182473 82.13107 
L 231.47336 79.86015 
L 232.055132 79.86015 
L 232.346018 82.13107 
L 232.636905 82.13107 
L 232.927791 77.58923 
L 233.218677 82.13107 
L 233.80045 77.58923 
L 234.091336 82.13107 
L 234.382223 77.58923 
L 234.673109 82.13107 
L 235.254882 82.13107 
L 235.545768 79.86015 
L 235.836654 79.86015 
L 236.12754 82.13107 
L 236.418427 82.13107 
L 236.709313 79.86015 
L 237.000199 79.86015 
L 237.291086 77.58923 
L 237.581972 77.58923 
L 237.872858 82.13107 
L 238.163745 77.58923 
L 239.036404 77.58923 
L 239.32729 79.86015 
L 239.618176 79.86015 
L 239.909062 77.58923 
L 240.199949 82.13107 
L 240.490835 82.13107 
L 240.781721 77.58923 
L 241.363494 77.58923 
L 241.65438 79.86015 
L 241.945267 77.58923 
L 242.817925 77.58923 
L 243.108812 82.13107 
L 243.399698 77.58923 
L 243.690584 77.58923 
L 243.981471 79.86015 
L 244.563243 75.318311 
L 244.85413 77.58923 
L 245.145016 82.13107 
L 245.435902 77.58923 
L 245.726789 77.58923 
L 246.017675 79.86015 
L 246.308561 77.58923 
L 246.599447 79.86015 
L 246.890334 77.58923 
L 248.053879 77.58923 
L 248.344765 75.318311 
L 248.635652 77.58923 
L 248.926538 75.318311 
L 249.217424 82.13107 
L 249.508311 77.58923 
L 249.799197 75.318311 
L 250.090083 77.58923 
L 250.380969 77.58923 
L 250.671856 75.318311 
L 250.962742 75.318311 
L 251.253628 77.58923 
L 251.544515 77.58923 
L 251.835401 75.318311 
L 252.126287 79.86015 
L 252.417174 75.318311 
L 252.998946 75.318311 
L 253.289833 77.58923 
L 253.580719 77.58923 
L 253.871605 75.318311 
L 254.162491 75.318311 
L 254.453378 73.047391 
L 254.744264 75.318311 
L 255.616923 75.318311 
L 255.907809 73.047391 
L 256.198696 75.318311 
L 256.489582 73.047391 
L 257.362241 73.047391 
L 257.653127 75.318311 
L 257.944013 70.776471 
L 258.2349 73.047391 
L 259.107559 73.047391 
L 259.398445 70.776471 
L 259.689331 77.58923 
L 259.980218 70.776471 
L 260.271104 73.047391 
L 260.56199 70.776471 
L 260.852877 73.047391 
L 261.143763 68.505551 
L 261.434649 70.776471 
L 262.016422 70.776471 
L 262.307308 73.047391 
L 262.598194 70.776471 
L 262.889081 70.776471 
L 263.179967 68.505551 
L 263.470853 68.505551 
L 263.76174 70.776471 
L 264.634398 70.776471 
L 264.925285 68.505551 
L 265.216171 70.776471 
L 265.507057 68.505551 
L 265.797944 70.776471 
L 266.08883 68.505551 
L 266.379716 68.505551 
L 266.670603 70.776471 
L 266.961489 68.505551 
L 267.252375 70.776471 
L 267.834148 70.776471 
L 268.125034 68.505551 
L 268.41592 70.776471 
L 268.706807 68.505551 
L 269.288579 68.505551 
L 269.579466 70.776471 
L 269.870352 68.505551 
L 270.161238 70.776471 
L 270.452125 68.505551 
L 270.743011 68.505551 
L 271.033897 70.776471 
L 271.324784 68.505551 
L 271.61567 70.776471 
L 271.906556 70.776471 
L 272.197442 68.505551 
L 272.488329 70.776471 
L 272.779215 70.776471 
L 273.360988 66.234631 
L 273.651874 68.505551 
L 274.815419 68.505551 
L 275.106306 70.776471 
L 275.397192 68.505551 
L 276.269851 68.505551 
L 276.560737 66.234631 
L 276.851623 68.505551 
L 278.306055 68.505551 
L 278.596941 70.776471 
L 278.887828 68.505551 
L 280.633145 68.505551 
L 280.924032 66.234631 
L 281.214918 70.776471 
L 281.796691 66.234631 
L 282.087577 66.234631 
L 282.378463 68.505551 
L 282.66935 66.234631 
L 282.960236 68.505551 
L 283.251122 66.234631 
L 283.542008 68.505551 
L 283.832895 68.505551 
L 284.123781 66.234631 
L 284.414667 68.505551 
L 284.705554 66.234631 
L 284.99644 68.505551 
L 285.287326 66.234631 
L 285.578213 68.505551 
L 285.869099 66.234631 
L 286.159985 66.234631 
L 286.450871 68.505551 
L 286.741758 68.505551 
L 287.032644 66.234631 
L 287.32353 66.234631 
L 287.614417 68.505551 
L 287.905303 66.234631 
L 288.196189 66.234631 
L 288.487076 68.505551 
L 288.777962 63.963711 
L 289.068848 66.234631 
L 289.359735 66.234631 
L 289.650621 68.505551 
L 289.941507 66.234631 
L 290.814166 66.234631 
L 291.105052 68.505551 
L 291.395939 68.505551 
L 291.686825 66.234631 
L 292.268598 66.234631 
L 292.559484 63.963711 
L 293.141257 68.505551 
L 293.432143 63.963711 
L 293.723029 68.505551 
L 294.013915 66.234631 
L 294.886574 66.234631 
L 295.177461 68.505551 
L 295.468347 68.505551 
L 295.759233 66.234631 
L 297.504551 66.234631 
L 297.795437 63.963711 
L 298.086324 66.234631 
L 298.37721 63.963711 
L 298.668096 63.963711 
L 298.958983 66.234631 
L 299.249869 63.963711 
L 299.540755 66.234631 
L 300.122528 66.234631 
L 300.413414 61.692792 
L 300.704301 63.963711 
L 300.995187 61.692792 
L 301.286073 66.234631 
L 301.576959 63.963711 
L 301.867846 66.234631 
L 302.449618 66.234631 
L 302.740505 61.692792 
L 303.322277 66.234631 
L 303.613164 63.963711 
L 303.90405 66.234631 
L 304.194936 66.234631 
L 304.485823 63.963711 
L 304.776709 66.234631 
L 305.067595 63.963711 
L 305.940254 63.963711 
L 306.23114 66.234631 
L 306.812913 61.692792 
L 307.103799 63.963711 
L 307.394686 61.692792 
L 307.685572 63.963711 
L 307.976458 63.963711 
L 308.267344 61.692792 
L 308.558231 63.963711 
L 308.849117 63.963711 
L 309.140003 59.421872 
L 309.43089 63.963711 
L 309.721776 61.692792 
L 310.012662 63.963711 
L 310.303549 63.963711 
L 310.594435 61.692792 
L 310.885321 66.234631 
L 311.176208 61.692792 
L 311.75798 66.234631 
L 312.048866 61.692792 
L 312.630639 66.234631 
L 312.921525 61.692792 
L 313.212412 63.963711 
L 313.503298 61.692792 
L 314.085071 61.692792 
L 314.375957 63.963711 
L 314.666843 59.421872 
L 314.95773 63.963711 
L 315.248616 61.692792 
L 315.539502 63.963711 
L 315.830388 61.692792 
L 316.993934 61.692792 
L 317.28482 59.421872 
L 317.575706 61.692792 
L 318.157479 61.692792 
L 318.448365 63.963711 
L 318.739252 61.692792 
L 319.030138 61.692792 
L 319.321024 63.963711 
L 319.61191 63.963711 
L 319.902797 61.692792 
L 322.520774 61.692792 
L 322.81166 59.421872 
L 323.102546 61.692792 
L 323.393432 59.421872 
L 323.975205 59.421872 
L 324.266091 63.963711 
L 324.556978 63.963711 
L 324.847864 61.692792 
L 325.720523 61.692792 
L 326.011409 68.505551 
L 326.302296 61.692792 
L 326.593182 61.692792 
L 326.884068 59.421872 
L 327.174954 61.692792 
L 327.465841 61.692792 
L 327.756727 59.421872 
L 328.047613 61.692792 
L 328.3385 59.421872 
L 328.629386 61.692792 
L 328.920272 59.421872 
L 329.211159 61.692792 
L 329.792931 61.692792 
L 330.083817 59.421872 
L 330.374704 59.421872 
L 330.66559 63.963711 
L 330.956476 61.692792 
L 331.538249 61.692792 
L 331.829135 59.421872 
L 332.120022 63.963711 
L 332.410908 63.963711 
L 332.701794 59.421872 
L 332.992681 59.421872 
L 333.283567 61.692792 
L 333.574453 61.692792 
L 333.865339 59.421872 
L 335.319771 59.421872 
L 335.610657 61.692792 
L 335.901544 59.421872 
L 338.228634 59.421872 
L 338.51952 57.150952 
L 338.810407 59.421872 
L 339.101293 59.421872 
L 339.392179 57.150952 
L 339.973952 61.692792 
L 340.264838 61.692792 
L 340.555725 57.150952 
L 340.846611 57.150952 
L 341.137497 59.421872 
L 342.301042 59.421872 
L 342.591929 57.150952 
L 342.882815 57.150952 
L 343.173701 59.421872 
L 343.464588 57.150952 
L 344.337247 57.150952 
L 344.628133 59.421872 
L 346.082564 59.421872 
L 346.373451 57.150952 
L 346.664337 57.150952 
L 347.24611 61.692792 
L 347.536996 57.150952 
L 347.827882 59.421872 
L 348.700541 59.421872 
L 348.991427 61.692792 
L 349.5732 57.150952 
L 349.864086 59.421872 
L 350.154973 59.421872 
L 350.445859 57.150952 
L 351.027632 57.150952 
L 351.318518 61.692792 
L 351.609404 57.150952 
L 351.90029 61.692792 
L 352.191177 57.150952 
L 352.482063 59.421872 
L 353.645608 59.421872 
L 353.936495 57.150952 
L 354.518267 57.150952 
L 354.809154 59.421872 
L 355.10004 57.150952 
L 355.390926 57.150952 
L 355.681812 59.421872 
L 355.972699 57.150952 
L 356.263585 57.150952 
L 356.554471 59.421872 
L 357.136244 59.421872 
L 357.42713 57.150952 
L 357.718017 61.692792 
L 358.299789 57.150952 
L 358.590676 59.421872 
L 358.881562 57.150952 
L 359.172448 59.421872 
L 359.463334 57.150952 
L 360.045107 57.150952 
L 360.335993 63.963711 
L 360.62688 61.692792 
L 360.917766 57.150952 
L 361.790425 57.150952 
L 362.081311 59.421872 
L 362.372198 59.421872 
L 362.663084 57.150952 
L 362.95397 57.150952 
L 363.244856 59.421872 
L 363.535743 57.150952 
L 363.826629 59.421872 
L 364.117515 59.421872 
L 364.408402 57.150952 
L 364.699288 57.150952 
L 364.990174 63.963711 
L 365.281061 57.150952 
L 365.571947 59.421872 
L 365.862833 57.150952 
L 366.15372 63.963711 
L 366.444606 57.150952 
L 366.735492 59.421872 
L 367.026378 57.150952 
L 367.317265 59.421872 
L 367.608151 63.963711 
L 367.899037 57.150952 
L 368.189924 57.150952 
L 368.48081 61.692792 
L 368.771696 61.692792 
L 369.062583 57.150952 
L 370.8079 57.150952 
L 371.098787 59.421872 
L 371.389673 57.150952 
L 373.425877 57.150952 
L 373.716763 59.421872 
L 374.00765 57.150952 
L 375.171195 57.150952 
L 375.462081 59.421872 
L 375.752968 57.150952 
L 378.080058 57.150952 
L 378.370944 63.963711 
L 378.661831 57.150952 
L 378.952717 57.150952 
L 379.243603 63.963711 
L 379.53449 57.150952 
L 379.825376 59.421872 
L 380.116262 57.150952 
L 381.279807 57.150952 
L 381.570694 63.963711 
L 381.86158 57.150952 
L 383.316012 57.150952 
L 383.606898 59.421872 
L 383.897784 59.421872 
L 384.188671 57.150952 
L 384.479557 59.421872 
L 384.770443 57.150952 
L 385.352216 57.150952 
L 385.643102 59.421872 
L 385.933988 59.421872 
L 386.224875 57.150952 
L 387.097534 57.150952 
L 387.38842 59.421872 
L 387.679306 59.421872 
L 387.970193 57.150952 
L 388.261079 57.150952 
L 388.551965 63.963711 
L 388.842851 57.150952 
L 389.424624 57.150952 
L 389.71551 59.421872 
L 390.006397 57.150952 
L 390.297283 57.150952 
L 390.588169 61.692792 
L 390.879056 57.150952 
L 391.169942 59.421872 
L 391.460828 59.421872 
L 391.751715 57.150952 
L 392.624373 57.150952 
L 392.91526 59.421872 
L 393.206146 57.150952 
L 394.660578 57.150952 
L 394.951464 63.963711 
L 395.24235 59.421872 
L 395.533237 59.421872 
L 395.824123 57.150952 
L 396.115009 63.963711 
L 396.405895 57.150952 
L 396.696782 57.150952 
L 396.987668 59.421872 
L 397.278554 57.150952 
L 398.151213 57.150952 
L 398.4421 59.421872 
L 398.732986 57.150952 
L 399.023872 59.421872 
L 399.314758 59.421872 
L 399.605645 57.150952 
L 399.896531 59.421872 
L 400.187417 63.963711 
L 400.478304 59.421872 
L 400.76919 57.150952 
L 401.641849 57.150952 
L 401.932735 59.421872 
L 402.223622 59.421872 
L 402.514508 57.150952 
L 403.09628 57.150952 
L 403.387167 63.963711 
L 403.678053 57.150952 
L 403.968939 57.150952 
L 404.259826 61.692792 
L 404.841598 57.150952 
L 407.168689 57.150952 
L 407.459575 61.692792 
L 407.750461 57.150952 
L 408.041348 57.150952 
L 408.332234 61.692792 
L 408.62312 57.150952 
L 408.914007 57.150952 
L 409.495779 61.692792 
L 410.077552 57.150952 
L 410.950211 57.150952 
L 411.241097 59.421872 
L 411.531983 57.150952 
L 413.568188 57.150952 
L 413.859074 59.421872 
L 414.14996 57.150952 
L 414.731733 61.692792 
L 415.022619 57.150952 
L 415.313505 61.692792 
L 415.895278 57.150952 
L 416.186164 57.150952 
L 416.477051 59.421872 
L 416.767937 59.421872 
L 417.058823 57.150952 
L 417.640596 57.150952 
L 417.931482 63.963711 
L 418.222368 57.150952 
L 418.804141 57.150952 
L 419.095027 59.421872 
L 419.385914 59.421872 
L 419.6768 57.150952 
L 419.967686 59.421872 
L 420.258573 59.421872 
L 420.549459 57.150952 
L 421.422118 57.150952 
L 421.713004 59.421872 
L 422.294777 59.421872 
L 422.585663 57.150952 
L 423.167436 57.150952 
L 423.458322 59.421872 
L 423.749208 57.150952 
L 425.20364 57.150952 
L 425.785412 61.692792 
L 426.367185 57.150952 
L 427.821617 57.150952 
L 428.112503 59.421872 
L 428.403389 59.421872 
L 428.694275 57.150952 
L 428.985162 57.150952 
L 429.276048 59.421872 
L 429.566934 57.150952 
L 429.857821 57.150952 
L 430.148707 59.421872 
L 430.439593 57.150952 
L 431.603139 57.150952 
L 431.894025 59.421872 
L 432.184911 57.150952 
L 432.766684 57.150952 
L 433.05757 61.692792 
L 433.348456 57.150952 
L 433.639343 59.421872 
L 434.221115 59.421872 
L 434.512002 57.150952 
L 434.802888 57.150952 
L 435.093774 59.421872 
L 435.675547 59.421872 
L 435.966433 57.150952 
L 436.257319 59.421872 
L 436.548206 57.150952 
L 436.839092 59.421872 
L 437.129978 57.150952 
L 437.420865 59.421872 
L 438.002637 59.421872 
L 438.293524 61.692792 
L 438.58441 57.150952 
L 438.875296 59.421872 
L 439.166183 57.150952 
L 439.747955 57.150952 
L 440.038841 59.421872 
L 440.620614 59.421872 
L 440.9115 57.150952 
L 441.202387 57.150952 
L 441.493273 59.421872 
L 442.075046 59.421872 
L 442.365932 57.150952 
L 442.656818 59.421872 
L 442.947704 57.150952 
L 443.238591 57.150952 
L 443.529477 59.421872 
L 443.820363 57.150952 
L 444.11125 57.150952 
L 444.402136 59.421872 
L 444.693022 57.150952 
L 444.983909 59.421872 
L 445.274795 57.150952 
L 445.565681 57.150952 
L 445.856568 59.421872 
L 446.729226 59.421872 
L 447.020113 57.150952 
L 447.310999 59.421872 
L 447.892772 59.421872 
L 448.183658 57.150952 
L 450.801635 57.150952 
L 451.092521 59.421872 
L 451.383407 57.150952 
L 451.96518 57.150952 
L 452.256066 59.421872 
L 452.546953 57.150952 
L 452.837839 57.150952 
L 453.128725 59.421872 
L 453.419612 59.421872 
L 453.710498 57.150952 
L 454.001384 59.421872 
L 454.874043 59.421872 
L 455.164929 57.150952 
L 455.746702 57.150952 
L 456.037588 61.692792 
L 456.328475 59.421872 
L 456.619361 59.421872 
L 456.910247 57.150952 
L 457.201134 59.421872 
L 457.782906 59.421872 
L 458.073792 57.150952 
L 458.655565 57.150952 
L 458.946451 59.421872 
L 459.237338 57.150952 
L 459.528224 59.421872 
L 460.109997 59.421872 
L 460.400883 57.150952 
L 460.691769 59.421872 
L 461.273542 59.421872 
L 461.564428 57.150952 
L 461.855314 57.150952 
L 462.146201 59.421872 
L 462.727973 59.421872 
L 463.309746 54.880032 
L 463.600632 57.150952 
L 463.891519 57.150952 
L 464.182405 59.421872 
L 464.473291 57.150952 
L 464.764177 57.150952 
L 465.055064 59.421872 
L 465.34595 57.150952 
L 466.509495 57.150952 
L 466.800382 59.421872 
L 467.091268 57.150952 
L 467.673041 57.150952 
L 467.963927 59.421872 
L 468.545699 59.421872 
L 468.836586 57.150952 
L 469.127472 57.150952 
L 469.418358 59.421872 
L 469.709245 59.421872 
L 470.000131 57.150952 
L 470.291017 59.421872 
L 470.581904 59.421872 
L 470.87279 57.150952 
L 471.454563 57.150952 
L 471.745449 59.421872 
L 472.036335 59.421872 
L 472.327221 57.150952 
L 472.618108 59.421872 
L 472.908994 57.150952 
L 473.19988 57.150952 
L 473.490767 59.421872 
L 473.781653 57.150952 
L 475.236085 57.150952 
L 475.526971 59.421872 
L 475.817857 57.150952 
L 476.108743 57.150952 
L 476.39963 59.421872 
L 476.690516 57.150952 
L 476.981402 59.421872 
L 477.272289 57.150952 
L 477.563175 57.150952 
L 477.854061 59.421872 
L 478.144948 57.150952 
L 478.435834 57.150952 
L 478.72672 59.421872 
L 479.308493 59.421872 
L 479.599379 57.150952 
L 481.344697 57.150952 
L 481.635583 59.421872 
L 481.92647 57.150952 
L 482.799129 57.150952 
L 483.090015 59.421872 
L 483.380901 57.150952 
L 485.998878 57.150952 
L 486.289764 59.421872 
L 486.58065 57.150952 
L 486.871537 59.421872 
L 487.162423 59.421872 
L 487.453309 57.150952 
L 487.744196 59.421872 
L 488.035082 57.150952 
L 488.907741 57.150952 
L 489.198627 59.421872 
L 489.489514 59.421872 
L 489.7804 57.150952 
L 490.071286 57.150952 
L 490.362172 59.421872 
L 490.653059 57.150952 
L 491.234831 57.150952 
L 491.525718 59.421872 
L 491.816604 57.150952 
L 492.689263 57.150952 
L 492.980149 59.421872 
L 493.271036 57.150952 
L 494.434581 57.150952 
L 494.725467 54.880032 
L 495.30724 59.421872 
L 495.598126 57.150952 
L 497.343444 57.150952 
L 497.63433 59.421872 
L 497.925216 57.150952 
L 498.216103 57.150952 
L 498.506989 59.421872 
L 498.797875 54.880032 
L 499.088762 59.421872 
L 499.379648 57.150952 
L 500.83408 57.150952 
L 501.124966 59.421872 
L 501.415852 59.421872 
L 501.706738 57.150952 
L 502.579397 57.150952 
L 502.870284 59.421872 
L 503.16117 57.150952 
L 503.742943 57.150952 
L 504.033829 54.880032 
L 504.324715 59.421872 
L 504.615602 57.150952 
L 505.197374 57.150952 
L 505.48826 59.421872 
L 505.779147 57.150952 
L 506.070033 59.421872 
L 506.360919 57.150952 
L 506.651806 59.421872 
L 506.942692 57.150952 
L 507.233578 59.421872 
L 507.524465 57.150952 
L 507.815351 59.421872 
L 508.106237 59.421872 
L 508.397123 57.150952 
L 508.68801 57.150952 
L 508.978896 59.421872 
L 509.269782 57.150952 
L 511.305987 57.150952 
L 511.596873 54.880032 
L 511.887759 57.150952 
L 512.178645 57.150952 
L 512.469532 59.421872 
L 512.760418 57.150952 
L 513.051304 59.421872 
L 513.342191 57.150952 
L 514.21485 57.150952 
L 514.505736 59.421872 
L 514.796622 57.150952 
L 515.960167 57.150952 
L 516.251054 59.421872 
L 516.54194 57.150952 
L 517.705485 57.150952 
L 517.996372 59.421872 
L 518.287258 57.150952 
L 518.578144 57.150952 
L 518.869031 59.421872 
L 519.159917 57.150952 
L 519.450803 57.150952 
L 519.741689 59.421872 
L 520.032576 59.421872 
L 520.323462 57.150952 
L 521.487007 57.150952 
L 521.777894 59.421872 
L 522.06878 57.150952 
L 523.232325 57.150952 
L 523.523211 59.421872 
L 523.814098 57.150952 
L 527.304733 57.150952 
L 527.59562 59.421872 
L 527.886506 59.421872 
L 528.177392 57.150952 
L 529.050051 57.150952 
L 529.340938 59.421872 
L 529.631824 59.421872 
L 529.92271 57.150952 
L 530.213596 57.150952 
L 530.504483 54.880032 
L 530.795369 59.421872 
L 531.086255 57.150952 
L 531.377142 57.150952 
L 531.668028 59.421872 
L 531.958914 57.150952 
L 532.249801 57.150952 
L 532.540687 54.880032 
L 532.831573 57.150952 
L 533.413346 57.150952 
L 533.704232 54.880032 
L 534.286005 59.421872 
L 534.576891 57.150952 
L 535.740436 57.150952 
L 536.031323 59.421872 
L 536.322209 57.150952 
L 536.613095 59.421872 
L 536.903982 57.150952 
L 538.649299 57.150952 
L 538.940186 59.421872 
L 539.521958 59.421872 
L 539.812845 57.150952 
L 540.103731 59.421872 
L 540.394617 57.150952 
L 540.97639 57.150952 
L 541.267276 59.421872 
L 541.558162 54.880032 
L 541.849049 57.150952 
L 543.30348 57.150952 
L 543.594367 54.880032 
L 543.885253 57.150952 
L 544.467026 57.150952 
L 544.757912 54.880032 
L 545.048798 57.150952 
L 545.339684 57.150952 
L 545.630571 54.880032 
L 545.921457 57.150952 
L 546.50323 57.150952 
L 546.794116 54.880032 
L 547.085002 57.150952 
L 547.375889 57.150952 
L 547.666775 54.880032 
L 547.957661 57.150952 
L 548.83032 57.150952 
L 549.121206 54.880032 
L 549.412093 57.150952 
L 551.448297 57.150952 
L 551.739183 59.421872 
L 552.030069 57.150952 
L 552.611842 57.150952 
L 552.902728 59.421872 
L 553.193615 57.150952 
L 554.35716 57.150952 
L 554.648046 54.880032 
L 554.938933 57.150952 
L 555.520705 57.150952 
L 555.811591 54.880032 
L 556.393364 59.421872 
L 556.68425 57.150952 
L 557.266023 57.150952 
L 557.556909 54.880032 
L 557.847796 54.880032 
L 558.138682 57.150952 
L 558.429568 57.150952 
L 558.720455 54.880032 
L 559.011341 57.150952 
L 559.884 57.150952 
L 560.174886 54.880032 
L 560.465772 57.150952 
L 561.047545 57.150952 
L 561.338431 54.880032 
L 561.629318 57.150952 
L 563.374635 57.150952 
L 563.665522 54.880032 
L 563.956408 57.150952 
L 564.247294 57.150952 
L 564.538181 54.880032 
L 565.119953 54.880032 
L 565.41084 57.150952 
L 565.701726 54.880032 
L 565.992612 57.150952 
L 566.283499 54.880032 
L 566.865271 54.880032 
L 567.156157 57.150952 
L 567.447044 54.880032 
L 567.73793 57.150952 
L 568.610589 57.150952 
L 568.901475 54.880032 
L 569.192362 57.150952 
L 569.483248 57.150952 
L 569.774134 54.880032 
L 570.355907 59.421872 
L 570.646793 57.150952 
L 572.682997 57.150952 
L 572.973884 54.880032 
L 573.26477 54.880032 
L 573.555656 57.150952 
L 575.010088 57.150952 
L 575.300974 54.880032 
L 575.59186 54.880032 
L 575.882747 57.150952 
L 576.173633 57.150952 
L 576.464519 54.880032 
L 576.755406 57.150952 
L 577.337178 57.150952 
L 577.628064 59.421872 
L 577.918951 54.880032 
L 578.209837 57.150952 
L 578.79161 57.150952 
L 579.082496 54.880032 
L 579.373382 57.150952 
L 580.536928 57.150952 
L 580.827814 54.880032 
L 581.1187 54.880032 
L 581.409586 57.150952 
L 581.700473 54.880032 
L 581.991359 57.150952 
L 582.864018 57.150952 
L 583.154904 54.880032 
L 583.445791 59.421872 
L 583.736677 57.150952 
L 585.191108 57.150952 
L 585.481995 54.880032 
L 585.772881 57.150952 
L 586.64554 57.150952 
L 586.936426 54.880032 
L 587.227313 57.150952 
L 587.518199 54.880032 
L 587.809085 57.150952 
L 588.099972 57.150952 
L 588.390858 54.880032 
L 588.681744 57.150952 
L 588.97263 54.880032 
L 591.008835 54.880032 
L 591.299721 57.150952 
L 591.590607 57.150952 
L 591.881494 54.880032 
L 592.17238 57.150952 
L 592.463266 54.880032 
L 592.754152 57.150952 
L 594.790357 57.150952 
L 595.081243 59.421872 
L 595.372129 57.150952 
L 595.953902 57.150952 
L 596.244788 54.880032 
L 596.535674 54.880032 
L 596.826561 57.150952 
L 597.117447 54.880032 
L 597.408333 57.150952 
L 597.69922 54.880032 
L 597.990106 57.150952 
L 598.280992 54.880032 
L 598.571879 54.880032 
L 598.862765 57.150952 
L 599.153651 54.880032 
L 599.444537 54.880032 
L 599.735424 57.150952 
L 600.898969 57.150952 
L 601.189855 54.880032 
L 602.062514 54.880032 
L 602.353401 57.150952 
L 602.644287 57.150952 
L 602.935173 54.880032 
L 603.516946 54.880032 
L 603.807832 59.421872 
L 604.098718 57.150952 
L 604.389605 57.150952 
L 604.680491 59.421872 
L 605.262264 54.880032 
L 605.844036 54.880032 
L 606.134923 57.150952 
L 606.425809 54.880032 
L 606.716695 57.150952 
L 607.007581 57.150952 
L 607.298468 54.880032 
L 608.171127 54.880032 
L 608.462013 57.150952 
L 609.043786 57.150952 
L 609.334672 54.880032 
L 609.625558 59.421872 
L 609.916445 54.880032 
L 610.207331 54.880032 
L 610.498217 57.150952 
L 610.789103 54.880032 
L 611.07999 57.150952 
L 611.370876 54.880032 
L 612.243535 54.880032 
L 612.534421 57.150952 
L 613.40708 57.150952 
L 613.697967 54.880032 
L 613.988853 54.880032 
L 614.279739 57.150952 
L 615.443284 57.150952 
L 615.734171 54.880032 
L 616.025057 57.150952 
L 616.315943 57.150952 
L 616.60683 54.880032 
L 616.897716 57.150952 
L 617.188602 54.880032 
L 617.479488 57.150952 
L 619.224806 57.150952 
L 619.515693 59.421872 
L 619.806579 57.150952 
L 621.26101 57.150952 
L 621.551897 54.880032 
L 621.842783 57.150952 
L 622.133669 57.150952 
L 622.424556 54.880032 
L 622.715442 57.150952 
L 623.006328 57.150952 
L 623.297215 54.880032 
L 624.751646 54.880032 
L 625.042532 57.150952 
L 625.333419 54.880032 
L 625.624305 57.150952 
L 625.915191 54.880032 
L 626.206078 57.150952 
L 626.496964 57.150952 
L 626.78785 54.880032 
L 627.078737 54.880032 
L 627.369623 57.150952 
L 627.951396 57.150952 
L 628.242282 54.880032 
L 628.533168 57.150952 
L 628.824054 54.880032 
L 629.114941 57.150952 
L 629.405827 54.880032 
L 629.9876 54.880032 
L 630.569372 59.421872 
L 630.860259 59.421872 
L 631.151145 54.880032 
L 631.732918 54.880032 
L 632.023804 57.150952 
L 632.31469 57.150952 
L 632.605576 54.880032 
L 632.896463 57.150952 
L 633.478235 57.150952 
L 633.769122 54.880032 
L 634.060008 57.150952 
L 634.350894 54.880032 
L 634.641781 54.880032 
L 634.932667 57.150952 
L 635.223553 54.880032 
L 635.51444 57.150952 
L 635.805326 54.880032 
L 636.968871 54.880032 
L 637.259757 57.150952 
L 637.550644 57.150952 
L 637.84153 54.880032 
L 638.714189 54.880032 
L 639.005075 57.150952 
L 639.295961 54.880032 
L 639.586848 54.880032 
L 639.877734 57.150952 
L 640.16862 54.880032 
L 640.459507 57.150952 
L 641.041279 57.150952 
L 641.332166 54.880032 
L 641.623052 57.150952 
L 642.786597 57.150952 
L 643.077483 54.880032 
L 643.950142 54.880032 
L 644.241029 57.150952 
L 644.531915 54.880032 
L 644.822801 57.150952 
L 645.113688 57.150952 
L 645.404574 54.880032 
L 645.986347 54.880032 
L 646.277233 57.150952 
L 646.568119 54.880032 
L 646.859005 57.150952 
L 647.149892 54.880032 
L 648.89521 54.880032 
L 649.186096 57.150952 
L 649.767869 52.609112 
L 650.058755 54.880032 
L 650.349641 54.880032 
L 650.640527 57.150952 
L 650.931414 54.880032 
L 651.2223 57.150952 
L 651.513186 57.150952 
L 651.804073 54.880032 
L 653.258504 54.880032 
L 653.549391 57.150952 
L 653.840277 54.880032 
L 654.131163 57.150952 
L 654.422049 54.880032 
L 654.712936 57.150952 
L 655.003822 54.880032 
L 656.167367 54.880032 
L 656.458254 57.150952 
L 656.74914 54.880032 
L 657.040026 57.150952 
L 657.621799 57.150952 
L 657.912685 54.880032 
L 658.203571 57.150952 
L 658.494458 54.880032 
L 658.785344 54.880032 
L 659.07623 57.150952 
L 659.367117 54.880032 
L 659.658003 54.880032 
L 659.948889 57.150952 
L 660.239776 54.880032 
L 660.530662 54.880032 
L 660.821548 57.150952 
L 661.112434 54.880032 
L 661.985093 54.880032 
L 662.27598 57.150952 
L 662.566866 54.880032 
L 662.857752 54.880032 
L 663.148639 57.150952 
L 663.439525 57.150952 
L 663.730411 54.880032 
L 664.021298 57.150952 
L 664.312184 57.150952 
L 664.60307 54.880032 
L 664.893956 54.880032 
L 665.184843 57.150952 
L 665.475729 54.880032 
L 666.930161 54.880032 
L 667.221047 57.150952 
L 667.511933 57.150952 
L 667.80282 52.609112 
L 668.093706 57.150952 
L 668.675478 57.150952 
L 668.966365 54.880032 
L 669.257251 57.150952 
L 669.548137 57.150952 
L 669.839024 54.880032 
L 670.711683 54.880032 
L 671.002569 57.150952 
L 671.293455 54.880032 
L 671.584342 54.880032 
L 671.875228 57.150952 
L 672.166114 57.150952 
L 672.457 54.880032 
L 672.747887 54.880032 
L 673.038773 57.150952 
L 673.329659 57.150952 
L 673.620546 54.880032 
L 673.911432 54.880032 
L 674.202318 57.150952 
L 674.493205 54.880032 
L 674.784091 54.880032 
L 674.784091 54.880032 
" style="fill:none;stroke:#ff7f0e;stroke-linecap:square;stroke-width:1.5;"/>
   </g>
   <g id="patch_3">
    <path d="M 65.45 304 
L 65.45 35.88 
" style="fill:none;stroke:#000000;stroke-linecap:square;stroke-linejoin:miter;stroke-width:0.8;"/>
   </g>
   <g id="patch_4">
    <path d="M 703.8 304 
L 703.8 35.88 
" style="fill:none;stroke:#000000;stroke-linecap:square;stroke-linejoin:miter;stroke-width:0.8;"/>
   </g>
   <g id="patch_5">
    <path d="M 65.45 304 
L 703.8 304 
" style="fill:none;stroke:#000000;stroke-linecap:square;stroke-linejoin:miter;stroke-width:0.8;"/>
   </g>
   <g id="patch_6">
    <path d="M 65.45 35.88 
L 703.8 35.88 
" style="fill:none;stroke:#000000;stroke-linecap:square;stroke-linejoin:miter;stroke-width:0.8;"/>
   </g>
   <g id="text_19">
    <text style="font-family:DejaVu Sans;font-size:18px;font-style:normal;font-weight:normal;text-anchor:middle;" transform="rotate(-0, 384.625, 29.88)" x="384.625" y="29.88">Training/Validation Accuracy Comparison</text>
   </g>
   <g id="legend_1">
    <g id="patch_7">
     <path d="M 496.570313 296.5 
L 693.3 296.5 
Q 696.3 296.5 696.3 293.5 
L 696.3 250.965625 
Q 696.3 247.965625 693.3 247.965625 
L 496.570313 247.965625 
Q 493.570313 247.965625 493.570313 250.965625 
L 493.570313 293.5 
Q 493.570313 296.5 496.570313 296.5 
z
" style="fill:#ffffff;opacity:0.8;stroke:#cccccc;stroke-linejoin:miter;"/>
    </g>
    <g id="line2d_19">
     <path d="M 499.570313 260.113281 
L 529.570312 260.113281 
" style="fill:none;stroke:#1f77b4;stroke-linecap:square;stroke-width:1.5;"/>
    </g>
    <g id="line2d_20"/>
    <g id="text_20">
     <text style="font-family:DejaVu Sans;font-size:15px;font-style:normal;font-weight:normal;text-anchor:start;" transform="rotate(-0, 541.570312, 265.363281)" x="541.570312" y="265.363281">Training Accuracy</text>
    </g>
    <g id="line2d_21">
     <path d="M 499.570313 282.130469 
L 529.570312 282.130469 
" style="fill:none;stroke:#ff7f0e;stroke-linecap:square;stroke-width:1.5;"/>
    </g>
    <g id="line2d_22"/>
    <g id="text_21">
     <text style="font-family:DejaVu Sans;font-size:15px;font-style:normal;font-weight:normal;text-anchor:start;" transform="rotate(-0, 541.570312, 287.380469)" x="541.570312" y="287.380469">Validation Accuracy</text>
    </g>
   </g>
  </g>
 </g>
 <defs>
  <clipPath id="p5f8690a728">
   <rect height="268.12" width="638.35" x="65.45" y="35.88"/>
  </clipPath>
 </defs>
</svg>
