<?xml version="1.0" encoding="UTF-8" standalone="no"?>
<!-- Created with matplotlib (https://matplotlib.org/) -->

<svg
   height="308.55496pt"
   version="1.1"
   viewBox="0 0 687.6593 308.55496"
   width="687.6593pt"
   id="svg216"
   sodipodi:docname="cnn_dataset1_acc_comparison.svg"
   inkscape:version="1.2.2 (1:1.2.2+202305151915+b0a8486541)"
   xmlns:inkscape="http://www.inkscape.org/namespaces/inkscape"
   xmlns:sodipodi="http://sodipodi.sourceforge.net/DTD/sodipodi-0.dtd"
   xmlns:xlink="http://www.w3.org/1999/xlink"
   xmlns="http://www.w3.org/2000/svg"
   xmlns:svg="http://www.w3.org/2000/svg">
  <sodipodi:namedview
     id="namedview218"
     pagecolor="#ffffff"
     bordercolor="#666666"
     borderopacity="1.0"
     inkscape:showpageshadow="2"
     inkscape:pageopacity="0.0"
     inkscape:pagecheckerboard="0"
     inkscape:deskcolor="#d1d1d1"
     inkscape:document-units="pt"
     showgrid="false"
     inkscape:zoom="1.446875"
     inkscape:cx="443.7149"
     inkscape:cy="210.10799"
     inkscape:window-width="1920"
     inkscape:window-height="1080"
     inkscape:window-x="0"
     inkscape:window-y="0"
     inkscape:window-maximized="1"
     inkscape:current-layer="svg216" />
  <defs
     id="defs4">
    <style
       type="text/css"
       id="style2">
*{stroke-linecap:butt;stroke-linejoin:round;}
  </style>
  </defs>
  <g
     id="figure_1"
     transform="translate(-16.540725,-35.48)">
    <g
       id="axes_1">
      <g
         id="patch_2">
        <path
           d="M 65.45,304 H 703.8 V 35.88 H 65.45 Z"
           style="fill:#ffffff"
           id="path9" />
      </g>
      <g
         id="matplotlib.axis_1">
        <g
           id="xtick_1">
          <g
             id="line2d_1">
            <defs
               id="defs13">
              <path
                 d="M 0,0 V 3.5"
                 id="mbfbd6d839a"
                 style="stroke:#000000;stroke-width:0.8" />
            </defs>
            <g
               id="g17">
              <use
                 style="stroke:#000000;stroke-width:0.8"
                 x="94.175026"
                 xlink:href="#mbfbd6d839a"
                 y="304"
                 id="use15" />
            </g>
          </g>
          <g
             id="text_1">
            <text
               style="font-style:normal;font-weight:normal;font-size:15px;font-family:'DejaVu Sans';text-anchor:middle"
               x="94.175026"
               y="322.39764"
               id="text20">0</text>
          </g>
        </g>
        <g
           id="xtick_2">
          <g
             id="line2d_2">
            <g
               id="g26">
              <use
                 style="stroke:#000000;stroke-width:0.8"
                 x="166.89661"
                 xlink:href="#mbfbd6d839a"
                 y="304"
                 id="use24" />
            </g>
          </g>
          <g
             id="text_2">
            <text
               style="font-style:normal;font-weight:normal;font-size:15px;font-family:'DejaVu Sans';text-anchor:middle"
               x="166.89661"
               y="322.39764"
               id="text29">250</text>
          </g>
        </g>
        <g
           id="xtick_3">
          <g
             id="line2d_3">
            <g
               id="g35">
              <use
                 style="stroke:#000000;stroke-width:0.8"
                 x="239.61818"
                 xlink:href="#mbfbd6d839a"
                 y="304"
                 id="use33" />
            </g>
          </g>
          <g
             id="text_3">
            <text
               style="font-style:normal;font-weight:normal;font-size:15px;font-family:'DejaVu Sans';text-anchor:middle"
               x="239.61818"
               y="322.39764"
               id="text38">500</text>
          </g>
        </g>
        <g
           id="xtick_4">
          <g
             id="line2d_4">
            <g
               id="g44">
              <use
                 style="stroke:#000000;stroke-width:0.8"
                 x="312.33975"
                 xlink:href="#mbfbd6d839a"
                 y="304"
                 id="use42" />
            </g>
          </g>
          <g
             id="text_4">
            <text
               style="font-style:normal;font-weight:normal;font-size:15px;font-family:'DejaVu Sans';text-anchor:middle"
               x="312.33975"
               y="322.39764"
               id="text47">750</text>
          </g>
        </g>
        <g
           id="xtick_5">
          <g
             id="line2d_5">
            <g
               id="g53">
              <use
                 style="stroke:#000000;stroke-width:0.8"
                 x="385.06134"
                 xlink:href="#mbfbd6d839a"
                 y="304"
                 id="use51" />
            </g>
          </g>
          <g
             id="text_5">
            <text
               style="font-style:normal;font-weight:normal;font-size:15px;font-family:'DejaVu Sans';text-anchor:middle"
               x="385.06134"
               y="322.39764"
               id="text56">1000</text>
          </g>
        </g>
        <g
           id="xtick_6">
          <g
             id="line2d_6">
            <g
               id="g62">
              <use
                 style="stroke:#000000;stroke-width:0.8"
                 x="457.7829"
                 xlink:href="#mbfbd6d839a"
                 y="304"
                 id="use60" />
            </g>
          </g>
          <g
             id="text_6">
            <text
               style="font-style:normal;font-weight:normal;font-size:15px;font-family:'DejaVu Sans';text-anchor:middle"
               x="457.7829"
               y="322.39764"
               id="text65">1250</text>
          </g>
        </g>
        <g
           id="xtick_7">
          <g
             id="line2d_7">
            <g
               id="g71">
              <use
                 style="stroke:#000000;stroke-width:0.8"
                 x="530.50446"
                 xlink:href="#mbfbd6d839a"
                 y="304"
                 id="use69" />
            </g>
          </g>
          <g
             id="text_7">
            <text
               style="font-style:normal;font-weight:normal;font-size:15px;font-family:'DejaVu Sans';text-anchor:middle"
               x="530.50446"
               y="322.39764"
               id="text74">1500</text>
          </g>
        </g>
        <g
           id="xtick_8">
          <g
             id="line2d_8">
            <g
               id="g80">
              <use
                 style="stroke:#000000;stroke-width:0.8"
                 x="603.22607"
                 xlink:href="#mbfbd6d839a"
                 y="304"
                 id="use78" />
            </g>
          </g>
          <g
             id="text_8">
            <text
               style="font-style:normal;font-weight:normal;font-size:15px;font-family:'DejaVu Sans';text-anchor:middle"
               x="603.22607"
               y="322.39764"
               id="text83">1750</text>
          </g>
        </g>
        <g
           id="xtick_9">
          <g
             id="line2d_9">
            <g
               id="g89">
              <use
                 style="stroke:#000000;stroke-width:0.8"
                 x="675.94763"
                 xlink:href="#mbfbd6d839a"
                 y="304"
                 id="use87" />
            </g>
          </g>
          <g
             id="text_9">
            <text
               style="font-style:normal;font-weight:normal;font-size:15px;font-family:'DejaVu Sans';text-anchor:middle"
               x="675.94763"
               y="322.39764"
               id="text92">2000</text>
          </g>
        </g>
        <g
           id="text_10">
          <text
             style="font-style:normal;font-weight:normal;font-size:15px;font-family:'DejaVu Sans';text-anchor:middle"
             x="384.625"
             y="340.91486"
             id="text96">Epoch</text>
        </g>
      </g>
      <g
         id="matplotlib.axis_2">
        <g
           id="ytick_1">
          <g
             id="line2d_10">
            <defs
               id="defs101">
              <path
                 d="M 0,0 H -3.5"
                 id="m5f58d93a6d"
                 style="stroke:#000000;stroke-width:0.8" />
            </defs>
            <g
               id="g105">
              <use
                 style="stroke:#000000;stroke-width:0.8"
                 x="65.449997"
                 xlink:href="#m5f58d93a6d"
                 y="286.05972"
                 id="use103" />
            </g>
          </g>
          <g
             id="text_11">
            <text
               style="font-style:normal;font-weight:normal;font-size:15px;font-family:'DejaVu Sans';text-anchor:end"
               x="58.450001"
               y="291.75854"
               id="text108">0.4</text>
          </g>
        </g>
        <g
           id="ytick_2">
          <g
             id="line2d_11">
            <g
               id="g114">
              <use
                 style="stroke:#000000;stroke-width:0.8"
                 x="65.449997"
                 xlink:href="#m5f58d93a6d"
                 y="245.63734"
                 id="use112" />
            </g>
          </g>
          <g
             id="text_12">
            <text
               style="font-style:normal;font-weight:normal;font-size:15px;font-family:'DejaVu Sans';text-anchor:end"
               x="58.450001"
               y="251.33617"
               id="text117">0.5</text>
          </g>
        </g>
        <g
           id="ytick_3">
          <g
             id="line2d_12">
            <g
               id="g123">
              <use
                 style="stroke:#000000;stroke-width:0.8"
                 x="65.449997"
                 xlink:href="#m5f58d93a6d"
                 y="205.21497"
                 id="use121" />
            </g>
          </g>
          <g
             id="text_13">
            <text
               style="font-style:normal;font-weight:normal;font-size:15px;font-family:'DejaVu Sans';text-anchor:end"
               x="58.450001"
               y="210.91379"
               id="text126">0.6</text>
          </g>
        </g>
        <g
           id="ytick_4">
          <g
             id="line2d_13">
            <g
               id="g132">
              <use
                 style="stroke:#000000;stroke-width:0.8"
                 x="65.449997"
                 xlink:href="#m5f58d93a6d"
                 y="164.79259"
                 id="use130" />
            </g>
          </g>
          <g
             id="text_14">
            <text
               style="font-style:normal;font-weight:normal;font-size:15px;font-family:'DejaVu Sans';text-anchor:end"
               x="58.450001"
               y="170.49141"
               id="text135">0.7</text>
          </g>
        </g>
        <g
           id="ytick_5">
          <g
             id="line2d_14">
            <g
               id="g141">
              <use
                 style="stroke:#000000;stroke-width:0.8"
                 x="65.449997"
                 xlink:href="#m5f58d93a6d"
                 y="124.3702"
                 id="use139" />
            </g>
          </g>
          <g
             id="text_15">
            <text
               style="font-style:normal;font-weight:normal;font-size:15px;font-family:'DejaVu Sans';text-anchor:end"
               x="58.450001"
               y="130.06903"
               id="text144">0.8</text>
          </g>
        </g>
        <g
           id="ytick_6">
          <g
             id="line2d_15">
            <g
               id="g150">
              <use
                 style="stroke:#000000;stroke-width:0.8"
                 x="65.449997"
                 xlink:href="#m5f58d93a6d"
                 y="83.947815"
                 id="use148" />
            </g>
          </g>
          <g
             id="text_16">
            <text
               style="font-style:normal;font-weight:normal;font-size:15px;font-family:'DejaVu Sans';text-anchor:end"
               x="58.450001"
               y="89.646645"
               id="text153">0.9</text>
          </g>
        </g>
        <g
           id="ytick_7">
          <g
             id="line2d_16">
            <g
               id="g159">
              <use
                 style="stroke:#000000;stroke-width:0.8"
                 x="65.449997"
                 xlink:href="#m5f58d93a6d"
                 y="43.525433"
                 id="use157" />
            </g>
          </g>
          <g
             id="text_17">
            <text
               style="font-style:normal;font-weight:normal;font-size:15px;font-family:'DejaVu Sans';text-anchor:end"
               x="58.450001"
               y="49.224262"
               id="text162">1.0</text>
          </g>
        </g>
        <g
           id="text_18">
          <text
             style="font-style:normal;font-weight:normal;font-size:15px;font-family:'DejaVu Sans';text-anchor:middle"
             transform="rotate(-90,27.475781,169.94)"
             x="27.47578"
             y="169.94"
             id="text166">Accuracy</text>
        </g>
      </g>
      <g
         id="line2d_17">
        <path
           clip-path="url(#p5f8690a728)"
           d="m 94.465909,291.81273 0.290886,-18.16736 0.290887,-28.00803 0.290886,7.56974 0.581773,-31.03591 0.290886,3.0279 0.581773,-24.98012 0.581772,-6.81279 0.290886,3.02792 0.290887,-1.51397 0.290886,-15.13946 0.290886,-2.27092 0.290887,4.54184 0.290886,-10.59763 0.290886,-1.51395 0.290887,5.29882 0.290886,-9.84066 0.581771,-12.86854 0.29089,11.3546 0.29088,-3.78487 0.29089,-12.11157 0.29089,8.3267 0.29088,-1.51394 0.29089,-2.27092 0.29089,8.3267 0.58177,-5.29881 0.29088,1.51395 0.29089,-5.29882 0.29089,-0.75697 0.29088,1.51395 0.58178,-15.13947 0.29088,12.11158 0.29089,-1.51395 0.29088,-6.05579 0.29089,8.32671 0.29089,-20.43828 0.29088,13.62552 0.29089,-4.54184 0.29089,2.27092 0.58177,-6.05579 0.29089,-4.54184 0.29088,6.81276 0.29089,-4.54184 0.29088,9.84066 0.29089,-0.75698 0.29089,-10.59762 0.29088,5.29881 0.29089,-13.62552 0.29089,5.29881 0.29088,-0.75697 0.29089,6.81276 0.29089,-9.84065 0.29088,7.56973 0.58177,-9.84065 h 0.58178 l 0.29088,4.54184 0.29089,-9.08368 0.29089,7.56973 0.29088,0.75697 0.29089,2.27092 0.58177,-6.81276 0.29089,9.08368 0.29088,-12.11157 h 0.29089 l 0.29089,3.02789 0.29088,-3.78486 0.29089,0.75697 0.29088,-2.27092 0.29089,-0.75697 0.29089,0.75697 0.29088,8.32671 0.58178,-14.38249 0.29088,5.29881 0.29089,-6.81276 0.29088,1.51395 0.29089,9.84065 0.29089,-3.0279 0.29088,1.51395 0.29089,-2.27092 0.29089,-4.54184 0.29088,9.84065 h 0.29089 l 0.58177,-13.62552 0.29089,2.27093 0.29089,6.81275 0.29088,3.78487 0.29089,-3.02789 0.29088,-6.81276 h 0.29089 l 0.29089,-4.54184 h 0.29088 l 0.29089,1.51394 h 0.29089 l 0.29088,1.51395 h 0.58177 l 0.29089,-4.54184 0.29089,8.32671 0.29088,-7.56973 0.58178,-3.0279 0.29088,9.08368 0.29089,-6.81276 0.29088,7.56974 0.58178,-9.08368 0.29088,3.02789 h 0.29089 l 0.29089,-0.75697 0.29088,4.54184 0.29089,-3.78487 0.29088,4.54184 0.58178,-13.62552 0.29088,-1.513947 0.29089,12.868547 0.29089,-1.51395 0.29088,-9.083677 0.29089,3.784867 0.58177,10.59763 0.29089,-1.51395 0.29088,-4.54184 0.29089,-0.75697 0.29089,-1.51395 0.58177,-5.298814 0.29089,6.055784 0.29088,0.75698 h 0.29089 l 0.29088,-7.569737 0.29089,9.840647 0.29089,-15.139484 0.29088,7.569754 0.29089,3.78487 0.29089,-3.02789 0.29088,1.51394 0.29089,-1.51394 0.29088,-2.270924 0.29089,5.298814 0.29089,-2.27092 0.29088,-3.784867 0.29089,0.756973 0.29089,3.784864 0.29088,-1.51394 0.29089,3.78486 0.29089,-0.75697 h 0.29088 l 0.29089,-6.055787 0.29088,-0.756973 0.29089,5.29881 0.29089,-1.51394 0.29088,0.75697 h 0.29089 l 0.29089,-2.270921 0.29088,1.513951 0.29089,-3.78487 0.29088,3.02789 0.29089,-2.270917 0.29089,2.270917 0.29088,-1.513944 0.29089,2.270924 h 0.29089 l 0.29088,-0.75698 0.29089,-5.29881 0.29088,2.27092 0.29089,-1.513947 0.29089,3.784866 0.29088,-2.270919 0.29089,-0.756974 0.29089,3.027893 0.29088,-1.513946 0.29089,-3.784866 0.29089,1.513946 0.29088,-0.756973 0.29089,10.59763 0.29088,-12.111601 0.87266,6.05581 0.29089,-3.784866 0.29089,0.756973 0.29088,3.784864 0.29089,-1.513944 0.29088,-3.027893 0.29089,5.298817 0.29089,-2.270924 0.29088,-0.756973 0.29089,-3.027893 0.29089,-4.541864 0.29088,3.784891 0.29089,2.270919 0.29089,-4.541863 0.29088,7.569756 0.29089,-1.513946 h 0.29088 l 0.29089,2.270917 0.58177,-6.055783 0.58178,1.513946 h 0.29088 l 0.58177,3.027893 0.58178,-9.083703 0.29088,6.05581 0.29089,-0.756973 0.29089,-1.513971 0.29088,9.083701 0.29089,-3.784864 0.29088,-6.05581 0.58178,8.326734 0.29088,-6.05579 0.29089,0.756973 0.29089,-3.027917 0.29088,1.513971 0.58178,1.513946 0.29088,1.513947 0.29089,-11.354624 0.29089,9.840677 0.29088,-3.027917 0.29089,-0.756973 0.29088,7.569756 0.29089,-0.756973 0.58177,-3.784866 h 0.29089 l 0.29088,-1.513971 0.29089,0.756998 0.29089,-0.756998 0.29088,-3.027893 0.29089,3.784891 0.29089,0.756973 0.29088,-3.784891 0.29089,-0.756973 0.29089,-1.513946 0.29088,3.784866 0.29089,1.513971 0.29088,0.756973 0.29089,-5.298837 0.29089,7.569757 0.29088,-7.569757 0.58178,5.298837 0.29088,-6.812784 0.29089,9.083704 0.29088,-6.055811 0.29089,3.027918 0.29089,-4.541864 0.29088,3.784866 0.29089,1.513971 0.58177,-3.027917 0.29089,0.756973 0.29089,2.270944 0.29088,-7.569757 0.29089,8.32673 0.29088,-1.513946 0.29089,-5.298837 0.29089,3.784866 0.29088,-4.54184 0.29089,8.32673 0.29089,-3.78489 0.58177,-1.513947 0.29088,1.513947 0.29089,-1.513947 0.29089,-3.027893 0.29088,7.569757 0.29089,-3.78489 0.29089,3.78489 0.29088,-5.298837 0.29089,3.784891 0.29088,-0.756998 h 0.29089 l 0.29089,1.513971 0.29088,-2.270944 0.29089,3.78489 0.29089,-4.541863 0.29088,-1.513947 0.29089,3.784891 0.29089,-9.083704 0.29088,6.81276 0.29089,3.78489 0.29088,-5.298837 0.29089,3.784891 h 0.29089 l 0.29088,-3.027918 0.29089,3.027918 h 0.29089 l 0.58177,-6.812784 0.29088,3.784866 0.29089,6.055811 0.29089,-6.055811 0.29088,-3.027893 0.29089,1.513947 0.29089,6.05581 0.29088,-11.354623 0.58178,11.354623 0.29088,-6.05581 0.29089,1.513946 0.29088,-3.784866 0.29089,3.784866 0.29089,-0.756973 0.29088,-2.27092 0.29089,9.840677 0.29089,-9.840677 0.29088,-0.756973 0.29089,-1.513947 0.29088,6.81276 h 0.29089 l 0.29089,-6.055786 0.29088,1.513946 0.29089,-5.298813 0.29089,9.08368 0.29088,-5.298813 0.29089,4.541839 0.29089,-3.027893 0.29088,0.756974 0.29089,-3.784867 0.29088,0.756973 0.58178,5.298813 0.29088,-2.270919 0.29089,0.756973 h 0.29089 l 0.58177,-4.54184 0.29088,-0.756973 0.29089,3.784866 0.29089,1.513947 0.29088,5.298837 0.29089,-5.298837 0.29089,3.027893 0.29088,-5.298813 0.29089,-2.27092 0.29088,9.840677 0.58178,-10.59765 0.29088,6.055786 0.29089,-4.54184 0.29089,5.298813 0.29088,-1.513946 0.29089,-0.756973 h 0.29089 l 0.29088,0.756973 0.29089,-4.54184 0.29088,3.027893 0.29089,0.756974 0.58177,-5.298813 0.29089,0.756973 h 0.29089 l 0.29088,2.27092 0.29089,-6.81276 0.29088,6.81276 0.29089,-6.81276 0.29089,8.326706 0.29088,1.513947 0.29089,-1.513947 h 0.29089 l 0.29088,-4.541839 0.29089,1.513946 0.29089,2.27092 0.29088,3.784866 0.29089,-1.513946 0.29088,-7.569733 0.29089,8.326706 0.29089,-4.54184 0.29088,5.298813 0.29089,-0.756973 0.29089,-3.784866 0.29088,3.784866 0.29089,-6.812759 0.29088,4.541839 0.29089,-3.027893 0.29089,3.027893 0.29088,0.756974 0.29089,-3.784867 0.29089,5.298813 0.58177,-5.298813 0.29089,3.784867 0.58177,-4.54184 0.29088,1.513946 0.29089,-2.270919 0.29089,7.569732 0.29088,-2.270919 h 0.29089 l 0.29089,-3.784867 0.29088,1.513947 h 0.29089 l 0.29088,1.513946 0.29089,-2.27092 0.29089,4.54184 0.29088,-0.756973 0.29089,1.513946 0.29089,-0.756973 0.29088,-7.569733 0.29089,6.055787 0.29088,-3.784867 0.29089,-2.27092 0.29089,11.354624 0.58177,-12.86857 0.29089,3.027893 0.29088,-1.513947 0.29089,3.027893 0.29089,0.756974 0.29088,3.027893 0.29089,-6.055786 0.29088,0.756973 0.29089,6.055786 0.29089,-6.812759 0.29088,3.027893 0.29089,0.756973 0.29089,-1.513947 0.29088,-7.569732 0.29089,6.055786 0.29088,-0.756973 0.29089,1.513946 0.29089,2.27092 0.29088,-0.756973 0.29089,-2.27092 0.29089,3.784866 0.29088,-3.027893 0.29089,-0.756973 0.29089,-1.513947 0.29088,4.54184 0.29089,-3.784866 0.58177,1.513946 0.29089,-2.27092 0.29088,3.027893 0.29089,-6.055786 0.29089,5.298813 0.29088,-3.027893 0.58177,6.055786 0.29089,-7.569732 0.29089,4.541839 0.29088,0.756973 h 0.29089 l 0.29089,0.756974 0.58177,-6.81276 0.29088,-0.756973 0.29089,1.513947 0.29089,4.541839 0.58177,-6.055786 0.58177,5.298813 0.29089,-1.513947 0.29089,-3.027893 0.29088,6.055786 0.29089,-7.569732 0.29089,5.298813 0.29088,3.027893 0.29089,1.513946 0.29088,-8.326706 0.29089,4.54184 0.29089,-2.27092 0.29088,-0.756973 0.29089,1.513946 0.29088,6.81276 0.29089,-6.81276 h 0.29089 l 0.29088,-6.055786 0.58178,6.055786 0.29088,0.756974 h 0.29089 l 0.29089,-3.784867 0.29088,2.27092 0.29089,-1.513946 0.29088,6.055786 0.29089,-3.027893 0.29089,3.027893 0.29088,-8.326706 h 0.29089 l 0.29089,-3.784867 0.29088,10.597626 0.29089,-3.027893 h 0.29088 l 0.29089,-1.513946 0.29089,2.270919 0.29088,-3.784866 0.29089,1.513947 0.29089,3.027893 0.29088,-4.54184 0.58177,6.055786 0.29089,-0.756973 0.29089,-7.569733 0.58177,6.81276 0.29089,-8.326706 0.58177,10.597625 h 0.29089 l 0.29088,-8.326706 0.29089,0.756974 0.29088,5.298813 0.29089,-9.08368 0.29089,6.81276 h 0.29088 l 0.29089,-3.027893 0.58177,3.027893 0.58177,-4.54184 0.29089,11.354599 0.29089,-10.597626 0.29088,0.756974 0.29089,5.298813 0.58177,-9.08368 0.87266,9.840653 0.29089,-8.326706 0.29088,4.54184 0.29089,-0.756974 0.29089,2.27092 0.29088,-0.756973 0.29089,-6.055786 0.29089,6.055786 0.29088,1.513946 0.58177,-5.298813 0.29089,0.756974 0.29089,-5.298813 0.58177,6.055786 0.58177,-3.027893 0.29089,3.784866 0.29089,-0.756973 0.29088,1.513947 0.29089,3.027893 0.29088,-7.569733 0.29089,5.298813 0.29089,-3.027893 0.29088,0.756973 h 0.29089 l 0.29089,-8.326706 0.29088,9.083679 h 0.29089 l 0.29088,-1.513946 h 0.29089 l 0.29089,-0.756974 0.29088,1.513947 0.58178,6.812759 0.29088,-7.569732 0.29089,-1.513947 0.29088,2.27092 0.29089,-1.513947 h 0.29089 l 0.29088,3.784867 0.29089,-6.81276 0.29089,3.027893 h 0.58177 l 0.29089,0.756974 0.29088,-6.055786 0.29089,9.083679 0.29088,-1.513947 0.29089,-4.541839 0.29089,-2.27092 0.29088,9.083679 0.29089,-6.055786 0.29089,3.784866 0.29088,-8.326706 0.29089,5.298813 0.29088,1.513947 0.29089,-7.569733 0.29089,4.54184 0.29088,1.513946 0.29089,0.756973 0.29089,6.055787 0.29088,-8.326706 0.29089,0.756973 0.29089,-2.27092 0.29088,-0.756973 0.29089,6.812759 0.58177,-9.083679 0.29089,2.27092 0.29088,0.756973 0.29089,3.027893 0.29089,-1.513946 0.29088,2.270919 h 0.29089 l 0.29089,-1.513946 0.29088,-3.784866 0.29089,3.027893 0.29088,-0.756974 0.29089,3.784867 0.29089,-2.27092 0.29088,1.513946 0.29089,5.298813 0.29089,-5.298813 0.29088,0.756974 0.29089,-7.569733 0.29088,1.513947 0.29089,2.270919 0.29089,3.784867 0.29088,-1.513947 0.29089,-2.27092 0.29089,2.27092 0.29088,-6.055786 0.29089,3.784866 0.29089,5.298813 0.58177,-3.784866 0.29088,-6.055786 0.29089,8.326706 0.29089,-6.055786 0.29088,7.569732 0.29089,-6.812759 0.29089,9.083679 0.29088,-8.326706 0.29089,1.513947 0.29088,-1.513947 0.29089,-3.027893 0.29089,7.569733 0.29088,-6.81276 0.29089,2.27092 0.29089,-0.756973 0.29088,5.298813 0.58177,-4.54184 0.29089,6.055786 0.29089,-2.27092 0.29088,1.513947 0.29089,-1.513947 h 0.29089 l 0.29088,-5.298812 0.29089,3.784866 0.29088,-3.027893 0.29089,3.784866 0.29089,-5.298813 0.29088,1.513947 0.29089,-4.54184 0.29089,5.298813 0.29088,-4.54184 0.29089,1.513947 0.29089,-0.756973 0.29088,9.083679 0.29089,-5.298813 0.29088,3.027893 0.29089,-0.756973 0.29089,-3.784866 0.29088,1.513946 0.29089,-0.756973 0.29089,3.027893 0.29088,-3.784866 0.29089,2.270919 0.29088,-0.756973 h 0.58178 l 0.29088,-6.055786 0.58178,3.784866 h 0.29088 l 0.29089,3.784867 0.29088,-3.784867 0.29089,10.597626 0.29089,-12.111572 0.29088,3.784866 0.29089,-6.055786 0.29089,-1.513947 0.58177,10.597626 0.58177,-9.840652 0.29089,7.569732 0.29088,-2.270919 0.29089,1.513946 0.29089,2.27092 0.29088,-10.597626 0.29089,3.784866 0.29089,6.81276 0.29088,-4.54184 0.58177,-1.513946 0.29089,2.27092 h 0.29089 l 0.29088,-4.54184 0.29089,6.812759 0.29089,-0.756973 0.29088,-1.513946 0.29089,4.541839 0.29089,-4.541839 h 0.29088 l 0.29089,3.784866 0.29088,-7.569733 0.29089,-3.027893 0.29089,6.81276 0.29088,-3.784867 0.29089,9.083679 0.29089,-10.597625 0.29088,4.541839 0.29089,-4.541839 0.29088,3.027893 0.29089,-3.027893 0.29089,3.784866 0.58177,-6.81276 0.29089,12.111573 0.29088,-5.298813 0.29089,3.027893 0.29089,-6.055786 0.58177,8.326706 0.29088,-9.840653 0.29089,6.055787 0.29089,-3.784867 0.29088,-0.756973 0.29089,5.298813 0.29089,-3.784867 0.29088,-0.756973 0.29089,1.513947 0.58177,5.298813 0.29089,-5.298813 0.29088,0.756973 0.29089,-3.784866 0.29089,3.784866 0.29088,-2.27092 0.29089,3.784867 0.29088,-5.298813 0.29089,5.298813 0.29089,-1.513947 0.29088,3.027893 0.29089,-3.784866 0.29089,3.784866 0.29088,-0.756973 0.29089,-2.27092 0.58177,-1.513947 0.29089,-1.513946 0.29089,4.54184 0.29088,-6.055787 0.87266,2.27092 0.29089,5.298813 1.16354,-8.326706 0.58177,7.569733 0.29089,-7.569733 0.29089,1.513947 0.29088,3.027893 0.29089,-3.784867 0.29089,0.756974 0.29088,5.298813 h 0.29089 l 0.29089,-4.54184 0.29088,2.27092 0.29089,-3.784867 0.29088,0.756974 0.29089,6.055786 0.29089,-0.756973 0.29088,-5.298813 0.29089,-2.27092 0.29089,3.784866 0.29088,1.513947 0.29089,-4.54184 0.29088,5.298813 0.29089,-6.055786 0.29089,2.27092 0.29088,0.756973 0.29089,1.513946 0.29089,6.81276 0.29088,-3.027893 0.29089,-6.055786 0.29088,1.513946 0.29089,0.756973 0.29089,-1.513946 0.29088,3.027893 0.58178,-4.54184 h 0.29088 l 0.87266,7.569733 0.29089,-6.812759 0.29088,4.541839 0.29089,-9.083679 0.29089,11.354599 0.29088,-3.784866 h 0.29089 l 0.29088,-3.027893 0.29089,3.027893 0.29089,-3.784867 0.29088,7.569733 0.29089,-3.784866 0.29089,1.513946 0.29088,-4.541839 0.29089,1.513946 0.29089,3.027893 0.29088,1.513947 0.58177,-9.840653 0.29089,3.784867 0.29089,2.270919 0.29088,-0.756973 0.29089,-3.027893 0.29089,1.513947 0.29088,2.270919 h 0.29089 l 0.29088,-5.298813 0.29089,-1.513946 0.29089,-3.027893 0.29088,12.111572 h 0.29089 l 0.29089,-2.27092 0.29088,0.756974 0.29089,-8.326706 0.58177,6.055786 0.29089,0.756973 h 0.29088 l 0.29089,-0.756973 h 0.29089 l 0.29088,1.513946 0.29089,-3.784866 0.29089,3.784866 0.29088,-5.298813 0.29089,5.298813 0.29088,-1.513946 0.29089,4.54184 0.29089,-9.08368 0.29088,4.54184 0.29089,-3.784867 0.29089,3.784867 0.29088,-2.27092 0.29089,7.569733 0.29088,-6.055786 0.29089,-2.27092 0.29089,2.27092 0.58177,7.569732 0.29089,-8.326706 0.29088,3.027893 0.29089,-1.513946 0.29089,-3.784867 0.29088,6.81276 0.29089,1.513947 0.29088,-7.569733 0.29089,1.513946 0.29089,-1.513946 0.29088,6.812759 0.29089,-8.326706 0.29089,1.513947 0.29088,-1.513947 0.29089,3.027893 0.29088,1.513947 0.29089,-5.298813 0.29089,2.27092 h 0.29088 l 0.29089,5.298813 0.29089,-9.08368 0.29088,8.326706 0.29089,-6.812759 0.29089,3.027893 h 0.29088 l 0.29089,4.54184 0.29088,-6.81276 0.29089,-0.756973 0.29089,3.027893 0.29088,1.513947 0.29089,-1.513947 0.29089,0.756973 0.29088,-0.756973 h 0.29089 l 0.29088,-1.513947 0.29089,-3.027893 0.29089,0.756974 h 0.29088 l 0.29089,5.298813 0.29089,0.756973 0.29088,1.513946 0.58178,-6.055786 0.29088,3.784867 0.29089,-7.569733 0.29088,9.083679 0.29089,-5.298813 h 0.29089 l 0.29088,2.27092 0.29089,-0.756973 0.29089,8.326706 0.29088,-9.840653 0.29089,-0.756973 0.29089,6.055786 0.29088,-5.298813 0.29089,-1.513946 0.29088,5.298813 0.29089,-2.27092 h 0.29089 l 0.29088,2.27092 0.29089,-2.27092 0.29089,0.756973 0.29088,-5.298813 0.29089,3.027893 h 0.29088 l 0.29089,3.027893 h 0.29089 l 0.58177,-1.513946 0.29089,-2.27092 0.29088,8.326706 0.29089,-6.81276 0.29089,-3.027893 h 0.29088 l 0.58177,5.298813 0.58178,-5.298813 0.29088,9.08368 0.29089,-6.81276 h 0.29089 l 0.58177,6.055786 0.29088,-5.298813 0.29089,-1.513946 0.29089,1.513946 0.29088,-0.756973 0.29089,5.298813 0.29089,-3.027893 0.29088,0.756973 0.29089,-1.513946 0.29089,0.756973 0.29088,-1.513947 h 0.29089 l 0.29088,4.54184 0.29089,-3.784866 0.58177,-3.784867 0.29089,3.784867 0.29088,-1.513947 0.29089,3.784867 0.29089,6.812759 0.29088,-11.354599 0.29089,2.27092 h 0.29089 l 0.29088,-1.513947 h 0.29089 l 0.29088,-2.27092 0.29089,1.513947 0.29089,-3.027893 0.58177,7.569733 0.29089,-4.54184 0.29088,3.027893 0.58178,-7.569733 0.58177,10.597626 0.29088,-3.027893 0.29089,-6.055786 0.29089,3.784866 h 0.29088 l 0.29089,-4.541839 0.29089,6.812759 h 0.29088 l 0.29089,-6.055786 0.29088,6.812759 0.29089,-3.784866 0.29089,0.756973 0.58177,-1.513946 h 0.29089 l 0.29088,-3.027893 0.58178,3.027893 0.29088,2.270919 0.29089,-1.513946 h 0.29088 l 0.29089,1.513946 h 0.29089 l 0.29088,-2.270919 0.29089,7.569732 0.29089,-5.298813 0.29088,0.756974 0.29089,-3.027893 0.29088,3.027893 h 0.29089 l 0.29089,0.756973 0.29088,-5.298813 0.29089,5.298813 0.29089,-1.513947 0.29088,1.513947 0.29089,-1.513947 0.29089,-6.812759 0.29088,-0.756973 0.29089,6.812759 0.29088,1.513947 0.58178,-3.784867 0.29088,1.513947 0.29089,-0.756973 0.29089,5.298813 h 0.29088 l 0.58177,-5.298813 h 0.29089 l 0.29089,-3.027893 0.29088,5.298812 0.29089,-3.027893 0.29089,9.08368 0.29088,-6.055787 0.29089,1.513947 0.29088,-5.298813 0.29089,-1.513946 0.29089,5.298812 0.29088,-3.027893 0.29089,1.513947 h 0.29089 l 0.29088,2.27092 0.29089,-9.840653 0.58177,12.868546 0.29089,-3.027893 0.29088,-4.54184 0.29089,3.027893 0.29089,-4.541839 0.29088,-0.756974 0.29089,3.784867 0.29089,2.270919 0.29088,0.756974 0.29089,-5.298813 0.29088,4.541839 0.29089,-1.513946 0.29089,1.513946 0.29088,-4.541839 0.29089,3.784866 0.29089,-5.298813 0.29088,10.597626 0.29089,-8.326706 0.29089,3.784866 0.58177,-1.513946 0.29088,-1.513947 h 0.29089 l 0.58177,3.027893 0.29089,-3.784866 0.29089,2.27092 0.29088,5.298813 0.29089,-9.083679 0.29088,3.784866 0.29089,1.513946 0.29089,0.756974 0.87266,-2.27092 0.29088,-2.27092 h 0.29089 l 0.29089,3.027893 0.29088,-3.027893 0.29089,0.756973 0.29088,-0.756973 0.29089,4.54184 0.29089,-6.81276 0.29088,8.326706 0.29089,-3.027893 0.29089,-0.756973 0.29088,3.027893 0.29089,-4.54184 0.29089,4.54184 0.29088,-3.784866 0.29089,3.027893 0.29088,-3.784867 h 0.29089 l 0.29089,0.756974 0.29088,-0.756974 0.29089,-5.298813 0.29089,9.08368 0.29088,-3.027893 0.29089,-4.54184 0.58177,3.027893 0.29089,0.756973 0.29088,3.784867 0.58178,-6.055786 0.29088,4.541839 0.58178,1.513947 0.58177,-3.027893 h 0.29088 l 0.29089,-3.027893 0.58177,3.784866 0.29089,-3.027893 h 0.29089 l 0.29088,-1.513947 0.29089,3.027893 0.29088,-1.513946 0.29089,5.298813 0.29089,-2.27092 0.29088,3.027893 0.29089,-3.027893 0.29089,-5.298813 0.29088,0.756973 0.29089,3.027893 0.29088,-1.513946 h 0.29089 l 0.29089,-1.513947 0.29088,3.027893 0.29089,0.756974 0.29089,-0.756974 0.29088,3.027893 0.58177,-6.055786 0.87266,6.055786 0.29089,-3.027893 0.29089,3.027893 0.29088,-3.027893 0.29089,6.055787 0.29088,-8.326706 0.29089,0.756973 0.29089,1.513946 0.29088,-4.541839 0.58178,6.812759 0.29088,-3.784866 0.29089,2.27092 0.29089,0.756973 0.29088,2.27092 0.29089,-3.027893 h 0.29088 l 0.29089,-1.513947 0.29089,-2.27092 0.29088,1.513947 0.29089,3.027893 h 0.29089 l 0.29088,-4.54184 h 0.29089 l 0.29088,4.54184 0.29089,-3.027893 0.29089,1.513946 0.58177,-3.027893 0.29089,0.756974 0.29088,3.784866 h 0.29089 l 0.29089,0.756973 0.29088,-3.784866 0.29089,-2.27092 0.29088,3.027893 h 0.29089 l 0.29089,-3.027893 0.58177,3.784866 0.29089,1.513947 0.29088,-4.54184 0.29089,4.54184 0.29088,-3.027893 0.29089,-0.756973 0.29089,2.270919 0.58177,-3.027893 0.29089,5.298813 0.29088,-7.569733 0.29089,-1.513946 0.29089,3.784866 0.29088,0.756974 0.29089,-1.513947 0.29088,3.784866 0.29089,-1.513946 0.29089,3.027893 0.29088,-5.298813 0.29089,2.27092 0.29089,0.756973 0.29088,2.27092 0.29089,-3.027893 0.29088,-1.513947 h 0.29089 l 0.29089,0.756974 0.29088,-3.784867 0.29089,5.298813 0.58177,1.513947 0.29089,4.541839 0.29088,-8.326706 0.29089,4.54184 0.29089,-6.81276 0.29088,3.784867 0.29089,-2.27092 0.29089,2.27092 0.29088,6.055786 0.29089,-3.027893 0.29089,-5.298813 0.29088,0.756973 0.58177,5.298813 0.29089,-4.541839 0.29089,1.513946 0.29088,-3.027893 0.58178,3.027893 0.29088,-4.54184 0.29089,6.055787 0.29088,-0.756974 0.29089,-3.027893 h 0.29089 l 0.29088,0.756974 0.29089,-1.513947 0.29089,2.27092 0.29088,0.756973 0.29089,-3.027893 0.29089,1.513947 0.29088,-2.27092 0.29089,3.027893 0.29089,4.541839 0.29088,-4.541839 0.29089,3.027893 0.29088,-1.513947 h 0.29089 l 0.29089,2.27092 0.29088,-2.27092 0.29089,-3.784866 0.29089,2.27092 0.29088,-3.784867 0.29089,7.569733 0.29088,-2.27092 0.58178,-1.513946 0.58177,3.027893 0.29089,-8.326706 0.29088,6.055786 0.29089,-3.027893 h 0.29088 l 0.29089,2.27092 0.29089,-0.756973 0.29088,-3.784867 0.29089,6.055786 0.29089,-2.270919 0.29088,-5.298813 0.29089,2.270919 0.58177,7.569733 0.29089,-6.055786 h 0.29088 l 0.29089,1.513947 0.29089,-0.756974 0.29088,0.756974 0.29089,1.513946 0.29089,-3.027893 0.29088,3.027893 0.29089,-3.027893 0.29088,2.27092 0.58178,-3.784867 0.29088,2.27092 0.29089,0.756974 0.29089,-0.756974 0.29088,1.513947 0.29089,-2.27092 0.29088,0.756973 h 0.29089 l 0.29089,-1.513946 h 0.29088 l 0.29089,0.756973 0.29089,2.27092 0.29088,-2.27092 0.29089,3.784866 0.29088,-3.027893 0.29089,4.54184 0.29089,-4.54184 0.29088,3.027893 0.29089,-2.270919 0.29089,3.784866 0.29088,-6.055786 0.29089,0.756973 0.29089,2.27092 0.58177,-3.784867 0.29088,2.27092 0.29089,4.54184 0.29089,-9.083679 0.29088,3.027893 0.29089,7.569732 0.29089,-9.083679 0.29088,3.027893 0.29089,-3.027893 0.58177,5.298813 0.29089,-3.027893 h 0.29088 l 0.29089,-3.027893 0.29089,2.27092 0.29088,-2.27092 0.29089,0.756973 h 0.29088 l 0.29089,8.326706 0.29089,-7.569733 h 0.29088 l 0.29089,3.027894 0.29089,-2.27092 0.29088,3.027893 0.29089,-3.027893 0.58177,1.513946 0.29089,1.513947 0.29088,-2.27092 0.58178,1.513947 0.29088,3.027893 0.29089,-2.27092 0.29089,0.756973 0.29088,-6.055786 0.29089,5.298813 0.29088,-0.756973 h 0.29089 l 0.29089,2.270919 0.29088,-2.270919 0.29089,-4.54184 0.29089,5.298813 0.29088,-0.756973 0.29089,3.027893 0.29089,-5.298813 0.29088,-3.027893 0.29089,3.027893 h 0.29088 l 0.29089,2.27092 0.29089,0.756973 0.29088,-1.513947 0.29089,0.756974 h 0.29089 l 0.29088,-3.784867 0.29089,3.027893 0.29088,-1.513946 0.29089,2.27092 h 0.29089 l 0.29088,5.298812 0.29089,-9.083679 0.29089,-3.027893 0.29088,3.027893 0.29089,-1.513946 0.29089,4.541839 h 0.29088 l 0.29089,-3.027893 0.29088,0.756973 0.29089,3.027894 0.29089,-3.027894 0.29088,-0.756973 0.29089,2.27092 0.29089,3.784866 0.29088,-0.756973 0.29089,-3.784866 0.29088,1.513946 h 0.29089 l 0.29089,-0.756973 0.29088,-3.027893 0.29089,5.298813 0.29089,-4.54184 0.29088,3.027893 0.29089,-0.756973 0.29088,0.756973 0.29089,-7.569732 0.29089,6.055786 0.29088,3.027893 0.29089,-3.784867 0.29089,4.54184 0.29088,-3.784866 0.29089,2.27092 h 0.29089 l 0.29088,-6.81276 0.29089,6.81276 0.29089,-5.298813 0.58177,1.513946 0.29088,-1.513946 0.29089,2.270919 0.29089,-2.270919 0.29088,6.055786 0.29089,-1.513947 0.29089,1.513947 h 0.29088 l 0.29089,-1.513947 0.29088,3.027893 0.29089,-6.812759 0.29089,0.756973 0.29088,3.027893 h 0.58178 l 0.29088,-0.756973 0.29089,0.756973 0.29089,-3.784866 0.29088,-2.27092 0.29089,9.083679 0.29088,-2.270919 0.58178,-1.513947 0.29088,3.027893 0.58178,-3.784866 h 0.29088 l 0.58177,3.027893 0.29089,-4.54184 0.29089,2.27092 0.58177,-3.784866 0.29088,1.513946 h 0.29089 l 0.29089,0.756973 0.29088,-0.756973 0.29089,1.513947 0.29089,4.541839 0.29088,-3.784866 h 0.29089 l 0.29089,0.756973 0.29088,-3.027893 h 0.29089 l 0.29088,1.513947 h 0.29089 l 0.29089,-2.27092 0.29088,1.513946 0.29089,-3.027893 0.29089,3.027893 0.29088,1.513947 h 0.29089 l 0.29088,-6.055786 0.29089,3.784866 0.29089,2.27092 h 0.29088 l 0.29089,0.756973 0.29089,-1.513946 0.29088,4.541839 0.29089,-4.541839 0.58177,-3.027893 h 0.29089 l 0.29088,8.326706 0.58178,-10.597626 0.29088,6.055786 h 0.29089 l 0.29089,-6.055786 0.29088,3.784866 h 0.29089 l 0.29088,2.27092 0.29089,-0.756973 0.58177,3.027893 0.29089,-3.027893 0.29089,-5.298813 0.29088,6.812759 0.29089,0.756974 0.29089,-3.027894 0.29088,3.784867 0.29089,-2.27092 0.29089,-0.756973 0.29088,3.027893 h 0.29089 l 0.29088,-3.784867 0.29089,3.784867 0.29089,-5.298813 0.58177,4.54184 h 0.29089 l 0.29088,-4.54184 0.29089,3.784866 0.29088,-3.784866 0.29089,6.055786 0.29089,-2.27092 0.29088,-3.784866 0.29089,3.027893 0.29089,5.298813 h 0.29088 l 0.29089,-5.298813 0.29088,0.756973 0.29089,-2.27092 0.29089,0.756974 0.29088,-0.756974 0.29089,2.27092 0.29089,0.756974 0.29088,-5.298813 0.29089,0.756973 h 0.29089 l 0.29088,0.756973 0.58177,6.81276 0.29089,-0.756974 0.29089,-3.784866 0.29088,1.513947 0.29089,-1.513947 0.29089,-3.027893 h 0.29088 l 0.58177,3.784866 0.29089,-5.298813 0.58177,3.027893 0.29089,3.027894 h 0.29089 l 0.29088,-1.513947 0.29089,1.513947 0.29089,-0.756974 0.29088,-2.27092 0.29089,0.756974 h 0.29088 l 0.29089,0.756973 0.29089,-1.513947 0.29088,-0.756973 0.29089,-2.27092 0.29089,3.027893 h 0.29088 l 0.29089,0.756974 0.29088,-3.784867 0.29089,1.513947 0.29089,6.812759 0.58177,-3.784866 0.29089,-4.54184 0.29088,4.54184 0.29089,-2.27092 0.29088,-0.756973 0.29089,6.055786 0.29089,1.513947 0.58177,-9.08368 0.29089,6.055787 0.29088,-4.54184 0.29089,0.756973 0.29089,-0.756973 0.29088,3.027893 0.29089,-4.54184 0.29088,5.298813 0.58178,-3.027893 0.29088,1.513947 0.29089,-2.27092 0.29089,1.513946 0.29088,0.756974 0.29089,-0.756974 0.29088,-4.541839 0.29089,5.298813 0.29089,-3.027893 0.29088,6.055786 0.29089,-4.54184 0.29089,1.513947 h 0.29088 l 0.29089,-1.513947 0.29089,3.027893 0.29088,1.513947 0.29089,-1.513947 h 0.29088 l 0.29089,-4.541839 0.29089,3.027893 h 0.29088 l 0.29089,2.27092 0.29089,-1.513947 0.58177,-4.54184 0.58177,4.54184 0.29089,-4.54184 0.29088,0.756974 0.29089,3.027893 0.29089,-0.756974 0.29088,0.756974 h 0.29089 l 0.29089,0.756973 0.29088,-3.784866 h 0.29089 l 0.29088,3.784866 0.29089,-2.27092 h 0.29089 l 0.29088,-0.756973 0.29089,5.298813 0.29089,-1.513947 0.29088,3.027893 0.58177,-6.812759 0.58178,5.298813 0.29088,-3.784867 0.29089,1.513947 0.58177,-3.027893 0.29089,2.27092 0.29088,0.756973 0.29089,-3.027893 0.29089,1.513946 0.29088,-3.784866 0.29089,1.513947 0.29089,3.784866 0.29088,1.513947 0.29089,-3.027894 0.29088,0.756974 0.29089,-1.513947 0.29089,0.756973 0.29088,-2.270919 0.29089,3.784866 0.29089,-2.27092 h 0.29088 l 0.29089,-0.756973 0.29088,3.784866 0.29089,-3.027893 h 0.29089 l 0.29088,0.756973 0.29089,-4.541839 0.58177,3.027893 0.29089,-1.513947 0.29089,3.784867 0.58177,-4.54184 0.29088,5.298813 0.29089,-6.055786 0.29089,6.055786 h 0.58177 l 0.29089,-0.756973 0.29088,-3.784867 0.87266,6.055787 0.29089,-6.055787 0.29088,8.326706 0.29089,-11.354599 0.29089,4.54184 0.29088,-1.513947 0.29089,2.27092 h 0.58177 l 0.29089,2.27092 0.29088,-2.27092 0.29089,3.027893 0.29089,-6.812759 0.29088,8.326706 0.29089,-6.055786 0.29089,2.270919 0.29088,-3.027893 0.29089,0.756974 0.29088,-0.756974 0.29089,3.027893 0.29089,-3.027893 0.29088,2.27092 h 0.29089 l 0.29089,0.756973 0.29088,-2.270919 0.29089,1.513946 0.29088,-1.513946 0.29089,3.784866 0.29089,-5.298813 0.29088,0.756973 0.29089,1.513947 0.29089,0.756973 0.29088,-1.513946 0.29089,3.027893 0.29089,1.513946 0.29088,-2.27092 0.29089,1.513947 0.29088,-1.513947 0.29089,-2.270919 0.58177,3.784866 h 0.29089 l 0.87266,-6.812759 0.29088,6.055786 0.29089,1.513946 0.29089,-2.27092 0.29088,0.756974 0.29089,-3.784867 0.29089,5.298813 0.29088,0.756974 0.29089,-2.27092 0.29089,-3.784867 0.29088,2.27092 0.29089,6.055786 0.29088,-7.569732 0.29089,-0.756974 0.29089,3.784867 0.29088,0.756973 0.58178,-6.055786 0.29088,3.784866 0.58177,1.513947 0.29089,-2.27092 0.29089,-0.756973 0.29088,3.784866 0.29089,2.27092 0.29089,-7.569733 0.29088,1.513947 0.29089,3.027893 0.29088,-4.54184 0.29089,-1.513946 0.29089,4.541839 0.29088,-1.513946 0.29089,-0.756974 0.58177,4.54184 0.29089,-5.298813 0.29089,2.27092 0.29088,-0.756973 h 0.29089 l 0.29088,1.513946 0.29089,3.784867 0.29089,-0.756974 0.29088,-5.298813 0.29089,-1.513946 0.29089,3.027893 0.29088,4.54184 0.29089,-2.27092 0.58177,-1.513947 0.29089,2.27092 0.29088,-2.27092 0.58178,1.513947 0.29088,-2.27092 0.29089,2.27092 0.29089,-2.27092 0.29088,-0.756973 0.29089,4.541839 0.29088,1.513947 0.29089,-8.326706 0.29089,3.027893 h 0.29088 l 0.29089,3.027893 0.29089,1.513947 0.29088,-3.784867 0.29089,-1.513946 0.29088,1.513946 h 0.29089 l 0.29089,-4.541839 0.29088,4.541839 0.29089,-3.027893 0.29089,-1.513946 0.29088,4.541839 0.29089,-0.756973 0.29089,1.513946 0.29088,3.784867 0.29089,-4.54184 0.29088,-0.756973 0.29089,-2.27092 0.29089,2.27092 0.29088,0.756973 0.29089,-1.513946 0.29089,3.784866 0.29088,-3.027893 0.29089,-1.513947 0.29088,5.298813 0.29089,-3.027893 h 0.29089 l 0.29088,0.756973 0.29089,-2.270919 0.29089,3.784866 0.29088,-0.756973 0.29089,-3.784867 0.29088,0.756974 0.29089,3.027893 0.29089,-2.27092 h 0.58177 l 0.29089,3.784866 0.29088,-2.27092 0.29089,-0.756973 0.29089,-2.27092 0.29088,3.027893 0.29089,-4.541839 0.29088,6.055786 0.29089,3.027893 0.29089,-5.298813 0.29088,-2.27092 0.29089,-0.756973 0.29089,1.513947 0.29088,3.027893 0.58178,-5.298813 0.29088,4.541839 h 0.29089 l 0.29088,-5.298812 0.29089,3.784866 0.29089,2.27092 0.29088,-1.513947 0.29089,-6.812759 0.29089,3.784866 0.29088,1.513947 0.29089,-4.54184 0.29089,3.784866 0.29088,1.513947 0.29089,7.569733 0.29088,-7.569733 h 0.29089 l 0.29089,-2.27092 0.29088,2.27092 h 0.29089 l 0.29089,0.756973 0.29088,4.54184 0.29089,-6.81276 0.87266,2.27092 0.29088,-0.756973 h 0.58178 l 0.29088,3.027893 0.29089,-3.784866 0.29088,-1.513947 0.58178,3.027893 h 0.29088 l 0.29089,-3.784866 0.29089,5.298813 0.29088,-1.513947 0.29089,1.513947 h 0.29089 l 0.29088,-4.54184 0.29089,-0.756973 0.29088,0.756973 0.58178,6.81276 0.29088,-3.027894 0.29089,1.513947 0.29089,-2.27092 h 0.29088 l 0.29089,-0.756973 0.29088,-3.784866 0.58178,5.298812 0.29088,-2.270919 0.29089,1.513946 0.29089,0.756973 h 0.29088 l 0.29089,-1.513946 h 0.29089 l 0.58177,1.513946 0.29088,-3.784866 0.29089,-1.513946 0.29089,3.784866 0.29088,0.756973 0.29089,-1.513946 0.29089,3.027893 0.29088,-3.784867 0.29089,-2.270919 0.29088,3.784866 0.29089,-1.513947 0.29089,2.27092 h 0.29088 l 0.29089,-1.513946 0.29089,0.756973 0.29088,2.27092 h 0.29089 l 0.58177,-3.784867 0.29089,-1.513946 h 0.29088 l 0.29089,3.784866 0.29089,0.756973 h 0.29088 l 0.29089,-3.784866 0.29089,2.27092 h 0.29088 l 0.29089,-1.513947 h 0.29088 l 0.29089,3.784867 0.29089,-6.81276 0.29088,1.513947 0.29089,3.784866 0.29089,-1.513946 0.29088,-0.756974 0.29089,3.784867 0.29088,-5.298813 0.29089,3.784866 0.29089,-3.027893 0.58177,1.513947 0.29089,3.784866 h 0.29088 l 0.29089,-3.784866 0.29089,1.513946 0.29088,-4.541839 0.58177,5.298812 0.29089,-1.513946 h 0.29089 l 0.29088,1.513946 0.58178,-3.027893 0.29088,3.027893 0.29089,0.756974 0.29088,-5.298813 0.29089,1.513946 0.58177,-1.513946 h 0.29089 l 0.29089,4.541839 0.29088,-3.784866 0.29089,3.027893 0.29088,-0.756973 0.29089,-1.513947 0.58177,3.784867 0.29089,-1.513947 0.29089,-3.027893 h 0.29088 l 0.29089,1.513947 0.29088,0.756973 0.29089,4.54184 0.29089,-7.569733 0.29088,2.27092 0.29089,-0.756974 0.29089,3.027893 0.29088,-0.756973 0.29089,-3.784866 0.29089,4.541839 0.29088,-0.756973 0.29089,-4.541839 0.29088,5.298812 0.29089,-3.027893 h 0.29089 l 0.29088,3.027893 0.29089,-0.756973 0.58177,1.513947 0.29089,-6.055786 0.29088,3.027893 0.29089,-0.756974 0.29089,1.513947 0.29088,0.756973 0.29089,-3.027893 0.29089,2.27092 h 0.29088 l 0.29089,-4.54184 0.29088,0.756974 0.58178,7.569732 0.29088,-6.055786 0.29089,2.27092 h 0.29089 l 0.29088,-0.756973 0.29089,1.513946 0.29089,0.756973 0.29088,3.027894 0.29089,-4.54184 0.29088,3.784866 0.29089,-6.812759 0.58177,3.027893 0.29089,3.784866 0.29089,-6.812759 0.29088,4.541839 0.29089,-0.756973 0.58177,-3.784866 0.58177,3.027893 0.29089,-0.756973 0.29089,0.756973 h 0.29088 l 0.29089,-2.27092 0.29089,3.027893 0.29088,-3.784866 h 0.29089 l 0.29088,2.27092 0.29089,-0.756974 v 0"
           style="fill:none;stroke:#1f77b4;stroke-width:1.5;stroke-linecap:square"
           id="path170" />
      </g>
      <g
         id="line2d_18">
        <path
           clip-path="url(#p5f8690a728)"
           d="m 94.465909,245.63734 0.290886,-6.81275 0.290887,-2.27092 h 0.290886 l 0.290886,-49.96026 0.290887,31.7929 0.290886,-38.60566 0.290886,-6.81276 0.290887,-15.89644 0.290886,11.3546 0.290886,2.27092 0.290886,-6.81276 0.290887,-2.27092 0.290886,-13.62552 0.290886,-2.27092 0.290887,4.54184 h 0.290886 l 0.290886,-4.54184 0.290887,6.81276 0.581777,-15.89644 0.29088,2.27092 0.29089,-4.54184 0.29088,4.54184 0.29089,-9.08368 0.29089,2.27092 0.29088,6.81276 0.29089,-13.62552 0.29089,2.27092 0.29088,-4.54184 0.29089,2.27092 h 0.29088 l 0.29089,4.54184 0.29089,-4.54184 0.29088,4.54184 0.29089,-4.54184 0.29089,-2.27092 0.29088,2.27092 h 0.29089 l 0.58177,4.54184 0.29089,-4.54184 0.29088,-9.08368 0.29089,9.08368 0.29089,-6.81276 0.29088,4.54184 0.29089,-11.3546 0.58177,11.3546 0.29089,-13.62552 0.29088,11.3546 0.58178,-9.08368 0.29088,2.27092 0.29089,4.54184 0.29089,-9.08368 0.29088,2.27092 0.29089,-4.54184 0.58177,-4.54184 0.29089,6.81276 0.29088,-9.08368 0.29089,6.81276 0.29089,-11.354597 0.58177,11.354597 1.16354,-9.083677 h 0.58178 l 0.29088,-4.541864 0.58178,4.541864 0.58177,-4.541864 0.29088,2.270944 0.29089,-2.270944 h 0.29089 l 0.29088,-2.27092 0.29089,6.812784 0.29089,-6.812784 0.29088,-2.270919 0.29089,4.541839 0.29088,-2.27092 0.29089,4.541864 0.29089,-6.812783 0.29088,2.270919 0.29089,-2.270919 h 0.29089 l 0.29088,13.62554 0.29089,-9.083701 0.29089,4.541864 h 0.29088 l 0.29089,-9.083703 0.29089,2.270919 0.29088,4.541864 0.29089,-4.541864 h 0.29088 l 0.29089,-2.270919 0.29089,9.083703 0.29088,-6.812784 0.29089,-2.270919 0.58177,4.541839 h 0.29089 l 0.29088,-2.27092 h 0.29089 l 0.29089,4.541864 0.29088,-6.812783 0.29089,4.541839 h 0.29089 l 0.29088,-2.27092 0.29089,2.27092 0.29088,-2.27092 h 0.29089 l 0.29089,-2.270919 0.29088,4.541839 0.29089,-2.27092 0.29089,2.27092 0.29088,-4.541839 0.29089,4.541839 h 0.29088 l 0.29089,-2.27092 0.29089,2.27092 h 0.58177 l 0.29089,-2.27092 0.29088,2.27092 h 0.58177 l 0.29089,-2.27092 0.29089,2.27092 0.29088,-2.27092 h 0.58178 l 0.29088,2.27092 0.29089,-2.27092 h 0.87266 l 0.29088,-2.270919 h 0.29089 l 0.29089,2.270919 h 0.58177 l 0.29089,-2.270919 h 0.29088 l 0.29089,2.270919 0.29088,-2.270919 0.29089,2.270919 0.29089,-2.270919 h 0.29088 l 0.29089,2.270919 h 0.58177 l 0.29089,-2.270919 h 0.58177 l 0.29089,4.541839 0.29088,-4.541839 h 0.58178 l 0.58177,4.541839 0.29089,-4.541839 h 3.19974 l 0.29089,2.270919 0.29089,-2.270919 h 0.29088 l 0.29089,2.270919 0.29089,-2.270919 0.29088,2.270919 0.29089,-2.270919 0.29089,2.270919 0.29088,-2.270919 0.29089,2.270919 0.29088,-4.541839 0.29089,2.27092 h 0.58177 l 0.29089,-2.27092 0.29089,2.27092 0.29088,-2.27092 0.29089,4.541839 h 0.29088 l 0.29089,-4.541839 0.29089,4.541839 h 0.29088 l 0.29089,-4.541839 h 0.29089 l 0.29088,4.541839 h 0.29089 l 0.29089,-2.270919 0.29088,2.270919 0.29089,-4.541839 0.29088,4.541839 0.29089,-4.541839 0.29089,2.27092 h 0.58177 l 0.29089,-2.27092 0.29088,4.541839 0.29089,-2.270919 h 0.29088 l 0.29089,-2.27092 0.58177,4.541839 0.29089,-4.541839 h 0.29089 l 0.29088,2.27092 0.29089,-2.27092 h 0.29088 l 0.29089,2.27092 h 0.58177 l 0.29089,-4.54184 0.29089,2.27092 h 0.29088 l 0.29089,2.27092 0.29089,-2.27092 0.29088,2.27092 0.29089,-2.27092 0.29089,2.27092 0.29088,-2.27092 0.29089,4.541839 0.29088,-6.812759 0.29089,4.54184 h 0.29089 l 0.58177,-4.54184 0.29088,2.27092 h 0.29089 l 0.29089,4.541839 0.29088,-4.541839 0.29089,2.27092 0.29089,-2.27092 h 0.29088 l 0.29089,-2.27092 0.29089,4.54184 h 0.58177 l 0.29088,-4.54184 0.29089,2.27092 h 0.29089 l 0.29088,2.27092 0.29089,-2.27092 h 0.29089 l 0.29088,4.541839 0.29089,-6.812759 0.29088,4.54184 0.29089,-4.54184 0.29089,4.54184 0.29088,-2.27092 h 0.29089 l 0.29089,-2.27092 0.29088,2.27092 0.29089,-2.27092 0.58177,4.54184 0.58177,-4.54184 h 0.29089 l 0.58177,4.54184 0.29089,-4.54184 0.29089,4.54184 0.29088,-4.54184 h 0.87266 l 0.58177,4.54184 0.58178,-4.54184 h 0.29088 l 0.29089,4.54184 0.29088,-4.54184 h 0.58178 l 0.29088,2.27092 0.29089,-2.27092 0.29089,2.27092 0.29088,-2.27092 h 2.61798 l 0.29089,2.27092 h 0.29088 l 0.29089,-2.27092 0.29088,2.27092 0.29089,-2.27092 0.29089,2.27092 0.29088,-2.27092 h 3.78153 l 0.29088,-2.27092 0.29089,2.27092 h 1.45443 l 0.29089,-2.27092 0.29088,2.27092 h 1.16355 l 0.29088,-2.27092 0.29089,2.27092 0.29089,-2.27092 0.29088,2.27092 h 1.16355 l 0.29088,-2.27092 h 0.58178 l 0.29088,2.27092 h 0.29089 l 0.29089,-2.27092 h 0.58177 l 0.29088,2.27092 h 0.29089 l 0.29089,-2.27092 h 0.29088 l 0.29089,2.27092 0.29089,-2.27092 h 0.29088 l 0.29089,2.27092 0.29089,-2.27092 0.29088,2.27092 h 0.29089 l 0.29088,-2.27092 0.29089,2.27092 0.29089,-2.27092 h 0.58177 l 0.29089,2.27092 0.29088,-2.27092 0.29089,2.27092 0.29088,-2.27092 h 0.29089 l 0.29089,2.27092 0.29088,-2.27092 h 1.16355 l 0.29089,2.27092 0.29088,-2.27092 0.29089,2.27092 h 0.29088 l 0.29089,-2.27092 h 0.87266 l 0.29089,2.27092 h 0.29088 l 0.29089,-2.27092 h 0.87266 l 0.29088,4.54184 0.29089,-4.54184 h 1.45443 l 0.29089,2.27092 0.58177,-4.54184 0.29089,2.27092 h 0.87266 l 0.29088,-2.27092 0.29089,2.27092 0.29088,-2.27092 0.29089,2.27092 h 0.58177 l 0.29089,-2.27092 h 0.29089 l 0.29088,2.27092 h 1.74532 l 0.29089,-2.27092 0.29088,2.27092 h 0.29089 l 0.29089,-2.27092 0.29088,2.27092 0.29089,-2.27092 0.29088,2.27092 h 0.58178 l 0.29088,-2.27092 h 0.58178 l 0.29088,2.27092 0.29089,-2.27092 h 0.29088 l 0.29089,2.27092 h 0.29089 l 0.29088,-2.27092 h 0.29089 l 0.29089,2.27092 h 0.29088 l 0.29089,-2.27092 h 0.29089 l 0.29088,2.27092 0.29089,-2.27092 0.29088,2.27092 0.29089,-2.27092 h 0.29089 l 0.29088,-2.27092 0.29089,4.54184 h 0.29089 l 0.29088,-2.27092 0.29089,2.27092 h 0.29088 l 0.29089,-2.27092 h 0.58177 l 0.29089,2.27092 0.29089,-2.27092 0.29088,2.27092 0.29089,-2.27092 h 0.58177 l 0.29089,2.27092 0.29088,-2.27092 h 0.58178 l 0.29088,2.27092 0.29089,-2.27092 h 0.58177 l 0.29089,2.27092 h 0.29089 l 0.29088,-4.54184 0.29089,4.54184 0.58177,-4.54184 0.29089,4.54184 0.29088,-4.54184 0.29089,4.54184 h 0.58177 l 0.29089,-2.27092 h 0.29088 l 0.29089,2.27092 h 0.29089 l 0.29088,-2.27092 h 0.29089 l 0.29089,-2.27092 h 0.29088 l 0.29089,4.54184 0.29088,-4.54184 h 0.87266 l 0.29089,2.27092 h 0.29089 l 0.29088,-2.27092 0.29089,4.54184 h 0.29088 l 0.29089,-4.54184 h 0.58177 l 0.29089,2.27092 0.29089,-2.27092 h 0.87265 l 0.29089,4.54184 0.29089,-4.54184 h 0.29088 l 0.29089,2.27092 0.58177,-4.541839 0.29089,2.270919 0.29089,4.54184 0.29088,-4.54184 h 0.29089 l 0.29088,2.27092 0.29089,-2.27092 0.29089,2.27092 0.29088,-2.27092 h 1.16355 l 0.29088,-2.270919 0.29089,2.270919 0.29089,-2.270919 0.29088,6.812759 0.29089,-4.54184 0.29089,-2.270919 0.29088,2.270919 h 0.29089 l 0.29089,-2.270919 h 0.29088 l 0.29089,2.270919 h 0.29088 l 0.29089,-2.270919 0.29089,4.541839 0.29088,-4.541839 h 0.58178 l 0.29088,2.270919 h 0.29089 l 0.29088,-2.270919 h 0.29089 l 0.29089,-2.27092 0.29088,2.27092 h 0.87266 l 0.29089,-2.27092 0.29089,2.27092 0.29088,-2.27092 h 0.87266 l 0.29089,2.27092 0.29088,-4.54184 0.29089,2.27092 h 0.87266 l 0.29088,-2.27092 0.29089,6.812759 0.29089,-6.812759 0.29088,2.27092 0.29089,-2.27092 0.29089,2.27092 0.29088,-4.54184 0.29089,2.27092 h 0.58177 l 0.29089,2.27092 0.29088,-2.27092 h 0.29089 l 0.29089,-2.27092 h 0.29088 l 0.29089,2.27092 h 0.87266 l 0.29088,-2.27092 0.29089,2.27092 0.29089,-2.27092 0.29088,2.27092 0.29089,-2.27092 h 0.29089 l 0.29088,2.27092 0.29089,-2.27092 0.29088,2.27092 h 0.58178 l 0.29088,-2.27092 0.29089,2.27092 0.29089,-2.27092 h 0.58177 l 0.29089,2.27092 0.29088,-2.27092 0.29089,2.27092 0.29089,-2.27092 h 0.29088 l 0.29089,2.27092 0.29088,-2.27092 0.29089,2.27092 h 0.29089 l 0.29088,-2.27092 0.29089,2.27092 h 0.29089 l 0.58177,-4.54184 0.29088,2.27092 h 1.16355 l 0.29089,2.27092 0.29088,-2.27092 h 0.87266 l 0.29089,-2.27092 0.29088,2.27092 h 1.45444 l 0.29088,2.27092 0.29089,-2.27092 h 1.74532 l 0.29088,-2.27092 0.29089,4.54184 0.58177,-4.54184 h 0.29089 l 0.29088,2.27092 0.29089,-2.27092 0.29089,2.27092 0.29088,-2.27092 0.29089,2.27092 h 0.29088 l 0.29089,-2.27092 0.29089,2.27092 0.29088,-2.27092 0.29089,2.27092 0.29089,-2.27092 0.29088,2.27092 0.29089,-2.27092 h 0.29088 l 0.29089,2.27092 h 0.29089 l 0.29088,-2.27092 h 0.29089 l 0.29089,2.27092 0.29088,-2.27092 h 0.29089 l 0.29089,2.27092 0.29088,-4.54184 0.29089,2.27092 h 0.29088 l 0.29089,2.27092 0.29089,-2.27092 h 0.87266 l 0.29088,2.27092 h 0.29089 l 0.29088,-2.27092 h 0.58178 l 0.29088,-2.27092 0.58178,4.54184 0.29088,-4.54184 0.29089,4.54184 0.29088,-2.27092 h 0.87266 l 0.29089,2.27092 h 0.29089 l 0.29088,-2.27092 h 1.74532 l 0.29089,-2.27092 0.29088,2.27092 0.29089,-2.27092 h 0.29089 l 0.29088,2.27092 0.29089,-2.27092 0.29088,2.27092 h 0.58178 l 0.29088,-4.541839 0.29089,2.270919 0.29089,-2.270919 0.29088,4.541839 0.29089,-2.27092 0.29089,2.27092 h 0.58177 l 0.29088,-4.541839 0.58178,4.541839 0.29088,-2.27092 0.29089,2.27092 h 0.29089 l 0.29088,-2.27092 0.29089,2.27092 0.29088,-2.27092 h 0.87266 l 0.29089,2.27092 0.58177,-4.541839 0.29089,2.270919 0.29089,-2.270919 0.29088,2.270919 h 0.29089 l 0.29088,-2.270919 0.29089,2.270919 h 0.29089 l 0.29088,-4.541839 0.29089,4.541839 0.29089,-2.270919 0.29088,2.270919 h 0.29089 l 0.29088,-2.270919 0.29089,4.541839 0.29089,-4.541839 0.58177,4.541839 0.29089,-4.541839 0.58177,4.541839 0.29088,-4.541839 0.29089,2.270919 0.29089,-2.270919 h 0.58177 l 0.29089,2.270919 0.29088,-4.541839 0.29089,4.541839 0.29089,-2.270919 0.29088,2.270919 0.29089,-2.270919 h 1.16354 l 0.29089,-2.27092 0.29089,2.27092 h 0.58177 l 0.29089,2.270919 0.29088,-2.270919 h 0.29089 l 0.29088,2.270919 h 0.29089 l 0.29089,-2.270919 h 2.61797 l 0.29089,-2.27092 0.29089,2.27092 0.29088,-2.27092 h 0.58178 l 0.29088,4.541839 h 0.29089 l 0.29088,-2.270919 h 0.87266 l 0.29089,6.812759 0.29089,-6.812759 h 0.29088 l 0.29089,-2.27092 0.29088,2.27092 h 0.29089 l 0.29089,-2.27092 0.29088,2.27092 0.29089,-2.27092 0.29089,2.27092 0.29088,-2.27092 0.29089,2.27092 h 0.58177 l 0.29089,-2.27092 h 0.29088 l 0.29089,4.541839 0.29089,-2.270919 h 0.58177 l 0.29088,-2.27092 0.29089,4.541839 h 0.29089 l 0.29088,-4.541839 h 0.29089 l 0.29089,2.27092 h 0.29088 l 0.29089,-2.27092 h 1.45443 l 0.29089,2.27092 0.29088,-2.27092 h 2.32709 l 0.29089,-2.27092 0.29089,2.27092 h 0.29088 l 0.29089,-2.27092 0.58177,4.54184 h 0.29089 l 0.29088,-4.54184 h 0.29089 l 0.29089,2.27092 h 1.16354 l 0.29089,-2.27092 h 0.29088 l 0.29089,2.27092 0.29089,-2.27092 h 0.87266 l 0.29088,2.27092 h 1.45443 l 0.29089,-2.27092 h 0.29089 l 0.58177,4.54184 0.29089,-4.54184 0.29088,2.27092 h 0.87266 l 0.29089,2.27092 0.58177,-4.54184 0.29089,2.27092 h 0.29088 l 0.29089,-2.27092 h 0.58177 l 0.29089,4.54184 0.29088,-4.54184 0.29089,4.54184 0.29089,-4.54184 0.29088,2.27092 h 1.16355 l 0.29088,-2.27092 h 0.58178 l 0.29088,2.27092 0.29089,-2.27092 h 0.29089 l 0.29088,2.27092 0.29089,-2.27092 h 0.29088 l 0.29089,2.27092 h 0.58177 l 0.29089,-2.27092 0.29089,4.54184 0.58177,-4.54184 0.29089,2.27092 0.29088,-2.27092 0.29089,2.27092 0.29088,-2.27092 h 0.58178 l 0.29088,6.812759 0.29089,-2.270919 0.29089,-4.54184 h 0.87266 l 0.29088,2.27092 h 0.29089 l 0.29088,-2.27092 h 0.29089 l 0.29089,2.27092 0.29088,-2.27092 0.29089,2.27092 h 0.29089 l 0.29088,-2.27092 h 0.29089 l 0.29088,6.812759 0.29089,-6.812759 0.29089,2.27092 0.29088,-2.27092 0.29089,6.812759 0.29089,-6.812759 0.29088,2.27092 0.29089,-2.27092 0.29089,2.27092 0.29088,4.541839 0.29089,-6.812759 h 0.29088 l 0.29089,4.54184 h 0.29089 l 0.29088,-4.54184 h 1.74532 l 0.29089,2.27092 0.29088,-2.27092 h 2.03621 l 0.29088,2.27092 0.29089,-2.27092 h 1.16354 l 0.29089,2.27092 0.29089,-2.27092 h 2.32709 l 0.29088,6.812759 0.29089,-6.812759 h 0.29089 l 0.29088,6.812759 0.29089,-6.812759 0.29089,2.27092 0.29088,-2.27092 h 1.16355 l 0.29088,6.812759 0.29089,-6.812759 h 1.45443 l 0.29089,2.27092 h 0.29088 l 0.29089,-2.27092 0.29089,2.27092 0.29088,-2.27092 h 0.58178 l 0.29088,2.27092 h 0.29089 l 0.29088,-2.27092 h 0.87266 l 0.29089,2.27092 h 0.29089 l 0.29088,-2.27092 h 0.29089 l 0.29088,6.812759 0.29089,-6.812759 h 0.58177 l 0.29089,2.27092 0.29089,-2.27092 h 0.29088 l 0.29089,4.54184 0.29089,-4.54184 0.29088,2.27092 h 0.29089 l 0.29088,-2.27092 h 0.87266 l 0.29089,2.27092 0.29089,-2.27092 h 1.45443 l 0.29088,6.812759 0.29089,-4.541839 h 0.29089 l 0.29088,-2.27092 0.29089,6.812759 0.29088,-6.812759 h 0.29089 l 0.29089,2.27092 0.29088,-2.27092 h 0.87266 l 0.29089,2.27092 0.29089,-2.27092 0.29088,2.27092 h 0.29089 l 0.29088,-2.27092 0.29089,2.27092 0.29089,4.541839 0.29088,-4.541839 0.29089,-2.27092 h 0.87266 l 0.29088,2.27092 h 0.29089 l 0.29089,-2.27092 h 0.58177 l 0.29089,6.812759 0.29088,-6.812759 h 0.29089 l 0.29089,4.54184 0.58177,-4.54184 h 2.32709 l 0.29088,4.54184 0.29089,-4.54184 h 0.29089 l 0.29088,4.54184 0.29089,-4.54184 h 0.29089 l 0.58177,4.54184 0.58177,-4.54184 h 0.87266 l 0.29089,2.27092 0.29088,-2.27092 h 2.03621 l 0.29088,2.27092 0.29089,-2.27092 0.58177,4.54184 0.29089,-4.54184 0.29089,4.54184 0.58177,-4.54184 h 0.29088 l 0.29089,2.27092 h 0.29089 l 0.29088,-2.27092 h 0.58178 l 0.29088,6.812759 0.29089,-6.812759 h 0.58177 l 0.29089,2.27092 h 0.29088 l 0.29089,-2.27092 0.29089,2.27092 h 0.29088 l 0.29089,-2.27092 h 0.87266 l 0.29088,2.27092 h 0.58178 l 0.29088,-2.27092 h 0.58178 l 0.29088,2.27092 0.29089,-2.27092 h 1.45443 l 0.58177,4.54184 0.58177,-4.54184 h 1.45444 l 0.29088,2.27092 h 0.29089 l 0.29088,-2.27092 h 0.29089 l 0.29089,2.27092 0.29088,-2.27092 h 0.29089 l 0.29089,2.27092 0.29088,-2.27092 h 1.16355 l 0.29088,2.27092 0.29089,-2.27092 h 0.58177 l 0.29089,4.54184 0.29089,-4.54184 0.29088,2.27092 h 0.58177 l 0.29089,-2.27092 h 0.29089 l 0.29088,2.27092 h 0.58178 l 0.29088,-2.27092 0.29089,2.27092 0.29089,-2.27092 0.29088,2.27092 0.29089,-2.27092 0.29088,2.27092 h 0.58178 l 0.29088,2.27092 0.29089,-4.54184 0.29089,2.27092 0.29088,-2.27092 h 0.58177 l 0.29089,2.27092 h 0.58177 l 0.29089,-2.27092 h 0.29089 l 0.29088,2.27092 h 0.58178 l 0.29088,-2.27092 0.29089,2.27092 0.29088,-2.27092 h 0.29089 l 0.29089,2.27092 0.29088,-2.27092 h 0.29089 l 0.29089,2.27092 0.29088,-2.27092 0.29089,2.27092 0.29088,-2.27092 h 0.29089 l 0.29089,2.27092 h 0.87266 l 0.29088,-2.27092 0.29089,2.27092 h 0.58177 l 0.29089,-2.27092 h 2.61797 l 0.29089,2.27092 0.29089,-2.27092 h 0.58177 l 0.29089,2.27092 0.29088,-2.27092 h 0.29089 l 0.29088,2.27092 h 0.29089 l 0.29089,-2.27092 0.29088,2.27092 h 0.87266 l 0.29089,-2.27092 h 0.58177 l 0.29089,4.54184 0.29089,-2.27092 h 0.29088 l 0.29089,-2.27092 0.29088,2.27092 h 0.58178 l 0.29088,-2.27092 h 0.58178 l 0.29088,2.27092 0.29089,-2.27092 0.29088,2.27092 H 460.11 l 0.29088,-2.27092 0.29089,2.27092 h 0.58177 l 0.29089,-2.27092 h 0.29088 l 0.29089,2.27092 h 0.58177 l 0.58178,-4.54184 0.29088,2.27092 h 0.29089 l 0.29089,2.27092 0.29088,-2.27092 h 0.29089 l 0.29088,2.27092 0.29089,-2.27092 h 1.16355 l 0.29088,2.27092 0.29089,-2.27092 h 0.58177 l 0.29089,2.27092 h 0.58177 l 0.29089,-2.27092 h 0.29088 l 0.29089,2.27092 h 0.29088 l 0.29089,-2.27092 0.29089,2.27092 h 0.29088 l 0.29089,-2.27092 h 0.58177 l 0.29089,2.27092 h 0.29088 l 0.29089,-2.27092 0.29089,2.27092 0.29088,-2.27092 h 0.29089 l 0.29089,2.27092 0.29088,-2.27092 h 1.45443 l 0.29089,2.27092 0.29089,-2.27092 h 0.29088 l 0.29089,2.27092 0.29089,-2.27092 0.29088,2.27092 0.29089,-2.27092 h 0.29088 l 0.29089,2.27092 0.29089,-2.27092 h 0.29088 l 0.29089,2.27092 h 0.58177 l 0.29089,-2.27092 h 1.74532 l 0.29088,2.27092 0.29089,-2.27092 h 0.87266 l 0.29088,2.27092 0.29089,-2.27092 h 2.61798 l 0.29088,2.27092 0.29089,-2.27092 0.29089,2.27092 h 0.29088 l 0.29089,-2.27092 0.29089,2.27092 0.29088,-2.27092 h 0.87266 l 0.29089,2.27092 h 0.29088 l 0.29089,-2.27092 h 0.29089 l 0.29088,2.27092 0.29089,-2.27092 h 0.58177 l 0.29089,2.27092 0.29088,-2.27092 h 0.87266 l 0.29089,2.27092 0.29089,-2.27092 h 1.16354 l 0.29089,-2.27092 0.58177,4.54184 0.29089,-2.27092 h 1.74531 l 0.29089,2.27092 0.29089,-2.27092 h 0.29088 l 0.29089,2.27092 0.29088,-4.54184 0.29089,4.54184 0.29089,-2.27092 h 1.45443 l 0.29089,2.27092 h 0.29088 l 0.29089,-2.27092 h 0.87266 l 0.29088,2.27092 0.29089,-2.27092 h 0.58177 l 0.29089,-2.27092 0.29089,4.54184 0.29088,-2.27092 h 0.58177 l 0.29089,2.27092 0.29089,-2.27092 0.29088,2.27092 0.29089,-2.27092 0.29089,2.27092 0.29088,-2.27092 0.29089,2.27092 0.29089,-2.27092 0.29088,2.27092 h 0.29089 l 0.29088,-2.27092 h 0.29089 l 0.29089,2.27092 0.29088,-2.27092 h 2.03621 l 0.29088,-2.27092 0.29089,2.27092 h 0.29088 l 0.29089,2.27092 0.29089,-2.27092 0.29088,2.27092 0.29089,-2.27092 h 0.87266 l 0.29089,2.27092 0.29088,-2.27092 h 1.16355 l 0.29088,2.27092 0.29089,-2.27092 h 1.16354 l 0.29089,2.27092 0.29089,-2.27092 h 0.29088 l 0.29089,2.27092 0.29089,-2.27092 h 0.29088 l 0.29089,2.27092 h 0.29089 l 0.29088,-2.27092 h 1.16355 l 0.29088,2.27092 0.29089,-2.27092 h 1.16354 l 0.29089,2.27092 0.29089,-2.27092 h 3.49063 l 0.29089,2.27092 h 0.29089 l 0.29088,-2.27092 h 0.87266 l 0.29089,2.27092 h 0.29088 l 0.29089,-2.27092 h 0.29089 l 0.29088,-2.27092 0.29089,4.54184 0.29089,-2.27092 h 0.29088 l 0.29089,2.27092 0.29088,-2.27092 h 0.29089 l 0.29089,-2.27092 0.29088,2.27092 h 0.58178 l 0.29088,-2.27092 0.58178,4.54184 0.29088,-2.27092 h 1.16355 l 0.29088,2.27092 0.29089,-2.27092 0.29089,2.27092 0.29088,-2.27092 h 1.74532 l 0.29089,2.27092 h 0.58177 l 0.29089,-2.27092 0.29088,2.27092 0.29089,-2.27092 h 0.58177 l 0.29089,2.27092 0.29088,-4.54184 0.29089,2.27092 h 1.45443 l 0.29089,-2.27092 0.29088,2.27092 h 0.58178 l 0.29088,-2.27092 0.29089,2.27092 h 0.29088 l 0.29089,-2.27092 0.29089,2.27092 h 0.58177 l 0.29089,-2.27092 0.29088,2.27092 h 0.29089 l 0.29089,-2.27092 0.29088,2.27092 h 0.87266 l 0.29089,-2.27092 0.29088,2.27092 h 2.03621 l 0.29088,2.27092 0.29089,-2.27092 h 0.58177 l 0.29089,2.27092 0.29089,-2.27092 h 1.16354 l 0.29089,-2.27092 0.29088,2.27092 h 0.58178 l 0.29088,-2.27092 0.58177,4.54184 0.29089,-2.27092 h 0.58177 l 0.29089,-2.27092 h 0.29089 l 0.29088,2.27092 h 0.29089 l 0.29089,-2.27092 0.29088,2.27092 h 0.87266 l 0.29089,-2.27092 0.29088,2.27092 h 0.58178 l 0.29088,-2.27092 0.29089,2.27092 h 1.74531 l 0.29089,-2.27092 0.29089,2.27092 h 0.29088 l 0.29089,-2.27092 h 0.58177 l 0.29089,2.27092 0.29089,-2.27092 0.29088,2.27092 0.29089,-2.27092 h 0.58177 l 0.29089,2.27092 0.29088,-2.27092 0.29089,2.27092 h 0.87266 l 0.29088,-2.27092 0.29089,2.27092 h 0.29089 l 0.29088,-2.27092 0.58178,4.54184 0.29088,-2.27092 h 2.03621 l 0.29088,-2.27092 h 0.29089 l 0.29089,2.27092 h 1.45443 l 0.29088,-2.27092 h 0.29089 l 0.29089,2.27092 h 0.29088 l 0.29089,-2.27092 0.29089,2.27092 h 0.58177 l 0.29088,2.27092 0.29089,-4.54184 0.29089,2.27092 h 0.58177 l 0.29089,-2.27092 0.29088,2.27092 h 1.16355 l 0.29088,-2.27092 h 0.29089 l 0.29089,2.27092 0.29088,-2.27092 0.29089,2.27092 h 0.87266 l 0.29088,-2.27092 0.29089,4.54184 0.29089,-2.27092 h 1.45443 l 0.29088,-2.27092 0.29089,2.27092 h 0.87266 l 0.29089,-2.27092 0.29088,2.27092 0.29089,-2.27092 0.29088,2.27092 h 0.29089 l 0.29089,-2.27092 0.29088,2.27092 0.29089,-2.27092 h 2.0362 l 0.29089,2.27092 h 0.29089 l 0.29088,-2.27092 0.29089,2.27092 0.29089,-2.27092 0.29088,2.27092 h 2.03621 l 0.29088,2.27092 0.29089,-2.27092 h 0.58177 l 0.29089,-2.27092 h 0.29088 l 0.29089,2.27092 0.29089,-2.27092 0.29088,2.27092 0.29089,-2.27092 0.29089,2.27092 0.29088,-2.27092 h 0.29089 l 0.29088,2.27092 0.29089,-2.27092 h 0.29089 l 0.29088,2.27092 h 1.16355 l 0.29088,-2.27092 h 0.87266 l 0.29089,2.27092 h 0.29089 l 0.29088,-2.27092 h 0.58178 l 0.29088,4.54184 0.29089,-2.27092 h 0.29088 l 0.29089,2.27092 0.58177,-4.54184 h 0.58178 l 0.29088,2.27092 0.29089,-2.27092 0.29088,2.27092 h 0.29089 l 0.29089,-2.27092 h 0.87266 l 0.29088,2.27092 h 0.58178 l 0.29088,-2.27092 0.29089,4.54184 0.29088,-4.54184 h 0.29089 l 0.29089,2.27092 0.29088,-2.27092 0.29089,2.27092 0.29089,-2.27092 h 0.87265 l 0.29089,2.27092 h 0.87266 l 0.29089,-2.27092 h 0.29088 l 0.29089,2.27092 h 1.16354 l 0.29089,-2.27092 0.29089,2.27092 h 0.29088 l 0.29089,-2.27092 0.29089,2.27092 0.29088,-2.27092 0.29089,2.27092 h 1.74532 l 0.29088,2.27092 0.29089,-2.27092 h 1.45443 l 0.29089,-2.27092 0.29088,2.27092 h 0.29089 l 0.29089,-2.27092 0.29088,2.27092 h 0.29089 l 0.29089,-2.27092 h 1.45443 l 0.29088,2.27092 0.29089,-2.27092 0.29089,2.27092 0.29088,-2.27092 0.29089,2.27092 h 0.29088 l 0.29089,-2.27092 h 0.29089 l 0.29088,2.27092 h 0.58178 l 0.29088,-2.27092 0.29089,2.27092 0.29088,-2.27092 0.29089,2.27092 0.29089,-2.27092 h 0.58177 l 0.58177,4.54184 h 0.29089 l 0.29089,-4.54184 h 0.58177 l 0.29088,2.27092 h 0.29089 l 0.29089,-2.27092 0.29088,2.27092 h 0.58178 l 0.29088,-2.27092 0.29089,2.27092 0.29088,-2.27092 h 0.29089 l 0.29089,2.27092 0.29088,-2.27092 0.29089,2.27092 0.29089,-2.27092 h 1.16354 l 0.29089,2.27092 h 0.29088 l 0.29089,-2.27092 h 0.87266 l 0.29089,2.27092 0.29088,-2.27092 h 0.29089 l 0.29088,2.27092 0.29089,-2.27092 0.29089,2.27092 h 0.58177 l 0.29089,-2.27092 0.29088,2.27092 h 1.16355 l 0.29088,-2.27092 h 0.87266 l 0.29089,2.27092 0.29089,-2.27092 0.29088,2.27092 h 0.29089 l 0.29088,-2.27092 h 0.58178 l 0.29088,2.27092 0.29089,-2.27092 0.29089,2.27092 0.29088,-2.27092 h 1.74532 l 0.29089,2.27092 0.58177,-4.54184 0.29089,2.27092 h 0.29088 l 0.29089,2.27092 0.29088,-2.27092 0.29089,2.27092 h 0.29089 l 0.29088,-2.27092 h 1.45443 l 0.29089,2.27092 0.29089,-2.27092 0.29088,2.27092 0.29089,-2.27092 0.29089,2.27092 0.29088,-2.27092 h 1.16355 l 0.29088,2.27092 0.29089,-2.27092 0.29089,2.27092 h 0.58177 l 0.29088,-2.27092 0.29089,2.27092 0.29089,-2.27092 h 0.29088 l 0.29089,2.27092 0.29089,-2.27092 h 0.29088 l 0.29089,2.27092 0.29089,-2.27092 h 0.29088 l 0.29089,2.27092 0.29088,-2.27092 h 0.87266 l 0.29089,2.27092 0.29089,-2.27092 h 0.29088 l 0.29089,2.27092 h 0.29088 l 0.29089,-2.27092 0.29089,2.27092 h 0.29088 l 0.29089,-2.27092 h 0.29089 l 0.29088,2.27092 0.29089,-2.27092 h 1.45443 l 0.29089,2.27092 h 0.29088 l 0.29089,-4.54184 0.29089,4.54184 h 0.58177 l 0.29088,-2.27092 0.29089,2.27092 h 0.29089 l 0.29088,-2.27092 h 0.87266 l 0.29089,2.27092 0.29088,-2.27092 h 0.29089 l 0.29089,2.27092 h 0.29088 l 0.29089,-2.27092 h 0.29089 l 0.29088,2.27092 h 0.29089 l 0.29089,-2.27092 h 0.29088 l 0.29089,2.27092 0.29088,-2.27092 h 0.29089 v 0"
           style="fill:none;stroke:#ff7f0e;stroke-width:1.5;stroke-linecap:square"
           id="path173" />
      </g>
      <g
         id="patch_3">
        <path
           d="M 65.45,304 V 35.88"
           style="fill:none;stroke:#000000;stroke-width:0.8;stroke-linecap:square;stroke-linejoin:miter"
           id="path176" />
      </g>
      <g
         id="patch_4">
        <path
           d="M 703.8,304 V 35.88"
           style="fill:none;stroke:#000000;stroke-width:0.8;stroke-linecap:square;stroke-linejoin:miter"
           id="path179" />
      </g>
      <g
         id="patch_5">
        <path
           d="M 65.45,304 H 703.8"
           style="fill:none;stroke:#000000;stroke-width:0.8;stroke-linecap:square;stroke-linejoin:miter"
           id="path182" />
      </g>
      <g
         id="patch_6">
        <path
           d="M 65.45,35.88 H 703.8"
           style="fill:none;stroke:#000000;stroke-width:0.8;stroke-linecap:square;stroke-linejoin:miter"
           id="path185" />
      </g>
      <g
         id="legend_1">
        <g
           id="patch_7">
          <path
             d="M 496.57031,296.5 H 693.3 q 3,0 3,-3 v -42.53438 q 0,-3 -3,-3 H 496.57031 q -3,0 -3,3 V 293.5 q 0,3 3,3 z"
             style="opacity:0.8;fill:#ffffff;stroke:#cccccc;stroke-linejoin:miter"
             id="path191" />
        </g>
        <g
           id="line2d_19">
          <path
             d="m 499.57031,260.11328 h 30"
             style="fill:none;stroke:#1f77b4;stroke-width:1.5;stroke-linecap:square"
             id="path194" />
        </g>
        <g
           id="line2d_20" />
        <g
           id="text_20">
          <text
             style="font-style:normal;font-weight:normal;font-size:15px;font-family:'DejaVu Sans';text-anchor:start"
             x="541.57031"
             y="265.36328"
             id="text198">Training Accuracy</text>
        </g>
        <g
           id="line2d_21">
          <path
             d="m 499.57031,282.13047 h 30"
             style="fill:none;stroke:#ff7f0e;stroke-width:1.5;stroke-linecap:square"
             id="path201" />
        </g>
        <g
           id="line2d_22" />
        <g
           id="text_21">
          <text
             style="font-style:normal;font-weight:normal;font-size:15px;font-family:'DejaVu Sans';text-anchor:start"
             x="541.57031"
             y="287.38046"
             id="text205">Validation Accuracy</text>
        </g>
      </g>
    </g>
  </g>
  <defs
     id="defs214">
    <clipPath
       id="p5f8690a728">
      <rect
         height="268.12"
         width="638.34998"
         x="65.449997"
         y="35.880001"
         id="rect211" />
    </clipPath>
  </defs>
</svg>
