<?xml version="1.0" encoding="UTF-8" standalone="no"?>
<!-- Created with matplotlib (https://matplotlib.org/) -->

<svg
   height="328.23499pt"
   version="1.1"
   viewBox="0 0 687.6593 328.23499"
   width="687.6593pt"
   id="svg177"
   sodipodi:docname="transformer_dataset1_loss_comparison.svg"
   inkscape:version="1.2.2 (1:1.2.2+202305151915+b0a8486541)"
   xmlns:inkscape="http://www.inkscape.org/namespaces/inkscape"
   xmlns:sodipodi="http://sodipodi.sourceforge.net/DTD/sodipodi-0.dtd"
   xmlns:xlink="http://www.w3.org/1999/xlink"
   xmlns="http://www.w3.org/2000/svg"
   xmlns:svg="http://www.w3.org/2000/svg">
  <sodipodi:namedview
     id="namedview179"
     pagecolor="#ffffff"
     bordercolor="#666666"
     borderopacity="1.0"
     inkscape:showpageshadow="2"
     inkscape:pageopacity="0.0"
     inkscape:pagecheckerboard="0"
     inkscape:deskcolor="#d1d1d1"
     inkscape:document-units="pt"
     showgrid="false"
     inkscape:zoom="1.446875"
     inkscape:cx="445.09719"
     inkscape:cy="219.09287"
     inkscape:window-width="1920"
     inkscape:window-height="1080"
     inkscape:window-x="0"
     inkscape:window-y="0"
     inkscape:window-maximized="1"
     inkscape:current-layer="svg177" />
  <defs
     id="defs4">
    <style
       type="text/css"
       id="style2">
*{stroke-linecap:butt;stroke-linejoin:round;}
  </style>
  </defs>
  <g
     id="figure_1"
     transform="translate(-16.540729,-15.8)">
    <g
       id="axes_1">
      <g
         id="patch_2">
        <path
           d="M 65.45,304 H 703.8 V 16.2 H 65.45 Z"
           style="fill:#ffffff"
           id="path9" />
      </g>
      <g
         id="matplotlib.axis_1">
        <g
           id="xtick_1">
          <g
             id="line2d_1">
            <defs
               id="defs13">
              <path
                 d="M 0,0 V 3.5"
                 id="mfb597bc7b6"
                 style="stroke:#000000;stroke-width:0.8" />
            </defs>
            <g
               id="g17">
              <use
                 style="stroke:#000000;stroke-width:0.8"
                 x="93.288795"
                 xlink:href="#mfb597bc7b6"
                 y="304"
                 id="use15" />
            </g>
          </g>
          <g
             id="text_1">
            <text
               style="font-style:normal;font-weight:normal;font-size:15px;font-family:'DejaVu Sans';text-anchor:middle"
               x="93.288795"
               y="322.39764"
               id="text20">0</text>
          </g>
        </g>
        <g
           id="xtick_2">
          <g
             id="line2d_2">
            <g
               id="g26">
              <use
                 style="stroke:#000000;stroke-width:0.8"
                 x="211.0004"
                 xlink:href="#mfb597bc7b6"
                 y="304"
                 id="use24" />
            </g>
          </g>
          <g
             id="text_2">
            <text
               style="font-style:normal;font-weight:normal;font-size:15px;font-family:'DejaVu Sans';text-anchor:middle"
               x="211.0004"
               y="322.39764"
               id="text29">100</text>
          </g>
        </g>
        <g
           id="xtick_3">
          <g
             id="line2d_3">
            <g
               id="g35">
              <use
                 style="stroke:#000000;stroke-width:0.8"
                 x="328.71201"
                 xlink:href="#mfb597bc7b6"
                 y="304"
                 id="use33" />
            </g>
          </g>
          <g
             id="text_3">
            <text
               style="font-style:normal;font-weight:normal;font-size:15px;font-family:'DejaVu Sans';text-anchor:middle"
               x="328.71201"
               y="322.39764"
               id="text38">200</text>
          </g>
        </g>
        <g
           id="xtick_4">
          <g
             id="line2d_4">
            <g
               id="g44">
              <use
                 style="stroke:#000000;stroke-width:0.8"
                 x="446.42358"
                 xlink:href="#mfb597bc7b6"
                 y="304"
                 id="use42" />
            </g>
          </g>
          <g
             id="text_4">
            <text
               style="font-style:normal;font-weight:normal;font-size:15px;font-family:'DejaVu Sans';text-anchor:middle"
               x="446.42358"
               y="322.39764"
               id="text47">300</text>
          </g>
        </g>
        <g
           id="xtick_5">
          <g
             id="line2d_5">
            <g
               id="g53">
              <use
                 style="stroke:#000000;stroke-width:0.8"
                 x="564.13519"
                 xlink:href="#mfb597bc7b6"
                 y="304"
                 id="use51" />
            </g>
          </g>
          <g
             id="text_5">
            <text
               style="font-style:normal;font-weight:normal;font-size:15px;font-family:'DejaVu Sans';text-anchor:middle"
               x="564.13519"
               y="322.39764"
               id="text56">400</text>
          </g>
        </g>
        <g
           id="xtick_6">
          <g
             id="line2d_6">
            <g
               id="g62">
              <use
                 style="stroke:#000000;stroke-width:0.8"
                 x="681.8468"
                 xlink:href="#mfb597bc7b6"
                 y="304"
                 id="use60" />
            </g>
          </g>
          <g
             id="text_6">
            <text
               style="font-style:normal;font-weight:normal;font-size:15px;font-family:'DejaVu Sans';text-anchor:middle"
               x="681.8468"
               y="322.39764"
               id="text65">500</text>
          </g>
        </g>
        <g
           id="text_7">
          <text
             style="font-style:normal;font-weight:normal;font-size:15px;font-family:'DejaVu Sans';text-anchor:middle"
             x="384.625"
             y="340.91486"
             id="text69">Epochs</text>
        </g>
      </g>
      <g
         id="matplotlib.axis_2">
        <g
           id="ytick_1">
          <g
             id="line2d_7">
            <defs
               id="defs74">
              <path
                 d="M 0,0 H -3.5"
                 id="m9bacc7977d"
                 style="stroke:#000000;stroke-width:0.8" />
            </defs>
            <g
               id="g78">
              <use
                 style="stroke:#000000;stroke-width:0.8"
                 x="65.449997"
                 xlink:href="#m9bacc7977d"
                 y="286.46988"
                 id="use76" />
            </g>
          </g>
          <g
             id="text_8">
            <text
               style="font-style:normal;font-weight:normal;font-size:15px;font-family:'DejaVu Sans';text-anchor:end"
               x="58.450001"
               y="292.1687"
               id="text81">0.2</text>
          </g>
        </g>
        <g
           id="ytick_2">
          <g
             id="line2d_8">
            <g
               id="g87">
              <use
                 style="stroke:#000000;stroke-width:0.8"
                 x="65.449997"
                 xlink:href="#m9bacc7977d"
                 y="234.26329"
                 id="use85" />
            </g>
          </g>
          <g
             id="text_9">
            <text
               style="font-style:normal;font-weight:normal;font-size:15px;font-family:'DejaVu Sans';text-anchor:end"
               x="58.450001"
               y="239.96211"
               id="text90">0.4</text>
          </g>
        </g>
        <g
           id="ytick_3">
          <g
             id="line2d_9">
            <g
               id="g96">
              <use
                 style="stroke:#000000;stroke-width:0.8"
                 x="65.449997"
                 xlink:href="#m9bacc7977d"
                 y="182.0567"
                 id="use94" />
            </g>
          </g>
          <g
             id="text_10">
            <text
               style="font-style:normal;font-weight:normal;font-size:15px;font-family:'DejaVu Sans';text-anchor:end"
               x="58.450001"
               y="187.75554"
               id="text99">0.6</text>
          </g>
        </g>
        <g
           id="ytick_4">
          <g
             id="line2d_10">
            <g
               id="g105">
              <use
                 style="stroke:#000000;stroke-width:0.8"
                 x="65.449997"
                 xlink:href="#m9bacc7977d"
                 y="129.85011"
                 id="use103" />
            </g>
          </g>
          <g
             id="text_11">
            <text
               style="font-style:normal;font-weight:normal;font-size:15px;font-family:'DejaVu Sans';text-anchor:end"
               x="58.450001"
               y="135.54895"
               id="text108">0.8</text>
          </g>
        </g>
        <g
           id="ytick_5">
          <g
             id="line2d_11">
            <g
               id="g114">
              <use
                 style="stroke:#000000;stroke-width:0.8"
                 x="65.449997"
                 xlink:href="#m9bacc7977d"
                 y="77.643532"
                 id="use112" />
            </g>
          </g>
          <g
             id="text_12">
            <text
               style="font-style:normal;font-weight:normal;font-size:15px;font-family:'DejaVu Sans';text-anchor:end"
               x="58.450001"
               y="83.342361"
               id="text117">1.0</text>
          </g>
        </g>
        <g
           id="ytick_6">
          <g
             id="line2d_12">
            <g
               id="g123">
              <use
                 style="stroke:#000000;stroke-width:0.8"
                 x="65.449997"
                 xlink:href="#m9bacc7977d"
                 y="25.436947"
                 id="use121" />
            </g>
          </g>
          <g
             id="text_13">
            <text
               style="font-style:normal;font-weight:normal;font-size:15px;font-family:'DejaVu Sans';text-anchor:end"
               x="58.450001"
               y="31.135775"
               id="text126">1.2</text>
          </g>
        </g>
        <g
           id="text_14">
          <text
             style="font-style:normal;font-weight:normal;font-size:15px;font-family:'DejaVu Sans';text-anchor:middle"
             transform="rotate(-90,27.475781,160.1)"
             x="27.47578"
             y="160.10001"
             id="text130">Loss</text>
        </g>
      </g>
      <g
         id="line2d_13">
        <path
           clip-path="url(#p98f2e0d49f)"
           d="m 94.465909,30.828765 1.177116,-1.546947 1.177116,7.270554 1.177116,9.210203 1.177116,-1.125864 1.177117,-4.445764 1.17712,13.510213 1.17711,5.678082 1.17712,9.351104 1.17711,-0.335603 1.17712,17.400079 1.17712,7.726861 1.17711,14.746067 1.17712,16.41169 1.17711,18.49123 1.17712,7.27257 1.17711,14.20022 1.17712,16.75594 1.17712,5.81604 1.17711,15.82946 1.17712,-5.96994 1.17711,-0.34436 1.17712,2.86045 1.17712,8.6225 1.17711,1.23777 1.17712,-1.44395 1.17712,9.18044 1.17711,5.6663 1.17712,-6.27601 1.17711,2.3839 1.17712,9.864 1.17711,-6.62761 1.17712,9.394 1.17712,3.81074 1.17711,-6.72368 1.17712,5.52122 1.17711,-2.52104 1.17712,13.37973 1.17712,-11.66048 1.17711,10.23243 1.17712,-7.90872 1.17711,-4.06743 1.17712,14.71851 1.17712,-4.47313 1.17711,5.87131 1.17712,-0.89092 1.17711,2.16803 1.17712,-4.44707 1.17712,4.85073 1.17711,-7.74541 1.17712,-4.48026 1.17711,12.1417 1.17712,-2.35166 1.17712,-3.70255 1.17711,7.01545 1.17712,-5.84124 1.17711,0.84646 1.17712,-1.93366 1.17712,2.74826 1.17711,-3.43136 1.17712,10.95173 1.17711,-2.49239 1.17712,2.05434 1.17712,-7.20019 1.17711,3.30334 1.17712,5.73958 1.17711,-10.39661 1.17712,2.93362 1.17712,1.90681 1.17711,-2.42006 1.17712,6.92109 1.17711,3.66843 1.17712,0.71898 1.17712,-8.87828 1.17711,13.57409 1.17712,-4.93728 1.17711,-3.36971 1.17712,3.38725 1.17712,2.98877 1.17711,-4.24025 1.17712,-1.5732 1.17711,0.90575 1.17712,2.82651 1.17712,-1.39106 1.17711,-0.0692 1.17712,3.36569 1.17711,0.21161 1.17712,-4.2932 1.17712,-1.53026 1.17711,9.24689 1.17712,-2.66109 1.17711,-4.88407 1.17712,-0.40852 1.17712,4.49046 1.17711,-2.57043 1.17712,6.13036 1.17711,2.44693 1.17712,-4.83842 1.17712,-6.12998 2.35423,8.39592 1.17711,-1.34539 1.17712,1.73422 1.17712,2.169 2.35423,-11.19892 1.17711,5.17214 1.17712,6.40507 1.17712,-14.4202 1.17711,10.19565 1.17712,9.03927 1.17711,-14.54607 1.17712,-0.34542 1.17712,5.55485 1.17711,8.17875 1.17712,-8.73026 1.17711,4.64389 1.17712,-5.09307 1.17712,-4.14599 1.17711,4.06112 1.17712,-12.72241 1.17711,15.29179 1.17712,2.41372 1.17712,-0.70009 1.17711,-9.38063 1.17712,-4.00822 1.17711,8.79071 1.17712,-1.21793 1.17711,1.86063 1.17712,-9.1088 1.17712,5.9193 1.17711,4.25594 1.17712,0.24045 1.17711,-1.66863 1.17712,-40.64307 1.17712,10.63238 1.17711,12.21541 1.17712,19.08773 1.17711,-5.06866 1.17712,-0.43992 1.17712,6.64326 1.17711,-0.44846 1.17712,-4.57368 1.17711,1.65968 1.17712,7.10723 1.17712,-11.9133 1.17711,-0.49071 1.17712,8.86408 1.17711,-1.27984 1.17712,3.23274 1.17712,-6.5767 1.17711,10.20523 1.17712,-4.16722 1.17712,-0.85258 1.17711,9.18032 1.17712,-15.02602 1.17711,6.37503 1.17712,-1.25955 1.17712,8.14653 1.17711,-1.21504 1.17712,-1.55824 1.17711,-0.40014 1.17712,-3.70446 1.17712,-2.22896 1.17711,1.4336 1.17712,7.79668 1.17711,-2.76445 1.17712,-1.12959 1.17711,3.29383 1.17712,-3.6704 1.17712,0.54006 1.17711,3.50439 1.17712,-6.26783 1.17711,12.94463 1.17712,-7.31038 1.17712,-3.69045 1.17711,2.44539 1.17712,5.71506 1.17711,-7.96099 2.35424,7.71622 1.17711,-14.68417 2.35423,10.40953 1.17712,6.78375 1.17712,-0.6705 1.17711,-10.18987 1.17712,2.15525 1.17711,8.6518 1.17712,-9.23484 1.17712,-4.16377 1.17711,-1.2295 1.17712,3.64879 1.17711,-2.81259 1.17712,-4.18429 1.17712,7.27493 1.17711,-2.27191 1.17712,2.21371 1.17711,0.94903 1.17712,5.75386 1.17712,-5.12165 1.17711,-3.90748 1.17712,-24.9875 1.17711,6.76098 1.17712,-4.78634 1.17712,1.41432 1.17711,5.07431 1.17712,1.6109 1.17711,9.52009 1.17712,-9.0901 1.17712,-5.51678 1.17711,12.08982 1.17712,-0.32699 1.17711,-0.46761 1.17712,6.26128 1.17712,0.33893 1.17711,7.52775 1.17712,-5.71125 1.17711,-0.38271 1.17712,1.17455 1.17712,-0.95063 1.17711,0.8729 1.17712,3.04747 1.17711,-5.19095 1.17712,1.31081 1.17712,9.17715 1.17711,-6.54323 2.35423,-0.71235 1.17712,3.79537 1.17712,5.46201 1.17711,-14.15607 1.17712,8.91826 1.17711,-2.66945 1.17712,3.44395 1.17712,-2.28326 1.17711,3.26914 1.17712,7.1672 1.17711,-12.44682 1.17712,13.09025 1.17712,-12.73229 1.17711,11.77635 1.17712,-14.52866 1.17711,5.36655 1.17712,2.50597 1.17712,-2.95672 1.17711,-1.27986 1.17712,4.415 1.17711,-3.21198 1.17712,4.49793 1.17712,0.56525 1.17711,-2.62922 1.17712,0.35982 1.17711,-0.25377 1.17712,2.99156 1.17712,-4.51917 1.17711,-1.95357 2.35423,15.7919 1.17712,-12.36479 1.17712,5.57113 1.17711,-7.5905 1.17712,7.16281 1.17711,-0.80109 1.17712,-0.12067 1.17712,1.91961 1.17711,0.19297 1.17712,4.54018 1.17711,-11.81995 1.17712,1.65469 1.17712,3.24803 1.17711,-5.15929 1.17712,6.44929 1.17711,0.16306 1.17712,-0.4239 1.17712,-5.30495 1.17711,-1.9707 1.17712,2.25504 1.17711,0.57996 1.17712,0.86278 1.17712,3.04489 1.17711,-3.4778 1.17712,12.45793 1.17711,-7.35151 1.17712,0.32445 1.17712,-0.75247 1.17711,4.59432 1.17712,-3.35057 1.17711,-5.0699 1.17712,-1.80032 1.17711,7.83462 1.17712,-4.00651 1.17712,2.35675 1.17711,-7.48233 1.17712,5.02553 1.17711,-42.30889 1.17712,-8.72703 1.17712,6.49658 1.17711,15.89807 1.17712,-1.37522 1.17711,9.5717 1.17712,-1.37216 1.17712,-7.94823 1.17711,7.69607 1.17712,3.93914 1.17711,2.54573 1.17712,7.1412 1.17712,-8.55401 1.17711,1.74081 1.17712,1.52392 1.17712,-3.40565 1.17711,1.97126 1.17712,5.29156 1.17711,-3.62172 1.17712,9.27049 1.17712,-3.77209 1.17711,-1.39538 1.17712,0.0413 1.17711,2.255 1.17712,-6.38918 1.17712,-3.78543 1.17711,4.72317 1.17712,-3.25824 1.17711,9.92699 1.17712,-3.27734 1.17712,-6.36797 1.17711,2.03108 1.17712,5.02003 1.17711,0.69672 1.17712,2.76596 1.17711,-3.26309 1.17712,1.47684 1.17712,-6.38238 1.17711,6.25984 1.17712,-5.99822 1.17711,7.79276 1.17712,5.13765 1.17712,-7.61667 1.17711,0.30057 1.17712,-0.84254 1.17711,-2.89907 1.17712,7.94274 1.17712,-11.82575 1.17711,2.80177 1.17712,8.27004 1.17711,4.76457 1.17712,-7.7561 1.17712,5.17708 1.17711,-4.93981 1.17712,2.84791 1.17711,2.31445 1.17712,-6.4362 1.17712,1.91677 1.17711,-2.5502 1.17712,9.06365 1.17711,-7.68663 1.17712,11.18405 1.17712,-10.28426 1.17711,3.37745 1.17712,2.32792 1.17711,-3.38048 1.17712,-4.43864 1.17712,10.63471 1.17711,-13.79093 1.17712,10.9271 1.17711,-2.59123 1.17712,5.10361 1.17712,-12.82923 1.17711,6.60397 1.17712,4.40026 1.17711,-5.4777 1.17712,4.05126 1.17712,0.5336 1.17711,0.26529 1.17712,-3.68429 1.17711,4.54808 1.17712,-0.47932 1.17712,3.54164 1.17711,-11.99605 1.17712,2.9686 1.17711,4.70476 1.17712,-2.40695 1.17712,3.39075 1.17711,1.3654 1.17712,-2.83315 1.17711,4.121 1.17712,-9.96488 1.17712,6.43728 1.17711,-0.72369 1.17712,8.1438 1.17711,-9.62261 1.17712,-3.04067 1.17712,-6.90568 1.17711,17.84152 1.17712,-11.20418 1.17711,10.61613 1.17712,-2.90831 1.17712,-4.62806 1.17711,7.34922 1.17712,-10.79321 1.17711,10.27698 1.17712,-3.33581 1.17712,5.05183 1.17711,-14.04135 1.17712,10.61309 1.17711,-8.10448 1.17712,6.41295 1.17712,4.46113 1.17711,-2.29039 1.17712,3.25285 1.17711,1.78458 1.17712,-3.1117 1.17712,-0.34005 1.17711,-3.1663 1.17712,0.54675 1.17711,5.94625 1.17712,-16.38629 1.17712,10.91372 1.17711,-1.19128 1.17712,11.10087 1.17711,-10.0264 1.17712,3.50882 1.17712,-4.36569 1.17711,2.32233 1.17712,-8.35548 1.17711,-0.77928 1.17712,11.12244 1.17712,-10.42435 1.17711,3.81115 1.17712,1.7473 1.17711,11.33936 1.17712,-10.62749 1.17712,6.93681 1.17711,-14.95931 1.17712,10.72447 1.17711,-2.52009 1.17712,4.83525 1.17712,-2.11456 1.17711,9.83184 1.17712,-8.75873 1.17711,2.08158 1.17712,0.62692 1.17712,3.5134 1.17711,-5.64415 1.17712,-9.81814 1.17711,12.40518 1.17712,-13.18545 1.17711,7.79098 1.17712,-3.44617 1.17712,4.17886 1.17711,-10.46384 1.17712,2.63765 1.17711,12.14121 1.17712,-0.30139 1.17712,-10.92376 1.17711,11.40012 1.17712,3.3753 1.17711,-6.71315 1.17712,-9.13925 1.17712,1.78795 1.17711,8.51286 1.17712,-1.9088 1.17711,-0.0712 1.17712,-6.90778 1.17712,13.77901 1.17711,-8.11789 1.17712,6.72725 1.17711,-3.86816 1.17712,-2.28341 1.17712,0.31121 1.17711,-11.2471 1.17712,6.59964 1.17712,12.37737 1.17711,-1.2739 1.17712,-7.75016 1.17711,7.45673 1.17712,-15.52965 1.17712,8.1615 2.35423,8.0333 1.17711,-5.32097 1.17712,0.7435 1.17712,-13.58138 1.17711,7.73043 1.17712,9.60851 1.17711,-8.23837 1.17712,0.975 1.17712,6.83314 1.17711,-7.72282 1.17712,5.81439 1.17711,4.11169 1.17712,-15.18846 1.17712,17.08181 1.17711,-9.69733 v 0"
           style="fill:none;stroke:#1f77b4;stroke-width:1.5;stroke-linecap:square"
           id="path134" />
      </g>
      <g
         id="line2d_14">
        <path
           clip-path="url(#p98f2e0d49f)"
           d="m 94.465909,51.21213 1.177116,8.383379 1.177116,-9.992499 1.177116,19.561208 1.177116,3.555989 1.177117,2.947486 1.17712,4.094509 1.17711,3.463772 1.17712,9.83674 1.17711,17.373196 1.17712,-5.46434 2.35423,41.01505 1.17712,21.77811 1.17711,14.16258 1.17712,-6.65337 1.17711,18.50256 2.35424,6.96892 1.17711,-2.1111 1.17712,14.71833 1.17711,-14.85081 1.17712,29.34776 1.17712,-3.28006 2.35423,11.067 1.17712,-3.4987 1.17711,6.85746 1.17712,-6.71397 1.17711,6.14382 1.17712,1.55185 1.17711,-4.56323 1.17712,3.85768 1.17712,0.80577 1.17711,1.81083 1.17712,3.47085 1.17711,0.27496 1.17712,0.92951 1.17712,-3.56929 1.17711,0.0266 1.17712,5.14132 1.17711,-5.45513 1.17712,5.8995 1.17712,1.59486 1.17711,2.99906 1.17712,-0.32563 1.17711,1.67974 1.17712,-1.16598 1.17712,2.38897 1.17711,-1.09815 1.17712,2.09367 1.17711,0.0346 1.17712,-1.76548 1.17712,0.34228 1.17711,-3.1721 1.17712,3.23483 1.17711,-0.58525 1.17712,0.0595 1.17712,1.54065 1.17711,-2.27529 1.17712,4.59761 1.17711,0.43993 1.17712,0.85621 1.17712,1.82866 1.17711,1.46293 1.17712,-1.08887 1.17711,0.55759 1.17712,-1.54898 1.17712,-3.28207 1.17711,4.49425 1.17712,2.65257 1.17711,0.74291 1.17712,-0.2073 1.17712,0.23263 1.17711,-0.0254 1.17712,-0.84144 1.17711,0.21276 1.17712,1.66725 1.17712,-1.30509 1.17711,-0.0661 1.17712,0.53516 1.17711,1.18113 1.17712,0.4108 1.17712,-0.5276 1.17711,0.30738 1.17712,-0.69619 1.17711,2.59653 1.17712,0.6977 1.17712,0.44497 1.17711,-1.11895 1.17712,0.42651 1.17711,1.32329 1.17712,-5.42823 1.17712,5.90268 1.17711,1.28534 1.17712,-0.26362 1.17711,-0.63738 1.17712,-0.2084 1.17712,-0.99073 1.17711,-4.49798 1.17712,-0.0278 1.17711,-0.52176 1.17712,4.05055 1.17712,-0.59796 1.17711,2.71056 1.17712,-0.49462 1.17711,0.31466 1.17712,1.32283 1.17712,-2.2461 1.17711,2.92514 1.17712,0.66778 1.17711,0.0305 1.17712,-0.32042 1.17712,0.004 1.17711,-1.77075 1.17712,-0.63212 1.17711,0.40815 1.17712,0.90681 1.17712,1.7994 1.17711,0.27503 1.17712,-4.1503 1.17711,1.34577 1.17712,-2.01602 1.17712,-0.55079 1.17711,7.03498 1.17712,-2.78536 1.17711,-2.45369 1.17712,0.2563 1.17711,4.92588 1.17712,-1.56512 1.17712,-4.15081 1.17711,-1.22756 1.17712,1.87631 1.17711,-43.48305 1.17712,35.44728 1.17712,-2.86317 1.17711,10.01196 1.17712,1.49735 1.17711,4.94199 1.17712,-2.8113 1.17712,1.2504 1.17711,0.93183 1.17712,1.18358 1.17711,-0.96049 1.17712,-4.14101 1.17712,0.12528 1.17711,1.10072 1.17712,0.3816 1.17711,1.27784 1.17712,-2.46173 1.17712,-0.59803 1.17711,-0.81293 1.17712,0.44487 1.17712,-0.0663 1.17711,-2.11401 2.35423,3.8536 1.17712,-1.62796 1.17712,0.29545 1.17711,1.48619 1.17712,0.29771 1.17711,1.03196 1.17712,-1.55473 1.17712,-0.007 2.35423,6.50855 1.17711,1.91013 1.17712,-2.45733 1.17711,0.30325 1.17712,-1.86035 1.17712,1.04003 1.17711,2.56106 1.17712,2.06796 1.17711,0.23464 1.17712,2.02612 1.17712,-7.82132 1.17711,2.01871 1.17712,4.15146 1.17711,-4.73676 1.17712,4.97706 1.17712,-2.72596 1.17711,0.0786 1.17712,0.46819 1.17711,-1.69405 1.17712,1.54749 1.17712,0.0426 1.17711,0.27491 1.17712,-1.51331 1.17711,-5.53078 1.17712,-3.55649 1.17712,-8.07702 1.17711,0.73741 1.17712,3.93201 1.17711,3.53414 1.17712,4.10834 1.17712,-2.39462 1.17711,-4.5185 1.17712,6.31746 1.17711,3.4225 1.17712,-0.52635 1.17712,-7.40068 1.17711,-18.43221 1.17712,-6.17806 1.17711,3.23862 1.17712,1.11569 1.17712,-0.93573 1.17711,3.19792 1.17712,2.18518 1.17711,0.79426 2.35424,3.96861 1.17711,2.67909 1.17712,-1.08227 1.17711,-0.85478 1.17712,2.94166 1.17712,0.13741 1.17711,5.27428 1.17712,2.88573 1.17711,0.83628 1.17712,-1.82667 1.17712,-1.4031 1.17711,-0.53789 1.17712,0.63749 1.17711,4.54035 1.17712,0.6049 1.17712,-1.96878 1.17711,0.0349 1.17712,0.38219 1.17711,4.03088 1.17712,0.77997 1.17712,1.14246 1.17711,-1.13318 1.17712,-1.83972 1.17711,3.62106 1.17712,0.45091 1.17712,-0.26243 1.17711,-1.81336 1.17712,0.89815 1.17711,3.34508 1.17712,1.17496 1.17712,-1.36954 1.17711,0.25717 1.17712,-0.18762 1.17711,-1.41129 1.17712,1.25695 1.17712,-3.07025 2.35423,2.86871 1.17711,1.56097 1.17712,1.07126 1.17712,-0.1893 1.17711,-0.82589 1.17712,-2.6031 1.17711,1.58358 1.17712,-0.8091 1.17712,1.80998 1.17711,-2.32367 1.17712,0.002 1.17711,3.44899 2.35424,1.5178 1.17711,-2.54719 1.17712,0.8466 1.17711,-1.42905 1.17712,-0.78647 1.17712,-1.09332 1.17711,3.49727 1.17712,2.57225 1.17711,-0.0713 1.17712,-3.9538 1.17712,-0.87641 1.17711,0.41391 1.17712,0.62172 1.17711,1.70659 1.17712,-3.33849 1.17712,4.59289 1.17711,-1.95047 1.17712,1.16477 1.17711,0.44506 1.17712,-4.15407 1.17712,2.86949 1.17711,2.40697 1.17712,1.64106 1.17711,-1.73945 1.17712,-1.39546 1.17712,1.06184 1.17711,0.41757 1.17712,1.43926 1.17711,1.92185 1.17712,-7.03566 1.17711,-0.0323 1.17712,0.65631 1.17712,5.13211 1.17711,1.53616 1.17712,-57.61518 1.17711,5.88611 1.17712,11.82942 1.17712,-5.99628 1.17711,4.38085 1.17712,2.09144 1.17711,2.62902 1.17712,0.68626 1.17712,1.67691 1.17711,2.22863 1.17712,1.95126 1.17711,0.68954 1.17712,1.0361 1.17712,2.69846 1.17711,-1.15128 1.17712,2.04874 1.17712,0.0196 1.17711,0.20982 1.17712,-0.92803 1.17711,-0.16507 1.17712,2.01981 1.17712,0.78133 1.17711,1.85355 1.17712,0.42018 1.17711,-2.15667 1.17712,-1.81345 1.17712,3.08944 1.17711,-1.0173 1.17712,-2.06816 1.17711,1.24185 1.17712,0.81554 1.17712,-1.81786 1.17711,1.75386 1.17712,1.17817 1.17711,2.99323 1.17712,0.61569 1.17711,-1.25582 1.17712,1.32888 1.17712,-3.40276 1.17711,2.10803 1.17712,-2.24857 1.17711,4.06405 1.17712,-1.09097 1.17712,0.99744 1.17711,-2.4462 1.17712,-0.68574 1.17711,1.68107 1.17712,-1.18391 1.17712,2.25182 1.17711,0.61126 1.17712,-0.56366 1.17711,1.29684 1.17712,-0.18659 1.17712,-1.29263 1.17711,-4.40573 1.17712,2.77314 1.17711,-2.20631 1.17712,1.49495 1.17712,0.73998 1.17711,3.18754 1.17712,0.19178 1.17711,-0.88386 1.17712,5.11389 1.17712,-2.86671 1.17711,-3.57636 1.17712,0.64211 1.17711,-3.21041 1.17712,3.82971 1.17712,0.56601 1.17711,1.00412 1.17712,-1.52088 1.17711,2.94691 1.17712,-0.76447 1.17712,-0.48296 1.17711,-7.89718 1.17712,7.29518 1.17711,2.16022 1.17712,0.87157 1.17712,1.38966 1.17711,0.42396 1.17712,-3.59216 1.17711,-0.85976 1.17712,-2.77495 1.17712,2.03661 1.17711,-3.61072 1.17712,1.47803 1.17711,2.66348 1.17712,-2.63266 1.17712,1.73808 1.17711,0.28044 1.17712,-2.80824 2.35423,2.20905 1.17712,-4.39762 1.17711,3.94245 1.17712,-0.32682 1.17711,2.41047 1.17712,0.25426 1.17712,-1.15596 1.17711,-0.80036 1.17712,1.70723 1.17711,-2.92415 1.17712,1.80079 1.17712,1.27347 1.17711,-0.42763 1.17712,2.24041 1.17711,-0.93088 1.17712,1.4279 1.17712,-2.25428 1.17711,4.27838 1.17712,1.03415 1.17711,1.6029 1.17712,-1.77265 2.35423,-2.09654 1.17712,-4.18296 1.17711,5.31048 1.17712,-1.34469 1.17712,-3.24819 1.17711,2.71409 1.17712,-0.54592 1.17711,-0.0376 1.17712,1.12938 1.17712,0.49852 1.17711,-0.82729 1.17712,0.91905 1.17711,0.30403 1.17712,-1.22819 1.17712,0.49577 1.17711,0.21104 1.17712,-1.10418 1.17711,1.02018 1.17712,1.52903 1.17712,-6.10641 1.17711,5.63453 1.17712,-0.83506 1.17711,1.34586 1.17712,0.32012 1.17712,-0.50786 1.17711,-4.48716 1.17712,1.43136 1.17711,0.96281 1.17712,1.7488 1.17712,-0.46785 1.17711,-1.97405 1.17712,0.6662 1.17711,-1.39715 1.17712,-2.82794 1.17712,4.84632 1.17711,0.0688 1.17712,-1.47923 1.17711,2.54094 1.17712,-1.48494 1.17711,-0.53175 1.17712,1.24402 1.17712,-5.52645 1.17711,9.06114 1.17712,-6.00949 1.17711,4.82338 1.17712,0.37891 1.17712,-0.8957 1.17711,-1.06006 1.17712,-1.92847 1.17711,-2.24042 1.17712,0.0341 1.17712,4.09933 1.17711,-4.35258 1.17712,-1.16901 1.17711,2.73637 1.17712,0.0478 1.17712,-0.17192 1.17711,2.75771 1.17712,3.63777 1.17711,-3.97038 2.35424,-0.54514 1.17711,3.12676 1.17712,-0.48572 1.17712,-2.41475 1.17711,-1.42048 1.17712,4.00354 1.17711,-3.52857 1.17712,4.28111 1.17712,-3.55796 1.17711,-0.13843 1.17712,3.0036 2.35423,3.56635 1.17712,-1.84481 1.17711,1.07254 1.17712,2.14561 1.17711,0.54133 1.17712,-7.64982 1.17712,3.31591 1.17711,-1.25164 1.17712,0.32086 1.17711,3.48652 1.17712,-0.6692 1.17712,4.35546 1.17711,-2.82027 v 0"
           style="fill:none;stroke:#ff7f0e;stroke-width:1.5;stroke-linecap:square"
           id="path137" />
      </g>
      <g
         id="patch_3">
        <path
           d="M 65.45,304 V 16.2"
           style="fill:none;stroke:#000000;stroke-width:0.8;stroke-linecap:square;stroke-linejoin:miter"
           id="path140" />
      </g>
      <g
         id="patch_4">
        <path
           d="M 703.8,304 V 16.2"
           style="fill:none;stroke:#000000;stroke-width:0.8;stroke-linecap:square;stroke-linejoin:miter"
           id="path143" />
      </g>
      <g
         id="patch_5">
        <path
           d="M 65.45,304 H 703.8"
           style="fill:none;stroke:#000000;stroke-width:0.8;stroke-linecap:square;stroke-linejoin:miter"
           id="path146" />
      </g>
      <g
         id="patch_6">
        <path
           d="M 65.45,16.2 H 703.8"
           style="fill:none;stroke:#000000;stroke-width:0.8;stroke-linecap:square;stroke-linejoin:miter"
           id="path149" />
      </g>
      <g
         id="legend_1">
        <g
           id="patch_7">
          <path
             d="M 532.15313,72.234375 H 693.3 q 3,0 3,-3 V 26.7 q 0,-3 -3,-3 H 532.15313 q -3,0 -3,3 v 42.534375 q 0,3 3,3 z"
             style="opacity:0.8;fill:#ffffff;stroke:#cccccc;stroke-linejoin:miter"
             id="path152" />
        </g>
        <g
           id="line2d_15">
          <path
             d="m 535.15313,35.847656 h 30"
             style="fill:none;stroke:#1f77b4;stroke-width:1.5;stroke-linecap:square"
             id="path155" />
        </g>
        <g
           id="line2d_16" />
        <g
           id="text_15">
          <text
             style="font-style:normal;font-weight:normal;font-size:15px;font-family:'DejaVu Sans';text-anchor:start"
             x="577.15314"
             y="41.097656"
             id="text159">Training Loss</text>
        </g>
        <g
           id="line2d_17">
          <path
             d="m 535.15313,57.864844 h 30"
             style="fill:none;stroke:#ff7f0e;stroke-width:1.5;stroke-linecap:square"
             id="path162" />
        </g>
        <g
           id="line2d_18" />
        <g
           id="text_16">
          <text
             style="font-style:normal;font-weight:normal;font-size:15px;font-family:'DejaVu Sans';text-anchor:start"
             x="577.15314"
             y="63.114845"
             id="text166">Validation Loss</text>
        </g>
      </g>
    </g>
  </g>
  <defs
     id="defs175">
    <clipPath
       id="p98f2e0d49f">
      <rect
         height="287.79999"
         width="638.34998"
         x="65.449997"
         y="16.200001"
         id="rect172" />
    </clipPath>
  </defs>
</svg>
