<?xml version="1.0" encoding="utf-8" standalone="no"?>
<!DOCTYPE svg PUBLIC "-//W3C//DTD SVG 1.1//EN"
  "http://www.w3.org/Graphics/SVG/1.1/DTD/svg11.dtd">
<!-- Created with matplotlib (https://matplotlib.org/) -->
<svg height="360pt" version="1.1" viewBox="0 0 720 360" width="720pt" xmlns="http://www.w3.org/2000/svg" xmlns:xlink="http://www.w3.org/1999/xlink">
 <defs>
  <style type="text/css">
*{stroke-linecap:butt;stroke-linejoin:round;}
  </style>
 </defs>
 <g id="figure_1">
  <g id="patch_1">
   <path d="M 0 360 
L 720 360 
L 720 0 
L 0 0 
z
" style="fill:#ffffff;"/>
  </g>
  <g id="axes_1">
   <g id="patch_2">
    <path d="M 65.45 304 
L 703.8 304 
L 703.8 16.2 
L 65.45 16.2 
z
" style="fill:#ffffff;"/>
   </g>
   <g id="matplotlib.axis_1">
    <g id="xtick_1">
     <g id="line2d_1">
      <defs>
       <path d="M 0 0 
L 0 3.5 
" id="m87cb5aa050" style="stroke:#000000;stroke-width:0.8;"/>
      </defs>
      <g>
       <use style="stroke:#000000;stroke-width:0.8;" x="93.288793" xlink:href="#m87cb5aa050" y="304"/>
      </g>
     </g>
     <g id="text_1">
      <text style="font-family:DejaVu Sans;font-size:15px;font-style:normal;font-weight:normal;text-anchor:middle;" transform="rotate(-0, 93.288793, 322.397656)" x="93.288793" y="322.397656">0</text>
     </g>
    </g>
    <g id="xtick_2">
     <g id="line2d_2">
      <g>
       <use style="stroke:#000000;stroke-width:0.8;" x="211.000392" xlink:href="#m87cb5aa050" y="304"/>
      </g>
     </g>
     <g id="text_2">
      <text style="font-family:DejaVu Sans;font-size:15px;font-style:normal;font-weight:normal;text-anchor:middle;" transform="rotate(-0, 211.000392, 322.397656)" x="211.000392" y="322.397656">100</text>
     </g>
    </g>
    <g id="xtick_3">
     <g id="line2d_3">
      <g>
       <use style="stroke:#000000;stroke-width:0.8;" x="328.711991" xlink:href="#m87cb5aa050" y="304"/>
      </g>
     </g>
     <g id="text_3">
      <text style="font-family:DejaVu Sans;font-size:15px;font-style:normal;font-weight:normal;text-anchor:middle;" transform="rotate(-0, 328.711991, 322.397656)" x="328.711991" y="322.397656">200</text>
     </g>
    </g>
    <g id="xtick_4">
     <g id="line2d_4">
      <g>
       <use style="stroke:#000000;stroke-width:0.8;" x="446.423589" xlink:href="#m87cb5aa050" y="304"/>
      </g>
     </g>
     <g id="text_4">
      <text style="font-family:DejaVu Sans;font-size:15px;font-style:normal;font-weight:normal;text-anchor:middle;" transform="rotate(-0, 446.423589, 322.397656)" x="446.423589" y="322.397656">300</text>
     </g>
    </g>
    <g id="xtick_5">
     <g id="line2d_5">
      <g>
       <use style="stroke:#000000;stroke-width:0.8;" x="564.135188" xlink:href="#m87cb5aa050" y="304"/>
      </g>
     </g>
     <g id="text_5">
      <text style="font-family:DejaVu Sans;font-size:15px;font-style:normal;font-weight:normal;text-anchor:middle;" transform="rotate(-0, 564.135188, 322.397656)" x="564.135188" y="322.397656">400</text>
     </g>
    </g>
    <g id="xtick_6">
     <g id="line2d_6">
      <g>
       <use style="stroke:#000000;stroke-width:0.8;" x="681.846787" xlink:href="#m87cb5aa050" y="304"/>
      </g>
     </g>
     <g id="text_6">
      <text style="font-family:DejaVu Sans;font-size:15px;font-style:normal;font-weight:normal;text-anchor:middle;" transform="rotate(-0, 681.846787, 322.397656)" x="681.846787" y="322.397656">500</text>
     </g>
    </g>
    <g id="text_7">
     <text style="font-family:DejaVu Sans;font-size:15px;font-style:normal;font-weight:normal;text-anchor:middle;" transform="rotate(-0, 384.625, 340.914844)" x="384.625" y="340.914844">Epoch</text>
    </g>
   </g>
   <g id="matplotlib.axis_2">
    <g id="ytick_1">
     <g id="line2d_7">
      <defs>
       <path d="M 0 0 
L -3.5 0 
" id="m813f254812" style="stroke:#000000;stroke-width:0.8;"/>
      </defs>
      <g>
       <use style="stroke:#000000;stroke-width:0.8;" x="65.45" xlink:href="#m813f254812" y="296.782451"/>
      </g>
     </g>
     <g id="text_8">
      <text style="font-family:DejaVu Sans;font-size:15px;font-style:normal;font-weight:normal;text-anchor:end;" transform="rotate(-0, 58.45, 302.481279)" x="58.45" y="302.481279">0.3</text>
     </g>
    </g>
    <g id="ytick_2">
     <g id="line2d_8">
      <g>
       <use style="stroke:#000000;stroke-width:0.8;" x="65.45" xlink:href="#m813f254812" y="256.634802"/>
      </g>
     </g>
     <g id="text_9">
      <text style="font-family:DejaVu Sans;font-size:15px;font-style:normal;font-weight:normal;text-anchor:end;" transform="rotate(-0, 58.45, 262.33363)" x="58.45" y="262.33363">0.4</text>
     </g>
    </g>
    <g id="ytick_3">
     <g id="line2d_9">
      <g>
       <use style="stroke:#000000;stroke-width:0.8;" x="65.45" xlink:href="#m813f254812" y="216.487152"/>
      </g>
     </g>
     <g id="text_10">
      <text style="font-family:DejaVu Sans;font-size:15px;font-style:normal;font-weight:normal;text-anchor:end;" transform="rotate(-0, 58.45, 222.185981)" x="58.45" y="222.185981">0.5</text>
     </g>
    </g>
    <g id="ytick_4">
     <g id="line2d_10">
      <g>
       <use style="stroke:#000000;stroke-width:0.8;" x="65.45" xlink:href="#m813f254812" y="176.339503"/>
      </g>
     </g>
     <g id="text_11">
      <text style="font-family:DejaVu Sans;font-size:15px;font-style:normal;font-weight:normal;text-anchor:end;" transform="rotate(-0, 58.45, 182.038331)" x="58.45" y="182.038331">0.6</text>
     </g>
    </g>
    <g id="ytick_5">
     <g id="line2d_11">
      <g>
       <use style="stroke:#000000;stroke-width:0.8;" x="65.45" xlink:href="#m813f254812" y="136.191854"/>
      </g>
     </g>
     <g id="text_12">
      <text style="font-family:DejaVu Sans;font-size:15px;font-style:normal;font-weight:normal;text-anchor:end;" transform="rotate(-0, 58.45, 141.890682)" x="58.45" y="141.890682">0.7</text>
     </g>
    </g>
    <g id="ytick_6">
     <g id="line2d_12">
      <g>
       <use style="stroke:#000000;stroke-width:0.8;" x="65.45" xlink:href="#m813f254812" y="96.044205"/>
      </g>
     </g>
     <g id="text_13">
      <text style="font-family:DejaVu Sans;font-size:15px;font-style:normal;font-weight:normal;text-anchor:end;" transform="rotate(-0, 58.45, 101.743033)" x="58.45" y="101.743033">0.8</text>
     </g>
    </g>
    <g id="ytick_7">
     <g id="line2d_13">
      <g>
       <use style="stroke:#000000;stroke-width:0.8;" x="65.45" xlink:href="#m813f254812" y="55.896555"/>
      </g>
     </g>
     <g id="text_14">
      <text style="font-family:DejaVu Sans;font-size:15px;font-style:normal;font-weight:normal;text-anchor:end;" transform="rotate(-0, 58.45, 61.595383)" x="58.45" y="61.595383">0.9</text>
     </g>
    </g>
    <g id="text_15">
     <text style="font-family:DejaVu Sans;font-size:15px;font-style:normal;font-weight:normal;text-anchor:middle;" transform="rotate(-90, 27.475781, 160.1)" x="27.475781" y="160.1">Accuracy</text>
    </g>
   </g>
   <g id="line2d_14">
    <path clip-path="url(#pe1704a0bf4)" d="M 94.465909 285.655383 
L 95.643025 290.918182 
L 96.820141 272.874299 
L 97.997257 269.115157 
L 99.174373 268.363328 
L 100.351489 266.859671 
L 101.528605 251.823102 
L 102.705721 245.056646 
L 103.882837 233.027378 
L 105.059953 231.523722 
L 106.237069 219.494466 
L 107.414185 188.669499 
L 108.591301 183.4067 
L 109.768417 163.859136 
L 110.945533 160.851822 
L 112.122649 155.589023 
L 113.299765 142.807939 
L 114.476881 133.785998 
L 115.653997 126.267713 
L 116.831113 108.975659 
L 118.008229 117.9976 
L 119.185345 121.756743 
L 120.362461 114.238458 
L 121.539577 113.48663 
L 122.716693 109.727487 
L 123.893809 110.479316 
L 125.070925 114.990286 
L 126.248041 94.690918 
L 127.425157 103.71286 
L 128.602273 102.961031 
L 129.779389 99.953717 
L 130.956505 104.464688 
L 132.133621 86.420805 
L 133.310737 87.924462 
L 134.487853 93.187261 
L 135.664969 88.67629 
L 136.842085 93.93909 
L 138.019201 78.150692 
L 139.196317 90.179947 
L 140.373433 75.895207 
L 141.550549 94.690918 
L 142.727665 95.442747 
L 143.904781 89.428119 
L 145.081897 84.16532 
L 146.259013 79.654349 
L 147.436129 79.654349 
L 148.613245 75.895207 
L 149.790361 83.413491 
L 150.967476 80.406177 
L 152.144592 84.16532 
L 153.321708 82.661663 
L 154.498824 73.639721 
L 155.67594 81.909834 
L 156.853056 78.150692 
L 158.030172 78.90252 
L 159.207288 76.647035 
L 160.384404 78.150692 
L 161.56152 74.39155 
L 162.738636 85.668977 
L 163.915752 79.654349 
L 165.092868 75.895207 
L 166.269984 76.647035 
L 167.4471 72.136064 
L 168.624216 81.158006 
L 169.801332 79.654349 
L 170.978448 72.136064 
L 172.155564 83.413491 
L 173.33268 77.398864 
L 174.509796 81.158006 
L 175.686912 83.413491 
L 176.864028 75.143378 
L 178.041144 78.150692 
L 179.21826 63.114099 
L 180.395376 69.880579 
L 181.572492 68.376922 
L 182.749608 69.880579 
L 183.926724 66.873265 
L 185.10384 71.384236 
L 186.280956 68.376922 
L 187.458072 69.12875 
L 188.635188 74.39155 
L 189.812304 66.873265 
L 190.98942 67.625094 
L 192.166536 69.12875 
L 193.343652 72.887893 
L 194.520768 69.12875 
L 195.697884 66.873265 
L 196.875 69.880579 
L 198.052116 72.136064 
L 199.229232 64.617756 
L 200.406348 63.114099 
L 201.583464 74.39155 
L 202.76058 69.12875 
L 203.937696 70.632407 
L 205.114812 71.384236 
L 206.291928 65.369584 
L 207.469044 61.610442 
L 208.64616 62.36227 
L 209.823276 67.625094 
L 211.000392 70.632407 
L 212.177508 62.36227 
L 213.354624 72.887893 
L 214.53174 66.873265 
L 215.708856 63.114099 
L 216.885972 65.369584 
L 218.063088 72.136064 
L 219.240204 64.617756 
L 220.41732 63.865927 
L 221.594436 68.376922 
L 222.771552 64.617756 
L 223.948668 58.603128 
L 225.125784 63.865927 
L 226.3029 69.880579 
L 227.480016 70.632407 
L 228.657132 58.603128 
L 229.834248 68.376922 
L 231.011364 60.106785 
L 232.18848 64.617756 
L 233.365596 75.143378 
L 234.542712 58.603128 
L 235.719828 69.12875 
L 236.896944 66.873265 
L 238.07406 69.12875 
L 239.251176 64.617756 
L 240.428292 68.376922 
L 241.605408 73.639721 
L 242.782524 65.369584 
L 243.959639 71.384236 
L 245.136755 62.36227 
L 246.313871 74.39155 
L 247.490987 66.121437 
L 248.668103 62.36227 
L 251.022335 65.369584 
L 252.199451 81.909834 
L 253.376567 78.150692 
L 254.553683 73.639721 
L 255.730799 63.865927 
L 256.907915 72.887893 
L 258.085031 63.114099 
L 259.262147 63.114099 
L 260.439263 60.106785 
L 261.616379 63.865927 
L 262.793495 66.121437 
L 265.147727 69.12875 
L 266.324843 73.639721 
L 267.501959 56.347643 
L 268.679075 65.369584 
L 269.856191 57.8513 
L 271.033307 63.114099 
L 272.210423 57.099471 
L 273.387539 60.106785 
L 274.564655 61.610442 
L 275.741771 57.099471 
L 276.918887 66.121437 
L 278.096003 63.114099 
L 279.273119 66.873265 
L 280.450235 60.106785 
L 281.627351 55.595814 
L 282.804467 58.603128 
L 283.981583 57.8513 
L 286.335815 62.36227 
L 287.512931 63.114099 
L 288.690047 55.595814 
L 291.044279 66.121437 
L 292.221395 54.092157 
L 293.398511 68.376922 
L 294.575627 61.610442 
L 295.752743 60.858613 
L 296.929859 63.865927 
L 298.106975 57.8513 
L 299.284091 63.114099 
L 300.461207 60.858613 
L 301.638323 60.858613 
L 302.815439 58.603128 
L 303.992555 60.106785 
L 305.169671 59.354957 
L 306.346787 51.084843 
L 307.523903 65.369584 
L 308.701019 60.858613 
L 309.878135 63.865927 
L 311.055251 54.092157 
L 312.232367 49.581187 
L 313.409483 65.369584 
L 314.586599 58.603128 
L 315.763715 54.843986 
L 316.940831 57.8513 
L 318.117947 64.617756 
L 319.295063 67.625094 
L 320.472179 62.36227 
L 321.649295 65.369584 
L 322.826411 69.12875 
L 324.003527 63.114099 
L 325.180643 65.369584 
L 326.357759 59.354957 
L 327.534875 63.865927 
L 328.711991 57.8513 
L 329.889107 57.099471 
L 331.066223 60.858613 
L 332.243339 88.67629 
L 333.420455 81.909834 
L 334.597571 82.661663 
L 335.774687 86.420805 
L 336.951803 73.639721 
L 338.128918 74.39155 
L 339.306034 64.617756 
L 340.48315 73.639721 
L 341.660266 78.90252 
L 342.837382 74.39155 
L 344.014498 75.143378 
L 345.191614 67.625094 
L 346.36873 66.121437 
L 347.545846 66.873265 
L 348.722962 63.865927 
L 349.900078 63.114099 
L 351.077194 66.121437 
L 353.431426 66.121437 
L 354.608542 62.36227 
L 355.785658 69.12875 
L 356.962774 58.603128 
L 358.13989 66.873265 
L 359.317006 57.099471 
L 360.494122 59.354957 
L 361.671238 60.858613 
L 362.848354 54.843986 
L 364.02547 60.858613 
L 365.202586 54.092157 
L 366.379702 66.873265 
L 367.556818 57.8513 
L 368.733934 64.617756 
L 369.91105 59.354957 
L 371.088166 61.610442 
L 372.265282 61.610442 
L 373.442398 55.595814 
L 374.619514 58.603128 
L 375.79663 57.8513 
L 376.973746 64.617756 
L 378.150862 57.8513 
L 379.327978 65.369584 
L 380.505094 58.603128 
L 381.68221 60.858613 
L 382.859326 58.603128 
L 384.036442 63.865927 
L 385.213558 56.347643 
L 386.390674 63.114099 
L 387.56779 54.843986 
L 388.744906 61.610442 
L 389.922022 54.843986 
L 391.099138 65.369584 
L 392.276254 57.8513 
L 393.45337 55.595814 
L 394.630486 58.603128 
L 395.807602 54.843986 
L 396.984718 61.610442 
L 398.161834 56.347643 
L 399.33895 58.603128 
L 400.516066 51.836672 
L 401.693182 60.106785 
L 402.870298 58.603128 
L 404.047414 50.333015 
L 405.22453 58.603128 
L 406.401646 54.843986 
L 407.578762 54.092157 
L 408.755878 51.836672 
L 409.932994 59.354957 
L 411.11011 60.106785 
L 412.287226 51.084843 
L 413.464342 64.617756 
L 414.641458 60.858613 
L 415.818574 52.5885 
L 416.99569 61.610442 
L 418.172806 54.843986 
L 419.349922 62.36227 
L 420.527038 60.106785 
L 421.704154 60.106785 
L 422.88127 62.36227 
L 424.058386 61.610442 
L 425.235502 59.354957 
L 426.412618 49.581187 
L 427.589734 57.099471 
L 428.76685 53.340329 
L 429.943966 54.843986 
L 431.121082 51.836672 
L 432.298197 54.843986 
L 434.652429 59.354957 
L 435.829545 55.595814 
L 437.006661 57.8513 
L 438.183777 57.099471 
L 439.360893 58.603128 
L 440.538009 53.340329 
L 441.715125 78.90252 
L 442.892241 99.953717 
L 444.069357 87.172633 
L 445.246473 76.647035 
L 446.423589 78.150692 
L 447.600705 72.136064 
L 448.777821 71.384236 
L 449.954937 79.654349 
L 451.132053 79.654349 
L 452.309169 60.858613 
L 453.486285 67.625094 
L 454.663401 56.347643 
L 455.840517 66.121437 
L 457.017633 66.873265 
L 458.194749 70.632407 
L 459.371865 70.632407 
L 460.548981 58.603128 
L 461.726097 67.625094 
L 462.903213 71.384236 
L 464.080329 61.610442 
L 465.257445 69.880579 
L 466.434561 60.106785 
L 467.611677 60.106785 
L 468.788793 64.617756 
L 469.965909 67.625094 
L 471.143025 72.136064 
L 472.320141 69.12875 
L 473.497257 69.12875 
L 474.674373 60.858613 
L 475.851489 66.873265 
L 477.028605 70.632407 
L 478.205721 65.369584 
L 479.382837 64.617756 
L 480.559953 60.858613 
L 481.737069 60.858613 
L 482.914185 57.099471 
L 484.091301 58.603128 
L 485.268417 70.632407 
L 486.445533 63.865927 
L 487.622649 70.632407 
L 489.976881 60.106785 
L 491.153997 64.617756 
L 492.331113 60.858613 
L 493.508229 59.354957 
L 494.685345 62.36227 
L 495.862461 63.114099 
L 497.039577 66.121437 
L 498.216693 68.376922 
L 499.393809 59.354957 
L 500.570925 57.099471 
L 501.748041 64.617756 
L 502.925157 57.099471 
L 504.102273 61.610442 
L 505.279389 59.354957 
L 506.456505 59.354957 
L 507.633621 60.858613 
L 509.987853 59.354957 
L 511.164969 61.610442 
L 512.342085 60.858613 
L 513.519201 54.843986 
L 514.696317 58.603128 
L 515.873433 57.099471 
L 517.050549 52.5885 
L 518.227665 62.36227 
L 519.404781 64.617756 
L 520.581897 56.347643 
L 521.759013 65.369584 
L 522.936129 57.099471 
L 524.113245 58.603128 
L 525.290361 56.347643 
L 526.467476 63.114099 
L 527.644592 59.354957 
L 528.821708 53.340329 
L 529.998824 58.603128 
L 531.17594 56.347643 
L 532.353056 54.843986 
L 533.530172 52.5885 
L 534.707288 58.603128 
L 535.884404 58.603128 
L 537.06152 51.836672 
L 538.238636 57.099471 
L 539.415752 63.865927 
L 540.592868 60.858613 
L 541.769984 54.843986 
L 542.9471 60.858613 
L 544.124216 54.843986 
L 545.301332 57.8513 
L 546.478448 55.595814 
L 547.655564 48.829358 
L 548.83268 59.354957 
L 550.009796 57.8513 
L 551.186912 55.595814 
L 552.364028 51.836672 
L 553.541144 52.5885 
L 554.71826 60.858613 
L 555.895376 66.873265 
L 557.072492 54.843986 
L 558.249608 57.099471 
L 559.426724 51.836672 
L 560.60384 49.581187 
L 561.780956 58.603128 
L 562.958072 50.333015 
L 564.135188 59.354957 
L 565.312304 54.843986 
L 566.48942 60.106785 
L 567.666536 51.836672 
L 568.843652 64.617756 
L 570.020768 57.099471 
L 571.197884 61.610442 
L 572.375 54.843986 
L 573.552116 52.5885 
L 574.729232 57.099471 
L 575.906348 57.8513 
L 577.083464 51.084843 
L 578.26058 48.829358 
L 579.437696 51.836672 
L 580.614812 54.092157 
L 581.791928 55.595814 
L 582.969044 51.836672 
L 584.14616 62.36227 
L 585.323276 54.843986 
L 586.500392 60.106785 
L 587.677508 54.092157 
L 588.854624 60.106785 
L 590.03174 57.8513 
L 591.208856 57.099471 
L 592.385972 53.340329 
L 593.563088 56.347643 
L 594.740204 63.114099 
L 595.91732 56.347643 
L 597.094436 63.114099 
L 598.271552 56.347643 
L 599.448668 59.354957 
L 600.625784 43.566559 
L 601.8029 59.354957 
L 602.980016 50.333015 
L 604.157132 62.36227 
L 605.334248 51.084843 
L 606.511364 57.099471 
L 607.68848 50.333015 
L 608.865596 58.603128 
L 610.042712 45.822044 
L 611.219828 51.836672 
L 612.396944 51.084843 
L 613.57406 52.5885 
L 614.751176 48.829358 
L 615.928292 53.340329 
L 617.105408 58.603128 
L 618.282524 48.07753 
L 619.459639 60.858613 
L 620.636755 52.5885 
L 621.813871 59.354957 
L 622.990987 50.333015 
L 624.168103 54.843986 
L 625.345219 58.603128 
L 626.522335 49.581187 
L 627.699451 51.084843 
L 628.876567 57.8513 
L 630.053683 51.084843 
L 631.230799 50.333015 
L 632.407915 56.347643 
L 633.585031 54.092157 
L 634.762147 54.843986 
L 635.939263 51.836672 
L 637.116379 51.084843 
L 638.293495 57.8513 
L 639.470611 56.347643 
L 640.647727 51.084843 
L 641.824843 51.836672 
L 643.001959 48.829358 
L 644.179075 51.836672 
L 645.356191 57.099471 
L 646.533307 53.340329 
L 647.710423 64.617756 
L 648.887539 54.843986 
L 650.064655 50.333015 
L 651.241771 48.829358 
L 652.418887 54.843986 
L 653.596003 48.829358 
L 654.773119 61.610442 
L 655.950235 55.595814 
L 657.127351 51.836672 
L 658.304467 44.318387 
L 659.481583 51.084843 
L 660.658699 46.573873 
L 661.835815 54.843986 
L 663.012931 57.8513 
L 664.190047 54.843986 
L 665.367163 54.092157 
L 666.544279 54.092157 
L 667.721395 45.070216 
L 668.898511 51.084843 
L 670.075627 51.084843 
L 671.252743 48.07753 
L 672.429859 55.595814 
L 673.606975 51.836672 
L 674.784091 54.092157 
L 674.784091 54.092157 
" style="fill:none;stroke:#1f77b4;stroke-linecap:square;stroke-width:1.5;"/>
   </g>
   <g id="line2d_15">
    <path clip-path="url(#pe1704a0bf4)" d="M 94.465909 288.662696 
L 95.643025 193.932299 
L 96.820141 257.085901 
L 97.997257 178.143901 
L 99.174373 160.099994 
L 100.351489 133.034169 
L 101.528605 126.267713 
L 102.705721 144.311596 
L 103.882837 148.822567 
L 105.059953 137.54514 
L 106.237069 160.099994 
L 107.414185 153.333538 
L 108.591301 137.54514 
L 109.768417 133.034169 
L 110.945533 117.245772 
L 112.122649 146.567082 
L 113.299765 121.756743 
L 115.653997 126.267713 
L 116.831113 126.267713 
L 118.008229 96.946403 
L 119.185345 119.501257 
L 120.362461 85.668977 
L 121.539577 90.179947 
L 122.716693 76.647035 
L 123.893809 81.158006 
L 125.070925 108.22383 
L 126.248041 85.668977 
L 127.425157 87.924462 
L 128.602273 87.924462 
L 129.779389 83.413491 
L 130.956505 85.668977 
L 132.133621 72.136064 
L 133.310737 69.880579 
L 134.487853 74.39155 
L 135.664969 76.647035 
L 136.842085 74.39155 
L 138.019201 76.647035 
L 139.196317 81.158006 
L 140.373433 78.90252 
L 141.550549 69.880579 
L 142.727665 74.39155 
L 143.904781 67.625094 
L 145.081897 69.880579 
L 148.613245 63.114099 
L 149.790361 65.369584 
L 153.321708 65.369584 
L 155.67594 60.858613 
L 156.853056 63.114099 
L 158.030172 67.625094 
L 159.207288 65.369584 
L 160.384404 65.369584 
L 161.56152 63.114099 
L 162.738636 63.114099 
L 163.915752 65.369584 
L 165.092868 65.369584 
L 166.269984 69.880579 
L 168.624216 65.369584 
L 169.801332 65.369584 
L 170.978448 63.114099 
L 172.155564 65.369584 
L 173.33268 58.603128 
L 174.509796 74.39155 
L 175.686912 60.858613 
L 178.041144 60.858613 
L 179.21826 63.114099 
L 180.395376 56.347643 
L 181.572492 58.603128 
L 182.749608 65.369584 
L 183.926724 60.858613 
L 185.10384 58.603128 
L 186.280956 58.603128 
L 187.458072 60.858613 
L 188.635188 58.603128 
L 194.520768 58.603128 
L 195.697884 54.092157 
L 196.875 56.347643 
L 198.052116 54.092157 
L 199.229232 60.858613 
L 200.406348 56.347643 
L 201.583464 58.603128 
L 202.76058 63.114099 
L 203.937696 51.836672 
L 205.114812 60.858613 
L 207.469044 60.858613 
L 208.64616 58.603128 
L 209.823276 58.603128 
L 211.000392 63.114099 
L 212.177508 60.858613 
L 213.354624 65.369584 
L 214.53174 56.347643 
L 215.708856 60.858613 
L 216.885972 51.836672 
L 218.063088 56.347643 
L 220.41732 56.347643 
L 221.594436 60.858613 
L 222.771552 56.347643 
L 223.948668 58.603128 
L 226.3029 49.581187 
L 227.480016 51.836672 
L 228.657132 47.325701 
L 229.834248 56.347643 
L 231.011364 51.836672 
L 232.18848 58.603128 
L 233.365596 49.581187 
L 234.542712 45.070216 
L 235.719828 56.347643 
L 236.896944 56.347643 
L 238.07406 60.858613 
L 239.251176 47.325701 
L 240.428292 49.581187 
L 241.605408 56.347643 
L 242.782524 54.092157 
L 243.959639 60.858613 
L 245.136755 51.836672 
L 246.313871 54.092157 
L 247.490987 51.836672 
L 248.668103 56.347643 
L 249.845219 47.325701 
L 251.022335 90.179947 
L 252.199451 60.858613 
L 253.376567 58.603128 
L 254.553683 60.858613 
L 255.730799 47.325701 
L 258.085031 47.325701 
L 259.262147 45.070216 
L 260.439263 47.325701 
L 261.616379 47.325701 
L 262.793495 45.070216 
L 263.970611 58.603128 
L 265.147727 54.092157 
L 266.324843 47.325701 
L 267.501959 45.070216 
L 268.679075 49.581187 
L 269.856191 56.347643 
L 271.033307 54.092157 
L 273.387539 54.092157 
L 274.564655 51.836672 
L 275.741771 56.347643 
L 276.918887 56.347643 
L 278.096003 51.836672 
L 279.273119 58.603128 
L 280.450235 54.092157 
L 281.627351 58.603128 
L 282.804467 60.858613 
L 283.981583 56.347643 
L 285.158699 47.325701 
L 286.335815 54.092157 
L 287.512931 45.070216 
L 288.690047 47.325701 
L 291.044279 42.81473 
L 292.221395 49.581187 
L 293.398511 51.836672 
L 294.575627 47.325701 
L 295.752743 47.325701 
L 298.106975 42.81473 
L 300.461207 42.81473 
L 301.638323 45.070216 
L 302.815439 45.070216 
L 303.992555 42.81473 
L 305.169671 45.070216 
L 306.346787 42.81473 
L 307.523903 51.836672 
L 309.878135 47.325701 
L 311.055251 51.836672 
L 312.232367 45.070216 
L 313.409483 47.325701 
L 314.586599 51.836672 
L 318.117947 58.603128 
L 319.295063 51.836672 
L 320.472179 51.836672 
L 321.649295 45.070216 
L 322.826411 49.581187 
L 324.003527 51.836672 
L 325.180643 49.581187 
L 326.357759 38.30376 
L 327.534875 51.836672 
L 328.711991 45.070216 
L 329.889107 54.092157 
L 331.066223 65.369584 
L 332.243339 60.858613 
L 333.420455 49.581187 
L 334.597571 60.858613 
L 335.774687 63.114099 
L 336.951803 54.092157 
L 338.128918 56.347643 
L 339.306034 54.092157 
L 341.660266 58.603128 
L 342.837382 54.092157 
L 344.014498 58.603128 
L 345.191614 56.347643 
L 346.36873 56.347643 
L 347.545846 60.858613 
L 348.722962 49.581187 
L 349.900078 45.070216 
L 352.25431 54.092157 
L 353.431426 47.325701 
L 354.608542 49.581187 
L 356.962774 40.559245 
L 358.13989 49.581187 
L 359.317006 40.559245 
L 360.494122 42.81473 
L 361.671238 56.347643 
L 362.848354 38.30376 
L 364.02547 36.048274 
L 365.202586 54.092157 
L 366.379702 51.836672 
L 367.556818 38.30376 
L 368.733934 45.070216 
L 369.91105 47.325701 
L 371.088166 40.559245 
L 372.265282 56.347643 
L 373.442398 42.81473 
L 374.619514 38.30376 
L 375.79663 42.81473 
L 376.973746 36.048274 
L 378.150862 42.81473 
L 379.327978 45.070216 
L 380.505094 38.30376 
L 381.68221 49.581187 
L 382.859326 38.30376 
L 384.036442 47.325701 
L 385.213558 36.048274 
L 386.390674 38.30376 
L 387.56779 45.070216 
L 389.922022 40.559245 
L 391.099138 42.81473 
L 392.276254 47.325701 
L 393.45337 40.559245 
L 394.630486 49.581187 
L 395.807602 42.81473 
L 396.984718 47.325701 
L 398.161834 40.559245 
L 399.33895 42.81473 
L 400.516066 40.559245 
L 401.693182 40.559245 
L 402.870298 45.070216 
L 405.22453 45.070216 
L 406.401646 40.559245 
L 407.578762 42.81473 
L 408.755878 42.81473 
L 409.932994 36.048274 
L 411.11011 40.559245 
L 413.464342 40.559245 
L 414.641458 33.792789 
L 415.818574 40.559245 
L 419.349922 40.559245 
L 420.527038 47.325701 
L 421.704154 42.81473 
L 422.88127 40.559245 
L 424.058386 45.070216 
L 425.235502 38.30376 
L 426.412618 42.81473 
L 427.589734 40.559245 
L 432.298197 40.559245 
L 433.475313 42.81473 
L 434.652429 38.30376 
L 435.829545 47.325701 
L 437.006661 45.070216 
L 439.360893 45.070216 
L 440.538009 87.924462 
L 441.715125 76.647035 
L 442.892241 63.114099 
L 444.069357 65.369584 
L 445.246473 58.603128 
L 446.423589 56.347643 
L 447.600705 60.858613 
L 448.777821 60.858613 
L 449.954937 58.603128 
L 451.132053 49.581187 
L 453.486285 49.581187 
L 454.663401 51.836672 
L 455.840517 51.836672 
L 457.017633 47.325701 
L 458.194749 56.347643 
L 459.371865 47.325701 
L 461.726097 47.325701 
L 462.903213 51.836672 
L 464.080329 47.325701 
L 465.257445 47.325701 
L 466.434561 45.070216 
L 467.611677 51.836672 
L 468.788793 51.836672 
L 469.965909 40.559245 
L 471.143025 45.070216 
L 472.320141 47.325701 
L 473.497257 47.325701 
L 474.674373 49.581187 
L 475.851489 45.070216 
L 477.028605 42.81473 
L 478.205721 54.092157 
L 479.382837 42.81473 
L 480.559953 45.070216 
L 481.737069 42.81473 
L 482.914185 42.81473 
L 484.091301 40.559245 
L 486.445533 45.070216 
L 487.622649 42.81473 
L 488.799765 38.30376 
L 489.976881 36.048274 
L 491.153997 38.30376 
L 492.331113 45.070216 
L 493.508229 45.070216 
L 494.685345 38.30376 
L 495.862461 45.070216 
L 497.039577 45.070216 
L 498.216693 36.048274 
L 499.393809 33.792789 
L 500.570925 33.792789 
L 501.748041 40.559245 
L 502.925157 33.792789 
L 504.102273 42.81473 
L 505.279389 45.070216 
L 506.456505 36.048274 
L 507.633621 40.559245 
L 508.810737 40.559245 
L 509.987853 45.070216 
L 511.164969 38.30376 
L 512.342085 42.81473 
L 513.519201 40.559245 
L 514.696317 33.792789 
L 515.873433 31.537304 
L 517.050549 49.581187 
L 518.227665 29.281818 
L 519.404781 38.30376 
L 520.581897 36.048274 
L 521.759013 36.048274 
L 524.113245 45.070216 
L 525.290361 47.325701 
L 526.467476 45.070216 
L 527.644592 49.581187 
L 528.821708 40.559245 
L 529.998824 36.048274 
L 531.17594 38.30376 
L 532.353056 36.048274 
L 533.530172 36.048274 
L 534.707288 42.81473 
L 535.884404 42.81473 
L 537.06152 45.070216 
L 538.238636 40.559245 
L 539.415752 47.325701 
L 540.592868 42.81473 
L 541.769984 45.070216 
L 542.9471 38.30376 
L 544.124216 40.559245 
L 545.301332 40.559245 
L 546.478448 47.325701 
L 547.655564 42.81473 
L 548.83268 40.559245 
L 550.009796 49.581187 
L 551.186912 42.81473 
L 552.364028 45.070216 
L 553.541144 36.048274 
L 554.71826 33.792789 
L 555.895376 33.792789 
L 557.072492 38.30376 
L 558.249608 38.30376 
L 559.426724 42.81473 
L 560.60384 40.559245 
L 565.312304 40.559245 
L 566.48942 36.048274 
L 567.666536 45.070216 
L 568.843652 38.30376 
L 571.197884 38.30376 
L 572.375 40.559245 
L 575.906348 40.559245 
L 577.083464 36.048274 
L 578.26058 40.559245 
L 579.437696 47.325701 
L 580.614812 38.30376 
L 581.791928 40.559245 
L 582.969044 36.048274 
L 584.14616 38.30376 
L 587.677508 38.30376 
L 590.03174 42.81473 
L 591.208856 38.30376 
L 595.91732 38.30376 
L 597.094436 47.325701 
L 598.271552 45.070216 
L 599.448668 36.048274 
L 601.8029 36.048274 
L 602.980016 38.30376 
L 604.157132 36.048274 
L 605.334248 40.559245 
L 606.511364 38.30376 
L 607.68848 38.30376 
L 608.865596 36.048274 
L 610.042712 40.559245 
L 611.219828 38.30376 
L 612.396944 38.30376 
L 613.57406 42.81473 
L 614.751176 33.792789 
L 615.928292 33.792789 
L 617.105408 40.559245 
L 618.282524 36.048274 
L 619.459639 38.30376 
L 620.636755 38.30376 
L 621.813871 36.048274 
L 622.990987 49.581187 
L 624.168103 38.30376 
L 625.345219 51.836672 
L 626.522335 45.070216 
L 627.699451 45.070216 
L 628.876567 40.559245 
L 631.230799 40.559245 
L 632.407915 36.048274 
L 633.585031 42.81473 
L 634.762147 36.048274 
L 635.939263 42.81473 
L 637.116379 45.070216 
L 639.470611 40.559245 
L 640.647727 42.81473 
L 641.824843 40.559245 
L 643.001959 40.559245 
L 644.179075 42.81473 
L 645.356191 42.81473 
L 646.533307 38.30376 
L 647.710423 38.30376 
L 648.887539 40.559245 
L 650.064655 40.559245 
L 651.241771 42.81473 
L 652.418887 38.30376 
L 653.596003 40.559245 
L 654.773119 36.048274 
L 655.950235 40.559245 
L 657.127351 40.559245 
L 658.304467 38.30376 
L 663.012931 38.30376 
L 664.190047 36.048274 
L 666.544279 40.559245 
L 667.721395 38.30376 
L 668.898511 33.792789 
L 671.252743 33.792789 
L 672.429859 47.325701 
L 673.606975 36.048274 
L 674.784091 38.30376 
L 674.784091 38.30376 
" style="fill:none;stroke:#ff7f0e;stroke-linecap:square;stroke-width:1.5;"/>
   </g>
   <g id="patch_3">
    <path d="M 65.45 304 
L 65.45 16.2 
" style="fill:none;stroke:#000000;stroke-linecap:square;stroke-linejoin:miter;stroke-width:0.8;"/>
   </g>
   <g id="patch_4">
    <path d="M 703.8 304 
L 703.8 16.2 
" style="fill:none;stroke:#000000;stroke-linecap:square;stroke-linejoin:miter;stroke-width:0.8;"/>
   </g>
   <g id="patch_5">
    <path d="M 65.45 304 
L 703.8 304 
" style="fill:none;stroke:#000000;stroke-linecap:square;stroke-linejoin:miter;stroke-width:0.8;"/>
   </g>
   <g id="patch_6">
    <path d="M 65.45 16.2 
L 703.8 16.2 
" style="fill:none;stroke:#000000;stroke-linecap:square;stroke-linejoin:miter;stroke-width:0.8;"/>
   </g>
   <g id="legend_1">
    <g id="patch_7">
     <path d="M 496.570313 296.5 
L 693.3 296.5 
Q 696.3 296.5 696.3 293.5 
L 696.3 250.965625 
Q 696.3 247.965625 693.3 247.965625 
L 496.570313 247.965625 
Q 493.570313 247.965625 493.570313 250.965625 
L 493.570313 293.5 
Q 493.570313 296.5 496.570313 296.5 
z
" style="fill:#ffffff;opacity:0.8;stroke:#cccccc;stroke-linejoin:miter;"/>
    </g>
    <g id="line2d_16">
     <path d="M 499.570313 260.113281 
L 529.570312 260.113281 
" style="fill:none;stroke:#1f77b4;stroke-linecap:square;stroke-width:1.5;"/>
    </g>
    <g id="line2d_17"/>
    <g id="text_16">
     <text style="font-family:DejaVu Sans;font-size:15px;font-style:normal;font-weight:normal;text-anchor:start;" transform="rotate(-0, 541.570312, 265.363281)" x="541.570312" y="265.363281">Training Accuracy</text>
    </g>
    <g id="line2d_18">
     <path d="M 499.570313 282.130469 
L 529.570312 282.130469 
" style="fill:none;stroke:#ff7f0e;stroke-linecap:square;stroke-width:1.5;"/>
    </g>
    <g id="line2d_19"/>
    <g id="text_17">
     <text style="font-family:DejaVu Sans;font-size:15px;font-style:normal;font-weight:normal;text-anchor:start;" transform="rotate(-0, 541.570312, 287.380469)" x="541.570312" y="287.380469">Validation Accuracy</text>
    </g>
   </g>
  </g>
 </g>
 <defs>
  <clipPath id="pe1704a0bf4">
   <rect height="287.8" width="638.35" x="65.45" y="16.2"/>
  </clipPath>
 </defs>
</svg>
