<?xml version="1.0" encoding="utf-8" standalone="no"?>
<!DOCTYPE svg PUBLIC "-//W3C//DTD SVG 1.1//EN"
  "http://www.w3.org/Graphics/SVG/1.1/DTD/svg11.dtd">
<!-- Created with matplotlib (https://matplotlib.org/) -->
<svg height="360pt" version="1.1" viewBox="0 0 720 360" width="720pt" xmlns="http://www.w3.org/2000/svg" xmlns:xlink="http://www.w3.org/1999/xlink">
 <defs>
  <style type="text/css">
*{stroke-linecap:butt;stroke-linejoin:round;}
  </style>
 </defs>
 <g id="figure_1">
  <g id="patch_1">
   <path d="M 0 360 
L 720 360 
L 720 0 
L 0 0 
z
" style="fill:#ffffff;"/>
  </g>
  <g id="axes_1">
   <g id="patch_2">
    <path d="M 65.45 304 
L 703.8 304 
L 703.8 16.2 
L 65.45 16.2 
z
" style="fill:#ffffff;"/>
   </g>
   <g id="matplotlib.axis_1">
    <g id="xtick_1">
     <g id="line2d_1">
      <defs>
       <path d="M 0 0 
L 0 3.5 
" id="mfb597bc7b6" style="stroke:#000000;stroke-width:0.8;"/>
      </defs>
      <g>
       <use style="stroke:#000000;stroke-width:0.8;" x="93.288793" xlink:href="#mfb597bc7b6" y="304"/>
      </g>
     </g>
     <g id="text_1">
      <text style="font-family:DejaVu Sans;font-size:15px;font-style:normal;font-weight:normal;text-anchor:middle;" transform="rotate(-0, 93.288793, 322.397656)" x="93.288793" y="322.397656">0</text>
     </g>
    </g>
    <g id="xtick_2">
     <g id="line2d_2">
      <g>
       <use style="stroke:#000000;stroke-width:0.8;" x="211.000392" xlink:href="#mfb597bc7b6" y="304"/>
      </g>
     </g>
     <g id="text_2">
      <text style="font-family:DejaVu Sans;font-size:15px;font-style:normal;font-weight:normal;text-anchor:middle;" transform="rotate(-0, 211.000392, 322.397656)" x="211.000392" y="322.397656">100</text>
     </g>
    </g>
    <g id="xtick_3">
     <g id="line2d_3">
      <g>
       <use style="stroke:#000000;stroke-width:0.8;" x="328.711991" xlink:href="#mfb597bc7b6" y="304"/>
      </g>
     </g>
     <g id="text_3">
      <text style="font-family:DejaVu Sans;font-size:15px;font-style:normal;font-weight:normal;text-anchor:middle;" transform="rotate(-0, 328.711991, 322.397656)" x="328.711991" y="322.397656">200</text>
     </g>
    </g>
    <g id="xtick_4">
     <g id="line2d_4">
      <g>
       <use style="stroke:#000000;stroke-width:0.8;" x="446.423589" xlink:href="#mfb597bc7b6" y="304"/>
      </g>
     </g>
     <g id="text_4">
      <text style="font-family:DejaVu Sans;font-size:15px;font-style:normal;font-weight:normal;text-anchor:middle;" transform="rotate(-0, 446.423589, 322.397656)" x="446.423589" y="322.397656">300</text>
     </g>
    </g>
    <g id="xtick_5">
     <g id="line2d_5">
      <g>
       <use style="stroke:#000000;stroke-width:0.8;" x="564.135188" xlink:href="#mfb597bc7b6" y="304"/>
      </g>
     </g>
     <g id="text_5">
      <text style="font-family:DejaVu Sans;font-size:15px;font-style:normal;font-weight:normal;text-anchor:middle;" transform="rotate(-0, 564.135188, 322.397656)" x="564.135188" y="322.397656">400</text>
     </g>
    </g>
    <g id="xtick_6">
     <g id="line2d_6">
      <g>
       <use style="stroke:#000000;stroke-width:0.8;" x="681.846787" xlink:href="#mfb597bc7b6" y="304"/>
      </g>
     </g>
     <g id="text_6">
      <text style="font-family:DejaVu Sans;font-size:15px;font-style:normal;font-weight:normal;text-anchor:middle;" transform="rotate(-0, 681.846787, 322.397656)" x="681.846787" y="322.397656">500</text>
     </g>
    </g>
    <g id="text_7">
     <text style="font-family:DejaVu Sans;font-size:15px;font-style:normal;font-weight:normal;text-anchor:middle;" transform="rotate(-0, 384.625, 340.914844)" x="384.625" y="340.914844">Epochs</text>
    </g>
   </g>
   <g id="matplotlib.axis_2">
    <g id="ytick_1">
     <g id="line2d_7">
      <defs>
       <path d="M 0 0 
L -3.5 0 
" id="m9bacc7977d" style="stroke:#000000;stroke-width:0.8;"/>
      </defs>
      <g>
       <use style="stroke:#000000;stroke-width:0.8;" x="65.45" xlink:href="#m9bacc7977d" y="286.469878"/>
      </g>
     </g>
     <g id="text_8">
      <text style="font-family:DejaVu Sans;font-size:15px;font-style:normal;font-weight:normal;text-anchor:end;" transform="rotate(-0, 58.45, 292.168706)" x="58.45" y="292.168706">0.2</text>
     </g>
    </g>
    <g id="ytick_2">
     <g id="line2d_8">
      <g>
       <use style="stroke:#000000;stroke-width:0.8;" x="65.45" xlink:href="#m9bacc7977d" y="234.263292"/>
      </g>
     </g>
     <g id="text_9">
      <text style="font-family:DejaVu Sans;font-size:15px;font-style:normal;font-weight:normal;text-anchor:end;" transform="rotate(-0, 58.45, 239.96212)" x="58.45" y="239.96212">0.4</text>
     </g>
    </g>
    <g id="ytick_3">
     <g id="line2d_9">
      <g>
       <use style="stroke:#000000;stroke-width:0.8;" x="65.45" xlink:href="#m9bacc7977d" y="182.056705"/>
      </g>
     </g>
     <g id="text_10">
      <text style="font-family:DejaVu Sans;font-size:15px;font-style:normal;font-weight:normal;text-anchor:end;" transform="rotate(-0, 58.45, 187.755533)" x="58.45" y="187.755533">0.6</text>
     </g>
    </g>
    <g id="ytick_4">
     <g id="line2d_10">
      <g>
       <use style="stroke:#000000;stroke-width:0.8;" x="65.45" xlink:href="#m9bacc7977d" y="129.850119"/>
      </g>
     </g>
     <g id="text_11">
      <text style="font-family:DejaVu Sans;font-size:15px;font-style:normal;font-weight:normal;text-anchor:end;" transform="rotate(-0, 58.45, 135.548947)" x="58.45" y="135.548947">0.8</text>
     </g>
    </g>
    <g id="ytick_5">
     <g id="line2d_11">
      <g>
       <use style="stroke:#000000;stroke-width:0.8;" x="65.45" xlink:href="#m9bacc7977d" y="77.643533"/>
      </g>
     </g>
     <g id="text_12">
      <text style="font-family:DejaVu Sans;font-size:15px;font-style:normal;font-weight:normal;text-anchor:end;" transform="rotate(-0, 58.45, 83.342361)" x="58.45" y="83.342361">1.0</text>
     </g>
    </g>
    <g id="ytick_6">
     <g id="line2d_12">
      <g>
       <use style="stroke:#000000;stroke-width:0.8;" x="65.45" xlink:href="#m9bacc7977d" y="25.436946"/>
      </g>
     </g>
     <g id="text_13">
      <text style="font-family:DejaVu Sans;font-size:15px;font-style:normal;font-weight:normal;text-anchor:end;" transform="rotate(-0, 58.45, 31.135774)" x="58.45" y="31.135774">1.2</text>
     </g>
    </g>
    <g id="text_14">
     <text style="font-family:DejaVu Sans;font-size:15px;font-style:normal;font-weight:normal;text-anchor:middle;" transform="rotate(-90, 27.475781, 160.1)" x="27.475781" y="160.1">Loss</text>
    </g>
   </g>
   <g id="line2d_13">
    <path clip-path="url(#p98f2e0d49f)" d="M 94.465909 30.828765 
L 95.643025 29.281818 
L 96.820141 36.552372 
L 97.997257 45.762575 
L 99.174373 44.636711 
L 100.351489 40.190947 
L 101.528605 53.70116 
L 102.705721 59.379242 
L 103.882837 68.730346 
L 105.059953 68.394743 
L 106.237069 85.794822 
L 107.414185 93.521683 
L 108.591301 108.267745 
L 109.768417 124.679437 
L 110.945533 143.170668 
L 112.122649 150.443244 
L 113.299765 164.643458 
L 114.476881 181.399403 
L 115.653997 187.215444 
L 116.831113 203.044896 
L 118.008229 197.074962 
L 119.185345 196.7306 
L 120.362461 199.59105 
L 121.539577 208.213552 
L 122.716693 209.451322 
L 123.893809 208.007367 
L 125.070925 217.187807 
L 126.248041 222.85411 
L 127.425157 216.578105 
L 128.602273 218.962005 
L 129.779389 228.825996 
L 130.956505 222.198394 
L 132.133621 231.592393 
L 133.310737 235.403126 
L 134.487853 228.679448 
L 135.664969 234.200674 
L 136.842085 231.679631 
L 138.019201 245.059361 
L 139.196317 233.398876 
L 140.373433 243.631307 
L 141.550549 235.722594 
L 142.727665 231.655165 
L 143.904781 246.373673 
L 145.081897 241.900541 
L 146.259013 247.771854 
L 147.436129 246.880928 
L 148.613245 249.048958 
L 149.790361 244.601886 
L 150.967476 249.452622 
L 152.144592 241.707207 
L 153.321708 237.226949 
L 154.498824 249.368652 
L 155.67594 247.016989 
L 156.853056 243.314437 
L 158.030172 250.329888 
L 159.207288 244.48865 
L 160.384404 245.335109 
L 161.56152 243.401449 
L 162.738636 246.149712 
L 163.915752 242.718349 
L 165.092868 253.670085 
L 166.269984 251.177686 
L 167.4471 253.232028 
L 168.624216 246.031839 
L 169.801332 249.335177 
L 170.978448 255.074762 
L 172.155564 244.678148 
L 173.33268 247.61177 
L 174.509796 249.518584 
L 175.686912 247.098525 
L 176.864028 254.019605 
L 178.041144 257.688038 
L 179.21826 258.407016 
L 180.395376 249.528744 
L 181.572492 263.102834 
L 182.749608 258.165552 
L 183.926724 254.79584 
L 185.10384 258.183087 
L 186.280956 261.171857 
L 187.458072 256.931609 
L 188.635188 255.358407 
L 189.812304 256.264161 
L 190.98942 259.090669 
L 192.166536 257.699606 
L 193.343652 257.630369 
L 194.520768 260.996059 
L 195.697884 261.207674 
L 196.875 256.914471 
L 198.052116 255.384211 
L 199.229232 264.631102 
L 200.406348 261.970007 
L 201.583464 257.085936 
L 202.76058 256.677417 
L 203.937696 261.167882 
L 205.114812 258.597448 
L 206.291928 264.727808 
L 207.469044 267.174736 
L 208.64616 262.336323 
L 209.823276 256.206337 
L 212.177508 264.602264 
L 213.354624 263.256866 
L 214.53174 264.991086 
L 215.708856 267.160088 
L 218.063088 255.961169 
L 219.240204 261.133311 
L 220.41732 267.538376 
L 221.594436 253.118176 
L 222.771552 263.313826 
L 223.948668 272.353101 
L 225.125784 257.807031 
L 226.3029 257.461611 
L 227.480016 263.016459 
L 228.657132 271.195209 
L 229.834248 262.464947 
L 231.011364 267.108837 
L 232.18848 262.015773 
L 233.365596 257.86978 
L 234.542712 261.9309 
L 235.719828 249.20849 
L 236.896944 264.500284 
L 238.07406 266.914002 
L 239.251176 266.213912 
L 240.428292 256.833285 
L 241.605408 252.825065 
L 242.782524 261.615773 
L 243.959639 260.397839 
L 245.136755 262.258474 
L 246.313871 253.149667 
L 247.490987 259.068972 
L 248.668103 263.324912 
L 249.845219 263.565365 
L 251.022335 261.896733 
L 252.199451 221.253665 
L 253.376567 231.886042 
L 254.553683 244.101446 
L 255.730799 263.189177 
L 256.907915 258.120525 
L 258.085031 257.680601 
L 259.262147 264.323863 
L 260.439263 263.875397 
L 261.616379 259.301716 
L 262.793495 260.961402 
L 263.970611 268.068635 
L 265.147727 256.155335 
L 266.324843 255.664619 
L 267.501959 264.528702 
L 268.679075 263.248861 
L 269.856191 266.481601 
L 271.033307 259.904899 
L 272.210423 270.110133 
L 273.387539 265.942909 
L 274.564655 265.090335 
L 275.741771 274.27065 
L 276.918887 259.244631 
L 278.096003 265.61966 
L 279.273119 264.360107 
L 280.450235 272.506635 
L 281.627351 271.291604 
L 282.804467 269.733361 
L 283.981583 269.333221 
L 285.158699 265.628762 
L 286.335815 263.399796 
L 287.512931 264.833397 
L 288.690047 272.630079 
L 289.867163 269.865634 
L 291.044279 268.736036 
L 292.221395 272.029875 
L 293.398511 268.359467 
L 294.575627 268.899528 
L 295.752743 272.403916 
L 296.929859 266.136087 
L 298.106975 279.080716 
L 299.284091 271.770339 
L 300.461207 268.079891 
L 301.638323 270.52528 
L 302.815439 276.240337 
L 303.992555 268.279347 
L 306.346787 275.99557 
L 307.523903 261.311404 
L 309.878135 271.720933 
L 311.055251 278.504679 
L 312.232367 277.834182 
L 313.409483 267.644308 
L 314.586599 269.799564 
L 315.763715 278.451359 
L 316.940831 269.216522 
L 318.117947 265.052745 
L 319.295063 263.823252 
L 320.472179 267.472041 
L 321.649295 264.65945 
L 322.826411 260.475159 
L 324.003527 267.750092 
L 325.180643 265.478184 
L 326.357759 267.691894 
L 327.534875 268.640925 
L 328.711991 274.394778 
L 329.889107 269.273133 
L 331.066223 265.365647 
L 332.243339 240.378146 
L 333.420455 247.139134 
L 334.597571 242.352795 
L 335.774687 243.767111 
L 336.951803 248.841419 
L 338.128918 250.45232 
L 339.306034 259.972408 
L 340.48315 250.88231 
L 341.660266 245.365534 
L 342.837382 257.455348 
L 344.014498 257.128357 
L 345.191614 256.660754 
L 346.36873 262.922033 
L 347.545846 263.260965 
L 348.722962 270.788713 
L 349.900078 265.07746 
L 351.077194 264.694753 
L 352.25431 265.869301 
L 353.431426 264.918675 
L 354.608542 265.791569 
L 355.785658 268.839043 
L 356.962774 263.648091 
L 358.13989 264.958902 
L 359.317006 274.136051 
L 360.494122 267.592824 
L 362.848354 266.880465 
L 364.02547 270.675842 
L 365.202586 276.137847 
L 366.379702 261.981785 
L 367.556818 270.900036 
L 368.733934 268.230586 
L 369.91105 271.674536 
L 371.088166 269.391278 
L 372.265282 272.660418 
L 373.442398 279.827618 
L 374.619514 267.380804 
L 375.79663 280.471052 
L 376.973746 267.738765 
L 378.150862 279.515113 
L 379.327978 264.986449 
L 380.505094 270.352997 
L 381.68221 272.858971 
L 382.859326 269.902252 
L 384.036442 268.622387 
L 385.213558 273.037392 
L 386.390674 269.825407 
L 387.56779 274.323344 
L 388.744906 274.888594 
L 389.922022 272.259375 
L 391.099138 272.619187 
L 392.276254 272.365416 
L 393.45337 275.356976 
L 394.630486 270.837809 
L 395.807602 268.884241 
L 398.161834 284.676141 
L 399.33895 272.311349 
L 400.516066 277.882484 
L 401.693182 270.291984 
L 402.870298 277.454785 
L 404.047414 276.653702 
L 405.22453 276.533032 
L 406.401646 278.452639 
L 407.578762 278.645614 
L 408.755878 283.185786 
L 409.932994 271.365842 
L 411.11011 273.020526 
L 412.287226 276.26856 
L 413.464342 271.10927 
L 414.641458 277.558558 
L 415.818574 277.721622 
L 416.99569 277.297723 
L 418.172806 271.992768 
L 419.349922 270.02207 
L 420.527038 272.277112 
L 421.704154 272.857073 
L 422.88127 273.719846 
L 424.058386 276.764741 
L 425.235502 273.286939 
L 426.412618 285.74487 
L 427.589734 278.393356 
L 428.76685 278.717815 
L 429.943966 277.965338 
L 431.121082 282.559658 
L 432.298197 279.209087 
L 433.475313 274.139186 
L 434.652429 272.338873 
L 435.829545 280.17349 
L 437.006661 276.166981 
L 438.183777 278.523731 
L 439.360893 271.041403 
L 440.538009 276.066926 
L 441.715125 233.758042 
L 442.892241 225.031009 
L 444.069357 231.527591 
L 445.246473 247.425664 
L 446.423589 246.050439 
L 447.600705 255.622143 
L 448.777821 254.249976 
L 449.954937 246.301753 
L 451.132053 253.997823 
L 452.309169 257.936962 
L 453.486285 260.482689 
L 454.663401 267.623895 
L 455.840517 259.069875 
L 457.017633 260.810692 
L 458.194749 262.334611 
L 459.371865 258.928959 
L 460.548981 260.900225 
L 461.726097 266.19178 
L 462.903213 262.570062 
L 464.080329 271.840548 
L 465.257445 268.068463 
L 466.434561 266.673082 
L 467.611677 266.714414 
L 468.788793 268.96941 
L 469.965909 262.58023 
L 471.143025 258.794796 
L 472.320141 263.517973 
L 473.497257 260.259732 
L 474.674373 270.186721 
L 475.851489 266.909381 
L 477.028605 260.541408 
L 478.205721 262.572489 
L 479.382837 267.592521 
L 480.559953 268.289235 
L 481.737069 271.055204 
L 482.914185 267.792108 
L 484.091301 269.268955 
L 485.268417 262.886574 
L 486.445533 269.146407 
L 487.622649 263.148195 
L 488.799765 270.940948 
L 489.976881 276.078599 
L 491.153997 268.461929 
L 492.331113 268.762502 
L 493.508229 267.919955 
L 494.685345 265.020888 
L 495.862461 272.963635 
L 497.039577 261.137877 
L 498.216693 263.939647 
L 499.393809 272.209688 
L 500.570925 276.97426 
L 501.748041 269.218156 
L 502.925157 274.395241 
L 504.102273 269.455427 
L 505.279389 272.303336 
L 506.456505 274.617794 
L 507.633621 268.181591 
L 508.810737 270.098362 
L 509.987853 267.548162 
L 511.164969 276.61181 
L 512.342085 268.925184 
L 513.519201 280.109232 
L 514.696317 269.824971 
L 515.873433 273.202416 
L 517.050549 275.530343 
L 518.227665 272.149865 
L 519.404781 267.711218 
L 520.581897 278.345933 
L 521.759013 264.554996 
L 522.936129 275.482099 
L 524.113245 272.890875 
L 525.290361 277.99448 
L 526.467476 265.16525 
L 527.644592 271.769219 
L 528.821708 276.169478 
L 529.998824 270.691782 
L 531.17594 274.743042 
L 532.353056 275.276638 
L 533.530172 275.541927 
L 534.707288 271.85764 
L 535.884404 276.405723 
L 537.06152 275.926396 
L 538.238636 279.468044 
L 539.415752 267.471987 
L 540.592868 270.440593 
L 541.769984 275.145353 
L 542.9471 272.738399 
L 544.124216 276.12915 
L 545.301332 277.494545 
L 546.478448 274.661405 
L 547.655564 278.782403 
L 548.83268 268.817525 
L 550.009796 275.254797 
L 551.186912 274.531112 
L 552.364028 282.674905 
L 553.541144 273.052305 
L 554.71826 270.01163 
L 555.895376 263.105945 
L 557.072492 280.947469 
L 558.249608 269.743288 
L 559.426724 280.359417 
L 560.60384 277.451113 
L 561.780956 272.823054 
L 562.958072 280.172269 
L 564.135188 269.379057 
L 565.312304 279.65604 
L 566.48942 276.320227 
L 567.666536 281.372056 
L 568.843652 267.330713 
L 570.020768 277.943805 
L 571.197884 269.839324 
L 572.375 276.252274 
L 573.552116 280.713403 
L 574.729232 278.423011 
L 575.906348 281.675861 
L 577.083464 283.460441 
L 578.26058 280.348744 
L 579.437696 280.008695 
L 580.614812 276.842395 
L 581.791928 277.389142 
L 582.969044 283.335395 
L 584.14616 266.949103 
L 585.323276 277.862825 
L 586.500392 276.671536 
L 587.677508 287.772408 
L 588.854624 277.746014 
L 590.03174 281.254829 
L 591.208856 276.889142 
L 592.385972 279.211468 
L 593.563088 270.855989 
L 594.740204 270.076712 
L 595.91732 281.199148 
L 597.094436 270.774803 
L 598.271552 274.585949 
L 599.448668 276.333254 
L 600.625784 287.67261 
L 601.8029 277.045122 
L 602.980016 283.981928 
L 604.157132 269.022621 
L 605.334248 279.747086 
L 606.511364 277.227004 
L 607.68848 282.062255 
L 608.865596 279.947686 
L 610.042712 289.779528 
L 611.219828 281.020798 
L 612.396944 283.102383 
L 613.57406 283.729296 
L 614.751176 287.242697 
L 615.928292 281.598553 
L 617.105408 271.780414 
L 618.282524 284.185593 
L 619.459639 271.000141 
L 620.636755 278.79112 
L 621.813871 275.344953 
L 622.990987 279.523806 
L 624.168103 269.05997 
L 625.345219 271.697618 
L 626.522335 283.83883 
L 627.699451 283.537445 
L 628.876567 272.61368 
L 630.053683 284.0138 
L 631.230799 287.389098 
L 632.407915 280.675949 
L 633.585031 271.536701 
L 634.762147 273.324653 
L 635.939263 281.837509 
L 637.116379 279.928708 
L 638.293495 279.857515 
L 639.470611 272.949726 
L 640.647727 286.72874 
L 641.824843 278.610848 
L 643.001959 285.338105 
L 644.179075 281.469941 
L 645.356191 279.186535 
L 646.533307 279.497745 
L 647.710423 268.250641 
L 648.887539 274.850285 
L 650.064655 287.227648 
L 651.241771 285.95375 
L 652.418887 278.203594 
L 653.596003 285.660315 
L 654.773119 270.13067 
L 655.950235 278.29217 
L 658.304467 286.325473 
L 659.481583 281.004504 
L 660.658699 281.747999 
L 661.835815 268.166616 
L 663.012931 275.897052 
L 664.190047 285.505564 
L 665.367163 277.267193 
L 666.544279 278.242195 
L 667.721395 285.075329 
L 668.898511 277.352509 
L 670.075627 283.166901 
L 671.252743 287.278588 
L 672.429859 272.090135 
L 673.606975 289.171939 
L 674.784091 279.474609 
L 674.784091 279.474609 
" style="fill:none;stroke:#1f77b4;stroke-linecap:square;stroke-width:1.5;"/>
   </g>
   <g id="line2d_14">
    <path clip-path="url(#p98f2e0d49f)" d="M 94.465909 51.21213 
L 95.643025 59.595509 
L 96.820141 49.60301 
L 97.997257 69.164218 
L 99.174373 72.720207 
L 100.351489 75.667693 
L 101.528605 79.762202 
L 102.705721 83.225974 
L 103.882837 93.062714 
L 105.059953 110.435907 
L 106.237069 104.971572 
L 108.591301 145.986619 
L 109.768417 167.764735 
L 110.945533 181.927312 
L 112.122649 175.273944 
L 113.299765 193.776502 
L 115.653997 200.745418 
L 116.831113 198.634325 
L 118.008229 213.352646 
L 119.185345 198.501842 
L 120.362461 227.849597 
L 121.539577 224.569543 
L 123.893809 235.636539 
L 125.070925 232.137845 
L 126.248041 238.995297 
L 127.425157 232.281328 
L 128.602273 238.425146 
L 129.779389 239.977001 
L 130.956505 235.413768 
L 132.133621 239.27145 
L 133.310737 240.077216 
L 134.487853 241.888047 
L 135.664969 245.358899 
L 136.842085 245.633861 
L 138.019201 246.563366 
L 139.196317 242.994081 
L 140.373433 243.020695 
L 141.550549 248.162014 
L 142.727665 242.706882 
L 143.904781 248.606381 
L 145.081897 250.201241 
L 146.259013 253.200296 
L 147.436129 252.874666 
L 148.613245 254.554415 
L 149.790361 253.388432 
L 150.967476 255.777404 
L 152.144592 254.679251 
L 153.321708 256.772917 
L 154.498824 256.807481 
L 155.67594 255.041996 
L 156.853056 255.384281 
L 158.030172 252.212181 
L 159.207288 255.447006 
L 160.384404 254.861763 
L 161.56152 254.921236 
L 162.738636 256.461889 
L 163.915752 254.186597 
L 165.092868 258.784208 
L 166.269984 259.22414 
L 167.4471 260.080355 
L 168.624216 261.909009 
L 169.801332 263.371938 
L 170.978448 262.283065 
L 172.155564 262.840661 
L 173.33268 261.291676 
L 174.509796 258.009606 
L 175.686912 262.50386 
L 176.864028 265.156429 
L 178.041144 265.899345 
L 179.21826 265.692039 
L 180.395376 265.924666 
L 181.572492 265.899298 
L 182.749608 265.057864 
L 183.926724 265.270622 
L 185.10384 266.937869 
L 186.280956 265.632776 
L 187.458072 265.566675 
L 188.635188 266.101826 
L 189.812304 267.282963 
L 190.98942 267.693761 
L 192.166536 267.166156 
L 193.343652 267.473543 
L 194.520768 266.77735 
L 195.697884 269.373876 
L 196.875 270.071578 
L 198.052116 270.516551 
L 199.229232 269.397595 
L 200.406348 269.824108 
L 201.583464 271.147405 
L 202.76058 265.719174 
L 203.937696 271.621854 
L 205.114812 272.907188 
L 206.291928 272.643568 
L 207.469044 272.006195 
L 208.64616 271.797793 
L 209.823276 270.807057 
L 211.000392 266.309085 
L 212.177508 266.281281 
L 213.354624 265.759518 
L 214.53174 269.810074 
L 215.708856 269.212111 
L 216.885972 271.922668 
L 218.063088 271.428054 
L 219.240204 271.742715 
L 220.41732 273.065545 
L 221.594436 270.819442 
L 222.771552 273.744585 
L 223.948668 274.412356 
L 225.125784 274.442874 
L 226.3029 274.122449 
L 227.480016 274.126743 
L 228.657132 272.355987 
L 229.834248 271.723873 
L 231.011364 272.132019 
L 232.18848 273.038831 
L 233.365596 274.838234 
L 234.542712 275.113263 
L 235.719828 270.962956 
L 236.896944 272.308728 
L 238.07406 270.292715 
L 239.251176 269.741919 
L 240.428292 276.776897 
L 241.605408 273.991537 
L 242.782524 271.537852 
L 243.959639 271.794152 
L 245.136755 276.720025 
L 246.313871 275.154906 
L 247.490987 271.004101 
L 248.668103 269.776537 
L 249.845219 271.652855 
L 251.022335 228.169797 
L 252.199451 263.617082 
L 253.376567 260.75391 
L 254.553683 270.765873 
L 255.730799 272.263218 
L 256.907915 277.205214 
L 258.085031 274.393915 
L 259.262147 275.644307 
L 260.439263 276.576138 
L 261.616379 277.759725 
L 262.793495 276.799227 
L 263.970611 272.658217 
L 265.147727 272.783496 
L 266.324843 273.884221 
L 267.501959 274.265819 
L 268.679075 275.543661 
L 269.856191 273.081929 
L 271.033307 272.483904 
L 272.210423 271.670966 
L 273.387539 272.115845 
L 274.564655 272.049495 
L 275.741771 269.935478 
L 278.096003 273.789075 
L 279.273119 272.161121 
L 280.450235 272.456567 
L 281.627351 273.942765 
L 282.804467 274.240474 
L 283.981583 275.272429 
L 285.158699 273.717699 
L 286.335815 273.71104 
L 288.690047 280.219591 
L 289.867163 282.129718 
L 291.044279 279.672392 
L 292.221395 279.975637 
L 293.398511 278.115286 
L 294.575627 279.155324 
L 295.752743 281.716376 
L 296.929859 283.784339 
L 298.106975 284.018981 
L 299.284091 286.045103 
L 300.461207 278.223781 
L 301.638323 280.242489 
L 302.815439 284.393952 
L 303.992555 279.657188 
L 305.169671 284.634249 
L 306.346787 281.908286 
L 307.523903 281.986904 
L 308.701019 282.455091 
L 309.878135 280.76104 
L 311.055251 282.308535 
L 312.232367 282.351131 
L 313.409483 282.626039 
L 314.586599 281.112727 
L 315.763715 275.581948 
L 316.940831 272.025457 
L 318.117947 263.948445 
L 319.295063 264.685853 
L 320.472179 268.617859 
L 321.649295 272.151996 
L 322.826411 276.260338 
L 324.003527 273.865725 
L 325.180643 269.347216 
L 326.357759 275.664681 
L 327.534875 279.08718 
L 328.711991 278.560831 
L 329.889107 271.160155 
L 331.066223 252.727939 
L 332.243339 246.549876 
L 333.420455 249.788497 
L 334.597571 250.904186 
L 335.774687 249.968458 
L 336.951803 253.166385 
L 338.128918 255.351561 
L 339.306034 256.145821 
L 341.660266 260.114429 
L 342.837382 262.793525 
L 344.014498 261.711249 
L 345.191614 260.856465 
L 346.36873 263.798132 
L 347.545846 263.935539 
L 348.722962 269.209816 
L 349.900078 272.095549 
L 351.077194 272.931833 
L 352.25431 271.105155 
L 353.431426 269.702057 
L 354.608542 269.164167 
L 355.785658 269.801657 
L 356.962774 274.342007 
L 358.13989 274.946905 
L 359.317006 272.978128 
L 360.494122 273.013058 
L 361.671238 273.395251 
L 362.848354 277.426125 
L 364.02547 278.206098 
L 365.202586 279.348564 
L 366.379702 278.215379 
L 367.556818 276.375659 
L 368.733934 279.996719 
L 369.91105 280.447628 
L 371.088166 280.185202 
L 372.265282 278.371838 
L 373.442398 279.269992 
L 374.619514 282.615074 
L 375.79663 283.790034 
L 376.973746 282.420492 
L 378.150862 282.677655 
L 379.327978 282.49004 
L 380.505094 281.078754 
L 381.68221 282.335697 
L 382.859326 279.265449 
L 385.213558 282.134156 
L 386.390674 283.695129 
L 387.56779 284.766394 
L 388.744906 284.577094 
L 389.922022 283.751199 
L 391.099138 281.1481 
L 392.276254 282.731679 
L 393.45337 281.922584 
L 394.630486 283.732564 
L 395.807602 281.408888 
L 396.984718 281.411132 
L 398.161834 284.860116 
L 400.516066 286.377925 
L 401.693182 283.830728 
L 402.870298 284.677331 
L 404.047414 283.248285 
L 405.22453 282.461805 
L 406.401646 281.368486 
L 407.578762 284.86576 
L 408.755878 287.438011 
L 409.932994 287.366681 
L 411.11011 283.412881 
L 412.287226 282.536475 
L 413.464342 282.950385 
L 414.641458 283.572098 
L 415.818574 285.278694 
L 416.99569 281.940205 
L 418.172806 286.533089 
L 419.349922 284.582625 
L 420.527038 285.747394 
L 421.704154 286.192449 
L 422.88127 282.038377 
L 424.058386 284.907874 
L 425.235502 287.314836 
L 426.412618 288.955901 
L 427.589734 287.216446 
L 428.76685 285.820995 
L 429.943966 286.882827 
L 431.121082 287.300401 
L 432.298197 288.739658 
L 433.475313 290.661513 
L 434.652429 283.62585 
L 435.829545 283.593604 
L 437.006661 284.249909 
L 438.183777 289.382017 
L 439.360893 290.918182 
L 440.538009 233.303003 
L 441.715125 239.189113 
L 442.892241 251.018527 
L 444.069357 245.022246 
L 445.246473 249.403099 
L 446.423589 251.49454 
L 447.600705 254.123561 
L 448.777821 254.80982 
L 449.954937 256.486729 
L 451.132053 258.71536 
L 452.309169 260.666617 
L 453.486285 261.356159 
L 454.663401 262.392257 
L 455.840517 265.090724 
L 457.017633 263.939437 
L 458.194749 265.988185 
L 459.371865 266.007805 
L 460.548981 266.21763 
L 461.726097 265.289596 
L 462.903213 265.124533 
L 464.080329 267.144342 
L 465.257445 267.925673 
L 466.434561 269.779221 
L 467.611677 270.199401 
L 468.788793 268.042729 
L 469.965909 266.229284 
L 471.143025 269.31872 
L 472.320141 268.301425 
L 473.497257 266.233259 
L 474.674373 267.475106 
L 475.851489 268.290651 
L 477.028605 266.472787 
L 478.205721 268.22665 
L 479.382837 269.404822 
L 480.559953 272.39805 
L 481.737069 273.013742 
L 482.914185 271.757916 
L 484.091301 273.086799 
L 485.268417 269.68404 
L 486.445533 271.792067 
L 487.622649 269.543498 
L 488.799765 273.607551 
L 489.976881 272.516577 
L 491.153997 273.514019 
L 492.331113 271.067822 
L 493.508229 270.382077 
L 494.685345 272.063148 
L 495.862461 270.879242 
L 497.039577 273.131063 
L 498.216693 273.742325 
L 499.393809 273.178658 
L 500.570925 274.475497 
L 501.748041 274.288912 
L 502.925157 272.996285 
L 504.102273 268.590546 
L 505.279389 271.363688 
L 506.456505 269.157383 
L 507.633621 270.652333 
L 508.810737 271.392308 
L 509.987853 274.57985 
L 511.164969 274.771627 
L 512.342085 273.887772 
L 513.519201 279.001658 
L 514.696317 276.134949 
L 515.873433 272.558594 
L 517.050549 273.200697 
L 518.227665 269.990291 
L 519.404781 273.819998 
L 520.581897 274.386011 
L 521.759013 275.390135 
L 522.936129 273.869249 
L 524.113245 276.816163 
L 525.290361 276.05169 
L 526.467476 275.568734 
L 527.644592 267.671551 
L 528.821708 274.966734 
L 529.998824 277.12695 
L 531.17594 277.998517 
L 532.353056 279.38818 
L 533.530172 279.812145 
L 534.707288 276.219982 
L 535.884404 275.360223 
L 537.06152 272.585269 
L 538.238636 274.621882 
L 539.415752 271.011165 
L 540.592868 272.489186 
L 541.769984 275.152673 
L 542.9471 272.520008 
L 544.124216 274.258094 
L 545.301332 274.538526 
L 546.478448 271.730291 
L 548.83268 273.939338 
L 550.009796 269.541724 
L 551.186912 273.484166 
L 552.364028 273.15735 
L 553.541144 275.567816 
L 554.71826 275.822078 
L 555.895376 274.666123 
L 557.072492 273.865764 
L 558.249608 275.572994 
L 559.426724 272.648835 
L 560.60384 274.449627 
L 561.780956 275.723097 
L 562.958072 275.295468 
L 564.135188 277.535885 
L 565.312304 276.605003 
L 566.48942 278.032898 
L 567.666536 275.778622 
L 568.843652 280.056998 
L 570.020768 281.09115 
L 571.197884 282.694054 
L 572.375 280.921396 
L 574.729232 278.824863 
L 575.906348 274.641898 
L 577.083464 279.95238 
L 578.26058 278.607694 
L 579.437696 275.359504 
L 580.614812 278.073592 
L 581.791928 277.527674 
L 582.969044 277.490119 
L 584.14616 278.619499 
L 585.323276 279.118022 
L 586.500392 278.290734 
L 587.677508 279.209783 
L 588.854624 279.51381 
L 590.03174 278.285619 
L 591.208856 278.781388 
L 592.385972 278.992427 
L 593.563088 277.888252 
L 594.740204 278.908425 
L 595.91732 280.437456 
L 597.094436 274.331053 
L 598.271552 279.965578 
L 599.448668 279.130519 
L 600.625784 280.476381 
L 601.8029 280.796502 
L 602.980016 280.288641 
L 604.157132 275.801482 
L 605.334248 277.232843 
L 606.511364 278.195651 
L 607.68848 279.944453 
L 608.865596 279.476597 
L 610.042712 277.502554 
L 611.219828 278.168754 
L 612.396944 276.771599 
L 613.57406 273.943663 
L 614.751176 278.78998 
L 615.928292 278.858777 
L 617.105408 277.37955 
L 618.282524 279.920493 
L 619.459639 278.435552 
L 620.636755 277.903803 
L 621.813871 279.147821 
L 622.990987 273.621367 
L 624.168103 282.682506 
L 625.345219 276.673022 
L 626.522335 281.496402 
L 627.699451 281.875309 
L 628.876567 280.979614 
L 630.053683 279.919555 
L 631.230799 277.991076 
L 632.407915 275.750663 
L 633.585031 275.784737 
L 634.762147 279.884073 
L 635.939263 275.531494 
L 637.116379 274.362482 
L 638.293495 277.09885 
L 639.470611 277.146635 
L 640.647727 276.974707 
L 641.824843 279.732422 
L 643.001959 283.370192 
L 644.179075 279.399807 
L 646.533307 278.85467 
L 647.710423 281.981428 
L 648.887539 281.495706 
L 650.064655 279.080961 
L 651.241771 277.660479 
L 652.418887 281.664017 
L 653.596003 278.13545 
L 654.773119 282.416556 
L 655.950235 278.858602 
L 657.127351 278.720168 
L 658.304467 281.723766 
L 660.658699 285.290122 
L 661.835815 283.445306 
L 663.012931 284.517846 
L 664.190047 286.66346 
L 665.367163 287.204785 
L 666.544279 279.55497 
L 667.721395 282.870884 
L 668.898511 281.619239 
L 670.075627 281.940103 
L 671.252743 285.426615 
L 672.429859 284.757416 
L 673.606975 289.112878 
L 674.784091 286.292612 
L 674.784091 286.292612 
" style="fill:none;stroke:#ff7f0e;stroke-linecap:square;stroke-width:1.5;"/>
   </g>
   <g id="patch_3">
    <path d="M 65.45 304 
L 65.45 16.2 
" style="fill:none;stroke:#000000;stroke-linecap:square;stroke-linejoin:miter;stroke-width:0.8;"/>
   </g>
   <g id="patch_4">
    <path d="M 703.8 304 
L 703.8 16.2 
" style="fill:none;stroke:#000000;stroke-linecap:square;stroke-linejoin:miter;stroke-width:0.8;"/>
   </g>
   <g id="patch_5">
    <path d="M 65.45 304 
L 703.8 304 
" style="fill:none;stroke:#000000;stroke-linecap:square;stroke-linejoin:miter;stroke-width:0.8;"/>
   </g>
   <g id="patch_6">
    <path d="M 65.45 16.2 
L 703.8 16.2 
" style="fill:none;stroke:#000000;stroke-linecap:square;stroke-linejoin:miter;stroke-width:0.8;"/>
   </g>
   <g id="legend_1">
    <g id="patch_7">
     <path d="M 532.153125 72.234375 
L 693.3 72.234375 
Q 696.3 72.234375 696.3 69.234375 
L 696.3 26.7 
Q 696.3 23.7 693.3 23.7 
L 532.153125 23.7 
Q 529.153125 23.7 529.153125 26.7 
L 529.153125 69.234375 
Q 529.153125 72.234375 532.153125 72.234375 
z
" style="fill:#ffffff;opacity:0.8;stroke:#cccccc;stroke-linejoin:miter;"/>
    </g>
    <g id="line2d_15">
     <path d="M 535.153125 35.847656 
L 565.153125 35.847656 
" style="fill:none;stroke:#1f77b4;stroke-linecap:square;stroke-width:1.5;"/>
    </g>
    <g id="line2d_16"/>
    <g id="text_15">
     <text style="font-family:DejaVu Sans;font-size:15px;font-style:normal;font-weight:normal;text-anchor:start;" transform="rotate(-0, 577.153125, 41.097656)" x="577.153125" y="41.097656">Training Loss</text>
    </g>
    <g id="line2d_17">
     <path d="M 535.153125 57.864844 
L 565.153125 57.864844 
" style="fill:none;stroke:#ff7f0e;stroke-linecap:square;stroke-width:1.5;"/>
    </g>
    <g id="line2d_18"/>
    <g id="text_16">
     <text style="font-family:DejaVu Sans;font-size:15px;font-style:normal;font-weight:normal;text-anchor:start;" transform="rotate(-0, 577.153125, 63.114844)" x="577.153125" y="63.114844">Validation Loss</text>
    </g>
   </g>
  </g>
 </g>
 <defs>
  <clipPath id="p98f2e0d49f">
   <rect height="287.8" width="638.35" x="65.45" y="16.2"/>
  </clipPath>
 </defs>
</svg>
