<?xml version="1.0" encoding="UTF-8" standalone="no"?>
<!-- Created with matplotlib (https://matplotlib.org/) -->

<svg
   height="328.23499pt"
   version="1.1"
   viewBox="0 0 687.6593 328.23499"
   width="687.6593pt"
   id="svg186"
   sodipodi:docname="transformer_dataset1_acc_comparison.svg"
   inkscape:version="1.2.2 (1:1.2.2+202305151915+b0a8486541)"
   xmlns:inkscape="http://www.inkscape.org/namespaces/inkscape"
   xmlns:sodipodi="http://sodipodi.sourceforge.net/DTD/sodipodi-0.dtd"
   xmlns:xlink="http://www.w3.org/1999/xlink"
   xmlns="http://www.w3.org/2000/svg"
   xmlns:svg="http://www.w3.org/2000/svg">
  <sodipodi:namedview
     id="namedview188"
     pagecolor="#ffffff"
     bordercolor="#666666"
     borderopacity="1.0"
     inkscape:showpageshadow="2"
     inkscape:pageopacity="0.0"
     inkscape:pagecheckerboard="0"
     inkscape:deskcolor="#d1d1d1"
     inkscape:document-units="pt"
     showgrid="false"
     inkscape:zoom="1.446875"
     inkscape:cx="445.09719"
     inkscape:cy="219.09287"
     inkscape:window-width="1920"
     inkscape:window-height="1080"
     inkscape:window-x="0"
     inkscape:window-y="0"
     inkscape:window-maximized="1"
     inkscape:current-layer="svg186" />
  <defs
     id="defs4">
    <style
       type="text/css"
       id="style2">
*{stroke-linecap:butt;stroke-linejoin:round;}
  </style>
  </defs>
  <g
     id="figure_1"
     transform="translate(-16.540729,-15.8)">
    <g
       id="axes_1">
      <g
         id="patch_2">
        <path
           d="M 65.45,304 H 703.8 V 16.2 H 65.45 Z"
           style="fill:#ffffff"
           id="path9" />
      </g>
      <g
         id="matplotlib.axis_1">
        <g
           id="xtick_1">
          <g
             id="line2d_1">
            <defs
               id="defs13">
              <path
                 d="M 0,0 V 3.5"
                 id="m87cb5aa050"
                 style="stroke:#000000;stroke-width:0.8" />
            </defs>
            <g
               id="g17">
              <use
                 style="stroke:#000000;stroke-width:0.8"
                 x="93.288795"
                 xlink:href="#m87cb5aa050"
                 y="304"
                 id="use15" />
            </g>
          </g>
          <g
             id="text_1">
            <text
               style="font-style:normal;font-weight:normal;font-size:15px;font-family:'DejaVu Sans';text-anchor:middle"
               x="93.288795"
               y="322.39764"
               id="text20">0</text>
          </g>
        </g>
        <g
           id="xtick_2">
          <g
             id="line2d_2">
            <g
               id="g26">
              <use
                 style="stroke:#000000;stroke-width:0.8"
                 x="211.0004"
                 xlink:href="#m87cb5aa050"
                 y="304"
                 id="use24" />
            </g>
          </g>
          <g
             id="text_2">
            <text
               style="font-style:normal;font-weight:normal;font-size:15px;font-family:'DejaVu Sans';text-anchor:middle"
               x="211.0004"
               y="322.39764"
               id="text29">100</text>
          </g>
        </g>
        <g
           id="xtick_3">
          <g
             id="line2d_3">
            <g
               id="g35">
              <use
                 style="stroke:#000000;stroke-width:0.8"
                 x="328.71201"
                 xlink:href="#m87cb5aa050"
                 y="304"
                 id="use33" />
            </g>
          </g>
          <g
             id="text_3">
            <text
               style="font-style:normal;font-weight:normal;font-size:15px;font-family:'DejaVu Sans';text-anchor:middle"
               x="328.71201"
               y="322.39764"
               id="text38">200</text>
          </g>
        </g>
        <g
           id="xtick_4">
          <g
             id="line2d_4">
            <g
               id="g44">
              <use
                 style="stroke:#000000;stroke-width:0.8"
                 x="446.42358"
                 xlink:href="#m87cb5aa050"
                 y="304"
                 id="use42" />
            </g>
          </g>
          <g
             id="text_4">
            <text
               style="font-style:normal;font-weight:normal;font-size:15px;font-family:'DejaVu Sans';text-anchor:middle"
               x="446.42358"
               y="322.39764"
               id="text47">300</text>
          </g>
        </g>
        <g
           id="xtick_5">
          <g
             id="line2d_5">
            <g
               id="g53">
              <use
                 style="stroke:#000000;stroke-width:0.8"
                 x="564.13519"
                 xlink:href="#m87cb5aa050"
                 y="304"
                 id="use51" />
            </g>
          </g>
          <g
             id="text_5">
            <text
               style="font-style:normal;font-weight:normal;font-size:15px;font-family:'DejaVu Sans';text-anchor:middle"
               x="564.13519"
               y="322.39764"
               id="text56">400</text>
          </g>
        </g>
        <g
           id="xtick_6">
          <g
             id="line2d_6">
            <g
               id="g62">
              <use
                 style="stroke:#000000;stroke-width:0.8"
                 x="681.8468"
                 xlink:href="#m87cb5aa050"
                 y="304"
                 id="use60" />
            </g>
          </g>
          <g
             id="text_6">
            <text
               style="font-style:normal;font-weight:normal;font-size:15px;font-family:'DejaVu Sans';text-anchor:middle"
               x="681.8468"
               y="322.39764"
               id="text65">500</text>
          </g>
        </g>
        <g
           id="text_7">
          <text
             style="font-style:normal;font-weight:normal;font-size:15px;font-family:'DejaVu Sans';text-anchor:middle"
             x="384.625"
             y="340.91486"
             id="text69">Epoch</text>
        </g>
      </g>
      <g
         id="matplotlib.axis_2">
        <g
           id="ytick_1">
          <g
             id="line2d_7">
            <defs
               id="defs74">
              <path
                 d="M 0,0 H -3.5"
                 id="m813f254812"
                 style="stroke:#000000;stroke-width:0.8" />
            </defs>
            <g
               id="g78">
              <use
                 style="stroke:#000000;stroke-width:0.8"
                 x="65.449997"
                 xlink:href="#m813f254812"
                 y="296.78244"
                 id="use76" />
            </g>
          </g>
          <g
             id="text_8">
            <text
               style="font-style:normal;font-weight:normal;font-size:15px;font-family:'DejaVu Sans';text-anchor:end"
               x="58.450001"
               y="302.48129"
               id="text81">0.3</text>
          </g>
        </g>
        <g
           id="ytick_2">
          <g
             id="line2d_8">
            <g
               id="g87">
              <use
                 style="stroke:#000000;stroke-width:0.8"
                 x="65.449997"
                 xlink:href="#m813f254812"
                 y="256.6348"
                 id="use85" />
            </g>
          </g>
          <g
             id="text_9">
            <text
               style="font-style:normal;font-weight:normal;font-size:15px;font-family:'DejaVu Sans';text-anchor:end"
               x="58.450001"
               y="262.33362"
               id="text90">0.4</text>
          </g>
        </g>
        <g
           id="ytick_3">
          <g
             id="line2d_9">
            <g
               id="g96">
              <use
                 style="stroke:#000000;stroke-width:0.8"
                 x="65.449997"
                 xlink:href="#m813f254812"
                 y="216.48715"
                 id="use94" />
            </g>
          </g>
          <g
             id="text_10">
            <text
               style="font-style:normal;font-weight:normal;font-size:15px;font-family:'DejaVu Sans';text-anchor:end"
               x="58.450001"
               y="222.18597"
               id="text99">0.5</text>
          </g>
        </g>
        <g
           id="ytick_4">
          <g
             id="line2d_10">
            <g
               id="g105">
              <use
                 style="stroke:#000000;stroke-width:0.8"
                 x="65.449997"
                 xlink:href="#m813f254812"
                 y="176.33951"
                 id="use103" />
            </g>
          </g>
          <g
             id="text_11">
            <text
               style="font-style:normal;font-weight:normal;font-size:15px;font-family:'DejaVu Sans';text-anchor:end"
               x="58.450001"
               y="182.03833"
               id="text108">0.6</text>
          </g>
        </g>
        <g
           id="ytick_5">
          <g
             id="line2d_11">
            <g
               id="g114">
              <use
                 style="stroke:#000000;stroke-width:0.8"
                 x="65.449997"
                 xlink:href="#m813f254812"
                 y="136.19185"
                 id="use112" />
            </g>
          </g>
          <g
             id="text_12">
            <text
               style="font-style:normal;font-weight:normal;font-size:15px;font-family:'DejaVu Sans';text-anchor:end"
               x="58.450001"
               y="141.89069"
               id="text117">0.7</text>
          </g>
        </g>
        <g
           id="ytick_6">
          <g
             id="line2d_12">
            <g
               id="g123">
              <use
                 style="stroke:#000000;stroke-width:0.8"
                 x="65.449997"
                 xlink:href="#m813f254812"
                 y="96.044205"
                 id="use121" />
            </g>
          </g>
          <g
             id="text_13">
            <text
               style="font-style:normal;font-weight:normal;font-size:15px;font-family:'DejaVu Sans';text-anchor:end"
               x="58.450001"
               y="101.74303"
               id="text126">0.8</text>
          </g>
        </g>
        <g
           id="ytick_7">
          <g
             id="line2d_13">
            <g
               id="g132">
              <use
                 style="stroke:#000000;stroke-width:0.8"
                 x="65.449997"
                 xlink:href="#m813f254812"
                 y="55.896557"
                 id="use130" />
            </g>
          </g>
          <g
             id="text_14">
            <text
               style="font-style:normal;font-weight:normal;font-size:15px;font-family:'DejaVu Sans';text-anchor:end"
               x="58.450001"
               y="61.595383"
               id="text135">0.9</text>
          </g>
        </g>
        <g
           id="text_15">
          <text
             style="font-style:normal;font-weight:normal;font-size:15px;font-family:'DejaVu Sans';text-anchor:middle"
             transform="rotate(-90,27.475781,160.1)"
             x="27.47578"
             y="160.10001"
             id="text139">Accuracy</text>
        </g>
      </g>
      <g
         id="line2d_14">
        <path
           clip-path="url(#pe1704a0bf4)"
           d="m 94.465909,285.65538 1.177116,5.2628 1.177116,-18.04388 1.177116,-3.75914 1.177116,-0.75183 1.177117,-1.50366 1.17712,-15.03657 1.17711,-6.76645 1.17712,-12.02927 1.17711,-1.50366 1.17712,-12.02925 1.17712,-30.82497 1.17711,-5.2628 1.17712,-19.54756 1.17711,-3.00732 1.17712,-5.2628 1.17711,-12.78108 1.17712,-9.02194 1.17712,-7.51829 1.17711,-17.29205 1.17712,9.02194 1.17711,3.75914 1.17712,-7.51828 1.17712,-0.75183 1.17711,-3.75914 1.17712,0.75183 1.17712,4.51097 1.17711,-20.299372 1.17712,9.021942 1.17711,-0.75183 1.17712,-3.007313 1.17711,4.510973 1.17712,-18.043885 1.17712,1.503657 1.17711,5.262799 1.17712,-4.510971 1.17711,5.2628 1.17712,-15.788398 1.17712,12.029255 1.17711,-14.28474 1.17712,18.795711 1.17711,0.751829 1.17712,-6.014628 1.17712,-5.262799 1.17711,-4.510971 h 1.17712 l 1.17711,-3.759142 1.17712,7.518284 1.17712,-3.007314 1.17711,3.759143 1.17712,-1.503657 1.17711,-9.021942 1.17712,8.270113 1.17712,-3.759142 1.17711,0.751828 1.17712,-2.255485 1.17711,1.503657 1.17712,-3.759142 1.17712,11.277427 1.17711,-6.014628 1.17712,-3.759142 1.17711,0.751828 1.17712,-4.510971 1.17712,9.021942 1.17711,-1.503657 1.17712,-7.518285 1.17711,11.277427 1.17712,-6.014627 1.17712,3.759142 1.17711,2.255485 1.17712,-8.270113 1.17711,3.007314 1.17712,-15.036593 1.17712,6.76648 1.17711,-1.503657 1.17712,1.503657 1.17711,-3.007314 1.17712,4.510971 1.17712,-3.007314 1.17711,0.751828 1.17712,5.2628 1.17711,-7.518285 1.17712,0.751829 1.17712,1.503656 1.17711,3.759143 1.17712,-3.759143 1.17711,-2.255485 1.17712,3.007314 1.17712,2.255485 1.17711,-7.518308 1.17712,-1.503657 1.17711,11.277451 1.17712,-5.2628 1.17712,1.503657 1.17711,0.751829 1.17712,-6.014652 1.17711,-3.759142 1.17712,0.751828 1.17712,5.262824 1.17711,3.007313 1.17712,-8.270137 1.17711,10.525623 1.17712,-6.014628 1.17712,-3.759166 1.17711,2.255485 1.17712,6.76648 1.17711,-7.518308 1.17712,-0.751829 1.17712,4.510995 1.17711,-3.759166 1.17712,-6.014628 1.17711,5.262799 1.17712,6.014652 1.17712,0.751828 1.17711,-12.029279 1.17712,9.773794 1.17711,-8.270137 1.17712,4.510971 1.17712,10.525622 1.17711,-16.54025 1.17712,10.525622 1.17711,-2.255485 1.17712,2.255485 1.17712,-4.510994 1.17711,3.759166 1.17712,5.262799 1.17711,-8.270137 1.17712,6.014652 1.17711,-9.021966 1.17712,12.02928 1.17712,-8.270113 1.17711,-3.759167 2.35423,3.007314 1.17712,16.54025 1.17712,-3.759142 1.17711,-4.510971 1.17712,-9.773794 1.17711,9.021966 1.17712,-9.773794 h 1.17712 l 1.17711,-3.007314 1.17712,3.759142 1.17711,2.25551 2.35424,3.007313 1.17711,4.510971 1.17712,-17.292078 1.17711,9.021941 1.17712,-7.518284 1.17712,5.262799 1.17711,-6.014628 1.17712,3.007314 1.17712,1.503657 1.17711,-4.510971 1.17712,9.021966 1.17711,-3.007338 1.17712,3.759166 1.17712,-6.76648 1.17711,-4.510971 1.17712,3.007314 1.17711,-0.751828 2.35424,4.51097 1.17711,0.751829 1.17712,-7.518285 2.35423,10.525623 1.17711,-12.02928 1.17712,14.284765 1.17712,-6.76648 1.17711,-0.751829 1.17712,3.007314 1.17711,-6.014627 1.17712,5.262799 1.17712,-2.255486 h 1.17711 l 1.17712,-2.255485 1.17711,1.503657 1.17712,-0.751828 1.17712,-8.270114 1.17711,14.284741 1.17712,-4.510971 1.17711,3.007314 1.17712,-9.77377 1.17712,-4.51097 1.17711,15.788397 1.17712,-6.766456 1.17711,-3.759142 1.17712,3.007314 1.17712,6.766456 1.17711,3.007338 1.17712,-5.262824 1.17711,3.007314 1.17712,3.759166 1.17712,-6.014651 1.17711,2.255485 1.17712,-6.014627 1.17711,4.51097 1.17712,-6.014627 1.17712,-0.751829 1.17711,3.759142 1.17712,27.817677 1.17711,-6.766456 1.17712,0.751829 1.17712,3.759142 1.17711,-12.781084 1.17712,0.751829 1.17711,-9.773794 1.17712,9.021965 1.17712,5.262799 1.17711,-4.51097 1.17712,0.751828 1.17711,-7.518284 1.17712,-1.503657 1.17712,0.751828 1.17711,-3.007338 1.17712,-0.751828 1.17711,3.007338 h 2.35424 l 1.17711,-3.759167 1.17712,6.76648 1.17711,-10.525622 1.17712,8.270137 1.17712,-9.773794 1.17711,2.255486 1.17712,1.503656 1.17711,-6.014627 1.17712,6.014627 1.17712,-6.766456 1.17711,12.781108 1.17712,-9.021965 1.17711,6.766456 1.17712,-5.262799 1.17712,2.255485 h 1.17711 l 1.17712,-6.014628 1.17711,3.007314 1.17712,-0.751828 1.17712,6.766456 1.17711,-6.766456 1.17712,7.518284 1.17711,-6.766456 1.17712,2.255485 1.17712,-2.255485 1.17711,5.262799 1.17712,-7.518284 1.17711,6.766456 1.17712,-8.270113 1.17712,6.766456 1.17711,-6.766456 1.17712,10.525598 1.17711,-7.518284 1.17712,-2.255486 1.17712,3.007314 1.17711,-3.759142 1.17712,6.766456 1.17711,-5.262799 1.17712,2.255485 1.17712,-6.766456 1.17711,8.270113 1.17712,-1.503657 1.17711,-8.270113 1.17712,8.270113 1.17712,-3.759142 1.17711,-0.751829 1.17712,-2.255485 1.17711,7.518285 1.17712,0.751828 1.17712,-9.021942 1.17711,13.532913 1.17712,-3.759143 1.17711,-8.270113 1.17712,9.021942 1.17712,-6.766456 1.17711,7.518284 1.17712,-2.255485 h 1.17711 l 1.17712,2.255485 1.17712,-0.751828 1.17711,-2.255485 1.17712,-9.77377 1.17711,7.518284 1.17712,-3.759142 1.17712,1.503657 1.17711,-3.007314 1.17712,3.007314 2.35423,4.510971 1.17711,-3.759143 1.17712,2.255486 1.17712,-0.751829 1.17711,1.503657 1.17712,-5.262799 1.17711,25.562191 1.17712,21.051197 1.17712,-12.781084 1.17711,-10.525598 1.17712,1.503657 1.17711,-6.014628 1.17712,-0.751828 1.17712,8.270113 h 1.17711 l 1.17712,-18.795736 1.17711,6.766481 1.17712,-11.277451 1.17712,9.773794 1.17711,0.751828 1.17712,3.759142 h 1.17712 l 1.17711,-12.029279 1.17712,9.021966 1.17711,3.759142 1.17712,-9.773794 1.17712,8.270137 1.17711,-9.773794 h 1.17712 l 1.17711,4.510971 1.17712,3.007338 1.17712,4.51097 1.17711,-3.007314 h 1.17712 l 1.17711,-8.270137 1.17712,6.014652 1.17712,3.759142 1.17711,-5.262823 1.17712,-0.751828 1.17711,-3.759143 h 1.17712 l 1.17711,-3.759142 1.17712,1.503657 1.17712,12.029279 1.17711,-6.76648 1.17712,6.76648 2.35423,-10.525622 1.17712,4.510971 1.17711,-3.759143 1.17712,-1.503656 1.17711,3.007313 1.17712,0.751829 1.17712,3.007338 1.17711,2.255485 1.17712,-9.021965 1.17711,-2.255486 1.17712,7.518285 1.17712,-7.518285 1.17711,4.510971 1.17712,-2.255485 h 1.17711 l 1.17712,1.503656 2.35423,-1.503656 1.17712,2.255485 1.17711,-0.751829 1.17712,-6.014627 1.17712,3.759142 1.17711,-1.503657 1.17712,-4.510971 1.17711,9.77377 1.17712,2.255486 1.17712,-8.270113 1.17711,9.021941 1.17712,-8.270113 1.17711,1.503657 1.17712,-2.255485 1.17712,6.766456 1.17711,-3.759142 1.17712,-6.014628 1.17711,5.262799 1.17712,-2.255485 1.17712,-1.503657 1.17711,-2.255486 1.17712,6.014628 h 1.17711 l 1.17712,-6.766456 1.17712,5.262799 1.17711,6.766456 1.17712,-3.007314 1.17711,-6.014627 1.17712,6.014627 1.17712,-6.014627 1.17711,3.007314 1.17712,-2.255486 1.17711,-6.766456 1.17712,10.525599 1.17712,-1.503657 1.17711,-2.255486 1.17712,-3.759142 1.17711,0.751828 1.17712,8.270113 1.17712,6.014652 1.17711,-12.029279 1.17712,2.255485 1.17711,-5.262799 1.17712,-2.255485 1.17712,9.021941 1.17711,-8.270113 1.17712,9.021942 1.17711,-4.510971 1.17712,5.262799 1.17712,-8.270113 1.17711,12.781084 1.17712,-7.518285 1.17711,4.510971 1.17712,-6.766456 1.17712,-2.255486 1.17711,4.510971 1.17712,0.751829 1.17711,-6.766457 1.17712,-2.255485 1.17712,3.007314 1.17711,2.255485 1.17712,1.503657 1.17711,-3.759142 1.17712,10.525598 1.17712,-7.518284 1.17711,5.262799 1.17712,-6.014628 1.17711,6.014628 1.17712,-2.255485 1.17712,-0.751829 1.17711,-3.759142 1.17712,3.007314 1.17711,6.766456 1.17712,-6.766456 1.17712,6.766456 1.17711,-6.766456 1.17712,3.007314 1.17711,-15.788398 1.17712,15.788398 1.17712,-9.021942 1.17711,12.029255 1.17712,-11.277427 1.17711,6.014628 1.17712,-6.766456 1.17712,8.270113 1.17711,-12.781084 1.17712,6.014628 1.17711,-0.751829 1.17712,1.503657 1.17712,-3.759142 1.17711,4.510971 1.17712,5.262799 1.17711,-10.525598 1.17712,12.781083 1.17711,-8.270113 1.17712,6.766457 1.17712,-9.021942 1.17711,4.510971 1.17712,3.759142 1.17711,-9.021941 1.17712,1.503656 1.17712,6.766457 1.17711,-6.766457 1.17712,-0.751828 1.17711,6.014628 1.17712,-2.255486 1.17712,0.751829 1.17711,-3.007314 1.17712,-0.751829 1.17711,6.766457 1.17712,-1.503657 1.17712,-5.2628 1.17711,0.751829 1.17712,-3.007314 1.17711,3.007314 1.17712,5.262799 1.17712,-3.759142 1.17711,11.277427 1.17712,-9.77377 1.17712,-4.510971 1.17711,-1.503657 1.17712,6.014628 1.17711,-6.014628 1.17712,12.781084 1.17712,-6.014628 1.17711,-3.759142 1.17712,-7.518285 1.17711,6.766456 1.17712,-4.51097 1.17712,8.270113 1.17711,3.007314 1.17712,-3.007314 1.17711,-0.751829 h 1.17712 l 1.17712,-9.021941 1.17711,6.014627 h 1.17712 l 1.17711,-3.007313 1.17712,7.518284 1.17712,-3.759142 1.17711,2.255485 v 0"
           style="fill:none;stroke:#1f77b4;stroke-width:1.5;stroke-linecap:square"
           id="path143" />
      </g>
      <g
         id="line2d_15">
        <path
           clip-path="url(#pe1704a0bf4)"
           d="m 94.465909,288.6627 1.177116,-94.7304 1.177116,63.1536 1.177116,-78.942 1.177116,-18.04391 1.177117,-27.06582 1.17712,-6.76646 1.17711,18.04389 1.17712,4.51097 1.17711,-11.27743 1.17712,22.55485 1.17712,-6.76645 1.17711,-15.7884 1.17712,-4.51097 1.17711,-15.7884 1.17712,29.32131 1.17711,-24.81034 2.35424,4.51097 h 1.17711 l 1.17712,-29.321307 1.17711,22.554857 1.17712,-33.832283 1.17712,4.51097 1.17711,-13.532912 1.17712,4.510971 1.17712,27.065824 1.17711,-22.554853 1.17712,2.255485 h 1.17711 l 1.17712,-4.510971 1.17711,2.255486 1.17712,-13.532913 1.17712,-2.255485 1.17711,4.510971 1.17712,2.255485 1.17711,-2.255485 1.17712,2.255485 1.17712,4.510971 1.17711,-2.255486 1.17712,-9.021941 1.17711,4.510971 1.17712,-6.766456 1.17712,2.255485 3.53134,-6.76648 1.17712,2.255485 h 3.53135 l 2.35423,-4.510971 1.17712,2.255486 1.17711,4.510995 1.17712,-2.25551 h 1.17711 l 1.17712,-2.255485 h 1.17712 l 1.17711,2.255485 h 1.17712 l 1.17711,4.510995 2.35424,-4.510995 h 1.17711 l 1.17712,-2.255485 1.17711,2.255485 1.17712,-6.766456 1.17712,15.788422 1.17711,-13.532937 h 2.35423 l 1.17712,2.255486 1.17712,-6.766456 1.17711,2.255485 1.17712,6.766456 1.17711,-4.510971 1.17712,-2.255485 h 1.17712 l 1.17711,2.255485 1.17712,-2.255485 h 5.88558 l 1.17711,-4.510971 1.17712,2.255486 1.17712,-2.255486 1.17711,6.766456 1.17712,-4.51097 1.17711,2.255485 1.17712,4.510971 1.17712,-11.277427 1.17711,9.021941 h 2.35423 l 1.17712,-2.255485 h 1.17712 l 1.17711,4.510971 1.17712,-2.255486 1.17711,4.510971 1.17712,-9.021941 1.17712,4.51097 1.17711,-9.021941 1.17712,4.510971 h 2.35423 l 1.17712,4.51097 1.17711,-4.51097 1.17712,2.255485 2.35423,-9.021941 1.17712,2.255485 1.17711,-4.510971 1.17712,9.021942 1.17711,-4.510971 1.17712,6.766456 1.17712,-9.021941 1.17711,-4.510971 1.17712,11.277427 h 1.17711 l 1.17712,4.51097 1.17712,-13.532912 1.17711,2.255486 1.17712,6.766456 1.17711,-2.255486 1.17712,6.766456 1.17711,-9.021941 1.17712,2.255485 1.17712,-2.255485 1.17711,4.510971 1.17712,-9.021942 1.17711,42.854246 1.17712,-29.321334 1.17712,-2.255485 1.17711,2.255485 1.17712,-13.532912 h 2.35423 l 1.17712,-2.255485 1.17711,2.255485 h 1.17712 l 1.17711,-2.255485 1.17712,13.532912 1.17712,-4.510971 1.17711,-6.766456 1.17712,-2.255485 1.17711,4.510971 1.17712,6.766456 1.17712,-2.255486 h 2.35423 l 1.17712,-2.255485 1.17711,4.510971 h 1.17712 l 1.17711,-4.510971 1.17712,6.766456 1.17712,-4.510971 1.17711,4.510971 1.17712,2.255485 1.17711,-4.51097 1.17712,-9.021942 1.17712,6.766456 1.17711,-9.021941 1.17712,2.255485 2.35423,-4.510971 1.17711,6.766457 1.17712,2.255485 1.17712,-4.510971 h 1.17711 l 2.35423,-4.510971 h 2.35424 l 1.17711,2.255486 h 1.17712 l 1.17711,-2.255486 1.17712,2.255486 1.17712,-2.255486 1.17711,9.021942 2.35423,-4.510971 1.17712,4.510971 1.17712,-6.766456 1.17711,2.255485 1.17712,4.510971 3.53135,6.766456 1.17711,-6.766456 h 1.17712 l 1.17711,-6.766456 1.17712,4.510971 1.17712,2.255485 1.17711,-2.255485 1.17712,-11.277427 1.17711,13.532912 1.17712,-6.766456 1.17712,9.021941 1.17711,11.277427 1.17712,-4.510971 1.17711,-11.277426 1.17712,11.277426 1.17712,2.255486 1.17711,-9.021942 1.17712,2.255486 1.17711,-2.255486 2.35424,4.510971 1.17711,-4.510971 1.17712,4.510971 1.17711,-2.255485 h 1.17712 l 1.17712,4.51097 1.17711,-11.277426 1.17712,-4.510971 2.35423,9.021941 1.17712,-6.766456 1.17711,2.255486 2.35423,-9.021942 1.17712,9.021942 1.17712,-9.021942 1.17711,2.255485 1.17712,13.532913 1.17711,-18.043883 1.17712,-2.255486 1.17712,18.043883 1.17711,-2.255485 1.17712,-13.532912 1.17711,6.766456 1.17712,2.255485 1.17712,-6.766456 1.17711,15.788398 1.17712,-13.532913 1.17711,-4.51097 1.17712,4.51097 1.17712,-6.766456 1.17711,6.766456 1.17712,2.255486 1.17711,-6.766456 1.17712,11.277427 1.17712,-11.277427 1.17711,9.021941 1.17712,-11.277427 1.17711,2.255486 1.17712,6.766456 2.35423,-4.510971 1.17712,2.255485 1.17711,4.510971 1.17712,-6.766456 1.17712,9.021942 1.17711,-6.766457 1.17712,4.510971 1.17711,-6.766456 1.17712,2.255485 1.17712,-2.255485 h 1.17711 l 1.17712,4.510971 h 2.35423 l 1.17712,-4.510971 1.17711,2.255485 h 1.17712 l 1.17711,-6.766456 1.17712,4.510971 h 2.35423 l 1.17712,-6.766456 1.17711,6.766456 h 3.53135 l 1.17712,6.766456 1.17711,-4.510971 1.17712,-2.255485 1.17712,4.510971 1.17711,-6.766456 1.17712,4.51097 1.17711,-2.255485 h 4.70847 l 1.17711,2.255485 1.17712,-4.51097 1.17711,9.021941 1.17712,-2.255485 h 2.35423 l 1.17712,42.854246 1.17711,-11.277427 1.17712,-13.532936 1.17712,2.255485 1.17711,-6.766456 1.17712,-2.255485 1.17711,4.51097 h 1.17712 l 1.17712,-2.255485 1.17711,-9.021941 h 2.35423 l 1.17712,2.255485 h 1.17712 l 1.17711,-4.510971 1.17712,9.021942 1.17712,-9.021942 h 2.35423 l 1.17711,4.510971 1.17712,-4.510971 h 1.17712 l 1.17711,-2.255485 1.17712,6.766456 h 1.17711 l 1.17712,-11.277427 1.17712,4.510971 1.17711,2.255485 h 1.17712 l 1.17711,2.255486 1.17712,-4.510971 1.17712,-2.255486 1.17711,11.277427 1.17712,-11.277427 1.17711,2.255486 1.17712,-2.255486 h 1.17711 l 1.17712,-2.255485 2.35423,4.510971 1.17712,-2.255486 1.17711,-4.51097 1.17712,-2.255486 1.17712,2.255486 1.17711,6.766456 h 1.17712 l 1.17711,-6.766456 1.17712,6.766456 h 1.17712 l 1.17711,-9.021942 1.17712,-2.255485 h 1.17711 l 1.17712,6.766456 1.17712,-6.766456 1.17711,9.021941 1.17712,2.255486 1.17711,-9.021942 1.17712,4.510971 h 1.17712 l 1.17711,4.510971 1.17712,-6.766456 1.17711,4.51097 1.17712,-2.255485 1.17712,-6.766456 1.17711,-2.255485 1.17712,18.043883 1.17711,-20.299369 1.17712,9.021942 1.17712,-2.255486 h 1.17711 l 2.35423,9.021942 1.17712,2.255485 1.17712,-2.255485 1.17711,4.510971 1.17712,-9.021942 1.17711,-4.510971 1.17712,2.255486 1.17712,-2.255486 h 1.17711 l 1.17712,6.766456 h 1.17711 l 1.17712,2.255486 1.17712,-4.510971 1.17711,6.766456 1.17712,-4.510971 1.17711,2.255486 1.17712,-6.766456 1.17712,2.255485 h 1.17711 l 1.17712,6.766456 1.17711,-4.510971 1.17712,-2.255485 1.17712,9.021942 1.17711,-6.766457 1.17712,2.255486 1.17711,-9.021942 1.17712,-2.255485 h 1.17712 l 1.17711,4.510971 h 1.17712 l 1.17711,4.51097 1.17712,-2.255485 h 4.70846 l 1.17712,-4.510971 1.17712,9.021942 1.17711,-6.766456 h 2.35423 l 1.17712,2.255485 h 3.53135 l 1.17711,-4.510971 1.17712,4.510971 1.17712,6.766456 1.17711,-9.021941 1.17712,2.255485 1.17711,-4.510971 1.17712,2.255486 h 3.53135 l 2.35423,4.51097 1.17712,-4.51097 h 4.70846 l 1.17712,9.021941 1.17711,-2.255485 1.17712,-9.021942 h 2.35423 l 1.17712,2.255486 1.17711,-2.255486 1.17712,4.510971 1.17711,-2.255485 h 1.17712 l 1.17712,-2.255486 1.17711,4.510971 1.17712,-2.255485 h 1.17711 l 1.17712,4.51097 1.17712,-9.021941 h 1.17711 l 1.17712,6.766456 1.17711,-4.510971 1.17712,2.255486 h 1.17711 l 1.17712,-2.255486 1.17712,13.532913 1.17711,-11.277427 1.17712,13.532912 1.17711,-6.766456 h 1.17712 l 1.17712,-4.510971 h 2.35423 l 1.17711,-4.510971 1.17712,6.766456 1.17712,-6.766456 1.17711,6.766456 1.17712,2.255486 2.35423,-4.510971 1.17712,2.255485 1.17711,-2.255485 h 1.17712 l 1.17711,2.255485 h 1.17712 l 1.17712,-4.51097 h 1.17711 l 1.17712,2.255485 h 1.17712 l 1.17711,2.255485 1.17712,-4.51097 1.17711,2.255485 1.17712,-4.510971 1.17712,4.510971 h 1.17711 l 1.17712,-2.255485 h 4.70846 l 1.17712,-2.255486 2.35423,4.510971 1.17712,-2.255485 1.17711,-4.510971 h 2.35423 l 1.17712,13.532912 1.17712,-11.277427 1.17711,2.255486 v 0"
           style="fill:none;stroke:#ff7f0e;stroke-width:1.5;stroke-linecap:square"
           id="path146" />
      </g>
      <g
         id="patch_3">
        <path
           d="M 65.45,304 V 16.2"
           style="fill:none;stroke:#000000;stroke-width:0.8;stroke-linecap:square;stroke-linejoin:miter"
           id="path149" />
      </g>
      <g
         id="patch_4">
        <path
           d="M 703.8,304 V 16.2"
           style="fill:none;stroke:#000000;stroke-width:0.8;stroke-linecap:square;stroke-linejoin:miter"
           id="path152" />
      </g>
      <g
         id="patch_5">
        <path
           d="M 65.45,304 H 703.8"
           style="fill:none;stroke:#000000;stroke-width:0.8;stroke-linecap:square;stroke-linejoin:miter"
           id="path155" />
      </g>
      <g
         id="patch_6">
        <path
           d="M 65.45,16.2 H 703.8"
           style="fill:none;stroke:#000000;stroke-width:0.8;stroke-linecap:square;stroke-linejoin:miter"
           id="path158" />
      </g>
      <g
         id="legend_1">
        <g
           id="patch_7">
          <path
             d="M 496.57031,296.5 H 693.3 q 3,0 3,-3 v -42.53438 q 0,-3 -3,-3 H 496.57031 q -3,0 -3,3 V 293.5 q 0,3 3,3 z"
             style="opacity:0.8;fill:#ffffff;stroke:#cccccc;stroke-linejoin:miter"
             id="path161" />
        </g>
        <g
           id="line2d_16">
          <path
             d="m 499.57031,260.11328 h 30"
             style="fill:none;stroke:#1f77b4;stroke-width:1.5;stroke-linecap:square"
             id="path164" />
        </g>
        <g
           id="line2d_17" />
        <g
           id="text_16">
          <text
             style="font-style:normal;font-weight:normal;font-size:15px;font-family:'DejaVu Sans';text-anchor:start"
             x="541.57031"
             y="265.36328"
             id="text168">Training Accuracy</text>
        </g>
        <g
           id="line2d_18">
          <path
             d="m 499.57031,282.13047 h 30"
             style="fill:none;stroke:#ff7f0e;stroke-width:1.5;stroke-linecap:square"
             id="path171" />
        </g>
        <g
           id="line2d_19" />
        <g
           id="text_17">
          <text
             style="font-style:normal;font-weight:normal;font-size:15px;font-family:'DejaVu Sans';text-anchor:start"
             x="541.57031"
             y="287.38046"
             id="text175">Validation Accuracy</text>
        </g>
      </g>
    </g>
  </g>
  <defs
     id="defs184">
    <clipPath
       id="pe1704a0bf4">
      <rect
         height="287.79999"
         width="638.34998"
         x="65.449997"
         y="16.200001"
         id="rect181" />
    </clipPath>
  </defs>
</svg>
